<svg id="Layer_1" data-name="Layer 1" xmlns="http://www.w3.org/2000/svg" viewBox="0 0 235.51 46"><defs><style>.cls-1,.cls-2{fill:#ffb800;}.cls-2{font-size:14.73px;font-family:Montserrat-Bold, Montserrat;font-weight:700;}</style></defs><path class="cls-1" d="M31.32,6.12H8.81C7.07,6.79,6.7,7.35,6.7,9.27v3.37a2.45,2.45,0,0,0,0,.33,5,5,0,0,1,2-2.74C9,10.06,8.94,9.4,9,9s.08-.6.54-.6l10.29.13-3.08.62c-1.4.27-1.66.57-1.66,2Q15,24.55,15,38a1.82,1.82,0,0,0,1,1.91h.75c1.84-.39,3.69-.81,5.53-1.18L30.79,37a1.37,1.37,0,0,0,1.29-1.55q0-14,0-28A1.46,1.46,0,0,0,31.32,6.12ZM17.9,26.22a1.12,1.12,0,1,1,0-2.24,1.12,1.12,0,0,1,0,2.24Zm7.61-10.76-3.37.68c-.56.11-1.2.21-1.26-.59-.1-1.23-.14-1.74.82-1.92,1.17-.22,2.34-.46,3.51-.7s1.44,0,1.44,1.17S26.6,15.23,25.51,15.46Z"/><path class="cls-1" d="M13.85,35.68c-1.68,0-3.3,0-4.92,0a2.35,2.35,0,0,1-2.22-2.32c0-1.82,0-3.65,0-5.4L9,29.31v4.06h4.61l-.8-2.58c-.12,0-.17-.05-.21,0-1.46.38-1.53.31-1.66-1.2a28.83,28.83,0,0,0-.51-3.44c-.06.31-.11.62-.19.93a1.36,1.36,0,0,1-1.57,1.05A1.3,1.3,0,0,1,7.46,26.6c.17-1.43.43-2.86.66-4.29.11-.74.24-1.47.37-2.21a2.49,2.49,0,0,1,1.41-2c1.25-.53,2.57-.91,3.95-1.39Z"/><path class="cls-1" d="M7.88,13.82a2.87,2.87,0,1,1,5.74,0,2.85,2.85,0,0,1-2.83,2.88A2.82,2.82,0,0,1,7.88,13.82Z"/><path class="cls-1" d="M6.73,14.78A4.6,4.6,0,0,0,9,17.49a3.52,3.52,0,0,0-.75.94,31.79,31.79,0,0,0-.94,3.34c-.23,1-.35,2.1-.6,3.14Z"/><path class="cls-1" d="M203.42,7.45q0,14,0,28A1.36,1.36,0,0,0,204.71,37l8.5,1.69c1.85.37,3.69.79,5.54,1.18h.75a1.83,1.83,0,0,0,1-1.91q0-13.42,0-26.85c0-1.43-.25-1.73-1.66-2l-3.07-.62L226,8.37c.45,0,.54.2.54.6s-.08,1.09.16,1.26a5,5,0,0,1,2,2.74c0-.23.05-.28.05-.33V9.27c0-1.92-.37-2.48-2.11-3.15H204.19A1.46,1.46,0,0,0,203.42,7.45ZM216.5,25.08a1.11,1.11,0,0,1,1.08-1.1,1.12,1.12,0,1,1,0,2.24A1.12,1.12,0,0,1,216.5,25.08Zm-7.64-11c0-1.21.25-1.41,1.43-1.17s2.35.48,3.52.7c1,.18.92.69.82,1.92-.06.8-.71.7-1.26.59L210,15.46C208.9,15.23,208.86,15.18,208.86,14.1Z"/><path class="cls-1" d="M221.66,35.68c1.67,0,3.3,0,4.92,0a2.35,2.35,0,0,0,2.22-2.32c0-1.82,0-3.65,0-5.4l-2.26,1.37v4.06H222l.8-2.58c.12,0,.17-.05.21,0,1.45.38,1.53.31,1.66-1.2a26.93,26.93,0,0,1,.51-3.44c.06.31.1.62.19.93a1.36,1.36,0,0,0,1.57,1.05,1.31,1.31,0,0,0,1.16-1.49c-.18-1.43-.43-2.86-.66-4.29-.12-.74-.25-1.47-.37-2.21a2.48,2.48,0,0,0-1.42-2c-1.24-.53-2.56-.91-3.94-1.39Z"/><path class="cls-1" d="M227.63,13.82a2.87,2.87,0,1,0-5.74,0,2.87,2.87,0,1,0,5.74,0Z"/><path class="cls-1" d="M228.77,14.78a4.58,4.58,0,0,1-2.28,2.71c.27.33.63.59.75.94a34.4,34.4,0,0,1,.94,3.34c.23,1,.35,2.1.59,3.14Z"/><text class="cls-2" transform="translate(35.86 26.22)">ONCE UPON A DOOR</text></svg>