<svg id="Layer_1" data-name="Layer 1" xmlns="http://www.w3.org/2000/svg" viewBox="0 0 1097.28 214.33"><defs><style>.cls-1{fill:#ffb800;}</style></defs><path class="cls-1" d="M160,38.14H77.55c-6.36,2.44-7.73,4.49-7.73,11.53V62c0,.18.06.36.2,1.2a18.19,18.19,0,0,1,7.47-10c.85-.61.57-3,.58-4.63s.32-2.18,2-2.17l37.7.45c-3.75.76-7.51,1.56-11.27,2.29-5.13,1-6.08,2.08-6.08,7.31q0,49.19,0,98.36c0,3.09.6,5.59,3.58,7h2.75c6.76-1.44,13.51-2.95,20.28-4.31,10.37-2.1,20.76-4.12,31.14-6.18,3.33-.67,4.69-2.3,4.69-5.69v-23a27,27,0,0,1-12.66-3.14,23.26,23.26,0,0,1-9.17-8.66,23.87,23.87,0,0,1,9.17-33.48,27.22,27.22,0,0,1,12.68-3.13q0-15.59,0-31.16A5.33,5.33,0,0,0,160,38.14Zm-49.15,73.64a4.22,4.22,0,0,1-4.15-4.17,4.15,4.15,0,0,1,4.23-4,4.08,4.08,0,0,1,4,4A4.12,4.12,0,0,1,110.87,111.78Zm27.87-39.44c-4.1.84-8.22,1.69-12.34,2.5-2,.39-4.4.76-4.63-2.17-.36-4.48-.51-6.37,3-7,4.3-.79,8.59-1.68,12.89-2.55s5.24-.15,5.24,4.26C142.91,71.33,142.76,71.51,138.74,72.34Zm11.8,18.28a16.72,16.72,0,0,0,0,15.52,13.63,13.63,0,0,0,5.25,5.32,14.72,14.72,0,0,0,7,1.9q0-15,0-29.95a14.5,14.5,0,0,0-7,1.9A13.67,13.67,0,0,0,150.54,90.62Z"/><path class="cls-1" d="M96,146.42c-6.13,0-12.08.16-18,0a8.65,8.65,0,0,1-8.13-8.52c-.12-6.68,0-13.36,0-19.78l8.26,5V138H95L92,128.5c-.42-.08-.61-.19-.76-.15-5.33,1.39-5.6,1.16-6.09-4.37a100.35,100.35,0,0,0-1.85-12.61c-.23,1.13-.39,2.28-.7,3.39a5,5,0,0,1-5.77,3.86,4.81,4.81,0,0,1-4.24-5.46c.64-5.26,1.58-10.48,2.41-15.71.44-2.71.91-5.41,1.36-8.11.55-3.28,2.21-6,5.19-7.31,4.57-2,9.39-3.36,14.45-5.11Z"/><path class="cls-1" d="M74.15,66.33a10.52,10.52,0,1,1,21-.06,10.52,10.52,0,0,1-21,.06Z"/><path class="cls-1" d="M70,69.86a16.86,16.86,0,0,0,8.37,9.92C77.32,81,76,82,75.59,83.21a121,121,0,0,0-3.45,12.25c-.85,3.79-1.29,7.68-2.19,11.51Z"/><path class="cls-1" d="M185.56,86a23.81,23.81,0,0,0-9.17-8.66,27.2,27.2,0,0,0-13.11-3.14h-.46c0,3.08,0,6.15,0,9.23h.47a14.78,14.78,0,0,1,7.49,1.91A13.67,13.67,0,0,1,176,90.62a16.72,16.72,0,0,1,0,15.52,13.63,13.63,0,0,1-5.25,5.32,14.88,14.88,0,0,1-7.49,1.91h-.47q0,4.61,0,9.23h.48a27.09,27.09,0,0,0,13.11-3.15A24.23,24.23,0,0,0,185.56,86Z"/><path class="cls-1" d="M240,75v46.82h-8.89L207.76,93.36v28.43h-10.7V75h9l23.28,28.42V75Z"/><path class="cls-1" d="M260.57,119.48a23.1,23.1,0,0,1-9.09-8.63,25.1,25.1,0,0,1,0-24.95,23.17,23.17,0,0,1,9.09-8.63,27.1,27.1,0,0,1,13-3.11,27.44,27.44,0,0,1,11,2.14,22.1,22.1,0,0,1,8.26,6.16l-7,6.42a15,15,0,0,0-11.77-5.49,15.63,15.63,0,0,0-7.76,1.91A13.48,13.48,0,0,0,261,90.62a16.72,16.72,0,0,0,0,15.52,13.52,13.52,0,0,0,5.32,5.31,15.53,15.53,0,0,0,7.76,1.91,14.89,14.89,0,0,0,11.77-5.55l7,6.42a21.73,21.73,0,0,1-8.3,6.22,27.47,27.47,0,0,1-11,2.14A26.83,26.83,0,0,1,260.57,119.48Z"/><path class="cls-1" d="M336.39,113.09v8.7H300.14V75h35.38v8.69H310.91V93.83h21.74v8.43H310.91v10.83Z"/><path class="cls-1" d="M369.13,117q-5.58-5.55-5.58-15.85V75h10.84v25.82q0,12.57,10.43,12.57,5.08,0,7.76-3t2.68-9.53V75H406v26.22q0,10.29-5.59,15.85t-15.62,5.55Q374.72,122.59,369.13,117Z"/><path class="cls-1" d="M447.73,77a16,16,0,0,1,7.06,5.89,17.67,17.67,0,0,1,0,18,15.71,15.71,0,0,1-7.06,5.89,26.35,26.35,0,0,1-10.8,2H427.5v12.91H416.66V75h20.27A26,26,0,0,1,447.73,77Zm-4,20.9a7.31,7.31,0,0,0,2.54-6,7.42,7.42,0,0,0-2.54-6.06c-1.69-1.4-4.17-2.1-7.42-2.1H427.5v16.25h8.83C439.58,100.05,442.06,99.35,443.75,97.94Z"/><path class="cls-1" d="M475.16,119.45a23.4,23.4,0,0,1-9.17-8.66A24.92,24.92,0,0,1,466,86a23.26,23.26,0,0,1,9.17-8.66,28.92,28.92,0,0,1,26.25,0,23.87,23.87,0,0,1,0,42.14,29,29,0,0,1-26.25,0Zm20.63-8a13.67,13.67,0,0,0,5.25-5.31,16.72,16.72,0,0,0,0-15.52,13.63,13.63,0,0,0-5.25-5.32,15.64,15.64,0,0,0-15,0,13.63,13.63,0,0,0-5.25,5.32,16.72,16.72,0,0,0,0,15.52,13.67,13.67,0,0,0,5.25,5.31,15.64,15.64,0,0,0,15,0Z"/><path class="cls-1" d="M565,75v46.82h-8.89L532.78,93.36v28.43h-10.7V75h9l23.28,28.42V75Z"/><path class="cls-1" d="M625.89,111.76H604.16l-4.15,10H588.9L609.77,75h10.71l20.93,46.82H630Zm-3.41-8.23L615.06,85.6l-7.43,17.93Z"/><path class="cls-1" d="M665.22,75H686.5A29.86,29.86,0,0,1,700,77.88a21.74,21.74,0,0,1,9.1,8.19,24.94,24.94,0,0,1,0,24.62,21.74,21.74,0,0,1-9.1,8.19,29.86,29.86,0,0,1-13.47,2.91H665.22ZM686,112.89q7,0,11.21-3.91t4.18-10.6q0-6.69-4.18-10.6T686,83.86h-9.9v29Z"/><path class="cls-1" d="M730,119.45a23.47,23.47,0,0,1-9.17-8.66,24.92,24.92,0,0,1,0-24.82A23.33,23.33,0,0,1,730,77.31a28.92,28.92,0,0,1,26.25,0,23.87,23.87,0,0,1,0,42.14,29,29,0,0,1-26.25,0Zm20.63-8a13.76,13.76,0,0,0,5.26-5.31,16.8,16.8,0,0,0,0-15.52,13.72,13.72,0,0,0-5.26-5.32,15.64,15.64,0,0,0-15,0,13.63,13.63,0,0,0-5.25,5.32,16.72,16.72,0,0,0,0,15.52,13.67,13.67,0,0,0,5.25,5.31,15.64,15.64,0,0,0,15,0Z"/><path class="cls-1" d="M786.46,119.45a23.88,23.88,0,0,1,0-42.14,28.94,28.94,0,0,1,26.26,0,23.88,23.88,0,0,1,0,42.14,29,29,0,0,1-26.26,0Zm20.64-8a13.67,13.67,0,0,0,5.25-5.31,16.72,16.72,0,0,0,0-15.52,13.63,13.63,0,0,0-5.25-5.32,15.64,15.64,0,0,0-15,0,13.63,13.63,0,0,0-5.25,5.32,16.72,16.72,0,0,0,0,15.52,13.67,13.67,0,0,0,5.25,5.31,15.64,15.64,0,0,0,15,0Z"/><path class="cls-1" d="M863.22,121.79l-9-13h-10v13H833.39V75h20.27A26.08,26.08,0,0,1,864.46,77a16,16,0,0,1,7.06,5.89A16.2,16.2,0,0,1,874,92a15.27,15.27,0,0,1-9.63,14.78l10.5,15.05ZM860.48,85.9c-1.7-1.4-4.17-2.1-7.43-2.1h-8.83v16.32h8.83c3.26,0,5.73-.72,7.43-2.14a8.45,8.45,0,0,0,0-12.08Z"/></svg>