<svg id="Layer_1" data-name="Layer 1" xmlns="http://www.w3.org/2000/svg" viewBox="0 0 784.74 117.21"><defs><style>.cls-1{fill:#ffb800;}</style></defs><path class="cls-1" d="M68.37,46.9a23.81,23.81,0,0,0-9.17-8.66A27.2,27.2,0,0,0,46.09,35.1h-.46c0,3.08,0,6.15,0,9.23h.47a14.78,14.78,0,0,1,7.49,1.91,13.67,13.67,0,0,1,5.25,5.31,16.72,16.72,0,0,1,0,15.52,13.63,13.63,0,0,1-5.25,5.32,14.88,14.88,0,0,1-7.49,1.91h-.47q0,4.6,0,9.23h.48A27.09,27.09,0,0,0,59.2,80.38,24.23,24.23,0,0,0,68.37,46.9Z"/><path class="cls-1" d="M122.81,35.9V82.72h-8.9L90.57,54.29V82.72H79.87V35.9h9l23.28,28.42V35.9Z"/><path class="cls-1" d="M143.38,80.41a23.19,23.19,0,0,1-9.1-8.63A23.73,23.73,0,0,1,131,59.31a23.76,23.76,0,0,1,3.31-12.48,23.26,23.26,0,0,1,9.1-8.63,27.07,27.07,0,0,1,13-3.11,27.36,27.36,0,0,1,11,2.14,22,22,0,0,1,8.26,6.16l-7,6.42a15,15,0,0,0-11.78-5.49,15.62,15.62,0,0,0-7.75,1.91,13.48,13.48,0,0,0-5.32,5.32,16.72,16.72,0,0,0,0,15.52,13.61,13.61,0,0,0,5.32,5.32,15.61,15.61,0,0,0,7.75,1.9,14.9,14.9,0,0,0,11.78-5.55l7,6.42a21.6,21.6,0,0,1-8.29,6.22,27.49,27.49,0,0,1-11,2.14A26.82,26.82,0,0,1,143.38,80.41Z"/><path class="cls-1" d="M219.2,74v8.7H182.94V35.9h35.39v8.69H193.71V54.76h21.74v8.43H193.71V74Z"/><path class="cls-1" d="M251.94,78q-5.58-5.55-5.58-15.85V35.9h10.83V61.72q0,12.57,10.44,12.57c3.39,0,6-1,7.76-3s2.67-5.21,2.67-9.53V35.9h10.7V62.12q0,10.29-5.58,15.85t-15.62,5.55Q257.52,83.52,251.94,78Z"/><path class="cls-1" d="M330.54,38a15.94,15.94,0,0,1,7,5.89,16.21,16.21,0,0,1,2.48,9,16.24,16.24,0,0,1-2.48,9,15.69,15.69,0,0,1-7,5.89,26.41,26.41,0,0,1-10.8,2H310.3V82.72H299.47V35.9h20.27A26.08,26.08,0,0,1,330.54,38Zm-4,20.9a7.34,7.34,0,0,0,2.54-6,7.45,7.45,0,0,0-2.54-6.06c-1.7-1.4-4.17-2.1-7.43-2.1H310.3V61h8.83C322.39,61,324.86,60.28,326.56,58.87Z"/><path class="cls-1" d="M447.83,35.9V82.72h-8.9L415.59,54.29V82.72h-10.7V35.9h9l23.28,28.42V35.9Z"/><path class="cls-1" d="M508.7,72.69H487l-4.15,10h-11.1L492.58,35.9h10.7l20.94,46.82H512.85Zm-3.41-8.23-7.42-17.93-7.43,17.93Z"/><path class="cls-1" d="M548,35.9H569.3a29.87,29.87,0,0,1,13.48,2.91,21.86,21.86,0,0,1,9.1,8.19,23.08,23.08,0,0,1,3.24,12.31,23.1,23.1,0,0,1-3.24,12.31,21.86,21.86,0,0,1-9.1,8.19,29.87,29.87,0,0,1-13.48,2.91H548Zm20.74,37.92q7,0,11.2-3.91t4.18-10.6q0-6.69-4.18-10.6t-11.2-3.92h-9.9v29Z"/><path class="cls-1" d="M739.16,82.72l-9-13h-10v13H709.32V35.9h20.27A26,26,0,0,1,740.39,38a16,16,0,0,1,7.06,5.89,16.2,16.2,0,0,1,2.47,9,15.23,15.23,0,0,1-9.63,14.78l10.5,15Zm-2.75-35.89c-1.69-1.4-4.17-2.1-7.42-2.1h-8.83V61.05H729c3.25,0,5.73-.72,7.42-2.14a7.43,7.43,0,0,0,2.54-6A7.42,7.42,0,0,0,736.41,46.83Z"/><path class="cls-1" d="M33.35,51.55a16.72,16.72,0,0,0,0,15.52,13.63,13.63,0,0,0,5.25,5.32,14.72,14.72,0,0,0,7,1.9q0-15,0-29.95a14.5,14.5,0,0,0-7,1.9A13.67,13.67,0,0,0,33.35,51.55Z"/><path class="cls-1" d="M387.9,46.89a23.81,23.81,0,0,0-9.17-8.66,27.2,27.2,0,0,0-13.11-3.14h-.46c0,3.08,0,6.15,0,9.23h.47a14.78,14.78,0,0,1,7.49,1.91,13.67,13.67,0,0,1,5.25,5.31,16.72,16.72,0,0,1,0,15.52,13.63,13.63,0,0,1-5.25,5.32,14.88,14.88,0,0,1-7.49,1.91h-.47q0,4.6,0,9.23h.48a27.09,27.09,0,0,0,13.11-3.15,24.23,24.23,0,0,0,9.17-33.48Z"/><path class="cls-1" d="M352.88,51.54a16.72,16.72,0,0,0,0,15.52,13.63,13.63,0,0,0,5.25,5.32,14.72,14.72,0,0,0,7,1.9q0-15,0-29.95a14.5,14.5,0,0,0-7,1.9A13.67,13.67,0,0,0,352.88,51.54Z"/><path class="cls-1" d="M642.75,46.89a23.81,23.81,0,0,0-9.17-8.66,27.2,27.2,0,0,0-13.11-3.14H620c0,3.08,0,6.15,0,9.23h.47A14.78,14.78,0,0,1,628,46.23a13.67,13.67,0,0,1,5.25,5.31,16.72,16.72,0,0,1,0,15.52A13.63,13.63,0,0,1,628,72.38a14.88,14.88,0,0,1-7.49,1.91H620q0,4.6,0,9.23h.48a27.09,27.09,0,0,0,13.11-3.15,24.23,24.23,0,0,0,9.17-33.48Z"/><path class="cls-1" d="M607.73,51.54a16.72,16.72,0,0,0,0,15.52A13.63,13.63,0,0,0,613,72.38a14.72,14.72,0,0,0,7,1.9q0-15,0-29.95a14.5,14.5,0,0,0-7,1.9A13.67,13.67,0,0,0,607.73,51.54Z"/><path class="cls-1" d="M693.54,46.89a23.81,23.81,0,0,0-9.17-8.66,27.2,27.2,0,0,0-13.11-3.14h-.46c0,3.08,0,6.15,0,9.23h.47a14.78,14.78,0,0,1,7.49,1.91A13.67,13.67,0,0,1,684,51.54a16.72,16.72,0,0,1,0,15.52,13.63,13.63,0,0,1-5.25,5.32,14.88,14.88,0,0,1-7.49,1.91h-.47q0,4.6,0,9.23h.48a27.09,27.09,0,0,0,13.11-3.15,24.23,24.23,0,0,0,9.17-33.48Z"/><path class="cls-1" d="M658.52,51.54a16.72,16.72,0,0,0,0,15.52,13.63,13.63,0,0,0,5.25,5.32,14.72,14.72,0,0,0,7,1.9q0-15,0-29.95a14.5,14.5,0,0,0-7,1.9A13.67,13.67,0,0,0,658.52,51.54Z"/></svg>