<?xml version="1.0" encoding="utf-8"?>
<!-- Generator: Adobe Illustrator 27.9.0, SVG Export Plug-In . SVG Version: 6.00 Build 0)  -->
<svg version="1.1" id="Layer_1" shape-rendering="crispEdges"
	 xmlns="http://www.w3.org/2000/svg" xmlns:xlink="http://www.w3.org/1999/xlink" x="0px" y="0px" viewBox="0 0 192 192"
	 style="enable-background:new 0 0 192 192;" xml:space="preserve">
<style type="text/css">
	.st0{fill:#EBA4C4;}
	.st1{fill:#21459C;}
	.st2{fill:#3464A4;}
	.st3{fill:#435BA3;}
	.st4{fill:#5DABCF;}
	.st5{fill:#E17557;}
	.st6{fill:#BDE1EB;}
	.st7{fill:#CD694F;}
	.st8{fill:#E5953D;}
	.st9{fill:#ECC98B;}
	.st10{fill:#E7A55D;}
	.st11{fill:#B55D83;}
	.st12{fill:#3154A9;}
	.st13{fill:#E4895D;}
	.st14{fill:#F2C7B6;}
	.st15{fill:#8D5386;}
	.st16{fill:#EEA8A0;}
	.st17{fill:#E75D81;}
	.st18{fill:#EB97A7;}
	.st19{fill:#E2574A;}
	.st20{fill:#5CABE1;}
	.st21{fill:#AE5269;}
</style>
<rect class="st0" width="192" height="192"/>
<g>
	<rect x="43" y="23.6" class="st1" width="5.6" height="5.6"/>
	<rect x="48.5" y="23.6" class="st1" width="5.6" height="5.6"/>
	<rect x="54.1" y="23.6" class="st2" width="5.6" height="5.6"/>
	<rect x="59.7" y="23.6" class="st2" width="5.6" height="5.6"/>
	<rect x="65.3" y="23.6" class="st2" width="5.6" height="5.6"/>
	<rect x="70.9" y="23.6" class="st2" width="5.6" height="5.6"/>
	<rect x="76.5" y="23.6" class="st2" width="5.6" height="5.6"/>
	<rect x="82" y="23.6" class="st2" width="5.6" height="5.6"/>
	<rect x="87.6" y="23.6" class="st2" width="5.6" height="5.6"/>
	<rect x="93.2" y="23.6" class="st2" width="5.6" height="5.6"/>
	<rect x="98.8" y="23.6" class="st2" width="5.6" height="5.6"/>
	<rect x="104.4" y="23.6" class="st2" width="5.6" height="5.6"/>
	<rect x="110" y="23.6" class="st2" width="5.6" height="5.6"/>
	<rect x="115.5" y="23.6" class="st2" width="5.6" height="5.6"/>
	<rect x="121.1" y="23.6" class="st2" width="5.6" height="5.6"/>
	<rect x="126.7" y="23.6" class="st2" width="5.6" height="5.6"/>
	<rect x="132.3" y="23.6" class="st2" width="5.6" height="5.6"/>
	<rect x="137.9" y="23.6" class="st2" width="5.6" height="5.6"/>
	<rect x="143.5" y="23.6" class="st2" width="5.6" height="5.6"/>
	<rect x="149" y="23.6" class="st2" width="5.6" height="5.6"/>
	<rect x="154.6" y="23.6" class="st2" width="5.6" height="5.6"/>
	<rect x="37.4" y="29.2" class="st1" width="5.6" height="5.6"/>
	<rect x="43" y="29.2" class="st3" width="5.6" height="5.6"/>
	<rect x="48.5" y="29.2" class="st1" width="5.6" height="5.6"/>
	<rect x="54.1" y="29.2" class="st4" width="5.6" height="5.6"/>
	<rect x="59.7" y="29.2" class="st4" width="5.6" height="5.6"/>
	<rect x="65.3" y="29.2" class="st4" width="5.6" height="5.6"/>
	<rect x="70.9" y="29.2" class="st4" width="5.6" height="5.6"/>
	<rect x="76.5" y="29.2" class="st3" width="5.6" height="5.6"/>
	<rect x="82" y="29.2" class="st3" width="5.6" height="5.6"/>
	<rect x="87.6" y="29.2" class="st3" width="5.6" height="5.6"/>
	<rect x="93.2" y="29.2" class="st3" width="5.6" height="5.6"/>
	<rect x="98.8" y="29.2" class="st3" width="5.6" height="5.6"/>
	<rect x="104.4" y="29.2" class="st3" width="5.6" height="5.6"/>
	<rect x="110" y="29.2" class="st3" width="5.6" height="5.6"/>
	<rect x="115.5" y="29.2" class="st3" width="5.6" height="5.6"/>
	<rect x="121.1" y="29.2" class="st3" width="5.6" height="5.6"/>
	<rect x="126.7" y="29.2" class="st3" width="5.6" height="5.6"/>
	<rect x="132.3" y="29.2" class="st4" width="5.6" height="5.6"/>
	<rect x="137.9" y="29.2" class="st4" width="5.6" height="5.6"/>
	<rect x="143.5" y="29.2" class="st4" width="5.6" height="5.6"/>
	<rect x="149" y="29.2" class="st4" width="5.6" height="5.6"/>
	<rect x="154.6" y="29.2" class="st2" width="5.6" height="5.6"/>
	<rect x="31.8" y="34.8" class="st1" width="5.6" height="5.6"/>
	<rect x="37.4" y="34.8" class="st3" width="5.6" height="5.6"/>
	<rect x="43" y="34.8" class="st3" width="5.6" height="5.6"/>
	<rect x="48.5" y="34.8" class="st1" width="5.6" height="5.6"/>
	<rect x="54.1" y="34.8" class="st4" width="5.6" height="5.6"/>
	<rect x="59.7" y="34.8" class="st3" width="5.6" height="5.6"/>
	<rect x="65.3" y="34.8" class="st3" width="5.6" height="5.6"/>
	<rect x="70.9" y="34.8" class="st3" width="5.6" height="5.6"/>
	<rect x="76.5" y="34.8" class="st3" width="5.6" height="5.6"/>
	<rect x="82" y="34.8" class="st3" width="5.6" height="5.6"/>
	<rect x="87.6" y="34.8" class="st3" width="5.6" height="5.6"/>
	<rect x="93.2" y="34.8" class="st3" width="5.6" height="5.6"/>
	<rect x="98.8" y="34.8" class="st3" width="5.6" height="5.6"/>
	<rect x="104.4" y="34.8" class="st3" width="5.6" height="5.6"/>
	<rect x="110" y="34.8" class="st3" width="5.6" height="5.6"/>
	<rect x="115.5" y="34.8" class="st3" width="5.6" height="5.6"/>
	<rect x="121.1" y="34.8" class="st3" width="5.6" height="5.6"/>
	<rect x="126.7" y="34.8" class="st3" width="5.6" height="5.6"/>
	<rect x="132.3" y="34.8" class="st3" width="5.6" height="5.6"/>
	<rect x="137.9" y="34.8" class="st3" width="5.6" height="5.6"/>
	<rect x="143.5" y="34.8" class="st3" width="5.6" height="5.6"/>
	<rect x="149" y="34.8" class="st4" width="5.6" height="5.6"/>
	<rect x="154.6" y="34.8" class="st2" width="5.6" height="5.6"/>
	<rect x="31.8" y="40.4" class="st1" width="5.6" height="5.6"/>
	<rect x="37.4" y="40.4" class="st3" width="5.6" height="5.6"/>
	<rect x="43" y="40.4" class="st3" width="5.6" height="5.6"/>
	<rect x="48.5" y="40.4" class="st1" width="5.6" height="5.6"/>
	<rect x="54.1" y="40.4" class="st4" width="5.6" height="5.6"/>
	<rect x="59.7" y="40.4" class="st3" width="5.6" height="5.6"/>
	<rect x="65.3" y="40.4" class="st4" width="5.6" height="5.6"/>
	<rect x="70.9" y="40.4" class="st4" width="5.6" height="5.6"/>
	<rect x="76.5" y="40.4" class="st4" width="5.6" height="5.6"/>
	<rect x="82" y="40.4" class="st4" width="5.6" height="5.6"/>
	<rect x="87.6" y="40.4" class="st5" width="5.6" height="5.6"/>
	<rect x="93.2" y="40.4" class="st5" width="5.6" height="5.6"/>
	<rect x="98.8" y="40.4" class="st5" width="5.6" height="5.6"/>
	<rect x="104.4" y="40.4" class="st5" width="5.6" height="5.6"/>
	<rect x="110" y="40.4" class="st5" width="5.6" height="5.6"/>
	<rect x="115.5" y="40.4" class="st5" width="5.6" height="5.6"/>
	<rect x="121.1" y="40.4" class="st4" width="5.6" height="5.6"/>
	<rect x="126.7" y="40.4" class="st4" width="5.6" height="5.6"/>
	<rect x="132.3" y="40.4" class="st4" width="5.6" height="5.6"/>
	<rect x="137.9" y="40.4" class="st4" width="5.6" height="5.6"/>
	<rect x="143.5" y="40.4" class="st3" width="5.6" height="5.6"/>
	<rect x="149" y="40.4" class="st4" width="5.6" height="5.6"/>
	<rect x="154.6" y="40.4" class="st2" width="5.6" height="5.6"/>
	<rect x="31.8" y="46" class="st1" width="5.6" height="5.6"/>
	<rect x="37.4" y="46" class="st3" width="5.6" height="5.6"/>
	<rect x="43" y="46" class="st3" width="5.6" height="5.6"/>
	<rect x="48.5" y="46" class="st1" width="5.6" height="5.6"/>
	<rect x="54.1" y="46" class="st4" width="5.6" height="5.6"/>
	<rect x="59.7" y="46" class="st3" width="5.6" height="5.6"/>
	<rect x="65.3" y="46" class="st4" width="5.6" height="5.6"/>
	<rect x="70.9" y="46" class="st6" width="5.6" height="5.6"/>
	<rect x="76.5" y="46" class="st7" width="5.6" height="5.6"/>
	<rect x="82" y="46" class="st5" width="5.6" height="5.6"/>
	<rect x="87.6" y="46" class="st8" width="5.6" height="5.6"/>
	<rect x="93.2" y="46" class="st9" width="5.6" height="5.6"/>
	<rect x="98.8" y="46" class="st9" width="5.6" height="5.6"/>
	<rect x="104.4" y="46" class="st9" width="5.6" height="5.6"/>
	<rect x="110" y="46" class="st9" width="5.6" height="5.6"/>
	<rect x="115.5" y="46" class="st10" width="5.6" height="5.6"/>
	<rect x="121.1" y="46" class="st5" width="5.6" height="5.6"/>
	<rect x="126.7" y="46" class="st7" width="5.6" height="5.6"/>
	<rect x="132.3" y="46" class="st6" width="5.6" height="5.6"/>
	<rect x="137.9" y="46" class="st4" width="5.6" height="5.6"/>
	<rect x="143.5" y="46" class="st3" width="5.6" height="5.6"/>
	<rect x="149" y="46" class="st4" width="5.6" height="5.6"/>
	<rect x="154.6" y="46" class="st2" width="5.6" height="5.6"/>
	<rect x="31.8" y="51.5" class="st1" width="5.6" height="5.6"/>
	<rect x="37.4" y="51.5" class="st3" width="5.6" height="5.6"/>
	<rect x="43" y="51.5" class="st3" width="5.6" height="5.6"/>
	<rect x="48.5" y="51.5" class="st1" width="5.6" height="5.6"/>
	<rect x="54.1" y="51.5" class="st3" width="5.6" height="5.6"/>
	<rect x="59.7" y="51.5" class="st3" width="5.6" height="5.6"/>
	<rect x="65.3" y="51.5" class="st4" width="5.6" height="5.6"/>
	<rect x="70.9" y="51.5" class="st7" width="5.6" height="5.6"/>
	<rect x="76.5" y="51.5" class="st8" width="5.6" height="5.6"/>
	<rect x="82" y="51.5" class="st8" width="5.6" height="5.6"/>
	<rect x="87.6" y="51.5" class="st8" width="5.6" height="5.6"/>
	<rect x="93.2" y="51.5" class="st9" width="5.6" height="5.6"/>
	<rect x="98.8" y="51.5" class="st7" width="5.6" height="5.6"/>
	<rect x="104.4" y="51.5" class="st5" width="5.6" height="5.6"/>
	<rect x="110" y="51.5" class="st9" width="5.6" height="5.6"/>
	<rect x="115.5" y="51.5" class="st10" width="5.6" height="5.6"/>
	<rect x="121.1" y="51.5" class="st10" width="5.6" height="5.6"/>
	<rect x="126.7" y="51.5" class="st10" width="5.6" height="5.6"/>
	<rect x="132.3" y="51.5" class="st7" width="5.6" height="5.6"/>
	<rect x="137.9" y="51.5" class="st4" width="5.6" height="5.6"/>
	<rect x="143.5" y="51.5" class="st3" width="5.6" height="5.6"/>
	<rect x="149" y="51.5" class="st3" width="5.6" height="5.6"/>
	<rect x="154.6" y="51.5" class="st2" width="5.6" height="5.6"/>
	<rect x="31.8" y="57.1" class="st1" width="5.6" height="5.6"/>
	<rect x="37.4" y="57.1" class="st3" width="5.6" height="5.6"/>
	<rect x="43" y="57.1" class="st3" width="5.6" height="5.6"/>
	<rect x="48.5" y="57.1" class="st1" width="5.6" height="5.6"/>
	<rect x="54.1" y="57.1" class="st3" width="5.6" height="5.6"/>
	<rect x="59.7" y="57.1" class="st3" width="5.6" height="5.6"/>
	<rect x="65.3" y="57.1" class="st4" width="5.6" height="5.6"/>
	<rect x="70.9" y="57.1" class="st8" width="5.6" height="5.6"/>
	<rect x="76.5" y="57.1" class="st8" width="5.6" height="5.6"/>
	<rect x="82" y="57.1" class="st8" width="5.6" height="5.6"/>
	<rect x="87.6" y="57.1" class="st8" width="5.6" height="5.6"/>
	<rect x="93.2" y="57.1" class="st7" width="5.6" height="5.6"/>
	<rect x="98.8" y="57.1" class="st7" width="5.6" height="5.6"/>
	<rect x="104.4" y="57.1" class="st5" width="5.6" height="5.6"/>
	<rect x="110" y="57.1" class="st5" width="5.6" height="5.6"/>
	<rect x="115.5" y="57.1" class="st10" width="5.6" height="5.6"/>
	<rect x="121.1" y="57.1" class="st10" width="5.6" height="5.6"/>
	<rect x="126.7" y="57.1" class="st10" width="5.6" height="5.6"/>
	<rect x="132.3" y="57.1" class="st10" width="5.6" height="5.6"/>
	<rect x="137.9" y="57.1" class="st4" width="5.6" height="5.6"/>
	<rect x="143.5" y="57.1" class="st3" width="5.6" height="5.6"/>
	<rect x="149" y="57.1" class="st3" width="5.6" height="5.6"/>
	<rect x="154.6" y="57.1" class="st2" width="5.6" height="5.6"/>
	<rect x="31.8" y="62.7" class="st1" width="5.6" height="5.6"/>
	<rect x="37.4" y="62.7" class="st3" width="5.6" height="5.6"/>
	<rect x="43" y="62.7" class="st3" width="5.6" height="5.6"/>
	<rect x="48.5" y="62.7" class="st1" width="5.6" height="5.6"/>
	<rect x="54.1" y="62.7" class="st3" width="5.6" height="5.6"/>
	<rect x="59.7" y="62.7" class="st3" width="5.6" height="5.6"/>
	<rect x="65.3" y="62.7" class="st4" width="5.6" height="5.6"/>
	<rect x="70.9" y="62.7" class="st8" width="5.6" height="5.6"/>
	<rect x="76.5" y="62.7" class="st8" width="5.6" height="5.6"/>
	<rect x="82" y="62.7" class="st8" width="5.6" height="5.6"/>
	<rect x="87.6" y="62.7" class="st8" width="5.6" height="5.6"/>
	<rect x="93.2" y="62.7" class="st9" width="5.6" height="5.6"/>
	<rect x="98.8" y="62.7" class="st7" width="5.6" height="5.6"/>
	<rect x="104.4" y="62.7" class="st5" width="5.6" height="5.6"/>
	<rect x="110" y="62.7" class="st9" width="5.6" height="5.6"/>
	<rect x="115.5" y="62.7" class="st10" width="5.6" height="5.6"/>
	<rect x="121.1" y="62.7" class="st10" width="5.6" height="5.6"/>
	<rect x="126.7" y="62.7" class="st10" width="5.6" height="5.6"/>
	<rect x="132.3" y="62.7" class="st10" width="5.6" height="5.6"/>
	<rect x="137.9" y="62.7" class="st4" width="5.6" height="5.6"/>
	<rect x="143.5" y="62.7" class="st3" width="5.6" height="5.6"/>
	<rect x="149" y="62.7" class="st3" width="5.6" height="5.6"/>
	<rect x="154.6" y="62.7" class="st2" width="5.6" height="5.6"/>
	<rect x="31.8" y="68.3" class="st1" width="5.6" height="5.6"/>
	<rect x="37.4" y="68.3" class="st3" width="5.6" height="5.6"/>
	<rect x="43" y="68.3" class="st3" width="5.6" height="5.6"/>
	<rect x="48.5" y="68.3" class="st1" width="5.6" height="5.6"/>
	<rect x="54.1" y="68.3" class="st3" width="5.6" height="5.6"/>
	<rect x="59.7" y="68.3" class="st3" width="5.6" height="5.6"/>
	<rect x="65.3" y="68.3" class="st4" width="5.6" height="5.6"/>
	<rect x="70.9" y="68.3" class="st8" width="5.6" height="5.6"/>
	<rect x="76.5" y="68.3" class="st8" width="5.6" height="5.6"/>
	<rect x="82" y="68.3" class="st8" width="5.6" height="5.6"/>
	<rect x="87.6" y="68.3" class="st8" width="5.6" height="5.6"/>
	<rect x="93.2" y="68.3" class="st9" width="5.6" height="5.6"/>
	<rect x="98.8" y="68.3" class="st9" width="5.6" height="5.6"/>
	<rect x="104.4" y="68.3" class="st9" width="5.6" height="5.6"/>
	<rect x="110" y="68.3" class="st9" width="5.6" height="5.6"/>
	<rect x="115.5" y="68.3" class="st10" width="5.6" height="5.6"/>
	<rect x="121.1" y="68.3" class="st10" width="5.6" height="5.6"/>
	<rect x="126.7" y="68.3" class="st10" width="5.6" height="5.6"/>
	<rect x="132.3" y="68.3" class="st10" width="5.6" height="5.6"/>
	<rect x="137.9" y="68.3" class="st4" width="5.6" height="5.6"/>
	<rect x="143.5" y="68.3" class="st3" width="5.6" height="5.6"/>
	<rect x="149" y="68.3" class="st3" width="5.6" height="5.6"/>
	<rect x="154.6" y="68.3" class="st2" width="5.6" height="5.6"/>
	<rect x="31.8" y="73.9" class="st1" width="5.6" height="5.6"/>
	<rect x="37.4" y="73.9" class="st3" width="5.6" height="5.6"/>
	<rect x="43" y="73.9" class="st3" width="5.6" height="5.6"/>
	<rect x="48.5" y="73.9" class="st1" width="5.6" height="5.6"/>
	<rect x="54.1" y="73.9" class="st3" width="5.6" height="5.6"/>
	<rect x="59.7" y="73.9" class="st3" width="5.6" height="5.6"/>
	<rect x="65.3" y="73.9" class="st4" width="5.6" height="5.6"/>
	<rect x="70.9" y="73.9" class="st11" width="5.6" height="5.6"/>
	<rect x="76.5" y="73.9" class="st11" width="5.6" height="5.6"/>
	<rect x="82" y="73.9" class="st11" width="5.6" height="5.6"/>
	<rect x="87.6" y="73.9" class="st11" width="5.6" height="5.6"/>
	<rect x="93.2" y="73.9" class="st11" width="5.6" height="5.6"/>
	<rect x="98.8" y="73.9" class="st11" width="5.6" height="5.6"/>
	<rect x="104.4" y="73.9" class="st11" width="5.6" height="5.6"/>
	<rect x="110" y="73.9" class="st11" width="5.6" height="5.6"/>
	<rect x="115.5" y="73.9" class="st11" width="5.6" height="5.6"/>
	<rect x="121.1" y="73.9" class="st11" width="5.6" height="5.6"/>
	<rect x="126.7" y="73.9" class="st11" width="5.6" height="5.6"/>
	<rect x="132.3" y="73.9" class="st11" width="5.6" height="5.6"/>
	<rect x="137.9" y="73.9" class="st4" width="5.6" height="5.6"/>
	<rect x="143.5" y="73.9" class="st3" width="5.6" height="5.6"/>
	<rect x="149" y="73.9" class="st3" width="5.6" height="5.6"/>
	<rect x="154.6" y="73.9" class="st2" width="5.6" height="5.6"/>
	<rect x="31.8" y="79.5" class="st1" width="5.6" height="5.6"/>
	<rect x="37.4" y="79.5" class="st3" width="5.6" height="5.6"/>
	<rect x="43" y="79.5" class="st3" width="5.6" height="5.6"/>
	<rect x="48.5" y="79.5" class="st1" width="5.6" height="5.6"/>
	<rect x="54.1" y="79.5" class="st3" width="5.6" height="5.6"/>
	<rect x="59.7" y="79.5" class="st3" width="5.6" height="5.6"/>
	<rect x="65.3" y="79.5" class="st4" width="5.6" height="5.6"/>
	<rect x="70.9" y="79.5" class="st12" width="5.6" height="5.6"/>
	<rect x="76.5" y="79.5" class="st12" width="5.6" height="5.6"/>
	<rect x="82" y="79.5" class="st12" width="5.6" height="5.6"/>
	<rect x="87.6" y="79.5" class="st13" width="5.6" height="5.6"/>
	<rect x="93.2" y="79.5" class="st12" width="5.6" height="5.6"/>
	<rect x="98.8" y="79.5" class="st12" width="5.6" height="5.6"/>
	<rect x="104.4" y="79.5" class="st12" width="5.6" height="5.6"/>
	<rect x="110" y="79.5" class="st12" width="5.6" height="5.6"/>
	<rect x="115.5" y="79.5" class="st13" width="5.6" height="5.6"/>
	<rect x="121.1" y="79.5" class="st12" width="5.6" height="5.6"/>
	<rect x="126.7" y="79.5" class="st12" width="5.6" height="5.6"/>
	<rect x="132.3" y="79.5" class="st12" width="5.6" height="5.6"/>
	<rect x="137.9" y="79.5" class="st4" width="5.6" height="5.6"/>
	<rect x="143.5" y="79.5" class="st3" width="5.6" height="5.6"/>
	<rect x="149" y="79.5" class="st3" width="5.6" height="5.6"/>
	<rect x="154.6" y="79.5" class="st2" width="5.6" height="5.6"/>
	<rect x="31.8" y="85" class="st1" width="5.6" height="5.6"/>
	<rect x="37.4" y="85" class="st3" width="5.6" height="5.6"/>
	<rect x="43" y="85" class="st3" width="5.6" height="5.6"/>
	<rect x="48.5" y="85" class="st1" width="5.6" height="5.6"/>
	<rect x="54.1" y="85" class="st3" width="5.6" height="5.6"/>
	<rect x="59.7" y="85" class="st3" width="5.6" height="5.6"/>
	<rect x="65.3" y="85" class="st4" width="5.6" height="5.6"/>
	<rect x="70.9" y="85" class="st1" width="5.6" height="5.6"/>
	<rect x="76.5" y="85" class="st12" width="5.6" height="5.6"/>
	<rect x="82" y="85" class="st14" width="5.6" height="5.6"/>
	<rect x="87.6" y="85" class="st15" width="5.6" height="5.6"/>
	<rect x="93.2" y="85" class="st14" width="5.6" height="5.6"/>
	<rect x="98.8" y="85" class="st14" width="5.6" height="5.6"/>
	<rect x="104.4" y="85" class="st14" width="5.6" height="5.6"/>
	<rect x="110" y="85" class="st14" width="5.6" height="5.6"/>
	<rect x="115.5" y="85" class="st15" width="5.6" height="5.6"/>
	<rect x="121.1" y="85" class="st14" width="5.6" height="5.6"/>
	<rect x="126.7" y="85" class="st12" width="5.6" height="5.6"/>
	<rect x="132.3" y="85" class="st1" width="5.6" height="5.6"/>
	<rect x="137.9" y="85" class="st4" width="5.6" height="5.6"/>
	<rect x="143.5" y="85" class="st3" width="5.6" height="5.6"/>
	<rect x="149" y="85" class="st3" width="5.6" height="5.6"/>
	<rect x="154.6" y="85" class="st2" width="5.6" height="5.6"/>
	<rect x="31.8" y="90.6" class="st1" width="5.6" height="5.6"/>
	<rect x="37.4" y="90.6" class="st3" width="5.6" height="5.6"/>
	<rect x="43" y="90.6" class="st3" width="5.6" height="5.6"/>
	<rect x="48.5" y="90.6" class="st1" width="5.6" height="5.6"/>
	<rect x="54.1" y="90.6" class="st3" width="5.6" height="5.6"/>
	<rect x="59.7" y="90.6" class="st3" width="5.6" height="5.6"/>
	<rect x="65.3" y="90.6" class="st4" width="5.6" height="5.6"/>
	<rect x="70.9" y="90.6" class="st1" width="5.6" height="5.6"/>
	<rect x="76.5" y="90.6" class="st16" width="5.6" height="5.6"/>
	<rect x="82" y="90.6" class="st14" width="5.6" height="5.6"/>
	<rect x="87.6" y="90.6" class="st15" width="5.6" height="5.6"/>
	<rect x="93.2" y="90.6" class="st14" width="5.6" height="5.6"/>
	<rect x="98.8" y="90.6" class="st14" width="5.6" height="5.6"/>
	<rect x="104.4" y="90.6" class="st14" width="5.6" height="5.6"/>
	<rect x="110" y="90.6" class="st14" width="5.6" height="5.6"/>
	<rect x="115.5" y="90.6" class="st15" width="5.6" height="5.6"/>
	<rect x="121.1" y="90.6" class="st14" width="5.6" height="5.6"/>
	<rect x="126.7" y="90.6" class="st16" width="5.6" height="5.6"/>
	<rect x="132.3" y="90.6" class="st1" width="5.6" height="5.6"/>
	<rect x="137.9" y="90.6" class="st4" width="5.6" height="5.6"/>
	<rect x="143.5" y="90.6" class="st3" width="5.6" height="5.6"/>
	<rect x="149" y="90.6" class="st3" width="5.6" height="5.6"/>
	<rect x="154.6" y="90.6" class="st2" width="5.6" height="5.6"/>
	<rect x="31.8" y="96.2" class="st1" width="5.6" height="5.6"/>
	<rect x="37.4" y="96.2" class="st3" width="5.6" height="5.6"/>
	<rect x="43" y="96.2" class="st3" width="5.6" height="5.6"/>
	<rect x="48.5" y="96.2" class="st1" width="5.6" height="5.6"/>
	<rect x="54.1" y="96.2" class="st3" width="5.6" height="5.6"/>
	<rect x="59.7" y="96.2" class="st3" width="5.6" height="5.6"/>
	<rect x="65.3" y="96.2" class="st4" width="5.6" height="5.6"/>
	<rect x="70.9" y="96.2" class="st12" width="5.6" height="5.6"/>
	<rect x="76.5" y="96.2" class="st16" width="5.6" height="5.6"/>
	<rect x="82" y="96.2" class="st17" width="5.6" height="5.6"/>
	<rect x="87.6" y="96.2" class="st18" width="5.6" height="5.6"/>
	<rect x="93.2" y="96.2" class="st14" width="5.6" height="5.6"/>
	<rect x="98.8" y="96.2" class="st14" width="5.6" height="5.6"/>
	<rect x="104.4" y="96.2" class="st14" width="5.6" height="5.6"/>
	<rect x="110" y="96.2" class="st14" width="5.6" height="5.6"/>
	<rect x="115.5" y="96.2" class="st18" width="5.6" height="5.6"/>
	<rect x="121.1" y="96.2" class="st17" width="5.6" height="5.6"/>
	<rect x="126.7" y="96.2" class="st16" width="5.6" height="5.6"/>
	<rect x="132.3" y="96.2" class="st12" width="5.6" height="5.6"/>
	<rect x="137.9" y="96.2" class="st4" width="5.6" height="5.6"/>
	<rect x="143.5" y="96.2" class="st3" width="5.6" height="5.6"/>
	<rect x="149" y="96.2" class="st3" width="5.6" height="5.6"/>
	<rect x="154.6" y="96.2" class="st2" width="5.6" height="5.6"/>
	<rect x="31.8" y="101.8" class="st1" width="5.6" height="5.6"/>
	<rect x="37.4" y="101.8" class="st3" width="5.6" height="5.6"/>
	<rect x="43" y="101.8" class="st3" width="5.6" height="5.6"/>
	<rect x="48.5" y="101.8" class="st1" width="5.6" height="5.6"/>
	<rect x="54.1" y="101.8" class="st4" width="5.6" height="5.6"/>
	<rect x="59.7" y="101.8" class="st3" width="5.6" height="5.6"/>
	<rect x="65.3" y="101.8" class="st4" width="5.6" height="5.6"/>
	<rect x="70.9" y="101.8" class="st1" width="5.6" height="5.6"/>
	<rect x="76.5" y="101.8" class="st12" width="5.6" height="5.6"/>
	<rect x="82" y="101.8" class="st14" width="5.6" height="5.6"/>
	<rect x="87.6" y="101.8" class="st14" width="5.6" height="5.6"/>
	<rect x="93.2" y="101.8" class="st19" width="5.6" height="5.6"/>
	<rect x="98.8" y="101.8" class="st14" width="5.6" height="5.6"/>
	<rect x="104.4" y="101.8" class="st14" width="5.6" height="5.6"/>
	<rect x="110" y="101.8" class="st19" width="5.6" height="5.6"/>
	<rect x="115.5" y="101.8" class="st14" width="5.6" height="5.6"/>
	<rect x="121.1" y="101.8" class="st14" width="5.6" height="5.6"/>
	<rect x="126.7" y="101.8" class="st12" width="5.6" height="5.6"/>
	<rect x="132.3" y="101.8" class="st1" width="5.6" height="5.6"/>
	<rect x="137.9" y="101.8" class="st4" width="5.6" height="5.6"/>
	<rect x="143.5" y="101.8" class="st3" width="5.6" height="5.6"/>
	<rect x="149" y="101.8" class="st3" width="5.6" height="5.6"/>
	<rect x="154.6" y="101.8" class="st2" width="5.6" height="5.6"/>
	<rect x="31.8" y="107.4" class="st1" width="5.6" height="5.6"/>
	<rect x="37.4" y="107.4" class="st3" width="5.6" height="5.6"/>
	<rect x="43" y="107.4" class="st3" width="5.6" height="5.6"/>
	<rect x="48.5" y="107.4" class="st1" width="5.6" height="5.6"/>
	<rect x="54.1" y="107.4" class="st4" width="5.6" height="5.6"/>
	<rect x="59.7" y="107.4" class="st3" width="5.6" height="5.6"/>
	<rect x="65.3" y="107.4" class="st4" width="5.6" height="5.6"/>
	<rect x="70.9" y="107.4" class="st1" width="5.6" height="5.6"/>
	<rect x="76.5" y="107.4" class="st1" width="5.6" height="5.6"/>
	<rect x="82" y="107.4" class="st12" width="5.6" height="5.6"/>
	<rect x="87.6" y="107.4" class="st14" width="5.6" height="5.6"/>
	<rect x="93.2" y="107.4" class="st14" width="5.6" height="5.6"/>
	<rect x="98.8" y="107.4" class="st19" width="5.6" height="5.6"/>
	<rect x="104.4" y="107.4" class="st19" width="5.6" height="5.6"/>
	<rect x="110" y="107.4" class="st14" width="5.6" height="5.6"/>
	<rect x="115.5" y="107.4" class="st14" width="5.6" height="5.6"/>
	<rect x="121.1" y="107.4" class="st12" width="5.6" height="5.6"/>
	<rect x="126.7" y="107.4" class="st1" width="5.6" height="5.6"/>
	<rect x="132.3" y="107.4" class="st1" width="5.6" height="5.6"/>
	<rect x="137.9" y="107.4" class="st4" width="5.6" height="5.6"/>
	<rect x="143.5" y="107.4" class="st3" width="5.6" height="5.6"/>
	<rect x="149" y="107.4" class="st4" width="5.6" height="5.6"/>
	<rect x="154.6" y="107.4" class="st2" width="5.6" height="5.6"/>
	<rect x="31.8" y="113" class="st1" width="5.6" height="5.6"/>
	<rect x="37.4" y="113" class="st3" width="5.6" height="5.6"/>
	<rect x="43" y="113" class="st3" width="5.6" height="5.6"/>
	<rect x="48.5" y="113" class="st1" width="5.6" height="5.6"/>
	<rect x="54.1" y="113" class="st4" width="5.6" height="5.6"/>
	<rect x="59.7" y="113" class="st3" width="5.6" height="5.6"/>
	<rect x="65.3" y="113" class="st4" width="5.6" height="5.6"/>
	<rect x="70.9" y="113" class="st4" width="5.6" height="5.6"/>
	<rect x="76.5" y="113" class="st4" width="5.6" height="5.6"/>
	<rect x="82" y="113" class="st4" width="5.6" height="5.6"/>
	<rect x="87.6" y="113" class="st4" width="5.6" height="5.6"/>
	<rect x="93.2" y="113" class="st4" width="5.6" height="5.6"/>
	<rect x="98.8" y="113" class="st4" width="5.6" height="5.6"/>
	<rect x="104.4" y="113" class="st4" width="5.6" height="5.6"/>
	<rect x="110" y="113" class="st4" width="5.6" height="5.6"/>
	<rect x="115.5" y="113" class="st4" width="5.6" height="5.6"/>
	<rect x="121.1" y="113" class="st4" width="5.6" height="5.6"/>
	<rect x="126.7" y="113" class="st4" width="5.6" height="5.6"/>
	<rect x="132.3" y="113" class="st4" width="5.6" height="5.6"/>
	<rect x="137.9" y="113" class="st4" width="5.6" height="5.6"/>
	<rect x="143.5" y="113" class="st3" width="5.6" height="5.6"/>
	<rect x="149" y="113" class="st4" width="5.6" height="5.6"/>
	<rect x="154.6" y="113" class="st2" width="5.6" height="5.6"/>
	<rect x="31.8" y="118.5" class="st1" width="5.6" height="5.6"/>
	<rect x="37.4" y="118.5" class="st3" width="5.6" height="5.6"/>
	<rect x="43" y="118.5" class="st3" width="5.6" height="5.6"/>
	<rect x="48.5" y="118.5" class="st1" width="5.6" height="5.6"/>
	<rect x="54.1" y="118.5" class="st4" width="5.6" height="5.6"/>
	<rect x="59.7" y="118.5" class="st3" width="5.6" height="5.6"/>
	<rect x="65.3" y="118.5" class="st3" width="5.6" height="5.6"/>
	<rect x="70.9" y="118.5" class="st3" width="5.6" height="5.6"/>
	<rect x="76.5" y="118.5" class="st3" width="5.6" height="5.6"/>
	<rect x="82" y="118.5" class="st3" width="5.6" height="5.6"/>
	<rect x="87.6" y="118.5" class="st3" width="5.6" height="5.6"/>
	<rect x="93.2" y="118.5" class="st3" width="5.6" height="5.6"/>
	<rect x="98.8" y="118.5" class="st3" width="5.6" height="5.6"/>
	<rect x="104.4" y="118.5" class="st3" width="5.6" height="5.6"/>
	<rect x="110" y="118.5" class="st3" width="5.6" height="5.6"/>
	<rect x="115.5" y="118.5" class="st3" width="5.6" height="5.6"/>
	<rect x="121.1" y="118.5" class="st3" width="5.6" height="5.6"/>
	<rect x="126.7" y="118.5" class="st3" width="5.6" height="5.6"/>
	<rect x="132.3" y="118.5" class="st3" width="5.6" height="5.6"/>
	<rect x="137.9" y="118.5" class="st3" width="5.6" height="5.6"/>
	<rect x="143.5" y="118.5" class="st3" width="5.6" height="5.6"/>
	<rect x="149" y="118.5" class="st4" width="5.6" height="5.6"/>
	<rect x="154.6" y="118.5" class="st2" width="5.6" height="5.6"/>
	<rect x="31.8" y="124.1" class="st1" width="5.6" height="5.6"/>
	<rect x="37.4" y="124.1" class="st3" width="5.6" height="5.6"/>
	<rect x="43" y="124.1" class="st3" width="5.6" height="5.6"/>
	<rect x="48.5" y="124.1" class="st1" width="5.6" height="5.6"/>
	<rect x="54.1" y="124.1" class="st4" width="5.6" height="5.6"/>
	<rect x="59.7" y="124.1" class="st4" width="5.6" height="5.6"/>
	<rect x="65.3" y="124.1" class="st4" width="5.6" height="5.6"/>
	<rect x="70.9" y="124.1" class="st4" width="5.6" height="5.6"/>
	<rect x="76.5" y="124.1" class="st3" width="5.6" height="5.6"/>
	<rect x="82" y="124.1" class="st3" width="5.6" height="5.6"/>
	<rect x="87.6" y="124.1" class="st3" width="5.6" height="5.6"/>
	<rect x="93.2" y="124.1" class="st3" width="5.6" height="5.6"/>
	<rect x="98.8" y="124.1" class="st3" width="5.6" height="5.6"/>
	<rect x="104.4" y="124.1" class="st3" width="5.6" height="5.6"/>
	<rect x="110" y="124.1" class="st3" width="5.6" height="5.6"/>
	<rect x="115.5" y="124.1" class="st3" width="5.6" height="5.6"/>
	<rect x="121.1" y="124.1" class="st3" width="5.6" height="5.6"/>
	<rect x="126.7" y="124.1" class="st3" width="5.6" height="5.6"/>
	<rect x="132.3" y="124.1" class="st4" width="5.6" height="5.6"/>
	<rect x="137.9" y="124.1" class="st4" width="5.6" height="5.6"/>
	<rect x="143.5" y="124.1" class="st4" width="5.6" height="5.6"/>
	<rect x="149" y="124.1" class="st4" width="5.6" height="5.6"/>
	<rect x="154.6" y="124.1" class="st2" width="5.6" height="5.6"/>
	<rect x="31.8" y="129.7" class="st1" width="5.6" height="5.6"/>
	<rect x="37.4" y="129.7" class="st1" width="5.6" height="5.6"/>
	<rect x="43" y="129.7" class="st1" width="5.6" height="5.6"/>
	<rect x="48.5" y="129.7" class="st1" width="5.6" height="5.6"/>
	<rect x="54.1" y="129.7" class="st1" width="5.6" height="5.6"/>
	<rect x="59.7" y="129.7" class="st1" width="5.6" height="5.6"/>
	<rect x="65.3" y="129.7" class="st1" width="5.6" height="5.6"/>
	<rect x="70.9" y="129.7" class="st1" width="5.6" height="5.6"/>
	<rect x="76.5" y="129.7" class="st1" width="5.6" height="5.6"/>
	<rect x="82" y="129.7" class="st1" width="5.6" height="5.6"/>
	<rect x="87.6" y="129.7" class="st1" width="5.6" height="5.6"/>
	<rect x="93.2" y="129.7" class="st1" width="5.6" height="5.6"/>
	<rect x="98.8" y="129.7" class="st1" width="5.6" height="5.6"/>
	<rect x="104.4" y="129.7" class="st1" width="5.6" height="5.6"/>
	<rect x="110" y="129.7" class="st1" width="5.6" height="5.6"/>
	<rect x="115.5" y="129.7" class="st1" width="5.6" height="5.6"/>
	<rect x="121.1" y="129.7" class="st1" width="5.6" height="5.6"/>
	<rect x="126.7" y="129.7" class="st1" width="5.6" height="5.6"/>
	<rect x="132.3" y="129.7" class="st1" width="5.6" height="5.6"/>
	<rect x="137.9" y="129.7" class="st1" width="5.6" height="5.6"/>
	<rect x="143.5" y="129.7" class="st1" width="5.6" height="5.6"/>
	<rect x="149" y="129.7" class="st1" width="5.6" height="5.6"/>
	<rect x="154.6" y="129.7" class="st1" width="5.6" height="5.6"/>
	<rect x="31.8" y="135.3" class="st1" width="5.6" height="5.6"/>
	<rect x="37.4" y="135.3" class="st20" width="5.6" height="5.6"/>
	<rect x="43" y="135.3" class="st20" width="5.6" height="5.6"/>
	<rect x="48.5" y="135.3" class="st20" width="5.6" height="5.6"/>
	<rect x="54.1" y="135.3" class="st20" width="5.6" height="5.6"/>
	<rect x="59.7" y="135.3" class="st20" width="5.6" height="5.6"/>
	<rect x="65.3" y="135.3" class="st20" width="5.6" height="5.6"/>
	<rect x="70.9" y="135.3" class="st20" width="5.6" height="5.6"/>
	<rect x="76.5" y="135.3" class="st20" width="5.6" height="5.6"/>
	<rect x="82" y="135.3" class="st20" width="5.6" height="5.6"/>
	<rect x="87.6" y="135.3" class="st20" width="5.6" height="5.6"/>
	<rect x="93.2" y="135.3" class="st20" width="5.6" height="5.6"/>
	<rect x="98.8" y="135.3" class="st20" width="5.6" height="5.6"/>
	<rect x="104.4" y="135.3" class="st20" width="5.6" height="5.6"/>
	<rect x="110" y="135.3" class="st20" width="5.6" height="5.6"/>
	<rect x="115.5" y="135.3" class="st20" width="5.6" height="5.6"/>
	<rect x="121.1" y="135.3" class="st20" width="5.6" height="5.6"/>
	<rect x="126.7" y="135.3" class="st20" width="5.6" height="5.6"/>
	<rect x="132.3" y="135.3" class="st20" width="5.6" height="5.6"/>
	<rect x="137.9" y="135.3" class="st20" width="5.6" height="5.6"/>
	<rect x="143.5" y="135.3" class="st20" width="5.6" height="5.6"/>
	<rect x="149" y="135.3" class="st20" width="5.6" height="5.6"/>
	<rect x="154.6" y="135.3" class="st1" width="5.6" height="5.6"/>
	<rect x="31.8" y="140.9" class="st1" width="5.6" height="5.6"/>
	<rect x="37.4" y="140.9" class="st20" width="5.6" height="5.6"/>
	<rect x="43" y="140.9" class="st20" width="5.6" height="5.6"/>
	<rect x="48.5" y="140.9" class="st6" width="5.6" height="5.6"/>
	<rect x="54.1" y="140.9" class="st21" width="5.6" height="5.6"/>
	<rect x="59.7" y="140.9" class="st21" width="5.6" height="5.6"/>
	<rect x="65.3" y="140.9" class="st21" width="5.6" height="5.6"/>
	<rect x="70.9" y="140.9" class="st21" width="5.6" height="5.6"/>
	<rect x="76.5" y="140.9" class="st21" width="5.6" height="5.6"/>
	<rect x="82" y="140.9" class="st6" width="5.6" height="5.6"/>
	<rect x="87.6" y="140.9" class="st6" width="5.6" height="5.6"/>
	<rect x="93.2" y="140.9" class="st6" width="5.6" height="5.6"/>
	<rect x="98.8" y="140.9" class="st6" width="5.6" height="5.6"/>
	<rect x="104.4" y="140.9" class="st6" width="5.6" height="5.6"/>
	<rect x="110" y="140.9" class="st6" width="5.6" height="5.6"/>
	<rect x="115.5" y="140.9" class="st6" width="5.6" height="5.6"/>
	<rect x="121.1" y="140.9" class="st6" width="5.6" height="5.6"/>
	<rect x="126.7" y="140.9" class="st6" width="5.6" height="5.6"/>
	<rect x="132.3" y="140.9" class="st6" width="5.6" height="5.6"/>
	<rect x="137.9" y="140.9" class="st6" width="5.6" height="5.6"/>
	<rect x="143.5" y="140.9" class="st6" width="5.6" height="5.6"/>
	<rect x="149" y="140.9" class="st6" width="5.6" height="5.6"/>
	<rect x="154.6" y="140.9" class="st1" width="5.6" height="5.6"/>
	<rect x="31.8" y="146.5" class="st1" width="5.6" height="5.6"/>
	<rect x="37.4" y="146.5" class="st20" width="5.6" height="5.6"/>
	<rect x="43" y="146.5" class="st20" width="5.6" height="5.6"/>
	<rect x="48.5" y="146.5" class="st6" width="5.6" height="5.6"/>
	<rect x="54.1" y="146.5" class="st21" width="5.6" height="5.6"/>
	<rect x="59.7" y="146.5" class="st21" width="5.6" height="5.6"/>
	<rect x="65.3" y="146.5" class="st21" width="5.6" height="5.6"/>
	<rect x="70.9" y="146.5" class="st21" width="5.6" height="5.6"/>
	<rect x="76.5" y="146.5" class="st21" width="5.6" height="5.6"/>
	<rect x="82" y="146.5" class="st6" width="5.6" height="5.6"/>
	<rect x="87.6" y="146.5" class="st6" width="5.6" height="5.6"/>
	<rect x="93.2" y="146.5" class="st6" width="5.6" height="5.6"/>
	<rect x="98.8" y="146.5" class="st6" width="5.6" height="5.6"/>
	<rect x="104.4" y="146.5" class="st6" width="5.6" height="5.6"/>
	<rect x="110" y="146.5" class="st6" width="5.6" height="5.6"/>
	<rect x="115.5" y="146.5" class="st6" width="5.6" height="5.6"/>
	<rect x="121.1" y="146.5" class="st6" width="5.6" height="5.6"/>
	<rect x="126.7" y="146.5" class="st6" width="5.6" height="5.6"/>
	<rect x="132.3" y="146.5" class="st6" width="5.6" height="5.6"/>
	<rect x="137.9" y="146.5" class="st6" width="5.6" height="5.6"/>
	<rect x="143.5" y="146.5" class="st6" width="5.6" height="5.6"/>
	<rect x="149" y="146.5" class="st6" width="5.6" height="5.6"/>
	<rect x="154.6" y="146.5" class="st1" width="5.6" height="5.6"/>
	<rect x="31.8" y="152" class="st1" width="5.6" height="5.6"/>
	<rect x="37.4" y="152" class="st20" width="5.6" height="5.6"/>
	<rect x="43" y="152" class="st20" width="5.6" height="5.6"/>
	<rect x="48.5" y="152" class="st20" width="5.6" height="5.6"/>
	<rect x="54.1" y="152" class="st19" width="5.6" height="5.6"/>
	<rect x="59.7" y="152" class="st19" width="5.6" height="5.6"/>
	<rect x="65.3" y="152" class="st19" width="5.6" height="5.6"/>
	<rect x="70.9" y="152" class="st19" width="5.6" height="5.6"/>
	<rect x="76.5" y="152" class="st19" width="5.6" height="5.6"/>
	<rect x="82" y="152" class="st20" width="5.6" height="5.6"/>
	<rect x="87.6" y="152" class="st20" width="5.6" height="5.6"/>
	<rect x="93.2" y="152" class="st20" width="5.6" height="5.6"/>
	<rect x="98.8" y="152" class="st20" width="5.6" height="5.6"/>
	<rect x="104.4" y="152" class="st20" width="5.6" height="5.6"/>
	<rect x="110" y="152" class="st20" width="5.6" height="5.6"/>
	<rect x="115.5" y="152" class="st20" width="5.6" height="5.6"/>
	<rect x="121.1" y="152" class="st20" width="5.6" height="5.6"/>
	<rect x="126.7" y="152" class="st20" width="5.6" height="5.6"/>
	<rect x="132.3" y="152" class="st20" width="5.6" height="5.6"/>
	<rect x="137.9" y="152" class="st20" width="5.6" height="5.6"/>
	<rect x="143.5" y="152" class="st20" width="5.6" height="5.6"/>
	<rect x="149" y="152" class="st20" width="5.6" height="5.6"/>
	<rect x="154.6" y="152" class="st1" width="5.6" height="5.6"/>
	<rect x="37.4" y="157.6" class="st1" width="5.6" height="5.6"/>
	<rect x="43" y="157.6" class="st1" width="5.6" height="5.6"/>
	<rect x="48.5" y="157.6" class="st1" width="5.6" height="5.6"/>
	<rect x="54.1" y="157.6" class="st19" width="5.6" height="5.6"/>
	<rect x="59.7" y="157.6" class="st19" width="5.6" height="5.6"/>
	<rect x="65.3" y="157.6" class="st19" width="5.6" height="5.6"/>
	<rect x="70.9" y="157.6" class="st19" width="5.6" height="5.6"/>
	<rect x="76.5" y="157.6" class="st19" width="5.6" height="5.6"/>
	<rect x="82" y="157.6" class="st3" width="5.6" height="5.6"/>
	<rect x="87.6" y="157.6" class="st3" width="5.6" height="5.6"/>
	<rect x="93.2" y="157.6" class="st3" width="5.6" height="5.6"/>
	<rect x="98.8" y="157.6" class="st3" width="5.6" height="5.6"/>
	<rect x="104.4" y="157.6" class="st3" width="5.6" height="5.6"/>
	<rect x="110" y="157.6" class="st3" width="5.6" height="5.6"/>
	<rect x="115.5" y="157.6" class="st3" width="5.6" height="5.6"/>
	<rect x="121.1" y="157.6" class="st3" width="5.6" height="5.6"/>
	<rect x="126.7" y="157.6" class="st3" width="5.6" height="5.6"/>
	<rect x="132.3" y="157.6" class="st3" width="5.6" height="5.6"/>
	<rect x="137.9" y="157.6" class="st3" width="5.6" height="5.6"/>
	<rect x="143.5" y="157.6" class="st3" width="5.6" height="5.6"/>
	<rect x="149" y="157.6" class="st3" width="5.6" height="5.6"/>
	<rect x="154.6" y="157.6" class="st1" width="5.6" height="5.6"/>
	<rect x="54.1" y="163.2" class="st19" width="5.6" height="5.6"/>
	<rect x="59.7" y="163.2" class="st19" width="5.6" height="5.6"/>
	<rect x="65.3" y="163.2" class="st19" width="5.6" height="5.6"/>
	<rect x="70.9" y="163.2" class="st19" width="5.6" height="5.6"/>
	<rect x="76.5" y="163.2" class="st19" width="5.6" height="5.6"/>
	<rect x="54.1" y="168.8" class="st19" width="5.6" height="5.6"/>
	<rect x="59.7" y="168.8" class="st19" width="5.6" height="5.6"/>
	<rect x="65.3" y="168.8" class="st19" width="5.6" height="5.6"/>
	<rect x="70.9" y="168.8" class="st19" width="5.6" height="5.6"/>
	<rect x="76.5" y="168.8" class="st19" width="5.6" height="5.6"/>
</g>
</svg>
