<?xml version="1.0" encoding="utf-8"?>
<!-- Generator: Adobe Illustrator 27.9.0, SVG Export Plug-In . SVG Version: 6.00 Build 0)  -->
<svg version="1.1" id="Layer_1" shape-rendering="crispEdges"
	 xmlns="http://www.w3.org/2000/svg" xmlns:xlink="http://www.w3.org/1999/xlink" x="0px" y="0px" viewBox="0 0 192 192"
	 style="enable-background:new 0 0 192 192;" xml:space="preserve">
<style type="text/css">
	.st0{fill:#EBA4C4;}
	.st1{fill:#21459C;}
	.st2{fill:#4B6DBE;}
	.st3{fill:#3154A9;}
	.st4{fill:#E4895D;}
	.st5{fill:#F2C7B6;}
	.st6{fill:#8D5386;}
	.st7{fill:#EEA8A0;}
	.st8{fill:#E75D81;}
	.st9{fill:#EB97A7;}
	.st10{fill:#0E3185;}
	.st11{fill:#E2574A;}
	.st12{fill:#CF6F87;}
	.st13{fill:#DA7FA0;}
	.st14{fill:#0E245D;}
	.st15{fill:#ED9392;}
	.st16{fill:#A7E2F8;}
	.st17{fill:#1CA4D8;}
	.st18{fill:#63C5EA;}
</style>
<rect class="st0" width="192" height="192"/>
<g>
	<rect x="73.6" y="27.7" class="st1" width="7.5" height="7.5"/>
	<rect x="81.1" y="27.7" class="st1" width="7.5" height="7.5"/>
	<rect x="88.5" y="27.7" class="st1" width="7.5" height="7.5"/>
	<rect x="96" y="27.7" class="st1" width="7.5" height="7.5"/>
	<rect x="103.5" y="27.7" class="st1" width="7.5" height="7.5"/>
	<rect x="110.9" y="27.7" class="st1" width="7.5" height="7.5"/>
	<rect x="58.7" y="35.2" class="st1" width="7.5" height="7.5"/>
	<rect x="66.1" y="35.2" class="st1" width="7.5" height="7.5"/>
	<rect x="73.6" y="35.2" class="st2" width="7.5" height="7.5"/>
	<rect x="81.1" y="35.2" class="st2" width="7.5" height="7.5"/>
	<rect x="88.5" y="35.2" class="st2" width="7.5" height="7.5"/>
	<rect x="96" y="35.2" class="st2" width="7.5" height="7.5"/>
	<rect x="103.5" y="35.2" class="st2" width="7.5" height="7.5"/>
	<rect x="110.9" y="35.2" class="st2" width="7.5" height="7.5"/>
	<rect x="118.4" y="35.2" class="st1" width="7.5" height="7.5"/>
	<rect x="125.9" y="35.2" class="st1" width="7.5" height="7.5"/>
	<rect x="51.2" y="42.7" class="st1" width="7.5" height="7.5"/>
	<rect x="58.7" y="42.7" class="st2" width="7.5" height="7.5"/>
	<rect x="66.1" y="42.7" class="st2" width="7.5" height="7.5"/>
	<rect x="73.6" y="42.7" class="st3" width="7.5" height="7.5"/>
	<rect x="81.1" y="42.7" class="st3" width="7.5" height="7.5"/>
	<rect x="88.5" y="42.7" class="st3" width="7.5" height="7.5"/>
	<rect x="96" y="42.7" class="st3" width="7.5" height="7.5"/>
	<rect x="103.5" y="42.7" class="st3" width="7.5" height="7.5"/>
	<rect x="110.9" y="42.7" class="st3" width="7.5" height="7.5"/>
	<rect x="118.4" y="42.7" class="st2" width="7.5" height="7.5"/>
	<rect x="125.9" y="42.7" class="st2" width="7.5" height="7.5"/>
	<rect x="133.3" y="42.7" class="st1" width="7.5" height="7.5"/>
	<rect x="43.7" y="50.1" class="st1" width="7.5" height="7.5"/>
	<rect x="51.2" y="50.1" class="st2" width="7.5" height="7.5"/>
	<rect x="58.7" y="50.1" class="st3" width="7.5" height="7.5"/>
	<rect x="66.1" y="50.1" class="st3" width="7.5" height="7.5"/>
	<rect x="73.6" y="50.1" class="st3" width="7.5" height="7.5"/>
	<rect x="81.1" y="50.1" class="st3" width="7.5" height="7.5"/>
	<rect x="88.5" y="50.1" class="st3" width="7.5" height="7.5"/>
	<rect x="96" y="50.1" class="st3" width="7.5" height="7.5"/>
	<rect x="103.5" y="50.1" class="st3" width="7.5" height="7.5"/>
	<rect x="110.9" y="50.1" class="st3" width="7.5" height="7.5"/>
	<rect x="118.4" y="50.1" class="st3" width="7.5" height="7.5"/>
	<rect x="125.9" y="50.1" class="st3" width="7.5" height="7.5"/>
	<rect x="133.3" y="50.1" class="st2" width="7.5" height="7.5"/>
	<rect x="140.8" y="50.1" class="st1" width="7.5" height="7.5"/>
	<rect x="43.7" y="57.6" class="st1" width="7.5" height="7.5"/>
	<rect x="51.2" y="57.6" class="st2" width="7.5" height="7.5"/>
	<rect x="58.7" y="57.6" class="st3" width="7.5" height="7.5"/>
	<rect x="66.1" y="57.6" class="st3" width="7.5" height="7.5"/>
	<rect x="73.6" y="57.6" class="st3" width="7.5" height="7.5"/>
	<rect x="81.1" y="57.6" class="st3" width="7.5" height="7.5"/>
	<rect x="88.5" y="57.6" class="st3" width="7.5" height="7.5"/>
	<rect x="96" y="57.6" class="st3" width="7.5" height="7.5"/>
	<rect x="103.5" y="57.6" class="st3" width="7.5" height="7.5"/>
	<rect x="110.9" y="57.6" class="st3" width="7.5" height="7.5"/>
	<rect x="118.4" y="57.6" class="st3" width="7.5" height="7.5"/>
	<rect x="125.9" y="57.6" class="st3" width="7.5" height="7.5"/>
	<rect x="133.3" y="57.6" class="st2" width="7.5" height="7.5"/>
	<rect x="140.8" y="57.6" class="st1" width="7.5" height="7.5"/>
	<rect x="36.3" y="65.1" class="st1" width="7.5" height="7.5"/>
	<rect x="43.7" y="65.1" class="st2" width="7.5" height="7.5"/>
	<rect x="51.2" y="65.1" class="st3" width="7.5" height="7.5"/>
	<rect x="58.7" y="65.1" class="st3" width="7.5" height="7.5"/>
	<rect x="66.1" y="65.1" class="st3" width="7.5" height="7.5"/>
	<rect x="73.6" y="65.1" class="st3" width="7.5" height="7.5"/>
	<rect x="81.1" y="65.1" class="st3" width="7.5" height="7.5"/>
	<rect x="88.5" y="65.1" class="st3" width="7.5" height="7.5"/>
	<rect x="96" y="65.1" class="st3" width="7.5" height="7.5"/>
	<rect x="103.5" y="65.1" class="st3" width="7.5" height="7.5"/>
	<rect x="110.9" y="65.1" class="st3" width="7.5" height="7.5"/>
	<rect x="118.4" y="65.1" class="st3" width="7.5" height="7.5"/>
	<rect x="125.9" y="65.1" class="st3" width="7.5" height="7.5"/>
	<rect x="133.3" y="65.1" class="st3" width="7.5" height="7.5"/>
	<rect x="140.8" y="65.1" class="st2" width="7.5" height="7.5"/>
	<rect x="148.3" y="65.1" class="st1" width="7.5" height="7.5"/>
	<rect x="36.3" y="72.5" class="st1" width="7.5" height="7.5"/>
	<rect x="43.7" y="72.5" class="st2" width="7.5" height="7.5"/>
	<rect x="51.2" y="72.5" class="st3" width="7.5" height="7.5"/>
	<rect x="58.7" y="72.5" class="st3" width="7.5" height="7.5"/>
	<rect x="66.1" y="72.5" class="st3" width="7.5" height="7.5"/>
	<rect x="73.6" y="72.5" class="st4" width="7.5" height="7.5"/>
	<rect x="81.1" y="72.5" class="st3" width="7.5" height="7.5"/>
	<rect x="88.5" y="72.5" class="st3" width="7.5" height="7.5"/>
	<rect x="96" y="72.5" class="st3" width="7.5" height="7.5"/>
	<rect x="103.5" y="72.5" class="st3" width="7.5" height="7.5"/>
	<rect x="110.9" y="72.5" class="st4" width="7.5" height="7.5"/>
	<rect x="118.4" y="72.5" class="st3" width="7.5" height="7.5"/>
	<rect x="125.9" y="72.5" class="st3" width="7.5" height="7.5"/>
	<rect x="133.3" y="72.5" class="st3" width="7.5" height="7.5"/>
	<rect x="140.8" y="72.5" class="st2" width="7.5" height="7.5"/>
	<rect x="148.3" y="72.5" class="st1" width="7.5" height="7.5"/>
	<rect x="36.3" y="80" class="st1" width="7.5" height="7.5"/>
	<rect x="43.7" y="80" class="st2" width="7.5" height="7.5"/>
	<rect x="51.2" y="80" class="st1" width="7.5" height="7.5"/>
	<rect x="58.7" y="80" class="st3" width="7.5" height="7.5"/>
	<rect x="66.1" y="80" class="st5" width="7.5" height="7.5"/>
	<rect x="73.6" y="80" class="st6" width="7.5" height="7.5"/>
	<rect x="81.1" y="80" class="st5" width="7.5" height="7.5"/>
	<rect x="88.5" y="80" class="st5" width="7.5" height="7.5"/>
	<rect x="96" y="80" class="st5" width="7.5" height="7.5"/>
	<rect x="103.5" y="80" class="st5" width="7.5" height="7.5"/>
	<rect x="110.9" y="80" class="st6" width="7.5" height="7.5"/>
	<rect x="118.4" y="80" class="st5" width="7.5" height="7.5"/>
	<rect x="125.9" y="80" class="st3" width="7.5" height="7.5"/>
	<rect x="133.3" y="80" class="st1" width="7.5" height="7.5"/>
	<rect x="140.8" y="80" class="st2" width="7.5" height="7.5"/>
	<rect x="148.3" y="80" class="st1" width="7.5" height="7.5"/>
	<rect x="28.8" y="87.5" class="st1" width="7.5" height="7.5"/>
	<rect x="36.3" y="87.5" class="st2" width="7.5" height="7.5"/>
	<rect x="43.7" y="87.5" class="st3" width="7.5" height="7.5"/>
	<rect x="51.2" y="87.5" class="st1" width="7.5" height="7.5"/>
	<rect x="58.7" y="87.5" class="st7" width="7.5" height="7.5"/>
	<rect x="66.1" y="87.5" class="st5" width="7.5" height="7.5"/>
	<rect x="73.6" y="87.5" class="st6" width="7.5" height="7.5"/>
	<rect x="81.1" y="87.5" class="st5" width="7.5" height="7.5"/>
	<rect x="88.5" y="87.5" class="st5" width="7.5" height="7.5"/>
	<rect x="96" y="87.5" class="st5" width="7.5" height="7.5"/>
	<rect x="103.5" y="87.5" class="st5" width="7.5" height="7.5"/>
	<rect x="110.9" y="87.5" class="st6" width="7.5" height="7.5"/>
	<rect x="118.4" y="87.5" class="st5" width="7.5" height="7.5"/>
	<rect x="125.9" y="87.5" class="st7" width="7.5" height="7.5"/>
	<rect x="133.3" y="87.5" class="st1" width="7.5" height="7.5"/>
	<rect x="140.8" y="87.5" class="st3" width="7.5" height="7.5"/>
	<rect x="148.3" y="87.5" class="st2" width="7.5" height="7.5"/>
	<rect x="155.7" y="87.5" class="st1" width="7.5" height="7.5"/>
	<rect x="28.8" y="94.9" class="st1" width="7.5" height="7.5"/>
	<rect x="36.3" y="94.9" class="st2" width="7.5" height="7.5"/>
	<rect x="43.7" y="94.9" class="st1" width="7.5" height="7.5"/>
	<rect x="51.2" y="94.9" class="st3" width="7.5" height="7.5"/>
	<rect x="58.7" y="94.9" class="st7" width="7.5" height="7.5"/>
	<rect x="66.1" y="94.9" class="st8" width="7.5" height="7.5"/>
	<rect x="73.6" y="94.9" class="st9" width="7.5" height="7.5"/>
	<rect x="81.1" y="94.9" class="st5" width="7.5" height="7.5"/>
	<rect x="88.5" y="94.9" class="st5" width="7.5" height="7.5"/>
	<rect x="96" y="94.9" class="st5" width="7.5" height="7.5"/>
	<rect x="103.5" y="94.9" class="st5" width="7.5" height="7.5"/>
	<rect x="110.9" y="94.9" class="st9" width="7.5" height="7.5"/>
	<rect x="118.4" y="94.9" class="st8" width="7.5" height="7.5"/>
	<rect x="125.9" y="94.9" class="st7" width="7.5" height="7.5"/>
	<rect x="133.3" y="94.9" class="st3" width="7.5" height="7.5"/>
	<rect x="140.8" y="94.9" class="st1" width="7.5" height="7.5"/>
	<rect x="148.3" y="94.9" class="st2" width="7.5" height="7.5"/>
	<rect x="155.7" y="94.9" class="st1" width="7.5" height="7.5"/>
	<rect x="28.8" y="102.4" class="st10" width="7.5" height="7.5"/>
	<rect x="36.3" y="102.4" class="st1" width="7.5" height="7.5"/>
	<rect x="43.7" y="102.4" class="st3" width="7.5" height="7.5"/>
	<rect x="51.2" y="102.4" class="st1" width="7.5" height="7.5"/>
	<rect x="58.7" y="102.4" class="st3" width="7.5" height="7.5"/>
	<rect x="66.1" y="102.4" class="st5" width="7.5" height="7.5"/>
	<rect x="73.6" y="102.4" class="st5" width="7.5" height="7.5"/>
	<rect x="81.1" y="102.4" class="st11" width="7.5" height="7.5"/>
	<rect x="88.5" y="102.4" class="st5" width="7.5" height="7.5"/>
	<rect x="96" y="102.4" class="st5" width="7.5" height="7.5"/>
	<rect x="103.5" y="102.4" class="st11" width="7.5" height="7.5"/>
	<rect x="110.9" y="102.4" class="st5" width="7.5" height="7.5"/>
	<rect x="118.4" y="102.4" class="st5" width="7.5" height="7.5"/>
	<rect x="125.9" y="102.4" class="st3" width="7.5" height="7.5"/>
	<rect x="133.3" y="102.4" class="st1" width="7.5" height="7.5"/>
	<rect x="140.8" y="102.4" class="st3" width="7.5" height="7.5"/>
	<rect x="148.3" y="102.4" class="st1" width="7.5" height="7.5"/>
	<rect x="155.7" y="102.4" class="st10" width="7.5" height="7.5"/>
	<rect x="28.8" y="109.9" class="st10" width="7.5" height="7.5"/>
	<rect x="36.3" y="109.9" class="st1" width="7.5" height="7.5"/>
	<rect x="43.7" y="109.9" class="st1" width="7.5" height="7.5"/>
	<rect x="51.2" y="109.9" class="st1" width="7.5" height="7.5"/>
	<rect x="58.7" y="109.9" class="st1" width="7.5" height="7.5"/>
	<rect x="66.1" y="109.9" class="st5" width="7.5" height="7.5"/>
	<rect x="73.6" y="109.9" class="st5" width="7.5" height="7.5"/>
	<rect x="81.1" y="109.9" class="st5" width="7.5" height="7.5"/>
	<rect x="88.5" y="109.9" class="st11" width="7.5" height="7.5"/>
	<rect x="96" y="109.9" class="st11" width="7.5" height="7.5"/>
	<rect x="103.5" y="109.9" class="st5" width="7.5" height="7.5"/>
	<rect x="110.9" y="109.9" class="st5" width="7.5" height="7.5"/>
	<rect x="118.4" y="109.9" class="st5" width="7.5" height="7.5"/>
	<rect x="125.9" y="109.9" class="st1" width="7.5" height="7.5"/>
	<rect x="133.3" y="109.9" class="st1" width="7.5" height="7.5"/>
	<rect x="140.8" y="109.9" class="st1" width="7.5" height="7.5"/>
	<rect x="148.3" y="109.9" class="st1" width="7.5" height="7.5"/>
	<rect x="155.7" y="109.9" class="st10" width="7.5" height="7.5"/>
	<rect x="28.8" y="117.3" class="st10" width="7.5" height="7.5"/>
	<rect x="36.3" y="117.3" class="st1" width="7.5" height="7.5"/>
	<rect x="43.7" y="117.3" class="st1" width="7.5" height="7.5"/>
	<rect x="51.2" y="117.3" class="st1" width="7.5" height="7.5"/>
	<rect x="58.7" y="117.3" class="st1" width="7.5" height="7.5"/>
	<rect x="66.1" y="117.3" class="st1" width="7.5" height="7.5"/>
	<rect x="73.6" y="117.3" class="st5" width="7.5" height="7.5"/>
	<rect x="81.1" y="117.3" class="st5" width="7.5" height="7.5"/>
	<rect x="88.5" y="117.3" class="st5" width="7.5" height="7.5"/>
	<rect x="96" y="117.3" class="st5" width="7.5" height="7.5"/>
	<rect x="103.5" y="117.3" class="st5" width="7.5" height="7.5"/>
	<rect x="110.9" y="117.3" class="st5" width="7.5" height="7.5"/>
	<rect x="118.4" y="117.3" class="st1" width="7.5" height="7.5"/>
	<rect x="125.9" y="117.3" class="st1" width="7.5" height="7.5"/>
	<rect x="133.3" y="117.3" class="st1" width="7.5" height="7.5"/>
	<rect x="140.8" y="117.3" class="st1" width="7.5" height="7.5"/>
	<rect x="148.3" y="117.3" class="st1" width="7.5" height="7.5"/>
	<rect x="155.7" y="117.3" class="st10" width="7.5" height="7.5"/>
	<rect x="28.8" y="124.8" class="st10" width="7.5" height="7.5"/>
	<rect x="36.3" y="124.8" class="st1" width="7.5" height="7.5"/>
	<rect x="43.7" y="124.8" class="st1" width="7.5" height="7.5"/>
	<rect x="51.2" y="124.8" class="st1" width="7.5" height="7.5"/>
	<rect x="58.7" y="124.8" class="st1" width="7.5" height="7.5"/>
	<rect x="66.1" y="124.8" class="st1" width="7.5" height="7.5"/>
	<rect x="73.6" y="124.8" class="st10" width="7.5" height="7.5"/>
	<rect x="81.1" y="124.8" class="st12" width="7.5" height="7.5"/>
	<rect x="88.5" y="124.8" class="st13" width="7.5" height="7.5"/>
	<rect x="96" y="124.8" class="st13" width="7.5" height="7.5"/>
	<rect x="103.5" y="124.8" class="st12" width="7.5" height="7.5"/>
	<rect x="110.9" y="124.8" class="st10" width="7.5" height="7.5"/>
	<rect x="118.4" y="124.8" class="st1" width="7.5" height="7.5"/>
	<rect x="125.9" y="124.8" class="st1" width="7.5" height="7.5"/>
	<rect x="133.3" y="124.8" class="st1" width="7.5" height="7.5"/>
	<rect x="140.8" y="124.8" class="st1" width="7.5" height="7.5"/>
	<rect x="148.3" y="124.8" class="st1" width="7.5" height="7.5"/>
	<rect x="155.7" y="124.8" class="st10" width="7.5" height="7.5"/>
	<rect x="28.8" y="132.3" class="st10" width="7.5" height="7.5"/>
	<rect x="36.3" y="132.3" class="st10" width="7.5" height="7.5"/>
	<rect x="43.7" y="132.3" class="st10" width="7.5" height="7.5"/>
	<rect x="51.2" y="132.3" class="st10" width="7.5" height="7.5"/>
	<rect x="58.7" y="132.3" class="st10" width="7.5" height="7.5"/>
	<rect x="66.1" y="132.3" class="st10" width="7.5" height="7.5"/>
	<rect x="73.6" y="132.3" class="st14" width="7.5" height="7.5"/>
	<rect x="81.1" y="132.3" class="st15" width="7.5" height="7.5"/>
	<rect x="88.5" y="132.3" class="st7" width="7.5" height="7.5"/>
	<rect x="96" y="132.3" class="st7" width="7.5" height="7.5"/>
	<rect x="103.5" y="132.3" class="st15" width="7.5" height="7.5"/>
	<rect x="110.9" y="132.3" class="st14" width="7.5" height="7.5"/>
	<rect x="118.4" y="132.3" class="st10" width="7.5" height="7.5"/>
	<rect x="125.9" y="132.3" class="st10" width="7.5" height="7.5"/>
	<rect x="133.3" y="132.3" class="st10" width="7.5" height="7.5"/>
	<rect x="140.8" y="132.3" class="st10" width="7.5" height="7.5"/>
	<rect x="148.3" y="132.3" class="st10" width="7.5" height="7.5"/>
	<rect x="155.7" y="132.3" class="st10" width="7.5" height="7.5"/>
	<rect x="66.1" y="139.7" class="st1" width="7.5" height="7.5"/>
	<rect x="73.6" y="139.7" class="st16" width="7.5" height="7.5"/>
	<rect x="81.1" y="139.7" class="st1" width="7.5" height="7.5"/>
	<rect x="88.5" y="139.7" class="st15" width="7.5" height="7.5"/>
	<rect x="96" y="139.7" class="st15" width="7.5" height="7.5"/>
	<rect x="103.5" y="139.7" class="st1" width="7.5" height="7.5"/>
	<rect x="110.9" y="139.7" class="st16" width="7.5" height="7.5"/>
	<rect x="118.4" y="139.7" class="st1" width="7.5" height="7.5"/>
	<rect x="58.7" y="147.2" class="st1" width="7.5" height="7.5"/>
	<rect x="66.1" y="147.2" class="st2" width="7.5" height="7.5"/>
	<rect x="73.6" y="147.2" class="st16" width="7.5" height="7.5"/>
	<rect x="81.1" y="147.2" class="st16" width="7.5" height="7.5"/>
	<rect x="88.5" y="147.2" class="st1" width="7.5" height="7.5"/>
	<rect x="96" y="147.2" class="st1" width="7.5" height="7.5"/>
	<rect x="103.5" y="147.2" class="st16" width="7.5" height="7.5"/>
	<rect x="110.9" y="147.2" class="st16" width="7.5" height="7.5"/>
	<rect x="118.4" y="147.2" class="st2" width="7.5" height="7.5"/>
	<rect x="125.9" y="147.2" class="st1" width="7.5" height="7.5"/>
	<rect x="51.2" y="154.7" class="st1" width="7.5" height="7.5"/>
	<rect x="58.7" y="154.7" class="st2" width="7.5" height="7.5"/>
	<rect x="66.1" y="154.7" class="st10" width="7.5" height="7.5"/>
	<rect x="73.6" y="154.7" class="st16" width="7.5" height="7.5"/>
	<rect x="81.1" y="154.7" class="st1" width="7.5" height="7.5"/>
	<rect x="88.5" y="154.7" class="st17" width="7.5" height="7.5"/>
	<rect x="96" y="154.7" class="st17" width="7.5" height="7.5"/>
	<rect x="103.5" y="154.7" class="st1" width="7.5" height="7.5"/>
	<rect x="110.9" y="154.7" class="st16" width="7.5" height="7.5"/>
	<rect x="118.4" y="154.7" class="st10" width="7.5" height="7.5"/>
	<rect x="125.9" y="154.7" class="st2" width="7.5" height="7.5"/>
	<rect x="133.3" y="154.7" class="st1" width="7.5" height="7.5"/>
	<rect x="43.7" y="162.1" class="st1" width="7.5" height="7.5"/>
	<rect x="51.2" y="162.1" class="st2" width="7.5" height="7.5"/>
	<rect x="58.7" y="162.1" class="st10" width="7.5" height="7.5"/>
	<rect x="66.1" y="162.1" class="st10" width="7.5" height="7.5"/>
	<rect x="73.6" y="162.1" class="st16" width="7.5" height="7.5"/>
	<rect x="81.1" y="162.1" class="st18" width="7.5" height="7.5"/>
	<rect x="88.5" y="162.1" class="st17" width="7.5" height="7.5"/>
	<rect x="96" y="162.1" class="st17" width="7.5" height="7.5"/>
	<rect x="103.5" y="162.1" class="st18" width="7.5" height="7.5"/>
	<rect x="110.9" y="162.1" class="st16" width="7.5" height="7.5"/>
	<rect x="118.4" y="162.1" class="st10" width="7.5" height="7.5"/>
	<rect x="125.9" y="162.1" class="st10" width="7.5" height="7.5"/>
	<rect x="133.3" y="162.1" class="st2" width="7.5" height="7.5"/>
	<rect x="140.8" y="162.1" class="st1" width="7.5" height="7.5"/>
	<rect x="36.3" y="169.6" class="st1" width="7.5" height="7.5"/>
	<rect x="43.7" y="169.6" class="st2" width="7.5" height="7.5"/>
	<rect x="51.2" y="169.6" class="st1" width="7.5" height="7.5"/>
	<rect x="58.7" y="169.6" class="st10" width="7.5" height="7.5"/>
	<rect x="66.1" y="169.6" class="st10" width="7.5" height="7.5"/>
	<rect x="73.6" y="169.6" class="st10" width="7.5" height="7.5"/>
	<rect x="81.1" y="169.6" class="st18" width="7.5" height="7.5"/>
	<rect x="88.5" y="169.6" class="st17" width="7.5" height="7.5"/>
	<rect x="96" y="169.6" class="st17" width="7.5" height="7.5"/>
	<rect x="103.5" y="169.6" class="st18" width="7.5" height="7.5"/>
	<rect x="110.9" y="169.6" class="st10" width="7.5" height="7.5"/>
	<rect x="118.4" y="169.6" class="st10" width="7.5" height="7.5"/>
	<rect x="125.9" y="169.6" class="st10" width="7.5" height="7.5"/>
	<rect x="133.3" y="169.6" class="st1" width="7.5" height="7.5"/>
	<rect x="140.8" y="169.6" class="st2" width="7.5" height="7.5"/>
	<rect x="148.3" y="169.6" class="st1" width="7.5" height="7.5"/>
	<rect x="36.3" y="177.1" class="st1" width="7.5" height="7.5"/>
	<rect x="43.7" y="177.1" class="st10" width="7.5" height="7.5"/>
	<rect x="51.2" y="177.1" class="st10" width="7.5" height="7.5"/>
	<rect x="58.7" y="177.1" class="st1" width="7.5" height="7.5"/>
	<rect x="66.1" y="177.1" class="st10" width="7.5" height="7.5"/>
	<rect x="73.6" y="177.1" class="st10" width="7.5" height="7.5"/>
	<rect x="81.1" y="177.1" class="st18" width="7.5" height="7.5"/>
	<rect x="88.5" y="177.1" class="st17" width="7.5" height="7.5"/>
	<rect x="96" y="177.1" class="st17" width="7.5" height="7.5"/>
	<rect x="103.5" y="177.1" class="st18" width="7.5" height="7.5"/>
	<rect x="110.9" y="177.1" class="st10" width="7.5" height="7.5"/>
	<rect x="118.4" y="177.1" class="st10" width="7.5" height="7.5"/>
	<rect x="125.9" y="177.1" class="st1" width="7.5" height="7.5"/>
	<rect x="133.3" y="177.1" class="st10" width="7.5" height="7.5"/>
	<rect x="140.8" y="177.1" class="st10" width="7.5" height="7.5"/>
	<rect x="148.3" y="177.1" class="st1" width="7.5" height="7.5"/>
	<rect x="36.3" y="184.5" class="st1" width="7.5" height="7.5"/>
	<rect x="43.7" y="184.5" class="st1" width="7.5" height="7.5"/>
	<rect x="51.2" y="184.5" class="st1" width="7.5" height="7.5"/>
	<rect x="58.7" y="184.5" class="st1" width="7.5" height="7.5"/>
	<rect x="66.1" y="184.5" class="st1" width="7.5" height="7.5"/>
	<rect x="73.6" y="184.5" class="st1" width="7.5" height="7.5"/>
	<rect x="81.1" y="184.5" class="st1" width="7.5" height="7.5"/>
	<rect x="88.5" y="184.5" class="st1" width="7.5" height="7.5"/>
	<rect x="96" y="184.5" class="st1" width="7.5" height="7.5"/>
	<rect x="103.5" y="184.5" class="st1" width="7.5" height="7.5"/>
	<rect x="110.9" y="184.5" class="st1" width="7.5" height="7.5"/>
	<rect x="118.4" y="184.5" class="st1" width="7.5" height="7.5"/>
	<rect x="125.9" y="184.5" class="st1" width="7.5" height="7.5"/>
	<rect x="133.3" y="184.5" class="st1" width="7.5" height="7.5"/>
	<rect x="140.8" y="184.5" class="st1" width="7.5" height="7.5"/>
	<rect x="148.3" y="184.5" class="st1" width="7.5" height="7.5"/>
</g>
</svg>
