<?xml version="1.0" encoding="utf-8"?>
<!-- Generator: Adobe Illustrator 27.9.0, SVG Export Plug-In . SVG Version: 6.00 Build 0)  -->
<svg version="1.1" id="Layer_1" xmlns="http://www.w3.org/2000/svg" xmlns:xlink="http://www.w3.org/1999/xlink" x="0px" y="0px"
	 viewBox="0 0 80 80" style="enable-background:new 0 0 80 80;" xml:space="preserve">
<g id="XMLID_22_">
	<g id="XMLID_64_">
		<defs>
			<path id="XMLID_65_" d="M40,71.5C22.6,71.5,8.5,57.4,8.5,40C8.5,22.6,22.6,8.5,40,8.5c17.4,0,31.5,14.1,31.5,31.5
				C71.5,57.4,57.4,71.5,40,71.5L40,71.5z M66.6,44.3c-0.9-0.3-8.3-2.5-16.8-1.2c3.5,9.7,5,17.6,5.2,19.2
				C61.1,58.3,65.4,51.8,66.6,44.3L66.6,44.3z M50.5,64.8c-0.4-2.4-2-10.6-5.7-20.4c-0.1,0-0.1,0-0.2,0.1
				c-15.2,5.3-20.7,15.8-21.1,16.8C28,64.8,33.8,67,40,67C43.7,67,47.3,66.2,50.5,64.8L50.5,64.8z M20,58c0.6-1,8-13.3,21.9-17.8
				c0.4-0.1,0.7-0.2,1.1-0.3c-0.7-1.5-1.4-3.1-2.2-4.6c-13.5,4-26.5,3.9-27.7,3.8c0,0.3,0,0.5,0,0.8C13.1,47,15.7,53.3,20,58L20,58z
				 M13.6,34.5c1.2,0,12.3,0.1,24.9-3.3c-4.5-7.9-9.3-14.6-10-15.6C21,19.2,15.4,26.2,13.6,34.5L13.6,34.5z M33.7,13.9
				c0.7,1,5.6,7.7,10.1,15.8c9.6-3.6,13.6-9,14.1-9.7c-4.8-4.2-11-6.8-17.9-6.8C37.8,13.1,35.7,13.4,33.7,13.9L33.7,13.9z M60.9,23
				c-0.6,0.8-5.1,6.5-15,10.6c0.6,1.3,1.2,2.6,1.8,3.9c0.2,0.5,0.4,0.9,0.6,1.4c9-1.1,17.9,0.7,18.8,0.9
				C66.9,33.4,64.6,27.6,60.9,23L60.9,23z"/>
		</defs>
		<use xlink:href="#XMLID_65_"  style="overflow:visible;fill-rule:evenodd;clip-rule:evenodd;fill:#914938;"/>
		<clipPath id="XMLID_00000016756103002366082580000002324355438857177517_">
			<use xlink:href="#XMLID_65_"  style="overflow:visible;"/>
		</clipPath>
	</g>
</g>
</svg>
