<?xml version="1.0" encoding="utf-8"?>
<!-- Generator: Adobe Illustrator 27.9.0, SVG Export Plug-In . SVG Version: 6.00 Build 0)  -->
<svg version="1.1" id="Layer_1" shape-rendering="crispEdges"
	 xmlns="http://www.w3.org/2000/svg" xmlns:xlink="http://www.w3.org/1999/xlink" x="0px" y="0px" viewBox="0 0 150 155.8"
	 style="enable-background:new 0 0 150 155.8;" xml:space="preserve">
<style type="text/css">
	.st0{fill:#EECC11;}
	.st1{fill:#CF6F87;}
	.st2{fill:#EBA4C4;}
	.st3{fill:#21459C;}
	.st4{fill:#4B6DBE;}
	.st5{fill:#3154A9;}
	.st6{fill:#B55D83;}
	.st7{fill:#E4895D;}
	.st8{fill:#F2C7B6;}
	.st9{fill:#8D5386;}
	.st10{fill:#EEA8A0;}
	.st11{fill:#4973A9;}
	.st12{fill:#E75D81;}
	.st13{fill:#EB97A7;}
	.st14{fill:#0E3185;}
	.st15{fill:#E2574A;}
	.st16{fill:#435BA3;}
	.st17{fill:#DA7FA0;}
	.st18{fill:#0E245D;}
	.st19{fill:#ED9392;}
	.st20{fill:#A7E2F8;}
	.st21{fill:#1CA4D8;}
	.st22{fill:#63C5EA;}
</style>
<g>
	<rect x="17.3" class="st0" width="5.8" height="5.8"/>
	<rect x="23.1" class="st0" width="5.8" height="5.8"/>
	<rect x="28.8" class="st0" width="5.8" height="5.8"/>
	<rect x="34.6" class="st0" width="5.8" height="5.8"/>
	<rect x="40.4" class="st0" width="5.8" height="5.8"/>
	<rect x="46.2" class="st0" width="5.8" height="5.8"/>
	<rect x="51.9" class="st0" width="5.8" height="5.8"/>
	<rect x="57.7" class="st0" width="5.8" height="5.8"/>
	<rect x="63.5" class="st0" width="5.8" height="5.8"/>
	<rect x="69.2" class="st0" width="5.8" height="5.8"/>
	<rect x="75" class="st0" width="5.8" height="5.8"/>
	<rect x="80.8" class="st0" width="5.8" height="5.8"/>
	<rect x="86.5" class="st0" width="5.8" height="5.8"/>
	<rect x="92.3" class="st0" width="5.8" height="5.8"/>
	<rect x="98.1" class="st0" width="5.8" height="5.8"/>
	<rect x="103.8" class="st0" width="5.8" height="5.8"/>
	<rect x="109.6" class="st0" width="5.8" height="5.8"/>
	<rect x="115.4" class="st0" width="5.8" height="5.8"/>
	<rect x="121.2" class="st0" width="5.8" height="5.8"/>
	<rect x="126.9" class="st0" width="5.8" height="5.8"/>
	<rect x="11.5" y="5.8" class="st0" width="5.8" height="5.8"/>
	<rect x="17.3" y="5.8" class="st1" width="5.8" height="5.8"/>
	<rect x="23.1" y="5.8" class="st1" width="5.8" height="5.8"/>
	<rect x="28.8" y="5.8" class="st1" width="5.8" height="5.8"/>
	<rect x="34.6" y="5.8" class="st1" width="5.8" height="5.8"/>
	<rect x="40.4" y="5.8" class="st1" width="5.8" height="5.8"/>
	<rect x="46.2" y="5.8" class="st1" width="5.8" height="5.8"/>
	<rect x="51.9" y="5.8" class="st1" width="5.8" height="5.8"/>
	<rect x="57.7" y="5.8" class="st1" width="5.8" height="5.8"/>
	<rect x="63.5" y="5.8" class="st1" width="5.8" height="5.8"/>
	<rect x="69.2" y="5.8" class="st1" width="5.8" height="5.8"/>
	<rect x="75" y="5.8" class="st1" width="5.8" height="5.8"/>
	<rect x="80.8" y="5.8" class="st1" width="5.8" height="5.8"/>
	<rect x="86.5" y="5.8" class="st1" width="5.8" height="5.8"/>
	<rect x="92.3" y="5.8" class="st1" width="5.8" height="5.8"/>
	<rect x="98.1" y="5.8" class="st1" width="5.8" height="5.8"/>
	<rect x="103.8" y="5.8" class="st1" width="5.8" height="5.8"/>
	<rect x="109.6" y="5.8" class="st1" width="5.8" height="5.8"/>
	<rect x="115.4" y="5.8" class="st1" width="5.8" height="5.8"/>
	<rect x="121.2" y="5.8" class="st1" width="5.8" height="5.8"/>
	<rect x="126.9" y="5.8" class="st1" width="5.8" height="5.8"/>
	<rect x="132.7" y="5.8" class="st0" width="5.8" height="5.8"/>
	<rect x="5.8" y="11.6" class="st0" width="5.8" height="5.8"/>
	<rect x="11.5" y="11.6" class="st1" width="5.8" height="5.8"/>
	<rect x="17.3" y="11.6" class="st2" width="5.8" height="5.8"/>
	<rect x="23.1" y="11.6" class="st2" width="5.8" height="5.8"/>
	<rect x="28.8" y="11.6" class="st2" width="5.8" height="5.8"/>
	<rect x="34.6" y="11.6" class="st2" width="5.8" height="5.8"/>
	<rect x="40.4" y="11.6" class="st2" width="5.8" height="5.8"/>
	<rect x="46.2" y="11.6" class="st2" width="5.8" height="5.8"/>
	<rect x="51.9" y="11.6" class="st2" width="5.8" height="5.8"/>
	<rect x="57.7" y="11.6" class="st2" width="5.8" height="5.8"/>
	<rect x="63.5" y="11.6" class="st2" width="5.8" height="5.8"/>
	<rect x="69.2" y="11.6" class="st2" width="5.8" height="5.8"/>
	<rect x="75" y="11.6" class="st2" width="5.8" height="5.8"/>
	<rect x="80.8" y="11.6" class="st2" width="5.8" height="5.8"/>
	<rect x="86.5" y="11.6" class="st2" width="5.8" height="5.8"/>
	<rect x="92.3" y="11.6" class="st2" width="5.8" height="5.8"/>
	<rect x="98.1" y="11.6" class="st2" width="5.8" height="5.8"/>
	<rect x="103.8" y="11.6" class="st2" width="5.8" height="5.8"/>
	<rect x="109.6" y="11.6" class="st2" width="5.8" height="5.8"/>
	<rect x="115.4" y="11.6" class="st2" width="5.8" height="5.8"/>
	<rect x="121.2" y="11.6" class="st2" width="5.8" height="5.8"/>
	<rect x="126.9" y="11.6" class="st2" width="5.8" height="5.8"/>
	<rect x="132.7" y="11.6" class="st1" width="5.8" height="5.8"/>
	<rect x="138.5" y="11.6" class="st0" width="5.8" height="5.8"/>
	<rect y="17.3" class="st0" width="5.8" height="5.8"/>
	<rect x="5.8" y="17.3" class="st1" width="5.8" height="5.8"/>
	<rect x="11.5" y="17.3" class="st2" width="5.8" height="5.8"/>
	<rect x="17.3" y="17.3" class="st1" width="5.8" height="5.8"/>
	<rect x="23.1" y="17.3" class="st2" width="5.8" height="5.8"/>
	<rect x="28.8" y="17.3" class="st2" width="5.8" height="5.8"/>
	<rect x="34.6" y="17.3" class="st2" width="5.8" height="5.8"/>
	<rect x="40.4" y="17.3" class="st2" width="5.8" height="5.8"/>
	<rect x="46.2" y="17.3" class="st2" width="5.8" height="5.8"/>
	<rect x="51.9" y="17.3" class="st2" width="5.8" height="5.8"/>
	<rect x="57.7" y="17.3" class="st2" width="5.8" height="5.8"/>
	<rect x="63.5" y="17.3" class="st2" width="5.8" height="5.8"/>
	<rect x="69.2" y="17.3" class="st2" width="5.8" height="5.8"/>
	<rect x="75" y="17.3" class="st2" width="5.8" height="5.8"/>
	<rect x="80.8" y="17.3" class="st2" width="5.8" height="5.8"/>
	<rect x="86.5" y="17.3" class="st2" width="5.8" height="5.8"/>
	<rect x="92.3" y="17.3" class="st2" width="5.8" height="5.8"/>
	<rect x="98.1" y="17.3" class="st2" width="5.8" height="5.8"/>
	<rect x="103.8" y="17.3" class="st2" width="5.8" height="5.8"/>
	<rect x="109.6" y="17.3" class="st2" width="5.8" height="5.8"/>
	<rect x="115.4" y="17.3" class="st2" width="5.8" height="5.8"/>
	<rect x="121.2" y="17.3" class="st2" width="5.8" height="5.8"/>
	<rect x="126.9" y="17.3" class="st1" width="5.8" height="5.8"/>
	<rect x="132.7" y="17.3" class="st2" width="5.8" height="5.8"/>
	<rect x="138.5" y="17.3" class="st1" width="5.8" height="5.8"/>
	<rect x="144.2" y="17.3" class="st0" width="5.8" height="5.8"/>
	<rect y="23.1" class="st0" width="5.8" height="5.8"/>
	<rect x="5.8" y="23.1" class="st1" width="5.8" height="5.8"/>
	<rect x="11.5" y="23.1" class="st2" width="5.8" height="5.8"/>
	<rect x="17.3" y="23.1" class="st2" width="5.8" height="5.8"/>
	<rect x="23.1" y="23.1" class="st2" width="5.8" height="5.8"/>
	<rect x="28.8" y="23.1" class="st2" width="5.8" height="5.8"/>
	<rect x="34.6" y="23.1" class="st2" width="5.8" height="5.8"/>
	<rect x="40.4" y="23.1" class="st2" width="5.8" height="5.8"/>
	<rect x="46.2" y="23.1" class="st2" width="5.8" height="5.8"/>
	<rect x="51.9" y="23.1" class="st2" width="5.8" height="5.8"/>
	<rect x="57.7" y="23.1" class="st3" width="5.8" height="5.8"/>
	<rect x="63.5" y="23.1" class="st3" width="5.8" height="5.8"/>
	<rect x="69.2" y="23.1" class="st3" width="5.8" height="5.8"/>
	<rect x="75" y="23.1" class="st3" width="5.8" height="5.8"/>
	<rect x="80.8" y="23.1" class="st3" width="5.8" height="5.8"/>
	<rect x="86.5" y="23.1" class="st3" width="5.8" height="5.8"/>
	<rect x="92.3" y="23.1" class="st2" width="5.8" height="5.8"/>
	<rect x="98.1" y="23.1" class="st2" width="5.8" height="5.8"/>
	<rect x="103.8" y="23.1" class="st2" width="5.8" height="5.8"/>
	<rect x="109.6" y="23.1" class="st2" width="5.8" height="5.8"/>
	<rect x="115.4" y="23.1" class="st2" width="5.8" height="5.8"/>
	<rect x="121.2" y="23.1" class="st2" width="5.8" height="5.8"/>
	<rect x="126.9" y="23.1" class="st2" width="5.8" height="5.8"/>
	<rect x="132.7" y="23.1" class="st2" width="5.8" height="5.8"/>
	<rect x="138.5" y="23.1" class="st1" width="5.8" height="5.8"/>
	<rect x="144.2" y="23.1" class="st0" width="5.8" height="5.8"/>
	<rect y="28.9" class="st0" width="5.8" height="5.8"/>
	<rect x="5.8" y="28.9" class="st1" width="5.8" height="5.8"/>
	<rect x="11.5" y="28.9" class="st2" width="5.8" height="5.8"/>
	<rect x="17.3" y="28.9" class="st2" width="5.8" height="5.8"/>
	<rect x="23.1" y="28.9" class="st2" width="5.8" height="5.8"/>
	<rect x="28.8" y="28.9" class="st2" width="5.8" height="5.8"/>
	<rect x="34.6" y="28.9" class="st2" width="5.8" height="5.8"/>
	<rect x="40.4" y="28.9" class="st2" width="5.8" height="5.8"/>
	<rect x="46.2" y="28.9" class="st3" width="5.8" height="5.8"/>
	<rect x="51.9" y="28.9" class="st3" width="5.8" height="5.8"/>
	<rect x="57.7" y="28.9" class="st4" width="5.8" height="5.8"/>
	<rect x="63.5" y="28.9" class="st4" width="5.8" height="5.8"/>
	<rect x="69.2" y="28.9" class="st4" width="5.8" height="5.8"/>
	<rect x="75" y="28.9" class="st4" width="5.8" height="5.8"/>
	<rect x="80.8" y="28.9" class="st4" width="5.8" height="5.8"/>
	<rect x="86.5" y="28.9" class="st4" width="5.8" height="5.8"/>
	<rect x="92.3" y="28.9" class="st3" width="5.8" height="5.8"/>
	<rect x="98.1" y="28.9" class="st3" width="5.8" height="5.8"/>
	<rect x="103.8" y="28.9" class="st2" width="5.8" height="5.8"/>
	<rect x="109.6" y="28.9" class="st2" width="5.8" height="5.8"/>
	<rect x="115.4" y="28.9" class="st2" width="5.8" height="5.8"/>
	<rect x="121.2" y="28.9" class="st2" width="5.8" height="5.8"/>
	<rect x="126.9" y="28.9" class="st2" width="5.8" height="5.8"/>
	<rect x="132.7" y="28.9" class="st2" width="5.8" height="5.8"/>
	<rect x="138.5" y="28.9" class="st1" width="5.8" height="5.8"/>
	<rect x="144.2" y="28.9" class="st0" width="5.8" height="5.8"/>
	<rect y="34.6" class="st0" width="5.8" height="5.8"/>
	<rect x="5.8" y="34.6" class="st1" width="5.8" height="5.8"/>
	<rect x="11.5" y="34.6" class="st2" width="5.8" height="5.8"/>
	<rect x="17.3" y="34.6" class="st2" width="5.8" height="5.8"/>
	<rect x="23.1" y="34.6" class="st2" width="5.8" height="5.8"/>
	<rect x="28.8" y="34.6" class="st2" width="5.8" height="5.8"/>
	<rect x="34.6" y="34.6" class="st2" width="5.8" height="5.8"/>
	<rect x="40.4" y="34.6" class="st3" width="5.8" height="5.8"/>
	<rect x="46.2" y="34.6" class="st4" width="5.8" height="5.8"/>
	<rect x="51.9" y="34.6" class="st4" width="5.8" height="5.8"/>
	<rect x="57.7" y="34.6" class="st5" width="5.8" height="5.8"/>
	<rect x="63.5" y="34.6" class="st5" width="5.8" height="5.8"/>
	<rect x="69.2" y="34.6" class="st5" width="5.8" height="5.8"/>
	<rect x="75" y="34.6" class="st5" width="5.8" height="5.8"/>
	<rect x="80.8" y="34.6" class="st5" width="5.8" height="5.8"/>
	<rect x="86.5" y="34.6" class="st5" width="5.8" height="5.8"/>
	<rect x="92.3" y="34.6" class="st4" width="5.8" height="5.8"/>
	<rect x="98.1" y="34.6" class="st4" width="5.8" height="5.8"/>
	<rect x="103.8" y="34.6" class="st3" width="5.8" height="5.8"/>
	<rect x="109.6" y="34.6" class="st2" width="5.8" height="5.8"/>
	<rect x="115.4" y="34.6" class="st2" width="5.8" height="5.8"/>
	<rect x="121.2" y="34.6" class="st2" width="5.8" height="5.8"/>
	<rect x="126.9" y="34.6" class="st2" width="5.8" height="5.8"/>
	<rect x="132.7" y="34.6" class="st2" width="5.8" height="5.8"/>
	<rect x="138.5" y="34.6" class="st1" width="5.8" height="5.8"/>
	<rect x="144.2" y="34.6" class="st0" width="5.8" height="5.8"/>
	<rect y="40.4" class="st0" width="5.8" height="5.8"/>
	<rect x="5.8" y="40.4" class="st1" width="5.8" height="5.8"/>
	<rect x="11.5" y="40.4" class="st2" width="5.8" height="5.8"/>
	<rect x="17.3" y="40.4" class="st2" width="5.8" height="5.8"/>
	<rect x="23.1" y="40.4" class="st2" width="5.8" height="5.8"/>
	<rect x="28.8" y="40.4" class="st2" width="5.8" height="5.8"/>
	<rect x="34.6" y="40.4" class="st3" width="5.8" height="5.8"/>
	<rect x="40.4" y="40.4" class="st4" width="5.8" height="5.8"/>
	<rect x="46.2" y="40.4" class="st5" width="5.8" height="5.8"/>
	<rect x="51.9" y="40.4" class="st5" width="5.8" height="5.8"/>
	<rect x="57.7" y="40.4" class="st5" width="5.8" height="5.8"/>
	<rect x="63.5" y="40.4" class="st5" width="5.8" height="5.8"/>
	<rect x="69.2" y="40.4" class="st5" width="5.8" height="5.8"/>
	<rect x="75" y="40.4" class="st5" width="5.8" height="5.8"/>
	<rect x="80.8" y="40.4" class="st5" width="5.8" height="5.8"/>
	<rect x="86.5" y="40.4" class="st5" width="5.8" height="5.8"/>
	<rect x="92.3" y="40.4" class="st5" width="5.8" height="5.8"/>
	<rect x="98.1" y="40.4" class="st5" width="5.8" height="5.8"/>
	<rect x="103.8" y="40.4" class="st4" width="5.8" height="5.8"/>
	<rect x="109.6" y="40.4" class="st3" width="5.8" height="5.8"/>
	<rect x="115.4" y="40.4" class="st2" width="5.8" height="5.8"/>
	<rect x="121.2" y="40.4" class="st2" width="5.8" height="5.8"/>
	<rect x="126.9" y="40.4" class="st2" width="5.8" height="5.8"/>
	<rect x="132.7" y="40.4" class="st2" width="5.8" height="5.8"/>
	<rect x="138.5" y="40.4" class="st1" width="5.8" height="5.8"/>
	<rect x="144.2" y="40.4" class="st0" width="5.8" height="5.8"/>
	<rect y="46.2" class="st0" width="5.8" height="5.8"/>
	<rect x="5.8" y="46.2" class="st6" width="5.8" height="5.8"/>
	<rect x="11.5" y="46.2" class="st2" width="5.8" height="5.8"/>
	<rect x="17.3" y="46.2" class="st2" width="5.8" height="5.8"/>
	<rect x="23.1" y="46.2" class="st2" width="5.8" height="5.8"/>
	<rect x="28.8" y="46.2" class="st2" width="5.8" height="5.8"/>
	<rect x="34.6" y="46.2" class="st3" width="5.8" height="5.8"/>
	<rect x="40.4" y="46.2" class="st4" width="5.8" height="5.8"/>
	<rect x="46.2" y="46.2" class="st5" width="5.8" height="5.8"/>
	<rect x="51.9" y="46.2" class="st5" width="5.8" height="5.8"/>
	<rect x="57.7" y="46.2" class="st5" width="5.8" height="5.8"/>
	<rect x="63.5" y="46.2" class="st5" width="5.8" height="5.8"/>
	<rect x="69.2" y="46.2" class="st5" width="5.8" height="5.8"/>
	<rect x="75" y="46.2" class="st5" width="5.8" height="5.8"/>
	<rect x="80.8" y="46.2" class="st5" width="5.8" height="5.8"/>
	<rect x="86.5" y="46.2" class="st5" width="5.8" height="5.8"/>
	<rect x="92.3" y="46.2" class="st5" width="5.8" height="5.8"/>
	<rect x="98.1" y="46.2" class="st5" width="5.8" height="5.8"/>
	<rect x="103.8" y="46.2" class="st4" width="5.8" height="5.8"/>
	<rect x="109.6" y="46.2" class="st3" width="5.8" height="5.8"/>
	<rect x="115.4" y="46.2" class="st2" width="5.8" height="5.8"/>
	<rect x="121.2" y="46.2" class="st2" width="5.8" height="5.8"/>
	<rect x="126.9" y="46.2" class="st2" width="5.8" height="5.8"/>
	<rect x="132.7" y="46.2" class="st2" width="5.8" height="5.8"/>
	<rect x="138.5" y="46.2" class="st6" width="5.8" height="5.8"/>
	<rect x="144.2" y="46.2" class="st0" width="5.8" height="5.8"/>
	<rect y="51.9" class="st0" width="5.8" height="5.8"/>
	<rect x="5.8" y="51.9" class="st6" width="5.8" height="5.8"/>
	<rect x="11.5" y="51.9" class="st2" width="5.8" height="5.8"/>
	<rect x="17.3" y="51.9" class="st2" width="5.8" height="5.8"/>
	<rect x="23.1" y="51.9" class="st2" width="5.8" height="5.8"/>
	<rect x="28.8" y="51.9" class="st3" width="5.8" height="5.8"/>
	<rect x="34.6" y="51.9" class="st4" width="5.8" height="5.8"/>
	<rect x="40.4" y="51.9" class="st5" width="5.8" height="5.8"/>
	<rect x="46.2" y="51.9" class="st5" width="5.8" height="5.8"/>
	<rect x="51.9" y="51.9" class="st5" width="5.8" height="5.8"/>
	<rect x="57.7" y="51.9" class="st5" width="5.8" height="5.8"/>
	<rect x="63.5" y="51.9" class="st5" width="5.8" height="5.8"/>
	<rect x="69.2" y="51.9" class="st5" width="5.8" height="5.8"/>
	<rect x="75" y="51.9" class="st5" width="5.8" height="5.8"/>
	<rect x="80.8" y="51.9" class="st5" width="5.8" height="5.8"/>
	<rect x="86.5" y="51.9" class="st5" width="5.8" height="5.8"/>
	<rect x="92.3" y="51.9" class="st5" width="5.8" height="5.8"/>
	<rect x="98.1" y="51.9" class="st5" width="5.8" height="5.8"/>
	<rect x="103.8" y="51.9" class="st5" width="5.8" height="5.8"/>
	<rect x="109.6" y="51.9" class="st4" width="5.8" height="5.8"/>
	<rect x="115.4" y="51.9" class="st3" width="5.8" height="5.8"/>
	<rect x="121.2" y="51.9" class="st2" width="5.8" height="5.8"/>
	<rect x="126.9" y="51.9" class="st2" width="5.8" height="5.8"/>
	<rect x="132.7" y="51.9" class="st2" width="5.8" height="5.8"/>
	<rect x="138.5" y="51.9" class="st6" width="5.8" height="5.8"/>
	<rect x="144.2" y="51.9" class="st0" width="5.8" height="5.8"/>
	<rect y="57.7" class="st0" width="5.8" height="5.8"/>
	<rect x="5.8" y="57.7" class="st6" width="5.8" height="5.8"/>
	<rect x="11.5" y="57.7" class="st2" width="5.8" height="5.8"/>
	<rect x="17.3" y="57.7" class="st2" width="5.8" height="5.8"/>
	<rect x="23.1" y="57.7" class="st2" width="5.8" height="5.8"/>
	<rect x="28.8" y="57.7" class="st3" width="5.8" height="5.8"/>
	<rect x="34.6" y="57.7" class="st4" width="5.8" height="5.8"/>
	<rect x="40.4" y="57.7" class="st5" width="5.8" height="5.8"/>
	<rect x="46.2" y="57.7" class="st5" width="5.8" height="5.8"/>
	<rect x="51.9" y="57.7" class="st5" width="5.8" height="5.8"/>
	<rect x="57.7" y="57.7" class="st7" width="5.8" height="5.8"/>
	<rect x="63.5" y="57.7" class="st5" width="5.8" height="5.8"/>
	<rect x="69.2" y="57.7" class="st5" width="5.8" height="5.8"/>
	<rect x="75" y="57.7" class="st5" width="5.8" height="5.8"/>
	<rect x="80.8" y="57.7" class="st5" width="5.8" height="5.8"/>
	<rect x="86.5" y="57.7" class="st7" width="5.8" height="5.8"/>
	<rect x="92.3" y="57.7" class="st5" width="5.8" height="5.8"/>
	<rect x="98.1" y="57.7" class="st5" width="5.8" height="5.8"/>
	<rect x="103.8" y="57.7" class="st5" width="5.8" height="5.8"/>
	<rect x="109.6" y="57.7" class="st4" width="5.8" height="5.8"/>
	<rect x="115.4" y="57.7" class="st3" width="5.8" height="5.8"/>
	<rect x="121.2" y="57.7" class="st2" width="5.8" height="5.8"/>
	<rect x="126.9" y="57.7" class="st2" width="5.8" height="5.8"/>
	<rect x="132.7" y="57.7" class="st2" width="5.8" height="5.8"/>
	<rect x="138.5" y="57.7" class="st6" width="5.8" height="5.8"/>
	<rect x="144.2" y="57.7" class="st0" width="5.8" height="5.8"/>
	<rect y="63.5" class="st0" width="5.8" height="5.8"/>
	<rect x="5.8" y="63.5" class="st6" width="5.8" height="5.8"/>
	<rect x="11.5" y="63.5" class="st2" width="5.8" height="5.8"/>
	<rect x="17.3" y="63.5" class="st2" width="5.8" height="5.8"/>
	<rect x="23.1" y="63.5" class="st2" width="5.8" height="5.8"/>
	<rect x="28.8" y="63.5" class="st3" width="5.8" height="5.8"/>
	<rect x="34.6" y="63.5" class="st4" width="5.8" height="5.8"/>
	<rect x="40.4" y="63.5" class="st3" width="5.8" height="5.8"/>
	<rect x="46.2" y="63.5" class="st5" width="5.8" height="5.8"/>
	<rect x="51.9" y="63.5" class="st8" width="5.8" height="5.8"/>
	<rect x="57.7" y="63.5" class="st9" width="5.8" height="5.8"/>
	<rect x="63.5" y="63.5" class="st8" width="5.8" height="5.8"/>
	<rect x="69.2" y="63.5" class="st8" width="5.8" height="5.8"/>
	<rect x="75" y="63.5" class="st8" width="5.8" height="5.8"/>
	<rect x="80.8" y="63.5" class="st8" width="5.8" height="5.8"/>
	<rect x="86.5" y="63.5" class="st9" width="5.8" height="5.8"/>
	<rect x="92.3" y="63.5" class="st8" width="5.8" height="5.8"/>
	<rect x="98.1" y="63.5" class="st5" width="5.8" height="5.8"/>
	<rect x="103.8" y="63.5" class="st3" width="5.8" height="5.8"/>
	<rect x="109.6" y="63.5" class="st4" width="5.8" height="5.8"/>
	<rect x="115.4" y="63.5" class="st3" width="5.8" height="5.8"/>
	<rect x="121.2" y="63.5" class="st2" width="5.8" height="5.8"/>
	<rect x="126.9" y="63.5" class="st2" width="5.8" height="5.8"/>
	<rect x="132.7" y="63.5" class="st2" width="5.8" height="5.8"/>
	<rect x="138.5" y="63.5" class="st6" width="5.8" height="5.8"/>
	<rect x="144.2" y="63.5" class="st0" width="5.8" height="5.8"/>
	<rect y="69.2" class="st0" width="5.8" height="5.8"/>
	<rect x="5.8" y="69.2" class="st6" width="5.8" height="5.8"/>
	<rect x="11.5" y="69.2" class="st2" width="5.8" height="5.8"/>
	<rect x="17.3" y="69.2" class="st2" width="5.8" height="5.8"/>
	<rect x="23.1" y="69.2" class="st3" width="5.8" height="5.8"/>
	<rect x="28.8" y="69.2" class="st4" width="5.8" height="5.8"/>
	<rect x="34.6" y="69.2" class="st5" width="5.8" height="5.8"/>
	<rect x="40.4" y="69.2" class="st3" width="5.8" height="5.8"/>
	<rect x="46.2" y="69.2" class="st10" width="5.8" height="5.8"/>
	<rect x="51.9" y="69.2" class="st8" width="5.8" height="5.8"/>
	<rect x="57.7" y="69.2" class="st9" width="5.8" height="5.8"/>
	<rect x="63.5" y="69.2" class="st8" width="5.8" height="5.8"/>
	<rect x="69.2" y="69.2" class="st8" width="5.8" height="5.8"/>
	<rect x="75" y="69.2" class="st8" width="5.8" height="5.8"/>
	<rect x="80.8" y="69.2" class="st8" width="5.8" height="5.8"/>
	<rect x="86.5" y="69.2" class="st9" width="5.8" height="5.8"/>
	<rect x="92.3" y="69.2" class="st8" width="5.8" height="5.8"/>
	<rect x="98.1" y="69.2" class="st10" width="5.8" height="5.8"/>
	<rect x="103.8" y="69.2" class="st3" width="5.8" height="5.8"/>
	<rect x="109.6" y="69.2" class="st5" width="5.8" height="5.8"/>
	<rect x="115.4" y="69.2" class="st4" width="5.8" height="5.8"/>
	<rect x="121.2" y="69.2" class="st3" width="5.8" height="5.8"/>
	<rect x="126.9" y="69.2" class="st2" width="5.8" height="5.8"/>
	<rect x="132.7" y="69.2" class="st2" width="5.8" height="5.8"/>
	<rect x="138.5" y="69.2" class="st6" width="5.8" height="5.8"/>
	<rect x="144.2" y="69.2" class="st0" width="5.8" height="5.8"/>
	<rect y="75" class="st0" width="5.8" height="5.8"/>
	<rect x="5.8" y="75" class="st11" width="5.8" height="5.8"/>
	<rect x="11.5" y="75" class="st2" width="5.8" height="5.8"/>
	<rect x="17.3" y="75" class="st2" width="5.8" height="5.8"/>
	<rect x="23.1" y="75" class="st3" width="5.8" height="5.8"/>
	<rect x="28.8" y="75" class="st4" width="5.8" height="5.8"/>
	<rect x="34.6" y="75" class="st3" width="5.8" height="5.8"/>
	<rect x="40.4" y="75" class="st5" width="5.8" height="5.8"/>
	<rect x="46.2" y="75" class="st10" width="5.8" height="5.8"/>
	<rect x="51.9" y="75" class="st12" width="5.8" height="5.8"/>
	<rect x="57.7" y="75" class="st13" width="5.8" height="5.8"/>
	<rect x="63.5" y="75" class="st8" width="5.8" height="5.8"/>
	<rect x="69.2" y="75" class="st8" width="5.8" height="5.8"/>
	<rect x="75" y="75" class="st8" width="5.8" height="5.8"/>
	<rect x="80.8" y="75" class="st8" width="5.8" height="5.8"/>
	<rect x="86.5" y="75" class="st13" width="5.8" height="5.8"/>
	<rect x="92.3" y="75" class="st12" width="5.8" height="5.8"/>
	<rect x="98.1" y="75" class="st10" width="5.8" height="5.8"/>
	<rect x="103.8" y="75" class="st5" width="5.8" height="5.8"/>
	<rect x="109.6" y="75" class="st3" width="5.8" height="5.8"/>
	<rect x="115.4" y="75" class="st4" width="5.8" height="5.8"/>
	<rect x="121.2" y="75" class="st3" width="5.8" height="5.8"/>
	<rect x="126.9" y="75" class="st2" width="5.8" height="5.8"/>
	<rect x="132.7" y="75" class="st2" width="5.8" height="5.8"/>
	<rect x="138.5" y="75" class="st11" width="5.8" height="5.8"/>
	<rect x="144.2" y="75" class="st0" width="5.8" height="5.8"/>
	<rect y="80.8" class="st0" width="5.8" height="5.8"/>
	<rect x="5.8" y="80.8" class="st11" width="5.8" height="5.8"/>
	<rect x="11.5" y="80.8" class="st2" width="5.8" height="5.8"/>
	<rect x="17.3" y="80.8" class="st2" width="5.8" height="5.8"/>
	<rect x="23.1" y="80.8" class="st14" width="5.8" height="5.8"/>
	<rect x="28.8" y="80.8" class="st3" width="5.8" height="5.8"/>
	<rect x="34.6" y="80.8" class="st5" width="5.8" height="5.8"/>
	<rect x="40.4" y="80.8" class="st3" width="5.8" height="5.8"/>
	<rect x="46.2" y="80.8" class="st5" width="5.8" height="5.8"/>
	<rect x="51.9" y="80.8" class="st8" width="5.8" height="5.8"/>
	<rect x="57.7" y="80.8" class="st8" width="5.8" height="5.8"/>
	<rect x="63.5" y="80.8" class="st15" width="5.8" height="5.8"/>
	<rect x="69.2" y="80.8" class="st8" width="5.8" height="5.8"/>
	<rect x="75" y="80.8" class="st8" width="5.8" height="5.8"/>
	<rect x="80.8" y="80.8" class="st15" width="5.8" height="5.8"/>
	<rect x="86.5" y="80.8" class="st8" width="5.8" height="5.8"/>
	<rect x="92.3" y="80.8" class="st8" width="5.8" height="5.8"/>
	<rect x="98.1" y="80.8" class="st5" width="5.8" height="5.8"/>
	<rect x="103.8" y="80.8" class="st3" width="5.8" height="5.8"/>
	<rect x="109.6" y="80.8" class="st5" width="5.8" height="5.8"/>
	<rect x="115.4" y="80.8" class="st3" width="5.8" height="5.8"/>
	<rect x="121.2" y="80.8" class="st14" width="5.8" height="5.8"/>
	<rect x="126.9" y="80.8" class="st2" width="5.8" height="5.8"/>
	<rect x="132.7" y="80.8" class="st2" width="5.8" height="5.8"/>
	<rect x="138.5" y="80.8" class="st11" width="5.8" height="5.8"/>
	<rect x="144.2" y="80.8" class="st0" width="5.8" height="5.8"/>
	<rect y="86.6" class="st0" width="5.8" height="5.8"/>
	<rect x="5.8" y="86.6" class="st11" width="5.8" height="5.8"/>
	<rect x="11.5" y="86.6" class="st2" width="5.8" height="5.8"/>
	<rect x="17.3" y="86.6" class="st2" width="5.8" height="5.8"/>
	<rect x="23.1" y="86.6" class="st14" width="5.8" height="5.8"/>
	<rect x="28.8" y="86.6" class="st3" width="5.8" height="5.8"/>
	<rect x="34.6" y="86.6" class="st3" width="5.8" height="5.8"/>
	<rect x="40.4" y="86.6" class="st3" width="5.8" height="5.8"/>
	<rect x="46.2" y="86.6" class="st3" width="5.8" height="5.8"/>
	<rect x="51.9" y="86.6" class="st8" width="5.8" height="5.8"/>
	<rect x="57.7" y="86.6" class="st8" width="5.8" height="5.8"/>
	<rect x="63.5" y="86.6" class="st8" width="5.8" height="5.8"/>
	<rect x="69.2" y="86.6" class="st15" width="5.8" height="5.8"/>
	<rect x="75" y="86.6" class="st15" width="5.8" height="5.8"/>
	<rect x="80.8" y="86.6" class="st8" width="5.8" height="5.8"/>
	<rect x="86.5" y="86.6" class="st8" width="5.8" height="5.8"/>
	<rect x="92.3" y="86.6" class="st8" width="5.8" height="5.8"/>
	<rect x="98.1" y="86.6" class="st3" width="5.8" height="5.8"/>
	<rect x="103.8" y="86.6" class="st3" width="5.8" height="5.8"/>
	<rect x="109.6" y="86.6" class="st3" width="5.8" height="5.8"/>
	<rect x="115.4" y="86.6" class="st3" width="5.8" height="5.8"/>
	<rect x="121.2" y="86.6" class="st14" width="5.8" height="5.8"/>
	<rect x="126.9" y="86.6" class="st2" width="5.8" height="5.8"/>
	<rect x="132.7" y="86.6" class="st2" width="5.8" height="5.8"/>
	<rect x="138.5" y="86.6" class="st11" width="5.8" height="5.8"/>
	<rect x="144.2" y="86.6" class="st0" width="5.8" height="5.8"/>
	<rect y="92.3" class="st0" width="5.8" height="5.8"/>
	<rect x="5.8" y="92.3" class="st16" width="5.8" height="5.8"/>
	<rect x="11.5" y="92.3" class="st2" width="5.8" height="5.8"/>
	<rect x="17.3" y="92.3" class="st2" width="5.8" height="5.8"/>
	<rect x="23.1" y="92.3" class="st14" width="5.8" height="5.8"/>
	<rect x="28.8" y="92.3" class="st3" width="5.8" height="5.8"/>
	<rect x="34.6" y="92.3" class="st3" width="5.8" height="5.8"/>
	<rect x="40.4" y="92.3" class="st3" width="5.8" height="5.8"/>
	<rect x="46.2" y="92.3" class="st3" width="5.8" height="5.8"/>
	<rect x="51.9" y="92.3" class="st3" width="5.8" height="5.8"/>
	<rect x="57.7" y="92.3" class="st8" width="5.8" height="5.8"/>
	<rect x="63.5" y="92.3" class="st8" width="5.8" height="5.8"/>
	<rect x="69.2" y="92.3" class="st8" width="5.8" height="5.8"/>
	<rect x="75" y="92.3" class="st8" width="5.8" height="5.8"/>
	<rect x="80.8" y="92.3" class="st8" width="5.8" height="5.8"/>
	<rect x="86.5" y="92.3" class="st8" width="5.8" height="5.8"/>
	<rect x="92.3" y="92.3" class="st3" width="5.8" height="5.8"/>
	<rect x="98.1" y="92.3" class="st3" width="5.8" height="5.8"/>
	<rect x="103.8" y="92.3" class="st3" width="5.8" height="5.8"/>
	<rect x="109.6" y="92.3" class="st3" width="5.8" height="5.8"/>
	<rect x="115.4" y="92.3" class="st3" width="5.8" height="5.8"/>
	<rect x="121.2" y="92.3" class="st14" width="5.8" height="5.8"/>
	<rect x="126.9" y="92.3" class="st2" width="5.8" height="5.8"/>
	<rect x="132.7" y="92.3" class="st2" width="5.8" height="5.8"/>
	<rect x="138.5" y="92.3" class="st16" width="5.8" height="5.8"/>
	<rect x="144.2" y="92.3" class="st0" width="5.8" height="5.8"/>
	<rect y="98.1" class="st0" width="5.8" height="5.8"/>
	<rect x="5.8" y="98.1" class="st16" width="5.8" height="5.8"/>
	<rect x="11.5" y="98.1" class="st2" width="5.8" height="5.8"/>
	<rect x="17.3" y="98.1" class="st2" width="5.8" height="5.8"/>
	<rect x="23.1" y="98.1" class="st14" width="5.8" height="5.8"/>
	<rect x="28.8" y="98.1" class="st3" width="5.8" height="5.8"/>
	<rect x="34.6" y="98.1" class="st3" width="5.8" height="5.8"/>
	<rect x="40.4" y="98.1" class="st3" width="5.8" height="5.8"/>
	<rect x="46.2" y="98.1" class="st3" width="5.8" height="5.8"/>
	<rect x="51.9" y="98.1" class="st3" width="5.8" height="5.8"/>
	<rect x="57.7" y="98.1" class="st14" width="5.8" height="5.8"/>
	<rect x="63.5" y="98.1" class="st1" width="5.8" height="5.8"/>
	<rect x="69.2" y="98.1" class="st17" width="5.8" height="5.8"/>
	<rect x="75" y="98.1" class="st17" width="5.8" height="5.8"/>
	<rect x="80.8" y="98.1" class="st1" width="5.8" height="5.8"/>
	<rect x="86.5" y="98.1" class="st14" width="5.8" height="5.8"/>
	<rect x="92.3" y="98.1" class="st3" width="5.8" height="5.8"/>
	<rect x="98.1" y="98.1" class="st3" width="5.8" height="5.8"/>
	<rect x="103.8" y="98.1" class="st3" width="5.8" height="5.8"/>
	<rect x="109.6" y="98.1" class="st3" width="5.8" height="5.8"/>
	<rect x="115.4" y="98.1" class="st3" width="5.8" height="5.8"/>
	<rect x="121.2" y="98.1" class="st14" width="5.8" height="5.8"/>
	<rect x="126.9" y="98.1" class="st2" width="5.8" height="5.8"/>
	<rect x="132.7" y="98.1" class="st2" width="5.8" height="5.8"/>
	<rect x="138.5" y="98.1" class="st16" width="5.8" height="5.8"/>
	<rect x="144.2" y="98.1" class="st0" width="5.8" height="5.8"/>
	<rect y="103.9" class="st0" width="5.8" height="5.8"/>
	<rect x="5.8" y="103.9" class="st16" width="5.8" height="5.8"/>
	<rect x="11.5" y="103.9" class="st2" width="5.8" height="5.8"/>
	<rect x="17.3" y="103.9" class="st2" width="5.8" height="5.8"/>
	<rect x="23.1" y="103.9" class="st14" width="5.8" height="5.8"/>
	<rect x="28.8" y="103.9" class="st14" width="5.8" height="5.8"/>
	<rect x="34.6" y="103.9" class="st14" width="5.8" height="5.8"/>
	<rect x="40.4" y="103.9" class="st14" width="5.8" height="5.8"/>
	<rect x="46.2" y="103.9" class="st14" width="5.8" height="5.8"/>
	<rect x="51.9" y="103.9" class="st14" width="5.8" height="5.8"/>
	<rect x="57.7" y="103.9" class="st18" width="5.8" height="5.8"/>
	<rect x="63.5" y="103.9" class="st19" width="5.8" height="5.8"/>
	<rect x="69.2" y="103.9" class="st10" width="5.8" height="5.8"/>
	<rect x="75" y="103.9" class="st10" width="5.8" height="5.8"/>
	<rect x="80.8" y="103.9" class="st19" width="5.8" height="5.8"/>
	<rect x="86.5" y="103.9" class="st18" width="5.8" height="5.8"/>
	<rect x="92.3" y="103.9" class="st14" width="5.8" height="5.8"/>
	<rect x="98.1" y="103.9" class="st14" width="5.8" height="5.8"/>
	<rect x="103.8" y="103.9" class="st14" width="5.8" height="5.8"/>
	<rect x="109.6" y="103.9" class="st14" width="5.8" height="5.8"/>
	<rect x="115.4" y="103.9" class="st14" width="5.8" height="5.8"/>
	<rect x="121.2" y="103.9" class="st14" width="5.8" height="5.8"/>
	<rect x="126.9" y="103.9" class="st2" width="5.8" height="5.8"/>
	<rect x="132.7" y="103.9" class="st2" width="5.8" height="5.8"/>
	<rect x="138.5" y="103.9" class="st16" width="5.8" height="5.8"/>
	<rect x="144.2" y="103.9" class="st0" width="5.8" height="5.8"/>
	<rect y="109.6" class="st0" width="5.8" height="5.8"/>
	<rect x="5.8" y="109.6" class="st16" width="5.8" height="5.8"/>
	<rect x="11.5" y="109.6" class="st2" width="5.8" height="5.8"/>
	<rect x="17.3" y="109.6" class="st2" width="5.8" height="5.8"/>
	<rect x="23.1" y="109.6" class="st2" width="5.8" height="5.8"/>
	<rect x="28.8" y="109.6" class="st2" width="5.8" height="5.8"/>
	<rect x="34.6" y="109.6" class="st2" width="5.8" height="5.8"/>
	<rect x="40.4" y="109.6" class="st2" width="5.8" height="5.8"/>
	<rect x="46.2" y="109.6" class="st2" width="5.8" height="5.8"/>
	<rect x="51.9" y="109.6" class="st3" width="5.8" height="5.8"/>
	<rect x="57.7" y="109.6" class="st20" width="5.8" height="5.8"/>
	<rect x="63.5" y="109.6" class="st3" width="5.8" height="5.8"/>
	<rect x="69.2" y="109.6" class="st19" width="5.8" height="5.8"/>
	<rect x="75" y="109.6" class="st19" width="5.8" height="5.8"/>
	<rect x="80.8" y="109.6" class="st3" width="5.8" height="5.8"/>
	<rect x="86.5" y="109.6" class="st20" width="5.8" height="5.8"/>
	<rect x="92.3" y="109.6" class="st3" width="5.8" height="5.8"/>
	<rect x="98.1" y="109.6" class="st2" width="5.8" height="5.8"/>
	<rect x="103.8" y="109.6" class="st2" width="5.8" height="5.8"/>
	<rect x="109.6" y="109.6" class="st2" width="5.8" height="5.8"/>
	<rect x="115.4" y="109.6" class="st2" width="5.8" height="5.8"/>
	<rect x="121.2" y="109.6" class="st2" width="5.8" height="5.8"/>
	<rect x="126.9" y="109.6" class="st2" width="5.8" height="5.8"/>
	<rect x="132.7" y="109.6" class="st2" width="5.8" height="5.8"/>
	<rect x="138.5" y="109.6" class="st16" width="5.8" height="5.8"/>
	<rect x="144.2" y="109.6" class="st0" width="5.8" height="5.8"/>
	<rect y="115.4" class="st0" width="5.8" height="5.8"/>
	<rect x="5.8" y="115.4" class="st3" width="5.8" height="5.8"/>
	<rect x="11.5" y="115.4" class="st2" width="5.8" height="5.8"/>
	<rect x="17.3" y="115.4" class="st2" width="5.8" height="5.8"/>
	<rect x="23.1" y="115.4" class="st2" width="5.8" height="5.8"/>
	<rect x="28.8" y="115.4" class="st2" width="5.8" height="5.8"/>
	<rect x="34.6" y="115.4" class="st2" width="5.8" height="5.8"/>
	<rect x="40.4" y="115.4" class="st2" width="5.8" height="5.8"/>
	<rect x="46.2" y="115.4" class="st3" width="5.8" height="5.8"/>
	<rect x="51.9" y="115.4" class="st4" width="5.8" height="5.8"/>
	<rect x="57.7" y="115.4" class="st20" width="5.8" height="5.8"/>
	<rect x="63.5" y="115.4" class="st20" width="5.8" height="5.8"/>
	<rect x="69.2" y="115.4" class="st3" width="5.8" height="5.8"/>
	<rect x="75" y="115.4" class="st3" width="5.8" height="5.8"/>
	<rect x="80.8" y="115.4" class="st20" width="5.8" height="5.8"/>
	<rect x="86.5" y="115.4" class="st20" width="5.8" height="5.8"/>
	<rect x="92.3" y="115.4" class="st4" width="5.8" height="5.8"/>
	<rect x="98.1" y="115.4" class="st3" width="5.8" height="5.8"/>
	<rect x="103.8" y="115.4" class="st2" width="5.8" height="5.8"/>
	<rect x="109.6" y="115.4" class="st2" width="5.8" height="5.8"/>
	<rect x="115.4" y="115.4" class="st2" width="5.8" height="5.8"/>
	<rect x="121.2" y="115.4" class="st2" width="5.8" height="5.8"/>
	<rect x="126.9" y="115.4" class="st2" width="5.8" height="5.8"/>
	<rect x="132.7" y="115.4" class="st2" width="5.8" height="5.8"/>
	<rect x="138.5" y="115.4" class="st3" width="5.8" height="5.8"/>
	<rect x="144.2" y="115.4" class="st0" width="5.8" height="5.8"/>
	<rect y="121.2" class="st0" width="5.8" height="5.8"/>
	<rect x="5.8" y="121.2" class="st3" width="5.8" height="5.8"/>
	<rect x="11.5" y="121.2" class="st2" width="5.8" height="5.8"/>
	<rect x="17.3" y="121.2" class="st2" width="5.8" height="5.8"/>
	<rect x="23.1" y="121.2" class="st2" width="5.8" height="5.8"/>
	<rect x="28.8" y="121.2" class="st2" width="5.8" height="5.8"/>
	<rect x="34.6" y="121.2" class="st2" width="5.8" height="5.8"/>
	<rect x="40.4" y="121.2" class="st3" width="5.8" height="5.8"/>
	<rect x="46.2" y="121.2" class="st4" width="5.8" height="5.8"/>
	<rect x="51.9" y="121.2" class="st14" width="5.8" height="5.8"/>
	<rect x="57.7" y="121.2" class="st20" width="5.8" height="5.8"/>
	<rect x="63.5" y="121.2" class="st3" width="5.8" height="5.8"/>
	<rect x="69.2" y="121.2" class="st21" width="5.8" height="5.8"/>
	<rect x="75" y="121.2" class="st21" width="5.8" height="5.8"/>
	<rect x="80.8" y="121.2" class="st3" width="5.8" height="5.8"/>
	<rect x="86.5" y="121.2" class="st20" width="5.8" height="5.8"/>
	<rect x="92.3" y="121.2" class="st14" width="5.8" height="5.8"/>
	<rect x="98.1" y="121.2" class="st4" width="5.8" height="5.8"/>
	<rect x="103.8" y="121.2" class="st3" width="5.8" height="5.8"/>
	<rect x="109.6" y="121.2" class="st2" width="5.8" height="5.8"/>
	<rect x="115.4" y="121.2" class="st2" width="5.8" height="5.8"/>
	<rect x="121.2" y="121.2" class="st2" width="5.8" height="5.8"/>
	<rect x="126.9" y="121.2" class="st2" width="5.8" height="5.8"/>
	<rect x="132.7" y="121.2" class="st2" width="5.8" height="5.8"/>
	<rect x="138.5" y="121.2" class="st3" width="5.8" height="5.8"/>
	<rect x="144.2" y="121.2" class="st0" width="5.8" height="5.8"/>
	<rect y="126.9" class="st0" width="5.8" height="5.8"/>
	<rect x="5.8" y="126.9" class="st3" width="5.8" height="5.8"/>
	<rect x="11.5" y="126.9" class="st2" width="5.8" height="5.8"/>
	<rect x="17.3" y="126.9" class="st2" width="5.8" height="5.8"/>
	<rect x="23.1" y="126.9" class="st2" width="5.8" height="5.8"/>
	<rect x="28.8" y="126.9" class="st2" width="5.8" height="5.8"/>
	<rect x="34.6" y="126.9" class="st3" width="5.8" height="5.8"/>
	<rect x="40.4" y="126.9" class="st4" width="5.8" height="5.8"/>
	<rect x="46.2" y="126.9" class="st14" width="5.8" height="5.8"/>
	<rect x="51.9" y="126.9" class="st14" width="5.8" height="5.8"/>
	<rect x="57.7" y="126.9" class="st20" width="5.8" height="5.8"/>
	<rect x="63.5" y="126.9" class="st22" width="5.8" height="5.8"/>
	<rect x="69.2" y="126.9" class="st21" width="5.8" height="5.8"/>
	<rect x="75" y="126.9" class="st21" width="5.8" height="5.8"/>
	<rect x="80.8" y="126.9" class="st22" width="5.8" height="5.8"/>
	<rect x="86.5" y="126.9" class="st20" width="5.8" height="5.8"/>
	<rect x="92.3" y="126.9" class="st14" width="5.8" height="5.8"/>
	<rect x="98.1" y="126.9" class="st14" width="5.8" height="5.8"/>
	<rect x="103.8" y="126.9" class="st4" width="5.8" height="5.8"/>
	<rect x="109.6" y="126.9" class="st3" width="5.8" height="5.8"/>
	<rect x="115.4" y="126.9" class="st2" width="5.8" height="5.8"/>
	<rect x="121.2" y="126.9" class="st2" width="5.8" height="5.8"/>
	<rect x="126.9" y="126.9" class="st2" width="5.8" height="5.8"/>
	<rect x="132.7" y="126.9" class="st2" width="5.8" height="5.8"/>
	<rect x="138.5" y="126.9" class="st3" width="5.8" height="5.8"/>
	<rect x="144.2" y="126.9" class="st0" width="5.8" height="5.8"/>
	<rect y="132.7" class="st0" width="5.8" height="5.8"/>
	<rect x="5.8" y="132.7" class="st3" width="5.8" height="5.8"/>
	<rect x="11.5" y="132.7" class="st2" width="5.8" height="5.8"/>
	<rect x="17.3" y="132.7" class="st16" width="5.8" height="5.8"/>
	<rect x="23.1" y="132.7" class="st2" width="5.8" height="5.8"/>
	<rect x="28.8" y="132.7" class="st3" width="5.8" height="5.8"/>
	<rect x="34.6" y="132.7" class="st4" width="5.8" height="5.8"/>
	<rect x="40.4" y="132.7" class="st3" width="5.8" height="5.8"/>
	<rect x="46.2" y="132.7" class="st14" width="5.8" height="5.8"/>
	<rect x="51.9" y="132.7" class="st14" width="5.8" height="5.8"/>
	<rect x="57.7" y="132.7" class="st14" width="5.8" height="5.8"/>
	<rect x="63.5" y="132.7" class="st22" width="5.8" height="5.8"/>
	<rect x="69.2" y="132.7" class="st21" width="5.8" height="5.8"/>
	<rect x="75" y="132.7" class="st21" width="5.8" height="5.8"/>
	<rect x="80.8" y="132.7" class="st22" width="5.8" height="5.8"/>
	<rect x="86.5" y="132.7" class="st14" width="5.8" height="5.8"/>
	<rect x="92.3" y="132.7" class="st14" width="5.8" height="5.8"/>
	<rect x="98.1" y="132.7" class="st14" width="5.8" height="5.8"/>
	<rect x="103.8" y="132.7" class="st3" width="5.8" height="5.8"/>
	<rect x="109.6" y="132.7" class="st4" width="5.8" height="5.8"/>
	<rect x="115.4" y="132.7" class="st3" width="5.8" height="5.8"/>
	<rect x="121.2" y="132.7" class="st2" width="5.8" height="5.8"/>
	<rect x="126.9" y="132.7" class="st16" width="5.8" height="5.8"/>
	<rect x="132.7" y="132.7" class="st2" width="5.8" height="5.8"/>
	<rect x="138.5" y="132.7" class="st3" width="5.8" height="5.8"/>
	<rect x="144.2" y="132.7" class="st0" width="5.8" height="5.8"/>
	<rect x="5.8" y="138.5" class="st0" width="5.8" height="5.8"/>
	<rect x="11.5" y="138.5" class="st3" width="5.8" height="5.8"/>
	<rect x="17.3" y="138.5" class="st2" width="5.8" height="5.8"/>
	<rect x="23.1" y="138.5" class="st2" width="5.8" height="5.8"/>
	<rect x="28.8" y="138.5" class="st3" width="5.8" height="5.8"/>
	<rect x="34.6" y="138.5" class="st14" width="5.8" height="5.8"/>
	<rect x="40.4" y="138.5" class="st14" width="5.8" height="5.8"/>
	<rect x="46.2" y="138.5" class="st3" width="5.8" height="5.8"/>
	<rect x="51.9" y="138.5" class="st14" width="5.8" height="5.8"/>
	<rect x="57.7" y="138.5" class="st14" width="5.8" height="5.8"/>
	<rect x="63.5" y="138.5" class="st22" width="5.8" height="5.8"/>
	<rect x="69.2" y="138.5" class="st21" width="5.8" height="5.8"/>
	<rect x="75" y="138.5" class="st21" width="5.8" height="5.8"/>
	<rect x="80.8" y="138.5" class="st22" width="5.8" height="5.8"/>
	<rect x="86.5" y="138.5" class="st14" width="5.8" height="5.8"/>
	<rect x="92.3" y="138.5" class="st14" width="5.8" height="5.8"/>
	<rect x="98.1" y="138.5" class="st3" width="5.8" height="5.8"/>
	<rect x="103.8" y="138.5" class="st14" width="5.8" height="5.8"/>
	<rect x="109.6" y="138.5" class="st14" width="5.8" height="5.8"/>
	<rect x="115.4" y="138.5" class="st3" width="5.8" height="5.8"/>
	<rect x="121.2" y="138.5" class="st2" width="5.8" height="5.8"/>
	<rect x="126.9" y="138.5" class="st2" width="5.8" height="5.8"/>
	<rect x="132.7" y="138.5" class="st3" width="5.8" height="5.8"/>
	<rect x="138.5" y="138.5" class="st0" width="5.8" height="5.8"/>
	<rect x="11.5" y="144.2" class="st0" width="5.8" height="5.8"/>
	<rect x="17.3" y="144.2" class="st3" width="5.8" height="5.8"/>
	<rect x="23.1" y="144.2" class="st3" width="5.8" height="5.8"/>
	<rect x="28.8" y="144.2" class="st3" width="5.8" height="5.8"/>
	<rect x="34.6" y="144.2" class="st3" width="5.8" height="5.8"/>
	<rect x="40.4" y="144.2" class="st3" width="5.8" height="5.8"/>
	<rect x="46.2" y="144.2" class="st3" width="5.8" height="5.8"/>
	<rect x="51.9" y="144.2" class="st3" width="5.8" height="5.8"/>
	<rect x="57.7" y="144.2" class="st3" width="5.8" height="5.8"/>
	<rect x="63.5" y="144.2" class="st3" width="5.8" height="5.8"/>
	<rect x="69.2" y="144.2" class="st3" width="5.8" height="5.8"/>
	<rect x="75" y="144.2" class="st3" width="5.8" height="5.8"/>
	<rect x="80.8" y="144.2" class="st3" width="5.8" height="5.8"/>
	<rect x="86.5" y="144.2" class="st3" width="5.8" height="5.8"/>
	<rect x="92.3" y="144.2" class="st3" width="5.8" height="5.8"/>
	<rect x="98.1" y="144.2" class="st3" width="5.8" height="5.8"/>
	<rect x="103.8" y="144.2" class="st3" width="5.8" height="5.8"/>
	<rect x="109.6" y="144.2" class="st3" width="5.8" height="5.8"/>
	<rect x="115.4" y="144.2" class="st3" width="5.8" height="5.8"/>
	<rect x="121.2" y="144.2" class="st3" width="5.8" height="5.8"/>
	<rect x="126.9" y="144.2" class="st3" width="5.8" height="5.8"/>
	<rect x="132.7" y="144.2" class="st0" width="5.8" height="5.8"/>
	<rect x="17.3" y="150" class="st0" width="5.8" height="5.8"/>
	<rect x="23.1" y="150" class="st0" width="5.8" height="5.8"/>
	<rect x="28.8" y="150" class="st0" width="5.8" height="5.8"/>
	<rect x="34.6" y="150" class="st0" width="5.8" height="5.8"/>
	<rect x="40.4" y="150" class="st0" width="5.8" height="5.8"/>
	<rect x="46.2" y="150" class="st0" width="5.8" height="5.8"/>
	<rect x="51.9" y="150" class="st0" width="5.8" height="5.8"/>
	<rect x="57.7" y="150" class="st0" width="5.8" height="5.8"/>
	<rect x="63.5" y="150" class="st0" width="5.8" height="5.8"/>
	<rect x="69.2" y="150" class="st0" width="5.8" height="5.8"/>
	<rect x="75" y="150" class="st0" width="5.8" height="5.8"/>
	<rect x="80.8" y="150" class="st0" width="5.8" height="5.8"/>
	<rect x="86.5" y="150" class="st0" width="5.8" height="5.8"/>
	<rect x="92.3" y="150" class="st0" width="5.8" height="5.8"/>
	<rect x="98.1" y="150" class="st0" width="5.8" height="5.8"/>
	<rect x="103.8" y="150" class="st0" width="5.8" height="5.8"/>
	<rect x="109.6" y="150" class="st0" width="5.8" height="5.8"/>
	<rect x="115.4" y="150" class="st0" width="5.8" height="5.8"/>
	<rect x="121.2" y="150" class="st0" width="5.8" height="5.8"/>
	<rect x="126.9" y="150" class="st0" width="5.8" height="5.8"/>
</g>
</svg>
