<svg width="476" height="112" viewBox="0 0 476 112" fill="none" xmlns="http://www.w3.org/2000/svg">
<path d="M1 2H475V110H1V2Z" fill="#EECC11" stroke="#EECC11" stroke-width="2"/>
<path d="M43.232 37V29.536H35.984V37H34.064V20.488H35.984V27.784H43.232V20.488H45.152V37H43.232ZM48.9629 21.256V19.168H50.9069V21.256H48.9629ZM49.0109 37V24.76H50.8349V37H49.0109ZM54.4484 24.76H56.0804L56.1764 27.088H56.3204C56.5604 26.128 56.9764 25.472 57.5684 25.12C58.1764 24.752 58.9684 24.568 59.9444 24.568V26.416C58.9844 26.416 58.2324 26.592 57.6884 26.944C57.1604 27.28 56.7924 27.8 56.5844 28.504C56.3764 29.192 56.2724 30.112 56.2724 31.264V37H54.4484V24.76ZM64.9696 37.192C63.6896 37.192 62.7696 36.936 62.2096 36.424C61.6496 35.896 61.3696 34.96 61.3696 33.616C61.3696 32.688 61.4656 31.968 61.6576 31.456C61.8656 30.928 62.2096 30.552 62.6896 30.328C63.1856 30.088 63.8736 29.968 64.7536 29.968C65.2016 29.968 66.5056 30.008 68.6656 30.088V29.272C68.6656 28.28 68.5856 27.576 68.4256 27.16C68.2656 26.728 67.9696 26.456 67.5376 26.344C67.1216 26.216 66.4096 26.152 65.4016 26.152C64.9536 26.152 64.3856 26.176 63.6976 26.224C63.0256 26.272 62.4816 26.328 62.0656 26.392V24.904C63.1856 24.68 64.4896 24.568 65.9776 24.568C67.2576 24.568 68.2096 24.712 68.8336 25C69.4736 25.272 69.9056 25.736 70.1296 26.392C70.3696 27.048 70.4896 28.008 70.4896 29.272V37H68.8576L68.7616 35.296H68.6416C68.3536 36.064 67.8816 36.576 67.2256 36.832C66.5856 37.072 65.8336 37.192 64.9696 37.192ZM65.6176 35.608C66.2896 35.608 66.8336 35.544 67.2496 35.416C67.6816 35.272 68.0016 34.992 68.2096 34.576C68.5136 33.952 68.6656 33.112 68.6656 32.056V31.36H65.2336C64.6416 31.36 64.2016 31.416 63.9136 31.528C63.6416 31.624 63.4496 31.824 63.3376 32.128C63.2256 32.416 63.1696 32.872 63.1696 33.496C63.1696 34.104 63.2336 34.552 63.3616 34.84C63.4896 35.128 63.7216 35.328 64.0576 35.44C64.3936 35.552 64.9136 35.608 65.6176 35.608ZM78.0016 41.872C76.5616 41.872 75.2976 41.8 74.2096 41.656V40.168C75.4576 40.248 76.6016 40.288 77.6416 40.288C78.7296 40.288 79.5136 40.168 79.9936 39.928C80.4736 39.704 80.7856 39.296 80.9296 38.704C81.0896 38.112 81.1696 37.16 81.1696 35.848V35.416H81.0496C80.7936 36.024 80.3856 36.464 79.8256 36.736C79.2656 36.992 78.5376 37.12 77.6416 37.12C76.5376 37.12 75.6976 36.944 75.1216 36.592C74.5616 36.224 74.1696 35.608 73.9456 34.744C73.7216 33.864 73.6096 32.576 73.6096 30.88C73.6096 29.168 73.7216 27.872 73.9456 26.992C74.1856 26.096 74.5856 25.472 75.1456 25.12C75.7216 24.752 76.5536 24.568 77.6416 24.568C78.4896 24.568 79.2176 24.704 79.8256 24.976C80.4336 25.248 80.8736 25.752 81.1456 26.488H81.2656L81.3616 24.76H82.9936V35.344C82.9936 37.088 82.8816 38.4 82.6576 39.28C82.4336 40.176 81.9696 40.832 81.2656 41.248C80.5616 41.664 79.4736 41.872 78.0016 41.872ZM78.3376 35.488C79.0416 35.488 79.5936 35.376 79.9936 35.152C80.4096 34.928 80.6976 34.568 80.8576 34.072C80.9856 33.704 81.0656 33.288 81.0976 32.824C81.1456 32.344 81.1696 31.688 81.1696 30.856C81.1696 30.088 81.1536 29.472 81.1216 29.008C81.0896 28.544 81.0176 28.144 80.9056 27.808C80.7296 27.248 80.4336 26.848 80.0176 26.608C79.6176 26.352 79.0576 26.224 78.3376 26.224C77.4416 26.224 76.8016 26.328 76.4176 26.536C76.0336 26.728 75.7776 27.136 75.6496 27.76C75.5216 28.368 75.4576 29.4 75.4576 30.856C75.4576 32.296 75.5216 33.328 75.6496 33.952C75.7776 34.576 76.0336 34.992 76.4176 35.2C76.8016 35.392 77.4416 35.488 78.3376 35.488ZM89.5087 37.192C88.2287 37.192 87.3087 36.936 86.7487 36.424C86.1887 35.896 85.9087 34.96 85.9087 33.616C85.9087 32.688 86.0047 31.968 86.1967 31.456C86.4047 30.928 86.7487 30.552 87.2287 30.328C87.7247 30.088 88.4127 29.968 89.2927 29.968C89.7407 29.968 91.0447 30.008 93.2047 30.088V29.272C93.2047 28.28 93.1247 27.576 92.9647 27.16C92.8047 26.728 92.5087 26.456 92.0767 26.344C91.6607 26.216 90.9487 26.152 89.9407 26.152C89.4927 26.152 88.9247 26.176 88.2367 26.224C87.5647 26.272 87.0207 26.328 86.6047 26.392V24.904C87.7247 24.68 89.0287 24.568 90.5167 24.568C91.7967 24.568 92.7487 24.712 93.3727 25C94.0127 25.272 94.4447 25.736 94.6687 26.392C94.9087 27.048 95.0287 28.008 95.0287 29.272V37H93.3967L93.3007 35.296H93.1807C92.8927 36.064 92.4207 36.576 91.7647 36.832C91.1247 37.072 90.3727 37.192 89.5087 37.192ZM90.1567 35.608C90.8287 35.608 91.3727 35.544 91.7887 35.416C92.2207 35.272 92.5407 34.992 92.7487 34.576C93.0527 33.952 93.2047 33.112 93.2047 32.056V31.36H89.7727C89.1807 31.36 88.7407 31.416 88.4527 31.528C88.1807 31.624 87.9887 31.824 87.8767 32.128C87.7647 32.416 87.7087 32.872 87.7087 33.496C87.7087 34.104 87.7727 34.552 87.9007 34.84C88.0287 35.128 88.2607 35.328 88.5967 35.44C88.9327 35.552 89.4527 35.608 90.1567 35.608ZM105.877 29.944C105.877 28.776 105.813 27.952 105.685 27.472C105.573 26.976 105.341 26.648 104.989 26.488C104.653 26.328 104.085 26.248 103.285 26.248C102.405 26.248 101.757 26.416 101.341 26.752C100.941 27.072 100.685 27.528 100.573 28.12C100.477 28.712 100.429 29.552 100.429 30.64V37H98.6047V24.76H100.237L100.333 26.488H100.453C100.693 25.864 101.085 25.392 101.629 25.072C102.189 24.736 102.989 24.568 104.029 24.568C105.069 24.568 105.845 24.728 106.357 25.048C106.885 25.368 107.237 25.856 107.413 26.512C107.605 27.168 107.701 28.088 107.701 29.272V37H105.877V29.944ZM114.212 37.192C112.932 37.192 112.012 36.936 111.452 36.424C110.892 35.896 110.612 34.96 110.612 33.616C110.612 32.688 110.708 31.968 110.9 31.456C111.108 30.928 111.452 30.552 111.932 30.328C112.428 30.088 113.116 29.968 113.996 29.968C114.444 29.968 115.748 30.008 117.908 30.088V29.272C117.908 28.28 117.828 27.576 117.668 27.16C117.508 26.728 117.212 26.456 116.78 26.344C116.364 26.216 115.652 26.152 114.644 26.152C114.196 26.152 113.628 26.176 112.94 26.224C112.268 26.272 111.724 26.328 111.308 26.392V24.904C112.428 24.68 113.732 24.568 115.22 24.568C116.5 24.568 117.452 24.712 118.076 25C118.716 25.272 119.148 25.736 119.372 26.392C119.612 27.048 119.732 28.008 119.732 29.272V37H118.1L118.004 35.296H117.884C117.596 36.064 117.124 36.576 116.468 36.832C115.828 37.072 115.076 37.192 114.212 37.192ZM114.86 35.608C115.532 35.608 116.076 35.544 116.492 35.416C116.924 35.272 117.244 34.992 117.452 34.576C117.756 33.952 117.908 33.112 117.908 32.056V31.36H114.476C113.884 31.36 113.444 31.416 113.156 31.528C112.884 31.624 112.692 31.824 112.58 32.128C112.468 32.416 112.412 32.872 112.412 33.496C112.412 34.104 112.476 34.552 112.604 34.84C112.732 35.128 112.964 35.328 113.3 35.44C113.636 35.552 114.156 35.608 114.86 35.608Z" fill="#913038"/>
<path d="M43.208 90L38.48 82.464H35.984V90H34.064V73.488H35.984V80.76H38.48L43.232 73.488H45.32L40.064 81.504L45.368 90H43.208ZM50.2509 90.192C48.9709 90.192 48.0509 89.936 47.4909 89.424C46.9309 88.896 46.6509 87.96 46.6509 86.616C46.6509 85.688 46.7469 84.968 46.9389 84.456C47.1469 83.928 47.4909 83.552 47.9709 83.328C48.4669 83.088 49.1549 82.968 50.0349 82.968C50.4829 82.968 51.7869 83.008 53.9469 83.088V82.272C53.9469 81.28 53.8669 80.576 53.7069 80.16C53.5469 79.728 53.2509 79.456 52.8189 79.344C52.4029 79.216 51.6909 79.152 50.6829 79.152C50.2349 79.152 49.6669 79.176 48.9789 79.224C48.3069 79.272 47.7629 79.328 47.3469 79.392V77.904C48.4669 77.68 49.7709 77.568 51.2589 77.568C52.5389 77.568 53.4909 77.712 54.1149 78C54.7549 78.272 55.1869 78.736 55.4109 79.392C55.6509 80.048 55.7709 81.008 55.7709 82.272V90H54.1389L54.0429 88.296H53.9229C53.6349 89.064 53.1629 89.576 52.5069 89.832C51.8669 90.072 51.1149 90.192 50.2509 90.192ZM50.8989 88.608C51.5709 88.608 52.1149 88.544 52.5309 88.416C52.9629 88.272 53.2829 87.992 53.4909 87.576C53.7949 86.952 53.9469 86.112 53.9469 85.056V84.36H50.5149C49.9229 84.36 49.4829 84.416 49.1949 84.528C48.9229 84.624 48.7309 84.824 48.6189 85.128C48.5069 85.416 48.4509 85.872 48.4509 86.496C48.4509 87.104 48.5149 87.552 48.6429 87.84C48.7709 88.128 49.0029 88.328 49.3389 88.44C49.6749 88.552 50.1949 88.608 50.8989 88.608ZM60.1177 90V79.344H57.9817V77.76H60.1177V74.208H61.9417V77.76H64.4617V79.344H61.9417V90H60.1177ZM69.5165 90.192C68.2365 90.192 67.3165 89.936 66.7565 89.424C66.1965 88.896 65.9165 87.96 65.9165 86.616C65.9165 85.688 66.0125 84.968 66.2045 84.456C66.4125 83.928 66.7565 83.552 67.2365 83.328C67.7325 83.088 68.4205 82.968 69.3005 82.968C69.7485 82.968 71.0525 83.008 73.2125 83.088V82.272C73.2125 81.28 73.1325 80.576 72.9725 80.16C72.8125 79.728 72.5165 79.456 72.0845 79.344C71.6685 79.216 70.9565 79.152 69.9485 79.152C69.5005 79.152 68.9325 79.176 68.2445 79.224C67.5725 79.272 67.0285 79.328 66.6125 79.392V77.904C67.7325 77.68 69.0365 77.568 70.5245 77.568C71.8045 77.568 72.7565 77.712 73.3805 78C74.0205 78.272 74.4525 78.736 74.6765 79.392C74.9165 80.048 75.0365 81.008 75.0365 82.272V90H73.4045L73.3085 88.296H73.1885C72.9005 89.064 72.4285 89.576 71.7725 89.832C71.1325 90.072 70.3805 90.192 69.5165 90.192ZM70.1645 88.608C70.8365 88.608 71.3805 88.544 71.7965 88.416C72.2285 88.272 72.5485 87.992 72.7565 87.576C73.0605 86.952 73.2125 86.112 73.2125 85.056V84.36H69.7805C69.1885 84.36 68.7485 84.416 68.4605 84.528C68.1885 84.624 67.9965 84.824 67.8845 85.128C67.7725 85.416 67.7165 85.872 67.7165 86.496C67.7165 87.104 67.7805 87.552 67.9085 87.84C68.0365 88.128 68.2685 88.328 68.6045 88.44C68.9405 88.552 69.4605 88.608 70.1645 88.608ZM85.5245 90L81.8525 84.624H80.4365V90H78.6125V72.168H80.4365V83.016H81.8525L85.5245 77.76H87.5165L83.3405 83.688L87.5885 90H85.5245ZM92.9071 90.192C91.6271 90.192 90.7071 89.936 90.1471 89.424C89.5871 88.896 89.3071 87.96 89.3071 86.616C89.3071 85.688 89.4031 84.968 89.5951 84.456C89.8031 83.928 90.1471 83.552 90.6271 83.328C91.1231 83.088 91.8111 82.968 92.6911 82.968C93.1391 82.968 94.4431 83.008 96.6031 83.088V82.272C96.6031 81.28 96.5231 80.576 96.3631 80.16C96.2031 79.728 95.9071 79.456 95.4751 79.344C95.0591 79.216 94.3471 79.152 93.3391 79.152C92.8911 79.152 92.3231 79.176 91.6351 79.224C90.9631 79.272 90.4191 79.328 90.0031 79.392V77.904C91.1231 77.68 92.4271 77.568 93.9151 77.568C95.1951 77.568 96.1471 77.712 96.7711 78C97.4111 78.272 97.8431 78.736 98.0671 79.392C98.3071 80.048 98.4271 81.008 98.4271 82.272V90H96.7951L96.6991 88.296H96.5791C96.2911 89.064 95.8191 89.576 95.1631 89.832C94.5231 90.072 93.7711 90.192 92.9071 90.192ZM93.5551 88.608C94.2271 88.608 94.7711 88.544 95.1871 88.416C95.6191 88.272 95.9391 87.992 96.1471 87.576C96.4511 86.952 96.6031 86.112 96.6031 85.056V84.36H93.1711C92.5791 84.36 92.1391 84.416 91.8511 84.528C91.5791 84.624 91.3871 84.824 91.2751 85.128C91.1631 85.416 91.1071 85.872 91.1071 86.496C91.1071 87.104 91.1711 87.552 91.2991 87.84C91.4271 88.128 91.6591 88.328 91.9951 88.44C92.3311 88.552 92.8511 88.608 93.5551 88.608ZM109.275 82.944C109.275 81.776 109.211 80.952 109.083 80.472C108.971 79.976 108.739 79.648 108.387 79.488C108.051 79.328 107.483 79.248 106.683 79.248C105.803 79.248 105.155 79.416 104.739 79.752C104.339 80.072 104.083 80.528 103.971 81.12C103.875 81.712 103.827 82.552 103.827 83.64V90H102.003V77.76H103.635L103.731 79.488H103.851C104.091 78.864 104.483 78.392 105.027 78.072C105.587 77.736 106.387 77.568 107.427 77.568C108.467 77.568 109.243 77.728 109.755 78.048C110.283 78.368 110.635 78.856 110.811 79.512C111.003 80.168 111.099 81.088 111.099 82.272V90H109.275V82.944ZM117.61 90.192C116.33 90.192 115.41 89.936 114.85 89.424C114.29 88.896 114.01 87.96 114.01 86.616C114.01 85.688 114.106 84.968 114.298 84.456C114.506 83.928 114.85 83.552 115.33 83.328C115.826 83.088 116.514 82.968 117.394 82.968C117.842 82.968 119.146 83.008 121.306 83.088V82.272C121.306 81.28 121.226 80.576 121.066 80.16C120.906 79.728 120.61 79.456 120.178 79.344C119.762 79.216 119.05 79.152 118.042 79.152C117.594 79.152 117.026 79.176 116.338 79.224C115.666 79.272 115.122 79.328 114.706 79.392V77.904C115.826 77.68 117.13 77.568 118.618 77.568C119.898 77.568 120.85 77.712 121.474 78C122.114 78.272 122.546 78.736 122.77 79.392C123.01 80.048 123.13 81.008 123.13 82.272V90H121.498L121.402 88.296H121.282C120.994 89.064 120.522 89.576 119.866 89.832C119.226 90.072 118.474 90.192 117.61 90.192ZM118.258 88.608C118.93 88.608 119.474 88.544 119.89 88.416C120.322 88.272 120.642 87.992 120.85 87.576C121.154 86.952 121.306 86.112 121.306 85.056V84.36H117.874C117.282 84.36 116.842 84.416 116.554 84.528C116.282 84.624 116.09 84.824 115.978 85.128C115.866 85.416 115.81 85.872 115.81 86.496C115.81 87.104 115.874 87.552 116.002 87.84C116.13 88.128 116.362 88.328 116.698 88.44C117.034 88.552 117.554 88.608 118.258 88.608Z" fill="#913038"/>
<path d="M474 111L62 111" stroke="#913038" stroke-opacity="0.5"/>
<path d="M476 83L152 83" stroke="#913038" stroke-opacity="0.5"/>
<path d="M476 55L-1.16825e-05 55" stroke="#913038" stroke-opacity="0.5"/>
<path d="M476 29L152 29" stroke="#913038" stroke-opacity="0.5"/>
<path d="M476 1L62 1" stroke="#913038" stroke-opacity="0.5"/>
<path d="M204 111L204 2" stroke="#913038" stroke-opacity="0.5"/>
<path d="M178 111L178 2" stroke="#913038" stroke-opacity="0.5"/>
<path d="M152 111L152 2" stroke="#913038" stroke-opacity="0.5"/>
<path d="M230 111L230 2" stroke="#913038" stroke-opacity="0.5"/>
<path d="M258 111L258 2" stroke="#913038" stroke-opacity="0.5"/>
<path d="M286 111L286 2" stroke="#913038" stroke-opacity="0.5"/>
<path d="M314 111L314 2" stroke="#913038" stroke-opacity="0.5"/>
<path d="M342 111L342 2" stroke="#913038" stroke-opacity="0.5"/>
<path d="M370 111L370 2" stroke="#913038" stroke-opacity="0.5"/>
<path d="M398 111L398 2" stroke="#913038" stroke-opacity="0.5"/>
<path d="M426 111L426 2" stroke="#913038" stroke-opacity="0.5"/>
<path d="M454 111L454 2" stroke="#913038" stroke-opacity="0.5"/>
<rect x="230.5" y="16.5" width="223" height="26" rx="13" fill="#F4EBD4" stroke="#913038"/>
<path d="M191.5 16.5H440.5C447.68 16.5 453.5 22.3203 453.5 29.5C453.5 36.6797 447.68 42.5 440.5 42.5H191.5C184.32 42.5 178.5 36.6797 178.5 29.5C178.5 22.3203 184.32 16.5 191.5 16.5Z" fill="#EBA4C4" stroke="#913038"/>
<rect x="178.5" y="69.5" width="275" height="26" rx="13" fill="#F4EBD4" stroke="#913038"/>
<path d="M191.5 69.5H196.5V95.5H191.5C184.32 95.5 178.5 89.6797 178.5 82.5C178.5 75.3203 184.32 69.5 191.5 69.5Z" fill="#EBA4C4" stroke="#913038"/>
</svg>
