<svg width="574" height="233" viewBox="0 0 574 233" fill="none" xmlns="http://www.w3.org/2000/svg">
<path d="M1 1H572V232H1V1Z" fill="#EECC11" stroke="#913038" stroke-width="2"/>
<path d="M1 42H572V232H1V42Z" stroke="#913038" stroke-width="2"/>
<path d="M15.62 17.8H16.58L16.66 19.32H16.74C16.9667 18.6533 17.34 18.2067 17.86 17.98C18.38 17.7533 19.0267 17.64 19.8 17.64C20.7733 17.64 21.5 17.7867 21.98 18.08C22.46 18.3733 22.7933 18.8867 22.98 19.62C23.1667 20.34 23.26 21.4333 23.26 22.9C23.26 24.3533 23.1667 25.4467 22.98 26.18C22.8067 26.9133 22.48 27.4267 22 27.72C21.52 28.0133 20.7933 28.16 19.82 28.16C19.02 28.16 18.3733 28.0467 17.88 27.82C17.3867 27.58 17.0333 27.1933 16.82 26.66H16.74V31.92H15.62V17.8ZM19.42 27.14C20.26 27.14 20.86 27.0467 21.22 26.86C21.58 26.66 21.82 26.28 21.94 25.72C22.0733 25.1467 22.14 24.2067 22.14 22.9C22.14 21.5933 22.0733 20.66 21.94 20.1C21.82 19.5267 21.58 19.1467 21.22 18.96C20.86 18.76 20.26 18.66 19.42 18.66C18.74 18.66 18.2 18.7733 17.8 19C17.4 19.2267 17.1267 19.5933 16.98 20.1C16.8733 20.4333 16.8067 20.8 16.78 21.2C16.7533 21.6 16.74 22.1667 16.74 22.9C16.74 23.5667 16.7467 24.1067 16.76 24.52C16.7867 24.92 16.84 25.2533 16.92 25.52C17.0933 26.1067 17.3733 26.5267 17.76 26.78C18.16 27.02 18.7133 27.14 19.42 27.14ZM28.6083 28.16C27.8616 28.16 27.2616 28.08 26.8083 27.92C26.3549 27.7467 26.0149 27.4467 25.7883 27.02C25.5749 26.5933 25.4683 25.9933 25.4683 25.22C25.4683 24.4467 25.5483 23.8533 25.7083 23.44C25.8816 23.0133 26.1683 22.7067 26.5683 22.52C26.9683 22.3333 27.5349 22.24 28.2683 22.24C28.6416 22.24 29.8149 22.2733 31.7883 22.34V21.54C31.7883 20.62 31.7149 19.9667 31.5683 19.58C31.4349 19.18 31.1749 18.92 30.7883 18.8C30.4149 18.68 29.7883 18.62 28.9083 18.62C28.5216 18.62 28.0416 18.6467 27.4683 18.7C26.8949 18.74 26.4349 18.7933 26.0883 18.86V17.9C26.9549 17.7267 28.0149 17.64 29.2683 17.64C30.2949 17.64 31.0616 17.7533 31.5683 17.98C32.0883 18.1933 32.4416 18.5667 32.6283 19.1C32.8149 19.6333 32.9083 20.4267 32.9083 21.48V28H31.9483L31.8683 26.48H31.7683C31.5416 27.16 31.1483 27.6133 30.5883 27.84C30.0283 28.0533 29.3683 28.16 28.6083 28.16ZM28.8683 27.18C29.5216 27.18 30.0549 27.1133 30.4683 26.98C30.8949 26.8467 31.2016 26.5733 31.3883 26.16C31.5349 25.8267 31.6349 25.4867 31.6883 25.14C31.7549 24.78 31.7883 24.3467 31.7883 23.84V23.14H28.5483C27.9883 23.14 27.5749 23.1933 27.3083 23.3C27.0416 23.3933 26.8549 23.58 26.7483 23.86C26.6416 24.14 26.5883 24.5733 26.5883 25.16C26.5883 25.72 26.6483 26.14 26.7683 26.42C26.8883 26.7 27.1083 26.9 27.4283 27.02C27.7483 27.1267 28.2283 27.18 28.8683 27.18ZM39.3078 32.06C38.0278 32.06 36.9611 32.0067 36.1078 31.9V30.94C37.0678 31.02 38.0678 31.06 39.1078 31.06C40.0545 31.06 40.7411 30.9467 41.1678 30.72C41.6078 30.4933 41.8945 30.1 42.0278 29.54C42.1745 28.98 42.2478 28.1067 42.2478 26.92V26.62H42.1478C41.9478 27.1667 41.6011 27.5533 41.1078 27.78C40.6278 28.0067 39.9811 28.12 39.1678 28.12C38.1945 28.12 37.4678 27.98 36.9878 27.7C36.5078 27.4067 36.1745 26.9 35.9878 26.18C35.8145 25.4467 35.7278 24.3533 35.7278 22.9C35.7278 21.4467 35.8211 20.3533 36.0078 19.62C36.1945 18.8867 36.5278 18.3733 37.0078 18.08C37.4878 17.7867 38.2078 17.64 39.1678 17.64C39.9411 17.64 40.5878 17.7533 41.1078 17.98C41.6411 18.2067 42.0145 18.6533 42.2278 19.32H42.3278L42.3878 17.8H43.3678V26.56C43.3678 28.0267 43.2745 29.1333 43.0878 29.88C42.9011 30.64 42.5211 31.1933 41.9478 31.54C41.3745 31.8867 40.4945 32.06 39.3078 32.06ZM39.5478 27.12C40.2411 27.12 40.7811 27.0133 41.1678 26.8C41.5678 26.5733 41.8411 26.2133 41.9878 25.72C42.0945 25.3733 42.1611 24.9867 42.1878 24.56C42.2278 24.12 42.2478 23.5667 42.2478 22.9C42.2478 22.22 42.2345 21.68 42.2078 21.28C42.1811 20.8667 42.1211 20.5067 42.0278 20.2C41.8678 19.64 41.5878 19.2467 41.1878 19.02C40.8011 18.78 40.2545 18.66 39.5478 18.66C38.7211 18.66 38.1278 18.7533 37.7678 18.94C37.4078 19.1267 37.1611 19.5067 37.0278 20.08C36.9078 20.6533 36.8478 21.5933 36.8478 22.9C36.8478 24.2067 36.9078 25.14 37.0278 25.7C37.1611 26.26 37.4078 26.64 37.7678 26.84C38.1278 27.0267 38.7211 27.12 39.5478 27.12ZM53.6961 23.28H47.3361C47.3361 24.44 47.3961 25.28 47.5161 25.8C47.6494 26.3067 47.9228 26.6667 48.3361 26.88C48.7494 27.08 49.4294 27.18 50.3761 27.18C50.8294 27.18 51.3294 27.16 51.8761 27.12C52.4361 27.0667 52.9294 27 53.3561 26.92V27.88C53.0094 27.96 52.5361 28.0267 51.9361 28.08C51.3361 28.1333 50.7494 28.16 50.1761 28.16C48.9894 28.16 48.1228 28.0133 47.5761 27.72C47.0294 27.4133 46.6628 26.9067 46.4761 26.2C46.3028 25.4933 46.2161 24.4 46.2161 22.92C46.2161 21.44 46.2894 20.3533 46.4361 19.66C46.5828 18.9667 46.9294 18.46 47.4761 18.14C48.0228 17.8067 48.9161 17.64 50.1561 17.64C51.2628 17.64 52.0628 17.8 52.5561 18.12C53.0494 18.4267 53.3628 18.9267 53.4961 19.62C53.6294 20.3 53.6961 21.3867 53.6961 22.88V23.28ZM50.1161 18.62C49.2494 18.62 48.6294 18.7133 48.2561 18.9C47.8828 19.0733 47.6361 19.4133 47.5161 19.92C47.3961 20.4133 47.3361 21.2333 47.3361 22.38H52.5961V22.08C52.5961 21.0267 52.5228 20.2667 52.3761 19.8C52.2428 19.32 52.0094 19.0067 51.6761 18.86C51.3428 18.7 50.8228 18.62 50.1161 18.62ZM56.118 22.82V21.74H60.358V22.82H56.118ZM65.9786 28.16C65.4853 28.16 64.9453 28.1333 64.3586 28.08C63.7719 28.04 63.2719 27.9867 62.8586 27.92V26.96C63.9919 27.1067 65.0586 27.18 66.0586 27.18C66.6719 27.18 67.1319 27.1133 67.4386 26.98C67.7586 26.8467 67.9653 26.6533 68.0586 26.4C68.1653 26.1333 68.2186 25.76 68.2186 25.28C68.2186 24.7333 68.1853 24.3467 68.1186 24.12C68.0519 23.88 67.9319 23.72 67.7586 23.64C67.5986 23.56 67.3319 23.5 66.9586 23.46L64.5186 23.18C63.7586 23.0867 63.2453 22.8533 62.9786 22.48C62.7119 22.1067 62.5786 21.4733 62.5786 20.58C62.5786 19.7533 62.7119 19.1267 62.9786 18.7C63.2586 18.2733 63.6453 17.9933 64.1386 17.86C64.6319 17.7133 65.2853 17.64 66.0986 17.64C66.5253 17.64 66.9986 17.6667 67.5186 17.72C68.0386 17.7733 68.4786 17.8333 68.8386 17.9V18.86C67.9586 18.7 66.9986 18.62 65.9586 18.62C65.4253 18.62 64.9986 18.66 64.6786 18.74C64.3719 18.82 64.1253 19 63.9386 19.28C63.7653 19.5467 63.6786 19.9467 63.6786 20.48C63.6786 20.96 63.7119 21.3133 63.7786 21.54C63.8586 21.7533 63.9786 21.9067 64.1386 22C64.3119 22.08 64.5786 22.14 64.9386 22.18L67.3386 22.46C67.8719 22.5133 68.2719 22.62 68.5386 22.78C68.8186 22.9267 69.0186 23.1933 69.1386 23.58C69.2719 23.9533 69.3386 24.5067 69.3386 25.24C69.3386 26.0133 69.2186 26.6133 68.9786 27.04C68.7519 27.4533 68.3986 27.7467 67.9186 27.92C67.4386 28.08 66.7919 28.16 65.9786 28.16ZM72.5895 28V18.78H70.7695V17.8H72.5895V14.84H73.7095V17.8H75.8495V18.78H73.7095V28H72.5895ZM80.2684 28.16C79.5218 28.16 78.9218 28.08 78.4684 27.92C78.0151 27.7467 77.6751 27.4467 77.4484 27.02C77.2351 26.5933 77.1284 25.9933 77.1284 25.22C77.1284 24.4467 77.2084 23.8533 77.3684 23.44C77.5418 23.0133 77.8284 22.7067 78.2284 22.52C78.6284 22.3333 79.1951 22.24 79.9284 22.24C80.3018 22.24 81.4751 22.2733 83.4484 22.34V21.54C83.4484 20.62 83.3751 19.9667 83.2284 19.58C83.0951 19.18 82.8351 18.92 82.4484 18.8C82.0751 18.68 81.4484 18.62 80.5684 18.62C80.1818 18.62 79.7018 18.6467 79.1284 18.7C78.5551 18.74 78.0951 18.7933 77.7484 18.86V17.9C78.6151 17.7267 79.6751 17.64 80.9284 17.64C81.9551 17.64 82.7218 17.7533 83.2284 17.98C83.7484 18.1933 84.1018 18.5667 84.2884 19.1C84.4751 19.6333 84.5684 20.4267 84.5684 21.48V28H83.6084L83.5284 26.48H83.4284C83.2018 27.16 82.8084 27.6133 82.2484 27.84C81.6884 28.0533 81.0284 28.16 80.2684 28.16ZM80.5284 27.18C81.1818 27.18 81.7151 27.1133 82.1284 26.98C82.5551 26.8467 82.8618 26.5733 83.0484 26.16C83.1951 25.8267 83.2951 25.4867 83.3484 25.14C83.4151 24.78 83.4484 24.3467 83.4484 23.84V23.14H80.2084C79.6484 23.14 79.2351 23.1933 78.9684 23.3C78.7018 23.3933 78.5151 23.58 78.4084 23.86C78.3018 24.14 78.2484 24.5733 78.2484 25.16C78.2484 25.72 78.3084 26.14 78.4284 26.42C78.5484 26.7 78.7684 26.9 79.0884 27.02C79.4084 27.1267 79.8884 27.18 80.5284 27.18ZM88.3903 28V18.78H86.5703V17.8H88.3903V14.84H89.5103V17.8H91.6503V18.78H89.5103V28H88.3903ZM100.085 26.48H99.9845C99.7979 27.0133 99.4712 27.4267 99.0045 27.72C98.5512 28.0133 97.8512 28.16 96.9045 28.16C95.9979 28.16 95.3179 28.0333 94.8645 27.78C94.4245 27.5133 94.1245 27.1067 93.9645 26.56C93.8179 26.0133 93.7445 25.2333 93.7445 24.22V17.8H94.8645V23.88C94.8645 24.88 94.9245 25.6 95.0445 26.04C95.1645 26.48 95.3845 26.7733 95.7045 26.92C96.0379 27.0667 96.5712 27.14 97.3045 27.14C98.1445 27.14 98.7579 26.98 99.1445 26.66C99.5312 26.3267 99.7712 25.8933 99.8645 25.36C99.9579 24.8267 100.005 24.0667 100.005 23.08V17.8H101.125V28H100.145L100.085 26.48ZM107.15 28.16C106.657 28.16 106.117 28.1333 105.53 28.08C104.944 28.04 104.444 27.9867 104.03 27.92V26.96C105.164 27.1067 106.23 27.18 107.23 27.18C107.844 27.18 108.304 27.1133 108.61 26.98C108.93 26.8467 109.137 26.6533 109.23 26.4C109.337 26.1333 109.39 25.76 109.39 25.28C109.39 24.7333 109.357 24.3467 109.29 24.12C109.224 23.88 109.104 23.72 108.93 23.64C108.77 23.56 108.504 23.5 108.13 23.46L105.69 23.18C104.93 23.0867 104.417 22.8533 104.15 22.48C103.884 22.1067 103.75 21.4733 103.75 20.58C103.75 19.7533 103.884 19.1267 104.15 18.7C104.43 18.2733 104.817 17.9933 105.31 17.86C105.804 17.7133 106.457 17.64 107.27 17.64C107.697 17.64 108.17 17.6667 108.69 17.72C109.21 17.7733 109.65 17.8333 110.01 17.9V18.86C109.13 18.7 108.17 18.62 107.13 18.62C106.597 18.62 106.17 18.66 105.85 18.74C105.544 18.82 105.297 19 105.11 19.28C104.937 19.5467 104.85 19.9467 104.85 20.48C104.85 20.96 104.884 21.3133 104.95 21.54C105.03 21.7533 105.15 21.9067 105.31 22C105.484 22.08 105.75 22.14 106.11 22.18L108.51 22.46C109.044 22.5133 109.444 22.62 109.71 22.78C109.99 22.9267 110.19 23.1933 110.31 23.58C110.444 23.9533 110.51 24.5067 110.51 25.24C110.51 26.0133 110.39 26.6133 110.15 27.04C109.924 27.4533 109.57 27.7467 109.09 27.92C108.61 28.08 107.964 28.16 107.15 28.16ZM112.739 28V26.4H114.099V28H112.739ZM119.969 28.16C119.009 28.16 118.289 28.0133 117.809 27.72C117.329 27.4267 116.995 26.92 116.809 26.2C116.622 25.4667 116.529 24.3667 116.529 22.9C116.529 21.4467 116.615 20.3533 116.789 19.62C116.975 18.8867 117.309 18.3733 117.789 18.08C118.269 17.7867 118.995 17.64 119.969 17.64C120.769 17.64 121.409 17.76 121.889 18C122.382 18.2267 122.735 18.6067 122.949 19.14H123.049V13.14H124.169V28H123.209L123.129 26.48H123.029C122.815 27.1467 122.442 27.5933 121.909 27.82C121.389 28.0467 120.742 28.16 119.969 28.16ZM120.369 27.14C121.049 27.14 121.582 27.0333 121.969 26.82C122.369 26.6067 122.635 26.2733 122.769 25.82C122.889 25.4333 122.962 25.02 122.989 24.58C123.029 24.1267 123.049 23.5 123.049 22.7C123.049 22.1267 123.035 21.64 123.009 21.24C122.982 20.84 122.922 20.4933 122.829 20.2C122.669 19.6533 122.389 19.26 121.989 19.02C121.589 18.78 121.022 18.66 120.289 18.66C119.475 18.66 118.889 18.76 118.529 18.96C118.182 19.1467 117.949 19.5267 117.829 20.1C117.709 20.66 117.649 21.5933 117.649 22.9C117.649 24.2067 117.709 25.1467 117.829 25.72C117.962 26.28 118.209 26.66 118.569 26.86C118.929 27.0467 119.529 27.14 120.369 27.14ZM130.897 28.16C129.67 28.16 128.79 28.0267 128.257 27.76C127.724 27.48 127.384 27 127.237 26.32C127.09 25.6267 127.017 24.4933 127.017 22.92C127.017 21.3333 127.09 20.2 127.237 19.52C127.384 18.8267 127.724 18.34 128.257 18.06C128.79 17.78 129.67 17.64 130.897 17.64C132.137 17.64 133.017 17.78 133.537 18.06C134.07 18.34 134.41 18.8267 134.557 19.52C134.717 20.2 134.797 21.3333 134.797 22.92C134.797 24.4933 134.717 25.6267 134.557 26.32C134.41 27 134.07 27.48 133.537 27.76C133.017 28.0267 132.137 28.16 130.897 28.16ZM130.897 27.18C131.83 27.18 132.484 27.08 132.857 26.88C133.23 26.68 133.457 26.32 133.537 25.8C133.63 25.2667 133.677 24.3067 133.677 22.92C133.677 21.5333 133.63 20.5733 133.537 20.04C133.457 19.5067 133.23 19.14 132.857 18.94C132.484 18.7267 131.83 18.62 130.897 18.62C129.964 18.62 129.31 18.7267 128.937 18.94C128.577 19.14 128.35 19.5067 128.257 20.04C128.177 20.56 128.137 21.52 128.137 22.92C128.137 24.3067 128.177 25.2667 128.257 25.8C128.35 26.32 128.577 26.68 128.937 26.88C129.31 27.08 129.964 27.18 130.897 27.18ZM143.252 27.9C142.972 27.98 142.605 28.04 142.152 28.08C141.712 28.1333 141.285 28.16 140.872 28.16C139.778 28.16 138.972 27.9867 138.452 27.64C137.945 27.2933 137.612 26.7733 137.452 26.08C137.305 25.3733 137.232 24.32 137.232 22.92C137.232 21.4933 137.325 20.4133 137.512 19.68C137.698 18.9467 138.045 18.4267 138.552 18.12C139.058 17.8 139.812 17.64 140.812 17.64C141.212 17.64 141.632 17.6667 142.072 17.72C142.525 17.76 142.892 17.8133 143.172 17.88V18.84C142.438 18.6933 141.732 18.62 141.052 18.62C140.252 18.62 139.665 18.7333 139.292 18.96C138.918 19.1867 138.665 19.5867 138.532 20.16C138.412 20.7333 138.352 21.64 138.352 22.88C138.352 24.16 138.412 25.0933 138.532 25.68C138.665 26.2533 138.918 26.6467 139.292 26.86C139.665 27.0733 140.265 27.18 141.092 27.18C141.438 27.18 141.812 27.16 142.212 27.12C142.625 27.0667 142.972 27.0067 143.252 26.94V27.9Z" fill="#913038"/>
<rect x="535.5" y="9.5" width="25" height="25" fill="#EECC11" stroke="#913038"/>
<rect x="503.5" y="9.5" width="25" height="25" fill="#EECC11" stroke="#913038"/>
<rect x="507.3" y="13.3" width="17.4" height="17.4" fill="#EECC11" stroke="#913038" stroke-width="0.6"/>
<rect x="471.5" y="9.5" width="25" height="25" fill="#EECC11" stroke="#913038"/>
<path d="M539 13L557 31" stroke="#913038" stroke-width="0.6" stroke-linecap="round"/>
<path d="M557 13L539 31" stroke="#913038" stroke-width="0.6" stroke-linecap="round"/>
<path d="M475 22H493" stroke="#913038" stroke-width="0.6" stroke-linecap="round"/>
<path d="M507 16H524.5" stroke="#913038" stroke-width="0.6"/>
<path d="M573 123L384 123" stroke="#913038" stroke-opacity="0.5"/>
<path d="M573 150H384" stroke="#913038" stroke-opacity="0.5"/>
<path d="M573 96L384 96" stroke="#913038" stroke-opacity="0.5"/>
<path d="M573 231H384" stroke="#913038" stroke-opacity="0.5"/>
<path d="M573 69L384 69" stroke="#913038" stroke-opacity="0.5"/>
<path d="M573 204H384" stroke="#913038" stroke-opacity="0.5"/>
<path d="M573 42L384 42" stroke="#913038" stroke-opacity="0.5"/>
<path d="M573 177H384" stroke="#913038" stroke-opacity="0.5"/>
<path d="M546 42L546 231" stroke="#913038" stroke-opacity="0.5"/>
<path d="M411 42L411 231" stroke="#913038" stroke-opacity="0.5"/>
<path d="M519 42L519 231" stroke="#913038" stroke-opacity="0.5"/>
<path d="M384 42L384 136.5L384 183.75L384 231" stroke="#913038" stroke-width="2"/>
<path d="M573 42L573 231" stroke="#913038" stroke-opacity="0.5"/>
<path d="M438 42L438 231" stroke="#913038" stroke-opacity="0.5"/>
<path d="M465 42L465 231" stroke="#913038" stroke-opacity="0.5"/>
<path d="M492 42L492 231" stroke="#913038" stroke-opacity="0.5"/>
<path d="M93.06 71.32V112.57C93.06 122.983 92.5833 130.427 91.63 134.9C90.75 139.3 88.4033 142.563 84.59 144.69C80.7767 146.817 74.3967 147.88 65.45 147.88C56.5033 147.88 50.1233 146.817 46.31 144.69C42.4967 142.563 40.1133 139.3 39.16 134.9C38.28 130.427 37.84 122.983 37.84 112.57V71.32H60.61V117.3C60.61 121.993 60.6833 125.147 60.83 126.76C60.9767 128.3 61.3433 129.29 61.93 129.73C62.5167 130.17 63.69 130.39 65.45 130.39C67.21 130.39 68.3833 130.17 68.97 129.73C69.63 129.29 70.0333 128.263 70.18 126.65C70.3267 125.037 70.4 121.92 70.4 117.3V71.32H93.06ZM140.013 147L125.053 112.24H124.503V147H102.833V71.32H125.493L138.143 100.69H138.913V71.32H160.583V147H140.013ZM170.619 71.32H195.589C205.562 71.32 212.602 72.42 216.709 74.62C220.889 76.7467 223.455 80.1933 224.409 84.96C225.435 89.7267 225.949 97.7933 225.949 109.16C225.949 120.527 225.435 128.593 224.409 133.36C223.455 138.127 220.889 141.61 216.709 143.81C212.602 145.937 205.562 147 195.589 147H170.619V71.32ZM195.809 129.73C198.449 129.73 200.209 129.4 201.089 128.74C202.042 128.08 202.629 126.54 202.849 124.12C203.069 121.627 203.179 116.677 203.179 109.27C203.179 101.717 203.069 96.73 202.849 94.31C202.629 91.8167 202.079 90.24 201.199 89.58C200.319 88.92 198.522 88.59 195.809 88.59H193.169V129.73H195.809ZM234.964 147V71.32H282.044V88.59H257.514V100.25H277.974V117.3H257.514V129.73H282.044V147H234.964ZM325.238 147L318.418 121.92H314.128V147H291.468V71.32H325.238C331.325 71.32 335.908 72.2367 338.988 74.07C342.068 75.83 344.122 78.47 345.148 81.99C346.248 85.51 346.798 90.3867 346.798 96.62C346.798 102.413 346.285 107.07 345.258 110.59C344.305 114.037 342.288 116.713 339.208 118.62L348.558 147H325.238ZM317.978 105.64C319.958 105.64 321.315 105.493 322.048 105.2C322.855 104.907 323.405 104.21 323.698 103.11C323.992 101.937 324.138 99.92 324.138 97.06C324.138 94.1267 324.028 92.11 323.808 91.01C323.588 89.91 323.075 89.2133 322.268 88.92C321.462 88.5533 319.995 88.37 317.868 88.37H314.128V105.64H317.978ZM54.952 201.608C54.07 201.837 52.9593 202.016 51.62 202.147C50.2807 202.31 49.023 202.392 47.847 202.392C44.221 202.392 41.5587 201.902 39.86 200.922C38.194 199.942 37.067 198.276 36.479 195.924C35.9237 193.572 35.646 189.979 35.646 185.144C35.646 180.309 35.9237 176.732 36.479 174.413C37.067 172.061 38.2103 170.395 39.909 169.415C41.6077 168.402 44.2537 167.896 47.847 167.896C49.0883 167.896 50.3623 167.978 51.669 168.141C52.9757 168.304 54.021 168.5 54.805 168.729V173.727C52.3223 173.433 50.4767 173.286 49.268 173.286C46.818 173.286 45.1193 173.531 44.172 174.021C43.2247 174.478 42.604 175.475 42.31 177.01C42.0487 178.513 41.918 181.224 41.918 185.144C41.918 189.064 42.0487 191.792 42.31 193.327C42.604 194.83 43.2247 195.826 44.172 196.316C45.1193 196.773 46.818 197.002 49.268 197.002C51.1627 197.002 53.0573 196.855 54.952 196.561V201.608ZM71.9198 202.392C67.9671 202.392 65.1414 201.918 63.4428 200.971C61.7441 199.991 60.6661 198.39 60.2088 196.169C59.7841 193.948 59.5718 190.273 59.5718 185.144C59.5718 180.015 59.7841 176.34 60.2088 174.119C60.6661 171.898 61.7441 170.313 63.4428 169.366C65.1414 168.386 67.9671 167.896 71.9198 167.896C75.8724 167.896 78.6981 168.386 80.3968 169.366C82.1281 170.313 83.2061 171.898 83.6308 174.119C84.0881 176.34 84.3168 180.015 84.3168 185.144C84.3168 190.273 84.0881 193.948 83.6308 196.169C83.2061 198.39 82.1281 199.991 80.3968 200.971C78.6981 201.918 75.8724 202.392 71.9198 202.392ZM71.9198 197.002C74.0431 197.002 75.4804 196.806 76.2318 196.414C77.0158 196.022 77.5058 195.091 77.7018 193.621C77.9304 192.118 78.0448 189.293 78.0448 185.144C78.0448 180.995 77.9304 178.186 77.7018 176.716C77.5058 175.213 77.0158 174.266 76.2318 173.874C75.4804 173.482 74.0431 173.286 71.9198 173.286C69.7964 173.286 68.3591 173.482 67.6078 173.874C66.8564 174.266 66.3664 175.197 66.1378 176.667C65.9418 178.137 65.8438 180.963 65.8438 185.144C65.8438 189.325 65.9418 192.151 66.1378 193.621C66.3664 195.091 66.8564 196.022 67.6078 196.414C68.3591 196.806 69.7964 197.002 71.9198 197.002ZM108.341 202L96.6786 180.685H96.4826V202H90.4556V168.288H96.8256L108.047 188.525H108.243V168.288H114.27V202H108.341ZM131.22 202.392C129.521 202.392 127.708 202.31 125.781 202.147C123.854 202.016 122.155 201.837 120.685 201.608V196.463C124.344 196.822 127.251 197.002 129.407 197.002C130.877 197.002 132.02 196.92 132.837 196.757C133.654 196.594 134.258 196.332 134.65 195.973C135.042 195.646 135.287 195.222 135.385 194.699C135.483 194.176 135.532 193.425 135.532 192.445C135.532 191.236 135.45 190.371 135.287 189.848C135.156 189.325 134.879 188.95 134.454 188.721C134.029 188.46 133.311 188.247 132.298 188.084L126.075 187.202C123.723 186.908 122.106 186.01 121.224 184.507C120.342 182.972 119.901 180.767 119.901 177.892C119.901 175.148 120.342 173.057 121.224 171.62C122.139 170.15 123.38 169.17 124.948 168.68C126.549 168.157 128.574 167.896 131.024 167.896C132.69 167.896 134.372 167.994 136.071 168.19C137.77 168.353 139.191 168.566 140.334 168.827V173.874C137.982 173.482 135.385 173.286 132.543 173.286C131.106 173.286 129.962 173.351 129.113 173.482C128.296 173.613 127.676 173.825 127.251 174.119C126.794 174.413 126.5 174.821 126.369 175.344C126.238 175.834 126.173 176.585 126.173 177.598C126.173 178.709 126.238 179.509 126.369 179.999C126.5 180.489 126.761 180.832 127.153 181.028C127.545 181.224 128.215 181.387 129.162 181.518L135.434 182.351C136.806 182.547 137.933 182.923 138.815 183.478C139.73 184.001 140.448 184.866 140.971 186.075C141.526 187.447 141.804 189.374 141.804 191.857C141.804 194.83 141.379 197.084 140.53 198.619C139.713 200.154 138.554 201.167 137.051 201.657C135.581 202.147 133.637 202.392 131.22 202.392ZM153.179 202V173.874H144.8V168.288H167.781V173.874H159.402V202H153.179ZM188.996 202L184.782 189.701H178.314V202H172.091V168.288H185.615C188.229 168.288 190.205 168.713 191.544 169.562C192.916 170.379 193.831 171.538 194.288 173.041C194.746 174.544 194.974 176.52 194.974 178.97C194.974 181.257 194.68 183.266 194.092 184.997C193.537 186.696 192.426 187.921 190.76 188.672L195.611 202H188.996ZM183.557 184.311C185.125 184.311 186.269 184.164 186.987 183.87C187.706 183.576 188.163 183.07 188.359 182.351C188.588 181.632 188.702 180.505 188.702 178.97C188.702 177.402 188.588 176.275 188.359 175.589C188.163 174.903 187.722 174.413 187.036 174.119C186.35 173.825 185.207 173.678 183.606 173.678H178.314V184.311H183.557ZM223.927 168.288V187.055C223.927 191.498 223.682 194.748 223.192 196.806C222.702 198.831 221.657 200.269 220.056 201.118C218.455 201.967 215.875 202.392 212.314 202.392C208.753 202.392 206.156 201.967 204.523 201.118C202.922 200.269 201.877 198.815 201.387 196.757C200.897 194.699 200.652 191.465 200.652 187.055V168.288H206.924V189.015C206.924 191.596 207.022 193.392 207.218 194.405C207.414 195.418 207.855 196.104 208.541 196.463C209.26 196.822 210.517 197.002 212.314 197.002C214.111 197.002 215.352 196.822 216.038 196.463C216.757 196.104 217.198 195.434 217.361 194.454C217.557 193.441 217.655 191.628 217.655 189.015V168.288H223.927ZM249.134 201.608C248.252 201.837 247.141 202.016 245.802 202.147C244.462 202.31 243.205 202.392 242.029 202.392C238.403 202.392 235.74 201.902 234.042 200.922C232.376 199.942 231.249 198.276 230.661 195.924C230.105 193.572 229.828 189.979 229.828 185.144C229.828 180.309 230.105 176.732 230.661 174.413C231.249 172.061 232.392 170.395 234.091 169.415C235.789 168.402 238.435 167.896 242.029 167.896C243.27 167.896 244.544 167.978 245.851 168.141C247.157 168.304 248.203 168.5 248.987 168.729V173.727C246.504 173.433 244.658 173.286 243.45 173.286C241 173.286 239.301 173.531 238.354 174.021C237.406 174.478 236.786 175.475 236.492 177.01C236.23 178.513 236.1 181.224 236.1 185.144C236.1 189.064 236.23 191.792 236.492 193.327C236.786 194.83 237.406 195.826 238.354 196.316C239.301 196.773 241 197.002 243.45 197.002C245.344 197.002 247.239 196.855 249.134 196.561V201.608ZM260.27 202V173.874H251.891V168.288H274.872V173.874H266.493V202H260.27ZM279.183 202V168.288H285.455V202H279.183ZM304 202.392C300.047 202.392 297.222 201.918 295.523 200.971C293.824 199.991 292.746 198.39 292.289 196.169C291.864 193.948 291.652 190.273 291.652 185.144C291.652 180.015 291.864 176.34 292.289 174.119C292.746 171.898 293.824 170.313 295.523 169.366C297.222 168.386 300.047 167.896 304 167.896C307.953 167.896 310.778 168.386 312.477 169.366C314.208 170.313 315.286 171.898 315.711 174.119C316.168 176.34 316.397 180.015 316.397 185.144C316.397 190.273 316.168 193.948 315.711 196.169C315.286 198.39 314.208 199.991 312.477 200.971C310.778 201.918 307.953 202.392 304 202.392ZM304 197.002C306.123 197.002 307.561 196.806 308.312 196.414C309.096 196.022 309.586 195.091 309.782 193.621C310.011 192.118 310.125 189.293 310.125 185.144C310.125 180.995 310.011 178.186 309.782 176.716C309.586 175.213 309.096 174.266 308.312 173.874C307.561 173.482 306.123 173.286 304 173.286C301.877 173.286 300.439 173.482 299.688 173.874C298.937 174.266 298.447 175.197 298.218 176.667C298.022 178.137 297.924 180.963 297.924 185.144C297.924 189.325 298.022 192.151 298.218 193.621C298.447 195.091 298.937 196.022 299.688 196.414C300.439 196.806 301.877 197.002 304 197.002ZM340.421 202L328.759 180.685H328.563V202H322.536V168.288H328.906L340.127 188.525H340.323V168.288H346.35V202H340.421Z" fill="#913038"/>
<path d="M426.769 62H421.077V67.6923H426.769V62Z" fill="#EECC11"/>
<path d="M432.462 62H426.769V67.6923H432.462V62Z" fill="#EECC11"/>
<path d="M438.154 62H432.462V67.6923H438.154V62Z" fill="#EECC11"/>
<path d="M443.846 62H438.154V67.6923H443.846V62Z" fill="#EECC11"/>
<path d="M449.538 62H443.846V67.6923H449.538V62Z" fill="#EECC11"/>
<path d="M455.231 62H449.538V67.6923H455.231V62Z" fill="#EECC11"/>
<path d="M460.923 62H455.231V67.6923H460.923V62Z" fill="#EECC11"/>
<path d="M466.616 62H460.923V67.6923H466.616V62Z" fill="#EECC11"/>
<path d="M472.308 62H466.615V67.6923H472.308V62Z" fill="#EECC11"/>
<path d="M478 62H472.308V67.6923H478V62Z" fill="#EECC11"/>
<path d="M483.692 62H478V67.6923H483.692V62Z" fill="#EECC11"/>
<path d="M489.385 62H483.692V67.6923H489.385V62Z" fill="#EECC11"/>
<path d="M495.077 62H489.385V67.6923H495.077V62Z" fill="#EECC11"/>
<path d="M500.769 62H495.077V67.6923H500.769V62Z" fill="#EECC11"/>
<path d="M506.461 62H500.769V67.6923H506.461V62Z" fill="#EECC11"/>
<path d="M512.154 62H506.462V67.6923H512.154V62Z" fill="#EECC11"/>
<path d="M517.846 62H512.154V67.6923H517.846V62Z" fill="#EECC11"/>
<path d="M523.538 62H517.846V67.6923H523.538V62Z" fill="#EECC11"/>
<path d="M529.231 62H523.538V67.6923H529.231V62Z" fill="#EECC11"/>
<path d="M534.923 62H529.231V67.6923H534.923V62Z" fill="#EECC11"/>
<path d="M421.077 67.6923H415.385V73.3846H421.077V67.6923Z" fill="#EECC11"/>
<path d="M426.769 67.6923H421.077V73.3846H426.769V67.6923Z" fill="#CF6F87"/>
<path d="M432.462 67.6923H426.769V73.3846H432.462V67.6923Z" fill="#CF6F87"/>
<path d="M438.154 67.6923H432.462V73.3846H438.154V67.6923Z" fill="#CF6F87"/>
<path d="M443.846 67.6923H438.154V73.3846H443.846V67.6923Z" fill="#CF6F87"/>
<path d="M449.538 67.6923H443.846V73.3846H449.538V67.6923Z" fill="#CF6F87"/>
<path d="M455.231 67.6923H449.538V73.3846H455.231V67.6923Z" fill="#CF6F87"/>
<path d="M460.923 67.6923H455.231V73.3846H460.923V67.6923Z" fill="#CF6F87"/>
<path d="M466.616 67.6923H460.923V73.3846H466.616V67.6923Z" fill="#CF6F87"/>
<path d="M472.308 67.6923H466.615V73.3846H472.308V67.6923Z" fill="#CF6F87"/>
<path d="M478 67.6923H472.308V73.3846H478V67.6923Z" fill="#CF6F87"/>
<path d="M483.692 67.6923H478V73.3846H483.692V67.6923Z" fill="#CF6F87"/>
<path d="M489.385 67.6923H483.692V73.3846H489.385V67.6923Z" fill="#CF6F87"/>
<path d="M495.077 67.6923H489.385V73.3846H495.077V67.6923Z" fill="#CF6F87"/>
<path d="M500.769 67.6923H495.077V73.3846H500.769V67.6923Z" fill="#CF6F87"/>
<path d="M506.461 67.6923H500.769V73.3846H506.461V67.6923Z" fill="#CF6F87"/>
<path d="M512.154 67.6923H506.462V73.3846H512.154V67.6923Z" fill="#CF6F87"/>
<path d="M517.846 67.6923H512.154V73.3846H517.846V67.6923Z" fill="#CF6F87"/>
<path d="M523.538 67.6923H517.846V73.3846H523.538V67.6923Z" fill="#CF6F87"/>
<path d="M529.231 67.6923H523.538V73.3846H529.231V67.6923Z" fill="#CF6F87"/>
<path d="M534.923 67.6923H529.231V73.3846H534.923V67.6923Z" fill="#CF6F87"/>
<path d="M540.615 67.6923H534.923V73.3846H540.615V67.6923Z" fill="#EECC11"/>
<path d="M415.385 73.3846H409.692V79.0769H415.385V73.3846Z" fill="#EECC11"/>
<path d="M421.077 73.3846H415.385V79.0769H421.077V73.3846Z" fill="#CF6F87"/>
<path d="M426.769 73.3846H421.077V79.0769H426.769V73.3846Z" fill="#EBA4C4"/>
<path d="M432.462 73.3846H426.769V79.0769H432.462V73.3846Z" fill="#EBA4C4"/>
<path d="M438.154 73.3846H432.462V79.0769H438.154V73.3846Z" fill="#EBA4C4"/>
<path d="M443.846 73.3846H438.154V79.0769H443.846V73.3846Z" fill="#EBA4C4"/>
<path d="M449.538 73.3846H443.846V79.0769H449.538V73.3846Z" fill="#EBA4C4"/>
<path d="M455.231 73.3846H449.538V79.0769H455.231V73.3846Z" fill="#EBA4C4"/>
<path d="M460.923 73.3846H455.231V79.0769H460.923V73.3846Z" fill="#EBA4C4"/>
<path d="M466.616 73.3846H460.923V79.0769H466.616V73.3846Z" fill="#EBA4C4"/>
<path d="M472.308 73.3846H466.615V79.0769H472.308V73.3846Z" fill="#EBA4C4"/>
<path d="M478 73.3846H472.308V79.0769H478V73.3846Z" fill="#EBA4C4"/>
<path d="M483.692 73.3846H478V79.0769H483.692V73.3846Z" fill="#EBA4C4"/>
<path d="M489.385 73.3846H483.692V79.0769H489.385V73.3846Z" fill="#EBA4C4"/>
<path d="M495.077 73.3846H489.385V79.0769H495.077V73.3846Z" fill="#EBA4C4"/>
<path d="M500.769 73.3846H495.077V79.0769H500.769V73.3846Z" fill="#EBA4C4"/>
<path d="M506.461 73.3846H500.769V79.0769H506.461V73.3846Z" fill="#EBA4C4"/>
<path d="M512.154 73.3846H506.462V79.0769H512.154V73.3846Z" fill="#EBA4C4"/>
<path d="M517.846 73.3846H512.154V79.0769H517.846V73.3846Z" fill="#EBA4C4"/>
<path d="M523.538 73.3846H517.846V79.0769H523.538V73.3846Z" fill="#EBA4C4"/>
<path d="M529.231 73.3846H523.538V79.0769H529.231V73.3846Z" fill="#EBA4C4"/>
<path d="M534.923 73.3846H529.231V79.0769H534.923V73.3846Z" fill="#EBA4C4"/>
<path d="M540.615 73.3846H534.923V79.0769H540.615V73.3846Z" fill="#CF6F87"/>
<path d="M546.308 73.3846H540.615V79.0769H546.308V73.3846Z" fill="#EECC11"/>
<path d="M409.692 79.0769H404V84.7692H409.692V79.0769Z" fill="#EECC11"/>
<path d="M415.385 79.0769H409.692V84.7692H415.385V79.0769Z" fill="#CF6F87"/>
<path d="M421.077 79.0769H415.385V84.7692H421.077V79.0769Z" fill="#EBA4C4"/>
<path d="M426.769 79.0769H421.077V84.7692H426.769V79.0769Z" fill="#CF6F87"/>
<path d="M432.462 79.0769H426.769V84.7692H432.462V79.0769Z" fill="#EBA4C4"/>
<path d="M438.154 79.0769H432.462V84.7692H438.154V79.0769Z" fill="#EBA4C4"/>
<path d="M443.846 79.0769H438.154V84.7692H443.846V79.0769Z" fill="#EBA4C4"/>
<path d="M449.538 79.0769H443.846V84.7692H449.538V79.0769Z" fill="#EBA4C4"/>
<path d="M455.231 79.0769H449.538V84.7692H455.231V79.0769Z" fill="#EBA4C4"/>
<path d="M460.923 79.0769H455.231V84.7692H460.923V79.0769Z" fill="#EBA4C4"/>
<path d="M466.616 79.0769H460.923V84.7692H466.616V79.0769Z" fill="#EBA4C4"/>
<path d="M472.308 79.0769H466.615V84.7692H472.308V79.0769Z" fill="#EBA4C4"/>
<path d="M478 79.0769H472.308V84.7692H478V79.0769Z" fill="#EBA4C4"/>
<path d="M483.692 79.0769H478V84.7692H483.692V79.0769Z" fill="#EBA4C4"/>
<path d="M489.385 79.0769H483.692V84.7692H489.385V79.0769Z" fill="#EBA4C4"/>
<path d="M495.077 79.0769H489.385V84.7692H495.077V79.0769Z" fill="#EBA4C4"/>
<path d="M500.769 79.0769H495.077V84.7692H500.769V79.0769Z" fill="#EBA4C4"/>
<path d="M506.461 79.0769H500.769V84.7692H506.461V79.0769Z" fill="#EBA4C4"/>
<path d="M512.154 79.0769H506.462V84.7692H512.154V79.0769Z" fill="#EBA4C4"/>
<path d="M517.846 79.0769H512.154V84.7692H517.846V79.0769Z" fill="#EBA4C4"/>
<path d="M523.538 79.0769H517.846V84.7692H523.538V79.0769Z" fill="#EBA4C4"/>
<path d="M529.231 79.0769H523.538V84.7692H529.231V79.0769Z" fill="#EBA4C4"/>
<path d="M534.923 79.0769H529.231V84.7692H534.923V79.0769Z" fill="#CF6F87"/>
<path d="M540.615 79.0769H534.923V84.7692H540.615V79.0769Z" fill="#EBA4C4"/>
<path d="M546.308 79.0769H540.615V84.7692H546.308V79.0769Z" fill="#CF6F87"/>
<path d="M552 79.0769H546.308V84.7692H552V79.0769Z" fill="#EECC11"/>
<path d="M409.692 84.7692H404V90.4615H409.692V84.7692Z" fill="#EECC11"/>
<path d="M415.385 84.7692H409.692V90.4615H415.385V84.7692Z" fill="#CF6F87"/>
<path d="M421.077 84.7692H415.385V90.4615H421.077V84.7692Z" fill="#EBA4C4"/>
<path d="M426.769 84.7692H421.077V90.4615H426.769V84.7692Z" fill="#EBA4C4"/>
<path d="M432.462 84.7692H426.769V90.4615H432.462V84.7692Z" fill="#EBA4C4"/>
<path d="M438.154 84.7692H432.462V90.4615H438.154V84.7692Z" fill="#EBA4C4"/>
<path d="M443.846 84.7692H438.154V90.4615H443.846V84.7692Z" fill="#EBA4C4"/>
<path d="M449.538 84.7692H443.846V90.4615H449.538V84.7692Z" fill="#EBA4C4"/>
<path d="M455.231 84.7692H449.538V90.4615H455.231V84.7692Z" fill="#EBA4C4"/>
<path d="M460.923 84.7692H455.231V90.4615H460.923V84.7692Z" fill="#EBA4C4"/>
<path d="M466.616 84.7692H460.923V90.4615H466.616V84.7692Z" fill="#E17557"/>
<path d="M472.308 84.7692H466.615V90.4615H472.308V84.7692Z" fill="#E17557"/>
<path d="M478 84.7692H472.308V90.4615H478V84.7692Z" fill="#E17557"/>
<path d="M483.692 84.7692H478V90.4615H483.692V84.7692Z" fill="#E17557"/>
<path d="M489.385 84.7692H483.692V90.4615H489.385V84.7692Z" fill="#E17557"/>
<path d="M495.077 84.7692H489.385V90.4615H495.077V84.7692Z" fill="#E17557"/>
<path d="M500.769 84.7692H495.077V90.4615H500.769V84.7692Z" fill="#EBA4C4"/>
<path d="M506.461 84.7692H500.769V90.4615H506.461V84.7692Z" fill="#EBA4C4"/>
<path d="M512.154 84.7692H506.462V90.4615H512.154V84.7692Z" fill="#EBA4C4"/>
<path d="M517.846 84.7692H512.154V90.4615H517.846V84.7692Z" fill="#EBA4C4"/>
<path d="M523.538 84.7692H517.846V90.4615H523.538V84.7692Z" fill="#EBA4C4"/>
<path d="M529.231 84.7692H523.538V90.4615H529.231V84.7692Z" fill="#EBA4C4"/>
<path d="M534.923 84.7692H529.231V90.4615H534.923V84.7692Z" fill="#EBA4C4"/>
<path d="M540.615 84.7692H534.923V90.4615H540.615V84.7692Z" fill="#EBA4C4"/>
<path d="M546.308 84.7692H540.615V90.4615H546.308V84.7692Z" fill="#CF6F87"/>
<path d="M552 84.7692H546.308V90.4615H552V84.7692Z" fill="#EECC11"/>
<path d="M409.692 90.4615H404V96.1538H409.692V90.4615Z" fill="#EECC11"/>
<path d="M415.385 90.4615H409.692V96.1538H415.385V90.4615Z" fill="#CF6F87"/>
<path d="M421.077 90.4615H415.385V96.1538H421.077V90.4615Z" fill="#EBA4C4"/>
<path d="M426.769 90.4615H421.077V96.1538H426.769V90.4615Z" fill="#EBA4C4"/>
<path d="M432.462 90.4615H426.769V96.1538H432.462V90.4615Z" fill="#EBA4C4"/>
<path d="M438.154 90.4615H432.462V96.1538H438.154V90.4615Z" fill="#EBA4C4"/>
<path d="M443.846 90.4615H438.154V96.1538H443.846V90.4615Z" fill="#EBA4C4"/>
<path d="M449.538 90.4615H443.846V96.1538H449.538V90.4615Z" fill="#EBA4C4"/>
<path d="M455.231 90.4615H449.538V96.1538H455.231V90.4615Z" fill="#CD694F"/>
<path d="M460.923 90.4615H455.231V96.1538H460.923V90.4615Z" fill="#E17557"/>
<path d="M466.616 90.4615H460.923V96.1538H466.616V90.4615Z" fill="#E5953D"/>
<path d="M472.308 90.4615H466.615V96.1538H472.308V90.4615Z" fill="#ECC98B"/>
<path d="M478 90.4615H472.308V96.1538H478V90.4615Z" fill="#ECC98B"/>
<path d="M483.692 90.4615H478V96.1538H483.692V90.4615Z" fill="#ECC98B"/>
<path d="M489.385 90.4615H483.692V96.1538H489.385V90.4615Z" fill="#ECC98B"/>
<path d="M495.077 90.4615H489.385V96.1538H495.077V90.4615Z" fill="#E7A55D"/>
<path d="M500.769 90.4615H495.077V96.1538H500.769V90.4615Z" fill="#E17557"/>
<path d="M506.461 90.4615H500.769V96.1538H506.461V90.4615Z" fill="#CD694F"/>
<path d="M512.154 90.4615H506.462V96.1538H512.154V90.4615Z" fill="#EBA4C4"/>
<path d="M517.846 90.4615H512.154V96.1538H517.846V90.4615Z" fill="#EBA4C4"/>
<path d="M523.538 90.4615H517.846V96.1538H523.538V90.4615Z" fill="#EBA4C4"/>
<path d="M529.231 90.4615H523.538V96.1538H529.231V90.4615Z" fill="#EBA4C4"/>
<path d="M534.923 90.4615H529.231V96.1538H534.923V90.4615Z" fill="#EBA4C4"/>
<path d="M540.615 90.4615H534.923V96.1538H540.615V90.4615Z" fill="#EBA4C4"/>
<path d="M546.308 90.4615H540.615V96.1538H546.308V90.4615Z" fill="#CF6F87"/>
<path d="M552 90.4615H546.308V96.1538H552V90.4615Z" fill="#EECC11"/>
<path d="M409.692 96.1538H404V101.846H409.692V96.1538Z" fill="#EECC11"/>
<path d="M415.385 96.1538H409.692V101.846H415.385V96.1538Z" fill="#CF6F87"/>
<path d="M421.077 96.1538H415.385V101.846H421.077V96.1538Z" fill="#EBA4C4"/>
<path d="M426.769 96.1538H421.077V101.846H426.769V96.1538Z" fill="#EBA4C4"/>
<path d="M432.462 96.1538H426.769V101.846H432.462V96.1538Z" fill="#EBA4C4"/>
<path d="M438.154 96.1538H432.462V101.846H438.154V96.1538Z" fill="#EBA4C4"/>
<path d="M443.846 96.1538H438.154V101.846H443.846V96.1538Z" fill="#EBA4C4"/>
<path d="M449.538 96.1538H443.846V101.846H449.538V96.1538Z" fill="#CD694F"/>
<path d="M455.231 96.1538H449.538V101.846H455.231V96.1538Z" fill="#E5953D"/>
<path d="M460.923 96.1538H455.231V101.846H460.923V96.1538Z" fill="#E5953D"/>
<path d="M466.616 96.1538H460.923V101.846H466.616V96.1538Z" fill="#E5953D"/>
<path d="M472.308 96.1538H466.615V101.846H472.308V96.1538Z" fill="#ECC98B"/>
<path d="M478 96.1538H472.308V101.846H478V96.1538Z" fill="#CD694F"/>
<path d="M483.692 96.1538H478V101.846H483.692V96.1538Z" fill="#E17557"/>
<path d="M489.385 96.1538H483.692V101.846H489.385V96.1538Z" fill="#ECC98B"/>
<path d="M495.077 96.1538H489.385V101.846H495.077V96.1538Z" fill="#E7A55D"/>
<path d="M500.769 96.1538H495.077V101.846H500.769V96.1538Z" fill="#E7A55D"/>
<path d="M506.461 96.1538H500.769V101.846H506.461V96.1538Z" fill="#E7A55D"/>
<path d="M512.154 96.1538H506.462V101.846H512.154V96.1538Z" fill="#CD694F"/>
<path d="M517.846 96.1538H512.154V101.846H517.846V96.1538Z" fill="#EBA4C4"/>
<path d="M523.538 96.1538H517.846V101.846H523.538V96.1538Z" fill="#EBA4C4"/>
<path d="M529.231 96.1538H523.538V101.846H529.231V96.1538Z" fill="#EBA4C4"/>
<path d="M534.923 96.1538H529.231V101.846H534.923V96.1538Z" fill="#EBA4C4"/>
<path d="M540.615 96.1538H534.923V101.846H540.615V96.1538Z" fill="#EBA4C4"/>
<path d="M546.308 96.1538H540.615V101.846H546.308V96.1538Z" fill="#CF6F87"/>
<path d="M552 96.1538H546.308V101.846H552V96.1538Z" fill="#EECC11"/>
<path d="M409.692 101.846H404V107.538H409.692V101.846Z" fill="#EECC11"/>
<path d="M415.385 101.846H409.692V107.538H415.385V101.846Z" fill="#CF6F87"/>
<path d="M421.077 101.846H415.385V107.538H421.077V101.846Z" fill="#EBA4C4"/>
<path d="M426.769 101.846H421.077V107.538H426.769V101.846Z" fill="#EBA4C4"/>
<path d="M432.462 101.846H426.769V107.538H432.462V101.846Z" fill="#EBA4C4"/>
<path d="M438.154 101.846H432.462V107.538H438.154V101.846Z" fill="#EBA4C4"/>
<path d="M443.846 101.846H438.154V107.538H443.846V101.846Z" fill="#CD694F"/>
<path d="M449.538 101.846H443.846V107.538H449.538V101.846Z" fill="#E5953D"/>
<path d="M455.231 101.846H449.538V107.538H455.231V101.846Z" fill="#E5953D"/>
<path d="M460.923 101.846H455.231V107.538H460.923V101.846Z" fill="#E5953D"/>
<path d="M466.616 101.846H460.923V107.538H466.616V101.846Z" fill="#E5953D"/>
<path d="M472.308 101.846H466.615V107.538H472.308V101.846Z" fill="#CD694F"/>
<path d="M478 101.846H472.308V107.538H478V101.846Z" fill="#CD694F"/>
<path d="M483.692 101.846H478V107.538H483.692V101.846Z" fill="#E17557"/>
<path d="M489.385 101.846H483.692V107.538H489.385V101.846Z" fill="#E17557"/>
<path d="M495.077 101.846H489.385V107.538H495.077V101.846Z" fill="#E7A55D"/>
<path d="M500.769 101.846H495.077V107.538H500.769V101.846Z" fill="#E7A55D"/>
<path d="M506.461 101.846H500.769V107.538H506.461V101.846Z" fill="#E7A55D"/>
<path d="M512.154 101.846H506.462V107.538H512.154V101.846Z" fill="#E7A55D"/>
<path d="M517.846 101.846H512.154V107.538H517.846V101.846Z" fill="#CD694F"/>
<path d="M523.538 101.846H517.846V107.538H523.538V101.846Z" fill="#EBA4C4"/>
<path d="M529.231 101.846H523.538V107.538H529.231V101.846Z" fill="#EBA4C4"/>
<path d="M534.923 101.846H529.231V107.538H534.923V101.846Z" fill="#EBA4C4"/>
<path d="M540.615 101.846H534.923V107.538H540.615V101.846Z" fill="#EBA4C4"/>
<path d="M546.308 101.846H540.615V107.538H546.308V101.846Z" fill="#CF6F87"/>
<path d="M552 101.846H546.308V107.538H552V101.846Z" fill="#EECC11"/>
<path d="M409.692 107.538H404V113.231H409.692V107.538Z" fill="#EECC11"/>
<path d="M415.385 107.538H409.692V113.231H415.385V107.538Z" fill="#B55D83"/>
<path d="M421.077 107.538H415.385V113.231H421.077V107.538Z" fill="#EBA4C4"/>
<path d="M426.769 107.538H421.077V113.231H426.769V107.538Z" fill="#EBA4C4"/>
<path d="M432.462 107.538H426.769V113.231H432.462V107.538Z" fill="#EBA4C4"/>
<path d="M438.154 107.538H432.462V113.231H438.154V107.538Z" fill="#EBA4C4"/>
<path d="M443.846 107.538H438.154V113.231H443.846V107.538Z" fill="#B55D83"/>
<path d="M449.538 107.538H443.846V113.231H449.538V107.538Z" fill="#E5953D"/>
<path d="M455.231 107.538H449.538V113.231H455.231V107.538Z" fill="#E5953D"/>
<path d="M460.923 107.538H455.231V113.231H460.923V107.538Z" fill="#E5953D"/>
<path d="M466.616 107.538H460.923V113.231H466.616V107.538Z" fill="#E5953D"/>
<path d="M472.308 107.538H466.615V113.231H472.308V107.538Z" fill="#ECC98B"/>
<path d="M478 107.538H472.308V113.231H478V107.538Z" fill="#CD694F"/>
<path d="M483.692 107.538H478V113.231H483.692V107.538Z" fill="#E17557"/>
<path d="M489.385 107.538H483.692V113.231H489.385V107.538Z" fill="#ECC98B"/>
<path d="M495.077 107.538H489.385V113.231H495.077V107.538Z" fill="#E7A55D"/>
<path d="M500.769 107.538H495.077V113.231H500.769V107.538Z" fill="#E7A55D"/>
<path d="M506.461 107.538H500.769V113.231H506.461V107.538Z" fill="#E7A55D"/>
<path d="M512.154 107.538H506.462V113.231H512.154V107.538Z" fill="#E7A55D"/>
<path d="M517.846 107.538H512.154V113.231H517.846V107.538Z" fill="#B55D83"/>
<path d="M523.538 107.538H517.846V113.231H523.538V107.538Z" fill="#EBA4C4"/>
<path d="M529.231 107.538H523.538V113.231H529.231V107.538Z" fill="#EBA4C4"/>
<path d="M534.923 107.538H529.231V113.231H534.923V107.538Z" fill="#EBA4C4"/>
<path d="M540.615 107.538H534.923V113.231H540.615V107.538Z" fill="#EBA4C4"/>
<path d="M546.308 107.538H540.615V113.231H546.308V107.538Z" fill="#B55D83"/>
<path d="M552 107.538H546.308V113.231H552V107.538Z" fill="#EECC11"/>
<path d="M409.692 113.231H404V118.923H409.692V113.231Z" fill="#EECC11"/>
<path d="M415.385 113.231H409.692V118.923H415.385V113.231Z" fill="#B55D83"/>
<path d="M421.077 113.231H415.385V118.923H421.077V113.231Z" fill="#EBA4C4"/>
<path d="M426.769 113.231H421.077V118.923H426.769V113.231Z" fill="#EBA4C4"/>
<path d="M432.462 113.231H426.769V118.923H432.462V113.231Z" fill="#EBA4C4"/>
<path d="M438.154 113.231H432.462V118.923H438.154V113.231Z" fill="#B55D83"/>
<path d="M443.846 113.231H438.154V118.923H443.846V113.231Z" fill="#E5953D"/>
<path d="M449.538 113.231H443.846V118.923H449.538V113.231Z" fill="#E5953D"/>
<path d="M455.231 113.231H449.538V118.923H455.231V113.231Z" fill="#E5953D"/>
<path d="M460.923 113.231H455.231V118.923H460.923V113.231Z" fill="#E5953D"/>
<path d="M466.616 113.231H460.923V118.923H466.616V113.231Z" fill="#E5953D"/>
<path d="M472.308 113.231H466.615V118.923H472.308V113.231Z" fill="#ECC98B"/>
<path d="M478 113.231H472.308V118.923H478V113.231Z" fill="#ECC98B"/>
<path d="M483.692 113.231H478V118.923H483.692V113.231Z" fill="#ECC98B"/>
<path d="M489.385 113.231H483.692V118.923H489.385V113.231Z" fill="#ECC98B"/>
<path d="M495.077 113.231H489.385V118.923H495.077V113.231Z" fill="#E7A55D"/>
<path d="M500.769 113.231H495.077V118.923H500.769V113.231Z" fill="#E7A55D"/>
<path d="M506.461 113.231H500.769V118.923H506.461V113.231Z" fill="#E7A55D"/>
<path d="M512.154 113.231H506.462V118.923H512.154V113.231Z" fill="#E7A55D"/>
<path d="M517.846 113.231H512.154V118.923H517.846V113.231Z" fill="#E7A55D"/>
<path d="M523.538 113.231H517.846V118.923H523.538V113.231Z" fill="#B55D83"/>
<path d="M529.231 113.231H523.538V118.923H529.231V113.231Z" fill="#EBA4C4"/>
<path d="M534.923 113.231H529.231V118.923H534.923V113.231Z" fill="#EBA4C4"/>
<path d="M540.615 113.231H534.923V118.923H540.615V113.231Z" fill="#EBA4C4"/>
<path d="M546.308 113.231H540.615V118.923H546.308V113.231Z" fill="#B55D83"/>
<path d="M552 113.231H546.308V118.923H552V113.231Z" fill="#EECC11"/>
<path d="M409.692 118.923H404V124.615H409.692V118.923Z" fill="#EECC11"/>
<path d="M415.385 118.923H409.692V124.615H415.385V118.923Z" fill="#B55D83"/>
<path d="M421.077 118.923H415.385V124.615H421.077V118.923Z" fill="#EBA4C4"/>
<path d="M426.769 118.923H421.077V124.615H426.769V118.923Z" fill="#EBA4C4"/>
<path d="M432.462 118.923H426.769V124.615H432.462V118.923Z" fill="#B55D83"/>
<path d="M438.154 118.923H432.462V124.615H438.154V118.923Z" fill="#B55D83"/>
<path d="M443.846 118.923H438.154V124.615H443.846V118.923Z" fill="#B55D83"/>
<path d="M449.538 118.923H443.846V124.615H449.538V118.923Z" fill="#B55D83"/>
<path d="M455.231 118.923H449.538V124.615H455.231V118.923Z" fill="#B55D83"/>
<path d="M460.923 118.923H455.231V124.615H460.923V118.923Z" fill="#B55D83"/>
<path d="M466.616 118.923H460.923V124.615H466.616V118.923Z" fill="#B55D83"/>
<path d="M472.308 118.923H466.615V124.615H472.308V118.923Z" fill="#B55D83"/>
<path d="M478 118.923H472.308V124.615H478V118.923Z" fill="#B55D83"/>
<path d="M483.692 118.923H478V124.615H483.692V118.923Z" fill="#B55D83"/>
<path d="M489.385 118.923H483.692V124.615H489.385V118.923Z" fill="#B55D83"/>
<path d="M495.077 118.923H489.385V124.615H495.077V118.923Z" fill="#B55D83"/>
<path d="M500.769 118.923H495.077V124.615H500.769V118.923Z" fill="#B55D83"/>
<path d="M506.461 118.923H500.769V124.615H506.461V118.923Z" fill="#B55D83"/>
<path d="M512.154 118.923H506.462V124.615H512.154V118.923Z" fill="#B55D83"/>
<path d="M517.846 118.923H512.154V124.615H517.846V118.923Z" fill="#B55D83"/>
<path d="M523.538 118.923H517.846V124.615H523.538V118.923Z" fill="#B55D83"/>
<path d="M529.231 118.923H523.538V124.615H529.231V118.923Z" fill="#B55D83"/>
<path d="M534.923 118.923H529.231V124.615H534.923V118.923Z" fill="#EBA4C4"/>
<path d="M540.615 118.923H534.923V124.615H540.615V118.923Z" fill="#EBA4C4"/>
<path d="M546.308 118.923H540.615V124.615H546.308V118.923Z" fill="#B55D83"/>
<path d="M552 118.923H546.308V124.615H552V118.923Z" fill="#EECC11"/>
<path d="M409.692 124.615H404V130.308H409.692V124.615Z" fill="#EECC11"/>
<path d="M415.385 124.615H409.692V130.308H415.385V124.615Z" fill="#B55D83"/>
<path d="M421.077 124.615H415.385V130.308H421.077V124.615Z" fill="#EBA4C4"/>
<path d="M426.769 124.615H421.077V130.308H426.769V124.615Z" fill="#EBA4C4"/>
<path d="M432.462 124.615H426.769V130.308H432.462V124.615Z" fill="#EBA4C4"/>
<path d="M438.154 124.615H432.462V130.308H438.154V124.615Z" fill="#21459C"/>
<path d="M443.846 124.615H438.154V130.308H443.846V124.615Z" fill="#3154A9"/>
<path d="M449.538 124.615H443.846V130.308H449.538V124.615Z" fill="#3154A9"/>
<path d="M455.231 124.615H449.538V130.308H455.231V124.615Z" fill="#3154A9"/>
<path d="M460.923 124.615H455.231V130.308H460.923V124.615Z" fill="#F2C7B6"/>
<path d="M466.616 124.615H460.923V130.308H466.616V124.615Z" fill="#8D5386"/>
<path d="M472.308 124.615H466.615V130.308H472.308V124.615Z" fill="#F2C7B6"/>
<path d="M478 124.615H472.308V130.308H478V124.615Z" fill="#F2C7B6"/>
<path d="M483.692 124.615H478V130.308H483.692V124.615Z" fill="#F2C7B6"/>
<path d="M489.385 124.615H483.692V130.308H489.385V124.615Z" fill="#F2C7B6"/>
<path d="M495.077 124.615H489.385V130.308H495.077V124.615Z" fill="#8D5386"/>
<path d="M500.769 124.615H495.077V130.308H500.769V124.615Z" fill="#F2C7B6"/>
<path d="M506.461 124.615H500.769V130.308H506.461V124.615Z" fill="#3154A9"/>
<path d="M512.154 124.615H506.462V130.308H512.154V124.615Z" fill="#3154A9"/>
<path d="M517.846 124.615H512.154V130.308H517.846V124.615Z" fill="#3154A9"/>
<path d="M523.538 124.615H517.846V130.308H523.538V124.615Z" fill="#21459C"/>
<path d="M529.231 124.615H523.538V130.308H529.231V124.615Z" fill="#EBA4C4"/>
<path d="M534.923 124.615H529.231V130.308H534.923V124.615Z" fill="#EBA4C4"/>
<path d="M540.615 124.615H534.923V130.308H540.615V124.615Z" fill="#EBA4C4"/>
<path d="M546.308 124.615H540.615V130.308H546.308V124.615Z" fill="#B55D83"/>
<path d="M552 124.615H546.308V130.308H552V124.615Z" fill="#EECC11"/>
<path d="M409.692 130.308H404V136H409.692V130.308Z" fill="#EECC11"/>
<path d="M415.385 130.308H409.692V136H415.385V130.308Z" fill="#B55D83"/>
<path d="M421.077 130.308H415.385V136H421.077V130.308Z" fill="#EBA4C4"/>
<path d="M426.769 130.308H421.077V136H426.769V130.308Z" fill="#EBA4C4"/>
<path d="M432.462 130.308H426.769V136H432.462V130.308Z" fill="#21459C"/>
<path d="M438.154 130.308H432.462V136H438.154V130.308Z" fill="#3154A9"/>
<path d="M443.846 130.308H438.154V136H443.846V130.308Z" fill="#3154A9"/>
<path d="M449.538 130.308H443.846V136H449.538V130.308Z" fill="#21459C"/>
<path d="M455.231 130.308H449.538V136H455.231V130.308Z" fill="#EEA8A0"/>
<path d="M460.923 130.308H455.231V136H460.923V130.308Z" fill="#F2C7B6"/>
<path d="M466.616 130.308H460.923V136H466.616V130.308Z" fill="#8D5386"/>
<path d="M472.308 130.308H466.615V136H472.308V130.308Z" fill="#F2C7B6"/>
<path d="M478 130.308H472.308V136H478V130.308Z" fill="#F2C7B6"/>
<path d="M483.692 130.308H478V136H483.692V130.308Z" fill="#F2C7B6"/>
<path d="M489.385 130.308H483.692V136H489.385V130.308Z" fill="#F2C7B6"/>
<path d="M495.077 130.308H489.385V136H495.077V130.308Z" fill="#8D5386"/>
<path d="M500.769 130.308H495.077V136H500.769V130.308Z" fill="#F2C7B6"/>
<path d="M506.461 130.308H500.769V136H506.461V130.308Z" fill="#EEA8A0"/>
<path d="M512.154 130.308H506.462V136H512.154V130.308Z" fill="#21459C"/>
<path d="M517.846 130.308H512.154V136H517.846V130.308Z" fill="#3154A9"/>
<path d="M523.538 130.308H517.846V136H523.538V130.308Z" fill="#3154A9"/>
<path d="M529.231 130.308H523.538V136H529.231V130.308Z" fill="#21459C"/>
<path d="M534.923 130.308H529.231V136H534.923V130.308Z" fill="#EBA4C4"/>
<path d="M540.615 130.308H534.923V136H540.615V130.308Z" fill="#EBA4C4"/>
<path d="M546.308 130.308H540.615V136H546.308V130.308Z" fill="#B55D83"/>
<path d="M552 130.308H546.308V136H552V130.308Z" fill="#EECC11"/>
<path d="M409.692 136H404V141.692H409.692V136Z" fill="#EECC11"/>
<path d="M415.385 136H409.692V141.692H415.385V136Z" fill="#4973A9"/>
<path d="M421.077 136H415.385V141.692H421.077V136Z" fill="#EBA4C4"/>
<path d="M426.769 136H421.077V141.692H426.769V136Z" fill="#EBA4C4"/>
<path d="M432.462 136H426.769V141.692H432.462V136Z" fill="#21459C"/>
<path d="M438.154 136H432.462V141.692H438.154V136Z" fill="#3154A9"/>
<path d="M443.846 136H438.154V141.692H443.846V136Z" fill="#21459C"/>
<path d="M449.538 136H443.846V141.692H449.538V136Z" fill="#3154A9"/>
<path d="M455.231 136H449.538V141.692H455.231V136Z" fill="#EEA8A0"/>
<path d="M460.923 136H455.231V141.692H460.923V136Z" fill="#E75D81"/>
<path d="M466.616 136H460.923V141.692H466.616V136Z" fill="#EB97A7"/>
<path d="M472.308 136H466.615V141.692H472.308V136Z" fill="#F2C7B6"/>
<path d="M478 136H472.308V141.692H478V136Z" fill="#F2C7B6"/>
<path d="M483.692 136H478V141.692H483.692V136Z" fill="#F2C7B6"/>
<path d="M489.385 136H483.692V141.692H489.385V136Z" fill="#F2C7B6"/>
<path d="M495.077 136H489.385V141.692H495.077V136Z" fill="#EB97A7"/>
<path d="M500.769 136H495.077V141.692H500.769V136Z" fill="#E75D81"/>
<path d="M506.461 136H500.769V141.692H506.461V136Z" fill="#EEA8A0"/>
<path d="M512.154 136H506.462V141.692H512.154V136Z" fill="#3154A9"/>
<path d="M517.846 136H512.154V141.692H517.846V136Z" fill="#21459C"/>
<path d="M523.538 136H517.846V141.692H523.538V136Z" fill="#3154A9"/>
<path d="M529.231 136H523.538V141.692H529.231V136Z" fill="#21459C"/>
<path d="M534.923 136H529.231V141.692H534.923V136Z" fill="#EBA4C4"/>
<path d="M540.615 136H534.923V141.692H540.615V136Z" fill="#EBA4C4"/>
<path d="M546.308 136H540.615V141.692H546.308V136Z" fill="#4973A9"/>
<path d="M552 136H546.308V141.692H552V136Z" fill="#EECC11"/>
<path d="M409.692 141.692H404V147.385H409.692V141.692Z" fill="#EECC11"/>
<path d="M415.385 141.692H409.692V147.385H415.385V141.692Z" fill="#4973A9"/>
<path d="M421.077 141.692H415.385V147.385H421.077V141.692Z" fill="#EBA4C4"/>
<path d="M426.769 141.692H421.077V147.385H426.769V141.692Z" fill="#EBA4C4"/>
<path d="M432.462 141.692H426.769V147.385H432.462V141.692Z" fill="#0E3185"/>
<path d="M438.154 141.692H432.462V147.385H438.154V141.692Z" fill="#21459C"/>
<path d="M443.846 141.692H438.154V147.385H443.846V141.692Z" fill="#3154A9"/>
<path d="M449.538 141.692H443.846V147.385H449.538V141.692Z" fill="#21459C"/>
<path d="M455.231 141.692H449.538V147.385H455.231V141.692Z" fill="#3154A9"/>
<path d="M460.923 141.692H455.231V147.385H460.923V141.692Z" fill="#F2C7B6"/>
<path d="M466.616 141.692H460.923V147.385H466.616V141.692Z" fill="#F2C7B6"/>
<path d="M472.308 141.692H466.615V147.385H472.308V141.692Z" fill="#E2574A"/>
<path d="M478 141.692H472.308V147.385H478V141.692Z" fill="#F2C7B6"/>
<path d="M483.692 141.692H478V147.385H483.692V141.692Z" fill="#F2C7B6"/>
<path d="M489.385 141.692H483.692V147.385H489.385V141.692Z" fill="#E2574A"/>
<path d="M495.077 141.692H489.385V147.385H495.077V141.692Z" fill="#F2C7B6"/>
<path d="M500.769 141.692H495.077V147.385H500.769V141.692Z" fill="#F2C7B6"/>
<path d="M506.461 141.692H500.769V147.385H506.461V141.692Z" fill="#3154A9"/>
<path d="M512.154 141.692H506.462V147.385H512.154V141.692Z" fill="#21459C"/>
<path d="M517.846 141.692H512.154V147.385H517.846V141.692Z" fill="#3154A9"/>
<path d="M523.538 141.692H517.846V147.385H523.538V141.692Z" fill="#21459C"/>
<path d="M529.231 141.692H523.538V147.385H529.231V141.692Z" fill="#0E3185"/>
<path d="M534.923 141.692H529.231V147.385H534.923V141.692Z" fill="#EBA4C4"/>
<path d="M540.615 141.692H534.923V147.385H540.615V141.692Z" fill="#EBA4C4"/>
<path d="M546.308 141.692H540.615V147.385H546.308V141.692Z" fill="#4973A9"/>
<path d="M552 141.692H546.308V147.385H552V141.692Z" fill="#EECC11"/>
<path d="M409.692 147.385H404V153.077H409.692V147.385Z" fill="#EECC11"/>
<path d="M415.385 147.385H409.692V153.077H415.385V147.385Z" fill="#4973A9"/>
<path d="M421.077 147.385H415.385V153.077H421.077V147.385Z" fill="#EBA4C4"/>
<path d="M426.769 147.385H421.077V153.077H426.769V147.385Z" fill="#EBA4C4"/>
<path d="M432.462 147.385H426.769V153.077H432.462V147.385Z" fill="#0E3185"/>
<path d="M438.154 147.385H432.462V153.077H438.154V147.385Z" fill="#21459C"/>
<path d="M443.846 147.385H438.154V153.077H443.846V147.385Z" fill="#21459C"/>
<path d="M449.538 147.385H443.846V153.077H449.538V147.385Z" fill="#21459C"/>
<path d="M455.231 147.385H449.538V153.077H455.231V147.385Z" fill="#21459C"/>
<path d="M460.923 147.385H455.231V153.077H460.923V147.385Z" fill="#F2C7B6"/>
<path d="M466.616 147.385H460.923V153.077H466.616V147.385Z" fill="#F2C7B6"/>
<path d="M472.308 147.385H466.615V153.077H472.308V147.385Z" fill="#F2C7B6"/>
<path d="M478 147.385H472.308V153.077H478V147.385Z" fill="#E2574A"/>
<path d="M483.692 147.385H478V153.077H483.692V147.385Z" fill="#E2574A"/>
<path d="M489.385 147.385H483.692V153.077H489.385V147.385Z" fill="#F2C7B6"/>
<path d="M495.077 147.385H489.385V153.077H495.077V147.385Z" fill="#F2C7B6"/>
<path d="M500.769 147.385H495.077V153.077H500.769V147.385Z" fill="#F2C7B6"/>
<path d="M506.461 147.385H500.769V153.077H506.461V147.385Z" fill="#21459C"/>
<path d="M512.154 147.385H506.462V153.077H512.154V147.385Z" fill="#21459C"/>
<path d="M517.846 147.385H512.154V153.077H517.846V147.385Z" fill="#21459C"/>
<path d="M523.538 147.385H517.846V153.077H523.538V147.385Z" fill="#21459C"/>
<path d="M529.231 147.385H523.538V153.077H529.231V147.385Z" fill="#0E3185"/>
<path d="M534.923 147.385H529.231V153.077H534.923V147.385Z" fill="#EBA4C4"/>
<path d="M540.615 147.385H534.923V153.077H540.615V147.385Z" fill="#EBA4C4"/>
<path d="M546.308 147.385H540.615V153.077H546.308V147.385Z" fill="#4973A9"/>
<path d="M552 147.385H546.308V153.077H552V147.385Z" fill="#EECC11"/>
<path d="M409.692 153.077H404V158.769H409.692V153.077Z" fill="#EECC11"/>
<path d="M415.385 153.077H409.692V158.769H415.385V153.077Z" fill="#435BA3"/>
<path d="M421.077 153.077H415.385V158.769H421.077V153.077Z" fill="#EBA4C4"/>
<path d="M426.769 153.077H421.077V158.769H426.769V153.077Z" fill="#EBA4C4"/>
<path d="M432.462 153.077H426.769V158.769H432.462V153.077Z" fill="#0E3185"/>
<path d="M438.154 153.077H432.462V158.769H438.154V153.077Z" fill="#21459C"/>
<path d="M443.846 153.077H438.154V158.769H443.846V153.077Z" fill="#21459C"/>
<path d="M449.538 153.077H443.846V158.769H449.538V153.077Z" fill="#21459C"/>
<path d="M455.231 153.077H449.538V158.769H455.231V153.077Z" fill="#21459C"/>
<path d="M460.923 153.077H455.231V158.769H460.923V153.077Z" fill="#21459C"/>
<path d="M466.616 153.077H460.923V158.769H466.616V153.077Z" fill="#F2C7B6"/>
<path d="M472.308 153.077H466.615V158.769H472.308V153.077Z" fill="#F2C7B6"/>
<path d="M478 153.077H472.308V158.769H478V153.077Z" fill="#F2C7B6"/>
<path d="M483.692 153.077H478V158.769H483.692V153.077Z" fill="#F2C7B6"/>
<path d="M489.385 153.077H483.692V158.769H489.385V153.077Z" fill="#F2C7B6"/>
<path d="M495.077 153.077H489.385V158.769H495.077V153.077Z" fill="#F2C7B6"/>
<path d="M500.769 153.077H495.077V158.769H500.769V153.077Z" fill="#21459C"/>
<path d="M506.461 153.077H500.769V158.769H506.461V153.077Z" fill="#21459C"/>
<path d="M512.154 153.077H506.462V158.769H512.154V153.077Z" fill="#21459C"/>
<path d="M517.846 153.077H512.154V158.769H517.846V153.077Z" fill="#21459C"/>
<path d="M523.538 153.077H517.846V158.769H523.538V153.077Z" fill="#21459C"/>
<path d="M529.231 153.077H523.538V158.769H529.231V153.077Z" fill="#0E3185"/>
<path d="M534.923 153.077H529.231V158.769H534.923V153.077Z" fill="#EBA4C4"/>
<path d="M540.615 153.077H534.923V158.769H540.615V153.077Z" fill="#EBA4C4"/>
<path d="M546.308 153.077H540.615V158.769H546.308V153.077Z" fill="#435BA3"/>
<path d="M552 153.077H546.308V158.769H552V153.077Z" fill="#EECC11"/>
<path d="M409.692 158.769H404V164.462H409.692V158.769Z" fill="#EECC11"/>
<path d="M415.385 158.769H409.692V164.462H415.385V158.769Z" fill="#435BA3"/>
<path d="M421.077 158.769H415.385V164.462H421.077V158.769Z" fill="#EBA4C4"/>
<path d="M426.769 158.769H421.077V164.462H426.769V158.769Z" fill="#EBA4C4"/>
<path d="M432.462 158.769H426.769V164.462H432.462V158.769Z" fill="#0E3185"/>
<path d="M438.154 158.769H432.462V164.462H438.154V158.769Z" fill="#21459C"/>
<path d="M443.846 158.769H438.154V164.462H443.846V158.769Z" fill="#21459C"/>
<path d="M449.538 158.769H443.846V164.462H449.538V158.769Z" fill="#21459C"/>
<path d="M455.231 158.769H449.538V164.462H455.231V158.769Z" fill="#21459C"/>
<path d="M460.923 158.769H455.231V164.462H460.923V158.769Z" fill="#21459C"/>
<path d="M466.616 158.769H460.923V164.462H466.616V158.769Z" fill="#0E3185"/>
<path d="M472.308 158.769H466.615V164.462H472.308V158.769Z" fill="#CF6F87"/>
<path d="M478 158.769H472.308V164.462H478V158.769Z" fill="#DA7FA0"/>
<path d="M483.692 158.769H478V164.462H483.692V158.769Z" fill="#DA7FA0"/>
<path d="M489.385 158.769H483.692V164.462H489.385V158.769Z" fill="#CF6F87"/>
<path d="M495.077 158.769H489.385V164.462H495.077V158.769Z" fill="#0E3185"/>
<path d="M500.769 158.769H495.077V164.462H500.769V158.769Z" fill="#21459C"/>
<path d="M506.461 158.769H500.769V164.462H506.461V158.769Z" fill="#21459C"/>
<path d="M512.154 158.769H506.462V164.462H512.154V158.769Z" fill="#21459C"/>
<path d="M517.846 158.769H512.154V164.462H517.846V158.769Z" fill="#21459C"/>
<path d="M523.538 158.769H517.846V164.462H523.538V158.769Z" fill="#21459C"/>
<path d="M529.231 158.769H523.538V164.462H529.231V158.769Z" fill="#0E3185"/>
<path d="M534.923 158.769H529.231V164.462H534.923V158.769Z" fill="#EBA4C4"/>
<path d="M540.615 158.769H534.923V164.462H540.615V158.769Z" fill="#EBA4C4"/>
<path d="M546.308 158.769H540.615V164.462H546.308V158.769Z" fill="#435BA3"/>
<path d="M552 158.769H546.308V164.462H552V158.769Z" fill="#EECC11"/>
<path d="M409.692 164.462H404V170.154H409.692V164.462Z" fill="#EECC11"/>
<path d="M415.385 164.462H409.692V170.154H415.385V164.462Z" fill="#435BA3"/>
<path d="M421.077 164.462H415.385V170.154H421.077V164.462Z" fill="#EBA4C4"/>
<path d="M426.769 164.462H421.077V170.154H426.769V164.462Z" fill="#EBA4C4"/>
<path d="M432.462 164.462H426.769V170.154H432.462V164.462Z" fill="#0E3185"/>
<path d="M438.154 164.462H432.462V170.154H438.154V164.462Z" fill="#0E3185"/>
<path d="M443.846 164.462H438.154V170.154H443.846V164.462Z" fill="#0E3185"/>
<path d="M449.538 164.462H443.846V170.154H449.538V164.462Z" fill="#0E3185"/>
<path d="M455.231 164.462H449.538V170.154H455.231V164.462Z" fill="#0E3185"/>
<path d="M460.923 164.462H455.231V170.154H460.923V164.462Z" fill="#0E3185"/>
<path d="M466.616 164.462H460.923V170.154H466.616V164.462Z" fill="#0E245D"/>
<path d="M472.308 164.462H466.615V170.154H472.308V164.462Z" fill="#ED9392"/>
<path d="M478 164.462H472.308V170.154H478V164.462Z" fill="#EEA8A0"/>
<path d="M483.692 164.462H478V170.154H483.692V164.462Z" fill="#EEA8A0"/>
<path d="M489.385 164.462H483.692V170.154H489.385V164.462Z" fill="#ED9392"/>
<path d="M495.077 164.462H489.385V170.154H495.077V164.462Z" fill="#0E245D"/>
<path d="M500.769 164.462H495.077V170.154H500.769V164.462Z" fill="#0E3185"/>
<path d="M506.461 164.462H500.769V170.154H506.461V164.462Z" fill="#0E3185"/>
<path d="M512.154 164.462H506.462V170.154H512.154V164.462Z" fill="#0E3185"/>
<path d="M517.846 164.462H512.154V170.154H517.846V164.462Z" fill="#0E3185"/>
<path d="M523.538 164.462H517.846V170.154H523.538V164.462Z" fill="#0E3185"/>
<path d="M529.231 164.462H523.538V170.154H529.231V164.462Z" fill="#0E3185"/>
<path d="M534.923 164.462H529.231V170.154H534.923V164.462Z" fill="#EBA4C4"/>
<path d="M540.615 164.462H534.923V170.154H540.615V164.462Z" fill="#EBA4C4"/>
<path d="M546.308 164.462H540.615V170.154H546.308V164.462Z" fill="#435BA3"/>
<path d="M552 164.462H546.308V170.154H552V164.462Z" fill="#EECC11"/>
<path d="M409.692 170.154H404V175.846H409.692V170.154Z" fill="#EECC11"/>
<path d="M415.385 170.154H409.692V175.846H415.385V170.154Z" fill="#435BA3"/>
<path d="M421.077 170.154H415.385V175.846H421.077V170.154Z" fill="#EBA4C4"/>
<path d="M426.769 170.154H421.077V175.846H426.769V170.154Z" fill="#EBA4C4"/>
<path d="M432.462 170.154H426.769V175.846H432.462V170.154Z" fill="#EBA4C4"/>
<path d="M438.154 170.154H432.462V175.846H438.154V170.154Z" fill="#EBA4C4"/>
<path d="M443.846 170.154H438.154V175.846H443.846V170.154Z" fill="#EBA4C4"/>
<path d="M449.538 170.154H443.846V175.846H449.538V170.154Z" fill="#EBA4C4"/>
<path d="M455.231 170.154H449.538V175.846H455.231V170.154Z" fill="#EBA4C4"/>
<path d="M460.923 170.154H455.231V175.846H460.923V170.154Z" fill="#21459C"/>
<path d="M466.616 170.154H460.923V175.846H466.616V170.154Z" fill="#A7E2F8"/>
<path d="M472.308 170.154H466.615V175.846H472.308V170.154Z" fill="#21459C"/>
<path d="M478 170.154H472.308V175.846H478V170.154Z" fill="#ED9392"/>
<path d="M483.692 170.154H478V175.846H483.692V170.154Z" fill="#ED9392"/>
<path d="M489.385 170.154H483.692V175.846H489.385V170.154Z" fill="#21459C"/>
<path d="M495.077 170.154H489.385V175.846H495.077V170.154Z" fill="#A7E2F8"/>
<path d="M500.769 170.154H495.077V175.846H500.769V170.154Z" fill="#21459C"/>
<path d="M506.461 170.154H500.769V175.846H506.461V170.154Z" fill="#EBA4C4"/>
<path d="M512.154 170.154H506.462V175.846H512.154V170.154Z" fill="#EBA4C4"/>
<path d="M517.846 170.154H512.154V175.846H517.846V170.154Z" fill="#EBA4C4"/>
<path d="M523.538 170.154H517.846V175.846H523.538V170.154Z" fill="#EBA4C4"/>
<path d="M529.231 170.154H523.538V175.846H529.231V170.154Z" fill="#EBA4C4"/>
<path d="M534.923 170.154H529.231V175.846H534.923V170.154Z" fill="#EBA4C4"/>
<path d="M540.615 170.154H534.923V175.846H540.615V170.154Z" fill="#EBA4C4"/>
<path d="M546.308 170.154H540.615V175.846H546.308V170.154Z" fill="#435BA3"/>
<path d="M552 170.154H546.308V175.846H552V170.154Z" fill="#EECC11"/>
<path d="M409.692 175.846H404V181.538H409.692V175.846Z" fill="#EECC11"/>
<path d="M415.385 175.846H409.692V181.538H415.385V175.846Z" fill="#21459C"/>
<path d="M421.077 175.846H415.385V181.538H421.077V175.846Z" fill="#EBA4C4"/>
<path d="M426.769 175.846H421.077V181.538H426.769V175.846Z" fill="#EBA4C4"/>
<path d="M432.462 175.846H426.769V181.538H432.462V175.846Z" fill="#EBA4C4"/>
<path d="M438.154 175.846H432.462V181.538H438.154V175.846Z" fill="#EBA4C4"/>
<path d="M443.846 175.846H438.154V181.538H443.846V175.846Z" fill="#EBA4C4"/>
<path d="M449.538 175.846H443.846V181.538H449.538V175.846Z" fill="#EBA4C4"/>
<path d="M455.231 175.846H449.538V181.538H455.231V175.846Z" fill="#21459C"/>
<path d="M460.923 175.846H455.231V181.538H460.923V175.846Z" fill="#4B6DBE"/>
<path d="M466.616 175.846H460.923V181.538H466.616V175.846Z" fill="#A7E2F8"/>
<path d="M472.308 175.846H466.615V181.538H472.308V175.846Z" fill="#A7E2F8"/>
<path d="M478 175.846H472.308V181.538H478V175.846Z" fill="#21459C"/>
<path d="M483.692 175.846H478V181.538H483.692V175.846Z" fill="#21459C"/>
<path d="M489.385 175.846H483.692V181.538H489.385V175.846Z" fill="#A7E2F8"/>
<path d="M495.077 175.846H489.385V181.538H495.077V175.846Z" fill="#A7E2F8"/>
<path d="M500.769 175.846H495.077V181.538H500.769V175.846Z" fill="#4B6DBE"/>
<path d="M506.461 175.846H500.769V181.538H506.461V175.846Z" fill="#21459C"/>
<path d="M512.154 175.846H506.462V181.538H512.154V175.846Z" fill="#EBA4C4"/>
<path d="M517.846 175.846H512.154V181.538H517.846V175.846Z" fill="#EBA4C4"/>
<path d="M523.538 175.846H517.846V181.538H523.538V175.846Z" fill="#EBA4C4"/>
<path d="M529.231 175.846H523.538V181.538H529.231V175.846Z" fill="#EBA4C4"/>
<path d="M534.923 175.846H529.231V181.538H534.923V175.846Z" fill="#EBA4C4"/>
<path d="M540.615 175.846H534.923V181.538H540.615V175.846Z" fill="#EBA4C4"/>
<path d="M546.308 175.846H540.615V181.538H546.308V175.846Z" fill="#21459C"/>
<path d="M552 175.846H546.308V181.538H552V175.846Z" fill="#EECC11"/>
<path d="M409.692 181.538H404V187.231H409.692V181.538Z" fill="#EECC11"/>
<path d="M415.385 181.538H409.692V187.231H415.385V181.538Z" fill="#21459C"/>
<path d="M421.077 181.538H415.385V187.231H421.077V181.538Z" fill="#EBA4C4"/>
<path d="M426.769 181.538H421.077V187.231H426.769V181.538Z" fill="#EBA4C4"/>
<path d="M432.462 181.538H426.769V187.231H432.462V181.538Z" fill="#EBA4C4"/>
<path d="M438.154 181.538H432.462V187.231H438.154V181.538Z" fill="#EBA4C4"/>
<path d="M443.846 181.538H438.154V187.231H443.846V181.538Z" fill="#EBA4C4"/>
<path d="M449.538 181.538H443.846V187.231H449.538V181.538Z" fill="#21459C"/>
<path d="M455.231 181.538H449.538V187.231H455.231V181.538Z" fill="#4B6DBE"/>
<path d="M460.923 181.538H455.231V187.231H460.923V181.538Z" fill="#0E3185"/>
<path d="M466.616 181.538H460.923V187.231H466.616V181.538Z" fill="#A7E2F8"/>
<path d="M472.308 181.538H466.615V187.231H472.308V181.538Z" fill="#21459C"/>
<path d="M478 181.538H472.308V187.231H478V181.538Z" fill="#1CA4D8"/>
<path d="M483.692 181.538H478V187.231H483.692V181.538Z" fill="#1CA4D8"/>
<path d="M489.385 181.538H483.692V187.231H489.385V181.538Z" fill="#21459C"/>
<path d="M495.077 181.538H489.385V187.231H495.077V181.538Z" fill="#A7E2F8"/>
<path d="M500.769 181.538H495.077V187.231H500.769V181.538Z" fill="#0E3185"/>
<path d="M506.461 181.538H500.769V187.231H506.461V181.538Z" fill="#4B6DBE"/>
<path d="M512.154 181.538H506.462V187.231H512.154V181.538Z" fill="#21459C"/>
<path d="M517.846 181.538H512.154V187.231H517.846V181.538Z" fill="#EBA4C4"/>
<path d="M523.538 181.538H517.846V187.231H523.538V181.538Z" fill="#EBA4C4"/>
<path d="M529.231 181.538H523.538V187.231H529.231V181.538Z" fill="#EBA4C4"/>
<path d="M534.923 181.538H529.231V187.231H534.923V181.538Z" fill="#EBA4C4"/>
<path d="M540.615 181.538H534.923V187.231H540.615V181.538Z" fill="#EBA4C4"/>
<path d="M546.308 181.538H540.615V187.231H546.308V181.538Z" fill="#21459C"/>
<path d="M552 181.538H546.308V187.231H552V181.538Z" fill="#EECC11"/>
<path d="M409.692 187.231H404V192.923H409.692V187.231Z" fill="#EECC11"/>
<path d="M415.385 187.231H409.692V192.923H415.385V187.231Z" fill="#21459C"/>
<path d="M421.077 187.231H415.385V192.923H421.077V187.231Z" fill="#EBA4C4"/>
<path d="M426.769 187.231H421.077V192.923H426.769V187.231Z" fill="#EBA4C4"/>
<path d="M432.462 187.231H426.769V192.923H432.462V187.231Z" fill="#EBA4C4"/>
<path d="M438.154 187.231H432.462V192.923H438.154V187.231Z" fill="#EBA4C4"/>
<path d="M443.846 187.231H438.154V192.923H443.846V187.231Z" fill="#21459C"/>
<path d="M449.538 187.231H443.846V192.923H449.538V187.231Z" fill="#4B6DBE"/>
<path d="M455.231 187.231H449.538V192.923H455.231V187.231Z" fill="#0E3185"/>
<path d="M460.923 187.231H455.231V192.923H460.923V187.231Z" fill="#0E3185"/>
<path d="M466.616 187.231H460.923V192.923H466.616V187.231Z" fill="#A7E2F8"/>
<path d="M472.308 187.231H466.615V192.923H472.308V187.231Z" fill="#63C5EA"/>
<path d="M478 187.231H472.308V192.923H478V187.231Z" fill="#1CA4D8"/>
<path d="M483.692 187.231H478V192.923H483.692V187.231Z" fill="#1CA4D8"/>
<path d="M489.385 187.231H483.692V192.923H489.385V187.231Z" fill="#63C5EA"/>
<path d="M495.077 187.231H489.385V192.923H495.077V187.231Z" fill="#A7E2F8"/>
<path d="M500.769 187.231H495.077V192.923H500.769V187.231Z" fill="#0E3185"/>
<path d="M506.461 187.231H500.769V192.923H506.461V187.231Z" fill="#0E3185"/>
<path d="M512.154 187.231H506.462V192.923H512.154V187.231Z" fill="#4B6DBE"/>
<path d="M517.846 187.231H512.154V192.923H517.846V187.231Z" fill="#21459C"/>
<path d="M523.538 187.231H517.846V192.923H523.538V187.231Z" fill="#EBA4C4"/>
<path d="M529.231 187.231H523.538V192.923H529.231V187.231Z" fill="#EBA4C4"/>
<path d="M534.923 187.231H529.231V192.923H534.923V187.231Z" fill="#EBA4C4"/>
<path d="M540.615 187.231H534.923V192.923H540.615V187.231Z" fill="#EBA4C4"/>
<path d="M546.308 187.231H540.615V192.923H546.308V187.231Z" fill="#21459C"/>
<path d="M552 187.231H546.308V192.923H552V187.231Z" fill="#EECC11"/>
<path d="M409.692 192.923H404V198.615H409.692V192.923Z" fill="#EECC11"/>
<path d="M415.385 192.923H409.692V198.615H415.385V192.923Z" fill="#21459C"/>
<path d="M421.077 192.923H415.385V198.615H421.077V192.923Z" fill="#EBA4C4"/>
<path d="M426.769 192.923H421.077V198.615H426.769V192.923Z" fill="#435BA3"/>
<path d="M432.462 192.923H426.769V198.615H432.462V192.923Z" fill="#EBA4C4"/>
<path d="M438.154 192.923H432.462V198.615H438.154V192.923Z" fill="#21459C"/>
<path d="M443.846 192.923H438.154V198.615H443.846V192.923Z" fill="#4B6DBE"/>
<path d="M449.538 192.923H443.846V198.615H449.538V192.923Z" fill="#21459C"/>
<path d="M455.231 192.923H449.538V198.615H455.231V192.923Z" fill="#0E3185"/>
<path d="M460.923 192.923H455.231V198.615H460.923V192.923Z" fill="#0E3185"/>
<path d="M466.616 192.923H460.923V198.615H466.616V192.923Z" fill="#0E3185"/>
<path d="M472.308 192.923H466.615V198.615H472.308V192.923Z" fill="#63C5EA"/>
<path d="M478 192.923H472.308V198.615H478V192.923Z" fill="#1CA4D8"/>
<path d="M483.692 192.923H478V198.615H483.692V192.923Z" fill="#1CA4D8"/>
<path d="M489.385 192.923H483.692V198.615H489.385V192.923Z" fill="#63C5EA"/>
<path d="M495.077 192.923H489.385V198.615H495.077V192.923Z" fill="#0E3185"/>
<path d="M500.769 192.923H495.077V198.615H500.769V192.923Z" fill="#0E3185"/>
<path d="M506.461 192.923H500.769V198.615H506.461V192.923Z" fill="#0E3185"/>
<path d="M512.154 192.923H506.462V198.615H512.154V192.923Z" fill="#21459C"/>
<path d="M517.846 192.923H512.154V198.615H517.846V192.923Z" fill="#4B6DBE"/>
<path d="M523.538 192.923H517.846V198.615H523.538V192.923Z" fill="#21459C"/>
<path d="M529.231 192.923H523.538V198.615H529.231V192.923Z" fill="#EBA4C4"/>
<path d="M534.923 192.923H529.231V198.615H534.923V192.923Z" fill="#435BA3"/>
<path d="M540.615 192.923H534.923V198.615H540.615V192.923Z" fill="#EBA4C4"/>
<path d="M546.308 192.923H540.615V198.615H546.308V192.923Z" fill="#21459C"/>
<path d="M552 192.923H546.308V198.615H552V192.923Z" fill="#EECC11"/>
<path d="M415.385 198.615H409.692V204.308H415.385V198.615Z" fill="#EECC11"/>
<path d="M421.077 198.615H415.385V204.308H421.077V198.615Z" fill="#21459C"/>
<path d="M426.769 198.615H421.077V204.308H426.769V198.615Z" fill="#EBA4C4"/>
<path d="M432.462 198.615H426.769V204.308H432.462V198.615Z" fill="#EBA4C4"/>
<path d="M438.154 198.615H432.462V204.308H438.154V198.615Z" fill="#21459C"/>
<path d="M443.846 198.615H438.154V204.308H443.846V198.615Z" fill="#0E3185"/>
<path d="M449.538 198.615H443.846V204.308H449.538V198.615Z" fill="#0E3185"/>
<path d="M455.231 198.615H449.538V204.308H455.231V198.615Z" fill="#21459C"/>
<path d="M460.923 198.615H455.231V204.308H460.923V198.615Z" fill="#0E3185"/>
<path d="M466.616 198.615H460.923V204.308H466.616V198.615Z" fill="#0E3185"/>
<path d="M472.308 198.615H466.615V204.308H472.308V198.615Z" fill="#63C5EA"/>
<path d="M478 198.615H472.308V204.308H478V198.615Z" fill="#1CA4D8"/>
<path d="M483.692 198.615H478V204.308H483.692V198.615Z" fill="#1CA4D8"/>
<path d="M489.385 198.615H483.692V204.308H489.385V198.615Z" fill="#63C5EA"/>
<path d="M495.077 198.615H489.385V204.308H495.077V198.615Z" fill="#0E3185"/>
<path d="M500.769 198.615H495.077V204.308H500.769V198.615Z" fill="#0E3185"/>
<path d="M506.461 198.615H500.769V204.308H506.461V198.615Z" fill="#21459C"/>
<path d="M512.154 198.615H506.462V204.308H512.154V198.615Z" fill="#0E3185"/>
<path d="M517.846 198.615H512.154V204.308H517.846V198.615Z" fill="#0E3185"/>
<path d="M523.538 198.615H517.846V204.308H523.538V198.615Z" fill="#21459C"/>
<path d="M529.231 198.615H523.538V204.308H529.231V198.615Z" fill="#EBA4C4"/>
<path d="M534.923 198.615H529.231V204.308H534.923V198.615Z" fill="#EBA4C4"/>
<path d="M540.615 198.615H534.923V204.308H540.615V198.615Z" fill="#21459C"/>
<path d="M546.308 198.615H540.615V204.308H546.308V198.615Z" fill="#EECC11"/>
<path d="M421.077 204.308H415.385V210H421.077V204.308Z" fill="#EECC11"/>
<path d="M426.769 204.308H421.077V210H426.769V204.308Z" fill="#21459C"/>
<path d="M432.462 204.308H426.769V210H432.462V204.308Z" fill="#21459C"/>
<path d="M438.154 204.308H432.462V210H438.154V204.308Z" fill="#21459C"/>
<path d="M443.846 204.308H438.154V210H443.846V204.308Z" fill="#21459C"/>
<path d="M449.538 204.308H443.846V210H449.538V204.308Z" fill="#21459C"/>
<path d="M455.231 204.308H449.538V210H455.231V204.308Z" fill="#21459C"/>
<path d="M460.923 204.308H455.231V210H460.923V204.308Z" fill="#21459C"/>
<path d="M466.616 204.308H460.923V210H466.616V204.308Z" fill="#21459C"/>
<path d="M472.308 204.308H466.615V210H472.308V204.308Z" fill="#21459C"/>
<path d="M478 204.308H472.308V210H478V204.308Z" fill="#21459C"/>
<path d="M483.692 204.308H478V210H483.692V204.308Z" fill="#21459C"/>
<path d="M489.385 204.308H483.692V210H489.385V204.308Z" fill="#21459C"/>
<path d="M495.077 204.308H489.385V210H495.077V204.308Z" fill="#21459C"/>
<path d="M500.769 204.308H495.077V210H500.769V204.308Z" fill="#21459C"/>
<path d="M506.461 204.308H500.769V210H506.461V204.308Z" fill="#21459C"/>
<path d="M512.154 204.308H506.462V210H512.154V204.308Z" fill="#21459C"/>
<path d="M517.846 204.308H512.154V210H517.846V204.308Z" fill="#21459C"/>
<path d="M523.538 204.308H517.846V210H523.538V204.308Z" fill="#21459C"/>
<path d="M529.231 204.308H523.538V210H529.231V204.308Z" fill="#21459C"/>
<path d="M534.923 204.308H529.231V210H534.923V204.308Z" fill="#21459C"/>
<path d="M540.615 204.308H534.923V210H540.615V204.308Z" fill="#EECC11"/>
<path d="M426.769 210H421.077V215.692H426.769V210Z" fill="#EECC11"/>
<path d="M432.462 210H426.769V215.692H432.462V210Z" fill="#EECC11"/>
<path d="M438.154 210H432.462V215.692H438.154V210Z" fill="#EECC11"/>
<path d="M443.846 210H438.154V215.692H443.846V210Z" fill="#EECC11"/>
<path d="M449.538 210H443.846V215.692H449.538V210Z" fill="#EECC11"/>
<path d="M455.231 210H449.538V215.692H455.231V210Z" fill="#EECC11"/>
<path d="M460.923 210H455.231V215.692H460.923V210Z" fill="#EECC11"/>
<path d="M466.616 210H460.923V215.692H466.616V210Z" fill="#EECC11"/>
<path d="M472.308 210H466.615V215.692H472.308V210Z" fill="#EECC11"/>
<path d="M478 210H472.308V215.692H478V210Z" fill="#EECC11"/>
<path d="M483.692 210H478V215.692H483.692V210Z" fill="#EECC11"/>
<path d="M489.385 210H483.692V215.692H489.385V210Z" fill="#EECC11"/>
<path d="M495.077 210H489.385V215.692H495.077V210Z" fill="#EECC11"/>
<path d="M500.769 210H495.077V215.692H500.769V210Z" fill="#EECC11"/>
<path d="M506.461 210H500.769V215.692H506.461V210Z" fill="#EECC11"/>
<path d="M512.154 210H506.462V215.692H512.154V210Z" fill="#EECC11"/>
<path d="M517.846 210H512.154V215.692H517.846V210Z" fill="#EECC11"/>
<path d="M523.538 210H517.846V215.692H523.538V210Z" fill="#EECC11"/>
<path d="M529.231 210H523.538V215.692H529.231V210Z" fill="#EECC11"/>
<path d="M534.923 210H529.231V215.692H534.923V210Z" fill="#EECC11"/>
</svg>
