<?xml version="1.0" encoding="utf-8"?>
<!-- Generator: Adobe Illustrator 27.9.0, SVG Export Plug-In . SVG Version: 6.00 Build 0)  -->
<svg version="1.1" id="Layer_1" xmlns="http://www.w3.org/2000/svg" xmlns:xlink="http://www.w3.org/1999/xlink" x="0px" y="0px"
	 viewBox="0 0 64 64" style="enable-background:new 0 0 64 64;" xml:space="preserve">
<style type="text/css">
	.st0{fill:#F4EBD4;}
</style>
<g>
	<path class="st0" d="M13.5,50.2C13.5,50.3,13.5,50.3,13.5,50.2C13.5,50.3,13.5,50.3,13.5,50.2C13.5,50.3,13.5,50.3,13.5,50.2
		c0,0.1,0,0.1,0,0.2c0,0,0,0,0,0c0,0,0,0.1,0,0.1l0,0c0,0,0,0,0,0c0,0,0,0,0,0c0,0,0,0,0,0.1c0,0,0,0.1,0,0.1c0,0,0,0,0,0
		c0,0,0,0.1,0,0.1c0,0,0,0.1,0.1,0.1c0,0,0,0,0,0l0,0c0,0,0,0.1,0.1,0.1c0,0,0,0.1,0.1,0.1l0,0c0,0,0,0,0,0l0.2,0.2c0,0,0,0,0,0
		c0,0,0,0,0.1,0s0,0,0.1,0.1l0,0c0,0,0,0,0,0c0,0,0,0,0,0c0,0,0,0,0.1,0l0,0c0,0,0.1,0,0.1,0c0,0,0,0,0,0c0,0,0,0,0,0
		c0,0,0.1,0,0.1,0c0,0,0.1,0,0.1,0c0,0,0,0,0,0c0,0,0,0,0,0c0,0,0,0,0,0c0,0,0.1,0,0.1,0l0,0c0,0,0.1,0,0.1,0l0,0c0,0,0,0,0,0
		c0,0,0,0,0,0c0.8-0.1,20.8-3,27.2-11.7c1.2-1.6,1.8-3.4,1.9-5.2c0,0,0,0,0.1,0c0.4,0,0.8-0.2,1-0.5l9.2-11.3l-13.3-13l-11.1,9.3
		c-0.3,0.3-0.5,0.6-0.5,1c0,0.1,0,0.3,0,0.4c-1.7,0.2-3.3,0.9-4.9,2C16.2,29.3,13.6,49.4,13.5,50.2z M39.8,31.2l1.5,1.5
		c0,0.2,0,0.3,0,0.5c0.3,1.9-0.1,3.6-1.3,5.3c-3.3,4.5-11.4,7.4-17.5,9C28.8,43.2,37.4,36.8,39.8,31.2z M36,27.4l1.6,1.6
		C36.5,34.1,26.2,41.6,19,46.3C23.5,39,30.9,28.6,36,27.4z M26.5,25.2c1.7-1.3,3.4-1.7,5.3-1.4c0.2,0,0.3,0,0.5,0l1.5,1.5
		c-5.6,2.6-11.9,11.2-15.9,17.6C19.3,36.6,22,28.5,26.5,25.2z"/>
</g>
</svg>
