<?xml version="1.0" encoding="utf-8"?>
<!-- Generator: Adobe Illustrator 27.9.0, SVG Export Plug-In . SVG Version: 6.00 Build 0)  -->
<svg version="1.1" id="Layer_1" xmlns="http://www.w3.org/2000/svg" xmlns:xlink="http://www.w3.org/1999/xlink" x="0px" y="0px"
	 viewBox="0 0 80 80" style="enable-background:new 0 0 80 80;" xml:space="preserve">
<style type="text/css">
	.st0{fill:#914938;}
</style>
<g>
	<g>
		<path class="st0" d="M66.5,65.2L45.8,35.1l-2.3-3.4L28.6,10.1l-1.2-1.8H9.1l4.4,6.5l19.7,28.7l2.3,3.4l15.8,23l1.2,1.8h18.2
			L66.5,65.2z M54.9,67.5L38.4,43.6l-2.3-3.4L17,12.5h8.2l15.4,22.4l2.3,3.4l20.1,29.2H54.9z"/>
		<polygon class="st0" points="36.1,40.2 38.4,43.6 35.6,46.9 14.3,71.7 9.1,71.7 33.3,43.5 		"/>
		<polygon class="st0" points="68.7,8.3 45.8,35.1 43,38.3 40.6,34.9 43.4,31.7 59,13.5 63.5,8.3 		"/>
	</g>
</g>
</svg>
