<?xml version="1.0" encoding="utf-8"?>
<!-- Generator: Adobe Illustrator 27.9.0, SVG Export Plug-In . SVG Version: 6.00 Build 0)  -->
<svg version="1.1" id="Layer_1" xmlns="http://www.w3.org/2000/svg" xmlns:xlink="http://www.w3.org/1999/xlink" x="0px" y="0px"
	 viewBox="0 0 500 430" style="enable-background:new 0 0 500 430;" xml:space="preserve">
<style type="text/css">
	.st0{fill:#914938;}
	.st1{fill:none;stroke:#914938;stroke-width:2;stroke-miterlimit:10;}
	.st2{fill:#914938;stroke:#914938;stroke-width:2;stroke-miterlimit:10;}
	.st3{fill:#F4EBD4;}
	.st4{font-family:'Roboto-Bold';}
	.st5{font-size:20.36px;}
</style>
<g id="Layer_1_00000016057390832513447620000002856616320758926761_">
	<path class="st0" d="M323.1,169.6c-1.1,4.7-2.2,9.4-3.6,13.7c63.4,11.2,86.8,50.8,86.8,93.2c0,57.2-49,91.8-139,101.9
		c-1.4-5-6.5-15.8-9.7-21.6c74.5-7.2,122.4-33.1,122.4-79.6v-2.5c-1.8-41.8-29.9-62.3-68.4-68.8c-15.5,40.7-41.8,78.5-71.6,105.8
		c2.5,7.6,5.8,14,9.4,19.4l-21.2,13.3c-3.2-5-6.1-11.2-8.6-18c-28.8,21.2-51.8,27-68,27c-28.8,0-43.6-21.2-43.6-47.9
		c0-49.7,41-89.3,93.2-110.2c-0.7-18.7-0.7-39.2-0.4-60.5c-60.8,0-67.3,0-79.2-0.7l-0.7-23.8c18.4,1.1,49.7,1.1,80.6,1.1
		c0.4-16.6,1.1-36.7,1.8-53.6l36,2.5c-0.4,3.6-4,6.5-9.4,7.2c-1.1,13.3-1.8,29.9-2.9,43.2c39.2-1.1,108-5.8,144.4-15.1l3.2,24.5
		c-38.2,9.4-107.6,13-148.7,14c-0.7,18.7-1.1,36.7-0.7,53.6c25.2-7.9,47.9-8.3,54-8.3c5.4,0,10.1,0,14.8,0.4
		c1.4-5.8,2.5-11.2,3.6-16.9L323.1,169.6L323.1,169.6z M212.6,303.9c-5.8-22.3-9-50.8-10.4-84.2c-39.2,17.3-69.8,47.2-69.8,82.1
		c0,21.2,11.9,28.4,24.8,27.7C174.1,329.1,193.6,319.4,212.6,303.9L212.6,303.9z M286.4,202.7c-5.8-0.4-33.8-1.1-60.8,8.6
		c0.7,29.2,3.2,54,8.3,74.2C255.5,263.6,274.9,234.4,286.4,202.7L286.4,202.7z"/>
	<path class="st1" d="M120.8,94.6c0,0,163.7,7.4,250.6-14.8"/>
	<polygon class="st2" points="362.8,81.8 361.4,77.2 367.7,77.7 374,78.2 369.1,82.2 364.3,86.3 	"/>
	<circle class="st2" cx="136.9" cy="67.7" r="16.1"/>
	<text transform="matrix(1 0 0 1 131.09 75)" class="st3 st4 st5">1</text>
	<circle class="st2" cx="268.7" cy="67.7" r="16.1"/>
	<text transform="matrix(1 0 0 1 262.88 75)" class="st3 st4 st5">2</text>
	<circle class="st2" cx="361.4" cy="169.9" r="16.1"/>
	<text transform="matrix(1 0 0 1 355.54 177.18)" class="st3 st4 st5">3</text>
	<path class="st1" d="M244.4,71.9c0,0-20.1,187.9,20,255.1"/>
	<polygon class="st2" points="262.3,323.3 266.3,320.7 267.5,326.9 268.7,333.1 263.5,329.5 258.4,325.9 	"/>
	<path class="st1" d="M190.4,356.6c0,0-73.9,33.3-92.2-19.3s26.1-104.6,26.1-104.6"/>
	<polygon class="st2" points="121.7,235.6 117.9,232.7 123.4,229.5 128.8,226.2 127.2,232.3 125.5,238.4 	"/>
	<path class="st1" d="M336,173.7c0,0-17.2,64.5-49.6,105"/>
	<polygon class="st2" points="288.5,276.1 291.9,279.4 286.1,282 280.3,284.5 282.7,278.7 285,272.8 	"/>
</g>
</svg>
