<?xml version="1.0" encoding="utf-8"?>
<!-- Generator: Adobe Illustrator 27.9.0, SVG Export Plug-In . SVG Version: 6.00 Build 0)  -->
<svg version="1.1" id="Layer_1" shape-rendering="crispEdges"
	 xmlns="http://www.w3.org/2000/svg" xmlns:xlink="http://www.w3.org/1999/xlink" x="0px" y="0px" viewBox="0 0 192 192"
	 style="enable-background:new 0 0 192 192;" xml:space="preserve">
<style type="text/css">
	.st0{fill:#EB97A7;}
	.st1{fill:#89251E;}
	.st2{fill:#A8274B;}
	.st3{fill:#E17557;}
	.st4{fill:#B96736;}
	.st5{fill:#9B462C;}
	.st6{fill:#B65638;}
	.st7{fill:#932936;}
	.st8{fill:#AC5034;}
	.st9{fill:#C86E38;}
	.st10{fill:#6F1747;}
	.st11{fill:#E6C874;}
	.st12{fill:#CF6F87;}
	.st13{fill:#6E1913;}
	.st14{fill:#E75D81;}
	.st15{fill:#F1B5AE;}
</style>
<g>
	<rect x="34.5" y="36.3" class="st0" width="6.2" height="6.2"/>
	<rect x="40.6" y="36.3" class="st0" width="6.2" height="6.2"/>
	<rect x="145.2" y="36.3" class="st0" width="6.2" height="6.2"/>
	<rect x="151.4" y="36.3" class="st0" width="6.2" height="6.2"/>
	<rect x="28.3" y="42.5" class="st0" width="6.2" height="6.2"/>
	<rect x="34.5" y="42.5" class="st1" width="6.2" height="6.2"/>
	<rect x="40.6" y="42.5" class="st1" width="6.2" height="6.2"/>
	<rect x="46.8" y="42.5" class="st0" width="6.2" height="6.2"/>
	<rect x="77.5" y="42.5" class="st0" width="6.2" height="6.2"/>
	<rect x="83.7" y="42.5" class="st0" width="6.2" height="6.2"/>
	<rect x="89.8" y="42.5" class="st0" width="6.2" height="6.2"/>
	<rect x="96" y="42.5" class="st0" width="6.2" height="6.2"/>
	<rect x="102.2" y="42.5" class="st0" width="6.2" height="6.2"/>
	<rect x="108.3" y="42.5" class="st0" width="6.2" height="6.2"/>
	<rect x="139" y="42.5" class="st0" width="6.2" height="6.2"/>
	<rect x="145.2" y="42.5" class="st2" width="6.2" height="6.2"/>
	<rect x="151.4" y="42.5" class="st2" width="6.2" height="6.2"/>
	<rect x="157.5" y="42.5" class="st0" width="6.2" height="6.2"/>
	<rect x="22.2" y="48.6" class="st0" width="6.2" height="6.2"/>
	<rect x="28.3" y="48.6" class="st1" width="6.2" height="6.2"/>
	<rect x="34.5" y="48.6" class="st3" width="6.2" height="6.2"/>
	<rect x="40.6" y="48.6" class="st4" width="6.2" height="6.2"/>
	<rect x="46.8" y="48.6" class="st1" width="6.2" height="6.2"/>
	<rect x="53" y="48.6" class="st0" width="6.2" height="6.2"/>
	<rect x="59" y="48.6" class="st0" width="6.2" height="6.2"/>
	<rect x="65.2" y="48.6" class="st0" width="6.2" height="6.2"/>
	<rect x="71.4" y="48.6" class="st0" width="6.2" height="6.2"/>
	<rect x="77.5" y="48.6" class="st1" width="6.2" height="6.2"/>
	<rect x="83.7" y="48.6" class="st1" width="6.2" height="6.2"/>
	<rect x="89.8" y="48.6" class="st1" width="6.2" height="6.2"/>
	<rect x="96" y="48.6" class="st2" width="6.2" height="6.2"/>
	<rect x="102.2" y="48.6" class="st2" width="6.2" height="6.2"/>
	<rect x="108.3" y="48.6" class="st2" width="6.2" height="6.2"/>
	<rect x="114.5" y="48.6" class="st0" width="6.2" height="6.2"/>
	<rect x="120.6" y="48.6" class="st0" width="6.2" height="6.2"/>
	<rect x="126.8" y="48.6" class="st0" width="6.2" height="6.2"/>
	<rect x="133" y="48.6" class="st0" width="6.2" height="6.2"/>
	<rect x="139" y="48.6" class="st2" width="6.2" height="6.2"/>
	<rect x="145.2" y="48.6" class="st4" width="6.2" height="6.2"/>
	<rect x="151.4" y="48.6" class="st3" width="6.2" height="6.2"/>
	<rect x="157.5" y="48.6" class="st2" width="6.2" height="6.2"/>
	<rect x="163.7" y="48.6" class="st0" width="6.2" height="6.2"/>
	<rect x="16" y="54.8" class="st0" width="6.2" height="6.2"/>
	<rect x="22.2" y="54.8" class="st1" width="6.2" height="6.2"/>
	<rect x="28.3" y="54.8" class="st3" width="6.2" height="6.2"/>
	<rect x="34.5" y="54.8" class="st4" width="6.2" height="6.2"/>
	<rect x="40.6" y="54.8" class="st4" width="6.2" height="6.2"/>
	<rect x="46.8" y="54.8" class="st5" width="6.2" height="6.2"/>
	<rect x="53" y="54.8" class="st1" width="6.2" height="6.2"/>
	<rect x="59" y="54.8" class="st1" width="6.2" height="6.2"/>
	<rect x="65.2" y="54.8" class="st1" width="6.2" height="6.2"/>
	<rect x="71.4" y="54.8" class="st1" width="6.2" height="6.2"/>
	<rect x="77.5" y="54.8" class="st6" width="6.2" height="6.2"/>
	<rect x="83.7" y="54.8" class="st6" width="6.2" height="6.2"/>
	<rect x="89.8" y="54.8" class="st6" width="6.2" height="6.2"/>
	<rect x="96" y="54.8" class="st6" width="6.2" height="6.2"/>
	<rect x="102.2" y="54.8" class="st6" width="6.2" height="6.2"/>
	<rect x="108.3" y="54.8" class="st6" width="6.2" height="6.2"/>
	<rect x="114.5" y="54.8" class="st2" width="6.2" height="6.2"/>
	<rect x="120.6" y="54.8" class="st2" width="6.2" height="6.2"/>
	<rect x="126.8" y="54.8" class="st2" width="6.2" height="6.2"/>
	<rect x="133" y="54.8" class="st2" width="6.2" height="6.2"/>
	<rect x="139" y="54.8" class="st5" width="6.2" height="6.2"/>
	<rect x="145.2" y="54.8" class="st4" width="6.2" height="6.2"/>
	<rect x="151.4" y="54.8" class="st4" width="6.2" height="6.2"/>
	<rect x="157.5" y="54.8" class="st3" width="6.2" height="6.2"/>
	<rect x="163.7" y="54.8" class="st2" width="6.2" height="6.2"/>
	<rect x="169.8" y="54.8" class="st0" width="6.2" height="6.2"/>
	<rect x="16" y="61" class="st0" width="6.2" height="6.2"/>
	<rect x="22.2" y="61" class="st1" width="6.2" height="6.2"/>
	<rect x="28.3" y="61" class="st3" width="6.2" height="6.2"/>
	<rect x="34.5" y="61" class="st4" width="6.2" height="6.2"/>
	<rect x="40.6" y="61" class="st5" width="6.2" height="6.2"/>
	<rect x="46.8" y="61" class="st5" width="6.2" height="6.2"/>
	<rect x="53" y="61" class="st1" width="6.2" height="6.2"/>
	<rect x="59" y="61" class="st7" width="6.2" height="6.2"/>
	<rect x="65.2" y="61" class="st6" width="6.2" height="6.2"/>
	<rect x="71.4" y="61" class="st6" width="6.2" height="6.2"/>
	<rect x="77.5" y="61" class="st6" width="6.2" height="6.2"/>
	<rect x="83.7" y="61" class="st6" width="6.2" height="6.2"/>
	<rect x="89.8" y="61" class="st6" width="6.2" height="6.2"/>
	<rect x="96" y="61" class="st6" width="6.2" height="6.2"/>
	<rect x="102.2" y="61" class="st6" width="6.2" height="6.2"/>
	<rect x="108.3" y="61" class="st6" width="6.2" height="6.2"/>
	<rect x="114.5" y="61" class="st6" width="6.2" height="6.2"/>
	<rect x="120.6" y="61" class="st6" width="6.2" height="6.2"/>
	<rect x="126.8" y="61" class="st7" width="6.2" height="6.2"/>
	<rect x="133" y="61" class="st2" width="6.2" height="6.2"/>
	<rect x="139" y="61" class="st5" width="6.2" height="6.2"/>
	<rect x="145.2" y="61" class="st5" width="6.2" height="6.2"/>
	<rect x="151.4" y="61" class="st4" width="6.2" height="6.2"/>
	<rect x="157.5" y="61" class="st3" width="6.2" height="6.2"/>
	<rect x="163.7" y="61" class="st2" width="6.2" height="6.2"/>
	<rect x="169.8" y="61" class="st0" width="6.2" height="6.2"/>
	<rect x="16" y="67" class="st0" width="6.2" height="6.2"/>
	<rect x="22.2" y="67" class="st1" width="6.2" height="6.2"/>
	<rect x="28.3" y="67" class="st4" width="6.2" height="6.2"/>
	<rect x="34.5" y="67" class="st5" width="6.2" height="6.2"/>
	<rect x="40.6" y="67" class="st5" width="6.2" height="6.2"/>
	<rect x="46.8" y="67" class="st1" width="6.2" height="6.2"/>
	<rect x="53" y="67" class="st6" width="6.2" height="6.2"/>
	<rect x="59" y="67" class="st6" width="6.2" height="6.2"/>
	<rect x="65.2" y="67" class="st6" width="6.2" height="6.2"/>
	<rect x="71.4" y="67" class="st6" width="6.2" height="6.2"/>
	<rect x="77.5" y="67" class="st6" width="6.2" height="6.2"/>
	<rect x="83.7" y="67" class="st6" width="6.2" height="6.2"/>
	<rect x="89.8" y="67" class="st6" width="6.2" height="6.2"/>
	<rect x="96" y="67" class="st6" width="6.2" height="6.2"/>
	<rect x="102.2" y="67" class="st6" width="6.2" height="6.2"/>
	<rect x="108.3" y="67" class="st6" width="6.2" height="6.2"/>
	<rect x="114.5" y="67" class="st6" width="6.2" height="6.2"/>
	<rect x="120.6" y="67" class="st6" width="6.2" height="6.2"/>
	<rect x="126.8" y="67" class="st6" width="6.2" height="6.2"/>
	<rect x="133" y="67" class="st6" width="6.2" height="6.2"/>
	<rect x="139" y="67" class="st1" width="6.2" height="6.2"/>
	<rect x="145.2" y="67" class="st5" width="6.2" height="6.2"/>
	<rect x="151.4" y="67" class="st5" width="6.2" height="6.2"/>
	<rect x="157.5" y="67" class="st4" width="6.2" height="6.2"/>
	<rect x="163.7" y="67" class="st2" width="6.2" height="6.2"/>
	<rect x="169.8" y="67" class="st0" width="6.2" height="6.2"/>
	<rect x="22.2" y="73.2" class="st0" width="6.2" height="6.2"/>
	<rect x="28.3" y="73.2" class="st1" width="6.2" height="6.2"/>
	<rect x="34.5" y="73.2" class="st5" width="6.2" height="6.2"/>
	<rect x="40.6" y="73.2" class="st1" width="6.2" height="6.2"/>
	<rect x="46.8" y="73.2" class="st6" width="6.2" height="6.2"/>
	<rect x="53" y="73.2" class="st6" width="6.2" height="6.2"/>
	<rect x="59" y="73.2" class="st6" width="6.2" height="6.2"/>
	<rect x="65.2" y="73.2" class="st6" width="6.2" height="6.2"/>
	<rect x="71.4" y="73.2" class="st6" width="6.2" height="6.2"/>
	<rect x="77.5" y="73.2" class="st6" width="6.2" height="6.2"/>
	<rect x="83.7" y="73.2" class="st6" width="6.2" height="6.2"/>
	<rect x="89.8" y="73.2" class="st5" width="6.2" height="6.2"/>
	<rect x="96" y="73.2" class="st8" width="6.2" height="6.2"/>
	<rect x="102.2" y="73.2" class="st6" width="6.2" height="6.2"/>
	<rect x="108.3" y="73.2" class="st6" width="6.2" height="6.2"/>
	<rect x="114.5" y="73.2" class="st6" width="6.2" height="6.2"/>
	<rect x="120.6" y="73.2" class="st6" width="6.2" height="6.2"/>
	<rect x="126.8" y="73.2" class="st6" width="6.2" height="6.2"/>
	<rect x="133" y="73.2" class="st6" width="6.2" height="6.2"/>
	<rect x="139" y="73.2" class="st6" width="6.2" height="6.2"/>
	<rect x="145.2" y="73.2" class="st2" width="6.2" height="6.2"/>
	<rect x="151.4" y="73.2" class="st5" width="6.2" height="6.2"/>
	<rect x="157.5" y="73.2" class="st2" width="6.2" height="6.2"/>
	<rect x="163.7" y="73.2" class="st0" width="6.2" height="6.2"/>
	<rect x="28.3" y="79.4" class="st0" width="6.2" height="6.2"/>
	<rect x="34.5" y="79.4" class="st1" width="6.2" height="6.2"/>
	<rect x="40.6" y="79.4" class="st6" width="6.2" height="6.2"/>
	<rect x="46.8" y="79.4" class="st6" width="6.2" height="6.2"/>
	<rect x="53" y="79.4" class="st6" width="6.2" height="6.2"/>
	<rect x="59" y="79.4" class="st6" width="6.2" height="6.2"/>
	<rect x="65.2" y="79.4" class="st6" width="6.2" height="6.2"/>
	<rect x="71.4" y="79.4" class="st6" width="6.2" height="6.2"/>
	<rect x="77.5" y="79.4" class="st6" width="6.2" height="6.2"/>
	<rect x="83.7" y="79.4" class="st5" width="6.2" height="6.2"/>
	<rect x="89.8" y="79.4" class="st4" width="6.2" height="6.2"/>
	<rect x="96" y="79.4" class="st9" width="6.2" height="6.2"/>
	<rect x="102.2" y="79.4" class="st8" width="6.2" height="6.2"/>
	<rect x="108.3" y="79.4" class="st6" width="6.2" height="6.2"/>
	<rect x="114.5" y="79.4" class="st6" width="6.2" height="6.2"/>
	<rect x="120.6" y="79.4" class="st6" width="6.2" height="6.2"/>
	<rect x="126.8" y="79.4" class="st6" width="6.2" height="6.2"/>
	<rect x="133" y="79.4" class="st6" width="6.2" height="6.2"/>
	<rect x="139" y="79.4" class="st6" width="6.2" height="6.2"/>
	<rect x="145.2" y="79.4" class="st6" width="6.2" height="6.2"/>
	<rect x="151.4" y="79.4" class="st2" width="6.2" height="6.2"/>
	<rect x="157.5" y="79.4" class="st0" width="6.2" height="6.2"/>
	<rect x="28.3" y="85.5" class="st0" width="6.2" height="6.2"/>
	<rect x="34.5" y="85.5" class="st1" width="6.2" height="6.2"/>
	<rect x="40.6" y="85.5" class="st6" width="6.2" height="6.2"/>
	<rect x="46.8" y="85.5" class="st6" width="6.2" height="6.2"/>
	<rect x="53" y="85.5" class="st6" width="6.2" height="6.2"/>
	<rect x="59" y="85.5" class="st10" width="6.2" height="6.2"/>
	<rect x="65.2" y="85.5" class="st11" width="6.2" height="6.2"/>
	<rect x="71.4" y="85.5" class="st6" width="6.2" height="6.2"/>
	<rect x="77.5" y="85.5" class="st3" width="6.2" height="6.2"/>
	<rect x="83.7" y="85.5" class="st5" width="6.2" height="6.2"/>
	<rect x="89.8" y="85.5" class="st4" width="6.2" height="6.2"/>
	<rect x="96" y="85.5" class="st9" width="6.2" height="6.2"/>
	<rect x="102.2" y="85.5" class="st8" width="6.2" height="6.2"/>
	<rect x="108.3" y="85.5" class="st3" width="6.2" height="6.2"/>
	<rect x="114.5" y="85.5" class="st6" width="6.2" height="6.2"/>
	<rect x="120.6" y="85.5" class="st10" width="6.2" height="6.2"/>
	<rect x="126.8" y="85.5" class="st11" width="6.2" height="6.2"/>
	<rect x="133" y="85.5" class="st6" width="6.2" height="6.2"/>
	<rect x="139" y="85.5" class="st6" width="6.2" height="6.2"/>
	<rect x="145.2" y="85.5" class="st6" width="6.2" height="6.2"/>
	<rect x="151.4" y="85.5" class="st2" width="6.2" height="6.2"/>
	<rect x="157.5" y="85.5" class="st0" width="6.2" height="6.2"/>
	<rect x="22.2" y="91.7" class="st0" width="6.2" height="6.2"/>
	<rect x="28.3" y="91.7" class="st1" width="6.2" height="6.2"/>
	<rect x="34.5" y="91.7" class="st6" width="6.2" height="6.2"/>
	<rect x="40.6" y="91.7" class="st6" width="6.2" height="6.2"/>
	<rect x="46.8" y="91.7" class="st6" width="6.2" height="6.2"/>
	<rect x="53" y="91.7" class="st6" width="6.2" height="6.2"/>
	<rect x="59" y="91.7" class="st10" width="6.2" height="6.2"/>
	<rect x="65.2" y="91.7" class="st10" width="6.2" height="6.2"/>
	<rect x="71.4" y="91.7" class="st6" width="6.2" height="6.2"/>
	<rect x="77.5" y="91.7" class="st3" width="6.2" height="6.2"/>
	<rect x="83.7" y="91.7" class="st4" width="6.2" height="6.2"/>
	<rect x="89.8" y="91.7" class="st4" width="6.2" height="6.2"/>
	<rect x="96" y="91.7" class="st9" width="6.2" height="6.2"/>
	<rect x="102.2" y="91.7" class="st9" width="6.2" height="6.2"/>
	<rect x="108.3" y="91.7" class="st3" width="6.2" height="6.2"/>
	<rect x="114.5" y="91.7" class="st6" width="6.2" height="6.2"/>
	<rect x="120.6" y="91.7" class="st10" width="6.2" height="6.2"/>
	<rect x="126.8" y="91.7" class="st10" width="6.2" height="6.2"/>
	<rect x="133" y="91.7" class="st6" width="6.2" height="6.2"/>
	<rect x="139" y="91.7" class="st6" width="6.2" height="6.2"/>
	<rect x="145.2" y="91.7" class="st6" width="6.2" height="6.2"/>
	<rect x="151.4" y="91.7" class="st6" width="6.2" height="6.2"/>
	<rect x="157.5" y="91.7" class="st2" width="6.2" height="6.2"/>
	<rect x="163.7" y="91.7" class="st0" width="6.2" height="6.2"/>
	<rect x="22.2" y="97.8" class="st0" width="6.2" height="6.2"/>
	<rect x="28.3" y="97.8" class="st1" width="6.2" height="6.2"/>
	<rect x="34.5" y="97.8" class="st6" width="6.2" height="6.2"/>
	<rect x="40.6" y="97.8" class="st6" width="6.2" height="6.2"/>
	<rect x="46.8" y="97.8" class="st12" width="6.2" height="6.2"/>
	<rect x="53" y="97.8" class="st6" width="6.2" height="6.2"/>
	<rect x="59" y="97.8" class="st6" width="6.2" height="6.2"/>
	<rect x="65.2" y="97.8" class="st6" width="6.2" height="6.2"/>
	<rect x="71.4" y="97.8" class="st3" width="6.2" height="6.2"/>
	<rect x="77.5" y="97.8" class="st3" width="6.2" height="6.2"/>
	<rect x="83.7" y="97.8" class="st13" width="6.2" height="6.2"/>
	<rect x="89.8" y="97.8" class="st13" width="6.2" height="6.2"/>
	<rect x="96" y="97.8" class="st1" width="6.2" height="6.2"/>
	<rect x="102.2" y="97.8" class="st1" width="6.2" height="6.2"/>
	<rect x="108.3" y="97.8" class="st3" width="6.2" height="6.2"/>
	<rect x="114.5" y="97.8" class="st3" width="6.2" height="6.2"/>
	<rect x="120.6" y="97.8" class="st6" width="6.2" height="6.2"/>
	<rect x="126.8" y="97.8" class="st6" width="6.2" height="6.2"/>
	<rect x="133" y="97.8" class="st6" width="6.2" height="6.2"/>
	<rect x="139" y="97.8" class="st12" width="6.2" height="6.2"/>
	<rect x="145.2" y="97.8" class="st6" width="6.2" height="6.2"/>
	<rect x="151.4" y="97.8" class="st6" width="6.2" height="6.2"/>
	<rect x="157.5" y="97.8" class="st2" width="6.2" height="6.2"/>
	<rect x="163.7" y="97.8" class="st0" width="6.2" height="6.2"/>
	<rect x="22.2" y="104" class="st0" width="6.2" height="6.2"/>
	<rect x="28.3" y="104" class="st1" width="6.2" height="6.2"/>
	<rect x="34.5" y="104" class="st6" width="6.2" height="6.2"/>
	<rect x="40.6" y="104" class="st6" width="6.2" height="6.2"/>
	<rect x="46.8" y="104" class="st6" width="6.2" height="6.2"/>
	<rect x="53" y="104" class="st12" width="6.2" height="6.2"/>
	<rect x="59" y="104" class="st14" width="6.2" height="6.2"/>
	<rect x="65.2" y="104" class="st3" width="6.2" height="6.2"/>
	<rect x="71.4" y="104" class="st3" width="6.2" height="6.2"/>
	<rect x="77.5" y="104" class="st13" width="6.2" height="6.2"/>
	<rect x="83.7" y="104" class="st13" width="6.2" height="6.2"/>
	<rect x="89.8" y="104" class="st13" width="6.2" height="6.2"/>
	<rect x="96" y="104" class="st1" width="6.2" height="6.2"/>
	<rect x="102.2" y="104" class="st15" width="6.2" height="6.2"/>
	<rect x="108.3" y="104" class="st1" width="6.2" height="6.2"/>
	<rect x="114.5" y="104" class="st3" width="6.2" height="6.2"/>
	<rect x="120.6" y="104" class="st3" width="6.2" height="6.2"/>
	<rect x="126.8" y="104" class="st14" width="6.2" height="6.2"/>
	<rect x="133" y="104" class="st12" width="6.2" height="6.2"/>
	<rect x="139" y="104" class="st6" width="6.2" height="6.2"/>
	<rect x="145.2" y="104" class="st6" width="6.2" height="6.2"/>
	<rect x="151.4" y="104" class="st6" width="6.2" height="6.2"/>
	<rect x="157.5" y="104" class="st2" width="6.2" height="6.2"/>
	<rect x="163.7" y="104" class="st0" width="6.2" height="6.2"/>
	<rect x="22.2" y="110.2" class="st0" width="6.2" height="6.2"/>
	<rect x="28.3" y="110.2" class="st1" width="6.2" height="6.2"/>
	<rect x="34.5" y="110.2" class="st6" width="6.2" height="6.2"/>
	<rect x="40.6" y="110.2" class="st6" width="6.2" height="6.2"/>
	<rect x="46.8" y="110.2" class="st6" width="6.2" height="6.2"/>
	<rect x="53" y="110.2" class="st14" width="6.2" height="6.2"/>
	<rect x="59" y="110.2" class="st0" width="6.2" height="6.2"/>
	<rect x="65.2" y="110.2" class="st14" width="6.2" height="6.2"/>
	<rect x="71.4" y="110.2" class="st3" width="6.2" height="6.2"/>
	<rect x="77.5" y="110.2" class="st13" width="6.2" height="6.2"/>
	<rect x="83.7" y="110.2" class="st13" width="6.2" height="6.2"/>
	<rect x="89.8" y="110.2" class="st13" width="6.2" height="6.2"/>
	<rect x="96" y="110.2" class="st1" width="6.2" height="6.2"/>
	<rect x="102.2" y="110.2" class="st1" width="6.2" height="6.2"/>
	<rect x="108.3" y="110.2" class="st1" width="6.2" height="6.2"/>
	<rect x="114.5" y="110.2" class="st3" width="6.2" height="6.2"/>
	<rect x="120.6" y="110.2" class="st14" width="6.2" height="6.2"/>
	<rect x="126.8" y="110.2" class="st0" width="6.2" height="6.2"/>
	<rect x="133" y="110.2" class="st14" width="6.2" height="6.2"/>
	<rect x="139" y="110.2" class="st6" width="6.2" height="6.2"/>
	<rect x="145.2" y="110.2" class="st6" width="6.2" height="6.2"/>
	<rect x="151.4" y="110.2" class="st6" width="6.2" height="6.2"/>
	<rect x="157.5" y="110.2" class="st2" width="6.2" height="6.2"/>
	<rect x="163.7" y="110.2" class="st0" width="6.2" height="6.2"/>
	<rect x="22.2" y="116.3" class="st0" width="6.2" height="6.2"/>
	<rect x="28.3" y="116.3" class="st1" width="6.2" height="6.2"/>
	<rect x="34.5" y="116.3" class="st6" width="6.2" height="6.2"/>
	<rect x="40.6" y="116.3" class="st4" width="6.2" height="6.2"/>
	<rect x="46.8" y="116.3" class="st6" width="6.2" height="6.2"/>
	<rect x="53" y="116.3" class="st12" width="6.2" height="6.2"/>
	<rect x="59" y="116.3" class="st14" width="6.2" height="6.2"/>
	<rect x="65.2" y="116.3" class="st12" width="6.2" height="6.2"/>
	<rect x="71.4" y="116.3" class="st3" width="6.2" height="6.2"/>
	<rect x="77.5" y="116.3" class="st3" width="6.2" height="6.2"/>
	<rect x="83.7" y="116.3" class="st13" width="6.2" height="6.2"/>
	<rect x="89.8" y="116.3" class="st13" width="6.2" height="6.2"/>
	<rect x="96" y="116.3" class="st1" width="6.2" height="6.2"/>
	<rect x="102.2" y="116.3" class="st1" width="6.2" height="6.2"/>
	<rect x="108.3" y="116.3" class="st3" width="6.2" height="6.2"/>
	<rect x="114.5" y="116.3" class="st3" width="6.2" height="6.2"/>
	<rect x="120.6" y="116.3" class="st12" width="6.2" height="6.2"/>
	<rect x="126.8" y="116.3" class="st14" width="6.2" height="6.2"/>
	<rect x="133" y="116.3" class="st12" width="6.2" height="6.2"/>
	<rect x="139" y="116.3" class="st6" width="6.2" height="6.2"/>
	<rect x="145.2" y="116.3" class="st4" width="6.2" height="6.2"/>
	<rect x="151.4" y="116.3" class="st6" width="6.2" height="6.2"/>
	<rect x="157.5" y="116.3" class="st2" width="6.2" height="6.2"/>
	<rect x="163.7" y="116.3" class="st0" width="6.2" height="6.2"/>
	<rect x="22.2" y="122.5" class="st0" width="6.2" height="6.2"/>
	<rect x="28.3" y="122.5" class="st1" width="6.2" height="6.2"/>
	<rect x="34.5" y="122.5" class="st6" width="6.2" height="6.2"/>
	<rect x="40.6" y="122.5" class="st7" width="6.2" height="6.2"/>
	<rect x="46.8" y="122.5" class="st6" width="6.2" height="6.2"/>
	<rect x="53" y="122.5" class="st6" width="6.2" height="6.2"/>
	<rect x="59" y="122.5" class="st6" width="6.2" height="6.2"/>
	<rect x="65.2" y="122.5" class="st6" width="6.2" height="6.2"/>
	<rect x="71.4" y="122.5" class="st13" width="6.2" height="6.2"/>
	<rect x="77.5" y="122.5" class="st3" width="6.2" height="6.2"/>
	<rect x="83.7" y="122.5" class="st3" width="6.2" height="6.2"/>
	<rect x="89.8" y="122.5" class="st13" width="6.2" height="6.2"/>
	<rect x="96" y="122.5" class="st1" width="6.2" height="6.2"/>
	<rect x="102.2" y="122.5" class="st3" width="6.2" height="6.2"/>
	<rect x="108.3" y="122.5" class="st3" width="6.2" height="6.2"/>
	<rect x="114.5" y="122.5" class="st7" width="6.2" height="6.2"/>
	<rect x="120.6" y="122.5" class="st6" width="6.2" height="6.2"/>
	<rect x="126.8" y="122.5" class="st6" width="6.2" height="6.2"/>
	<rect x="133" y="122.5" class="st6" width="6.2" height="6.2"/>
	<rect x="139" y="122.5" class="st6" width="6.2" height="6.2"/>
	<rect x="145.2" y="122.5" class="st7" width="6.2" height="6.2"/>
	<rect x="151.4" y="122.5" class="st6" width="6.2" height="6.2"/>
	<rect x="157.5" y="122.5" class="st2" width="6.2" height="6.2"/>
	<rect x="163.7" y="122.5" class="st0" width="6.2" height="6.2"/>
	<rect x="28.3" y="128.6" class="st0" width="6.2" height="6.2"/>
	<rect x="34.5" y="128.6" class="st1" width="6.2" height="6.2"/>
	<rect x="40.6" y="128.6" class="st6" width="6.2" height="6.2"/>
	<rect x="46.8" y="128.6" class="st6" width="6.2" height="6.2"/>
	<rect x="53" y="128.6" class="st6" width="6.2" height="6.2"/>
	<rect x="59" y="128.6" class="st6" width="6.2" height="6.2"/>
	<rect x="65.2" y="128.6" class="st6" width="6.2" height="6.2"/>
	<rect x="71.4" y="128.6" class="st6" width="6.2" height="6.2"/>
	<rect x="77.5" y="128.6" class="st13" width="6.2" height="6.2"/>
	<rect x="83.7" y="128.6" class="st13" width="6.2" height="6.2"/>
	<rect x="89.8" y="128.6" class="st13" width="6.2" height="6.2"/>
	<rect x="96" y="128.6" class="st13" width="6.2" height="6.2"/>
	<rect x="102.2" y="128.6" class="st1" width="6.2" height="6.2"/>
	<rect x="108.3" y="128.6" class="st7" width="6.2" height="6.2"/>
	<rect x="114.5" y="128.6" class="st6" width="6.2" height="6.2"/>
	<rect x="120.6" y="128.6" class="st6" width="6.2" height="6.2"/>
	<rect x="126.8" y="128.6" class="st6" width="6.2" height="6.2"/>
	<rect x="133" y="128.6" class="st6" width="6.2" height="6.2"/>
	<rect x="139" y="128.6" class="st6" width="6.2" height="6.2"/>
	<rect x="145.2" y="128.6" class="st6" width="6.2" height="6.2"/>
	<rect x="151.4" y="128.6" class="st2" width="6.2" height="6.2"/>
	<rect x="157.5" y="128.6" class="st0" width="6.2" height="6.2"/>
	<rect x="34.5" y="134.8" class="st0" width="6.2" height="6.2"/>
	<rect x="40.6" y="134.8" class="st1" width="6.2" height="6.2"/>
	<rect x="46.8" y="134.8" class="st6" width="6.2" height="6.2"/>
	<rect x="53" y="134.8" class="st7" width="6.2" height="6.2"/>
	<rect x="59" y="134.8" class="st6" width="6.2" height="6.2"/>
	<rect x="65.2" y="134.8" class="st6" width="6.2" height="6.2"/>
	<rect x="71.4" y="134.8" class="st6" width="6.2" height="6.2"/>
	<rect x="77.5" y="134.8" class="st6" width="6.2" height="6.2"/>
	<rect x="83.7" y="134.8" class="st4" width="6.2" height="6.2"/>
	<rect x="89.8" y="134.8" class="st4" width="6.2" height="6.2"/>
	<rect x="96" y="134.8" class="st9" width="6.2" height="6.2"/>
	<rect x="102.2" y="134.8" class="st9" width="6.2" height="6.2"/>
	<rect x="108.3" y="134.8" class="st6" width="6.2" height="6.2"/>
	<rect x="114.5" y="134.8" class="st6" width="6.2" height="6.2"/>
	<rect x="120.6" y="134.8" class="st6" width="6.2" height="6.2"/>
	<rect x="126.8" y="134.8" class="st6" width="6.2" height="6.2"/>
	<rect x="133" y="134.8" class="st7" width="6.2" height="6.2"/>
	<rect x="139" y="134.8" class="st6" width="6.2" height="6.2"/>
	<rect x="145.2" y="134.8" class="st1" width="6.2" height="6.2"/>
	<rect x="151.4" y="134.8" class="st0" width="6.2" height="6.2"/>
	<rect x="40.6" y="141" class="st0" width="6.2" height="6.2"/>
	<rect x="46.8" y="141" class="st1" width="6.2" height="6.2"/>
	<rect x="53" y="141" class="st5" width="6.2" height="6.2"/>
	<rect x="59" y="141" class="st7" width="6.2" height="6.2"/>
	<rect x="65.2" y="141" class="st6" width="6.2" height="6.2"/>
	<rect x="71.4" y="141" class="st6" width="6.2" height="6.2"/>
	<rect x="77.5" y="141" class="st6" width="6.2" height="6.2"/>
	<rect x="83.7" y="141" class="st6" width="6.2" height="6.2"/>
	<rect x="89.8" y="141" class="st5" width="6.2" height="6.2"/>
	<rect x="96" y="141" class="st8" width="6.2" height="6.2"/>
	<rect x="102.2" y="141" class="st6" width="6.2" height="6.2"/>
	<rect x="108.3" y="141" class="st6" width="6.2" height="6.2"/>
	<rect x="114.5" y="141" class="st6" width="6.2" height="6.2"/>
	<rect x="120.6" y="141" class="st6" width="6.2" height="6.2"/>
	<rect x="126.8" y="141" class="st7" width="6.2" height="6.2"/>
	<rect x="133" y="141" class="st5" width="6.2" height="6.2"/>
	<rect x="139" y="141" class="st2" width="6.2" height="6.2"/>
	<rect x="145.2" y="141" class="st0" width="6.2" height="6.2"/>
	<rect x="46.8" y="147" class="st0" width="6.2" height="6.2"/>
	<rect x="53" y="147" class="st1" width="6.2" height="6.2"/>
	<rect x="59" y="147" class="st1" width="6.2" height="6.2"/>
	<rect x="65.2" y="147" class="st5" width="6.2" height="6.2"/>
	<rect x="71.4" y="147" class="st7" width="6.2" height="6.2"/>
	<rect x="77.5" y="147" class="st6" width="6.2" height="6.2"/>
	<rect x="83.7" y="147" class="st6" width="6.2" height="6.2"/>
	<rect x="89.8" y="147" class="st6" width="6.2" height="6.2"/>
	<rect x="96" y="147" class="st6" width="6.2" height="6.2"/>
	<rect x="102.2" y="147" class="st6" width="6.2" height="6.2"/>
	<rect x="108.3" y="147" class="st6" width="6.2" height="6.2"/>
	<rect x="114.5" y="147" class="st7" width="6.2" height="6.2"/>
	<rect x="120.6" y="147" class="st5" width="6.2" height="6.2"/>
	<rect x="126.8" y="147" class="st2" width="6.2" height="6.2"/>
	<rect x="133" y="147" class="st2" width="6.2" height="6.2"/>
	<rect x="139" y="147" class="st0" width="6.2" height="6.2"/>
	<rect x="53" y="153.2" class="st0" width="6.2" height="6.2"/>
	<rect x="59" y="153.2" class="st0" width="6.2" height="6.2"/>
	<rect x="65.2" y="153.2" class="st1" width="6.2" height="6.2"/>
	<rect x="71.4" y="153.2" class="st5" width="6.2" height="6.2"/>
	<rect x="77.5" y="153.2" class="st7" width="6.2" height="6.2"/>
	<rect x="83.7" y="153.2" class="st6" width="6.2" height="6.2"/>
	<rect x="89.8" y="153.2" class="st6" width="6.2" height="6.2"/>
	<rect x="96" y="153.2" class="st6" width="6.2" height="6.2"/>
	<rect x="102.2" y="153.2" class="st6" width="6.2" height="6.2"/>
	<rect x="108.3" y="153.2" class="st2" width="6.2" height="6.2"/>
	<rect x="114.5" y="153.2" class="st5" width="6.2" height="6.2"/>
	<rect x="120.6" y="153.2" class="st2" width="6.2" height="6.2"/>
	<rect x="126.8" y="153.2" class="st0" width="6.2" height="6.2"/>
	<rect x="133" y="153.2" class="st0" width="6.2" height="6.2"/>
	<rect x="65.2" y="159.4" class="st0" width="6.2" height="6.2"/>
	<rect x="71.4" y="159.4" class="st0" width="6.2" height="6.2"/>
	<rect x="77.5" y="159.4" class="st0" width="6.2" height="6.2"/>
	<rect x="83.7" y="159.4" class="st1" width="6.2" height="6.2"/>
	<rect x="89.8" y="159.4" class="st1" width="6.2" height="6.2"/>
	<rect x="96" y="159.4" class="st2" width="6.2" height="6.2"/>
	<rect x="102.2" y="159.4" class="st2" width="6.2" height="6.2"/>
	<rect x="108.3" y="159.4" class="st0" width="6.2" height="6.2"/>
	<rect x="114.5" y="159.4" class="st0" width="6.2" height="6.2"/>
	<rect x="120.6" y="159.4" class="st0" width="6.2" height="6.2"/>
	<rect x="83.7" y="165.5" class="st0" width="6.2" height="6.2"/>
	<rect x="89.8" y="165.5" class="st0" width="6.2" height="6.2"/>
	<rect x="96" y="165.5" class="st0" width="6.2" height="6.2"/>
	<rect x="102.2" y="165.5" class="st0" width="6.2" height="6.2"/>
</g>
</svg>
