<?xml version="1.0" encoding="utf-8"?>
<!-- Generator: Adobe Illustrator 27.9.0, SVG Export Plug-In . SVG Version: 6.00 Build 0)  -->
<svg version="1.1" id="Layer_1" shape-rendering="crispEdges"
	 xmlns="http://www.w3.org/2000/svg" xmlns:xlink="http://www.w3.org/1999/xlink" x="0px" y="0px" viewBox="0 0 192 192"
	 style="enable-background:new 0 0 192 192;" xml:space="preserve">
<style type="text/css">
	.st0{fill:#EB97A7;}
	.st1{fill:#C73D62;}
	.st2{fill:#A8274B;}
	.st3{fill:#981D48;}
	.st4{fill:#DA7FA0;}
	.st5{fill:#ECE7E8;}
	.st6{fill:#CF6F87;}
	.st7{fill:#F1B5AE;}
	.st8{fill:#E87687;}
	.st9{fill:#F1BAC7;}
	.st10{fill:#B55D83;}
	.st11{fill:#E75D81;}
	.st12{fill:#8D5386;}
	.st13{fill:#733C81;}
	.st14{fill:#97C0E0;}
	.st15{fill:#694F86;}
	.st16{fill:#A39EC6;}
	.st17{fill:#185589;}
	.st18{fill:#172B69;}
	.st19{fill:#1F649B;}
	.st20{fill:#388A84;}
	.st21{fill:#283C82;}
	.st22{fill:#5EC58B;}
</style>
<g>
	<rect x="71.7" y="17" class="st0" width="6.1" height="6.1"/>
	<rect x="77.8" y="17" class="st0" width="6.1" height="6.1"/>
	<rect x="83.8" y="17" class="st0" width="6.1" height="6.1"/>
	<rect x="89.9" y="17" class="st0" width="6.1" height="6.1"/>
	<rect x="96" y="17" class="st0" width="6.1" height="6.1"/>
	<rect x="102.1" y="17" class="st0" width="6.1" height="6.1"/>
	<rect x="108.2" y="17" class="st0" width="6.1" height="6.1"/>
	<rect x="114.2" y="17" class="st0" width="6.1" height="6.1"/>
	<rect x="65.6" y="23.1" class="st0" width="6.1" height="6.1"/>
	<rect x="71.7" y="23.1" class="st1" width="6.1" height="6.1"/>
	<rect x="77.8" y="23.1" class="st1" width="6.1" height="6.1"/>
	<rect x="83.8" y="23.1" class="st1" width="6.1" height="6.1"/>
	<rect x="89.9" y="23.1" class="st1" width="6.1" height="6.1"/>
	<rect x="96" y="23.1" class="st1" width="6.1" height="6.1"/>
	<rect x="102.1" y="23.1" class="st1" width="6.1" height="6.1"/>
	<rect x="108.2" y="23.1" class="st2" width="6.1" height="6.1"/>
	<rect x="114.2" y="23.1" class="st3" width="6.1" height="6.1"/>
	<rect x="120.3" y="23.1" class="st0" width="6.1" height="6.1"/>
	<rect x="59.5" y="29.1" class="st0" width="6.1" height="6.1"/>
	<rect x="65.6" y="29.1" class="st1" width="6.1" height="6.1"/>
	<rect x="71.7" y="29.1" class="st0" width="6.1" height="6.1"/>
	<rect x="77.8" y="29.1" class="st0" width="6.1" height="6.1"/>
	<rect x="83.8" y="29.1" class="st0" width="6.1" height="6.1"/>
	<rect x="89.9" y="29.1" class="st4" width="6.1" height="6.1"/>
	<rect x="96" y="29.1" class="st4" width="6.1" height="6.1"/>
	<rect x="102.1" y="29.1" class="st4" width="6.1" height="6.1"/>
	<rect x="108.2" y="29.1" class="st4" width="6.1" height="6.1"/>
	<rect x="114.2" y="29.1" class="st4" width="6.1" height="6.1"/>
	<rect x="120.3" y="29.1" class="st3" width="6.1" height="6.1"/>
	<rect x="126.4" y="29.1" class="st0" width="6.1" height="6.1"/>
	<rect x="53.5" y="35.2" class="st0" width="6.1" height="6.1"/>
	<rect x="59.5" y="35.2" class="st1" width="6.1" height="6.1"/>
	<rect x="65.6" y="35.2" class="st5" width="6.1" height="6.1"/>
	<rect x="71.7" y="35.2" class="st2" width="6.1" height="6.1"/>
	<rect x="77.8" y="35.2" class="st0" width="6.1" height="6.1"/>
	<rect x="83.8" y="35.2" class="st2" width="6.1" height="6.1"/>
	<rect x="89.9" y="35.2" class="st2" width="6.1" height="6.1"/>
	<rect x="96" y="35.2" class="st2" width="6.1" height="6.1"/>
	<rect x="102.1" y="35.2" class="st2" width="6.1" height="6.1"/>
	<rect x="108.2" y="35.2" class="st4" width="6.1" height="6.1"/>
	<rect x="114.2" y="35.2" class="st2" width="6.1" height="6.1"/>
	<rect x="120.3" y="35.2" class="st6" width="6.1" height="6.1"/>
	<rect x="126.4" y="35.2" class="st3" width="6.1" height="6.1"/>
	<rect x="132.5" y="35.2" class="st0" width="6.1" height="6.1"/>
	<rect x="47.4" y="41.3" class="st0" width="6.1" height="6.1"/>
	<rect x="53.5" y="41.3" class="st1" width="6.1" height="6.1"/>
	<rect x="59.5" y="41.3" class="st5" width="6.1" height="6.1"/>
	<rect x="65.6" y="41.3" class="st7" width="6.1" height="6.1"/>
	<rect x="71.7" y="41.3" class="st7" width="6.1" height="6.1"/>
	<rect x="77.8" y="41.3" class="st2" width="6.1" height="6.1"/>
	<rect x="83.8" y="41.3" class="st0" width="6.1" height="6.1"/>
	<rect x="89.9" y="41.3" class="st0" width="6.1" height="6.1"/>
	<rect x="96" y="41.3" class="st0" width="6.1" height="6.1"/>
	<rect x="102.1" y="41.3" class="st0" width="6.1" height="6.1"/>
	<rect x="108.2" y="41.3" class="st2" width="6.1" height="6.1"/>
	<rect x="114.2" y="41.3" class="st8" width="6.1" height="6.1"/>
	<rect x="120.3" y="41.3" class="st8" width="6.1" height="6.1"/>
	<rect x="126.4" y="41.3" class="st6" width="6.1" height="6.1"/>
	<rect x="132.5" y="41.3" class="st2" width="6.1" height="6.1"/>
	<rect x="138.5" y="41.3" class="st0" width="6.1" height="6.1"/>
	<rect x="41.3" y="47.4" class="st0" width="6.1" height="6.1"/>
	<rect x="47.4" y="47.4" class="st1" width="6.1" height="6.1"/>
	<rect x="53.5" y="47.4" class="st7" width="6.1" height="6.1"/>
	<rect x="59.5" y="47.4" class="st7" width="6.1" height="6.1"/>
	<rect x="65.6" y="47.4" class="st7" width="6.1" height="6.1"/>
	<rect x="71.7" y="47.4" class="st5" width="6.1" height="6.1"/>
	<rect x="77.8" y="47.4" class="st1" width="6.1" height="6.1"/>
	<rect x="83.8" y="47.4" class="st9" width="6.1" height="6.1"/>
	<rect x="89.9" y="47.4" class="st5" width="6.1" height="6.1"/>
	<rect x="96" y="47.4" class="st0" width="6.1" height="6.1"/>
	<rect x="102.1" y="47.4" class="st0" width="6.1" height="6.1"/>
	<rect x="108.2" y="47.4" class="st2" width="6.1" height="6.1"/>
	<rect x="114.2" y="47.4" class="st8" width="6.1" height="6.1"/>
	<rect x="120.3" y="47.4" class="st8" width="6.1" height="6.1"/>
	<rect x="126.4" y="47.4" class="st8" width="6.1" height="6.1"/>
	<rect x="132.5" y="47.4" class="st6" width="6.1" height="6.1"/>
	<rect x="138.5" y="47.4" class="st3" width="6.1" height="6.1"/>
	<rect x="144.6" y="47.4" class="st0" width="6.1" height="6.1"/>
	<rect x="35.2" y="53.5" class="st0" width="6.1" height="6.1"/>
	<rect x="41.3" y="53.5" class="st1" width="6.1" height="6.1"/>
	<rect x="47.4" y="53.5" class="st5" width="6.1" height="6.1"/>
	<rect x="53.5" y="53.5" class="st2" width="6.1" height="6.1"/>
	<rect x="59.5" y="53.5" class="st7" width="6.1" height="6.1"/>
	<rect x="65.6" y="53.5" class="st7" width="6.1" height="6.1"/>
	<rect x="71.7" y="53.5" class="st1" width="6.1" height="6.1"/>
	<rect x="77.8" y="53.5" class="st0" width="6.1" height="6.1"/>
	<rect x="83.8" y="53.5" class="st5" width="6.1" height="6.1"/>
	<rect x="89.9" y="53.5" class="st9" width="6.1" height="6.1"/>
	<rect x="96" y="53.5" class="st0" width="6.1" height="6.1"/>
	<rect x="102.1" y="53.5" class="st0" width="6.1" height="6.1"/>
	<rect x="108.2" y="53.5" class="st0" width="6.1" height="6.1"/>
	<rect x="114.2" y="53.5" class="st2" width="6.1" height="6.1"/>
	<rect x="120.3" y="53.5" class="st8" width="6.1" height="6.1"/>
	<rect x="126.4" y="53.5" class="st8" width="6.1" height="6.1"/>
	<rect x="132.5" y="53.5" class="st2" width="6.1" height="6.1"/>
	<rect x="138.5" y="53.5" class="st10" width="6.1" height="6.1"/>
	<rect x="144.6" y="53.5" class="st3" width="6.1" height="6.1"/>
	<rect x="150.7" y="53.5" class="st0" width="6.1" height="6.1"/>
	<rect x="35.2" y="59.5" class="st0" width="6.1" height="6.1"/>
	<rect x="41.3" y="59.5" class="st2" width="6.1" height="6.1"/>
	<rect x="47.4" y="59.5" class="st5" width="6.1" height="6.1"/>
	<rect x="53.5" y="59.5" class="st11" width="6.1" height="6.1"/>
	<rect x="59.5" y="59.5" class="st2" width="6.1" height="6.1"/>
	<rect x="65.6" y="59.5" class="st5" width="6.1" height="6.1"/>
	<rect x="71.7" y="59.5" class="st1" width="6.1" height="6.1"/>
	<rect x="77.8" y="59.5" class="st0" width="6.1" height="6.1"/>
	<rect x="83.8" y="59.5" class="st0" width="6.1" height="6.1"/>
	<rect x="89.9" y="59.5" class="st0" width="6.1" height="6.1"/>
	<rect x="96" y="59.5" class="st0" width="6.1" height="6.1"/>
	<rect x="102.1" y="59.5" class="st0" width="6.1" height="6.1"/>
	<rect x="108.2" y="59.5" class="st0" width="6.1" height="6.1"/>
	<rect x="114.2" y="59.5" class="st2" width="6.1" height="6.1"/>
	<rect x="120.3" y="59.5" class="st8" width="6.1" height="6.1"/>
	<rect x="126.4" y="59.5" class="st2" width="6.1" height="6.1"/>
	<rect x="132.5" y="59.5" class="st10" width="6.1" height="6.1"/>
	<rect x="138.5" y="59.5" class="st10" width="6.1" height="6.1"/>
	<rect x="144.6" y="59.5" class="st2" width="6.1" height="6.1"/>
	<rect x="150.7" y="59.5" class="st0" width="6.1" height="6.1"/>
	<rect x="41.3" y="65.6" class="st0" width="6.1" height="6.1"/>
	<rect x="47.4" y="65.6" class="st1" width="6.1" height="6.1"/>
	<rect x="53.5" y="65.6" class="st11" width="6.1" height="6.1"/>
	<rect x="59.5" y="65.6" class="st11" width="6.1" height="6.1"/>
	<rect x="65.6" y="65.6" class="st2" width="6.1" height="6.1"/>
	<rect x="71.7" y="65.6" class="st0" width="6.1" height="6.1"/>
	<rect x="77.8" y="65.6" class="st0" width="6.1" height="6.1"/>
	<rect x="83.8" y="65.6" class="st0" width="6.1" height="6.1"/>
	<rect x="89.9" y="65.6" class="st0" width="6.1" height="6.1"/>
	<rect x="96" y="65.6" class="st0" width="6.1" height="6.1"/>
	<rect x="102.1" y="65.6" class="st0" width="6.1" height="6.1"/>
	<rect x="108.2" y="65.6" class="st0" width="6.1" height="6.1"/>
	<rect x="114.2" y="65.6" class="st0" width="6.1" height="6.1"/>
	<rect x="120.3" y="65.6" class="st2" width="6.1" height="6.1"/>
	<rect x="126.4" y="65.6" class="st10" width="6.1" height="6.1"/>
	<rect x="132.5" y="65.6" class="st10" width="6.1" height="6.1"/>
	<rect x="138.5" y="65.6" class="st3" width="6.1" height="6.1"/>
	<rect x="144.6" y="65.6" class="st0" width="6.1" height="6.1"/>
	<rect x="41.3" y="71.7" class="st0" width="6.1" height="6.1"/>
	<rect x="47.4" y="71.7" class="st1" width="6.1" height="6.1"/>
	<rect x="53.5" y="71.7" class="st11" width="6.1" height="6.1"/>
	<rect x="59.5" y="71.7" class="st11" width="6.1" height="6.1"/>
	<rect x="65.6" y="71.7" class="st5" width="6.1" height="6.1"/>
	<rect x="71.7" y="71.7" class="st1" width="6.1" height="6.1"/>
	<rect x="77.8" y="71.7" class="st1" width="6.1" height="6.1"/>
	<rect x="83.8" y="71.7" class="st1" width="6.1" height="6.1"/>
	<rect x="89.9" y="71.7" class="st1" width="6.1" height="6.1"/>
	<rect x="96" y="71.7" class="st1" width="6.1" height="6.1"/>
	<rect x="102.1" y="71.7" class="st2" width="6.1" height="6.1"/>
	<rect x="108.2" y="71.7" class="st2" width="6.1" height="6.1"/>
	<rect x="114.2" y="71.7" class="st2" width="6.1" height="6.1"/>
	<rect x="120.3" y="71.7" class="st10" width="6.1" height="6.1"/>
	<rect x="126.4" y="71.7" class="st10" width="6.1" height="6.1"/>
	<rect x="132.5" y="71.7" class="st10" width="6.1" height="6.1"/>
	<rect x="138.5" y="71.7" class="st3" width="6.1" height="6.1"/>
	<rect x="144.6" y="71.7" class="st0" width="6.1" height="6.1"/>
	<rect x="47.4" y="77.8" class="st0" width="6.1" height="6.1"/>
	<rect x="53.5" y="77.8" class="st1" width="6.1" height="6.1"/>
	<rect x="59.5" y="77.8" class="st11" width="6.1" height="6.1"/>
	<rect x="65.6" y="77.8" class="st5" width="6.1" height="6.1"/>
	<rect x="71.7" y="77.8" class="st1" width="6.1" height="6.1"/>
	<rect x="77.8" y="77.8" class="st0" width="6.1" height="6.1"/>
	<rect x="83.8" y="77.8" class="st0" width="6.1" height="6.1"/>
	<rect x="89.9" y="77.8" class="st0" width="6.1" height="6.1"/>
	<rect x="96" y="77.8" class="st0" width="6.1" height="6.1"/>
	<rect x="102.1" y="77.8" class="st0" width="6.1" height="6.1"/>
	<rect x="108.2" y="77.8" class="st0" width="6.1" height="6.1"/>
	<rect x="114.2" y="77.8" class="st2" width="6.1" height="6.1"/>
	<rect x="120.3" y="77.8" class="st10" width="6.1" height="6.1"/>
	<rect x="126.4" y="77.8" class="st10" width="6.1" height="6.1"/>
	<rect x="132.5" y="77.8" class="st3" width="6.1" height="6.1"/>
	<rect x="138.5" y="77.8" class="st0" width="6.1" height="6.1"/>
	<rect x="47.4" y="83.8" class="st0" width="6.1" height="6.1"/>
	<rect x="53.5" y="83.8" class="st2" width="6.1" height="6.1"/>
	<rect x="59.5" y="83.8" class="st11" width="6.1" height="6.1"/>
	<rect x="65.6" y="83.8" class="st5" width="6.1" height="6.1"/>
	<rect x="71.7" y="83.8" class="st2" width="6.1" height="6.1"/>
	<rect x="77.8" y="83.8" class="st0" width="6.1" height="6.1"/>
	<rect x="83.8" y="83.8" class="st5" width="6.1" height="6.1"/>
	<rect x="89.9" y="83.8" class="st9" width="6.1" height="6.1"/>
	<rect x="96" y="83.8" class="st0" width="6.1" height="6.1"/>
	<rect x="102.1" y="83.8" class="st0" width="6.1" height="6.1"/>
	<rect x="108.2" y="83.8" class="st0" width="6.1" height="6.1"/>
	<rect x="114.2" y="83.8" class="st2" width="6.1" height="6.1"/>
	<rect x="120.3" y="83.8" class="st10" width="6.1" height="6.1"/>
	<rect x="126.4" y="83.8" class="st10" width="6.1" height="6.1"/>
	<rect x="132.5" y="83.8" class="st3" width="6.1" height="6.1"/>
	<rect x="138.5" y="83.8" class="st0" width="6.1" height="6.1"/>
	<rect x="53.5" y="89.9" class="st0" width="6.1" height="6.1"/>
	<rect x="59.5" y="89.9" class="st1" width="6.1" height="6.1"/>
	<rect x="65.6" y="89.9" class="st11" width="6.1" height="6.1"/>
	<rect x="71.7" y="89.9" class="st5" width="6.1" height="6.1"/>
	<rect x="77.8" y="89.9" class="st2" width="6.1" height="6.1"/>
	<rect x="83.8" y="89.9" class="st9" width="6.1" height="6.1"/>
	<rect x="89.9" y="89.9" class="st5" width="6.1" height="6.1"/>
	<rect x="96" y="89.9" class="st0" width="6.1" height="6.1"/>
	<rect x="102.1" y="89.9" class="st0" width="6.1" height="6.1"/>
	<rect x="108.2" y="89.9" class="st2" width="6.1" height="6.1"/>
	<rect x="114.2" y="89.9" class="st10" width="6.1" height="6.1"/>
	<rect x="120.3" y="89.9" class="st10" width="6.1" height="6.1"/>
	<rect x="126.4" y="89.9" class="st2" width="6.1" height="6.1"/>
	<rect x="132.5" y="89.9" class="st0" width="6.1" height="6.1"/>
	<rect x="53.5" y="96" class="st0" width="6.1" height="6.1"/>
	<rect x="59.5" y="96" class="st2" width="6.1" height="6.1"/>
	<rect x="65.6" y="96" class="st11" width="6.1" height="6.1"/>
	<rect x="71.7" y="96" class="st11" width="6.1" height="6.1"/>
	<rect x="77.8" y="96" class="st2" width="6.1" height="6.1"/>
	<rect x="83.8" y="96" class="st0" width="6.1" height="6.1"/>
	<rect x="89.9" y="96" class="st0" width="6.1" height="6.1"/>
	<rect x="96" y="96" class="st0" width="6.1" height="6.1"/>
	<rect x="102.1" y="96" class="st0" width="6.1" height="6.1"/>
	<rect x="108.2" y="96" class="st2" width="6.1" height="6.1"/>
	<rect x="114.2" y="96" class="st10" width="6.1" height="6.1"/>
	<rect x="120.3" y="96" class="st10" width="6.1" height="6.1"/>
	<rect x="126.4" y="96" class="st3" width="6.1" height="6.1"/>
	<rect x="132.5" y="96" class="st0" width="6.1" height="6.1"/>
	<rect x="53.5" y="102.1" class="st0" width="6.1" height="6.1"/>
	<rect x="59.5" y="102.1" class="st0" width="6.1" height="6.1"/>
	<rect x="65.6" y="102.1" class="st1" width="6.1" height="6.1"/>
	<rect x="71.7" y="102.1" class="st11" width="6.1" height="6.1"/>
	<rect x="77.8" y="102.1" class="st2" width="6.1" height="6.1"/>
	<rect x="83.8" y="102.1" class="st0" width="6.1" height="6.1"/>
	<rect x="89.9" y="102.1" class="st0" width="6.1" height="6.1"/>
	<rect x="96" y="102.1" class="st0" width="6.1" height="6.1"/>
	<rect x="102.1" y="102.1" class="st0" width="6.1" height="6.1"/>
	<rect x="108.2" y="102.1" class="st2" width="6.1" height="6.1"/>
	<rect x="114.2" y="102.1" class="st10" width="6.1" height="6.1"/>
	<rect x="120.3" y="102.1" class="st2" width="6.1" height="6.1"/>
	<rect x="126.4" y="102.1" class="st0" width="6.1" height="6.1"/>
	<rect x="132.5" y="102.1" class="st0" width="6.1" height="6.1"/>
	<rect x="47.4" y="108.2" class="st0" width="6.1" height="6.1"/>
	<rect x="53.5" y="108.2" class="st12" width="6.1" height="6.1"/>
	<rect x="59.5" y="108.2" class="st13" width="6.1" height="6.1"/>
	<rect x="65.6" y="108.2" class="st1" width="6.1" height="6.1"/>
	<rect x="71.7" y="108.2" class="st11" width="6.1" height="6.1"/>
	<rect x="77.8" y="108.2" class="st11" width="6.1" height="6.1"/>
	<rect x="83.8" y="108.2" class="st2" width="6.1" height="6.1"/>
	<rect x="89.9" y="108.2" class="st0" width="6.1" height="6.1"/>
	<rect x="96" y="108.2" class="st0" width="6.1" height="6.1"/>
	<rect x="102.1" y="108.2" class="st2" width="6.1" height="6.1"/>
	<rect x="108.2" y="108.2" class="st10" width="6.1" height="6.1"/>
	<rect x="114.2" y="108.2" class="st10" width="6.1" height="6.1"/>
	<rect x="120.3" y="108.2" class="st3" width="6.1" height="6.1"/>
	<rect x="126.4" y="108.2" class="st13" width="6.1" height="6.1"/>
	<rect x="132.5" y="108.2" class="st13" width="6.1" height="6.1"/>
	<rect x="138.5" y="108.2" class="st0" width="6.1" height="6.1"/>
	<rect x="41.3" y="114.2" class="st0" width="6.1" height="6.1"/>
	<rect x="47.4" y="114.2" class="st12" width="6.1" height="6.1"/>
	<rect x="53.5" y="114.2" class="st14" width="6.1" height="6.1"/>
	<rect x="59.5" y="114.2" class="st14" width="6.1" height="6.1"/>
	<rect x="65.6" y="114.2" class="st15" width="6.1" height="6.1"/>
	<rect x="71.7" y="114.2" class="st2" width="6.1" height="6.1"/>
	<rect x="77.8" y="114.2" class="st2" width="6.1" height="6.1"/>
	<rect x="83.8" y="114.2" class="st1" width="6.1" height="6.1"/>
	<rect x="89.9" y="114.2" class="st2" width="6.1" height="6.1"/>
	<rect x="96" y="114.2" class="st10" width="6.1" height="6.1"/>
	<rect x="102.1" y="114.2" class="st10" width="6.1" height="6.1"/>
	<rect x="108.2" y="114.2" class="st2" width="6.1" height="6.1"/>
	<rect x="114.2" y="114.2" class="st3" width="6.1" height="6.1"/>
	<rect x="120.3" y="114.2" class="st15" width="6.1" height="6.1"/>
	<rect x="126.4" y="114.2" class="st12" width="6.1" height="6.1"/>
	<rect x="132.5" y="114.2" class="st12" width="6.1" height="6.1"/>
	<rect x="138.5" y="114.2" class="st13" width="6.1" height="6.1"/>
	<rect x="144.6" y="114.2" class="st0" width="6.1" height="6.1"/>
	<rect x="41.3" y="120.3" class="st0" width="6.1" height="6.1"/>
	<rect x="47.4" y="120.3" class="st12" width="6.1" height="6.1"/>
	<rect x="53.5" y="120.3" class="st14" width="6.1" height="6.1"/>
	<rect x="59.5" y="120.3" class="st16" width="6.1" height="6.1"/>
	<rect x="65.6" y="120.3" class="st16" width="6.1" height="6.1"/>
	<rect x="71.7" y="120.3" class="st15" width="6.1" height="6.1"/>
	<rect x="77.8" y="120.3" class="st3" width="6.1" height="6.1"/>
	<rect x="83.8" y="120.3" class="st3" width="6.1" height="6.1"/>
	<rect x="89.9" y="120.3" class="st3" width="6.1" height="6.1"/>
	<rect x="96" y="120.3" class="st3" width="6.1" height="6.1"/>
	<rect x="102.1" y="120.3" class="st3" width="6.1" height="6.1"/>
	<rect x="108.2" y="120.3" class="st3" width="6.1" height="6.1"/>
	<rect x="114.2" y="120.3" class="st15" width="6.1" height="6.1"/>
	<rect x="120.3" y="120.3" class="st12" width="6.1" height="6.1"/>
	<rect x="126.4" y="120.3" class="st12" width="6.1" height="6.1"/>
	<rect x="132.5" y="120.3" class="st12" width="6.1" height="6.1"/>
	<rect x="138.5" y="120.3" class="st13" width="6.1" height="6.1"/>
	<rect x="144.6" y="120.3" class="st0" width="6.1" height="6.1"/>
	<rect x="47.4" y="126.4" class="st0" width="6.1" height="6.1"/>
	<rect x="53.5" y="126.4" class="st12" width="6.1" height="6.1"/>
	<rect x="59.5" y="126.4" class="st13" width="6.1" height="6.1"/>
	<rect x="65.6" y="126.4" class="st14" width="6.1" height="6.1"/>
	<rect x="71.7" y="126.4" class="st14" width="6.1" height="6.1"/>
	<rect x="77.8" y="126.4" class="st16" width="6.1" height="6.1"/>
	<rect x="83.8" y="126.4" class="st16" width="6.1" height="6.1"/>
	<rect x="89.9" y="126.4" class="st16" width="6.1" height="6.1"/>
	<rect x="96" y="126.4" class="st16" width="6.1" height="6.1"/>
	<rect x="102.1" y="126.4" class="st12" width="6.1" height="6.1"/>
	<rect x="108.2" y="126.4" class="st12" width="6.1" height="6.1"/>
	<rect x="114.2" y="126.4" class="st12" width="6.1" height="6.1"/>
	<rect x="120.3" y="126.4" class="st12" width="6.1" height="6.1"/>
	<rect x="126.4" y="126.4" class="st13" width="6.1" height="6.1"/>
	<rect x="132.5" y="126.4" class="st13" width="6.1" height="6.1"/>
	<rect x="138.5" y="126.4" class="st0" width="6.1" height="6.1"/>
	<rect x="53.5" y="132.5" class="st0" width="6.1" height="6.1"/>
	<rect x="59.5" y="132.5" class="st17" width="6.1" height="6.1"/>
	<rect x="65.6" y="132.5" class="st12" width="6.1" height="6.1"/>
	<rect x="71.7" y="132.5" class="st12" width="6.1" height="6.1"/>
	<rect x="77.8" y="132.5" class="st12" width="6.1" height="6.1"/>
	<rect x="83.8" y="132.5" class="st13" width="6.1" height="6.1"/>
	<rect x="89.9" y="132.5" class="st13" width="6.1" height="6.1"/>
	<rect x="96" y="132.5" class="st13" width="6.1" height="6.1"/>
	<rect x="102.1" y="132.5" class="st13" width="6.1" height="6.1"/>
	<rect x="108.2" y="132.5" class="st13" width="6.1" height="6.1"/>
	<rect x="114.2" y="132.5" class="st13" width="6.1" height="6.1"/>
	<rect x="120.3" y="132.5" class="st13" width="6.1" height="6.1"/>
	<rect x="126.4" y="132.5" class="st18" width="6.1" height="6.1"/>
	<rect x="132.5" y="132.5" class="st0" width="6.1" height="6.1"/>
	<rect x="53.5" y="138.5" class="st0" width="6.1" height="6.1"/>
	<rect x="59.5" y="138.5" class="st19" width="6.1" height="6.1"/>
	<rect x="65.6" y="138.5" class="st20" width="6.1" height="6.1"/>
	<rect x="71.7" y="138.5" class="st18" width="6.1" height="6.1"/>
	<rect x="77.8" y="138.5" class="st0" width="6.1" height="6.1"/>
	<rect x="83.8" y="138.5" class="st0" width="6.1" height="6.1"/>
	<rect x="89.9" y="138.5" class="st0" width="6.1" height="6.1"/>
	<rect x="96" y="138.5" class="st0" width="6.1" height="6.1"/>
	<rect x="102.1" y="138.5" class="st0" width="6.1" height="6.1"/>
	<rect x="108.2" y="138.5" class="st0" width="6.1" height="6.1"/>
	<rect x="114.2" y="138.5" class="st18" width="6.1" height="6.1"/>
	<rect x="120.3" y="138.5" class="st20" width="6.1" height="6.1"/>
	<rect x="126.4" y="138.5" class="st21" width="6.1" height="6.1"/>
	<rect x="132.5" y="138.5" class="st0" width="6.1" height="6.1"/>
	<rect x="53.5" y="144.6" class="st0" width="6.1" height="6.1"/>
	<rect x="59.5" y="144.6" class="st19" width="6.1" height="6.1"/>
	<rect x="65.6" y="144.6" class="st22" width="6.1" height="6.1"/>
	<rect x="71.7" y="144.6" class="st21" width="6.1" height="6.1"/>
	<rect x="77.8" y="144.6" class="st0" width="6.1" height="6.1"/>
	<rect x="108.2" y="144.6" class="st0" width="6.1" height="6.1"/>
	<rect x="114.2" y="144.6" class="st21" width="6.1" height="6.1"/>
	<rect x="120.3" y="144.6" class="st22" width="6.1" height="6.1"/>
	<rect x="126.4" y="144.6" class="st21" width="6.1" height="6.1"/>
	<rect x="132.5" y="144.6" class="st0" width="6.1" height="6.1"/>
	<rect x="59.5" y="150.7" class="st0" width="6.1" height="6.1"/>
	<rect x="65.6" y="150.7" class="st19" width="6.1" height="6.1"/>
	<rect x="71.7" y="150.7" class="st22" width="6.1" height="6.1"/>
	<rect x="77.8" y="150.7" class="st21" width="6.1" height="6.1"/>
	<rect x="83.8" y="150.7" class="st0" width="6.1" height="6.1"/>
	<rect x="102.1" y="150.7" class="st0" width="6.1" height="6.1"/>
	<rect x="108.2" y="150.7" class="st21" width="6.1" height="6.1"/>
	<rect x="114.2" y="150.7" class="st22" width="6.1" height="6.1"/>
	<rect x="120.3" y="150.7" class="st21" width="6.1" height="6.1"/>
	<rect x="126.4" y="150.7" class="st0" width="6.1" height="6.1"/>
	<rect x="65.6" y="156.8" class="st0" width="6.1" height="6.1"/>
	<rect x="71.7" y="156.8" class="st21" width="6.1" height="6.1"/>
	<rect x="77.8" y="156.8" class="st22" width="6.1" height="6.1"/>
	<rect x="83.8" y="156.8" class="st21" width="6.1" height="6.1"/>
	<rect x="89.9" y="156.8" class="st0" width="6.1" height="6.1"/>
	<rect x="96" y="156.8" class="st0" width="6.1" height="6.1"/>
	<rect x="102.1" y="156.8" class="st21" width="6.1" height="6.1"/>
	<rect x="108.2" y="156.8" class="st22" width="6.1" height="6.1"/>
	<rect x="114.2" y="156.8" class="st21" width="6.1" height="6.1"/>
	<rect x="120.3" y="156.8" class="st0" width="6.1" height="6.1"/>
	<rect x="71.7" y="162.9" class="st0" width="6.1" height="6.1"/>
	<rect x="77.8" y="162.9" class="st19" width="6.1" height="6.1"/>
	<rect x="83.8" y="162.9" class="st21" width="6.1" height="6.1"/>
	<rect x="89.9" y="162.9" class="st0" width="6.1" height="6.1"/>
	<rect x="96" y="162.9" class="st0" width="6.1" height="6.1"/>
	<rect x="102.1" y="162.9" class="st21" width="6.1" height="6.1"/>
	<rect x="108.2" y="162.9" class="st21" width="6.1" height="6.1"/>
	<rect x="114.2" y="162.9" class="st0" width="6.1" height="6.1"/>
	<rect x="77.8" y="168.9" class="st0" width="6.1" height="6.1"/>
	<rect x="83.8" y="168.9" class="st0" width="6.1" height="6.1"/>
	<rect x="102.1" y="168.9" class="st0" width="6.1" height="6.1"/>
	<rect x="108.2" y="168.9" class="st0" width="6.1" height="6.1"/>
</g>
</svg>
