<?xml version="1.0" encoding="utf-8"?>
<!-- Generator: Adobe Illustrator 27.9.0, SVG Export Plug-In . SVG Version: 6.00 Build 0)  -->
<svg version="1.1" id="Layer_1" shape-rendering="crispEdges"
	 xmlns="http://www.w3.org/2000/svg" xmlns:xlink="http://www.w3.org/1999/xlink" x="0px" y="0px" viewBox="0 0 192 192"
	 style="enable-background:new 0 0 192 192;" xml:space="preserve">
<style type="text/css">
	.st0{fill:#5CABE1;}
	.st1{fill:#ECC98B;}
	.st2{fill:#B96736;}
	.st3{fill:#3464A4;}
	.st4{fill:#C33C4A;}
	.st5{fill:#548AB7;}
	.st6{fill:#E6E4D8;}
	.st7{fill:#E2574A;}
	.st8{fill:#E6A974;}
	.st9{fill:#E6C874;}
	.st10{fill:#CEB8C8;}
	.st11{fill:#728B93;}
	.st12{fill:#694F86;}
	.st13{fill:#185589;}
	.st14{fill:#283C82;}
	.st15{fill:#86B0E7;}
	.st16{fill:#127275;}
	.st17{fill:#1D8566;}
	.st18{fill:#B65638;}
</style>
<g>
	<rect x="18.4" y="20.6" class="st0" width="5.4" height="5.4"/>
	<rect x="13" y="26" class="st0" width="5.4" height="5.4"/>
	<rect x="18.4" y="26" class="st1" width="5.4" height="5.4"/>
	<rect x="23.8" y="26" class="st0" width="5.4" height="5.4"/>
	<rect x="158.4" y="26" class="st0" width="5.4" height="5.4"/>
	<rect x="163.8" y="26" class="st0" width="5.4" height="5.4"/>
	<rect x="13" y="31.4" class="st0" width="5.4" height="5.4"/>
	<rect x="18.4" y="31.4" class="st2" width="5.4" height="5.4"/>
	<rect x="23.8" y="31.4" class="st0" width="5.4" height="5.4"/>
	<rect x="153" y="31.4" class="st0" width="5.4" height="5.4"/>
	<rect x="158.4" y="31.4" class="st3" width="5.4" height="5.4"/>
	<rect x="163.8" y="31.4" class="st4" width="5.4" height="5.4"/>
	<rect x="169.2" y="31.4" class="st0" width="5.4" height="5.4"/>
	<rect x="13" y="36.8" class="st0" width="5.4" height="5.4"/>
	<rect x="18.4" y="36.8" class="st2" width="5.4" height="5.4"/>
	<rect x="23.8" y="36.8" class="st0" width="5.4" height="5.4"/>
	<rect x="136.9" y="36.8" class="st0" width="5.4" height="5.4"/>
	<rect x="142.3" y="36.8" class="st0" width="5.4" height="5.4"/>
	<rect x="147.7" y="36.8" class="st0" width="5.4" height="5.4"/>
	<rect x="153" y="36.8" class="st5" width="5.4" height="5.4"/>
	<rect x="158.4" y="36.8" class="st6" width="5.4" height="5.4"/>
	<rect x="163.8" y="36.8" class="st3" width="5.4" height="5.4"/>
	<rect x="169.2" y="36.8" class="st0" width="5.4" height="5.4"/>
	<rect x="13" y="42.2" class="st0" width="5.4" height="5.4"/>
	<rect x="18.4" y="42.2" class="st2" width="5.4" height="5.4"/>
	<rect x="23.8" y="42.2" class="st0" width="5.4" height="5.4"/>
	<rect x="40" y="42.2" class="st0" width="5.4" height="5.4"/>
	<rect x="45.3" y="42.2" class="st0" width="5.4" height="5.4"/>
	<rect x="120.7" y="42.2" class="st0" width="5.4" height="5.4"/>
	<rect x="126.1" y="42.2" class="st0" width="5.4" height="5.4"/>
	<rect x="131.5" y="42.2" class="st0" width="5.4" height="5.4"/>
	<rect x="136.9" y="42.2" class="st3" width="5.4" height="5.4"/>
	<rect x="142.3" y="42.2" class="st3" width="5.4" height="5.4"/>
	<rect x="147.7" y="42.2" class="st5" width="5.4" height="5.4"/>
	<rect x="153" y="42.2" class="st7" width="5.4" height="5.4"/>
	<rect x="158.4" y="42.2" class="st5" width="5.4" height="5.4"/>
	<rect x="163.8" y="42.2" class="st0" width="5.4" height="5.4"/>
	<rect x="13" y="47.5" class="st0" width="5.4" height="5.4"/>
	<rect x="18.4" y="47.5" class="st8" width="5.4" height="5.4"/>
	<rect x="23.8" y="47.5" class="st0" width="5.4" height="5.4"/>
	<rect x="34.6" y="47.5" class="st0" width="5.4" height="5.4"/>
	<rect x="40" y="47.5" class="st3" width="5.4" height="5.4"/>
	<rect x="45.3" y="47.5" class="st3" width="5.4" height="5.4"/>
	<rect x="50.7" y="47.5" class="st0" width="5.4" height="5.4"/>
	<rect x="93.8" y="47.5" class="st0" width="5.4" height="5.4"/>
	<rect x="110" y="47.5" class="st0" width="5.4" height="5.4"/>
	<rect x="115.3" y="47.5" class="st0" width="5.4" height="5.4"/>
	<rect x="120.7" y="47.5" class="st3" width="5.4" height="5.4"/>
	<rect x="126.1" y="47.5" class="st5" width="5.4" height="5.4"/>
	<rect x="131.5" y="47.5" class="st3" width="5.4" height="5.4"/>
	<rect x="136.9" y="47.5" class="st4" width="5.4" height="5.4"/>
	<rect x="142.3" y="47.5" class="st4" width="5.4" height="5.4"/>
	<rect x="147.7" y="47.5" class="st9" width="5.4" height="5.4"/>
	<rect x="153" y="47.5" class="st5" width="5.4" height="5.4"/>
	<rect x="158.4" y="47.5" class="st0" width="5.4" height="5.4"/>
	<rect x="13" y="52.9" class="st0" width="5.4" height="5.4"/>
	<rect x="18.4" y="52.9" class="st8" width="5.4" height="5.4"/>
	<rect x="23.8" y="52.9" class="st0" width="5.4" height="5.4"/>
	<rect x="29.2" y="52.9" class="st0" width="5.4" height="5.4"/>
	<rect x="34.6" y="52.9" class="st3" width="5.4" height="5.4"/>
	<rect x="40" y="52.9" class="st10" width="5.4" height="5.4"/>
	<rect x="45.3" y="52.9" class="st11" width="5.4" height="5.4"/>
	<rect x="50.7" y="52.9" class="st3" width="5.4" height="5.4"/>
	<rect x="56.1" y="52.9" class="st0" width="5.4" height="5.4"/>
	<rect x="61.5" y="52.9" class="st0" width="5.4" height="5.4"/>
	<rect x="83" y="52.9" class="st0" width="5.4" height="5.4"/>
	<rect x="88.4" y="52.9" class="st0" width="5.4" height="5.4"/>
	<rect x="93.8" y="52.9" class="st7" width="5.4" height="5.4"/>
	<rect x="99.2" y="52.9" class="st0" width="5.4" height="5.4"/>
	<rect x="104.6" y="52.9" class="st0" width="5.4" height="5.4"/>
	<rect x="110" y="52.9" class="st3" width="5.4" height="5.4"/>
	<rect x="115.3" y="52.9" class="st5" width="5.4" height="5.4"/>
	<rect x="120.7" y="52.9" class="st7" width="5.4" height="5.4"/>
	<rect x="126.1" y="52.9" class="st4" width="5.4" height="5.4"/>
	<rect x="131.5" y="52.9" class="st4" width="5.4" height="5.4"/>
	<rect x="136.9" y="52.9" class="st9" width="5.4" height="5.4"/>
	<rect x="142.3" y="52.9" class="st4" width="5.4" height="5.4"/>
	<rect x="147.7" y="52.9" class="st4" width="5.4" height="5.4"/>
	<rect x="153" y="52.9" class="st4" width="5.4" height="5.4"/>
	<rect x="158.4" y="52.9" class="st5" width="5.4" height="5.4"/>
	<rect x="163.8" y="52.9" class="st0" width="5.4" height="5.4"/>
	<rect x="13" y="58.3" class="st0" width="5.4" height="5.4"/>
	<rect x="18.4" y="58.3" class="st0" width="5.4" height="5.4"/>
	<rect x="23.8" y="58.3" class="st5" width="5.4" height="5.4"/>
	<rect x="29.2" y="58.3" class="st3" width="5.4" height="5.4"/>
	<rect x="34.6" y="58.3" class="st10" width="5.4" height="5.4"/>
	<rect x="40" y="58.3" class="st10" width="5.4" height="5.4"/>
	<rect x="45.3" y="58.3" class="st3" width="5.4" height="5.4"/>
	<rect x="50.7" y="58.3" class="st9" width="5.4" height="5.4"/>
	<rect x="56.1" y="58.3" class="st3" width="5.4" height="5.4"/>
	<rect x="61.5" y="58.3" class="st12" width="5.4" height="5.4"/>
	<rect x="66.9" y="58.3" class="st0" width="5.4" height="5.4"/>
	<rect x="72.3" y="58.3" class="st0" width="5.4" height="5.4"/>
	<rect x="77.7" y="58.3" class="st0" width="5.4" height="5.4"/>
	<rect x="83" y="58.3" class="st7" width="5.4" height="5.4"/>
	<rect x="88.4" y="58.3" class="st7" width="5.4" height="5.4"/>
	<rect x="99.2" y="58.3" class="st3" width="5.4" height="5.4"/>
	<rect x="104.6" y="58.3" class="st3" width="5.4" height="5.4"/>
	<rect x="110" y="58.3" class="st7" width="5.4" height="5.4"/>
	<rect x="115.3" y="58.3" class="st9" width="5.4" height="5.4"/>
	<rect x="120.7" y="58.3" class="st4" width="5.4" height="5.4"/>
	<rect x="126.1" y="58.3" class="st9" width="5.4" height="5.4"/>
	<rect x="131.5" y="58.3" class="st4" width="5.4" height="5.4"/>
	<rect x="136.9" y="58.3" class="st13" width="5.4" height="5.4"/>
	<rect x="142.3" y="58.3" class="st13" width="5.4" height="5.4"/>
	<rect x="147.7" y="58.3" class="st13" width="5.4" height="5.4"/>
	<rect x="153" y="58.3" class="st5" width="5.4" height="5.4"/>
	<rect x="158.4" y="58.3" class="st6" width="5.4" height="5.4"/>
	<rect x="163.8" y="58.3" class="st5" width="5.4" height="5.4"/>
	<rect x="169.2" y="58.3" class="st0" width="5.4" height="5.4"/>
	<rect x="13" y="63.7" class="st0" width="5.4" height="5.4"/>
	<rect x="18.4" y="63.7" class="st2" width="5.4" height="5.4"/>
	<rect x="23.8" y="63.7" class="st0" width="5.4" height="5.4"/>
	<rect x="29.2" y="63.7" class="st3" width="5.4" height="5.4"/>
	<rect x="34.6" y="63.7" class="st10" width="5.4" height="5.4"/>
	<rect x="40" y="63.7" class="st11" width="5.4" height="5.4"/>
	<rect x="45.3" y="63.7" class="st3" width="5.4" height="5.4"/>
	<rect x="50.7" y="63.7" class="st9" width="5.4" height="5.4"/>
	<rect x="56.1" y="63.7" class="st9" width="5.4" height="5.4"/>
	<rect x="61.5" y="63.7" class="st14" width="5.4" height="5.4"/>
	<rect x="66.9" y="63.7" class="st12" width="5.4" height="5.4"/>
	<rect x="72.3" y="63.7" class="st3" width="5.4" height="5.4"/>
	<rect x="77.7" y="63.7" class="st3" width="5.4" height="5.4"/>
	<rect x="83" y="63.7" class="st3" width="5.4" height="5.4"/>
	<rect x="88.4" y="63.7" class="st3" width="5.4" height="5.4"/>
	<rect x="93.8" y="63.7" class="st3" width="5.4" height="5.4"/>
	<rect x="99.2" y="63.7" class="st7" width="5.4" height="5.4"/>
	<rect x="104.6" y="63.7" class="st7" width="5.4" height="5.4"/>
	<rect x="110" y="63.7" class="st7" width="5.4" height="5.4"/>
	<rect x="115.3" y="63.7" class="st4" width="5.4" height="5.4"/>
	<rect x="120.7" y="63.7" class="st4" width="5.4" height="5.4"/>
	<rect x="126.1" y="63.7" class="st13" width="5.4" height="5.4"/>
	<rect x="131.5" y="63.7" class="st13" width="5.4" height="5.4"/>
	<rect x="136.9" y="63.7" class="st0" width="5.4" height="5.4"/>
	<rect x="142.3" y="63.7" class="st0" width="5.4" height="5.4"/>
	<rect x="147.7" y="63.7" class="st0" width="5.4" height="5.4"/>
	<rect x="153" y="63.7" class="st0" width="5.4" height="5.4"/>
	<rect x="158.4" y="63.7" class="st5" width="5.4" height="5.4"/>
	<rect x="163.8" y="63.7" class="st6" width="5.4" height="5.4"/>
	<rect x="169.2" y="63.7" class="st3" width="5.4" height="5.4"/>
	<rect x="174.6" y="63.7" class="st0" width="5.4" height="5.4"/>
	<rect x="13" y="69.1" class="st0" width="5.4" height="5.4"/>
	<rect x="18.4" y="69.1" class="st1" width="5.4" height="5.4"/>
	<rect x="23.8" y="69.1" class="st0" width="5.4" height="5.4"/>
	<rect x="29.2" y="69.1" class="st3" width="5.4" height="5.4"/>
	<rect x="34.6" y="69.1" class="st11" width="5.4" height="5.4"/>
	<rect x="40" y="69.1" class="st3" width="5.4" height="5.4"/>
	<rect x="45.3" y="69.1" class="st9" width="5.4" height="5.4"/>
	<rect x="50.7" y="69.1" class="st7" width="5.4" height="5.4"/>
	<rect x="56.1" y="69.1" class="st3" width="5.4" height="5.4"/>
	<rect x="61.5" y="69.1" class="st14" width="5.4" height="5.4"/>
	<rect x="66.9" y="69.1" class="st6" width="5.4" height="5.4"/>
	<rect x="72.3" y="69.1" class="st3" width="5.4" height="5.4"/>
	<rect x="77.7" y="69.1" class="st7" width="5.4" height="5.4"/>
	<rect x="83" y="69.1" class="st7" width="5.4" height="5.4"/>
	<rect x="88.4" y="69.1" class="st7" width="5.4" height="5.4"/>
	<rect x="93.8" y="69.1" class="st7" width="5.4" height="5.4"/>
	<rect x="99.2" y="69.1" class="st7" width="5.4" height="5.4"/>
	<rect x="104.6" y="69.1" class="st9" width="5.4" height="5.4"/>
	<rect x="110" y="69.1" class="st7" width="5.4" height="5.4"/>
	<rect x="115.3" y="69.1" class="st9" width="5.4" height="5.4"/>
	<rect x="120.7" y="69.1" class="st13" width="5.4" height="5.4"/>
	<rect x="126.1" y="69.1" class="st0" width="5.4" height="5.4"/>
	<rect x="131.5" y="69.1" class="st0" width="5.4" height="5.4"/>
	<rect x="158.4" y="69.1" class="st0" width="5.4" height="5.4"/>
	<rect x="163.8" y="69.1" class="st3" width="5.4" height="5.4"/>
	<rect x="169.2" y="69.1" class="st4" width="5.4" height="5.4"/>
	<rect x="174.6" y="69.1" class="st0" width="5.4" height="5.4"/>
	<rect x="13" y="74.5" class="st0" width="5.4" height="5.4"/>
	<rect x="18.4" y="74.5" class="st1" width="5.4" height="5.4"/>
	<rect x="23.8" y="74.5" class="st0" width="5.4" height="5.4"/>
	<rect x="29.2" y="74.5" class="st0" width="5.4" height="5.4"/>
	<rect x="34.6" y="74.5" class="st3" width="5.4" height="5.4"/>
	<rect x="40" y="74.5" class="st6" width="5.4" height="5.4"/>
	<rect x="45.3" y="74.5" class="st7" width="5.4" height="5.4"/>
	<rect x="50.7" y="74.5" class="st9" width="5.4" height="5.4"/>
	<rect x="56.1" y="74.5" class="st3" width="5.4" height="5.4"/>
	<rect x="61.5" y="74.5" class="st6" width="5.4" height="5.4"/>
	<rect x="66.9" y="74.5" class="st15" width="5.4" height="5.4"/>
	<rect x="72.3" y="74.5" class="st3" width="5.4" height="5.4"/>
	<rect x="77.7" y="74.5" class="st7" width="5.4" height="5.4"/>
	<rect x="83" y="74.5" class="st9" width="5.4" height="5.4"/>
	<rect x="88.4" y="74.5" class="st7" width="5.4" height="5.4"/>
	<rect x="93.8" y="74.5" class="st9" width="5.4" height="5.4"/>
	<rect x="99.2" y="74.5" class="st7" width="5.4" height="5.4"/>
	<rect x="104.6" y="74.5" class="st7" width="5.4" height="5.4"/>
	<rect x="110" y="74.5" class="st4" width="5.4" height="5.4"/>
	<rect x="115.3" y="74.5" class="st4" width="5.4" height="5.4"/>
	<rect x="120.7" y="74.5" class="st13" width="5.4" height="5.4"/>
	<rect x="126.1" y="74.5" class="st0" width="5.4" height="5.4"/>
	<rect x="163.8" y="74.5" class="st0" width="5.4" height="5.4"/>
	<rect x="169.2" y="74.5" class="st0" width="5.4" height="5.4"/>
	<rect x="13" y="79.8" class="st0" width="5.4" height="5.4"/>
	<rect x="18.4" y="79.8" class="st1" width="5.4" height="5.4"/>
	<rect x="23.8" y="79.8" class="st0" width="5.4" height="5.4"/>
	<rect x="34.6" y="79.8" class="st0" width="5.4" height="5.4"/>
	<rect x="40" y="79.8" class="st3" width="5.4" height="5.4"/>
	<rect x="45.3" y="79.8" class="st6" width="5.4" height="5.4"/>
	<rect x="50.7" y="79.8" class="st7" width="5.4" height="5.4"/>
	<rect x="56.1" y="79.8" class="st9" width="5.4" height="5.4"/>
	<rect x="61.5" y="79.8" class="st3" width="5.4" height="5.4"/>
	<rect x="66.9" y="79.8" class="st3" width="5.4" height="5.4"/>
	<rect x="72.3" y="79.8" class="st9" width="5.4" height="5.4"/>
	<rect x="77.7" y="79.8" class="st7" width="5.4" height="5.4"/>
	<rect x="83" y="79.8" class="st7" width="5.4" height="5.4"/>
	<rect x="88.4" y="79.8" class="st7" width="5.4" height="5.4"/>
	<rect x="93.8" y="79.8" class="st7" width="5.4" height="5.4"/>
	<rect x="99.2" y="79.8" class="st7" width="5.4" height="5.4"/>
	<rect x="104.6" y="79.8" class="st4" width="5.4" height="5.4"/>
	<rect x="110" y="79.8" class="st9" width="5.4" height="5.4"/>
	<rect x="115.3" y="79.8" class="st13" width="5.4" height="5.4"/>
	<rect x="120.7" y="79.8" class="st0" width="5.4" height="5.4"/>
	<rect x="158.4" y="79.8" class="st0" width="5.4" height="5.4"/>
	<rect x="163.8" y="79.8" class="st0" width="5.4" height="5.4"/>
	<rect x="13" y="85.2" class="st0" width="5.4" height="5.4"/>
	<rect x="18.4" y="85.2" class="st1" width="5.4" height="5.4"/>
	<rect x="23.8" y="85.2" class="st0" width="5.4" height="5.4"/>
	<rect x="34.6" y="85.2" class="st0" width="5.4" height="5.4"/>
	<rect x="40" y="85.2" class="st3" width="5.4" height="5.4"/>
	<rect x="45.3" y="85.2" class="st6" width="5.4" height="5.4"/>
	<rect x="50.7" y="85.2" class="st6" width="5.4" height="5.4"/>
	<rect x="56.1" y="85.2" class="st7" width="5.4" height="5.4"/>
	<rect x="61.5" y="85.2" class="st9" width="5.4" height="5.4"/>
	<rect x="66.9" y="85.2" class="st7" width="5.4" height="5.4"/>
	<rect x="72.3" y="85.2" class="st7" width="5.4" height="5.4"/>
	<rect x="77.7" y="85.2" class="st7" width="5.4" height="5.4"/>
	<rect x="83" y="85.2" class="st4" width="5.4" height="5.4"/>
	<rect x="88.4" y="85.2" class="st9" width="5.4" height="5.4"/>
	<rect x="93.8" y="85.2" class="st4" width="5.4" height="5.4"/>
	<rect x="99.2" y="85.2" class="st9" width="5.4" height="5.4"/>
	<rect x="104.6" y="85.2" class="st4" width="5.4" height="5.4"/>
	<rect x="110" y="85.2" class="st4" width="5.4" height="5.4"/>
	<rect x="115.3" y="85.2" class="st13" width="5.4" height="5.4"/>
	<rect x="120.7" y="85.2" class="st0" width="5.4" height="5.4"/>
	<rect x="153" y="85.2" class="st0" width="5.4" height="5.4"/>
	<rect x="158.4" y="85.2" class="st3" width="5.4" height="5.4"/>
	<rect x="163.8" y="85.2" class="st16" width="5.4" height="5.4"/>
	<rect x="169.2" y="85.2" class="st0" width="5.4" height="5.4"/>
	<rect x="13" y="90.6" class="st0" width="5.4" height="5.4"/>
	<rect x="18.4" y="90.6" class="st1" width="5.4" height="5.4"/>
	<rect x="23.8" y="90.6" class="st0" width="5.4" height="5.4"/>
	<rect x="40" y="90.6" class="st0" width="5.4" height="5.4"/>
	<rect x="45.3" y="90.6" class="st5" width="5.4" height="5.4"/>
	<rect x="50.7" y="90.6" class="st3" width="5.4" height="5.4"/>
	<rect x="56.1" y="90.6" class="st13" width="5.4" height="5.4"/>
	<rect x="61.5" y="90.6" class="st6" width="5.4" height="5.4"/>
	<rect x="66.9" y="90.6" class="st6" width="5.4" height="5.4"/>
	<rect x="72.3" y="90.6" class="st4" width="5.4" height="5.4"/>
	<rect x="77.7" y="90.6" class="st9" width="5.4" height="5.4"/>
	<rect x="83" y="90.6" class="st4" width="5.4" height="5.4"/>
	<rect x="88.4" y="90.6" class="st4" width="5.4" height="5.4"/>
	<rect x="93.8" y="90.6" class="st4" width="5.4" height="5.4"/>
	<rect x="99.2" y="90.6" class="st4" width="5.4" height="5.4"/>
	<rect x="104.6" y="90.6" class="st13" width="5.4" height="5.4"/>
	<rect x="110" y="90.6" class="st3" width="5.4" height="5.4"/>
	<rect x="115.3" y="90.6" class="st0" width="5.4" height="5.4"/>
	<rect x="136.9" y="90.6" class="st0" width="5.4" height="5.4"/>
	<rect x="142.3" y="90.6" class="st0" width="5.4" height="5.4"/>
	<rect x="147.7" y="90.6" class="st0" width="5.4" height="5.4"/>
	<rect x="153" y="90.6" class="st5" width="5.4" height="5.4"/>
	<rect x="158.4" y="90.6" class="st6" width="5.4" height="5.4"/>
	<rect x="163.8" y="90.6" class="st3" width="5.4" height="5.4"/>
	<rect x="169.2" y="90.6" class="st0" width="5.4" height="5.4"/>
	<rect x="13" y="96" class="st0" width="5.4" height="5.4"/>
	<rect x="18.4" y="96" class="st1" width="5.4" height="5.4"/>
	<rect x="23.8" y="96" class="st0" width="5.4" height="5.4"/>
	<rect x="40" y="96" class="st0" width="5.4" height="5.4"/>
	<rect x="45.3" y="96" class="st0" width="5.4" height="5.4"/>
	<rect x="50.7" y="96" class="st0" width="5.4" height="5.4"/>
	<rect x="56.1" y="96" class="st0" width="5.4" height="5.4"/>
	<rect x="61.5" y="96" class="st3" width="5.4" height="5.4"/>
	<rect x="66.9" y="96" class="st13" width="5.4" height="5.4"/>
	<rect x="72.3" y="96" class="st13" width="5.4" height="5.4"/>
	<rect x="77.7" y="96" class="st4" width="5.4" height="5.4"/>
	<rect x="83" y="96" class="st4" width="5.4" height="5.4"/>
	<rect x="88.4" y="96" class="st13" width="5.4" height="5.4"/>
	<rect x="93.8" y="96" class="st13" width="5.4" height="5.4"/>
	<rect x="99.2" y="96" class="st13" width="5.4" height="5.4"/>
	<rect x="104.6" y="96" class="st0" width="5.4" height="5.4"/>
	<rect x="110" y="96" class="st0" width="5.4" height="5.4"/>
	<rect x="120.7" y="96" class="st0" width="5.4" height="5.4"/>
	<rect x="126.1" y="96" class="st0" width="5.4" height="5.4"/>
	<rect x="131.5" y="96" class="st0" width="5.4" height="5.4"/>
	<rect x="136.9" y="96" class="st3" width="5.4" height="5.4"/>
	<rect x="142.3" y="96" class="st3" width="5.4" height="5.4"/>
	<rect x="147.7" y="96" class="st5" width="5.4" height="5.4"/>
	<rect x="153" y="96" class="st17" width="5.4" height="5.4"/>
	<rect x="158.4" y="96" class="st5" width="5.4" height="5.4"/>
	<rect x="163.8" y="96" class="st0" width="5.4" height="5.4"/>
	<rect x="13" y="101.4" class="st0" width="5.4" height="5.4"/>
	<rect x="18.4" y="101.4" class="st1" width="5.4" height="5.4"/>
	<rect x="23.8" y="101.4" class="st0" width="5.4" height="5.4"/>
	<rect x="34.6" y="101.4" class="st0" width="5.4" height="5.4"/>
	<rect x="40" y="101.4" class="st3" width="5.4" height="5.4"/>
	<rect x="45.3" y="101.4" class="st3" width="5.4" height="5.4"/>
	<rect x="50.7" y="101.4" class="st0" width="5.4" height="5.4"/>
	<rect x="56.1" y="101.4" class="st0" width="5.4" height="5.4"/>
	<rect x="61.5" y="101.4" class="st0" width="5.4" height="5.4"/>
	<rect x="66.9" y="101.4" class="st0" width="5.4" height="5.4"/>
	<rect x="72.3" y="101.4" class="st0" width="5.4" height="5.4"/>
	<rect x="77.7" y="101.4" class="st3" width="5.4" height="5.4"/>
	<rect x="83" y="101.4" class="st13" width="5.4" height="5.4"/>
	<rect x="88.4" y="101.4" class="st0" width="5.4" height="5.4"/>
	<rect x="93.8" y="101.4" class="st0" width="5.4" height="5.4"/>
	<rect x="99.2" y="101.4" class="st0" width="5.4" height="5.4"/>
	<rect x="104.6" y="101.4" class="st7" width="5.4" height="5.4"/>
	<rect x="110" y="101.4" class="st0" width="5.4" height="5.4"/>
	<rect x="115.3" y="101.4" class="st0" width="5.4" height="5.4"/>
	<rect x="120.7" y="101.4" class="st3" width="5.4" height="5.4"/>
	<rect x="126.1" y="101.4" class="st5" width="5.4" height="5.4"/>
	<rect x="131.5" y="101.4" class="st5" width="5.4" height="5.4"/>
	<rect x="136.9" y="101.4" class="st16" width="5.4" height="5.4"/>
	<rect x="142.3" y="101.4" class="st16" width="5.4" height="5.4"/>
	<rect x="147.7" y="101.4" class="st9" width="5.4" height="5.4"/>
	<rect x="153" y="101.4" class="st5" width="5.4" height="5.4"/>
	<rect x="158.4" y="101.4" class="st0" width="5.4" height="5.4"/>
	<rect x="13" y="106.8" class="st0" width="5.4" height="5.4"/>
	<rect x="18.4" y="106.8" class="st8" width="5.4" height="5.4"/>
	<rect x="23.8" y="106.8" class="st0" width="5.4" height="5.4"/>
	<rect x="29.2" y="106.8" class="st0" width="5.4" height="5.4"/>
	<rect x="34.6" y="106.8" class="st3" width="5.4" height="5.4"/>
	<rect x="40" y="106.8" class="st10" width="5.4" height="5.4"/>
	<rect x="45.3" y="106.8" class="st11" width="5.4" height="5.4"/>
	<rect x="50.7" y="106.8" class="st3" width="5.4" height="5.4"/>
	<rect x="56.1" y="106.8" class="st0" width="5.4" height="5.4"/>
	<rect x="61.5" y="106.8" class="st0" width="5.4" height="5.4"/>
	<rect x="66.9" y="106.8" class="st0" width="5.4" height="5.4"/>
	<rect x="72.3" y="106.8" class="st0" width="5.4" height="5.4"/>
	<rect x="77.7" y="106.8" class="st0" width="5.4" height="5.4"/>
	<rect x="83" y="106.8" class="st0" width="5.4" height="5.4"/>
	<rect x="88.4" y="106.8" class="st0" width="5.4" height="5.4"/>
	<rect x="93.8" y="106.8" class="st17" width="5.4" height="5.4"/>
	<rect x="99.2" y="106.8" class="st0" width="5.4" height="5.4"/>
	<rect x="104.6" y="106.8" class="st0" width="5.4" height="5.4"/>
	<rect x="110" y="106.8" class="st3" width="5.4" height="5.4"/>
	<rect x="115.3" y="106.8" class="st3" width="5.4" height="5.4"/>
	<rect x="120.7" y="106.8" class="st17" width="5.4" height="5.4"/>
	<rect x="126.1" y="106.8" class="st16" width="5.4" height="5.4"/>
	<rect x="131.5" y="106.8" class="st16" width="5.4" height="5.4"/>
	<rect x="136.9" y="106.8" class="st9" width="5.4" height="5.4"/>
	<rect x="142.3" y="106.8" class="st16" width="5.4" height="5.4"/>
	<rect x="147.7" y="106.8" class="st16" width="5.4" height="5.4"/>
	<rect x="153" y="106.8" class="st16" width="5.4" height="5.4"/>
	<rect x="158.4" y="106.8" class="st5" width="5.4" height="5.4"/>
	<rect x="163.8" y="106.8" class="st0" width="5.4" height="5.4"/>
	<rect x="13" y="112.2" class="st0" width="5.4" height="5.4"/>
	<rect x="18.4" y="112.2" class="st0" width="5.4" height="5.4"/>
	<rect x="23.8" y="112.2" class="st5" width="5.4" height="5.4"/>
	<rect x="29.2" y="112.2" class="st3" width="5.4" height="5.4"/>
	<rect x="34.6" y="112.2" class="st10" width="5.4" height="5.4"/>
	<rect x="40" y="112.2" class="st10" width="5.4" height="5.4"/>
	<rect x="45.3" y="112.2" class="st3" width="5.4" height="5.4"/>
	<rect x="50.7" y="112.2" class="st9" width="5.4" height="5.4"/>
	<rect x="56.1" y="112.2" class="st5" width="5.4" height="5.4"/>
	<rect x="61.5" y="112.2" class="st12" width="5.4" height="5.4"/>
	<rect x="66.9" y="112.2" class="st0" width="5.4" height="5.4"/>
	<rect x="72.3" y="112.2" class="st0" width="5.4" height="5.4"/>
	<rect x="77.7" y="112.2" class="st0" width="5.4" height="5.4"/>
	<rect x="83" y="112.2" class="st17" width="5.4" height="5.4"/>
	<rect x="88.4" y="112.2" class="st17" width="5.4" height="5.4"/>
	<rect x="93.8" y="112.2" class="st0" width="5.4" height="5.4"/>
	<rect x="99.2" y="112.2" class="st3" width="5.4" height="5.4"/>
	<rect x="104.6" y="112.2" class="st5" width="5.4" height="5.4"/>
	<rect x="110" y="112.2" class="st17" width="5.4" height="5.4"/>
	<rect x="115.3" y="112.2" class="st9" width="5.4" height="5.4"/>
	<rect x="120.7" y="112.2" class="st16" width="5.4" height="5.4"/>
	<rect x="126.1" y="112.2" class="st9" width="5.4" height="5.4"/>
	<rect x="131.5" y="112.2" class="st16" width="5.4" height="5.4"/>
	<rect x="136.9" y="112.2" class="st13" width="5.4" height="5.4"/>
	<rect x="142.3" y="112.2" class="st13" width="5.4" height="5.4"/>
	<rect x="147.7" y="112.2" class="st13" width="5.4" height="5.4"/>
	<rect x="153" y="112.2" class="st5" width="5.4" height="5.4"/>
	<rect x="158.4" y="112.2" class="st6" width="5.4" height="5.4"/>
	<rect x="163.8" y="112.2" class="st5" width="5.4" height="5.4"/>
	<rect x="169.2" y="112.2" class="st0" width="5.4" height="5.4"/>
	<rect x="13" y="117.5" class="st0" width="5.4" height="5.4"/>
	<rect x="18.4" y="117.5" class="st2" width="5.4" height="5.4"/>
	<rect x="23.8" y="117.5" class="st0" width="5.4" height="5.4"/>
	<rect x="29.2" y="117.5" class="st3" width="5.4" height="5.4"/>
	<rect x="34.6" y="117.5" class="st10" width="5.4" height="5.4"/>
	<rect x="40" y="117.5" class="st11" width="5.4" height="5.4"/>
	<rect x="45.3" y="117.5" class="st3" width="5.4" height="5.4"/>
	<rect x="50.7" y="117.5" class="st9" width="5.4" height="5.4"/>
	<rect x="56.1" y="117.5" class="st9" width="5.4" height="5.4"/>
	<rect x="61.5" y="117.5" class="st14" width="5.4" height="5.4"/>
	<rect x="66.9" y="117.5" class="st12" width="5.4" height="5.4"/>
	<rect x="72.3" y="117.5" class="st3" width="5.4" height="5.4"/>
	<rect x="77.7" y="117.5" class="st3" width="5.4" height="5.4"/>
	<rect x="83" y="117.5" class="st3" width="5.4" height="5.4"/>
	<rect x="88.4" y="117.5" class="st3" width="5.4" height="5.4"/>
	<rect x="93.8" y="117.5" class="st3" width="5.4" height="5.4"/>
	<rect x="99.2" y="117.5" class="st17" width="5.4" height="5.4"/>
	<rect x="104.6" y="117.5" class="st17" width="5.4" height="5.4"/>
	<rect x="110" y="117.5" class="st17" width="5.4" height="5.4"/>
	<rect x="115.3" y="117.5" class="st16" width="5.4" height="5.4"/>
	<rect x="120.7" y="117.5" class="st16" width="5.4" height="5.4"/>
	<rect x="126.1" y="117.5" class="st13" width="5.4" height="5.4"/>
	<rect x="131.5" y="117.5" class="st13" width="5.4" height="5.4"/>
	<rect x="136.9" y="117.5" class="st0" width="5.4" height="5.4"/>
	<rect x="142.3" y="117.5" class="st0" width="5.4" height="5.4"/>
	<rect x="147.7" y="117.5" class="st0" width="5.4" height="5.4"/>
	<rect x="153" y="117.5" class="st0" width="5.4" height="5.4"/>
	<rect x="158.4" y="117.5" class="st5" width="5.4" height="5.4"/>
	<rect x="163.8" y="117.5" class="st6" width="5.4" height="5.4"/>
	<rect x="169.2" y="117.5" class="st3" width="5.4" height="5.4"/>
	<rect x="174.6" y="117.5" class="st0" width="5.4" height="5.4"/>
	<rect x="13" y="122.9" class="st0" width="5.4" height="5.4"/>
	<rect x="18.4" y="122.9" class="st8" width="5.4" height="5.4"/>
	<rect x="23.8" y="122.9" class="st0" width="5.4" height="5.4"/>
	<rect x="29.2" y="122.9" class="st3" width="5.4" height="5.4"/>
	<rect x="34.6" y="122.9" class="st11" width="5.4" height="5.4"/>
	<rect x="40" y="122.9" class="st3" width="5.4" height="5.4"/>
	<rect x="45.3" y="122.9" class="st9" width="5.4" height="5.4"/>
	<rect x="50.7" y="122.9" class="st17" width="5.4" height="5.4"/>
	<rect x="56.1" y="122.9" class="st3" width="5.4" height="5.4"/>
	<rect x="61.5" y="122.9" class="st14" width="5.4" height="5.4"/>
	<rect x="66.9" y="122.9" class="st6" width="5.4" height="5.4"/>
	<rect x="72.3" y="122.9" class="st3" width="5.4" height="5.4"/>
	<rect x="77.7" y="122.9" class="st17" width="5.4" height="5.4"/>
	<rect x="83" y="122.9" class="st17" width="5.4" height="5.4"/>
	<rect x="88.4" y="122.9" class="st17" width="5.4" height="5.4"/>
	<rect x="93.8" y="122.9" class="st17" width="5.4" height="5.4"/>
	<rect x="99.2" y="122.9" class="st17" width="5.4" height="5.4"/>
	<rect x="104.6" y="122.9" class="st9" width="5.4" height="5.4"/>
	<rect x="110" y="122.9" class="st17" width="5.4" height="5.4"/>
	<rect x="115.3" y="122.9" class="st9" width="5.4" height="5.4"/>
	<rect x="120.7" y="122.9" class="st13" width="5.4" height="5.4"/>
	<rect x="126.1" y="122.9" class="st0" width="5.4" height="5.4"/>
	<rect x="131.5" y="122.9" class="st0" width="5.4" height="5.4"/>
	<rect x="158.4" y="122.9" class="st0" width="5.4" height="5.4"/>
	<rect x="163.8" y="122.9" class="st3" width="5.4" height="5.4"/>
	<rect x="169.2" y="122.9" class="st16" width="5.4" height="5.4"/>
	<rect x="174.6" y="122.9" class="st0" width="5.4" height="5.4"/>
	<rect x="13" y="128.3" class="st0" width="5.4" height="5.4"/>
	<rect x="18.4" y="128.3" class="st8" width="5.4" height="5.4"/>
	<rect x="23.8" y="128.3" class="st0" width="5.4" height="5.4"/>
	<rect x="29.2" y="128.3" class="st0" width="5.4" height="5.4"/>
	<rect x="34.6" y="128.3" class="st3" width="5.4" height="5.4"/>
	<rect x="40" y="128.3" class="st6" width="5.4" height="5.4"/>
	<rect x="45.3" y="128.3" class="st17" width="5.4" height="5.4"/>
	<rect x="50.7" y="128.3" class="st9" width="5.4" height="5.4"/>
	<rect x="56.1" y="128.3" class="st3" width="5.4" height="5.4"/>
	<rect x="61.5" y="128.3" class="st6" width="5.4" height="5.4"/>
	<rect x="66.9" y="128.3" class="st15" width="5.4" height="5.4"/>
	<rect x="72.3" y="128.3" class="st3" width="5.4" height="5.4"/>
	<rect x="77.7" y="128.3" class="st17" width="5.4" height="5.4"/>
	<rect x="83" y="128.3" class="st9" width="5.4" height="5.4"/>
	<rect x="88.4" y="128.3" class="st17" width="5.4" height="5.4"/>
	<rect x="93.8" y="128.3" class="st9" width="5.4" height="5.4"/>
	<rect x="99.2" y="128.3" class="st17" width="5.4" height="5.4"/>
	<rect x="104.6" y="128.3" class="st17" width="5.4" height="5.4"/>
	<rect x="110" y="128.3" class="st16" width="5.4" height="5.4"/>
	<rect x="115.3" y="128.3" class="st16" width="5.4" height="5.4"/>
	<rect x="120.7" y="128.3" class="st13" width="5.4" height="5.4"/>
	<rect x="126.1" y="128.3" class="st0" width="5.4" height="5.4"/>
	<rect x="163.8" y="128.3" class="st0" width="5.4" height="5.4"/>
	<rect x="169.2" y="128.3" class="st0" width="5.4" height="5.4"/>
	<rect x="13" y="133.7" class="st0" width="5.4" height="5.4"/>
	<rect x="18.4" y="133.7" class="st2" width="5.4" height="5.4"/>
	<rect x="23.8" y="133.7" class="st0" width="5.4" height="5.4"/>
	<rect x="34.6" y="133.7" class="st0" width="5.4" height="5.4"/>
	<rect x="40" y="133.7" class="st3" width="5.4" height="5.4"/>
	<rect x="45.3" y="133.7" class="st6" width="5.4" height="5.4"/>
	<rect x="50.7" y="133.7" class="st17" width="5.4" height="5.4"/>
	<rect x="56.1" y="133.7" class="st9" width="5.4" height="5.4"/>
	<rect x="61.5" y="133.7" class="st3" width="5.4" height="5.4"/>
	<rect x="66.9" y="133.7" class="st3" width="5.4" height="5.4"/>
	<rect x="72.3" y="133.7" class="st9" width="5.4" height="5.4"/>
	<rect x="77.7" y="133.7" class="st17" width="5.4" height="5.4"/>
	<rect x="83" y="133.7" class="st17" width="5.4" height="5.4"/>
	<rect x="88.4" y="133.7" class="st17" width="5.4" height="5.4"/>
	<rect x="93.8" y="133.7" class="st17" width="5.4" height="5.4"/>
	<rect x="99.2" y="133.7" class="st17" width="5.4" height="5.4"/>
	<rect x="104.6" y="133.7" class="st16" width="5.4" height="5.4"/>
	<rect x="110" y="133.7" class="st9" width="5.4" height="5.4"/>
	<rect x="115.3" y="133.7" class="st13" width="5.4" height="5.4"/>
	<rect x="120.7" y="133.7" class="st0" width="5.4" height="5.4"/>
	<rect x="13" y="139.1" class="st0" width="5.4" height="5.4"/>
	<rect x="18.4" y="139.1" class="st2" width="5.4" height="5.4"/>
	<rect x="23.8" y="139.1" class="st0" width="5.4" height="5.4"/>
	<rect x="34.6" y="139.1" class="st0" width="5.4" height="5.4"/>
	<rect x="40" y="139.1" class="st3" width="5.4" height="5.4"/>
	<rect x="45.3" y="139.1" class="st6" width="5.4" height="5.4"/>
	<rect x="50.7" y="139.1" class="st6" width="5.4" height="5.4"/>
	<rect x="56.1" y="139.1" class="st17" width="5.4" height="5.4"/>
	<rect x="61.5" y="139.1" class="st9" width="5.4" height="5.4"/>
	<rect x="66.9" y="139.1" class="st17" width="5.4" height="5.4"/>
	<rect x="72.3" y="139.1" class="st17" width="5.4" height="5.4"/>
	<rect x="77.7" y="139.1" class="st17" width="5.4" height="5.4"/>
	<rect x="83" y="139.1" class="st16" width="5.4" height="5.4"/>
	<rect x="88.4" y="139.1" class="st9" width="5.4" height="5.4"/>
	<rect x="93.8" y="139.1" class="st16" width="5.4" height="5.4"/>
	<rect x="99.2" y="139.1" class="st9" width="5.4" height="5.4"/>
	<rect x="104.6" y="139.1" class="st16" width="5.4" height="5.4"/>
	<rect x="110" y="139.1" class="st16" width="5.4" height="5.4"/>
	<rect x="115.3" y="139.1" class="st3" width="5.4" height="5.4"/>
	<rect x="120.7" y="139.1" class="st0" width="5.4" height="5.4"/>
	<rect x="13" y="144.5" class="st0" width="5.4" height="5.4"/>
	<rect x="18.4" y="144.5" class="st2" width="5.4" height="5.4"/>
	<rect x="23.8" y="144.5" class="st0" width="5.4" height="5.4"/>
	<rect x="40" y="144.5" class="st0" width="5.4" height="5.4"/>
	<rect x="45.3" y="144.5" class="st3" width="5.4" height="5.4"/>
	<rect x="50.7" y="144.5" class="st13" width="5.4" height="5.4"/>
	<rect x="56.1" y="144.5" class="st13" width="5.4" height="5.4"/>
	<rect x="61.5" y="144.5" class="st6" width="5.4" height="5.4"/>
	<rect x="66.9" y="144.5" class="st6" width="5.4" height="5.4"/>
	<rect x="72.3" y="144.5" class="st16" width="5.4" height="5.4"/>
	<rect x="77.7" y="144.5" class="st9" width="5.4" height="5.4"/>
	<rect x="83" y="144.5" class="st16" width="5.4" height="5.4"/>
	<rect x="88.4" y="144.5" class="st16" width="5.4" height="5.4"/>
	<rect x="93.8" y="144.5" class="st16" width="5.4" height="5.4"/>
	<rect x="99.2" y="144.5" class="st16" width="5.4" height="5.4"/>
	<rect x="104.6" y="144.5" class="st13" width="5.4" height="5.4"/>
	<rect x="110" y="144.5" class="st13" width="5.4" height="5.4"/>
	<rect x="115.3" y="144.5" class="st0" width="5.4" height="5.4"/>
	<rect x="13" y="149.8" class="st0" width="5.4" height="5.4"/>
	<rect x="18.4" y="149.8" class="st18" width="5.4" height="5.4"/>
	<rect x="23.8" y="149.8" class="st0" width="5.4" height="5.4"/>
	<rect x="45.3" y="149.8" class="st0" width="5.4" height="5.4"/>
	<rect x="50.7" y="149.8" class="st0" width="5.4" height="5.4"/>
	<rect x="56.1" y="149.8" class="st0" width="5.4" height="5.4"/>
	<rect x="61.5" y="149.8" class="st3" width="5.4" height="5.4"/>
	<rect x="66.9" y="149.8" class="st3" width="5.4" height="5.4"/>
	<rect x="72.3" y="149.8" class="st13" width="5.4" height="5.4"/>
	<rect x="77.7" y="149.8" class="st16" width="5.4" height="5.4"/>
	<rect x="83" y="149.8" class="st16" width="5.4" height="5.4"/>
	<rect x="88.4" y="149.8" class="st13" width="5.4" height="5.4"/>
	<rect x="93.8" y="149.8" class="st13" width="5.4" height="5.4"/>
	<rect x="99.2" y="149.8" class="st13" width="5.4" height="5.4"/>
	<rect x="104.6" y="149.8" class="st0" width="5.4" height="5.4"/>
	<rect x="110" y="149.8" class="st0" width="5.4" height="5.4"/>
	<rect x="13" y="155.2" class="st0" width="5.4" height="5.4"/>
	<rect x="18.4" y="155.2" class="st1" width="5.4" height="5.4"/>
	<rect x="23.8" y="155.2" class="st0" width="5.4" height="5.4"/>
	<rect x="61.5" y="155.2" class="st0" width="5.4" height="5.4"/>
	<rect x="66.9" y="155.2" class="st0" width="5.4" height="5.4"/>
	<rect x="72.3" y="155.2" class="st0" width="5.4" height="5.4"/>
	<rect x="77.7" y="155.2" class="st3" width="5.4" height="5.4"/>
	<rect x="83" y="155.2" class="st13" width="5.4" height="5.4"/>
	<rect x="88.4" y="155.2" class="st0" width="5.4" height="5.4"/>
	<rect x="93.8" y="155.2" class="st0" width="5.4" height="5.4"/>
	<rect x="99.2" y="155.2" class="st0" width="5.4" height="5.4"/>
	<rect x="104.6" y="155.2" class="st17" width="5.4" height="5.4"/>
	<rect x="110" y="155.2" class="st0" width="5.4" height="5.4"/>
	<rect x="13" y="160.6" class="st0" width="5.4" height="5.4"/>
	<rect x="18.4" y="160.6" class="st1" width="5.4" height="5.4"/>
	<rect x="23.8" y="160.6" class="st0" width="5.4" height="5.4"/>
	<rect x="77.7" y="160.6" class="st0" width="5.4" height="5.4"/>
	<rect x="83" y="160.6" class="st0" width="5.4" height="5.4"/>
	<rect x="104.6" y="160.6" class="st0" width="5.4" height="5.4"/>
	<rect x="18.4" y="166" class="st0" width="5.4" height="5.4"/>
</g>
</svg>
