<?xml version="1.0" encoding="utf-8"?>
<!-- Generator: Adobe Illustrator 27.9.0, SVG Export Plug-In . SVG Version: 6.00 Build 0)  -->
<svg version="1.1" id="Layer_1" shape-rendering="crispEdges"
	 xmlns="http://www.w3.org/2000/svg" xmlns:xlink="http://www.w3.org/1999/xlink" x="0px" y="0px" viewBox="0 0 192 192"
	 style="enable-background:new 0 0 192 192;" xml:space="preserve">
<style type="text/css">
	.st0{fill:#5CABE1;}
	.st1{fill:#B55D83;}
	.st2{fill:#ECE7E8;}
	.st3{fill:#AFB5CA;}
	.st4{fill:#E17557;}
	.st5{fill:#8D5386;}
	.st6{fill:#D1584A;}
	.st7{fill:#B3CCD5;}
	.st8{fill:#E7A55D;}
	.st9{fill:#907389;}
	.st10{fill:#EB97A7;}
	.st11{fill:#F1BAC7;}
	.st12{fill:#E36C74;}
	.st13{fill:#914938;}
	.st14{fill:#B65638;}
	.st15{fill:#694F86;}
	.st16{fill:#B3534E;}
	.st17{fill:#E2574A;}
	.st18{fill:#AA3963;}
	.st19{fill:#AE5269;}
	.st20{fill:#4E6B90;}
	.st21{fill:#C6E174;}
	.st22{fill:#1D8566;}
	.st23{fill:#15795B;}
	.st24{fill:#50B06E;}
	.st25{fill:#68D65C;}
	.st26{fill:#AA9688;}
	.st27{fill:#733C81;}
</style>
<g>
	<rect x="40.4" y="12.6" class="st0" width="5.6" height="5.6"/>
	<rect x="46" y="12.6" class="st0" width="5.6" height="5.6"/>
	<rect x="51.5" y="12.6" class="st0" width="5.6" height="5.6"/>
	<rect x="129.4" y="12.6" class="st0" width="5.6" height="5.6"/>
	<rect x="134.9" y="12.6" class="st0" width="5.6" height="5.6"/>
	<rect x="140.5" y="12.6" class="st0" width="5.6" height="5.6"/>
	<rect x="34.8" y="18.2" class="st0" width="5.6" height="5.6"/>
	<rect x="40.4" y="18.2" class="st1" width="5.6" height="5.6"/>
	<rect x="46" y="18.2" class="st1" width="5.6" height="5.6"/>
	<rect x="51.5" y="18.2" class="st1" width="5.6" height="5.6"/>
	<rect x="57.1" y="18.2" class="st0" width="5.6" height="5.6"/>
	<rect x="123.8" y="18.2" class="st0" width="5.6" height="5.6"/>
	<rect x="129.4" y="18.2" class="st1" width="5.6" height="5.6"/>
	<rect x="134.9" y="18.2" class="st1" width="5.6" height="5.6"/>
	<rect x="140.5" y="18.2" class="st1" width="5.6" height="5.6"/>
	<rect x="146" y="18.2" class="st0" width="5.6" height="5.6"/>
	<rect x="34.8" y="23.7" class="st0" width="5.6" height="5.6"/>
	<rect x="40.4" y="23.7" class="st1" width="5.6" height="5.6"/>
	<rect x="46" y="23.7" class="st2" width="5.6" height="5.6"/>
	<rect x="51.5" y="23.7" class="st2" width="5.6" height="5.6"/>
	<rect x="57.1" y="23.7" class="st1" width="5.6" height="5.6"/>
	<rect x="62.6" y="23.7" class="st0" width="5.6" height="5.6"/>
	<rect x="79.3" y="23.7" class="st0" width="5.6" height="5.6"/>
	<rect x="84.9" y="23.7" class="st0" width="5.6" height="5.6"/>
	<rect x="90.4" y="23.7" class="st0" width="5.6" height="5.6"/>
	<rect x="96" y="23.7" class="st0" width="5.6" height="5.6"/>
	<rect x="101.6" y="23.7" class="st0" width="5.6" height="5.6"/>
	<rect x="118.2" y="23.7" class="st0" width="5.6" height="5.6"/>
	<rect x="123.8" y="23.7" class="st1" width="5.6" height="5.6"/>
	<rect x="129.4" y="23.7" class="st2" width="5.6" height="5.6"/>
	<rect x="134.9" y="23.7" class="st2" width="5.6" height="5.6"/>
	<rect x="140.5" y="23.7" class="st1" width="5.6" height="5.6"/>
	<rect x="146" y="23.7" class="st0" width="5.6" height="5.6"/>
	<rect x="34.8" y="29.3" class="st0" width="5.6" height="5.6"/>
	<rect x="40.4" y="29.3" class="st1" width="5.6" height="5.6"/>
	<rect x="46" y="29.3" class="st3" width="5.6" height="5.6"/>
	<rect x="51.5" y="29.3" class="st4" width="5.6" height="5.6"/>
	<rect x="57.1" y="29.3" class="st2" width="5.6" height="5.6"/>
	<rect x="62.6" y="29.3" class="st5" width="5.6" height="5.6"/>
	<rect x="68.2" y="29.3" class="st0" width="5.6" height="5.6"/>
	<rect x="73.8" y="29.3" class="st0" width="5.6" height="5.6"/>
	<rect x="79.3" y="29.3" class="st1" width="5.6" height="5.6"/>
	<rect x="84.9" y="29.3" class="st1" width="5.6" height="5.6"/>
	<rect x="90.4" y="29.3" class="st1" width="5.6" height="5.6"/>
	<rect x="96" y="29.3" class="st1" width="5.6" height="5.6"/>
	<rect x="101.6" y="29.3" class="st1" width="5.6" height="5.6"/>
	<rect x="107.1" y="29.3" class="st0" width="5.6" height="5.6"/>
	<rect x="112.7" y="29.3" class="st0" width="5.6" height="5.6"/>
	<rect x="118.2" y="29.3" class="st5" width="5.6" height="5.6"/>
	<rect x="123.8" y="29.3" class="st2" width="5.6" height="5.6"/>
	<rect x="129.4" y="29.3" class="st4" width="5.6" height="5.6"/>
	<rect x="134.9" y="29.3" class="st3" width="5.6" height="5.6"/>
	<rect x="140.5" y="29.3" class="st1" width="5.6" height="5.6"/>
	<rect x="146" y="29.3" class="st0" width="5.6" height="5.6"/>
	<rect x="34.8" y="34.8" class="st0" width="5.6" height="5.6"/>
	<rect x="40.4" y="34.8" class="st5" width="5.6" height="5.6"/>
	<rect x="46" y="34.8" class="st3" width="5.6" height="5.6"/>
	<rect x="51.5" y="34.8" class="st4" width="5.6" height="5.6"/>
	<rect x="57.1" y="34.8" class="st6" width="5.6" height="5.6"/>
	<rect x="62.6" y="34.8" class="st2" width="5.6" height="5.6"/>
	<rect x="68.2" y="34.8" class="st5" width="5.6" height="5.6"/>
	<rect x="73.8" y="34.8" class="st1" width="5.6" height="5.6"/>
	<rect x="79.3" y="34.8" class="st7" width="5.6" height="5.6"/>
	<rect x="84.9" y="34.8" class="st7" width="5.6" height="5.6"/>
	<rect x="90.4" y="34.8" class="st7" width="5.6" height="5.6"/>
	<rect x="96" y="34.8" class="st8" width="5.6" height="5.6"/>
	<rect x="101.6" y="34.8" class="st8" width="5.6" height="5.6"/>
	<rect x="107.1" y="34.8" class="st5" width="5.6" height="5.6"/>
	<rect x="112.7" y="34.8" class="st1" width="5.6" height="5.6"/>
	<rect x="118.2" y="34.8" class="st2" width="5.6" height="5.6"/>
	<rect x="123.8" y="34.8" class="st6" width="5.6" height="5.6"/>
	<rect x="129.4" y="34.8" class="st4" width="5.6" height="5.6"/>
	<rect x="134.9" y="34.8" class="st3" width="5.6" height="5.6"/>
	<rect x="140.5" y="34.8" class="st5" width="5.6" height="5.6"/>
	<rect x="146" y="34.8" class="st0" width="5.6" height="5.6"/>
	<rect x="34.8" y="40.4" class="st0" width="5.6" height="5.6"/>
	<rect x="40.4" y="40.4" class="st5" width="5.6" height="5.6"/>
	<rect x="46" y="40.4" class="st3" width="5.6" height="5.6"/>
	<rect x="51.5" y="40.4" class="st6" width="5.6" height="5.6"/>
	<rect x="57.1" y="40.4" class="st1" width="5.6" height="5.6"/>
	<rect x="62.6" y="40.4" class="st1" width="5.6" height="5.6"/>
	<rect x="68.2" y="40.4" class="st2" width="5.6" height="5.6"/>
	<rect x="73.8" y="40.4" class="st2" width="5.6" height="5.6"/>
	<rect x="79.3" y="40.4" class="st2" width="5.6" height="5.6"/>
	<rect x="84.9" y="40.4" class="st2" width="5.6" height="5.6"/>
	<rect x="90.4" y="40.4" class="st2" width="5.6" height="5.6"/>
	<rect x="96" y="40.4" class="st8" width="5.6" height="5.6"/>
	<rect x="101.6" y="40.4" class="st8" width="5.6" height="5.6"/>
	<rect x="107.1" y="40.4" class="st8" width="5.6" height="5.6"/>
	<rect x="112.7" y="40.4" class="st8" width="5.6" height="5.6"/>
	<rect x="118.2" y="40.4" class="st1" width="5.6" height="5.6"/>
	<rect x="123.8" y="40.4" class="st1" width="5.6" height="5.6"/>
	<rect x="129.4" y="40.4" class="st6" width="5.6" height="5.6"/>
	<rect x="134.9" y="40.4" class="st3" width="5.6" height="5.6"/>
	<rect x="140.5" y="40.4" class="st5" width="5.6" height="5.6"/>
	<rect x="146" y="40.4" class="st0" width="5.6" height="5.6"/>
	<rect x="34.8" y="46" class="st0" width="5.6" height="5.6"/>
	<rect x="40.4" y="46" class="st5" width="5.6" height="5.6"/>
	<rect x="46" y="46" class="st3" width="5.6" height="5.6"/>
	<rect x="51.5" y="46" class="st1" width="5.6" height="5.6"/>
	<rect x="57.1" y="46" class="st2" width="5.6" height="5.6"/>
	<rect x="62.6" y="46" class="st2" width="5.6" height="5.6"/>
	<rect x="68.2" y="46" class="st1" width="5.6" height="5.6"/>
	<rect x="73.8" y="46" class="st2" width="5.6" height="5.6"/>
	<rect x="79.3" y="46" class="st2" width="5.6" height="5.6"/>
	<rect x="84.9" y="46" class="st2" width="5.6" height="5.6"/>
	<rect x="90.4" y="46" class="st2" width="5.6" height="5.6"/>
	<rect x="96" y="46" class="st2" width="5.6" height="5.6"/>
	<rect x="101.6" y="46" class="st8" width="5.6" height="5.6"/>
	<rect x="107.1" y="46" class="st8" width="5.6" height="5.6"/>
	<rect x="112.7" y="46" class="st1" width="5.6" height="5.6"/>
	<rect x="118.2" y="46" class="st8" width="5.6" height="5.6"/>
	<rect x="123.8" y="46" class="st8" width="5.6" height="5.6"/>
	<rect x="129.4" y="46" class="st1" width="5.6" height="5.6"/>
	<rect x="134.9" y="46" class="st3" width="5.6" height="5.6"/>
	<rect x="140.5" y="46" class="st5" width="5.6" height="5.6"/>
	<rect x="146" y="46" class="st0" width="5.6" height="5.6"/>
	<rect x="34.8" y="51.5" class="st0" width="5.6" height="5.6"/>
	<rect x="40.4" y="51.5" class="st5" width="5.6" height="5.6"/>
	<rect x="46" y="51.5" class="st3" width="5.6" height="5.6"/>
	<rect x="51.5" y="51.5" class="st1" width="5.6" height="5.6"/>
	<rect x="57.1" y="51.5" class="st2" width="5.6" height="5.6"/>
	<rect x="62.6" y="51.5" class="st2" width="5.6" height="5.6"/>
	<rect x="68.2" y="51.5" class="st2" width="5.6" height="5.6"/>
	<rect x="73.8" y="51.5" class="st2" width="5.6" height="5.6"/>
	<rect x="79.3" y="51.5" class="st2" width="5.6" height="5.6"/>
	<rect x="84.9" y="51.5" class="st2" width="5.6" height="5.6"/>
	<rect x="90.4" y="51.5" class="st2" width="5.6" height="5.6"/>
	<rect x="96" y="51.5" class="st2" width="5.6" height="5.6"/>
	<rect x="101.6" y="51.5" class="st2" width="5.6" height="5.6"/>
	<rect x="107.1" y="51.5" class="st8" width="5.6" height="5.6"/>
	<rect x="112.7" y="51.5" class="st8" width="5.6" height="5.6"/>
	<rect x="118.2" y="51.5" class="st8" width="5.6" height="5.6"/>
	<rect x="123.8" y="51.5" class="st8" width="5.6" height="5.6"/>
	<rect x="129.4" y="51.5" class="st1" width="5.6" height="5.6"/>
	<rect x="134.9" y="51.5" class="st3" width="5.6" height="5.6"/>
	<rect x="140.5" y="51.5" class="st5" width="5.6" height="5.6"/>
	<rect x="146" y="51.5" class="st0" width="5.6" height="5.6"/>
	<rect x="34.8" y="57.1" class="st0" width="5.6" height="5.6"/>
	<rect x="40.4" y="57.1" class="st5" width="5.6" height="5.6"/>
	<rect x="46" y="57.1" class="st1" width="5.6" height="5.6"/>
	<rect x="51.5" y="57.1" class="st2" width="5.6" height="5.6"/>
	<rect x="57.1" y="57.1" class="st2" width="5.6" height="5.6"/>
	<rect x="62.6" y="57.1" class="st5" width="5.6" height="5.6"/>
	<rect x="68.2" y="57.1" class="st5" width="5.6" height="5.6"/>
	<rect x="73.8" y="57.1" class="st2" width="5.6" height="5.6"/>
	<rect x="79.3" y="57.1" class="st2" width="5.6" height="5.6"/>
	<rect x="84.9" y="57.1" class="st2" width="5.6" height="5.6"/>
	<rect x="90.4" y="57.1" class="st2" width="5.6" height="5.6"/>
	<rect x="96" y="57.1" class="st2" width="5.6" height="5.6"/>
	<rect x="101.6" y="57.1" class="st2" width="5.6" height="5.6"/>
	<rect x="107.1" y="57.1" class="st2" width="5.6" height="5.6"/>
	<rect x="112.7" y="57.1" class="st5" width="5.6" height="5.6"/>
	<rect x="118.2" y="57.1" class="st5" width="5.6" height="5.6"/>
	<rect x="123.8" y="57.1" class="st8" width="5.6" height="5.6"/>
	<rect x="129.4" y="57.1" class="st8" width="5.6" height="5.6"/>
	<rect x="134.9" y="57.1" class="st1" width="5.6" height="5.6"/>
	<rect x="140.5" y="57.1" class="st5" width="5.6" height="5.6"/>
	<rect x="146" y="57.1" class="st0" width="5.6" height="5.6"/>
	<rect x="151.6" y="57.1" class="st0" width="5.6" height="5.6"/>
	<rect x="157.2" y="57.1" class="st0" width="5.6" height="5.6"/>
	<rect x="162.7" y="57.1" class="st0" width="5.6" height="5.6"/>
	<rect x="29.3" y="62.6" class="st0" width="5.6" height="5.6"/>
	<rect x="34.8" y="62.6" class="st5" width="5.6" height="5.6"/>
	<rect x="40.4" y="62.6" class="st7" width="5.6" height="5.6"/>
	<rect x="46" y="62.6" class="st7" width="5.6" height="5.6"/>
	<rect x="51.5" y="62.6" class="st2" width="5.6" height="5.6"/>
	<rect x="57.1" y="62.6" class="st5" width="5.6" height="5.6"/>
	<rect x="62.6" y="62.6" class="st2" width="5.6" height="5.6"/>
	<rect x="68.2" y="62.6" class="st2" width="5.6" height="5.6"/>
	<rect x="73.8" y="62.6" class="st5" width="5.6" height="5.6"/>
	<rect x="79.3" y="62.6" class="st2" width="5.6" height="5.6"/>
	<rect x="84.9" y="62.6" class="st2" width="5.6" height="5.6"/>
	<rect x="90.4" y="62.6" class="st2" width="5.6" height="5.6"/>
	<rect x="96" y="62.6" class="st2" width="5.6" height="5.6"/>
	<rect x="101.6" y="62.6" class="st2" width="5.6" height="5.6"/>
	<rect x="107.1" y="62.6" class="st5" width="5.6" height="5.6"/>
	<rect x="112.7" y="62.6" class="st2" width="5.6" height="5.6"/>
	<rect x="118.2" y="62.6" class="st2" width="5.6" height="5.6"/>
	<rect x="123.8" y="62.6" class="st5" width="5.6" height="5.6"/>
	<rect x="129.4" y="62.6" class="st8" width="5.6" height="5.6"/>
	<rect x="134.9" y="62.6" class="st8" width="5.6" height="5.6"/>
	<rect x="140.5" y="62.6" class="st5" width="5.6" height="5.6"/>
	<rect x="146" y="62.6" class="st5" width="5.6" height="5.6"/>
	<rect x="151.6" y="62.6" class="st5" width="5.6" height="5.6"/>
	<rect x="157.2" y="62.6" class="st5" width="5.6" height="5.6"/>
	<rect x="162.7" y="62.6" class="st5" width="5.6" height="5.6"/>
	<rect x="168.3" y="62.6" class="st0" width="5.6" height="5.6"/>
	<rect x="29.3" y="68.2" class="st0" width="5.6" height="5.6"/>
	<rect x="34.8" y="68.2" class="st5" width="5.6" height="5.6"/>
	<rect x="40.4" y="68.2" class="st7" width="5.6" height="5.6"/>
	<rect x="46" y="68.2" class="st2" width="5.6" height="5.6"/>
	<rect x="51.5" y="68.2" class="st2" width="5.6" height="5.6"/>
	<rect x="57.1" y="68.2" class="st2" width="5.6" height="5.6"/>
	<rect x="62.6" y="68.2" class="st2" width="5.6" height="5.6"/>
	<rect x="68.2" y="68.2" class="st2" width="5.6" height="5.6"/>
	<rect x="73.8" y="68.2" class="st2" width="5.6" height="5.6"/>
	<rect x="79.3" y="68.2" class="st2" width="5.6" height="5.6"/>
	<rect x="84.9" y="68.2" class="st5" width="5.6" height="5.6"/>
	<rect x="90.4" y="68.2" class="st5" width="5.6" height="5.6"/>
	<rect x="96" y="68.2" class="st5" width="5.6" height="5.6"/>
	<rect x="101.6" y="68.2" class="st2" width="5.6" height="5.6"/>
	<rect x="107.1" y="68.2" class="st2" width="5.6" height="5.6"/>
	<rect x="112.7" y="68.2" class="st2" width="5.6" height="5.6"/>
	<rect x="118.2" y="68.2" class="st2" width="5.6" height="5.6"/>
	<rect x="123.8" y="68.2" class="st2" width="5.6" height="5.6"/>
	<rect x="129.4" y="68.2" class="st2" width="5.6" height="5.6"/>
	<rect x="134.9" y="68.2" class="st5" width="5.6" height="5.6"/>
	<rect x="140.5" y="68.2" class="st7" width="5.6" height="5.6"/>
	<rect x="146" y="68.2" class="st2" width="5.6" height="5.6"/>
	<rect x="151.6" y="68.2" class="st2" width="5.6" height="5.6"/>
	<rect x="157.2" y="68.2" class="st2" width="5.6" height="5.6"/>
	<rect x="162.7" y="68.2" class="st2" width="5.6" height="5.6"/>
	<rect x="168.3" y="68.2" class="st5" width="5.6" height="5.6"/>
	<rect x="173.8" y="68.2" class="st0" width="5.6" height="5.6"/>
	<rect x="29.3" y="73.8" class="st0" width="5.6" height="5.6"/>
	<rect x="34.8" y="73.8" class="st5" width="5.6" height="5.6"/>
	<rect x="40.4" y="73.8" class="st5" width="5.6" height="5.6"/>
	<rect x="46" y="73.8" class="st9" width="5.6" height="5.6"/>
	<rect x="51.5" y="73.8" class="st2" width="5.6" height="5.6"/>
	<rect x="57.1" y="73.8" class="st10" width="5.6" height="5.6"/>
	<rect x="62.6" y="73.8" class="st11" width="5.6" height="5.6"/>
	<rect x="68.2" y="73.8" class="st2" width="5.6" height="5.6"/>
	<rect x="73.8" y="73.8" class="st12" width="5.6" height="5.6"/>
	<rect x="79.3" y="73.8" class="st2" width="5.6" height="5.6"/>
	<rect x="84.9" y="73.8" class="st2" width="5.6" height="5.6"/>
	<rect x="90.4" y="73.8" class="st12" width="5.6" height="5.6"/>
	<rect x="96" y="73.8" class="st2" width="5.6" height="5.6"/>
	<rect x="101.6" y="73.8" class="st2" width="5.6" height="5.6"/>
	<rect x="107.1" y="73.8" class="st12" width="5.6" height="5.6"/>
	<rect x="112.7" y="73.8" class="st2" width="5.6" height="5.6"/>
	<rect x="118.2" y="73.8" class="st11" width="5.6" height="5.6"/>
	<rect x="123.8" y="73.8" class="st10" width="5.6" height="5.6"/>
	<rect x="129.4" y="73.8" class="st2" width="5.6" height="5.6"/>
	<rect x="134.9" y="73.8" class="st5" width="5.6" height="5.6"/>
	<rect x="140.5" y="73.8" class="st7" width="5.6" height="5.6"/>
	<rect x="146" y="73.8" class="st2" width="5.6" height="5.6"/>
	<rect x="151.6" y="73.8" class="st2" width="5.6" height="5.6"/>
	<rect x="157.2" y="73.8" class="st2" width="5.6" height="5.6"/>
	<rect x="162.7" y="73.8" class="st2" width="5.6" height="5.6"/>
	<rect x="168.3" y="73.8" class="st5" width="5.6" height="5.6"/>
	<rect x="173.8" y="73.8" class="st0" width="5.6" height="5.6"/>
	<rect x="29.3" y="79.3" class="st0" width="5.6" height="5.6"/>
	<rect x="34.8" y="79.3" class="st5" width="5.6" height="5.6"/>
	<rect x="40.4" y="79.3" class="st7" width="5.6" height="5.6"/>
	<rect x="46" y="79.3" class="st2" width="5.6" height="5.6"/>
	<rect x="51.5" y="79.3" class="st2" width="5.6" height="5.6"/>
	<rect x="57.1" y="79.3" class="st2" width="5.6" height="5.6"/>
	<rect x="62.6" y="79.3" class="st2" width="5.6" height="5.6"/>
	<rect x="68.2" y="79.3" class="st2" width="5.6" height="5.6"/>
	<rect x="73.8" y="79.3" class="st2" width="5.6" height="5.6"/>
	<rect x="79.3" y="79.3" class="st12" width="5.6" height="5.6"/>
	<rect x="84.9" y="79.3" class="st12" width="5.6" height="5.6"/>
	<rect x="90.4" y="79.3" class="st2" width="5.6" height="5.6"/>
	<rect x="96" y="79.3" class="st12" width="5.6" height="5.6"/>
	<rect x="101.6" y="79.3" class="st12" width="5.6" height="5.6"/>
	<rect x="107.1" y="79.3" class="st2" width="5.6" height="5.6"/>
	<rect x="112.7" y="79.3" class="st2" width="5.6" height="5.6"/>
	<rect x="118.2" y="79.3" class="st2" width="5.6" height="5.6"/>
	<rect x="123.8" y="79.3" class="st2" width="5.6" height="5.6"/>
	<rect x="129.4" y="79.3" class="st2" width="5.6" height="5.6"/>
	<rect x="134.9" y="79.3" class="st5" width="5.6" height="5.6"/>
	<rect x="140.5" y="79.3" class="st7" width="5.6" height="5.6"/>
	<rect x="146" y="79.3" class="st5" width="5.6" height="5.6"/>
	<rect x="151.6" y="79.3" class="st7" width="5.6" height="5.6"/>
	<rect x="157.2" y="79.3" class="st5" width="5.6" height="5.6"/>
	<rect x="162.7" y="79.3" class="st7" width="5.6" height="5.6"/>
	<rect x="168.3" y="79.3" class="st5" width="5.6" height="5.6"/>
	<rect x="173.8" y="79.3" class="st0" width="5.6" height="5.6"/>
	<rect x="34.8" y="84.9" class="st0" width="5.6" height="5.6"/>
	<rect x="40.4" y="84.9" class="st5" width="5.6" height="5.6"/>
	<rect x="46" y="84.9" class="st7" width="5.6" height="5.6"/>
	<rect x="51.5" y="84.9" class="st2" width="5.6" height="5.6"/>
	<rect x="57.1" y="84.9" class="st2" width="5.6" height="5.6"/>
	<rect x="62.6" y="84.9" class="st2" width="5.6" height="5.6"/>
	<rect x="68.2" y="84.9" class="st2" width="5.6" height="5.6"/>
	<rect x="73.8" y="84.9" class="st2" width="5.6" height="5.6"/>
	<rect x="79.3" y="84.9" class="st2" width="5.6" height="5.6"/>
	<rect x="84.9" y="84.9" class="st2" width="5.6" height="5.6"/>
	<rect x="90.4" y="84.9" class="st2" width="5.6" height="5.6"/>
	<rect x="96" y="84.9" class="st2" width="5.6" height="5.6"/>
	<rect x="101.6" y="84.9" class="st2" width="5.6" height="5.6"/>
	<rect x="107.1" y="84.9" class="st2" width="5.6" height="5.6"/>
	<rect x="112.7" y="84.9" class="st2" width="5.6" height="5.6"/>
	<rect x="118.2" y="84.9" class="st2" width="5.6" height="5.6"/>
	<rect x="123.8" y="84.9" class="st2" width="5.6" height="5.6"/>
	<rect x="129.4" y="84.9" class="st2" width="5.6" height="5.6"/>
	<rect x="134.9" y="84.9" class="st7" width="5.6" height="5.6"/>
	<rect x="140.5" y="84.9" class="st5" width="5.6" height="5.6"/>
	<rect x="146" y="84.9" class="st5" width="5.6" height="5.6"/>
	<rect x="151.6" y="84.9" class="st5" width="5.6" height="5.6"/>
	<rect x="157.2" y="84.9" class="st5" width="5.6" height="5.6"/>
	<rect x="162.7" y="84.9" class="st5" width="5.6" height="5.6"/>
	<rect x="168.3" y="84.9" class="st0" width="5.6" height="5.6"/>
	<rect x="40.4" y="90.4" class="st0" width="5.6" height="5.6"/>
	<rect x="46" y="90.4" class="st13" width="5.6" height="5.6"/>
	<rect x="51.5" y="90.4" class="st13" width="5.6" height="5.6"/>
	<rect x="57.1" y="90.4" class="st14" width="5.6" height="5.6"/>
	<rect x="62.6" y="90.4" class="st14" width="5.6" height="5.6"/>
	<rect x="68.2" y="90.4" class="st7" width="5.6" height="5.6"/>
	<rect x="73.8" y="90.4" class="st2" width="5.6" height="5.6"/>
	<rect x="79.3" y="90.4" class="st2" width="5.6" height="5.6"/>
	<rect x="84.9" y="90.4" class="st2" width="5.6" height="5.6"/>
	<rect x="90.4" y="90.4" class="st2" width="5.6" height="5.6"/>
	<rect x="96" y="90.4" class="st2" width="5.6" height="5.6"/>
	<rect x="101.6" y="90.4" class="st2" width="5.6" height="5.6"/>
	<rect x="107.1" y="90.4" class="st2" width="5.6" height="5.6"/>
	<rect x="112.7" y="90.4" class="st7" width="5.6" height="5.6"/>
	<rect x="118.2" y="90.4" class="st14" width="5.6" height="5.6"/>
	<rect x="123.8" y="90.4" class="st14" width="5.6" height="5.6"/>
	<rect x="129.4" y="90.4" class="st13" width="5.6" height="5.6"/>
	<rect x="134.9" y="90.4" class="st13" width="5.6" height="5.6"/>
	<rect x="140.5" y="90.4" class="st15" width="5.6" height="5.6"/>
	<rect x="146" y="90.4" class="st3" width="5.6" height="5.6"/>
	<rect x="151.6" y="90.4" class="st3" width="5.6" height="5.6"/>
	<rect x="157.2" y="90.4" class="st3" width="5.6" height="5.6"/>
	<rect x="162.7" y="90.4" class="st15" width="5.6" height="5.6"/>
	<rect x="168.3" y="90.4" class="st0" width="5.6" height="5.6"/>
	<rect x="34.8" y="96" class="st0" width="5.6" height="5.6"/>
	<rect x="40.4" y="96" class="st5" width="5.6" height="5.6"/>
	<rect x="46" y="96" class="st16" width="5.6" height="5.6"/>
	<rect x="51.5" y="96" class="st16" width="5.6" height="5.6"/>
	<rect x="57.1" y="96" class="st17" width="5.6" height="5.6"/>
	<rect x="62.6" y="96" class="st17" width="5.6" height="5.6"/>
	<rect x="68.2" y="96" class="st14" width="5.6" height="5.6"/>
	<rect x="73.8" y="96" class="st14" width="5.6" height="5.6"/>
	<rect x="79.3" y="96" class="st14" width="5.6" height="5.6"/>
	<rect x="84.9" y="96" class="st14" width="5.6" height="5.6"/>
	<rect x="90.4" y="96" class="st14" width="5.6" height="5.6"/>
	<rect x="96" y="96" class="st14" width="5.6" height="5.6"/>
	<rect x="101.6" y="96" class="st14" width="5.6" height="5.6"/>
	<rect x="107.1" y="96" class="st14" width="5.6" height="5.6"/>
	<rect x="112.7" y="96" class="st14" width="5.6" height="5.6"/>
	<rect x="118.2" y="96" class="st17" width="5.6" height="5.6"/>
	<rect x="123.8" y="96" class="st17" width="5.6" height="5.6"/>
	<rect x="129.4" y="96" class="st16" width="5.6" height="5.6"/>
	<rect x="134.9" y="96" class="st16" width="5.6" height="5.6"/>
	<rect x="140.5" y="96" class="st15" width="5.6" height="5.6"/>
	<rect x="146" y="96" class="st2" width="5.6" height="5.6"/>
	<rect x="151.6" y="96" class="st2" width="5.6" height="5.6"/>
	<rect x="157.2" y="96" class="st2" width="5.6" height="5.6"/>
	<rect x="162.7" y="96" class="st15" width="5.6" height="5.6"/>
	<rect x="168.3" y="96" class="st0" width="5.6" height="5.6"/>
	<rect x="23.7" y="101.6" class="st0" width="5.6" height="5.6"/>
	<rect x="29.3" y="101.6" class="st0" width="5.6" height="5.6"/>
	<rect x="34.8" y="101.6" class="st5" width="5.6" height="5.6"/>
	<rect x="40.4" y="101.6" class="st2" width="5.6" height="5.6"/>
	<rect x="46" y="101.6" class="st18" width="5.6" height="5.6"/>
	<rect x="51.5" y="101.6" class="st18" width="5.6" height="5.6"/>
	<rect x="57.1" y="101.6" class="st19" width="5.6" height="5.6"/>
	<rect x="62.6" y="101.6" class="st19" width="5.6" height="5.6"/>
	<rect x="68.2" y="101.6" class="st17" width="5.6" height="5.6"/>
	<rect x="73.8" y="101.6" class="st17" width="5.6" height="5.6"/>
	<rect x="79.3" y="101.6" class="st17" width="5.6" height="5.6"/>
	<rect x="84.9" y="101.6" class="st17" width="5.6" height="5.6"/>
	<rect x="90.4" y="101.6" class="st17" width="5.6" height="5.6"/>
	<rect x="96" y="101.6" class="st17" width="5.6" height="5.6"/>
	<rect x="101.6" y="101.6" class="st17" width="5.6" height="5.6"/>
	<rect x="107.1" y="101.6" class="st17" width="5.6" height="5.6"/>
	<rect x="112.7" y="101.6" class="st17" width="5.6" height="5.6"/>
	<rect x="118.2" y="101.6" class="st19" width="5.6" height="5.6"/>
	<rect x="123.8" y="101.6" class="st19" width="5.6" height="5.6"/>
	<rect x="129.4" y="101.6" class="st18" width="5.6" height="5.6"/>
	<rect x="134.9" y="101.6" class="st18" width="5.6" height="5.6"/>
	<rect x="140.5" y="101.6" class="st2" width="5.6" height="5.6"/>
	<rect x="146" y="101.6" class="st2" width="5.6" height="5.6"/>
	<rect x="151.6" y="101.6" class="st8" width="5.6" height="5.6"/>
	<rect x="157.2" y="101.6" class="st8" width="5.6" height="5.6"/>
	<rect x="162.7" y="101.6" class="st15" width="5.6" height="5.6"/>
	<rect x="168.3" y="101.6" class="st0" width="5.6" height="5.6"/>
	<rect x="18.2" y="107.1" class="st0" width="5.6" height="5.6"/>
	<rect x="23.7" y="107.1" class="st5" width="5.6" height="5.6"/>
	<rect x="29.3" y="107.1" class="st5" width="5.6" height="5.6"/>
	<rect x="34.8" y="107.1" class="st5" width="5.6" height="5.6"/>
	<rect x="40.4" y="107.1" class="st5" width="5.6" height="5.6"/>
	<rect x="46" y="107.1" class="st5" width="5.6" height="5.6"/>
	<rect x="51.5" y="107.1" class="st20" width="5.6" height="5.6"/>
	<rect x="57.1" y="107.1" class="st20" width="5.6" height="5.6"/>
	<rect x="62.6" y="107.1" class="st20" width="5.6" height="5.6"/>
	<rect x="68.2" y="107.1" class="st19" width="5.6" height="5.6"/>
	<rect x="73.8" y="107.1" class="st19" width="5.6" height="5.6"/>
	<rect x="79.3" y="107.1" class="st19" width="5.6" height="5.6"/>
	<rect x="84.9" y="107.1" class="st19" width="5.6" height="5.6"/>
	<rect x="90.4" y="107.1" class="st21" width="5.6" height="5.6"/>
	<rect x="96" y="107.1" class="st19" width="5.6" height="5.6"/>
	<rect x="101.6" y="107.1" class="st19" width="5.6" height="5.6"/>
	<rect x="107.1" y="107.1" class="st19" width="5.6" height="5.6"/>
	<rect x="112.7" y="107.1" class="st19" width="5.6" height="5.6"/>
	<rect x="118.2" y="107.1" class="st20" width="5.6" height="5.6"/>
	<rect x="123.8" y="107.1" class="st20" width="5.6" height="5.6"/>
	<rect x="129.4" y="107.1" class="st20" width="5.6" height="5.6"/>
	<rect x="134.9" y="107.1" class="st7" width="5.6" height="5.6"/>
	<rect x="140.5" y="107.1" class="st2" width="5.6" height="5.6"/>
	<rect x="146" y="107.1" class="st8" width="5.6" height="5.6"/>
	<rect x="151.6" y="107.1" class="st8" width="5.6" height="5.6"/>
	<rect x="157.2" y="107.1" class="st8" width="5.6" height="5.6"/>
	<rect x="162.7" y="107.1" class="st15" width="5.6" height="5.6"/>
	<rect x="168.3" y="107.1" class="st0" width="5.6" height="5.6"/>
	<rect x="12.6" y="112.7" class="st0" width="5.6" height="5.6"/>
	<rect x="18.2" y="112.7" class="st5" width="5.6" height="5.6"/>
	<rect x="23.7" y="112.7" class="st7" width="5.6" height="5.6"/>
	<rect x="29.3" y="112.7" class="st2" width="5.6" height="5.6"/>
	<rect x="34.8" y="112.7" class="st2" width="5.6" height="5.6"/>
	<rect x="40.4" y="112.7" class="st2" width="5.6" height="5.6"/>
	<rect x="46" y="112.7" class="st2" width="5.6" height="5.6"/>
	<rect x="51.5" y="112.7" class="st5" width="5.6" height="5.6"/>
	<rect x="57.1" y="112.7" class="st22" width="5.6" height="5.6"/>
	<rect x="62.6" y="112.7" class="st22" width="5.6" height="5.6"/>
	<rect x="68.2" y="112.7" class="st22" width="5.6" height="5.6"/>
	<rect x="73.8" y="112.7" class="st23" width="5.6" height="5.6"/>
	<rect x="79.3" y="112.7" class="st21" width="5.6" height="5.6"/>
	<rect x="84.9" y="112.7" class="st21" width="5.6" height="5.6"/>
	<rect x="90.4" y="112.7" class="st21" width="5.6" height="5.6"/>
	<rect x="96" y="112.7" class="st21" width="5.6" height="5.6"/>
	<rect x="101.6" y="112.7" class="st21" width="5.6" height="5.6"/>
	<rect x="107.1" y="112.7" class="st23" width="5.6" height="5.6"/>
	<rect x="112.7" y="112.7" class="st22" width="5.6" height="5.6"/>
	<rect x="118.2" y="112.7" class="st22" width="5.6" height="5.6"/>
	<rect x="123.8" y="112.7" class="st22" width="5.6" height="5.6"/>
	<rect x="129.4" y="112.7" class="st7" width="5.6" height="5.6"/>
	<rect x="134.9" y="112.7" class="st2" width="5.6" height="5.6"/>
	<rect x="140.5" y="112.7" class="st2" width="5.6" height="5.6"/>
	<rect x="146" y="112.7" class="st8" width="5.6" height="5.6"/>
	<rect x="151.6" y="112.7" class="st8" width="5.6" height="5.6"/>
	<rect x="157.2" y="112.7" class="st15" width="5.6" height="5.6"/>
	<rect x="162.7" y="112.7" class="st0" width="5.6" height="5.6"/>
	<rect x="12.6" y="118.2" class="st0" width="5.6" height="5.6"/>
	<rect x="18.2" y="118.2" class="st5" width="5.6" height="5.6"/>
	<rect x="23.7" y="118.2" class="st7" width="5.6" height="5.6"/>
	<rect x="29.3" y="118.2" class="st2" width="5.6" height="5.6"/>
	<rect x="34.8" y="118.2" class="st2" width="5.6" height="5.6"/>
	<rect x="40.4" y="118.2" class="st2" width="5.6" height="5.6"/>
	<rect x="46" y="118.2" class="st2" width="5.6" height="5.6"/>
	<rect x="51.5" y="118.2" class="st5" width="5.6" height="5.6"/>
	<rect x="57.1" y="118.2" class="st7" width="5.6" height="5.6"/>
	<rect x="62.6" y="118.2" class="st22" width="5.6" height="5.6"/>
	<rect x="68.2" y="118.2" class="st24" width="5.6" height="5.6"/>
	<rect x="73.8" y="118.2" class="st23" width="5.6" height="5.6"/>
	<rect x="79.3" y="118.2" class="st21" width="5.6" height="5.6"/>
	<rect x="84.9" y="118.2" class="st21" width="5.6" height="5.6"/>
	<rect x="90.4" y="118.2" class="st23" width="5.6" height="5.6"/>
	<rect x="96" y="118.2" class="st21" width="5.6" height="5.6"/>
	<rect x="101.6" y="118.2" class="st21" width="5.6" height="5.6"/>
	<rect x="107.1" y="118.2" class="st23" width="5.6" height="5.6"/>
	<rect x="112.7" y="118.2" class="st24" width="5.6" height="5.6"/>
	<rect x="118.2" y="118.2" class="st22" width="5.6" height="5.6"/>
	<rect x="123.8" y="118.2" class="st7" width="5.6" height="5.6"/>
	<rect x="129.4" y="118.2" class="st2" width="5.6" height="5.6"/>
	<rect x="134.9" y="118.2" class="st2" width="5.6" height="5.6"/>
	<rect x="140.5" y="118.2" class="st2" width="5.6" height="5.6"/>
	<rect x="146" y="118.2" class="st8" width="5.6" height="5.6"/>
	<rect x="151.6" y="118.2" class="st8" width="5.6" height="5.6"/>
	<rect x="157.2" y="118.2" class="st15" width="5.6" height="5.6"/>
	<rect x="162.7" y="118.2" class="st0" width="5.6" height="5.6"/>
	<rect x="12.6" y="123.8" class="st0" width="5.6" height="5.6"/>
	<rect x="18.2" y="123.8" class="st5" width="5.6" height="5.6"/>
	<rect x="23.7" y="123.8" class="st7" width="5.6" height="5.6"/>
	<rect x="29.3" y="123.8" class="st5" width="5.6" height="5.6"/>
	<rect x="34.8" y="123.8" class="st7" width="5.6" height="5.6"/>
	<rect x="40.4" y="123.8" class="st5" width="5.6" height="5.6"/>
	<rect x="46" y="123.8" class="st7" width="5.6" height="5.6"/>
	<rect x="51.5" y="123.8" class="st5" width="5.6" height="5.6"/>
	<rect x="57.1" y="123.8" class="st2" width="5.6" height="5.6"/>
	<rect x="62.6" y="123.8" class="st7" width="5.6" height="5.6"/>
	<rect x="68.2" y="123.8" class="st22" width="5.6" height="5.6"/>
	<rect x="73.8" y="123.8" class="st24" width="5.6" height="5.6"/>
	<rect x="79.3" y="123.8" class="st23" width="5.6" height="5.6"/>
	<rect x="84.9" y="123.8" class="st23" width="5.6" height="5.6"/>
	<rect x="90.4" y="123.8" class="st22" width="5.6" height="5.6"/>
	<rect x="96" y="123.8" class="st23" width="5.6" height="5.6"/>
	<rect x="101.6" y="123.8" class="st23" width="5.6" height="5.6"/>
	<rect x="107.1" y="123.8" class="st24" width="5.6" height="5.6"/>
	<rect x="112.7" y="123.8" class="st22" width="5.6" height="5.6"/>
	<rect x="118.2" y="123.8" class="st7" width="5.6" height="5.6"/>
	<rect x="123.8" y="123.8" class="st2" width="5.6" height="5.6"/>
	<rect x="129.4" y="123.8" class="st2" width="5.6" height="5.6"/>
	<rect x="134.9" y="123.8" class="st2" width="5.6" height="5.6"/>
	<rect x="140.5" y="123.8" class="st2" width="5.6" height="5.6"/>
	<rect x="146" y="123.8" class="st2" width="5.6" height="5.6"/>
	<rect x="151.6" y="123.8" class="st15" width="5.6" height="5.6"/>
	<rect x="157.2" y="123.8" class="st0" width="5.6" height="5.6"/>
	<rect x="18.2" y="129.4" class="st0" width="5.6" height="5.6"/>
	<rect x="23.7" y="129.4" class="st5" width="5.6" height="5.6"/>
	<rect x="29.3" y="129.4" class="st5" width="5.6" height="5.6"/>
	<rect x="34.8" y="129.4" class="st5" width="5.6" height="5.6"/>
	<rect x="40.4" y="129.4" class="st5" width="5.6" height="5.6"/>
	<rect x="46" y="129.4" class="st5" width="5.6" height="5.6"/>
	<rect x="51.5" y="129.4" class="st2" width="5.6" height="5.6"/>
	<rect x="57.1" y="129.4" class="st2" width="5.6" height="5.6"/>
	<rect x="62.6" y="129.4" class="st2" width="5.6" height="5.6"/>
	<rect x="68.2" y="129.4" class="st7" width="5.6" height="5.6"/>
	<rect x="73.8" y="129.4" class="st22" width="5.6" height="5.6"/>
	<rect x="79.3" y="129.4" class="st25" width="5.6" height="5.6"/>
	<rect x="84.9" y="129.4" class="st22" width="5.6" height="5.6"/>
	<rect x="90.4" y="129.4" class="st25" width="5.6" height="5.6"/>
	<rect x="96" y="129.4" class="st22" width="5.6" height="5.6"/>
	<rect x="101.6" y="129.4" class="st25" width="5.6" height="5.6"/>
	<rect x="107.1" y="129.4" class="st22" width="5.6" height="5.6"/>
	<rect x="112.7" y="129.4" class="st7" width="5.6" height="5.6"/>
	<rect x="118.2" y="129.4" class="st2" width="5.6" height="5.6"/>
	<rect x="123.8" y="129.4" class="st2" width="5.6" height="5.6"/>
	<rect x="129.4" y="129.4" class="st2" width="5.6" height="5.6"/>
	<rect x="134.9" y="129.4" class="st2" width="5.6" height="5.6"/>
	<rect x="140.5" y="129.4" class="st2" width="5.6" height="5.6"/>
	<rect x="146" y="129.4" class="st2" width="5.6" height="5.6"/>
	<rect x="151.6" y="129.4" class="st15" width="5.6" height="5.6"/>
	<rect x="157.2" y="129.4" class="st0" width="5.6" height="5.6"/>
	<rect x="23.7" y="134.9" class="st0" width="5.6" height="5.6"/>
	<rect x="29.3" y="134.9" class="st15" width="5.6" height="5.6"/>
	<rect x="34.8" y="134.9" class="st26" width="5.6" height="5.6"/>
	<rect x="40.4" y="134.9" class="st3" width="5.6" height="5.6"/>
	<rect x="46" y="134.9" class="st3" width="5.6" height="5.6"/>
	<rect x="51.5" y="134.9" class="st15" width="5.6" height="5.6"/>
	<rect x="57.1" y="134.9" class="st2" width="5.6" height="5.6"/>
	<rect x="62.6" y="134.9" class="st2" width="5.6" height="5.6"/>
	<rect x="68.2" y="134.9" class="st2" width="5.6" height="5.6"/>
	<rect x="73.8" y="134.9" class="st7" width="5.6" height="5.6"/>
	<rect x="79.3" y="134.9" class="st22" width="5.6" height="5.6"/>
	<rect x="84.9" y="134.9" class="st25" width="5.6" height="5.6"/>
	<rect x="90.4" y="134.9" class="st22" width="5.6" height="5.6"/>
	<rect x="96" y="134.9" class="st25" width="5.6" height="5.6"/>
	<rect x="101.6" y="134.9" class="st22" width="5.6" height="5.6"/>
	<rect x="107.1" y="134.9" class="st7" width="5.6" height="5.6"/>
	<rect x="112.7" y="134.9" class="st2" width="5.6" height="5.6"/>
	<rect x="118.2" y="134.9" class="st2" width="5.6" height="5.6"/>
	<rect x="123.8" y="134.9" class="st2" width="5.6" height="5.6"/>
	<rect x="129.4" y="134.9" class="st15" width="5.6" height="5.6"/>
	<rect x="134.9" y="134.9" class="st2" width="5.6" height="5.6"/>
	<rect x="140.5" y="134.9" class="st2" width="5.6" height="5.6"/>
	<rect x="146" y="134.9" class="st8" width="5.6" height="5.6"/>
	<rect x="151.6" y="134.9" class="st15" width="5.6" height="5.6"/>
	<rect x="157.2" y="134.9" class="st0" width="5.6" height="5.6"/>
	<rect x="23.7" y="140.5" class="st0" width="5.6" height="5.6"/>
	<rect x="29.3" y="140.5" class="st15" width="5.6" height="5.6"/>
	<rect x="34.8" y="140.5" class="st8" width="5.6" height="5.6"/>
	<rect x="40.4" y="140.5" class="st2" width="5.6" height="5.6"/>
	<rect x="46" y="140.5" class="st2" width="5.6" height="5.6"/>
	<rect x="51.5" y="140.5" class="st2" width="5.6" height="5.6"/>
	<rect x="57.1" y="140.5" class="st15" width="5.6" height="5.6"/>
	<rect x="62.6" y="140.5" class="st15" width="5.6" height="5.6"/>
	<rect x="68.2" y="140.5" class="st2" width="5.6" height="5.6"/>
	<rect x="73.8" y="140.5" class="st2" width="5.6" height="5.6"/>
	<rect x="79.3" y="140.5" class="st2" width="5.6" height="5.6"/>
	<rect x="84.9" y="140.5" class="st22" width="5.6" height="5.6"/>
	<rect x="90.4" y="140.5" class="st22" width="5.6" height="5.6"/>
	<rect x="96" y="140.5" class="st22" width="5.6" height="5.6"/>
	<rect x="101.6" y="140.5" class="st2" width="5.6" height="5.6"/>
	<rect x="107.1" y="140.5" class="st2" width="5.6" height="5.6"/>
	<rect x="112.7" y="140.5" class="st2" width="5.6" height="5.6"/>
	<rect x="118.2" y="140.5" class="st15" width="5.6" height="5.6"/>
	<rect x="123.8" y="140.5" class="st15" width="5.6" height="5.6"/>
	<rect x="129.4" y="140.5" class="st7" width="5.6" height="5.6"/>
	<rect x="134.9" y="140.5" class="st2" width="5.6" height="5.6"/>
	<rect x="140.5" y="140.5" class="st2" width="5.6" height="5.6"/>
	<rect x="146" y="140.5" class="st2" width="5.6" height="5.6"/>
	<rect x="151.6" y="140.5" class="st15" width="5.6" height="5.6"/>
	<rect x="157.2" y="140.5" class="st0" width="5.6" height="5.6"/>
	<rect x="23.7" y="146" class="st0" width="5.6" height="5.6"/>
	<rect x="29.3" y="146" class="st15" width="5.6" height="5.6"/>
	<rect x="34.8" y="146" class="st8" width="5.6" height="5.6"/>
	<rect x="40.4" y="146" class="st8" width="5.6" height="5.6"/>
	<rect x="46" y="146" class="st2" width="5.6" height="5.6"/>
	<rect x="51.5" y="146" class="st2" width="5.6" height="5.6"/>
	<rect x="57.1" y="146" class="st2" width="5.6" height="5.6"/>
	<rect x="62.6" y="146" class="st2" width="5.6" height="5.6"/>
	<rect x="68.2" y="146" class="st15" width="5.6" height="5.6"/>
	<rect x="73.8" y="146" class="st2" width="5.6" height="5.6"/>
	<rect x="79.3" y="146" class="st2" width="5.6" height="5.6"/>
	<rect x="84.9" y="146" class="st2" width="5.6" height="5.6"/>
	<rect x="90.4" y="146" class="st2" width="5.6" height="5.6"/>
	<rect x="96" y="146" class="st2" width="5.6" height="5.6"/>
	<rect x="101.6" y="146" class="st2" width="5.6" height="5.6"/>
	<rect x="107.1" y="146" class="st2" width="5.6" height="5.6"/>
	<rect x="112.7" y="146" class="st15" width="5.6" height="5.6"/>
	<rect x="118.2" y="146" class="st7" width="5.6" height="5.6"/>
	<rect x="123.8" y="146" class="st7" width="5.6" height="5.6"/>
	<rect x="129.4" y="146" class="st2" width="5.6" height="5.6"/>
	<rect x="134.9" y="146" class="st2" width="5.6" height="5.6"/>
	<rect x="140.5" y="146" class="st2" width="5.6" height="5.6"/>
	<rect x="146" y="146" class="st8" width="5.6" height="5.6"/>
	<rect x="151.6" y="146" class="st15" width="5.6" height="5.6"/>
	<rect x="157.2" y="146" class="st0" width="5.6" height="5.6"/>
	<rect x="23.7" y="151.6" class="st0" width="5.6" height="5.6"/>
	<rect x="29.3" y="151.6" class="st15" width="5.6" height="5.6"/>
	<rect x="34.8" y="151.6" class="st8" width="5.6" height="5.6"/>
	<rect x="40.4" y="151.6" class="st8" width="5.6" height="5.6"/>
	<rect x="46" y="151.6" class="st2" width="5.6" height="5.6"/>
	<rect x="51.5" y="151.6" class="st2" width="5.6" height="5.6"/>
	<rect x="57.1" y="151.6" class="st12" width="5.6" height="5.6"/>
	<rect x="62.6" y="151.6" class="st12" width="5.6" height="5.6"/>
	<rect x="68.2" y="151.6" class="st2" width="5.6" height="5.6"/>
	<rect x="73.8" y="151.6" class="st15" width="5.6" height="5.6"/>
	<rect x="79.3" y="151.6" class="st2" width="5.6" height="5.6"/>
	<rect x="84.9" y="151.6" class="st2" width="5.6" height="5.6"/>
	<rect x="90.4" y="151.6" class="st2" width="5.6" height="5.6"/>
	<rect x="96" y="151.6" class="st2" width="5.6" height="5.6"/>
	<rect x="101.6" y="151.6" class="st2" width="5.6" height="5.6"/>
	<rect x="107.1" y="151.6" class="st15" width="5.6" height="5.6"/>
	<rect x="112.7" y="151.6" class="st7" width="5.6" height="5.6"/>
	<rect x="118.2" y="151.6" class="st12" width="5.6" height="5.6"/>
	<rect x="123.8" y="151.6" class="st12" width="5.6" height="5.6"/>
	<rect x="129.4" y="151.6" class="st2" width="5.6" height="5.6"/>
	<rect x="134.9" y="151.6" class="st2" width="5.6" height="5.6"/>
	<rect x="140.5" y="151.6" class="st2" width="5.6" height="5.6"/>
	<rect x="146" y="151.6" class="st7" width="5.6" height="5.6"/>
	<rect x="151.6" y="151.6" class="st15" width="5.6" height="5.6"/>
	<rect x="157.2" y="151.6" class="st0" width="5.6" height="5.6"/>
	<rect x="29.3" y="157.2" class="st0" width="5.6" height="5.6"/>
	<rect x="34.8" y="157.2" class="st15" width="5.6" height="5.6"/>
	<rect x="40.4" y="157.2" class="st8" width="5.6" height="5.6"/>
	<rect x="46" y="157.2" class="st2" width="5.6" height="5.6"/>
	<rect x="51.5" y="157.2" class="st2" width="5.6" height="5.6"/>
	<rect x="57.1" y="157.2" class="st2" width="5.6" height="5.6"/>
	<rect x="62.6" y="157.2" class="st2" width="5.6" height="5.6"/>
	<rect x="68.2" y="157.2" class="st2" width="5.6" height="5.6"/>
	<rect x="73.8" y="157.2" class="st15" width="5.6" height="5.6"/>
	<rect x="79.3" y="157.2" class="st7" width="5.6" height="5.6"/>
	<rect x="84.9" y="157.2" class="st7" width="5.6" height="5.6"/>
	<rect x="90.4" y="157.2" class="st7" width="5.6" height="5.6"/>
	<rect x="96" y="157.2" class="st7" width="5.6" height="5.6"/>
	<rect x="101.6" y="157.2" class="st7" width="5.6" height="5.6"/>
	<rect x="107.1" y="157.2" class="st15" width="5.6" height="5.6"/>
	<rect x="112.7" y="157.2" class="st7" width="5.6" height="5.6"/>
	<rect x="118.2" y="157.2" class="st2" width="5.6" height="5.6"/>
	<rect x="123.8" y="157.2" class="st2" width="5.6" height="5.6"/>
	<rect x="129.4" y="157.2" class="st2" width="5.6" height="5.6"/>
	<rect x="134.9" y="157.2" class="st2" width="5.6" height="5.6"/>
	<rect x="140.5" y="157.2" class="st7" width="5.6" height="5.6"/>
	<rect x="146" y="157.2" class="st15" width="5.6" height="5.6"/>
	<rect x="151.6" y="157.2" class="st0" width="5.6" height="5.6"/>
	<rect x="34.8" y="162.7" class="st0" width="5.6" height="5.6"/>
	<rect x="40.4" y="162.7" class="st15" width="5.6" height="5.6"/>
	<rect x="46" y="162.7" class="st7" width="5.6" height="5.6"/>
	<rect x="51.5" y="162.7" class="st15" width="5.6" height="5.6"/>
	<rect x="57.1" y="162.7" class="st2" width="5.6" height="5.6"/>
	<rect x="62.6" y="162.7" class="st15" width="5.6" height="5.6"/>
	<rect x="68.2" y="162.7" class="st2" width="5.6" height="5.6"/>
	<rect x="73.8" y="162.7" class="st15" width="5.6" height="5.6"/>
	<rect x="79.3" y="162.7" class="st27" width="5.6" height="5.6"/>
	<rect x="84.9" y="162.7" class="st27" width="5.6" height="5.6"/>
	<rect x="90.4" y="162.7" class="st27" width="5.6" height="5.6"/>
	<rect x="96" y="162.7" class="st27" width="5.6" height="5.6"/>
	<rect x="101.6" y="162.7" class="st27" width="5.6" height="5.6"/>
	<rect x="107.1" y="162.7" class="st15" width="5.6" height="5.6"/>
	<rect x="112.7" y="162.7" class="st7" width="5.6" height="5.6"/>
	<rect x="118.2" y="162.7" class="st15" width="5.6" height="5.6"/>
	<rect x="123.8" y="162.7" class="st2" width="5.6" height="5.6"/>
	<rect x="129.4" y="162.7" class="st15" width="5.6" height="5.6"/>
	<rect x="134.9" y="162.7" class="st7" width="5.6" height="5.6"/>
	<rect x="140.5" y="162.7" class="st15" width="5.6" height="5.6"/>
	<rect x="146" y="162.7" class="st0" width="5.6" height="5.6"/>
	<rect x="40.4" y="168.3" class="st0" width="5.6" height="5.6"/>
	<rect x="46" y="168.3" class="st15" width="5.6" height="5.6"/>
	<rect x="51.5" y="168.3" class="st15" width="5.6" height="5.6"/>
	<rect x="57.1" y="168.3" class="st15" width="5.6" height="5.6"/>
	<rect x="62.6" y="168.3" class="st15" width="5.6" height="5.6"/>
	<rect x="68.2" y="168.3" class="st15" width="5.6" height="5.6"/>
	<rect x="73.8" y="168.3" class="st0" width="5.6" height="5.6"/>
	<rect x="79.3" y="168.3" class="st0" width="5.6" height="5.6"/>
	<rect x="84.9" y="168.3" class="st0" width="5.6" height="5.6"/>
	<rect x="90.4" y="168.3" class="st0" width="5.6" height="5.6"/>
	<rect x="96" y="168.3" class="st0" width="5.6" height="5.6"/>
	<rect x="101.6" y="168.3" class="st0" width="5.6" height="5.6"/>
	<rect x="107.1" y="168.3" class="st0" width="5.6" height="5.6"/>
	<rect x="112.7" y="168.3" class="st15" width="5.6" height="5.6"/>
	<rect x="118.2" y="168.3" class="st15" width="5.6" height="5.6"/>
	<rect x="123.8" y="168.3" class="st15" width="5.6" height="5.6"/>
	<rect x="129.4" y="168.3" class="st15" width="5.6" height="5.6"/>
	<rect x="134.9" y="168.3" class="st15" width="5.6" height="5.6"/>
	<rect x="140.5" y="168.3" class="st0" width="5.6" height="5.6"/>
	<rect x="46" y="173.8" class="st0" width="5.6" height="5.6"/>
	<rect x="51.5" y="173.8" class="st0" width="5.6" height="5.6"/>
	<rect x="57.1" y="173.8" class="st0" width="5.6" height="5.6"/>
	<rect x="62.6" y="173.8" class="st0" width="5.6" height="5.6"/>
	<rect x="68.2" y="173.8" class="st0" width="5.6" height="5.6"/>
	<rect x="112.7" y="173.8" class="st0" width="5.6" height="5.6"/>
	<rect x="118.2" y="173.8" class="st0" width="5.6" height="5.6"/>
	<rect x="123.8" y="173.8" class="st0" width="5.6" height="5.6"/>
	<rect x="129.4" y="173.8" class="st0" width="5.6" height="5.6"/>
	<rect x="134.9" y="173.8" class="st0" width="5.6" height="5.6"/>
</g>
</svg>
