<?xml version="1.0" encoding="utf-8"?>
<!-- Generator: Adobe Illustrator 27.9.0, SVG Export Plug-In . SVG Version: 6.00 Build 0)  -->
<svg version="1.1" id="Layer_1" shape-rendering="crispEdges"
	 xmlns="http://www.w3.org/2000/svg" xmlns:xlink="http://www.w3.org/1999/xlink" x="0px" y="0px" viewBox="0 0 192 192"
	 style="enable-background:new 0 0 192 192;" xml:space="preserve">
<style type="text/css">
	.st0{fill:#EB97A7;}
	.st1{fill:#1D8566;}
	.st2{fill:#59CC6B;}
	.st3{fill:#B55D83;}
	.st4{fill:#694F86;}
	.st5{fill:#ECC98B;}
	.st6{fill:#EDE5B7;}
	.st7{fill:#D098AA;}
	.st8{fill:#E6E4D8;}
	.st9{fill:#F2C7B6;}
	.st10{fill:#8D5386;}
	.st11{fill:#1DA162;}
	.st12{fill:#EFDCE5;}
	.st13{fill:#C73D62;}
	.st14{fill:#F1BAC7;}
	.st15{fill:#50B06E;}
	.st16{fill:#5BD45A;}
	.st17{fill:#D7D4D1;}
	.st18{fill:#CEB8C8;}
	.st19{fill:#E87687;}
	.st20{fill:#F1B5AE;}
	.st21{fill:#D65A70;}
</style>
<g>
	<rect x="142.9" y="13.9" class="st0" width="5.9" height="5.9"/>
	<rect x="148.8" y="13.9" class="st0" width="5.9" height="5.9"/>
	<rect x="154.7" y="13.9" class="st0" width="5.9" height="5.9"/>
	<rect x="137.1" y="19.8" class="st0" width="5.9" height="5.9"/>
	<rect x="142.9" y="19.8" class="st1" width="5.9" height="5.9"/>
	<rect x="148.8" y="19.8" class="st1" width="5.9" height="5.9"/>
	<rect x="154.7" y="19.8" class="st1" width="5.9" height="5.9"/>
	<rect x="160.5" y="19.8" class="st0" width="5.9" height="5.9"/>
	<rect x="49.1" y="25.7" class="st0" width="5.9" height="5.9"/>
	<rect x="54.9" y="25.7" class="st0" width="5.9" height="5.9"/>
	<rect x="60.8" y="25.7" class="st0" width="5.9" height="5.9"/>
	<rect x="66.7" y="25.7" class="st0" width="5.9" height="5.9"/>
	<rect x="72.5" y="25.7" class="st0" width="5.9" height="5.9"/>
	<rect x="113.6" y="25.7" class="st0" width="5.9" height="5.9"/>
	<rect x="119.5" y="25.7" class="st0" width="5.9" height="5.9"/>
	<rect x="125.3" y="25.7" class="st0" width="5.9" height="5.9"/>
	<rect x="131.2" y="25.7" class="st0" width="5.9" height="5.9"/>
	<rect x="137.1" y="25.7" class="st1" width="5.9" height="5.9"/>
	<rect x="142.9" y="25.7" class="st2" width="5.9" height="5.9"/>
	<rect x="148.8" y="25.7" class="st2" width="5.9" height="5.9"/>
	<rect x="154.7" y="25.7" class="st2" width="5.9" height="5.9"/>
	<rect x="160.5" y="25.7" class="st1" width="5.9" height="5.9"/>
	<rect x="166.4" y="25.7" class="st0" width="5.9" height="5.9"/>
	<rect x="43.2" y="31.5" class="st0" width="5.9" height="5.9"/>
	<rect x="49.1" y="31.5" class="st3" width="5.9" height="5.9"/>
	<rect x="54.9" y="31.5" class="st3" width="5.9" height="5.9"/>
	<rect x="60.8" y="31.5" class="st3" width="5.9" height="5.9"/>
	<rect x="66.7" y="31.5" class="st3" width="5.9" height="5.9"/>
	<rect x="72.5" y="31.5" class="st3" width="5.9" height="5.9"/>
	<rect x="78.4" y="31.5" class="st0" width="5.9" height="5.9"/>
	<rect x="84.3" y="31.5" class="st0" width="5.9" height="5.9"/>
	<rect x="101.9" y="31.5" class="st0" width="5.9" height="5.9"/>
	<rect x="107.7" y="31.5" class="st0" width="5.9" height="5.9"/>
	<rect x="113.6" y="31.5" class="st3" width="5.9" height="5.9"/>
	<rect x="119.5" y="31.5" class="st3" width="5.9" height="5.9"/>
	<rect x="125.3" y="31.5" class="st3" width="5.9" height="5.9"/>
	<rect x="131.2" y="31.5" class="st1" width="5.9" height="5.9"/>
	<rect x="137.1" y="31.5" class="st4" width="5.9" height="5.9"/>
	<rect x="142.9" y="31.5" class="st2" width="5.9" height="5.9"/>
	<rect x="148.8" y="31.5" class="st2" width="5.9" height="5.9"/>
	<rect x="154.7" y="31.5" class="st2" width="5.9" height="5.9"/>
	<rect x="160.5" y="31.5" class="st4" width="5.9" height="5.9"/>
	<rect x="166.4" y="31.5" class="st1" width="5.9" height="5.9"/>
	<rect x="172.3" y="31.5" class="st0" width="5.9" height="5.9"/>
	<rect x="37.3" y="37.4" class="st0" width="5.9" height="5.9"/>
	<rect x="43.2" y="37.4" class="st3" width="5.9" height="5.9"/>
	<rect x="49.1" y="37.4" class="st5" width="5.9" height="5.9"/>
	<rect x="54.9" y="37.4" class="st5" width="5.9" height="5.9"/>
	<rect x="60.8" y="37.4" class="st5" width="5.9" height="5.9"/>
	<rect x="66.7" y="37.4" class="st5" width="5.9" height="5.9"/>
	<rect x="72.5" y="37.4" class="st5" width="5.9" height="5.9"/>
	<rect x="78.4" y="37.4" class="st3" width="5.9" height="5.9"/>
	<rect x="84.3" y="37.4" class="st3" width="5.9" height="5.9"/>
	<rect x="90.1" y="37.4" class="st0" width="5.9" height="5.9"/>
	<rect x="96" y="37.4" class="st0" width="5.9" height="5.9"/>
	<rect x="101.9" y="37.4" class="st3" width="5.9" height="5.9"/>
	<rect x="107.7" y="37.4" class="st3" width="5.9" height="5.9"/>
	<rect x="113.6" y="37.4" class="st5" width="5.9" height="5.9"/>
	<rect x="119.5" y="37.4" class="st5" width="5.9" height="5.9"/>
	<rect x="125.3" y="37.4" class="st1" width="5.9" height="5.9"/>
	<rect x="131.2" y="37.4" class="st2" width="5.9" height="5.9"/>
	<rect x="137.1" y="37.4" class="st4" width="5.9" height="5.9"/>
	<rect x="142.9" y="37.4" class="st4" width="5.9" height="5.9"/>
	<rect x="148.8" y="37.4" class="st2" width="5.9" height="5.9"/>
	<rect x="154.7" y="37.4" class="st4" width="5.9" height="5.9"/>
	<rect x="160.5" y="37.4" class="st4" width="5.9" height="5.9"/>
	<rect x="166.4" y="37.4" class="st2" width="5.9" height="5.9"/>
	<rect x="172.3" y="37.4" class="st1" width="5.9" height="5.9"/>
	<rect x="178.1" y="37.4" class="st0" width="5.9" height="5.9"/>
	<rect x="31.5" y="43.3" class="st0" width="5.9" height="5.9"/>
	<rect x="37.3" y="43.3" class="st3" width="5.9" height="5.9"/>
	<rect x="43.2" y="43.3" class="st5" width="5.9" height="5.9"/>
	<rect x="49.1" y="43.3" class="st5" width="5.9" height="5.9"/>
	<rect x="54.9" y="43.3" class="st6" width="5.9" height="5.9"/>
	<rect x="60.8" y="43.3" class="st6" width="5.9" height="5.9"/>
	<rect x="66.7" y="43.3" class="st6" width="5.9" height="5.9"/>
	<rect x="72.5" y="43.3" class="st5" width="5.9" height="5.9"/>
	<rect x="78.4" y="43.3" class="st5" width="5.9" height="5.9"/>
	<rect x="84.3" y="43.3" class="st5" width="5.9" height="5.9"/>
	<rect x="90.1" y="43.3" class="st3" width="5.9" height="5.9"/>
	<rect x="96" y="43.3" class="st3" width="5.9" height="5.9"/>
	<rect x="101.9" y="43.3" class="st5" width="5.9" height="5.9"/>
	<rect x="107.7" y="43.3" class="st5" width="5.9" height="5.9"/>
	<rect x="113.6" y="43.3" class="st7" width="5.9" height="5.9"/>
	<rect x="119.5" y="43.3" class="st7" width="5.9" height="5.9"/>
	<rect x="125.3" y="43.3" class="st1" width="5.9" height="5.9"/>
	<rect x="131.2" y="43.3" class="st2" width="5.9" height="5.9"/>
	<rect x="137.1" y="43.3" class="st2" width="5.9" height="5.9"/>
	<rect x="142.9" y="43.3" class="st2" width="5.9" height="5.9"/>
	<rect x="148.8" y="43.3" class="st2" width="5.9" height="5.9"/>
	<rect x="154.7" y="43.3" class="st2" width="5.9" height="5.9"/>
	<rect x="160.5" y="43.3" class="st2" width="5.9" height="5.9"/>
	<rect x="166.4" y="43.3" class="st2" width="5.9" height="5.9"/>
	<rect x="172.3" y="43.3" class="st1" width="5.9" height="5.9"/>
	<rect x="178.1" y="43.3" class="st0" width="5.9" height="5.9"/>
	<rect x="25.6" y="49.1" class="st0" width="5.9" height="5.9"/>
	<rect x="31.5" y="49.1" class="st3" width="5.9" height="5.9"/>
	<rect x="37.3" y="49.1" class="st5" width="5.9" height="5.9"/>
	<rect x="43.2" y="49.1" class="st5" width="5.9" height="5.9"/>
	<rect x="49.1" y="49.1" class="st6" width="5.9" height="5.9"/>
	<rect x="54.9" y="49.1" class="st8" width="5.9" height="5.9"/>
	<rect x="60.8" y="49.1" class="st8" width="5.9" height="5.9"/>
	<rect x="66.7" y="49.1" class="st8" width="5.9" height="5.9"/>
	<rect x="72.5" y="49.1" class="st8" width="5.9" height="5.9"/>
	<rect x="78.4" y="49.1" class="st3" width="5.9" height="5.9"/>
	<rect x="84.3" y="49.1" class="st3" width="5.9" height="5.9"/>
	<rect x="90.1" y="49.1" class="st5" width="5.9" height="5.9"/>
	<rect x="96" y="49.1" class="st5" width="5.9" height="5.9"/>
	<rect x="101.9" y="49.1" class="st9" width="5.9" height="5.9"/>
	<rect x="107.7" y="49.1" class="st7" width="5.9" height="5.9"/>
	<rect x="113.6" y="49.1" class="st10" width="5.9" height="5.9"/>
	<rect x="119.5" y="49.1" class="st3" width="5.9" height="5.9"/>
	<rect x="125.3" y="49.1" class="st1" width="5.9" height="5.9"/>
	<rect x="131.2" y="49.1" class="st11" width="5.9" height="5.9"/>
	<rect x="137.1" y="49.1" class="st12" width="5.9" height="5.9"/>
	<rect x="142.9" y="49.1" class="st13" width="5.9" height="5.9"/>
	<rect x="148.8" y="49.1" class="st12" width="5.9" height="5.9"/>
	<rect x="154.7" y="49.1" class="st13" width="5.9" height="5.9"/>
	<rect x="160.5" y="49.1" class="st12" width="5.9" height="5.9"/>
	<rect x="166.4" y="49.1" class="st11" width="5.9" height="5.9"/>
	<rect x="172.3" y="49.1" class="st1" width="5.9" height="5.9"/>
	<rect x="178.1" y="49.1" class="st0" width="5.9" height="5.9"/>
	<rect x="25.6" y="55" class="st0" width="5.9" height="5.9"/>
	<rect x="31.5" y="55" class="st3" width="5.9" height="5.9"/>
	<rect x="37.3" y="55" class="st1" width="5.9" height="5.9"/>
	<rect x="43.2" y="55" class="st1" width="5.9" height="5.9"/>
	<rect x="49.1" y="55" class="st1" width="5.9" height="5.9"/>
	<rect x="54.9" y="55" class="st1" width="5.9" height="5.9"/>
	<rect x="60.8" y="55" class="st8" width="5.9" height="5.9"/>
	<rect x="66.7" y="55" class="st8" width="5.9" height="5.9"/>
	<rect x="72.5" y="55" class="st8" width="5.9" height="5.9"/>
	<rect x="78.4" y="55" class="st8" width="5.9" height="5.9"/>
	<rect x="84.3" y="55" class="st8" width="5.9" height="5.9"/>
	<rect x="90.1" y="55" class="st8" width="5.9" height="5.9"/>
	<rect x="96" y="55" class="st8" width="5.9" height="5.9"/>
	<rect x="101.9" y="55" class="st14" width="5.9" height="5.9"/>
	<rect x="107.7" y="55" class="st4" width="5.9" height="5.9"/>
	<rect x="113.6" y="55" class="st10" width="5.9" height="5.9"/>
	<rect x="119.5" y="55" class="st3" width="5.9" height="5.9"/>
	<rect x="125.3" y="55" class="st3" width="5.9" height="5.9"/>
	<rect x="131.2" y="55" class="st1" width="5.9" height="5.9"/>
	<rect x="137.1" y="55" class="st13" width="5.9" height="5.9"/>
	<rect x="142.9" y="55" class="st13" width="5.9" height="5.9"/>
	<rect x="148.8" y="55" class="st13" width="5.9" height="5.9"/>
	<rect x="154.7" y="55" class="st13" width="5.9" height="5.9"/>
	<rect x="160.5" y="55" class="st13" width="5.9" height="5.9"/>
	<rect x="166.4" y="55" class="st1" width="5.9" height="5.9"/>
	<rect x="172.3" y="55" class="st0" width="5.9" height="5.9"/>
	<rect x="25.6" y="60.9" class="st0" width="5.9" height="5.9"/>
	<rect x="31.5" y="60.9" class="st1" width="5.9" height="5.9"/>
	<rect x="37.3" y="60.9" class="st2" width="5.9" height="5.9"/>
	<rect x="43.2" y="60.9" class="st2" width="5.9" height="5.9"/>
	<rect x="49.1" y="60.9" class="st2" width="5.9" height="5.9"/>
	<rect x="54.9" y="60.9" class="st2" width="5.9" height="5.9"/>
	<rect x="60.8" y="60.9" class="st1" width="5.9" height="5.9"/>
	<rect x="66.7" y="60.9" class="st8" width="5.9" height="5.9"/>
	<rect x="72.5" y="60.9" class="st8" width="5.9" height="5.9"/>
	<rect x="78.4" y="60.9" class="st8" width="5.9" height="5.9"/>
	<rect x="84.3" y="60.9" class="st8" width="5.9" height="5.9"/>
	<rect x="90.1" y="60.9" class="st8" width="5.9" height="5.9"/>
	<rect x="96" y="60.9" class="st8" width="5.9" height="5.9"/>
	<rect x="101.9" y="60.9" class="st14" width="5.9" height="5.9"/>
	<rect x="107.7" y="60.9" class="st4" width="5.9" height="5.9"/>
	<rect x="113.6" y="60.9" class="st15" width="5.9" height="5.9"/>
	<rect x="119.5" y="60.9" class="st16" width="5.9" height="5.9"/>
	<rect x="125.3" y="60.9" class="st3" width="5.9" height="5.9"/>
	<rect x="131.2" y="60.9" class="st3" width="5.9" height="5.9"/>
	<rect x="137.1" y="60.9" class="st1" width="5.9" height="5.9"/>
	<rect x="142.9" y="60.9" class="st11" width="5.9" height="5.9"/>
	<rect x="148.8" y="60.9" class="st11" width="5.9" height="5.9"/>
	<rect x="154.7" y="60.9" class="st11" width="5.9" height="5.9"/>
	<rect x="160.5" y="60.9" class="st1" width="5.9" height="5.9"/>
	<rect x="166.4" y="60.9" class="st0" width="5.9" height="5.9"/>
	<rect x="19.7" y="66.7" class="st0" width="5.9" height="5.9"/>
	<rect x="25.6" y="66.7" class="st1" width="5.9" height="5.9"/>
	<rect x="31.5" y="66.7" class="st2" width="5.9" height="5.9"/>
	<rect x="37.3" y="66.7" class="st2" width="5.9" height="5.9"/>
	<rect x="43.2" y="66.7" class="st2" width="5.9" height="5.9"/>
	<rect x="49.1" y="66.7" class="st2" width="5.9" height="5.9"/>
	<rect x="54.9" y="66.7" class="st2" width="5.9" height="5.9"/>
	<rect x="60.8" y="66.7" class="st2" width="5.9" height="5.9"/>
	<rect x="66.7" y="66.7" class="st1" width="5.9" height="5.9"/>
	<rect x="72.5" y="66.7" class="st8" width="5.9" height="5.9"/>
	<rect x="78.4" y="66.7" class="st8" width="5.9" height="5.9"/>
	<rect x="84.3" y="66.7" class="st8" width="5.9" height="5.9"/>
	<rect x="90.1" y="66.7" class="st8" width="5.9" height="5.9"/>
	<rect x="96" y="66.7" class="st8" width="5.9" height="5.9"/>
	<rect x="101.9" y="66.7" class="st14" width="5.9" height="5.9"/>
	<rect x="107.7" y="66.7" class="st4" width="5.9" height="5.9"/>
	<rect x="113.6" y="66.7" class="st15" width="5.9" height="5.9"/>
	<rect x="119.5" y="66.7" class="st15" width="5.9" height="5.9"/>
	<rect x="125.3" y="66.7" class="st10" width="5.9" height="5.9"/>
	<rect x="131.2" y="66.7" class="st3" width="5.9" height="5.9"/>
	<rect x="137.1" y="66.7" class="st3" width="5.9" height="5.9"/>
	<rect x="142.9" y="66.7" class="st1" width="5.9" height="5.9"/>
	<rect x="148.8" y="66.7" class="st1" width="5.9" height="5.9"/>
	<rect x="154.7" y="66.7" class="st1" width="5.9" height="5.9"/>
	<rect x="160.5" y="66.7" class="st0" width="5.9" height="5.9"/>
	<rect x="13.9" y="72.6" class="st0" width="5.9" height="5.9"/>
	<rect x="19.7" y="72.6" class="st1" width="5.9" height="5.9"/>
	<rect x="25.6" y="72.6" class="st2" width="5.9" height="5.9"/>
	<rect x="31.5" y="72.6" class="st4" width="5.9" height="5.9"/>
	<rect x="37.3" y="72.6" class="st2" width="5.9" height="5.9"/>
	<rect x="43.2" y="72.6" class="st2" width="5.9" height="5.9"/>
	<rect x="49.1" y="72.6" class="st2" width="5.9" height="5.9"/>
	<rect x="54.9" y="72.6" class="st2" width="5.9" height="5.9"/>
	<rect x="60.8" y="72.6" class="st4" width="5.9" height="5.9"/>
	<rect x="66.7" y="72.6" class="st2" width="5.9" height="5.9"/>
	<rect x="72.5" y="72.6" class="st1" width="5.9" height="5.9"/>
	<rect x="78.4" y="72.6" class="st8" width="5.9" height="5.9"/>
	<rect x="84.3" y="72.6" class="st8" width="5.9" height="5.9"/>
	<rect x="90.1" y="72.6" class="st8" width="5.9" height="5.9"/>
	<rect x="96" y="72.6" class="st8" width="5.9" height="5.9"/>
	<rect x="101.9" y="72.6" class="st8" width="5.9" height="5.9"/>
	<rect x="107.7" y="72.6" class="st14" width="5.9" height="5.9"/>
	<rect x="113.6" y="72.6" class="st4" width="5.9" height="5.9"/>
	<rect x="119.5" y="72.6" class="st4" width="5.9" height="5.9"/>
	<rect x="125.3" y="72.6" class="st10" width="5.9" height="5.9"/>
	<rect x="131.2" y="72.6" class="st10" width="5.9" height="5.9"/>
	<rect x="137.1" y="72.6" class="st3" width="5.9" height="5.9"/>
	<rect x="142.9" y="72.6" class="st7" width="5.9" height="5.9"/>
	<rect x="148.8" y="72.6" class="st5" width="5.9" height="5.9"/>
	<rect x="154.7" y="72.6" class="st3" width="5.9" height="5.9"/>
	<rect x="160.5" y="72.6" class="st0" width="5.9" height="5.9"/>
	<rect x="8" y="78.5" class="st0" width="5.9" height="5.9"/>
	<rect x="13.9" y="78.5" class="st1" width="5.9" height="5.9"/>
	<rect x="19.7" y="78.5" class="st2" width="5.9" height="5.9"/>
	<rect x="25.6" y="78.5" class="st2" width="5.9" height="5.9"/>
	<rect x="31.5" y="78.5" class="st4" width="5.9" height="5.9"/>
	<rect x="37.3" y="78.5" class="st4" width="5.9" height="5.9"/>
	<rect x="43.2" y="78.5" class="st2" width="5.9" height="5.9"/>
	<rect x="49.1" y="78.5" class="st2" width="5.9" height="5.9"/>
	<rect x="54.9" y="78.5" class="st4" width="5.9" height="5.9"/>
	<rect x="60.8" y="78.5" class="st4" width="5.9" height="5.9"/>
	<rect x="66.7" y="78.5" class="st2" width="5.9" height="5.9"/>
	<rect x="72.5" y="78.5" class="st2" width="5.9" height="5.9"/>
	<rect x="78.4" y="78.5" class="st1" width="5.9" height="5.9"/>
	<rect x="84.3" y="78.5" class="st8" width="5.9" height="5.9"/>
	<rect x="90.1" y="78.5" class="st8" width="5.9" height="5.9"/>
	<rect x="96" y="78.5" class="st8" width="5.9" height="5.9"/>
	<rect x="101.9" y="78.5" class="st8" width="5.9" height="5.9"/>
	<rect x="107.7" y="78.5" class="st8" width="5.9" height="5.9"/>
	<rect x="113.6" y="78.5" class="st14" width="5.9" height="5.9"/>
	<rect x="119.5" y="78.5" class="st4" width="5.9" height="5.9"/>
	<rect x="125.3" y="78.5" class="st4" width="5.9" height="5.9"/>
	<rect x="131.2" y="78.5" class="st16" width="5.9" height="5.9"/>
	<rect x="137.1" y="78.5" class="st10" width="5.9" height="5.9"/>
	<rect x="142.9" y="78.5" class="st7" width="5.9" height="5.9"/>
	<rect x="148.8" y="78.5" class="st5" width="5.9" height="5.9"/>
	<rect x="154.7" y="78.5" class="st3" width="5.9" height="5.9"/>
	<rect x="160.5" y="78.5" class="st0" width="5.9" height="5.9"/>
	<rect x="8" y="84.3" class="st0" width="5.9" height="5.9"/>
	<rect x="13.9" y="84.3" class="st1" width="5.9" height="5.9"/>
	<rect x="19.7" y="84.3" class="st2" width="5.9" height="5.9"/>
	<rect x="25.6" y="84.3" class="st2" width="5.9" height="5.9"/>
	<rect x="31.5" y="84.3" class="st2" width="5.9" height="5.9"/>
	<rect x="37.3" y="84.3" class="st2" width="5.9" height="5.9"/>
	<rect x="43.2" y="84.3" class="st2" width="5.9" height="5.9"/>
	<rect x="49.1" y="84.3" class="st2" width="5.9" height="5.9"/>
	<rect x="54.9" y="84.3" class="st2" width="5.9" height="5.9"/>
	<rect x="60.8" y="84.3" class="st2" width="5.9" height="5.9"/>
	<rect x="66.7" y="84.3" class="st2" width="5.9" height="5.9"/>
	<rect x="72.5" y="84.3" class="st2" width="5.9" height="5.9"/>
	<rect x="78.4" y="84.3" class="st1" width="5.9" height="5.9"/>
	<rect x="84.3" y="84.3" class="st8" width="5.9" height="5.9"/>
	<rect x="90.1" y="84.3" class="st8" width="5.9" height="5.9"/>
	<rect x="96" y="84.3" class="st8" width="5.9" height="5.9"/>
	<rect x="101.9" y="84.3" class="st8" width="5.9" height="5.9"/>
	<rect x="107.7" y="84.3" class="st8" width="5.9" height="5.9"/>
	<rect x="113.6" y="84.3" class="st8" width="5.9" height="5.9"/>
	<rect x="119.5" y="84.3" class="st14" width="5.9" height="5.9"/>
	<rect x="125.3" y="84.3" class="st4" width="5.9" height="5.9"/>
	<rect x="131.2" y="84.3" class="st4" width="5.9" height="5.9"/>
	<rect x="137.1" y="84.3" class="st4" width="5.9" height="5.9"/>
	<rect x="142.9" y="84.3" class="st7" width="5.9" height="5.9"/>
	<rect x="148.8" y="84.3" class="st5" width="5.9" height="5.9"/>
	<rect x="154.7" y="84.3" class="st3" width="5.9" height="5.9"/>
	<rect x="160.5" y="84.3" class="st0" width="5.9" height="5.9"/>
	<rect x="8" y="90.2" class="st0" width="5.9" height="5.9"/>
	<rect x="13.9" y="90.2" class="st1" width="5.9" height="5.9"/>
	<rect x="19.7" y="90.2" class="st11" width="5.9" height="5.9"/>
	<rect x="25.6" y="90.2" class="st2" width="5.9" height="5.9"/>
	<rect x="31.5" y="90.2" class="st12" width="5.9" height="5.9"/>
	<rect x="37.3" y="90.2" class="st13" width="5.9" height="5.9"/>
	<rect x="43.2" y="90.2" class="st12" width="5.9" height="5.9"/>
	<rect x="49.1" y="90.2" class="st12" width="5.9" height="5.9"/>
	<rect x="54.9" y="90.2" class="st13" width="5.9" height="5.9"/>
	<rect x="60.8" y="90.2" class="st12" width="5.9" height="5.9"/>
	<rect x="66.7" y="90.2" class="st2" width="5.9" height="5.9"/>
	<rect x="72.5" y="90.2" class="st11" width="5.9" height="5.9"/>
	<rect x="78.4" y="90.2" class="st1" width="5.9" height="5.9"/>
	<rect x="84.3" y="90.2" class="st8" width="5.9" height="5.9"/>
	<rect x="90.1" y="90.2" class="st8" width="5.9" height="5.9"/>
	<rect x="96" y="90.2" class="st8" width="5.9" height="5.9"/>
	<rect x="101.9" y="90.2" class="st8" width="5.9" height="5.9"/>
	<rect x="107.7" y="90.2" class="st8" width="5.9" height="5.9"/>
	<rect x="113.6" y="90.2" class="st8" width="5.9" height="5.9"/>
	<rect x="119.5" y="90.2" class="st8" width="5.9" height="5.9"/>
	<rect x="125.3" y="90.2" class="st14" width="5.9" height="5.9"/>
	<rect x="131.2" y="90.2" class="st14" width="5.9" height="5.9"/>
	<rect x="137.1" y="90.2" class="st14" width="5.9" height="5.9"/>
	<rect x="142.9" y="90.2" class="st5" width="5.9" height="5.9"/>
	<rect x="148.8" y="90.2" class="st3" width="5.9" height="5.9"/>
	<rect x="154.7" y="90.2" class="st0" width="5.9" height="5.9"/>
	<rect x="8" y="96.1" class="st0" width="5.9" height="5.9"/>
	<rect x="13.9" y="96.1" class="st1" width="5.9" height="5.9"/>
	<rect x="19.7" y="96.1" class="st11" width="5.9" height="5.9"/>
	<rect x="25.6" y="96.1" class="st11" width="5.9" height="5.9"/>
	<rect x="31.5" y="96.1" class="st13" width="5.9" height="5.9"/>
	<rect x="37.3" y="96.1" class="st13" width="5.9" height="5.9"/>
	<rect x="43.2" y="96.1" class="st13" width="5.9" height="5.9"/>
	<rect x="49.1" y="96.1" class="st13" width="5.9" height="5.9"/>
	<rect x="54.9" y="96.1" class="st13" width="5.9" height="5.9"/>
	<rect x="60.8" y="96.1" class="st13" width="5.9" height="5.9"/>
	<rect x="66.7" y="96.1" class="st11" width="5.9" height="5.9"/>
	<rect x="72.5" y="96.1" class="st11" width="5.9" height="5.9"/>
	<rect x="78.4" y="96.1" class="st1" width="5.9" height="5.9"/>
	<rect x="84.3" y="96.1" class="st8" width="5.9" height="5.9"/>
	<rect x="90.1" y="96.1" class="st8" width="5.9" height="5.9"/>
	<rect x="96" y="96.1" class="st8" width="5.9" height="5.9"/>
	<rect x="101.9" y="96.1" class="st8" width="5.9" height="5.9"/>
	<rect x="107.7" y="96.1" class="st8" width="5.9" height="5.9"/>
	<rect x="113.6" y="96.1" class="st8" width="5.9" height="5.9"/>
	<rect x="119.5" y="96.1" class="st8" width="5.9" height="5.9"/>
	<rect x="125.3" y="96.1" class="st8" width="5.9" height="5.9"/>
	<rect x="131.2" y="96.1" class="st8" width="5.9" height="5.9"/>
	<rect x="137.1" y="96.1" class="st6" width="5.9" height="5.9"/>
	<rect x="142.9" y="96.1" class="st5" width="5.9" height="5.9"/>
	<rect x="148.8" y="96.1" class="st3" width="5.9" height="5.9"/>
	<rect x="154.7" y="96.1" class="st0" width="5.9" height="5.9"/>
	<rect x="13.9" y="101.9" class="st0" width="5.9" height="5.9"/>
	<rect x="19.7" y="101.9" class="st1" width="5.9" height="5.9"/>
	<rect x="25.6" y="101.9" class="st11" width="5.9" height="5.9"/>
	<rect x="31.5" y="101.9" class="st13" width="5.9" height="5.9"/>
	<rect x="37.3" y="101.9" class="st13" width="5.9" height="5.9"/>
	<rect x="43.2" y="101.9" class="st13" width="5.9" height="5.9"/>
	<rect x="49.1" y="101.9" class="st13" width="5.9" height="5.9"/>
	<rect x="54.9" y="101.9" class="st13" width="5.9" height="5.9"/>
	<rect x="60.8" y="101.9" class="st13" width="5.9" height="5.9"/>
	<rect x="66.7" y="101.9" class="st11" width="5.9" height="5.9"/>
	<rect x="72.5" y="101.9" class="st1" width="5.9" height="5.9"/>
	<rect x="78.4" y="101.9" class="st8" width="5.9" height="5.9"/>
	<rect x="84.3" y="101.9" class="st8" width="5.9" height="5.9"/>
	<rect x="90.1" y="101.9" class="st8" width="5.9" height="5.9"/>
	<rect x="96" y="101.9" class="st8" width="5.9" height="5.9"/>
	<rect x="101.9" y="101.9" class="st8" width="5.9" height="5.9"/>
	<rect x="107.7" y="101.9" class="st8" width="5.9" height="5.9"/>
	<rect x="113.6" y="101.9" class="st8" width="5.9" height="5.9"/>
	<rect x="119.5" y="101.9" class="st8" width="5.9" height="5.9"/>
	<rect x="125.3" y="101.9" class="st8" width="5.9" height="5.9"/>
	<rect x="131.2" y="101.9" class="st8" width="5.9" height="5.9"/>
	<rect x="137.1" y="101.9" class="st6" width="5.9" height="5.9"/>
	<rect x="142.9" y="101.9" class="st5" width="5.9" height="5.9"/>
	<rect x="148.8" y="101.9" class="st3" width="5.9" height="5.9"/>
	<rect x="154.7" y="101.9" class="st0" width="5.9" height="5.9"/>
	<rect x="19.7" y="107.8" class="st0" width="5.9" height="5.9"/>
	<rect x="25.6" y="107.8" class="st1" width="5.9" height="5.9"/>
	<rect x="31.5" y="107.8" class="st11" width="5.9" height="5.9"/>
	<rect x="37.3" y="107.8" class="st12" width="5.9" height="5.9"/>
	<rect x="43.2" y="107.8" class="st12" width="5.9" height="5.9"/>
	<rect x="49.1" y="107.8" class="st13" width="5.9" height="5.9"/>
	<rect x="54.9" y="107.8" class="st12" width="5.9" height="5.9"/>
	<rect x="60.8" y="107.8" class="st11" width="5.9" height="5.9"/>
	<rect x="66.7" y="107.8" class="st1" width="5.9" height="5.9"/>
	<rect x="72.5" y="107.8" class="st8" width="5.9" height="5.9"/>
	<rect x="78.4" y="107.8" class="st8" width="5.9" height="5.9"/>
	<rect x="84.3" y="107.8" class="st8" width="5.9" height="5.9"/>
	<rect x="90.1" y="107.8" class="st8" width="5.9" height="5.9"/>
	<rect x="96" y="107.8" class="st8" width="5.9" height="5.9"/>
	<rect x="101.9" y="107.8" class="st8" width="5.9" height="5.9"/>
	<rect x="107.7" y="107.8" class="st8" width="5.9" height="5.9"/>
	<rect x="113.6" y="107.8" class="st8" width="5.9" height="5.9"/>
	<rect x="119.5" y="107.8" class="st8" width="5.9" height="5.9"/>
	<rect x="125.3" y="107.8" class="st8" width="5.9" height="5.9"/>
	<rect x="131.2" y="107.8" class="st6" width="5.9" height="5.9"/>
	<rect x="137.1" y="107.8" class="st5" width="5.9" height="5.9"/>
	<rect x="142.9" y="107.8" class="st3" width="5.9" height="5.9"/>
	<rect x="148.8" y="107.8" class="st0" width="5.9" height="5.9"/>
	<rect x="25.6" y="113.7" class="st0" width="5.9" height="5.9"/>
	<rect x="31.5" y="113.7" class="st1" width="5.9" height="5.9"/>
	<rect x="37.3" y="113.7" class="st11" width="5.9" height="5.9"/>
	<rect x="43.2" y="113.7" class="st11" width="5.9" height="5.9"/>
	<rect x="49.1" y="113.7" class="st11" width="5.9" height="5.9"/>
	<rect x="54.9" y="113.7" class="st11" width="5.9" height="5.9"/>
	<rect x="60.8" y="113.7" class="st1" width="5.9" height="5.9"/>
	<rect x="66.7" y="113.7" class="st8" width="5.9" height="5.9"/>
	<rect x="72.5" y="113.7" class="st8" width="5.9" height="5.9"/>
	<rect x="78.4" y="113.7" class="st8" width="5.9" height="5.9"/>
	<rect x="84.3" y="113.7" class="st8" width="5.9" height="5.9"/>
	<rect x="90.1" y="113.7" class="st8" width="5.9" height="5.9"/>
	<rect x="96" y="113.7" class="st8" width="5.9" height="5.9"/>
	<rect x="101.9" y="113.7" class="st8" width="5.9" height="5.9"/>
	<rect x="107.7" y="113.7" class="st8" width="5.9" height="5.9"/>
	<rect x="113.6" y="113.7" class="st8" width="5.9" height="5.9"/>
	<rect x="119.5" y="113.7" class="st8" width="5.9" height="5.9"/>
	<rect x="125.3" y="113.7" class="st8" width="5.9" height="5.9"/>
	<rect x="131.2" y="113.7" class="st6" width="5.9" height="5.9"/>
	<rect x="137.1" y="113.7" class="st3" width="5.9" height="5.9"/>
	<rect x="142.9" y="113.7" class="st0" width="5.9" height="5.9"/>
	<rect x="31.5" y="119.5" class="st0" width="5.9" height="5.9"/>
	<rect x="37.3" y="119.5" class="st1" width="5.9" height="5.9"/>
	<rect x="43.2" y="119.5" class="st1" width="5.9" height="5.9"/>
	<rect x="49.1" y="119.5" class="st1" width="5.9" height="5.9"/>
	<rect x="54.9" y="119.5" class="st1" width="5.9" height="5.9"/>
	<rect x="60.8" y="119.5" class="st8" width="5.9" height="5.9"/>
	<rect x="66.7" y="119.5" class="st8" width="5.9" height="5.9"/>
	<rect x="72.5" y="119.5" class="st8" width="5.9" height="5.9"/>
	<rect x="78.4" y="119.5" class="st8" width="5.9" height="5.9"/>
	<rect x="84.3" y="119.5" class="st5" width="5.9" height="5.9"/>
	<rect x="90.1" y="119.5" class="st3" width="5.9" height="5.9"/>
	<rect x="96" y="119.5" class="st3" width="5.9" height="5.9"/>
	<rect x="101.9" y="119.5" class="st5" width="5.9" height="5.9"/>
	<rect x="107.7" y="119.5" class="st17" width="5.9" height="5.9"/>
	<rect x="113.6" y="119.5" class="st8" width="5.9" height="5.9"/>
	<rect x="119.5" y="119.5" class="st8" width="5.9" height="5.9"/>
	<rect x="125.3" y="119.5" class="st8" width="5.9" height="5.9"/>
	<rect x="131.2" y="119.5" class="st6" width="5.9" height="5.9"/>
	<rect x="137.1" y="119.5" class="st5" width="5.9" height="5.9"/>
	<rect x="142.9" y="119.5" class="st3" width="5.9" height="5.9"/>
	<rect x="148.8" y="119.5" class="st0" width="5.9" height="5.9"/>
	<rect x="37.3" y="125.4" class="st0" width="5.9" height="5.9"/>
	<rect x="43.2" y="125.4" class="st10" width="5.9" height="5.9"/>
	<rect x="49.1" y="125.4" class="st5" width="5.9" height="5.9"/>
	<rect x="54.9" y="125.4" class="st17" width="5.9" height="5.9"/>
	<rect x="60.8" y="125.4" class="st8" width="5.9" height="5.9"/>
	<rect x="66.7" y="125.4" class="st8" width="5.9" height="5.9"/>
	<rect x="72.5" y="125.4" class="st8" width="5.9" height="5.9"/>
	<rect x="78.4" y="125.4" class="st5" width="5.9" height="5.9"/>
	<rect x="84.3" y="125.4" class="st3" width="5.9" height="5.9"/>
	<rect x="90.1" y="125.4" class="st0" width="5.9" height="5.9"/>
	<rect x="96" y="125.4" class="st0" width="5.9" height="5.9"/>
	<rect x="101.9" y="125.4" class="st3" width="5.9" height="5.9"/>
	<rect x="107.7" y="125.4" class="st5" width="5.9" height="5.9"/>
	<rect x="113.6" y="125.4" class="st17" width="5.9" height="5.9"/>
	<rect x="119.5" y="125.4" class="st8" width="5.9" height="5.9"/>
	<rect x="125.3" y="125.4" class="st8" width="5.9" height="5.9"/>
	<rect x="131.2" y="125.4" class="st6" width="5.9" height="5.9"/>
	<rect x="137.1" y="125.4" class="st5" width="5.9" height="5.9"/>
	<rect x="142.9" y="125.4" class="st10" width="5.9" height="5.9"/>
	<rect x="148.8" y="125.4" class="st0" width="5.9" height="5.9"/>
	<rect x="31.5" y="131.3" class="st0" width="5.9" height="5.9"/>
	<rect x="37.3" y="131.3" class="st3" width="5.9" height="5.9"/>
	<rect x="43.2" y="131.3" class="st18" width="5.9" height="5.9"/>
	<rect x="49.1" y="131.3" class="st17" width="5.9" height="5.9"/>
	<rect x="54.9" y="131.3" class="st8" width="5.9" height="5.9"/>
	<rect x="60.8" y="131.3" class="st8" width="5.9" height="5.9"/>
	<rect x="66.7" y="131.3" class="st8" width="5.9" height="5.9"/>
	<rect x="72.5" y="131.3" class="st5" width="5.9" height="5.9"/>
	<rect x="78.4" y="131.3" class="st10" width="5.9" height="5.9"/>
	<rect x="84.3" y="131.3" class="st0" width="5.9" height="5.9"/>
	<rect x="101.9" y="131.3" class="st0" width="5.9" height="5.9"/>
	<rect x="107.7" y="131.3" class="st10" width="5.9" height="5.9"/>
	<rect x="113.6" y="131.3" class="st5" width="5.9" height="5.9"/>
	<rect x="119.5" y="131.3" class="st17" width="5.9" height="5.9"/>
	<rect x="125.3" y="131.3" class="st8" width="5.9" height="5.9"/>
	<rect x="131.2" y="131.3" class="st8" width="5.9" height="5.9"/>
	<rect x="137.1" y="131.3" class="st6" width="5.9" height="5.9"/>
	<rect x="142.9" y="131.3" class="st5" width="5.9" height="5.9"/>
	<rect x="148.8" y="131.3" class="st3" width="5.9" height="5.9"/>
	<rect x="154.7" y="131.3" class="st0" width="5.9" height="5.9"/>
	<rect x="31.5" y="137.1" class="st0" width="5.9" height="5.9"/>
	<rect x="37.3" y="137.1" class="st10" width="5.9" height="5.9"/>
	<rect x="43.2" y="137.1" class="st5" width="5.9" height="5.9"/>
	<rect x="49.1" y="137.1" class="st17" width="5.9" height="5.9"/>
	<rect x="54.9" y="137.1" class="st8" width="5.9" height="5.9"/>
	<rect x="60.8" y="137.1" class="st8" width="5.9" height="5.9"/>
	<rect x="66.7" y="137.1" class="st5" width="5.9" height="5.9"/>
	<rect x="72.5" y="137.1" class="st3" width="5.9" height="5.9"/>
	<rect x="78.4" y="137.1" class="st0" width="5.9" height="5.9"/>
	<rect x="107.7" y="137.1" class="st0" width="5.9" height="5.9"/>
	<rect x="113.6" y="137.1" class="st3" width="5.9" height="5.9"/>
	<rect x="119.5" y="137.1" class="st5" width="5.9" height="5.9"/>
	<rect x="125.3" y="137.1" class="st17" width="5.9" height="5.9"/>
	<rect x="131.2" y="137.1" class="st8" width="5.9" height="5.9"/>
	<rect x="137.1" y="137.1" class="st6" width="5.9" height="5.9"/>
	<rect x="142.9" y="137.1" class="st5" width="5.9" height="5.9"/>
	<rect x="148.8" y="137.1" class="st10" width="5.9" height="5.9"/>
	<rect x="154.7" y="137.1" class="st0" width="5.9" height="5.9"/>
	<rect x="31.5" y="143" class="st0" width="5.9" height="5.9"/>
	<rect x="37.3" y="143" class="st10" width="5.9" height="5.9"/>
	<rect x="43.2" y="143" class="st0" width="5.9" height="5.9"/>
	<rect x="49.1" y="143" class="st17" width="5.9" height="5.9"/>
	<rect x="54.9" y="143" class="st8" width="5.9" height="5.9"/>
	<rect x="60.8" y="143" class="st8" width="5.9" height="5.9"/>
	<rect x="66.7" y="143" class="st0" width="5.9" height="5.9"/>
	<rect x="72.5" y="143" class="st10" width="5.9" height="5.9"/>
	<rect x="78.4" y="143" class="st0" width="5.9" height="5.9"/>
	<rect x="107.7" y="143" class="st0" width="5.9" height="5.9"/>
	<rect x="113.6" y="143" class="st10" width="5.9" height="5.9"/>
	<rect x="119.5" y="143" class="st0" width="5.9" height="5.9"/>
	<rect x="125.3" y="143" class="st17" width="5.9" height="5.9"/>
	<rect x="131.2" y="143" class="st8" width="5.9" height="5.9"/>
	<rect x="137.1" y="143" class="st6" width="5.9" height="5.9"/>
	<rect x="142.9" y="143" class="st0" width="5.9" height="5.9"/>
	<rect x="148.8" y="143" class="st10" width="5.9" height="5.9"/>
	<rect x="154.7" y="143" class="st0" width="5.9" height="5.9"/>
	<rect x="37.3" y="148.9" class="st0" width="5.9" height="5.9"/>
	<rect x="43.2" y="148.9" class="st3" width="5.9" height="5.9"/>
	<rect x="49.1" y="148.9" class="st0" width="5.9" height="5.9"/>
	<rect x="54.9" y="148.9" class="st17" width="5.9" height="5.9"/>
	<rect x="60.8" y="148.9" class="st5" width="5.9" height="5.9"/>
	<rect x="66.7" y="148.9" class="st3" width="5.9" height="5.9"/>
	<rect x="72.5" y="148.9" class="st0" width="5.9" height="5.9"/>
	<rect x="113.6" y="148.9" class="st0" width="5.9" height="5.9"/>
	<rect x="119.5" y="148.9" class="st3" width="5.9" height="5.9"/>
	<rect x="125.3" y="148.9" class="st5" width="5.9" height="5.9"/>
	<rect x="131.2" y="148.9" class="st17" width="5.9" height="5.9"/>
	<rect x="137.1" y="148.9" class="st0" width="5.9" height="5.9"/>
	<rect x="142.9" y="148.9" class="st3" width="5.9" height="5.9"/>
	<rect x="148.8" y="148.9" class="st0" width="5.9" height="5.9"/>
	<rect x="37.3" y="154.7" class="st0" width="5.9" height="5.9"/>
	<rect x="43.2" y="154.7" class="st10" width="5.9" height="5.9"/>
	<rect x="49.1" y="154.7" class="st19" width="5.9" height="5.9"/>
	<rect x="54.9" y="154.7" class="st20" width="5.9" height="5.9"/>
	<rect x="60.8" y="154.7" class="st0" width="5.9" height="5.9"/>
	<rect x="66.7" y="154.7" class="st10" width="5.9" height="5.9"/>
	<rect x="72.5" y="154.7" class="st0" width="5.9" height="5.9"/>
	<rect x="113.6" y="154.7" class="st0" width="5.9" height="5.9"/>
	<rect x="119.5" y="154.7" class="st10" width="5.9" height="5.9"/>
	<rect x="125.3" y="154.7" class="st0" width="5.9" height="5.9"/>
	<rect x="131.2" y="154.7" class="st20" width="5.9" height="5.9"/>
	<rect x="137.1" y="154.7" class="st19" width="5.9" height="5.9"/>
	<rect x="142.9" y="154.7" class="st10" width="5.9" height="5.9"/>
	<rect x="148.8" y="154.7" class="st0" width="5.9" height="5.9"/>
	<rect x="37.3" y="160.6" class="st0" width="5.9" height="5.9"/>
	<rect x="43.2" y="160.6" class="st4" width="5.9" height="5.9"/>
	<rect x="49.1" y="160.6" class="st21" width="5.9" height="5.9"/>
	<rect x="54.9" y="160.6" class="st0" width="5.9" height="5.9"/>
	<rect x="60.8" y="160.6" class="st19" width="5.9" height="5.9"/>
	<rect x="66.7" y="160.6" class="st10" width="5.9" height="5.9"/>
	<rect x="72.5" y="160.6" class="st0" width="5.9" height="5.9"/>
	<rect x="113.6" y="160.6" class="st0" width="5.9" height="5.9"/>
	<rect x="119.5" y="160.6" class="st10" width="5.9" height="5.9"/>
	<rect x="125.3" y="160.6" class="st19" width="5.9" height="5.9"/>
	<rect x="131.2" y="160.6" class="st0" width="5.9" height="5.9"/>
	<rect x="137.1" y="160.6" class="st21" width="5.9" height="5.9"/>
	<rect x="142.9" y="160.6" class="st4" width="5.9" height="5.9"/>
	<rect x="148.8" y="160.6" class="st0" width="5.9" height="5.9"/>
	<rect x="43.2" y="166.5" class="st0" width="5.9" height="5.9"/>
	<rect x="49.1" y="166.5" class="st4" width="5.9" height="5.9"/>
	<rect x="54.9" y="166.5" class="st21" width="5.9" height="5.9"/>
	<rect x="60.8" y="166.5" class="st21" width="5.9" height="5.9"/>
	<rect x="66.7" y="166.5" class="st4" width="5.9" height="5.9"/>
	<rect x="72.5" y="166.5" class="st0" width="5.9" height="5.9"/>
	<rect x="113.6" y="166.5" class="st0" width="5.9" height="5.9"/>
	<rect x="119.5" y="166.5" class="st4" width="5.9" height="5.9"/>
	<rect x="125.3" y="166.5" class="st21" width="5.9" height="5.9"/>
	<rect x="131.2" y="166.5" class="st21" width="5.9" height="5.9"/>
	<rect x="137.1" y="166.5" class="st4" width="5.9" height="5.9"/>
	<rect x="142.9" y="166.5" class="st0" width="5.9" height="5.9"/>
	<rect x="49.1" y="172.3" class="st0" width="5.9" height="5.9"/>
	<rect x="54.9" y="172.3" class="st4" width="5.9" height="5.9"/>
	<rect x="60.8" y="172.3" class="st4" width="5.9" height="5.9"/>
	<rect x="66.7" y="172.3" class="st0" width="5.9" height="5.9"/>
	<rect x="119.5" y="172.3" class="st0" width="5.9" height="5.9"/>
	<rect x="125.3" y="172.3" class="st4" width="5.9" height="5.9"/>
	<rect x="131.2" y="172.3" class="st4" width="5.9" height="5.9"/>
	<rect x="137.1" y="172.3" class="st0" width="5.9" height="5.9"/>
	<rect x="54.9" y="178.2" class="st0" width="5.9" height="5.9"/>
	<rect x="60.8" y="178.2" class="st0" width="5.9" height="5.9"/>
	<rect x="125.3" y="178.2" class="st0" width="5.9" height="5.9"/>
	<rect x="131.2" y="178.2" class="st0" width="5.9" height="5.9"/>
</g>
</svg>
