<?xml version="1.0" encoding="utf-8"?>
<!-- Generator: Adobe Illustrator 27.9.0, SVG Export Plug-In . SVG Version: 6.00 Build 0)  -->
<svg version="1.1" id="Layer_1" shape-rendering="crispEdges"
	 xmlns="http://www.w3.org/2000/svg" xmlns:xlink="http://www.w3.org/1999/xlink" x="0px" y="0px" viewBox="0 0 192 192"
	 style="enable-background:new 0 0 192 192;" xml:space="preserve">
<style type="text/css">
	.st0{fill:#C1B9E0;}
	.st1{fill:#CD694F;}
	.st2{fill:#D1584A;}
	.st3{fill:#E6A974;}
	.st4{fill:#AE5269;}
	.st5{fill:#E4895D;}
	.st6{fill:#E6C874;}
	.st7{fill:#E7A55D;}
	.st8{fill:#8D506B;}
	.st9{fill:#EDE5B7;}
	.st10{fill:#D58858;}
	.st11{fill:#E17557;}
	.st12{fill:#EECC11;}
</style>
<g>
	<rect x="117" y="12" class="st0" width="6" height="6"/>
	<rect x="123" y="12" class="st0" width="6" height="6"/>
	<rect x="129" y="12" class="st0" width="6" height="6"/>
	<rect x="105" y="18" class="st0" width="6" height="6"/>
	<rect x="111" y="18" class="st0" width="6" height="6"/>
	<rect x="117" y="18" class="st1" width="6" height="6"/>
	<rect x="123" y="18" class="st1" width="6" height="6"/>
	<rect x="129" y="18" class="st1" width="6" height="6"/>
	<rect x="135" y="18" class="st0" width="6" height="6"/>
	<rect x="93" y="24" class="st0" width="6" height="6"/>
	<rect x="99" y="24" class="st0" width="6" height="6"/>
	<rect x="105" y="24" class="st2" width="6" height="6"/>
	<rect x="111" y="24" class="st1" width="6" height="6"/>
	<rect x="117" y="24" class="st3" width="6" height="6"/>
	<rect x="123" y="24" class="st3" width="6" height="6"/>
	<rect x="129" y="24" class="st3" width="6" height="6"/>
	<rect x="135" y="24" class="st4" width="6" height="6"/>
	<rect x="141" y="24" class="st0" width="6" height="6"/>
	<rect x="81" y="30" class="st0" width="6" height="6"/>
	<rect x="87" y="30" class="st0" width="6" height="6"/>
	<rect x="93" y="30" class="st2" width="6" height="6"/>
	<rect x="99" y="30" class="st1" width="6" height="6"/>
	<rect x="105" y="30" class="st5" width="6" height="6"/>
	<rect x="111" y="30" class="st5" width="6" height="6"/>
	<rect x="117" y="30" class="st6" width="6" height="6"/>
	<rect x="123" y="30" class="st6" width="6" height="6"/>
	<rect x="129" y="30" class="st6" width="6" height="6"/>
	<rect x="135" y="30" class="st3" width="6" height="6"/>
	<rect x="141" y="30" class="st4" width="6" height="6"/>
	<rect x="147" y="30" class="st0" width="6" height="6"/>
	<rect x="69" y="36" class="st0" width="6" height="6"/>
	<rect x="75" y="36" class="st0" width="6" height="6"/>
	<rect x="81" y="36" class="st2" width="6" height="6"/>
	<rect x="87" y="36" class="st1" width="6" height="6"/>
	<rect x="93" y="36" class="st6" width="6" height="6"/>
	<rect x="99" y="36" class="st5" width="6" height="6"/>
	<rect x="105" y="36" class="st5" width="6" height="6"/>
	<rect x="111" y="36" class="st7" width="6" height="6"/>
	<rect x="117" y="36" class="st7" width="6" height="6"/>
	<rect x="123" y="36" class="st6" width="6" height="6"/>
	<rect x="129" y="36" class="st6" width="6" height="6"/>
	<rect x="135" y="36" class="st6" width="6" height="6"/>
	<rect x="141" y="36" class="st3" width="6" height="6"/>
	<rect x="147" y="36" class="st4" width="6" height="6"/>
	<rect x="153" y="36" class="st0" width="6" height="6"/>
	<rect x="57" y="42" class="st0" width="6" height="6"/>
	<rect x="63" y="42" class="st0" width="6" height="6"/>
	<rect x="69" y="42" class="st2" width="6" height="6"/>
	<rect x="75" y="42" class="st2" width="6" height="6"/>
	<rect x="81" y="42" class="st6" width="6" height="6"/>
	<rect x="87" y="42" class="st6" width="6" height="6"/>
	<rect x="93" y="42" class="st6" width="6" height="6"/>
	<rect x="99" y="42" class="st6" width="6" height="6"/>
	<rect x="105" y="42" class="st5" width="6" height="6"/>
	<rect x="111" y="42" class="st5" width="6" height="6"/>
	<rect x="117" y="42" class="st6" width="6" height="6"/>
	<rect x="123" y="42" class="st6" width="6" height="6"/>
	<rect x="129" y="42" class="st6" width="6" height="6"/>
	<rect x="135" y="42" class="st6" width="6" height="6"/>
	<rect x="141" y="42" class="st6" width="6" height="6"/>
	<rect x="147" y="42" class="st3" width="6" height="6"/>
	<rect x="153" y="42" class="st4" width="6" height="6"/>
	<rect x="159" y="42" class="st0" width="6" height="6"/>
	<rect x="45" y="48" class="st0" width="6" height="6"/>
	<rect x="51" y="48" class="st0" width="6" height="6"/>
	<rect x="57" y="48" class="st4" width="6" height="6"/>
	<rect x="63" y="48" class="st2" width="6" height="6"/>
	<rect x="69" y="48" class="st6" width="6" height="6"/>
	<rect x="75" y="48" class="st6" width="6" height="6"/>
	<rect x="81" y="48" class="st6" width="6" height="6"/>
	<rect x="87" y="48" class="st2" width="6" height="6"/>
	<rect x="93" y="48" class="st2" width="6" height="6"/>
	<rect x="99" y="48" class="st6" width="6" height="6"/>
	<rect x="105" y="48" class="st6" width="6" height="6"/>
	<rect x="111" y="48" class="st6" width="6" height="6"/>
	<rect x="117" y="48" class="st6" width="6" height="6"/>
	<rect x="123" y="48" class="st6" width="6" height="6"/>
	<rect x="129" y="48" class="st6" width="6" height="6"/>
	<rect x="135" y="48" class="st5" width="6" height="6"/>
	<rect x="141" y="48" class="st5" width="6" height="6"/>
	<rect x="147" y="48" class="st6" width="6" height="6"/>
	<rect x="153" y="48" class="st3" width="6" height="6"/>
	<rect x="159" y="48" class="st8" width="6" height="6"/>
	<rect x="165" y="48" class="st0" width="6" height="6"/>
	<rect x="33" y="54" class="st0" width="6" height="6"/>
	<rect x="39" y="54" class="st0" width="6" height="6"/>
	<rect x="45" y="54" class="st4" width="6" height="6"/>
	<rect x="51" y="54" class="st2" width="6" height="6"/>
	<rect x="57" y="54" class="st6" width="6" height="6"/>
	<rect x="63" y="54" class="st6" width="6" height="6"/>
	<rect x="69" y="54" class="st7" width="6" height="6"/>
	<rect x="75" y="54" class="st6" width="6" height="6"/>
	<rect x="81" y="54" class="st2" width="6" height="6"/>
	<rect x="87" y="54" class="st6" width="6" height="6"/>
	<rect x="93" y="54" class="st6" width="6" height="6"/>
	<rect x="99" y="54" class="st2" width="6" height="6"/>
	<rect x="105" y="54" class="st4" width="6" height="6"/>
	<rect x="111" y="54" class="st6" width="6" height="6"/>
	<rect x="117" y="54" class="st7" width="6" height="6"/>
	<rect x="123" y="54" class="st6" width="6" height="6"/>
	<rect x="129" y="54" class="st6" width="6" height="6"/>
	<rect x="135" y="54" class="st5" width="6" height="6"/>
	<rect x="141" y="54" class="st7" width="6" height="6"/>
	<rect x="147" y="54" class="st6" width="6" height="6"/>
	<rect x="153" y="54" class="st6" width="6" height="6"/>
	<rect x="159" y="54" class="st3" width="6" height="6"/>
	<rect x="165" y="54" class="st8" width="6" height="6"/>
	<rect x="171" y="54" class="st0" width="6" height="6"/>
	<rect x="27" y="60" class="st0" width="6" height="6"/>
	<rect x="33" y="60" class="st4" width="6" height="6"/>
	<rect x="39" y="60" class="st4" width="6" height="6"/>
	<rect x="45" y="60" class="st6" width="6" height="6"/>
	<rect x="51" y="60" class="st6" width="6" height="6"/>
	<rect x="57" y="60" class="st6" width="6" height="6"/>
	<rect x="63" y="60" class="st6" width="6" height="6"/>
	<rect x="69" y="60" class="st6" width="6" height="6"/>
	<rect x="75" y="60" class="st2" width="6" height="6"/>
	<rect x="81" y="60" class="st9" width="6" height="6"/>
	<rect x="87" y="60" class="st9" width="6" height="6"/>
	<rect x="93" y="60" class="st9" width="6" height="6"/>
	<rect x="99" y="60" class="st6" width="6" height="6"/>
	<rect x="105" y="60" class="st6" width="6" height="6"/>
	<rect x="111" y="60" class="st4" width="6" height="6"/>
	<rect x="117" y="60" class="st6" width="6" height="6"/>
	<rect x="123" y="60" class="st6" width="6" height="6"/>
	<rect x="129" y="60" class="st6" width="6" height="6"/>
	<rect x="135" y="60" class="st6" width="6" height="6"/>
	<rect x="141" y="60" class="st6" width="6" height="6"/>
	<rect x="147" y="60" class="st6" width="6" height="6"/>
	<rect x="153" y="60" class="st6" width="6" height="6"/>
	<rect x="159" y="60" class="st6" width="6" height="6"/>
	<rect x="165" y="60" class="st3" width="6" height="6"/>
	<rect x="171" y="60" class="st8" width="6" height="6"/>
	<rect x="177" y="60" class="st0" width="6" height="6"/>
	<rect x="21" y="66" class="st0" width="6" height="6"/>
	<rect x="27" y="66" class="st4" width="6" height="6"/>
	<rect x="33" y="66" class="st4" width="6" height="6"/>
	<rect x="39" y="66" class="st4" width="6" height="6"/>
	<rect x="45" y="66" class="st1" width="6" height="6"/>
	<rect x="51" y="66" class="st5" width="6" height="6"/>
	<rect x="57" y="66" class="st7" width="6" height="6"/>
	<rect x="63" y="66" class="st7" width="6" height="6"/>
	<rect x="69" y="66" class="st2" width="6" height="6"/>
	<rect x="75" y="66" class="st9" width="6" height="6"/>
	<rect x="81" y="66" class="st9" width="6" height="6"/>
	<rect x="87" y="66" class="st9" width="6" height="6"/>
	<rect x="93" y="66" class="st9" width="6" height="6"/>
	<rect x="99" y="66" class="st9" width="6" height="6"/>
	<rect x="105" y="66" class="st9" width="6" height="6"/>
	<rect x="111" y="66" class="st6" width="6" height="6"/>
	<rect x="117" y="66" class="st4" width="6" height="6"/>
	<rect x="123" y="66" class="st1" width="6" height="6"/>
	<rect x="129" y="66" class="st5" width="6" height="6"/>
	<rect x="135" y="66" class="st7" width="6" height="6"/>
	<rect x="141" y="66" class="st6" width="6" height="6"/>
	<rect x="147" y="66" class="st6" width="6" height="6"/>
	<rect x="153" y="66" class="st6" width="6" height="6"/>
	<rect x="159" y="66" class="st7" width="6" height="6"/>
	<rect x="165" y="66" class="st4" width="6" height="6"/>
	<rect x="171" y="66" class="st8" width="6" height="6"/>
	<rect x="177" y="66" class="st0" width="6" height="6"/>
	<rect x="21" y="72" class="st0" width="6" height="6"/>
	<rect x="27" y="72" class="st4" width="6" height="6"/>
	<rect x="33" y="72" class="st7" width="6" height="6"/>
	<rect x="39" y="72" class="st7" width="6" height="6"/>
	<rect x="45" y="72" class="st7" width="6" height="6"/>
	<rect x="51" y="72" class="st7" width="6" height="6"/>
	<rect x="57" y="72" class="st7" width="6" height="6"/>
	<rect x="63" y="72" class="st10" width="6" height="6"/>
	<rect x="69" y="72" class="st2" width="6" height="6"/>
	<rect x="75" y="72" class="st9" width="6" height="6"/>
	<rect x="81" y="72" class="st9" width="6" height="6"/>
	<rect x="87" y="72" class="st9" width="6" height="6"/>
	<rect x="93" y="72" class="st11" width="6" height="6"/>
	<rect x="99" y="72" class="st11" width="6" height="6"/>
	<rect x="105" y="72" class="st9" width="6" height="6"/>
	<rect x="111" y="72" class="st9" width="6" height="6"/>
	<rect x="117" y="72" class="st6" width="6" height="6"/>
	<rect x="123" y="72" class="st2" width="6" height="6"/>
	<rect x="129" y="72" class="st10" width="6" height="6"/>
	<rect x="135" y="72" class="st6" width="6" height="6"/>
	<rect x="141" y="72" class="st7" width="6" height="6"/>
	<rect x="147" y="72" class="st7" width="6" height="6"/>
	<rect x="153" y="72" class="st7" width="6" height="6"/>
	<rect x="159" y="72" class="st6" width="6" height="6"/>
	<rect x="165" y="72" class="st7" width="6" height="6"/>
	<rect x="171" y="72" class="st4" width="6" height="6"/>
	<rect x="177" y="72" class="st0" width="6" height="6"/>
	<rect x="21" y="78" class="st0" width="6" height="6"/>
	<rect x="27" y="78" class="st4" width="6" height="6"/>
	<rect x="33" y="78" class="st7" width="6" height="6"/>
	<rect x="39" y="78" class="st5" width="6" height="6"/>
	<rect x="45" y="78" class="st7" width="6" height="6"/>
	<rect x="51" y="78" class="st7" width="6" height="6"/>
	<rect x="57" y="78" class="st10" width="6" height="6"/>
	<rect x="63" y="78" class="st2" width="6" height="6"/>
	<rect x="69" y="78" class="st9" width="6" height="6"/>
	<rect x="75" y="78" class="st9" width="6" height="6"/>
	<rect x="81" y="78" class="st9" width="6" height="6"/>
	<rect x="87" y="78" class="st11" width="6" height="6"/>
	<rect x="93" y="78" class="st7" width="6" height="6"/>
	<rect x="99" y="78" class="st7" width="6" height="6"/>
	<rect x="105" y="78" class="st11" width="6" height="6"/>
	<rect x="111" y="78" class="st9" width="6" height="6"/>
	<rect x="117" y="78" class="st6" width="6" height="6"/>
	<rect x="123" y="78" class="st4" width="6" height="6"/>
	<rect x="129" y="78" class="st10" width="6" height="6"/>
	<rect x="135" y="78" class="st7" width="6" height="6"/>
	<rect x="141" y="78" class="st6" width="6" height="6"/>
	<rect x="147" y="78" class="st6" width="6" height="6"/>
	<rect x="153" y="78" class="st6" width="6" height="6"/>
	<rect x="159" y="78" class="st7" width="6" height="6"/>
	<rect x="165" y="78" class="st5" width="6" height="6"/>
	<rect x="171" y="78" class="st8" width="6" height="6"/>
	<rect x="177" y="78" class="st0" width="6" height="6"/>
	<rect x="21" y="84" class="st0" width="6" height="6"/>
	<rect x="27" y="84" class="st4" width="6" height="6"/>
	<rect x="33" y="84" class="st7" width="6" height="6"/>
	<rect x="39" y="84" class="st1" width="6" height="6"/>
	<rect x="45" y="84" class="st7" width="6" height="6"/>
	<rect x="51" y="84" class="st10" width="6" height="6"/>
	<rect x="57" y="84" class="st2" width="6" height="6"/>
	<rect x="63" y="84" class="st5" width="6" height="6"/>
	<rect x="69" y="84" class="st9" width="6" height="6"/>
	<rect x="75" y="84" class="st9" width="6" height="6"/>
	<rect x="81" y="84" class="st9" width="6" height="6"/>
	<rect x="87" y="84" class="st9" width="6" height="6"/>
	<rect x="93" y="84" class="st11" width="6" height="6"/>
	<rect x="99" y="84" class="st11" width="6" height="6"/>
	<rect x="105" y="84" class="st9" width="6" height="6"/>
	<rect x="111" y="84" class="st9" width="6" height="6"/>
	<rect x="117" y="84" class="st9" width="6" height="6"/>
	<rect x="123" y="84" class="st6" width="6" height="6"/>
	<rect x="129" y="84" class="st4" width="6" height="6"/>
	<rect x="135" y="84" class="st10" width="6" height="6"/>
	<rect x="141" y="84" class="st7" width="6" height="6"/>
	<rect x="147" y="84" class="st7" width="6" height="6"/>
	<rect x="153" y="84" class="st7" width="6" height="6"/>
	<rect x="159" y="84" class="st7" width="6" height="6"/>
	<rect x="165" y="84" class="st7" width="6" height="6"/>
	<rect x="171" y="84" class="st8" width="6" height="6"/>
	<rect x="177" y="84" class="st0" width="6" height="6"/>
	<rect x="21" y="90" class="st0" width="6" height="6"/>
	<rect x="27" y="90" class="st1" width="6" height="6"/>
	<rect x="33" y="90" class="st7" width="6" height="6"/>
	<rect x="39" y="90" class="st7" width="6" height="6"/>
	<rect x="45" y="90" class="st10" width="6" height="6"/>
	<rect x="51" y="90" class="st2" width="6" height="6"/>
	<rect x="57" y="90" class="st5" width="6" height="6"/>
	<rect x="63" y="90" class="st2" width="6" height="6"/>
	<rect x="69" y="90" class="st9" width="6" height="6"/>
	<rect x="75" y="90" class="st11" width="6" height="6"/>
	<rect x="81" y="90" class="st11" width="6" height="6"/>
	<rect x="87" y="90" class="st9" width="6" height="6"/>
	<rect x="93" y="90" class="st9" width="6" height="6"/>
	<rect x="99" y="90" class="st9" width="6" height="6"/>
	<rect x="105" y="90" class="st9" width="6" height="6"/>
	<rect x="111" y="90" class="st9" width="6" height="6"/>
	<rect x="117" y="90" class="st9" width="6" height="6"/>
	<rect x="123" y="90" class="st6" width="6" height="6"/>
	<rect x="129" y="90" class="st4" width="6" height="6"/>
	<rect x="135" y="90" class="st10" width="6" height="6"/>
	<rect x="141" y="90" class="st7" width="6" height="6"/>
	<rect x="147" y="90" class="st7" width="6" height="6"/>
	<rect x="153" y="90" class="st1" width="6" height="6"/>
	<rect x="159" y="90" class="st1" width="6" height="6"/>
	<rect x="165" y="90" class="st7" width="6" height="6"/>
	<rect x="171" y="90" class="st8" width="6" height="6"/>
	<rect x="177" y="90" class="st0" width="6" height="6"/>
	<rect x="21" y="96" class="st0" width="6" height="6"/>
	<rect x="27" y="96" class="st4" width="6" height="6"/>
	<rect x="33" y="96" class="st7" width="6" height="6"/>
	<rect x="39" y="96" class="st10" width="6" height="6"/>
	<rect x="45" y="96" class="st2" width="6" height="6"/>
	<rect x="51" y="96" class="st5" width="6" height="6"/>
	<rect x="57" y="96" class="st2" width="6" height="6"/>
	<rect x="63" y="96" class="st9" width="6" height="6"/>
	<rect x="69" y="96" class="st9" width="6" height="6"/>
	<rect x="75" y="96" class="st7" width="6" height="6"/>
	<rect x="81" y="96" class="st7" width="6" height="6"/>
	<rect x="87" y="96" class="st9" width="6" height="6"/>
	<rect x="93" y="96" class="st9" width="6" height="6"/>
	<rect x="99" y="96" class="st9" width="6" height="6"/>
	<rect x="105" y="96" class="st9" width="6" height="6"/>
	<rect x="111" y="96" class="st9" width="6" height="6"/>
	<rect x="117" y="96" class="st11" width="6" height="6"/>
	<rect x="123" y="96" class="st11" width="6" height="6"/>
	<rect x="129" y="96" class="st4" width="6" height="6"/>
	<rect x="135" y="96" class="st10" width="6" height="6"/>
	<rect x="141" y="96" class="st7" width="6" height="6"/>
	<rect x="147" y="96" class="st1" width="6" height="6"/>
	<rect x="153" y="96" class="st11" width="6" height="6"/>
	<rect x="159" y="96" class="st5" width="6" height="6"/>
	<rect x="165" y="96" class="st1" width="6" height="6"/>
	<rect x="171" y="96" class="st8" width="6" height="6"/>
	<rect x="177" y="96" class="st0" width="6" height="6"/>
	<rect x="21" y="102" class="st0" width="6" height="6"/>
	<rect x="27" y="102" class="st4" width="6" height="6"/>
	<rect x="33" y="102" class="st2" width="6" height="6"/>
	<rect x="39" y="102" class="st2" width="6" height="6"/>
	<rect x="45" y="102" class="st2" width="6" height="6"/>
	<rect x="51" y="102" class="st2" width="6" height="6"/>
	<rect x="57" y="102" class="st9" width="6" height="6"/>
	<rect x="63" y="102" class="st9" width="6" height="6"/>
	<rect x="69" y="102" class="st9" width="6" height="6"/>
	<rect x="75" y="102" class="st9" width="6" height="6"/>
	<rect x="81" y="102" class="st9" width="6" height="6"/>
	<rect x="87" y="102" class="st9" width="6" height="6"/>
	<rect x="93" y="102" class="st11" width="6" height="6"/>
	<rect x="99" y="102" class="st11" width="6" height="6"/>
	<rect x="105" y="102" class="st11" width="6" height="6"/>
	<rect x="111" y="102" class="st11" width="6" height="6"/>
	<rect x="117" y="102" class="st7" width="6" height="6"/>
	<rect x="123" y="102" class="st7" width="6" height="6"/>
	<rect x="129" y="102" class="st4" width="6" height="6"/>
	<rect x="135" y="102" class="st10" width="6" height="6"/>
	<rect x="141" y="102" class="st7" width="6" height="6"/>
	<rect x="147" y="102" class="st1" width="6" height="6"/>
	<rect x="153" y="102" class="st11" width="6" height="6"/>
	<rect x="159" y="102" class="st5" width="6" height="6"/>
	<rect x="165" y="102" class="st1" width="6" height="6"/>
	<rect x="171" y="102" class="st8" width="6" height="6"/>
	<rect x="177" y="102" class="st0" width="6" height="6"/>
	<rect x="21" y="108" class="st0" width="6" height="6"/>
	<rect x="27" y="108" class="st2" width="6" height="6"/>
	<rect x="33" y="108" class="st6" width="6" height="6"/>
	<rect x="39" y="108" class="st9" width="6" height="6"/>
	<rect x="45" y="108" class="st9" width="6" height="6"/>
	<rect x="51" y="108" class="st9" width="6" height="6"/>
	<rect x="57" y="108" class="st9" width="6" height="6"/>
	<rect x="63" y="108" class="st9" width="6" height="6"/>
	<rect x="69" y="108" class="st11" width="6" height="6"/>
	<rect x="75" y="108" class="st11" width="6" height="6"/>
	<rect x="81" y="108" class="st11" width="6" height="6"/>
	<rect x="87" y="108" class="st12" width="6" height="6"/>
	<rect x="93" y="108" class="st12" width="6" height="6"/>
	<rect x="99" y="108" class="st12" width="6" height="6"/>
	<rect x="105" y="108" class="st12" width="6" height="6"/>
	<rect x="111" y="108" class="st12" width="6" height="6"/>
	<rect x="117" y="108" class="st2" width="6" height="6"/>
	<rect x="123" y="108" class="st2" width="6" height="6"/>
	<rect x="129" y="108" class="st4" width="6" height="6"/>
	<rect x="135" y="108" class="st10" width="6" height="6"/>
	<rect x="141" y="108" class="st7" width="6" height="6"/>
	<rect x="147" y="108" class="st7" width="6" height="6"/>
	<rect x="153" y="108" class="st1" width="6" height="6"/>
	<rect x="159" y="108" class="st1" width="6" height="6"/>
	<rect x="165" y="108" class="st7" width="6" height="6"/>
	<rect x="171" y="108" class="st8" width="6" height="6"/>
	<rect x="177" y="108" class="st0" width="6" height="6"/>
	<rect x="15" y="114" class="st0" width="6" height="6"/>
	<rect x="21" y="114" class="st2" width="6" height="6"/>
	<rect x="27" y="114" class="st6" width="6" height="6"/>
	<rect x="33" y="114" class="st6" width="6" height="6"/>
	<rect x="39" y="114" class="st6" width="6" height="6"/>
	<rect x="45" y="114" class="st11" width="6" height="6"/>
	<rect x="51" y="114" class="st11" width="6" height="6"/>
	<rect x="57" y="114" class="st11" width="6" height="6"/>
	<rect x="63" y="114" class="st11" width="6" height="6"/>
	<rect x="69" y="114" class="st12" width="6" height="6"/>
	<rect x="75" y="114" class="st12" width="6" height="6"/>
	<rect x="81" y="114" class="st12" width="6" height="6"/>
	<rect x="87" y="114" class="st12" width="6" height="6"/>
	<rect x="93" y="114" class="st12" width="6" height="6"/>
	<rect x="99" y="114" class="st12" width="6" height="6"/>
	<rect x="105" y="114" class="st12" width="6" height="6"/>
	<rect x="111" y="114" class="st2" width="6" height="6"/>
	<rect x="117" y="114" class="st5" width="6" height="6"/>
	<rect x="123" y="114" class="st4" width="6" height="6"/>
	<rect x="129" y="114" class="st10" width="6" height="6"/>
	<rect x="135" y="114" class="st7" width="6" height="6"/>
	<rect x="141" y="114" class="st7" width="6" height="6"/>
	<rect x="147" y="114" class="st7" width="6" height="6"/>
	<rect x="153" y="114" class="st7" width="6" height="6"/>
	<rect x="159" y="114" class="st7" width="6" height="6"/>
	<rect x="165" y="114" class="st7" width="6" height="6"/>
	<rect x="171" y="114" class="st8" width="6" height="6"/>
	<rect x="177" y="114" class="st0" width="6" height="6"/>
	<rect x="9" y="120" class="st0" width="6" height="6"/>
	<rect x="15" y="120" class="st2" width="6" height="6"/>
	<rect x="21" y="120" class="st2" width="6" height="6"/>
	<rect x="27" y="120" class="st11" width="6" height="6"/>
	<rect x="33" y="120" class="st11" width="6" height="6"/>
	<rect x="39" y="120" class="st11" width="6" height="6"/>
	<rect x="45" y="120" class="st12" width="6" height="6"/>
	<rect x="51" y="120" class="st12" width="6" height="6"/>
	<rect x="57" y="120" class="st12" width="6" height="6"/>
	<rect x="63" y="120" class="st12" width="6" height="6"/>
	<rect x="69" y="120" class="st12" width="6" height="6"/>
	<rect x="75" y="120" class="st2" width="6" height="6"/>
	<rect x="81" y="120" class="st12" width="6" height="6"/>
	<rect x="87" y="120" class="st12" width="6" height="6"/>
	<rect x="93" y="120" class="st12" width="6" height="6"/>
	<rect x="99" y="120" class="st12" width="6" height="6"/>
	<rect x="105" y="120" class="st12" width="6" height="6"/>
	<rect x="111" y="120" class="st2" width="6" height="6"/>
	<rect x="117" y="120" class="st5" width="6" height="6"/>
	<rect x="123" y="120" class="st4" width="6" height="6"/>
	<rect x="129" y="120" class="st4" width="6" height="6"/>
	<rect x="135" y="120" class="st4" width="6" height="6"/>
	<rect x="141" y="120" class="st1" width="6" height="6"/>
	<rect x="147" y="120" class="st1" width="6" height="6"/>
	<rect x="153" y="120" class="st4" width="6" height="6"/>
	<rect x="159" y="120" class="st4" width="6" height="6"/>
	<rect x="165" y="120" class="st8" width="6" height="6"/>
	<rect x="171" y="120" class="st8" width="6" height="6"/>
	<rect x="177" y="120" class="st0" width="6" height="6"/>
	<rect x="9" y="126" class="st0" width="6" height="6"/>
	<rect x="15" y="126" class="st2" width="6" height="6"/>
	<rect x="21" y="126" class="st7" width="6" height="6"/>
	<rect x="27" y="126" class="st12" width="6" height="6"/>
	<rect x="33" y="126" class="st12" width="6" height="6"/>
	<rect x="39" y="126" class="st12" width="6" height="6"/>
	<rect x="45" y="126" class="st12" width="6" height="6"/>
	<rect x="51" y="126" class="st12" width="6" height="6"/>
	<rect x="57" y="126" class="st12" width="6" height="6"/>
	<rect x="63" y="126" class="st12" width="6" height="6"/>
	<rect x="69" y="126" class="st2" width="6" height="6"/>
	<rect x="75" y="126" class="st7" width="6" height="6"/>
	<rect x="81" y="126" class="st2" width="6" height="6"/>
	<rect x="87" y="126" class="st12" width="6" height="6"/>
	<rect x="93" y="126" class="st12" width="6" height="6"/>
	<rect x="99" y="126" class="st12" width="6" height="6"/>
	<rect x="105" y="126" class="st12" width="6" height="6"/>
	<rect x="111" y="126" class="st12" width="6" height="6"/>
	<rect x="117" y="126" class="st2" width="6" height="6"/>
	<rect x="123" y="126" class="st2" width="6" height="6"/>
	<rect x="129" y="126" class="st4" width="6" height="6"/>
	<rect x="135" y="126" class="st0" width="6" height="6"/>
	<rect x="141" y="126" class="st0" width="6" height="6"/>
	<rect x="147" y="126" class="st0" width="6" height="6"/>
	<rect x="153" y="126" class="st0" width="6" height="6"/>
	<rect x="159" y="126" class="st0" width="6" height="6"/>
	<rect x="165" y="126" class="st0" width="6" height="6"/>
	<rect x="171" y="126" class="st0" width="6" height="6"/>
	<rect x="9" y="132" class="st0" width="6" height="6"/>
	<rect x="15" y="132" class="st2" width="6" height="6"/>
	<rect x="21" y="132" class="st7" width="6" height="6"/>
	<rect x="27" y="132" class="st12" width="6" height="6"/>
	<rect x="33" y="132" class="st12" width="6" height="6"/>
	<rect x="39" y="132" class="st12" width="6" height="6"/>
	<rect x="45" y="132" class="st2" width="6" height="6"/>
	<rect x="51" y="132" class="st2" width="6" height="6"/>
	<rect x="57" y="132" class="st12" width="6" height="6"/>
	<rect x="63" y="132" class="st12" width="6" height="6"/>
	<rect x="69" y="132" class="st12" width="6" height="6"/>
	<rect x="75" y="132" class="st2" width="6" height="6"/>
	<rect x="81" y="132" class="st12" width="6" height="6"/>
	<rect x="87" y="132" class="st12" width="6" height="6"/>
	<rect x="93" y="132" class="st12" width="6" height="6"/>
	<rect x="99" y="132" class="st12" width="6" height="6"/>
	<rect x="105" y="132" class="st12" width="6" height="6"/>
	<rect x="111" y="132" class="st12" width="6" height="6"/>
	<rect x="117" y="132" class="st7" width="6" height="6"/>
	<rect x="123" y="132" class="st5" width="6" height="6"/>
	<rect x="129" y="132" class="st4" width="6" height="6"/>
	<rect x="135" y="132" class="st0" width="6" height="6"/>
	<rect x="9" y="138" class="st0" width="6" height="6"/>
	<rect x="15" y="138" class="st2" width="6" height="6"/>
	<rect x="21" y="138" class="st7" width="6" height="6"/>
	<rect x="27" y="138" class="st12" width="6" height="6"/>
	<rect x="33" y="138" class="st12" width="6" height="6"/>
	<rect x="39" y="138" class="st2" width="6" height="6"/>
	<rect x="45" y="138" class="st5" width="6" height="6"/>
	<rect x="51" y="138" class="st5" width="6" height="6"/>
	<rect x="57" y="138" class="st2" width="6" height="6"/>
	<rect x="63" y="138" class="st12" width="6" height="6"/>
	<rect x="69" y="138" class="st12" width="6" height="6"/>
	<rect x="75" y="138" class="st12" width="6" height="6"/>
	<rect x="81" y="138" class="st12" width="6" height="6"/>
	<rect x="87" y="138" class="st2" width="6" height="6"/>
	<rect x="93" y="138" class="st2" width="6" height="6"/>
	<rect x="99" y="138" class="st2" width="6" height="6"/>
	<rect x="105" y="138" class="st12" width="6" height="6"/>
	<rect x="111" y="138" class="st12" width="6" height="6"/>
	<rect x="117" y="138" class="st7" width="6" height="6"/>
	<rect x="123" y="138" class="st5" width="6" height="6"/>
	<rect x="129" y="138" class="st4" width="6" height="6"/>
	<rect x="135" y="138" class="st0" width="6" height="6"/>
	<rect x="9" y="144" class="st0" width="6" height="6"/>
	<rect x="15" y="144" class="st2" width="6" height="6"/>
	<rect x="21" y="144" class="st7" width="6" height="6"/>
	<rect x="27" y="144" class="st12" width="6" height="6"/>
	<rect x="33" y="144" class="st12" width="6" height="6"/>
	<rect x="39" y="144" class="st2" width="6" height="6"/>
	<rect x="45" y="144" class="st5" width="6" height="6"/>
	<rect x="51" y="144" class="st7" width="6" height="6"/>
	<rect x="57" y="144" class="st2" width="6" height="6"/>
	<rect x="63" y="144" class="st12" width="6" height="6"/>
	<rect x="69" y="144" class="st12" width="6" height="6"/>
	<rect x="75" y="144" class="st12" width="6" height="6"/>
	<rect x="81" y="144" class="st2" width="6" height="6"/>
	<rect x="87" y="144" class="st5" width="6" height="6"/>
	<rect x="93" y="144" class="st5" width="6" height="6"/>
	<rect x="99" y="144" class="st7" width="6" height="6"/>
	<rect x="105" y="144" class="st2" width="6" height="6"/>
	<rect x="111" y="144" class="st12" width="6" height="6"/>
	<rect x="117" y="144" class="st7" width="6" height="6"/>
	<rect x="123" y="144" class="st5" width="6" height="6"/>
	<rect x="129" y="144" class="st4" width="6" height="6"/>
	<rect x="135" y="144" class="st0" width="6" height="6"/>
	<rect x="9" y="150" class="st0" width="6" height="6"/>
	<rect x="15" y="150" class="st2" width="6" height="6"/>
	<rect x="21" y="150" class="st2" width="6" height="6"/>
	<rect x="27" y="150" class="st7" width="6" height="6"/>
	<rect x="33" y="150" class="st12" width="6" height="6"/>
	<rect x="39" y="150" class="st12" width="6" height="6"/>
	<rect x="45" y="150" class="st2" width="6" height="6"/>
	<rect x="51" y="150" class="st2" width="6" height="6"/>
	<rect x="57" y="150" class="st12" width="6" height="6"/>
	<rect x="63" y="150" class="st12" width="6" height="6"/>
	<rect x="69" y="150" class="st12" width="6" height="6"/>
	<rect x="75" y="150" class="st2" width="6" height="6"/>
	<rect x="81" y="150" class="st5" width="6" height="6"/>
	<rect x="87" y="150" class="st7" width="6" height="6"/>
	<rect x="93" y="150" class="st4" width="6" height="6"/>
	<rect x="99" y="150" class="st4" width="6" height="6"/>
	<rect x="105" y="150" class="st4" width="6" height="6"/>
	<rect x="111" y="150" class="st4" width="6" height="6"/>
	<rect x="117" y="150" class="st4" width="6" height="6"/>
	<rect x="123" y="150" class="st4" width="6" height="6"/>
	<rect x="129" y="150" class="st4" width="6" height="6"/>
	<rect x="135" y="150" class="st0" width="6" height="6"/>
	<rect x="9" y="156" class="st0" width="6" height="6"/>
	<rect x="15" y="156" class="st2" width="6" height="6"/>
	<rect x="21" y="156" class="st7" width="6" height="6"/>
	<rect x="27" y="156" class="st2" width="6" height="6"/>
	<rect x="33" y="156" class="st7" width="6" height="6"/>
	<rect x="39" y="156" class="st12" width="6" height="6"/>
	<rect x="45" y="156" class="st12" width="6" height="6"/>
	<rect x="51" y="156" class="st12" width="6" height="6"/>
	<rect x="57" y="156" class="st12" width="6" height="6"/>
	<rect x="63" y="156" class="st12" width="6" height="6"/>
	<rect x="69" y="156" class="st4" width="6" height="6"/>
	<rect x="75" y="156" class="st4" width="6" height="6"/>
	<rect x="81" y="156" class="st4" width="6" height="6"/>
	<rect x="87" y="156" class="st4" width="6" height="6"/>
	<rect x="93" y="156" class="st0" width="6" height="6"/>
	<rect x="99" y="156" class="st0" width="6" height="6"/>
	<rect x="105" y="156" class="st0" width="6" height="6"/>
	<rect x="111" y="156" class="st0" width="6" height="6"/>
	<rect x="117" y="156" class="st0" width="6" height="6"/>
	<rect x="123" y="156" class="st0" width="6" height="6"/>
	<rect x="129" y="156" class="st0" width="6" height="6"/>
	<rect x="9" y="162" class="st0" width="6" height="6"/>
	<rect x="15" y="162" class="st2" width="6" height="6"/>
	<rect x="21" y="162" class="st5" width="6" height="6"/>
	<rect x="27" y="162" class="st2" width="6" height="6"/>
	<rect x="33" y="162" class="st7" width="6" height="6"/>
	<rect x="39" y="162" class="st7" width="6" height="6"/>
	<rect x="45" y="162" class="st2" width="6" height="6"/>
	<rect x="51" y="162" class="st4" width="6" height="6"/>
	<rect x="57" y="162" class="st4" width="6" height="6"/>
	<rect x="63" y="162" class="st4" width="6" height="6"/>
	<rect x="69" y="162" class="st0" width="6" height="6"/>
	<rect x="75" y="162" class="st0" width="6" height="6"/>
	<rect x="81" y="162" class="st0" width="6" height="6"/>
	<rect x="87" y="162" class="st0" width="6" height="6"/>
	<rect x="9" y="168" class="st0" width="6" height="6"/>
	<rect x="15" y="168" class="st2" width="6" height="6"/>
	<rect x="21" y="168" class="st2" width="6" height="6"/>
	<rect x="27" y="168" class="st2" width="6" height="6"/>
	<rect x="33" y="168" class="st2" width="6" height="6"/>
	<rect x="39" y="168" class="st2" width="6" height="6"/>
	<rect x="45" y="168" class="st0" width="6" height="6"/>
	<rect x="51" y="168" class="st0" width="6" height="6"/>
	<rect x="57" y="168" class="st0" width="6" height="6"/>
	<rect x="63" y="168" class="st0" width="6" height="6"/>
	<rect x="15" y="174" class="st0" width="6" height="6"/>
	<rect x="21" y="174" class="st0" width="6" height="6"/>
	<rect x="27" y="174" class="st0" width="6" height="6"/>
	<rect x="33" y="174" class="st0" width="6" height="6"/>
	<rect x="39" y="174" class="st0" width="6" height="6"/>
</g>
</svg>
