<?xml version="1.0" encoding="UTF-8"?><svg id="Layer_1" xmlns="http://www.w3.org/2000/svg" viewBox="0 0 500 430"><defs><style>.cls-1,.cls-2{stroke:#914938;stroke-miterlimit:10;stroke-width:2px;}.cls-1,.cls-3{fill:#914938;}.cls-4{fill:#f4ebd4;font-family:Roboto-Bold, Roboto;font-size:20.36px;font-weight:700;}.cls-2{fill:none;}.cls-3{stroke-width:0px;}</style></defs><path class="cls-3" d="m364.75,122.37c-46.8,11.88-111.96,19.44-154.8,20.88-4.68,45-11.16,82.08-16.92,95.4,28.08-22.68,71.64-38.16,102.24-38.16,53.64,0,86.4,28.8,86.4,77.4,0,71.64-72.36,95.76-189.36,98.64-1.44-6.84-3.96-17.64-7.2-23.76,103.32-2.16,170.28-19.8,170.28-74.16,0-32.4-21.6-54.72-63.36-54.72-32.04,0-87.12,19.44-110.88,55.08l-25.2-11.88c11.52-12.96,23.4-64.44,28.8-123.48h-84.24v-25.2c15.12.36,59.4.36,86.4.36,1.44-20.52,2.16-43.56,2.16-65.16l38.16,3.6c-.72,6.12-5.04,7.2-11.52,7.92-.72,18-1.8,36.36-3.24,53.28,38.16-1.08,104.4-9.36,147.6-21.96l4.68,25.92Z"/><path class="cls-2" d="m118.71,103.63s108.49,8.98,195.46-11.69"/><path class="cls-2" d="m230.16,77.37s-4.29,92.75-14.64,132.88"/><path class="cls-2" d="m350.53,195.3s49.54,17.09,51.36,73.7-33.88,84.07-33.88,84.07"/><circle class="cls-1" cx="114.13" cy="75.08" r="16.1"/><text class="cls-4" transform="translate(108.29 82.38)"><tspan x="0" y="0">1</tspan></text><circle class="cls-1" cx="256.18" cy="69.57" r="16.1"/><text class="cls-4" transform="translate(250.34 76.87)"><tspan x="0" y="0">2</tspan></text><polygon class="cls-1" points="311.09 92.6 309.84 88.01 316.12 88.76 322.39 89.5 317.37 93.34 312.34 97.18 311.09 92.6"/><polygon class="cls-1" points="217.07 203.13 221.66 204.36 217.85 209.41 214.04 214.46 213.26 208.18 212.48 201.91 217.07 203.13"/><polygon class="cls-1" points="370.84 350.75 373.63 354.59 367.49 356.11 361.35 357.62 364.7 352.26 368.05 346.9 370.84 350.75"/></svg>