<?xml version="1.0" encoding="utf-8"?>
<!-- Generator: Adobe Illustrator 27.9.0, SVG Export Plug-In . SVG Version: 6.00 Build 0)  -->
<svg version="1.1" id="Layer_1" shape-rendering="crispEdges"
	 xmlns="http://www.w3.org/2000/svg" xmlns:xlink="http://www.w3.org/1999/xlink" x="0px" y="0px" viewBox="0 0 192 192"
	 style="enable-background:new 0 0 192 192;" xml:space="preserve">
<style type="text/css">
	.st0{fill:#5CABE1;}
	.st1{fill:#733C81;}
	.st2{fill:#3464A4;}
	.st3{fill:#B65638;}
	.st4{fill:#E6A974;}
	.st5{fill:#E2574A;}
	.st6{fill:#283C82;}
	.st7{fill:#C6E174;}
	.st8{fill:#1D8566;}
	.st9{fill:#35933B;}
	.st10{fill:#435BA3;}
	.st11{fill:#ECC98B;}
	.st12{fill:#8CCB6E;}
	.st13{fill:#548AB7;}
	.st14{fill:#E7A55D;}
	.st15{fill:#D26A71;}
	.st16{fill:#EDE5B7;}
	.st17{fill:#E4895D;}
</style>
<g>
	<rect x="79.3" y="19" class="st0" width="5.6" height="5.6"/>
	<rect x="107.1" y="19" class="st0" width="5.6" height="5.6"/>
	<rect x="73.8" y="24.6" class="st0" width="5.6" height="5.6"/>
	<rect x="79.3" y="24.6" class="st1" width="5.6" height="5.6"/>
	<rect x="84.9" y="24.6" class="st0" width="5.6" height="5.6"/>
	<rect x="90.4" y="24.6" class="st0" width="5.6" height="5.6"/>
	<rect x="96" y="24.6" class="st0" width="5.6" height="5.6"/>
	<rect x="101.6" y="24.6" class="st0" width="5.6" height="5.6"/>
	<rect x="107.1" y="24.6" class="st1" width="5.6" height="5.6"/>
	<rect x="112.7" y="24.6" class="st0" width="5.6" height="5.6"/>
	<rect x="73.8" y="30.1" class="st0" width="5.6" height="5.6"/>
	<rect x="79.3" y="30.1" class="st0" width="5.6" height="5.6"/>
	<rect x="84.9" y="30.1" class="st1" width="5.6" height="5.6"/>
	<rect x="90.4" y="30.1" class="st1" width="5.6" height="5.6"/>
	<rect x="96" y="30.1" class="st1" width="5.6" height="5.6"/>
	<rect x="101.6" y="30.1" class="st1" width="5.6" height="5.6"/>
	<rect x="107.1" y="30.1" class="st0" width="5.6" height="5.6"/>
	<rect x="112.7" y="30.1" class="st0" width="5.6" height="5.6"/>
	<rect x="62.7" y="35.7" class="st0" width="5.6" height="5.6"/>
	<rect x="68.2" y="35.7" class="st0" width="5.6" height="5.6"/>
	<rect x="73.8" y="35.7" class="st2" width="5.6" height="5.6"/>
	<rect x="79.3" y="35.7" class="st2" width="5.6" height="5.6"/>
	<rect x="84.9" y="35.7" class="st3" width="5.6" height="5.6"/>
	<rect x="90.4" y="35.7" class="st3" width="5.6" height="5.6"/>
	<rect x="96" y="35.7" class="st3" width="5.6" height="5.6"/>
	<rect x="101.6" y="35.7" class="st3" width="5.6" height="5.6"/>
	<rect x="107.1" y="35.7" class="st2" width="5.6" height="5.6"/>
	<rect x="112.7" y="35.7" class="st2" width="5.6" height="5.6"/>
	<rect x="118.2" y="35.7" class="st0" width="5.6" height="5.6"/>
	<rect x="123.8" y="35.7" class="st0" width="5.6" height="5.6"/>
	<rect x="57.1" y="41.2" class="st0" width="5.6" height="5.6"/>
	<rect x="62.7" y="41.2" class="st2" width="5.6" height="5.6"/>
	<rect x="68.2" y="41.2" class="st2" width="5.6" height="5.6"/>
	<rect x="73.8" y="41.2" class="st4" width="5.6" height="5.6"/>
	<rect x="79.3" y="41.2" class="st5" width="5.6" height="5.6"/>
	<rect x="84.9" y="41.2" class="st5" width="5.6" height="5.6"/>
	<rect x="90.4" y="41.2" class="st5" width="5.6" height="5.6"/>
	<rect x="96" y="41.2" class="st5" width="5.6" height="5.6"/>
	<rect x="101.6" y="41.2" class="st5" width="5.6" height="5.6"/>
	<rect x="107.1" y="41.2" class="st5" width="5.6" height="5.6"/>
	<rect x="112.7" y="41.2" class="st4" width="5.6" height="5.6"/>
	<rect x="118.2" y="41.2" class="st2" width="5.6" height="5.6"/>
	<rect x="123.8" y="41.2" class="st2" width="5.6" height="5.6"/>
	<rect x="129.3" y="41.2" class="st0" width="5.6" height="5.6"/>
	<rect x="51.6" y="46.8" class="st0" width="5.6" height="5.6"/>
	<rect x="57.1" y="46.8" class="st2" width="5.6" height="5.6"/>
	<rect x="62.7" y="46.8" class="st6" width="5.6" height="5.6"/>
	<rect x="68.2" y="46.8" class="st7" width="5.6" height="5.6"/>
	<rect x="73.8" y="46.8" class="st8" width="5.6" height="5.6"/>
	<rect x="79.3" y="46.8" class="st4" width="5.6" height="5.6"/>
	<rect x="84.9" y="46.8" class="st5" width="5.6" height="5.6"/>
	<rect x="90.4" y="46.8" class="st5" width="5.6" height="5.6"/>
	<rect x="96" y="46.8" class="st5" width="5.6" height="5.6"/>
	<rect x="101.6" y="46.8" class="st5" width="5.6" height="5.6"/>
	<rect x="107.1" y="46.8" class="st4" width="5.6" height="5.6"/>
	<rect x="112.7" y="46.8" class="st8" width="5.6" height="5.6"/>
	<rect x="118.2" y="46.8" class="st7" width="5.6" height="5.6"/>
	<rect x="123.8" y="46.8" class="st6" width="5.6" height="5.6"/>
	<rect x="129.3" y="46.8" class="st2" width="5.6" height="5.6"/>
	<rect x="134.9" y="46.8" class="st0" width="5.6" height="5.6"/>
	<rect x="51.6" y="52.3" class="st0" width="5.6" height="5.6"/>
	<rect x="57.1" y="52.3" class="st2" width="5.6" height="5.6"/>
	<rect x="62.7" y="52.3" class="st6" width="5.6" height="5.6"/>
	<rect x="68.2" y="52.3" class="st6" width="5.6" height="5.6"/>
	<rect x="73.8" y="52.3" class="st8" width="5.6" height="5.6"/>
	<rect x="79.3" y="52.3" class="st4" width="5.6" height="5.6"/>
	<rect x="84.9" y="52.3" class="st5" width="5.6" height="5.6"/>
	<rect x="90.4" y="52.3" class="st5" width="5.6" height="5.6"/>
	<rect x="96" y="52.3" class="st5" width="5.6" height="5.6"/>
	<rect x="101.6" y="52.3" class="st5" width="5.6" height="5.6"/>
	<rect x="107.1" y="52.3" class="st4" width="5.6" height="5.6"/>
	<rect x="112.7" y="52.3" class="st8" width="5.6" height="5.6"/>
	<rect x="118.2" y="52.3" class="st6" width="5.6" height="5.6"/>
	<rect x="123.8" y="52.3" class="st6" width="5.6" height="5.6"/>
	<rect x="129.3" y="52.3" class="st2" width="5.6" height="5.6"/>
	<rect x="134.9" y="52.3" class="st0" width="5.6" height="5.6"/>
	<rect x="57.1" y="57.9" class="st0" width="5.6" height="5.6"/>
	<rect x="62.7" y="57.9" class="st2" width="5.6" height="5.6"/>
	<rect x="68.2" y="57.9" class="st2" width="5.6" height="5.6"/>
	<rect x="73.8" y="57.9" class="st4" width="5.6" height="5.6"/>
	<rect x="79.3" y="57.9" class="st4" width="5.6" height="5.6"/>
	<rect x="84.9" y="57.9" class="st4" width="5.6" height="5.6"/>
	<rect x="90.4" y="57.9" class="st8" width="5.6" height="5.6"/>
	<rect x="96" y="57.9" class="st8" width="5.6" height="5.6"/>
	<rect x="101.6" y="57.9" class="st4" width="5.6" height="5.6"/>
	<rect x="107.1" y="57.9" class="st4" width="5.6" height="5.6"/>
	<rect x="112.7" y="57.9" class="st4" width="5.6" height="5.6"/>
	<rect x="118.2" y="57.9" class="st2" width="5.6" height="5.6"/>
	<rect x="123.8" y="57.9" class="st2" width="5.6" height="5.6"/>
	<rect x="129.3" y="57.9" class="st0" width="5.6" height="5.6"/>
	<rect x="51.6" y="63.4" class="st0" width="5.6" height="5.6"/>
	<rect x="57.1" y="63.4" class="st2" width="5.6" height="5.6"/>
	<rect x="62.7" y="63.4" class="st4" width="5.6" height="5.6"/>
	<rect x="68.2" y="63.4" class="st4" width="5.6" height="5.6"/>
	<rect x="73.8" y="63.4" class="st4" width="5.6" height="5.6"/>
	<rect x="79.3" y="63.4" class="st8" width="5.6" height="5.6"/>
	<rect x="84.9" y="63.4" class="st8" width="5.6" height="5.6"/>
	<rect x="90.4" y="63.4" class="st1" width="5.6" height="5.6"/>
	<rect x="96" y="63.4" class="st1" width="5.6" height="5.6"/>
	<rect x="101.6" y="63.4" class="st8" width="5.6" height="5.6"/>
	<rect x="107.1" y="63.4" class="st8" width="5.6" height="5.6"/>
	<rect x="112.7" y="63.4" class="st4" width="5.6" height="5.6"/>
	<rect x="118.2" y="63.4" class="st4" width="5.6" height="5.6"/>
	<rect x="123.8" y="63.4" class="st4" width="5.6" height="5.6"/>
	<rect x="129.3" y="63.4" class="st2" width="5.6" height="5.6"/>
	<rect x="134.9" y="63.4" class="st0" width="5.6" height="5.6"/>
	<rect x="57.1" y="69" class="st0" width="5.6" height="5.6"/>
	<rect x="62.7" y="69" class="st9" width="5.6" height="5.6"/>
	<rect x="68.2" y="69" class="st4" width="5.6" height="5.6"/>
	<rect x="73.8" y="69" class="st8" width="5.6" height="5.6"/>
	<rect x="79.3" y="69" class="st5" width="5.6" height="5.6"/>
	<rect x="84.9" y="69" class="st1" width="5.6" height="5.6"/>
	<rect x="90.4" y="69" class="st5" width="5.6" height="5.6"/>
	<rect x="96" y="69" class="st5" width="5.6" height="5.6"/>
	<rect x="101.6" y="69" class="st1" width="5.6" height="5.6"/>
	<rect x="107.1" y="69" class="st5" width="5.6" height="5.6"/>
	<rect x="112.7" y="69" class="st8" width="5.6" height="5.6"/>
	<rect x="118.2" y="69" class="st4" width="5.6" height="5.6"/>
	<rect x="123.8" y="69" class="st9" width="5.6" height="5.6"/>
	<rect x="129.3" y="69" class="st0" width="5.6" height="5.6"/>
	<rect x="51.6" y="74.5" class="st0" width="5.6" height="5.6"/>
	<rect x="57.1" y="74.5" class="st10" width="5.6" height="5.6"/>
	<rect x="62.7" y="74.5" class="st11" width="5.6" height="5.6"/>
	<rect x="68.2" y="74.5" class="st2" width="5.6" height="5.6"/>
	<rect x="73.8" y="74.5" class="st5" width="5.6" height="5.6"/>
	<rect x="79.3" y="74.5" class="st12" width="5.6" height="5.6"/>
	<rect x="84.9" y="74.5" class="st5" width="5.6" height="5.6"/>
	<rect x="90.4" y="74.5" class="st5" width="5.6" height="5.6"/>
	<rect x="96" y="74.5" class="st5" width="5.6" height="5.6"/>
	<rect x="101.6" y="74.5" class="st5" width="5.6" height="5.6"/>
	<rect x="107.1" y="74.5" class="st12" width="5.6" height="5.6"/>
	<rect x="112.7" y="74.5" class="st5" width="5.6" height="5.6"/>
	<rect x="118.2" y="74.5" class="st2" width="5.6" height="5.6"/>
	<rect x="123.8" y="74.5" class="st11" width="5.6" height="5.6"/>
	<rect x="129.3" y="74.5" class="st10" width="5.6" height="5.6"/>
	<rect x="134.9" y="74.5" class="st0" width="5.6" height="5.6"/>
	<rect x="51.6" y="80.1" class="st0" width="5.6" height="5.6"/>
	<rect x="57.1" y="80.1" class="st10" width="5.6" height="5.6"/>
	<rect x="62.7" y="80.1" class="st11" width="5.6" height="5.6"/>
	<rect x="68.2" y="80.1" class="st2" width="5.6" height="5.6"/>
	<rect x="73.8" y="80.1" class="st12" width="5.6" height="5.6"/>
	<rect x="79.3" y="80.1" class="st5" width="5.6" height="5.6"/>
	<rect x="84.9" y="80.1" class="st5" width="5.6" height="5.6"/>
	<rect x="90.4" y="80.1" class="st5" width="5.6" height="5.6"/>
	<rect x="96" y="80.1" class="st5" width="5.6" height="5.6"/>
	<rect x="101.6" y="80.1" class="st5" width="5.6" height="5.6"/>
	<rect x="107.1" y="80.1" class="st5" width="5.6" height="5.6"/>
	<rect x="112.7" y="80.1" class="st12" width="5.6" height="5.6"/>
	<rect x="118.2" y="80.1" class="st2" width="5.6" height="5.6"/>
	<rect x="123.8" y="80.1" class="st11" width="5.6" height="5.6"/>
	<rect x="129.3" y="80.1" class="st10" width="5.6" height="5.6"/>
	<rect x="134.9" y="80.1" class="st0" width="5.6" height="5.6"/>
	<rect x="46" y="85.6" class="st0" width="5.6" height="5.6"/>
	<rect x="51.6" y="85.6" class="st13" width="5.6" height="5.6"/>
	<rect x="57.1" y="85.6" class="st11" width="5.6" height="5.6"/>
	<rect x="62.7" y="85.6" class="st11" width="5.6" height="5.6"/>
	<rect x="68.2" y="85.6" class="st14" width="5.6" height="5.6"/>
	<rect x="73.8" y="85.6" class="st2" width="5.6" height="5.6"/>
	<rect x="79.3" y="85.6" class="st12" width="5.6" height="5.6"/>
	<rect x="84.9" y="85.6" class="st1" width="5.6" height="5.6"/>
	<rect x="90.4" y="85.6" class="st5" width="5.6" height="5.6"/>
	<rect x="96" y="85.6" class="st5" width="5.6" height="5.6"/>
	<rect x="101.6" y="85.6" class="st1" width="5.6" height="5.6"/>
	<rect x="107.1" y="85.6" class="st12" width="5.6" height="5.6"/>
	<rect x="112.7" y="85.6" class="st2" width="5.6" height="5.6"/>
	<rect x="118.2" y="85.6" class="st14" width="5.6" height="5.6"/>
	<rect x="123.8" y="85.6" class="st11" width="5.6" height="5.6"/>
	<rect x="129.3" y="85.6" class="st11" width="5.6" height="5.6"/>
	<rect x="134.9" y="85.6" class="st13" width="5.6" height="5.6"/>
	<rect x="140.4" y="85.6" class="st0" width="5.6" height="5.6"/>
	<rect x="46" y="91.2" class="st0" width="5.6" height="5.6"/>
	<rect x="51.6" y="91.2" class="st15" width="5.6" height="5.6"/>
	<rect x="57.1" y="91.2" class="st11" width="5.6" height="5.6"/>
	<rect x="62.7" y="91.2" class="st11" width="5.6" height="5.6"/>
	<rect x="68.2" y="91.2" class="st14" width="5.6" height="5.6"/>
	<rect x="73.8" y="91.2" class="st2" width="5.6" height="5.6"/>
	<rect x="79.3" y="91.2" class="st12" width="5.6" height="5.6"/>
	<rect x="84.9" y="91.2" class="st16" width="5.6" height="5.6"/>
	<rect x="90.4" y="91.2" class="st1" width="5.6" height="5.6"/>
	<rect x="96" y="91.2" class="st1" width="5.6" height="5.6"/>
	<rect x="101.6" y="91.2" class="st16" width="5.6" height="5.6"/>
	<rect x="107.1" y="91.2" class="st12" width="5.6" height="5.6"/>
	<rect x="112.7" y="91.2" class="st2" width="5.6" height="5.6"/>
	<rect x="118.2" y="91.2" class="st14" width="5.6" height="5.6"/>
	<rect x="123.8" y="91.2" class="st11" width="5.6" height="5.6"/>
	<rect x="129.3" y="91.2" class="st11" width="5.6" height="5.6"/>
	<rect x="134.9" y="91.2" class="st15" width="5.6" height="5.6"/>
	<rect x="140.4" y="91.2" class="st0" width="5.6" height="5.6"/>
	<rect x="46" y="96.7" class="st0" width="5.6" height="5.6"/>
	<rect x="51.6" y="96.7" class="st15" width="5.6" height="5.6"/>
	<rect x="57.1" y="96.7" class="st11" width="5.6" height="5.6"/>
	<rect x="62.7" y="96.7" class="st14" width="5.6" height="5.6"/>
	<rect x="68.2" y="96.7" class="st11" width="5.6" height="5.6"/>
	<rect x="73.8" y="96.7" class="st11" width="5.6" height="5.6"/>
	<rect x="79.3" y="96.7" class="st2" width="5.6" height="5.6"/>
	<rect x="84.9" y="96.7" class="st12" width="5.6" height="5.6"/>
	<rect x="90.4" y="96.7" class="st1" width="5.6" height="5.6"/>
	<rect x="96" y="96.7" class="st1" width="5.6" height="5.6"/>
	<rect x="101.6" y="96.7" class="st12" width="5.6" height="5.6"/>
	<rect x="107.1" y="96.7" class="st2" width="5.6" height="5.6"/>
	<rect x="112.7" y="96.7" class="st11" width="5.6" height="5.6"/>
	<rect x="118.2" y="96.7" class="st11" width="5.6" height="5.6"/>
	<rect x="123.8" y="96.7" class="st14" width="5.6" height="5.6"/>
	<rect x="129.3" y="96.7" class="st11" width="5.6" height="5.6"/>
	<rect x="134.9" y="96.7" class="st15" width="5.6" height="5.6"/>
	<rect x="140.4" y="96.7" class="st0" width="5.6" height="5.6"/>
	<rect x="46" y="102.3" class="st0" width="5.6" height="5.6"/>
	<rect x="51.6" y="102.3" class="st9" width="5.6" height="5.6"/>
	<rect x="57.1" y="102.3" class="st11" width="5.6" height="5.6"/>
	<rect x="62.7" y="102.3" class="st14" width="5.6" height="5.6"/>
	<rect x="68.2" y="102.3" class="st11" width="5.6" height="5.6"/>
	<rect x="73.8" y="102.3" class="st11" width="5.6" height="5.6"/>
	<rect x="79.3" y="102.3" class="st2" width="5.6" height="5.6"/>
	<rect x="84.9" y="102.3" class="st12" width="5.6" height="5.6"/>
	<rect x="90.4" y="102.3" class="st1" width="5.6" height="5.6"/>
	<rect x="96" y="102.3" class="st1" width="5.6" height="5.6"/>
	<rect x="101.6" y="102.3" class="st12" width="5.6" height="5.6"/>
	<rect x="107.1" y="102.3" class="st2" width="5.6" height="5.6"/>
	<rect x="112.7" y="102.3" class="st11" width="5.6" height="5.6"/>
	<rect x="118.2" y="102.3" class="st11" width="5.6" height="5.6"/>
	<rect x="123.8" y="102.3" class="st14" width="5.6" height="5.6"/>
	<rect x="129.3" y="102.3" class="st11" width="5.6" height="5.6"/>
	<rect x="134.9" y="102.3" class="st9" width="5.6" height="5.6"/>
	<rect x="140.4" y="102.3" class="st0" width="5.6" height="5.6"/>
	<rect x="40.5" y="107.8" class="st0" width="5.6" height="5.6"/>
	<rect x="46" y="107.8" class="st13" width="5.6" height="5.6"/>
	<rect x="51.6" y="107.8" class="st11" width="5.6" height="5.6"/>
	<rect x="57.1" y="107.8" class="st14" width="5.6" height="5.6"/>
	<rect x="62.7" y="107.8" class="st11" width="5.6" height="5.6"/>
	<rect x="68.2" y="107.8" class="st11" width="5.6" height="5.6"/>
	<rect x="73.8" y="107.8" class="st11" width="5.6" height="5.6"/>
	<rect x="79.3" y="107.8" class="st14" width="5.6" height="5.6"/>
	<rect x="84.9" y="107.8" class="st2" width="5.6" height="5.6"/>
	<rect x="90.4" y="107.8" class="st5" width="5.6" height="5.6"/>
	<rect x="96" y="107.8" class="st5" width="5.6" height="5.6"/>
	<rect x="101.6" y="107.8" class="st2" width="5.6" height="5.6"/>
	<rect x="107.1" y="107.8" class="st14" width="5.6" height="5.6"/>
	<rect x="112.7" y="107.8" class="st11" width="5.6" height="5.6"/>
	<rect x="118.2" y="107.8" class="st11" width="5.6" height="5.6"/>
	<rect x="123.8" y="107.8" class="st11" width="5.6" height="5.6"/>
	<rect x="129.3" y="107.8" class="st14" width="5.6" height="5.6"/>
	<rect x="134.9" y="107.8" class="st11" width="5.6" height="5.6"/>
	<rect x="140.4" y="107.8" class="st13" width="5.6" height="5.6"/>
	<rect x="146" y="107.8" class="st0" width="5.6" height="5.6"/>
	<rect x="40.5" y="113.4" class="st0" width="5.6" height="5.6"/>
	<rect x="46" y="113.4" class="st13" width="5.6" height="5.6"/>
	<rect x="51.6" y="113.4" class="st11" width="5.6" height="5.6"/>
	<rect x="57.1" y="113.4" class="st14" width="5.6" height="5.6"/>
	<rect x="62.7" y="113.4" class="st11" width="5.6" height="5.6"/>
	<rect x="68.2" y="113.4" class="st11" width="5.6" height="5.6"/>
	<rect x="73.8" y="113.4" class="st11" width="5.6" height="5.6"/>
	<rect x="79.3" y="113.4" class="st14" width="5.6" height="5.6"/>
	<rect x="84.9" y="113.4" class="st2" width="5.6" height="5.6"/>
	<rect x="90.4" y="113.4" class="st5" width="5.6" height="5.6"/>
	<rect x="96" y="113.4" class="st5" width="5.6" height="5.6"/>
	<rect x="101.6" y="113.4" class="st2" width="5.6" height="5.6"/>
	<rect x="107.1" y="113.4" class="st14" width="5.6" height="5.6"/>
	<rect x="112.7" y="113.4" class="st11" width="5.6" height="5.6"/>
	<rect x="118.2" y="113.4" class="st11" width="5.6" height="5.6"/>
	<rect x="123.8" y="113.4" class="st11" width="5.6" height="5.6"/>
	<rect x="129.3" y="113.4" class="st14" width="5.6" height="5.6"/>
	<rect x="134.9" y="113.4" class="st11" width="5.6" height="5.6"/>
	<rect x="140.4" y="113.4" class="st13" width="5.6" height="5.6"/>
	<rect x="146" y="113.4" class="st0" width="5.6" height="5.6"/>
	<rect x="40.5" y="118.9" class="st0" width="5.6" height="5.6"/>
	<rect x="46" y="118.9" class="st13" width="5.6" height="5.6"/>
	<rect x="51.6" y="118.9" class="st11" width="5.6" height="5.6"/>
	<rect x="57.1" y="118.9" class="st11" width="5.6" height="5.6"/>
	<rect x="62.7" y="118.9" class="st14" width="5.6" height="5.6"/>
	<rect x="68.2" y="118.9" class="st11" width="5.6" height="5.6"/>
	<rect x="73.8" y="118.9" class="st14" width="5.6" height="5.6"/>
	<rect x="79.3" y="118.9" class="st11" width="5.6" height="5.6"/>
	<rect x="84.9" y="118.9" class="st11" width="5.6" height="5.6"/>
	<rect x="90.4" y="118.9" class="st8" width="5.6" height="5.6"/>
	<rect x="96" y="118.9" class="st8" width="5.6" height="5.6"/>
	<rect x="101.6" y="118.9" class="st11" width="5.6" height="5.6"/>
	<rect x="107.1" y="118.9" class="st11" width="5.6" height="5.6"/>
	<rect x="112.7" y="118.9" class="st14" width="5.6" height="5.6"/>
	<rect x="118.2" y="118.9" class="st11" width="5.6" height="5.6"/>
	<rect x="123.8" y="118.9" class="st14" width="5.6" height="5.6"/>
	<rect x="129.3" y="118.9" class="st11" width="5.6" height="5.6"/>
	<rect x="134.9" y="118.9" class="st11" width="5.6" height="5.6"/>
	<rect x="140.4" y="118.9" class="st13" width="5.6" height="5.6"/>
	<rect x="146" y="118.9" class="st0" width="5.6" height="5.6"/>
	<rect x="40.5" y="124.5" class="st0" width="5.6" height="5.6"/>
	<rect x="46" y="124.5" class="st13" width="5.6" height="5.6"/>
	<rect x="51.6" y="124.5" class="st11" width="5.6" height="5.6"/>
	<rect x="57.1" y="124.5" class="st14" width="5.6" height="5.6"/>
	<rect x="62.7" y="124.5" class="st11" width="5.6" height="5.6"/>
	<rect x="68.2" y="124.5" class="st14" width="5.6" height="5.6"/>
	<rect x="73.8" y="124.5" class="st11" width="5.6" height="5.6"/>
	<rect x="79.3" y="124.5" class="st11" width="5.6" height="5.6"/>
	<rect x="84.9" y="124.5" class="st11" width="5.6" height="5.6"/>
	<rect x="90.4" y="124.5" class="st1" width="5.6" height="5.6"/>
	<rect x="96" y="124.5" class="st1" width="5.6" height="5.6"/>
	<rect x="101.6" y="124.5" class="st11" width="5.6" height="5.6"/>
	<rect x="107.1" y="124.5" class="st11" width="5.6" height="5.6"/>
	<rect x="112.7" y="124.5" class="st11" width="5.6" height="5.6"/>
	<rect x="118.2" y="124.5" class="st14" width="5.6" height="5.6"/>
	<rect x="123.8" y="124.5" class="st11" width="5.6" height="5.6"/>
	<rect x="129.3" y="124.5" class="st14" width="5.6" height="5.6"/>
	<rect x="134.9" y="124.5" class="st11" width="5.6" height="5.6"/>
	<rect x="140.4" y="124.5" class="st13" width="5.6" height="5.6"/>
	<rect x="146" y="124.5" class="st0" width="5.6" height="5.6"/>
	<rect x="40.5" y="130" class="st0" width="5.6" height="5.6"/>
	<rect x="46" y="130" class="st13" width="5.6" height="5.6"/>
	<rect x="51.6" y="130" class="st11" width="5.6" height="5.6"/>
	<rect x="57.1" y="130" class="st14" width="5.6" height="5.6"/>
	<rect x="62.7" y="130" class="st11" width="5.6" height="5.6"/>
	<rect x="68.2" y="130" class="st11" width="5.6" height="5.6"/>
	<rect x="73.8" y="130" class="st14" width="5.6" height="5.6"/>
	<rect x="79.3" y="130" class="st11" width="5.6" height="5.6"/>
	<rect x="84.9" y="130" class="st2" width="5.6" height="5.6"/>
	<rect x="90.4" y="130" class="st5" width="5.6" height="5.6"/>
	<rect x="96" y="130" class="st5" width="5.6" height="5.6"/>
	<rect x="101.6" y="130" class="st2" width="5.6" height="5.6"/>
	<rect x="107.1" y="130" class="st11" width="5.6" height="5.6"/>
	<rect x="112.7" y="130" class="st14" width="5.6" height="5.6"/>
	<rect x="118.2" y="130" class="st11" width="5.6" height="5.6"/>
	<rect x="123.8" y="130" class="st11" width="5.6" height="5.6"/>
	<rect x="129.3" y="130" class="st14" width="5.6" height="5.6"/>
	<rect x="134.9" y="130" class="st11" width="5.6" height="5.6"/>
	<rect x="140.4" y="130" class="st13" width="5.6" height="5.6"/>
	<rect x="146" y="130" class="st0" width="5.6" height="5.6"/>
	<rect x="46" y="135.6" class="st0" width="5.6" height="5.6"/>
	<rect x="51.6" y="135.6" class="st17" width="5.6" height="5.6"/>
	<rect x="57.1" y="135.6" class="st11" width="5.6" height="5.6"/>
	<rect x="62.7" y="135.6" class="st11" width="5.6" height="5.6"/>
	<rect x="68.2" y="135.6" class="st14" width="5.6" height="5.6"/>
	<rect x="73.8" y="135.6" class="st11" width="5.6" height="5.6"/>
	<rect x="79.3" y="135.6" class="st14" width="5.6" height="5.6"/>
	<rect x="84.9" y="135.6" class="st17" width="5.6" height="5.6"/>
	<rect x="90.4" y="135.6" class="st5" width="5.6" height="5.6"/>
	<rect x="96" y="135.6" class="st5" width="5.6" height="5.6"/>
	<rect x="101.6" y="135.6" class="st17" width="5.6" height="5.6"/>
	<rect x="107.1" y="135.6" class="st14" width="5.6" height="5.6"/>
	<rect x="112.7" y="135.6" class="st11" width="5.6" height="5.6"/>
	<rect x="118.2" y="135.6" class="st14" width="5.6" height="5.6"/>
	<rect x="123.8" y="135.6" class="st11" width="5.6" height="5.6"/>
	<rect x="129.3" y="135.6" class="st11" width="5.6" height="5.6"/>
	<rect x="134.9" y="135.6" class="st17" width="5.6" height="5.6"/>
	<rect x="140.4" y="135.6" class="st0" width="5.6" height="5.6"/>
	<rect x="46" y="141.1" class="st0" width="5.6" height="5.6"/>
	<rect x="51.6" y="141.1" class="st15" width="5.6" height="5.6"/>
	<rect x="57.1" y="141.1" class="st11" width="5.6" height="5.6"/>
	<rect x="62.7" y="141.1" class="st11" width="5.6" height="5.6"/>
	<rect x="68.2" y="141.1" class="st14" width="5.6" height="5.6"/>
	<rect x="73.8" y="141.1" class="st11" width="5.6" height="5.6"/>
	<rect x="79.3" y="141.1" class="st17" width="5.6" height="5.6"/>
	<rect x="84.9" y="141.1" class="st0" width="5.6" height="5.6"/>
	<rect x="90.4" y="141.1" class="st2" width="5.6" height="5.6"/>
	<rect x="96" y="141.1" class="st2" width="5.6" height="5.6"/>
	<rect x="101.6" y="141.1" class="st0" width="5.6" height="5.6"/>
	<rect x="107.1" y="141.1" class="st17" width="5.6" height="5.6"/>
	<rect x="112.7" y="141.1" class="st11" width="5.6" height="5.6"/>
	<rect x="118.2" y="141.1" class="st14" width="5.6" height="5.6"/>
	<rect x="123.8" y="141.1" class="st11" width="5.6" height="5.6"/>
	<rect x="129.3" y="141.1" class="st11" width="5.6" height="5.6"/>
	<rect x="134.9" y="141.1" class="st15" width="5.6" height="5.6"/>
	<rect x="140.4" y="141.1" class="st0" width="5.6" height="5.6"/>
	<rect x="46" y="146.7" class="st0" width="5.6" height="5.6"/>
	<rect x="51.6" y="146.7" class="st10" width="5.6" height="5.6"/>
	<rect x="57.1" y="146.7" class="st11" width="5.6" height="5.6"/>
	<rect x="62.7" y="146.7" class="st14" width="5.6" height="5.6"/>
	<rect x="68.2" y="146.7" class="st11" width="5.6" height="5.6"/>
	<rect x="73.8" y="146.7" class="st11" width="5.6" height="5.6"/>
	<rect x="79.3" y="146.7" class="st17" width="5.6" height="5.6"/>
	<rect x="84.9" y="146.7" class="st0" width="5.6" height="5.6"/>
	<rect x="90.4" y="146.7" class="st0" width="5.6" height="5.6"/>
	<rect x="96" y="146.7" class="st0" width="5.6" height="5.6"/>
	<rect x="101.6" y="146.7" class="st0" width="5.6" height="5.6"/>
	<rect x="107.1" y="146.7" class="st17" width="5.6" height="5.6"/>
	<rect x="112.7" y="146.7" class="st11" width="5.6" height="5.6"/>
	<rect x="118.2" y="146.7" class="st11" width="5.6" height="5.6"/>
	<rect x="123.8" y="146.7" class="st14" width="5.6" height="5.6"/>
	<rect x="129.3" y="146.7" class="st11" width="5.6" height="5.6"/>
	<rect x="134.9" y="146.7" class="st10" width="5.6" height="5.6"/>
	<rect x="140.4" y="146.7" class="st0" width="5.6" height="5.6"/>
	<rect x="46" y="152.2" class="st0" width="5.6" height="5.6"/>
	<rect x="51.6" y="152.2" class="st10" width="5.6" height="5.6"/>
	<rect x="57.1" y="152.2" class="st11" width="5.6" height="5.6"/>
	<rect x="62.7" y="152.2" class="st14" width="5.6" height="5.6"/>
	<rect x="68.2" y="152.2" class="st11" width="5.6" height="5.6"/>
	<rect x="73.8" y="152.2" class="st10" width="5.6" height="5.6"/>
	<rect x="79.3" y="152.2" class="st0" width="5.6" height="5.6"/>
	<rect x="107.1" y="152.2" class="st0" width="5.6" height="5.6"/>
	<rect x="112.7" y="152.2" class="st10" width="5.6" height="5.6"/>
	<rect x="118.2" y="152.2" class="st11" width="5.6" height="5.6"/>
	<rect x="123.8" y="152.2" class="st14" width="5.6" height="5.6"/>
	<rect x="129.3" y="152.2" class="st11" width="5.6" height="5.6"/>
	<rect x="134.9" y="152.2" class="st10" width="5.6" height="5.6"/>
	<rect x="140.4" y="152.2" class="st0" width="5.6" height="5.6"/>
	<rect x="51.6" y="157.8" class="st0" width="5.6" height="5.6"/>
	<rect x="57.1" y="157.8" class="st10" width="5.6" height="5.6"/>
	<rect x="62.7" y="157.8" class="st11" width="5.6" height="5.6"/>
	<rect x="68.2" y="157.8" class="st11" width="5.6" height="5.6"/>
	<rect x="73.8" y="157.8" class="st10" width="5.6" height="5.6"/>
	<rect x="79.3" y="157.8" class="st0" width="5.6" height="5.6"/>
	<rect x="107.1" y="157.8" class="st0" width="5.6" height="5.6"/>
	<rect x="112.7" y="157.8" class="st10" width="5.6" height="5.6"/>
	<rect x="118.2" y="157.8" class="st11" width="5.6" height="5.6"/>
	<rect x="123.8" y="157.8" class="st11" width="5.6" height="5.6"/>
	<rect x="129.3" y="157.8" class="st10" width="5.6" height="5.6"/>
	<rect x="134.9" y="157.8" class="st0" width="5.6" height="5.6"/>
	<rect x="51.6" y="163.3" class="st0" width="5.6" height="5.6"/>
	<rect x="57.1" y="163.3" class="st10" width="5.6" height="5.6"/>
	<rect x="62.7" y="163.3" class="st11" width="5.6" height="5.6"/>
	<rect x="68.2" y="163.3" class="st10" width="5.6" height="5.6"/>
	<rect x="73.8" y="163.3" class="st0" width="5.6" height="5.6"/>
	<rect x="112.7" y="163.3" class="st0" width="5.6" height="5.6"/>
	<rect x="118.2" y="163.3" class="st10" width="5.6" height="5.6"/>
	<rect x="123.8" y="163.3" class="st11" width="5.6" height="5.6"/>
	<rect x="129.3" y="163.3" class="st10" width="5.6" height="5.6"/>
	<rect x="134.9" y="163.3" class="st0" width="5.6" height="5.6"/>
	<rect x="57.1" y="168.9" class="st0" width="5.6" height="5.6"/>
	<rect x="62.7" y="168.9" class="st10" width="5.6" height="5.6"/>
	<rect x="68.2" y="168.9" class="st0" width="5.6" height="5.6"/>
	<rect x="118.2" y="168.9" class="st0" width="5.6" height="5.6"/>
	<rect x="123.8" y="168.9" class="st10" width="5.6" height="5.6"/>
	<rect x="129.3" y="168.9" class="st0" width="5.6" height="5.6"/>
	<rect x="62.7" y="174.4" class="st0" width="5.6" height="5.6"/>
	<rect x="123.8" y="174.4" class="st0" width="5.6" height="5.6"/>
</g>
</svg>
