<?xml version="1.0" encoding="utf-8"?>
<!-- Generator: Adobe Illustrator 27.9.0, SVG Export Plug-In . SVG Version: 6.00 Build 0)  -->
<svg version="1.1" id="Layer_1" shape-rendering="crispEdges"
	 xmlns="http://www.w3.org/2000/svg" xmlns:xlink="http://www.w3.org/1999/xlink" x="0px" y="0px" viewBox="0 0 192 192"
	 style="enable-background:new 0 0 192 192;" xml:space="preserve">
<style type="text/css">
	.st0{fill:#50B06E;}
	.st1{fill:#388A84;}
	.st2{fill:#1F6C66;}
	.st3{fill:#80C74C;}
	.st4{fill:#309669;}
	.st5{fill:#C7E391;}
	.st6{fill:#84C256;}
	.st7{fill:#48588D;}
	.st8{fill:#D5D06E;}
	.st9{fill:#EDE5B7;}
	.st10{fill:#2FA456;}
	.st11{fill:#D3D15C;}
	.st12{fill:#E4895D;}
	.st13{fill:#8ACC8D;}
	.st14{fill:#79B64C;}
	.st15{fill:#934D52;}
	.st16{fill:#EB97A7;}
	.st17{fill:#F1B5AE;}
	.st18{fill:#25756F;}
	.st19{fill:#E7A55D;}
	.st20{fill:#CD694F;}
	.st21{fill:#B3534E;}
	.st22{fill:#B9E7CA;}
	.st23{fill:#2CA265;}
	.st24{fill:#75733E;}
	.st25{fill:#E17557;}
	.st26{fill:#8ACC59;}
	.st27{fill:#ABCC5C;}
	.st28{fill:#137558;}
	.st29{fill:#58AF89;}
	.st30{fill:#1D8566;}
	.st31{fill:#2D7D77;}
	.st32{fill:#548AB7;}
	.st33{fill:#E6C874;}
	.st34{fill:#27756F;}
	.st35{fill:#B2718B;}
</style>
<g>
	<rect x="78" y="14" class="st0" width="6" height="6"/>
	<rect x="84" y="14" class="st0" width="6" height="6"/>
	<rect x="90" y="14" class="st0" width="6" height="6"/>
	<rect x="96" y="14" class="st0" width="6" height="6"/>
	<rect x="102" y="14" class="st0" width="6" height="6"/>
	<rect x="108" y="14" class="st0" width="6" height="6"/>
	<rect x="66" y="20" class="st0" width="6" height="6"/>
	<rect x="72" y="20" class="st0" width="6" height="6"/>
	<rect x="78" y="20" class="st1" width="6" height="6"/>
	<rect x="84" y="20" class="st1" width="6" height="6"/>
	<rect x="90" y="20" class="st1" width="6" height="6"/>
	<rect x="96" y="20" class="st1" width="6" height="6"/>
	<rect x="102" y="20" class="st1" width="6" height="6"/>
	<rect x="108" y="20" class="st2" width="6" height="6"/>
	<rect x="114" y="20" class="st0" width="6" height="6"/>
	<rect x="120" y="20" class="st0" width="6" height="6"/>
	<rect x="126" y="20" class="st0" width="6" height="6"/>
	<rect x="60" y="26" class="st0" width="6" height="6"/>
	<rect x="66" y="26" class="st1" width="6" height="6"/>
	<rect x="72" y="26" class="st2" width="6" height="6"/>
	<rect x="78" y="26" class="st3" width="6" height="6"/>
	<rect x="84" y="26" class="st3" width="6" height="6"/>
	<rect x="90" y="26" class="st3" width="6" height="6"/>
	<rect x="96" y="26" class="st3" width="6" height="6"/>
	<rect x="102" y="26" class="st3" width="6" height="6"/>
	<rect x="108" y="26" class="st3" width="6" height="6"/>
	<rect x="114" y="26" class="st4" width="6" height="6"/>
	<rect x="120" y="26" class="st4" width="6" height="6"/>
	<rect x="126" y="26" class="st1" width="6" height="6"/>
	<rect x="132" y="26" class="st0" width="6" height="6"/>
	<rect x="138" y="26" class="st0" width="6" height="6"/>
	<rect x="144" y="26" class="st0" width="6" height="6"/>
	<rect x="54" y="32" class="st0" width="6" height="6"/>
	<rect x="60" y="32" class="st1" width="6" height="6"/>
	<rect x="66" y="32" class="st3" width="6" height="6"/>
	<rect x="72" y="32" class="st3" width="6" height="6"/>
	<rect x="78" y="32" class="st3" width="6" height="6"/>
	<rect x="84" y="32" class="st5" width="6" height="6"/>
	<rect x="90" y="32" class="st5" width="6" height="6"/>
	<rect x="96" y="32" class="st3" width="6" height="6"/>
	<rect x="102" y="32" class="st3" width="6" height="6"/>
	<rect x="108" y="32" class="st3" width="6" height="6"/>
	<rect x="114" y="32" class="st3" width="6" height="6"/>
	<rect x="120" y="32" class="st3" width="6" height="6"/>
	<rect x="126" y="32" class="st3" width="6" height="6"/>
	<rect x="132" y="32" class="st4" width="6" height="6"/>
	<rect x="138" y="32" class="st1" width="6" height="6"/>
	<rect x="144" y="32" class="st1" width="6" height="6"/>
	<rect x="150" y="32" class="st0" width="6" height="6"/>
	<rect x="156" y="32" class="st0" width="6" height="6"/>
	<rect x="162" y="32" class="st0" width="6" height="6"/>
	<rect x="54" y="38" class="st0" width="6" height="6"/>
	<rect x="60" y="38" class="st2" width="6" height="6"/>
	<rect x="66" y="38" class="st3" width="6" height="6"/>
	<rect x="72" y="38" class="st6" width="6" height="6"/>
	<rect x="78" y="38" class="st6" width="6" height="6"/>
	<rect x="84" y="38" class="st7" width="6" height="6"/>
	<rect x="90" y="38" class="st7" width="6" height="6"/>
	<rect x="96" y="38" class="st7" width="6" height="6"/>
	<rect x="102" y="38" class="st6" width="6" height="6"/>
	<rect x="108" y="38" class="st3" width="6" height="6"/>
	<rect x="114" y="38" class="st3" width="6" height="6"/>
	<rect x="120" y="38" class="st3" width="6" height="6"/>
	<rect x="126" y="38" class="st3" width="6" height="6"/>
	<rect x="132" y="38" class="st3" width="6" height="6"/>
	<rect x="138" y="38" class="st3" width="6" height="6"/>
	<rect x="144" y="38" class="st3" width="6" height="6"/>
	<rect x="150" y="38" class="st1" width="6" height="6"/>
	<rect x="156" y="38" class="st1" width="6" height="6"/>
	<rect x="162" y="38" class="st1" width="6" height="6"/>
	<rect x="168" y="38" class="st0" width="6" height="6"/>
	<rect x="48" y="44" class="st0" width="6" height="6"/>
	<rect x="54" y="44" class="st1" width="6" height="6"/>
	<rect x="60" y="44" class="st3" width="6" height="6"/>
	<rect x="66" y="44" class="st3" width="6" height="6"/>
	<rect x="72" y="44" class="st0" width="6" height="6"/>
	<rect x="78" y="44" class="st8" width="6" height="6"/>
	<rect x="84" y="44" class="st7" width="6" height="6"/>
	<rect x="90" y="44" class="st7" width="6" height="6"/>
	<rect x="96" y="44" class="st9" width="6" height="6"/>
	<rect x="102" y="44" class="st6" width="6" height="6"/>
	<rect x="108" y="44" class="st3" width="6" height="6"/>
	<rect x="114" y="44" class="st3" width="6" height="6"/>
	<rect x="120" y="44" class="st3" width="6" height="6"/>
	<rect x="126" y="44" class="st6" width="6" height="6"/>
	<rect x="132" y="44" class="st10" width="6" height="6"/>
	<rect x="138" y="44" class="st6" width="6" height="6"/>
	<rect x="144" y="44" class="st10" width="6" height="6"/>
	<rect x="150" y="44" class="st6" width="6" height="6"/>
	<rect x="156" y="44" class="st6" width="6" height="6"/>
	<rect x="162" y="44" class="st10" width="6" height="6"/>
	<rect x="168" y="44" class="st1" width="6" height="6"/>
	<rect x="174" y="44" class="st0" width="6" height="6"/>
	<rect x="48" y="50" class="st0" width="6" height="6"/>
	<rect x="54" y="50" class="st11" width="6" height="6"/>
	<rect x="60" y="50" class="st3" width="6" height="6"/>
	<rect x="66" y="50" class="st3" width="6" height="6"/>
	<rect x="72" y="50" class="st12" width="6" height="6"/>
	<rect x="78" y="50" class="st8" width="6" height="6"/>
	<rect x="84" y="50" class="st8" width="6" height="6"/>
	<rect x="90" y="50" class="st8" width="6" height="6"/>
	<rect x="96" y="50" class="st13" width="6" height="6"/>
	<rect x="102" y="50" class="st6" width="6" height="6"/>
	<rect x="108" y="50" class="st3" width="6" height="6"/>
	<rect x="114" y="50" class="st3" width="6" height="6"/>
	<rect x="120" y="50" class="st3" width="6" height="6"/>
	<rect x="126" y="50" class="st0" width="6" height="6"/>
	<rect x="132" y="50" class="st14" width="6" height="6"/>
	<rect x="138" y="50" class="st11" width="6" height="6"/>
	<rect x="144" y="50" class="st14" width="6" height="6"/>
	<rect x="150" y="50" class="st4" width="6" height="6"/>
	<rect x="156" y="50" class="st11" width="6" height="6"/>
	<rect x="162" y="50" class="st1" width="6" height="6"/>
	<rect x="168" y="50" class="st1" width="6" height="6"/>
	<rect x="174" y="50" class="st0" width="6" height="6"/>
	<rect x="48" y="56" class="st0" width="6" height="6"/>
	<rect x="54" y="56" class="st1" width="6" height="6"/>
	<rect x="60" y="56" class="st3" width="6" height="6"/>
	<rect x="66" y="56" class="st3" width="6" height="6"/>
	<rect x="72" y="56" class="st12" width="6" height="6"/>
	<rect x="78" y="56" class="st15" width="6" height="6"/>
	<rect x="84" y="56" class="st16" width="6" height="6"/>
	<rect x="90" y="56" class="st17" width="6" height="6"/>
	<rect x="96" y="56" class="st0" width="6" height="6"/>
	<rect x="102" y="56" class="st3" width="6" height="6"/>
	<rect x="108" y="56" class="st3" width="6" height="6"/>
	<rect x="114" y="56" class="st3" width="6" height="6"/>
	<rect x="120" y="56" class="st3" width="6" height="6"/>
	<rect x="126" y="56" class="st0" width="6" height="6"/>
	<rect x="132" y="56" class="st4" width="6" height="6"/>
	<rect x="138" y="56" class="st0" width="6" height="6"/>
	<rect x="144" y="56" class="st4" width="6" height="6"/>
	<rect x="150" y="56" class="st4" width="6" height="6"/>
	<rect x="156" y="56" class="st1" width="6" height="6"/>
	<rect x="162" y="56" class="st1" width="6" height="6"/>
	<rect x="168" y="56" class="st18" width="6" height="6"/>
	<rect x="174" y="56" class="st0" width="6" height="6"/>
	<rect x="48" y="62" class="st0" width="6" height="6"/>
	<rect x="54" y="62" class="st1" width="6" height="6"/>
	<rect x="60" y="62" class="st3" width="6" height="6"/>
	<rect x="66" y="62" class="st3" width="6" height="6"/>
	<rect x="72" y="62" class="st19" width="6" height="6"/>
	<rect x="78" y="62" class="st20" width="6" height="6"/>
	<rect x="84" y="62" class="st21" width="6" height="6"/>
	<rect x="90" y="62" class="st21" width="6" height="6"/>
	<rect x="96" y="62" class="st15" width="6" height="6"/>
	<rect x="102" y="62" class="st15" width="6" height="6"/>
	<rect x="108" y="62" class="st15" width="6" height="6"/>
	<rect x="114" y="62" class="st15" width="6" height="6"/>
	<rect x="120" y="62" class="st15" width="6" height="6"/>
	<rect x="126" y="62" class="st22" width="6" height="6"/>
	<rect x="132" y="62" class="st22" width="6" height="6"/>
	<rect x="138" y="62" class="st2" width="6" height="6"/>
	<rect x="144" y="62" class="st2" width="6" height="6"/>
	<rect x="150" y="62" class="st2" width="6" height="6"/>
	<rect x="156" y="62" class="st2" width="6" height="6"/>
	<rect x="162" y="62" class="st22" width="6" height="6"/>
	<rect x="168" y="62" class="st22" width="6" height="6"/>
	<rect x="174" y="62" class="st0" width="6" height="6"/>
	<rect x="48" y="68" class="st0" width="6" height="6"/>
	<rect x="54" y="68" class="st2" width="6" height="6"/>
	<rect x="60" y="68" class="st3" width="6" height="6"/>
	<rect x="66" y="68" class="st3" width="6" height="6"/>
	<rect x="72" y="68" class="st23" width="6" height="6"/>
	<rect x="78" y="68" class="st12" width="6" height="6"/>
	<rect x="84" y="68" class="st12" width="6" height="6"/>
	<rect x="90" y="68" class="st20" width="6" height="6"/>
	<rect x="96" y="68" class="st20" width="6" height="6"/>
	<rect x="102" y="68" class="st20" width="6" height="6"/>
	<rect x="108" y="68" class="st20" width="6" height="6"/>
	<rect x="114" y="68" class="st21" width="6" height="6"/>
	<rect x="120" y="68" class="st21" width="6" height="6"/>
	<rect x="126" y="68" class="st15" width="6" height="6"/>
	<rect x="132" y="68" class="st24" width="6" height="6"/>
	<rect x="138" y="68" class="st0" width="6" height="6"/>
	<rect x="144" y="68" class="st0" width="6" height="6"/>
	<rect x="150" y="68" class="st0" width="6" height="6"/>
	<rect x="156" y="68" class="st0" width="6" height="6"/>
	<rect x="162" y="68" class="st0" width="6" height="6"/>
	<rect x="168" y="68" class="st0" width="6" height="6"/>
	<rect x="48" y="74" class="st0" width="6" height="6"/>
	<rect x="54" y="74" class="st0" width="6" height="6"/>
	<rect x="60" y="74" class="st11" width="6" height="6"/>
	<rect x="66" y="74" class="st3" width="6" height="6"/>
	<rect x="72" y="74" class="st23" width="6" height="6"/>
	<rect x="78" y="74" class="st23" width="6" height="6"/>
	<rect x="84" y="74" class="st19" width="6" height="6"/>
	<rect x="90" y="74" class="st12" width="6" height="6"/>
	<rect x="96" y="74" class="st19" width="6" height="6"/>
	<rect x="102" y="74" class="st20" width="6" height="6"/>
	<rect x="108" y="74" class="st19" width="6" height="6"/>
	<rect x="114" y="74" class="st25" width="6" height="6"/>
	<rect x="120" y="74" class="st25" width="6" height="6"/>
	<rect x="126" y="74" class="st25" width="6" height="6"/>
	<rect x="132" y="74" class="st24" width="6" height="6"/>
	<rect x="138" y="74" class="st0" width="6" height="6"/>
	<rect x="42" y="80" class="st0" width="6" height="6"/>
	<rect x="48" y="80" class="st11" width="6" height="6"/>
	<rect x="54" y="80" class="st1" width="6" height="6"/>
	<rect x="60" y="80" class="st2" width="6" height="6"/>
	<rect x="66" y="80" class="st3" width="6" height="6"/>
	<rect x="72" y="80" class="st23" width="6" height="6"/>
	<rect x="78" y="80" class="st23" width="6" height="6"/>
	<rect x="84" y="80" class="st0" width="6" height="6"/>
	<rect x="90" y="80" class="st0" width="6" height="6"/>
	<rect x="96" y="80" class="st26" width="6" height="6"/>
	<rect x="102" y="80" class="st26" width="6" height="6"/>
	<rect x="108" y="80" class="st26" width="6" height="6"/>
	<rect x="114" y="80" class="st0" width="6" height="6"/>
	<rect x="120" y="80" class="st19" width="6" height="6"/>
	<rect x="126" y="80" class="st25" width="6" height="6"/>
	<rect x="132" y="80" class="st25" width="6" height="6"/>
	<rect x="138" y="80" class="st25" width="6" height="6"/>
	<rect x="144" y="80" class="st0" width="6" height="6"/>
	<rect x="150" y="80" class="st0" width="6" height="6"/>
	<rect x="156" y="80" class="st0" width="6" height="6"/>
	<rect x="36" y="86" class="st0" width="6" height="6"/>
	<rect x="42" y="86" class="st0" width="6" height="6"/>
	<rect x="48" y="86" class="st1" width="6" height="6"/>
	<rect x="54" y="86" class="st27" width="6" height="6"/>
	<rect x="60" y="86" class="st23" width="6" height="6"/>
	<rect x="66" y="86" class="st3" width="6" height="6"/>
	<rect x="72" y="86" class="st3" width="6" height="6"/>
	<rect x="78" y="86" class="st28" width="6" height="6"/>
	<rect x="84" y="86" class="st23" width="6" height="6"/>
	<rect x="90" y="86" class="st23" width="6" height="6"/>
	<rect x="96" y="86" class="st23" width="6" height="6"/>
	<rect x="102" y="86" class="st23" width="6" height="6"/>
	<rect x="108" y="86" class="st23" width="6" height="6"/>
	<rect x="114" y="86" class="st26" width="6" height="6"/>
	<rect x="120" y="86" class="st26" width="6" height="6"/>
	<rect x="126" y="86" class="st0" width="6" height="6"/>
	<rect x="132" y="86" class="st22" width="6" height="6"/>
	<rect x="138" y="86" class="st22" width="6" height="6"/>
	<rect x="144" y="86" class="st19" width="6" height="6"/>
	<rect x="150" y="86" class="st25" width="6" height="6"/>
	<rect x="156" y="86" class="st22" width="6" height="6"/>
	<rect x="162" y="86" class="st0" width="6" height="6"/>
	<rect x="30" y="92" class="st0" width="6" height="6"/>
	<rect x="36" y="92" class="st11" width="6" height="6"/>
	<rect x="42" y="92" class="st1" width="6" height="6"/>
	<rect x="48" y="92" class="st2" width="6" height="6"/>
	<rect x="54" y="92" class="st29" width="6" height="6"/>
	<rect x="60" y="92" class="st3" width="6" height="6"/>
	<rect x="66" y="92" class="st3" width="6" height="6"/>
	<rect x="72" y="92" class="st3" width="6" height="6"/>
	<rect x="78" y="92" class="st3" width="6" height="6"/>
	<rect x="84" y="92" class="st28" width="6" height="6"/>
	<rect x="90" y="92" class="st23" width="6" height="6"/>
	<rect x="96" y="92" class="st23" width="6" height="6"/>
	<rect x="102" y="92" class="st23" width="6" height="6"/>
	<rect x="108" y="92" class="st23" width="6" height="6"/>
	<rect x="114" y="92" class="st23" width="6" height="6"/>
	<rect x="120" y="92" class="st23" width="6" height="6"/>
	<rect x="126" y="92" class="st30" width="6" height="6"/>
	<rect x="132" y="92" class="st31" width="6" height="6"/>
	<rect x="138" y="92" class="st31" width="6" height="6"/>
	<rect x="144" y="92" class="st31" width="6" height="6"/>
	<rect x="150" y="92" class="st31" width="6" height="6"/>
	<rect x="156" y="92" class="st31" width="6" height="6"/>
	<rect x="162" y="92" class="st0" width="6" height="6"/>
	<rect x="24" y="98" class="st0" width="6" height="6"/>
	<rect x="30" y="98" class="st0" width="6" height="6"/>
	<rect x="36" y="98" class="st1" width="6" height="6"/>
	<rect x="42" y="98" class="st27" width="6" height="6"/>
	<rect x="48" y="98" class="st23" width="6" height="6"/>
	<rect x="54" y="98" class="st3" width="6" height="6"/>
	<rect x="60" y="98" class="st3" width="6" height="6"/>
	<rect x="66" y="98" class="st3" width="6" height="6"/>
	<rect x="72" y="98" class="st3" width="6" height="6"/>
	<rect x="78" y="98" class="st3" width="6" height="6"/>
	<rect x="84" y="98" class="st32" width="6" height="6"/>
	<rect x="90" y="98" class="st28" width="6" height="6"/>
	<rect x="96" y="98" class="st28" width="6" height="6"/>
	<rect x="102" y="98" class="st28" width="6" height="6"/>
	<rect x="108" y="98" class="st28" width="6" height="6"/>
	<rect x="114" y="98" class="st28" width="6" height="6"/>
	<rect x="120" y="98" class="st28" width="6" height="6"/>
	<rect x="126" y="98" class="st31" width="6" height="6"/>
	<rect x="132" y="98" class="st0" width="6" height="6"/>
	<rect x="138" y="98" class="st0" width="6" height="6"/>
	<rect x="144" y="98" class="st0" width="6" height="6"/>
	<rect x="150" y="98" class="st0" width="6" height="6"/>
	<rect x="156" y="98" class="st0" width="6" height="6"/>
	<rect x="18" y="104" class="st0" width="6" height="6"/>
	<rect x="24" y="104" class="st11" width="6" height="6"/>
	<rect x="30" y="104" class="st1" width="6" height="6"/>
	<rect x="36" y="104" class="st2" width="6" height="6"/>
	<rect x="42" y="104" class="st29" width="6" height="6"/>
	<rect x="48" y="104" class="st3" width="6" height="6"/>
	<rect x="54" y="104" class="st3" width="6" height="6"/>
	<rect x="60" y="104" class="st3" width="6" height="6"/>
	<rect x="66" y="104" class="st3" width="6" height="6"/>
	<rect x="72" y="104" class="st3" width="6" height="6"/>
	<rect x="78" y="104" class="st3" width="6" height="6"/>
	<rect x="84" y="104" class="st1" width="6" height="6"/>
	<rect x="90" y="104" class="st12" width="6" height="6"/>
	<rect x="96" y="104" class="st12" width="6" height="6"/>
	<rect x="102" y="104" class="st12" width="6" height="6"/>
	<rect x="108" y="104" class="st12" width="6" height="6"/>
	<rect x="114" y="104" class="st12" width="6" height="6"/>
	<rect x="120" y="104" class="st32" width="6" height="6"/>
	<rect x="126" y="104" class="st1" width="6" height="6"/>
	<rect x="132" y="104" class="st0" width="6" height="6"/>
	<rect y="110" class="st0" width="6" height="6"/>
	<rect x="6" y="110" class="st0" width="6" height="6"/>
	<rect x="12" y="110" class="st0" width="6" height="6"/>
	<rect x="18" y="110" class="st0" width="6" height="6"/>
	<rect x="24" y="110" class="st1" width="6" height="6"/>
	<rect x="30" y="110" class="st27" width="6" height="6"/>
	<rect x="36" y="110" class="st23" width="6" height="6"/>
	<rect x="42" y="110" class="st3" width="6" height="6"/>
	<rect x="48" y="110" class="st3" width="6" height="6"/>
	<rect x="54" y="110" class="st23" width="6" height="6"/>
	<rect x="60" y="110" class="st30" width="6" height="6"/>
	<rect x="66" y="110" class="st3" width="6" height="6"/>
	<rect x="72" y="110" class="st23" width="6" height="6"/>
	<rect x="78" y="110" class="st3" width="6" height="6"/>
	<rect x="84" y="110" class="st1" width="6" height="6"/>
	<rect x="90" y="110" class="st33" width="6" height="6"/>
	<rect x="96" y="110" class="st33" width="6" height="6"/>
	<rect x="102" y="110" class="st33" width="6" height="6"/>
	<rect x="108" y="110" class="st33" width="6" height="6"/>
	<rect x="114" y="110" class="st12" width="6" height="6"/>
	<rect x="120" y="110" class="st30" width="6" height="6"/>
	<rect x="126" y="110" class="st3" width="6" height="6"/>
	<rect x="132" y="110" class="st1" width="6" height="6"/>
	<rect x="138" y="110" class="st0" width="6" height="6"/>
	<rect x="144" y="110" class="st0" width="6" height="6"/>
	<rect y="116" class="st1" width="6" height="6"/>
	<rect x="6" y="116" class="st1" width="6" height="6"/>
	<rect x="12" y="116" class="st34" width="6" height="6"/>
	<rect x="18" y="116" class="st11" width="6" height="6"/>
	<rect x="24" y="116" class="st2" width="6" height="6"/>
	<rect x="30" y="116" class="st29" width="6" height="6"/>
	<rect x="36" y="116" class="st3" width="6" height="6"/>
	<rect x="42" y="116" class="st1" width="6" height="6"/>
	<rect x="48" y="116" class="st3" width="6" height="6"/>
	<rect x="54" y="116" class="st3" width="6" height="6"/>
	<rect x="60" y="116" class="st3" width="6" height="6"/>
	<rect x="66" y="116" class="st30" width="6" height="6"/>
	<rect x="72" y="116" class="st3" width="6" height="6"/>
	<rect x="78" y="116" class="st23" width="6" height="6"/>
	<rect x="84" y="116" class="st1" width="6" height="6"/>
	<rect x="90" y="116" class="st19" width="6" height="6"/>
	<rect x="96" y="116" class="st33" width="6" height="6"/>
	<rect x="102" y="116" class="st33" width="6" height="6"/>
	<rect x="108" y="116" class="st33" width="6" height="6"/>
	<rect x="114" y="116" class="st19" width="6" height="6"/>
	<rect x="120" y="116" class="st30" width="6" height="6"/>
	<rect x="126" y="116" class="st23" width="6" height="6"/>
	<rect x="132" y="116" class="st3" width="6" height="6"/>
	<rect x="138" y="116" class="st1" width="6" height="6"/>
	<rect x="144" y="116" class="st1" width="6" height="6"/>
	<rect x="150" y="116" class="st0" width="6" height="6"/>
	<rect y="122" class="st26" width="6" height="6"/>
	<rect x="6" y="122" class="st26" width="6" height="6"/>
	<rect x="12" y="122" class="st23" width="6" height="6"/>
	<rect x="18" y="122" class="st23" width="6" height="6"/>
	<rect x="24" y="122" class="st23" width="6" height="6"/>
	<rect x="30" y="122" class="st3" width="6" height="6"/>
	<rect x="36" y="122" class="st3" width="6" height="6"/>
	<rect x="42" y="122" class="st1" width="6" height="6"/>
	<rect x="48" y="122" class="st3" width="6" height="6"/>
	<rect x="54" y="122" class="st3" width="6" height="6"/>
	<rect x="60" y="122" class="st3" width="6" height="6"/>
	<rect x="66" y="122" class="st3" width="6" height="6"/>
	<rect x="72" y="122" class="st23" width="6" height="6"/>
	<rect x="78" y="122" class="st1" width="6" height="6"/>
	<rect x="84" y="122" class="st19" width="6" height="6"/>
	<rect x="90" y="122" class="st33" width="6" height="6"/>
	<rect x="96" y="122" class="st33" width="6" height="6"/>
	<rect x="102" y="122" class="st33" width="6" height="6"/>
	<rect x="108" y="122" class="st33" width="6" height="6"/>
	<rect x="114" y="122" class="st33" width="6" height="6"/>
	<rect x="120" y="122" class="st19" width="6" height="6"/>
	<rect x="126" y="122" class="st1" width="6" height="6"/>
	<rect x="132" y="122" class="st23" width="6" height="6"/>
	<rect x="138" y="122" class="st3" width="6" height="6"/>
	<rect x="144" y="122" class="st3" width="6" height="6"/>
	<rect x="150" y="122" class="st32" width="6" height="6"/>
	<rect x="156" y="122" class="st0" width="6" height="6"/>
	<rect y="128" class="st0" width="6" height="6"/>
	<rect x="6" y="128" class="st0" width="6" height="6"/>
	<rect x="12" y="128" class="st3" width="6" height="6"/>
	<rect x="18" y="128" class="st3" width="6" height="6"/>
	<rect x="24" y="128" class="st3" width="6" height="6"/>
	<rect x="30" y="128" class="st3" width="6" height="6"/>
	<rect x="36" y="128" class="st3" width="6" height="6"/>
	<rect x="42" y="128" class="st23" width="6" height="6"/>
	<rect x="48" y="128" class="st1" width="6" height="6"/>
	<rect x="54" y="128" class="st3" width="6" height="6"/>
	<rect x="60" y="128" class="st3" width="6" height="6"/>
	<rect x="66" y="128" class="st35" width="6" height="6"/>
	<rect x="72" y="128" class="st23" width="6" height="6"/>
	<rect x="78" y="128" class="st1" width="6" height="6"/>
	<rect x="84" y="128" class="st19" width="6" height="6"/>
	<rect x="90" y="128" class="st19" width="6" height="6"/>
	<rect x="96" y="128" class="st19" width="6" height="6"/>
	<rect x="102" y="128" class="st19" width="6" height="6"/>
	<rect x="108" y="128" class="st33" width="6" height="6"/>
	<rect x="114" y="128" class="st19" width="6" height="6"/>
	<rect x="120" y="128" class="st19" width="6" height="6"/>
	<rect x="126" y="128" class="st1" width="6" height="6"/>
	<rect x="132" y="128" class="st23" width="6" height="6"/>
	<rect x="138" y="128" class="st14" width="6" height="6"/>
	<rect x="144" y="128" class="st3" width="6" height="6"/>
	<rect x="150" y="128" class="st35" width="6" height="6"/>
	<rect x="156" y="128" class="st0" width="6" height="6"/>
	<rect y="134" class="st12" width="6" height="6"/>
	<rect x="6" y="134" class="st0" width="6" height="6"/>
	<rect x="12" y="134" class="st0" width="6" height="6"/>
	<rect x="18" y="134" class="st0" width="6" height="6"/>
	<rect x="24" y="134" class="st0" width="6" height="6"/>
	<rect x="30" y="134" class="st3" width="6" height="6"/>
	<rect x="36" y="134" class="st23" width="6" height="6"/>
	<rect x="42" y="134" class="st30" width="6" height="6"/>
	<rect x="48" y="134" class="st30" width="6" height="6"/>
	<rect x="54" y="134" class="st0" width="6" height="6"/>
	<rect x="60" y="134" class="st16" width="6" height="6"/>
	<rect x="66" y="134" class="st35" width="6" height="6"/>
	<rect x="72" y="134" class="st23" width="6" height="6"/>
	<rect x="78" y="134" class="st1" width="6" height="6"/>
	<rect x="84" y="134" class="st33" width="6" height="6"/>
	<rect x="90" y="134" class="st33" width="6" height="6"/>
	<rect x="96" y="134" class="st33" width="6" height="6"/>
	<rect x="102" y="134" class="st33" width="6" height="6"/>
	<rect x="108" y="134" class="st33" width="6" height="6"/>
	<rect x="114" y="134" class="st33" width="6" height="6"/>
	<rect x="120" y="134" class="st33" width="6" height="6"/>
	<rect x="126" y="134" class="st1" width="6" height="6"/>
	<rect x="132" y="134" class="st28" width="6" height="6"/>
	<rect x="138" y="134" class="st32" width="6" height="6"/>
	<rect x="144" y="134" class="st16" width="6" height="6"/>
	<rect x="150" y="134" class="st35" width="6" height="6"/>
	<rect x="156" y="134" class="st0" width="6" height="6"/>
	<rect y="140" class="st12" width="6" height="6"/>
	<rect x="6" y="140" class="st12" width="6" height="6"/>
	<rect x="12" y="140" class="st12" width="6" height="6"/>
	<rect x="18" y="140" class="st0" width="6" height="6"/>
	<rect x="24" y="140" class="st23" width="6" height="6"/>
	<rect x="30" y="140" class="st23" width="6" height="6"/>
	<rect x="36" y="140" class="st30" width="6" height="6"/>
	<rect x="42" y="140" class="st3" width="6" height="6"/>
	<rect x="48" y="140" class="st14" width="6" height="6"/>
	<rect x="54" y="140" class="st30" width="6" height="6"/>
	<rect x="60" y="140" class="st23" width="6" height="6"/>
	<rect x="66" y="140" class="st23" width="6" height="6"/>
	<rect x="72" y="140" class="st23" width="6" height="6"/>
	<rect x="78" y="140" class="st32" width="6" height="6"/>
	<rect x="84" y="140" class="st19" width="6" height="6"/>
	<rect x="90" y="140" class="st19" width="6" height="6"/>
	<rect x="96" y="140" class="st33" width="6" height="6"/>
	<rect x="102" y="140" class="st33" width="6" height="6"/>
	<rect x="108" y="140" class="st19" width="6" height="6"/>
	<rect x="114" y="140" class="st19" width="6" height="6"/>
	<rect x="120" y="140" class="st19" width="6" height="6"/>
	<rect x="126" y="140" class="st30" width="6" height="6"/>
	<rect x="132" y="140" class="st3" width="6" height="6"/>
	<rect x="138" y="140" class="st1" width="6" height="6"/>
	<rect x="144" y="140" class="st0" width="6" height="6"/>
	<rect x="150" y="140" class="st0" width="6" height="6"/>
	<rect y="146" class="st1" width="6" height="6"/>
	<rect x="6" y="146" class="st12" width="6" height="6"/>
	<rect x="12" y="146" class="st12" width="6" height="6"/>
	<rect x="18" y="146" class="st12" width="6" height="6"/>
	<rect x="24" y="146" class="st12" width="6" height="6"/>
	<rect x="30" y="146" class="st1" width="6" height="6"/>
	<rect x="36" y="146" class="st3" width="6" height="6"/>
	<rect x="42" y="146" class="st14" width="6" height="6"/>
	<rect x="48" y="146" class="st3" width="6" height="6"/>
	<rect x="54" y="146" class="st14" width="6" height="6"/>
	<rect x="60" y="146" class="st1" width="6" height="6"/>
	<rect x="66" y="146" class="st23" width="6" height="6"/>
	<rect x="72" y="146" class="st1" width="6" height="6"/>
	<rect x="78" y="146" class="st19" width="6" height="6"/>
	<rect x="84" y="146" class="st33" width="6" height="6"/>
	<rect x="90" y="146" class="st33" width="6" height="6"/>
	<rect x="96" y="146" class="st33" width="6" height="6"/>
	<rect x="102" y="146" class="st33" width="6" height="6"/>
	<rect x="108" y="146" class="st33" width="6" height="6"/>
	<rect x="114" y="146" class="st33" width="6" height="6"/>
	<rect x="120" y="146" class="st19" width="6" height="6"/>
	<rect x="126" y="146" class="st30" width="6" height="6"/>
	<rect x="132" y="146" class="st23" width="6" height="6"/>
	<rect x="138" y="146" class="st23" width="6" height="6"/>
	<rect x="144" y="146" class="st1" width="6" height="6"/>
	<rect x="150" y="146" class="st0" width="6" height="6"/>
	<rect y="152" class="st0" width="6" height="6"/>
	<rect x="6" y="152" class="st28" width="6" height="6"/>
	<rect x="12" y="152" class="st28" width="6" height="6"/>
	<rect x="18" y="152" class="st12" width="6" height="6"/>
	<rect x="24" y="152" class="st1" width="6" height="6"/>
	<rect x="30" y="152" class="st3" width="6" height="6"/>
	<rect x="36" y="152" class="st3" width="6" height="6"/>
	<rect x="42" y="152" class="st3" width="6" height="6"/>
	<rect x="48" y="152" class="st14" width="6" height="6"/>
	<rect x="54" y="152" class="st14" width="6" height="6"/>
	<rect x="60" y="152" class="st14" width="6" height="6"/>
	<rect x="66" y="152" class="st1" width="6" height="6"/>
	<rect x="72" y="152" class="st12" width="6" height="6"/>
	<rect x="78" y="152" class="st19" width="6" height="6"/>
	<rect x="84" y="152" class="st19" width="6" height="6"/>
	<rect x="90" y="152" class="st19" width="6" height="6"/>
	<rect x="96" y="152" class="st19" width="6" height="6"/>
	<rect x="102" y="152" class="st19" width="6" height="6"/>
	<rect x="108" y="152" class="st19" width="6" height="6"/>
	<rect x="114" y="152" class="st19" width="6" height="6"/>
	<rect x="120" y="152" class="st12" width="6" height="6"/>
	<rect x="126" y="152" class="st30" width="6" height="6"/>
	<rect x="132" y="152" class="st14" width="6" height="6"/>
	<rect x="138" y="152" class="st23" width="6" height="6"/>
	<rect x="144" y="152" class="st14" width="6" height="6"/>
	<rect x="150" y="152" class="st1" width="6" height="6"/>
	<rect x="156" y="152" class="st0" width="6" height="6"/>
	<rect x="6" y="158" class="st0" width="6" height="6"/>
	<rect x="12" y="158" class="st0" width="6" height="6"/>
	<rect x="18" y="158" class="st28" width="6" height="6"/>
	<rect x="24" y="158" class="st1" width="6" height="6"/>
	<rect x="30" y="158" class="st3" width="6" height="6"/>
	<rect x="36" y="158" class="st3" width="6" height="6"/>
	<rect x="42" y="158" class="st14" width="6" height="6"/>
	<rect x="48" y="158" class="st3" width="6" height="6"/>
	<rect x="54" y="158" class="st14" width="6" height="6"/>
	<rect x="60" y="158" class="st14" width="6" height="6"/>
	<rect x="66" y="158" class="st1" width="6" height="6"/>
	<rect x="72" y="158" class="st12" width="6" height="6"/>
	<rect x="78" y="158" class="st12" width="6" height="6"/>
	<rect x="84" y="158" class="st12" width="6" height="6"/>
	<rect x="90" y="158" class="st12" width="6" height="6"/>
	<rect x="96" y="158" class="st12" width="6" height="6"/>
	<rect x="102" y="158" class="st12" width="6" height="6"/>
	<rect x="108" y="158" class="st12" width="6" height="6"/>
	<rect x="114" y="158" class="st12" width="6" height="6"/>
	<rect x="120" y="158" class="st30" width="6" height="6"/>
	<rect x="126" y="158" class="st23" width="6" height="6"/>
	<rect x="132" y="158" class="st23" width="6" height="6"/>
	<rect x="138" y="158" class="st14" width="6" height="6"/>
	<rect x="144" y="158" class="st3" width="6" height="6"/>
	<rect x="150" y="158" class="st30" width="6" height="6"/>
	<rect x="156" y="158" class="st0" width="6" height="6"/>
	<rect x="18" y="164" class="st0" width="6" height="6"/>
	<rect x="24" y="164" class="st30" width="6" height="6"/>
	<rect x="30" y="164" class="st3" width="6" height="6"/>
	<rect x="36" y="164" class="st3" width="6" height="6"/>
	<rect x="42" y="164" class="st3" width="6" height="6"/>
	<rect x="48" y="164" class="st14" width="6" height="6"/>
	<rect x="54" y="164" class="st14" width="6" height="6"/>
	<rect x="60" y="164" class="st14" width="6" height="6"/>
	<rect x="66" y="164" class="st30" width="6" height="6"/>
	<rect x="72" y="164" class="st12" width="6" height="6"/>
	<rect x="78" y="164" class="st12" width="6" height="6"/>
	<rect x="84" y="164" class="st12" width="6" height="6"/>
	<rect x="90" y="164" class="st12" width="6" height="6"/>
	<rect x="96" y="164" class="st12" width="6" height="6"/>
	<rect x="102" y="164" class="st12" width="6" height="6"/>
	<rect x="108" y="164" class="st28" width="6" height="6"/>
	<rect x="114" y="164" class="st23" width="6" height="6"/>
	<rect x="120" y="164" class="st23" width="6" height="6"/>
	<rect x="126" y="164" class="st23" width="6" height="6"/>
	<rect x="132" y="164" class="st14" width="6" height="6"/>
	<rect x="138" y="164" class="st3" width="6" height="6"/>
	<rect x="144" y="164" class="st3" width="6" height="6"/>
	<rect x="150" y="164" class="st35" width="6" height="6"/>
	<rect x="156" y="164" class="st0" width="6" height="6"/>
	<rect x="18" y="170" class="st0" width="6" height="6"/>
	<rect x="24" y="170" class="st16" width="6" height="6"/>
	<rect x="30" y="170" class="st35" width="6" height="6"/>
	<rect x="36" y="170" class="st35" width="6" height="6"/>
	<rect x="42" y="170" class="st16" width="6" height="6"/>
	<rect x="48" y="170" class="st35" width="6" height="6"/>
	<rect x="54" y="170" class="st16" width="6" height="6"/>
	<rect x="60" y="170" class="st35" width="6" height="6"/>
	<rect x="66" y="170" class="st35" width="6" height="6"/>
	<rect x="72" y="170" class="st0" width="6" height="6"/>
	<rect x="78" y="170" class="st28" width="6" height="6"/>
	<rect x="84" y="170" class="st28" width="6" height="6"/>
	<rect x="90" y="170" class="st28" width="6" height="6"/>
	<rect x="96" y="170" class="st28" width="6" height="6"/>
	<rect x="102" y="170" class="st28" width="6" height="6"/>
	<rect x="108" y="170" class="st0" width="6" height="6"/>
	<rect x="114" y="170" class="st28" width="6" height="6"/>
	<rect x="120" y="170" class="st28" width="6" height="6"/>
	<rect x="126" y="170" class="st35" width="6" height="6"/>
	<rect x="132" y="170" class="st16" width="6" height="6"/>
	<rect x="138" y="170" class="st16" width="6" height="6"/>
	<rect x="144" y="170" class="st35" width="6" height="6"/>
	<rect x="150" y="170" class="st35" width="6" height="6"/>
	<rect x="156" y="170" class="st0" width="6" height="6"/>
	<rect x="24" y="176" class="st0" width="6" height="6"/>
	<rect x="30" y="176" class="st0" width="6" height="6"/>
	<rect x="36" y="176" class="st0" width="6" height="6"/>
	<rect x="42" y="176" class="st0" width="6" height="6"/>
	<rect x="48" y="176" class="st0" width="6" height="6"/>
	<rect x="54" y="176" class="st0" width="6" height="6"/>
	<rect x="60" y="176" class="st0" width="6" height="6"/>
	<rect x="66" y="176" class="st0" width="6" height="6"/>
	<rect x="78" y="176" class="st0" width="6" height="6"/>
	<rect x="84" y="176" class="st0" width="6" height="6"/>
	<rect x="90" y="176" class="st0" width="6" height="6"/>
	<rect x="96" y="176" class="st0" width="6" height="6"/>
	<rect x="102" y="176" class="st0" width="6" height="6"/>
	<rect x="114" y="176" class="st0" width="6" height="6"/>
	<rect x="120" y="176" class="st0" width="6" height="6"/>
	<rect x="126" y="176" class="st0" width="6" height="6"/>
	<rect x="132" y="176" class="st0" width="6" height="6"/>
	<rect x="138" y="176" class="st0" width="6" height="6"/>
	<rect x="144" y="176" class="st0" width="6" height="6"/>
	<rect x="150" y="176" class="st0" width="6" height="6"/>
</g>
</svg>
