<?xml version="1.0" encoding="utf-8"?>
<!-- Generator: Adobe Illustrator 27.9.0, SVG Export Plug-In . SVG Version: 6.00 Build 0)  -->
<svg version="1.1" id="Layer_1" shape-rendering="crispEdges"
	 xmlns="http://www.w3.org/2000/svg" xmlns:xlink="http://www.w3.org/1999/xlink" x="0px" y="0px" viewBox="0 0 192 192"
	 style="enable-background:new 0 0 192 192;" xml:space="preserve">
<style type="text/css">
	.st0{fill:#C1B9E0;}
	.st1{fill:#A61C39;}
	.st2{fill:#89251E;}
	.st3{fill:#B65638;}
	.st4{fill:#CD6C31;}
	.st5{fill:#922D52;}
	.st6{fill:#907055;}
	.st7{fill:#914938;}
	.st8{fill:#692C06;}
	.st9{fill:#96552C;}
	.st10{fill:#923C36;}
	.st11{fill:#572303;}
	.st12{fill:#9B613D;}
	.st13{fill:#843C10;}
	.st14{fill:#F0FAED;}
	.st15{fill:#EA9571;}
	.st16{fill:#EDE5B7;}
	.st17{fill:#D0D7E6;}
	.st18{fill:#F1E9EB;}
	.st19{fill:#8D506B;}
	.st20{fill:#D1584A;}
	.st21{fill:#969EB6;}
	.st22{fill:#AFB5CA;}
	.st23{fill:#ECE7E8;}
	.st24{fill:#E25C72;}
	.st25{fill:#EB97A7;}
	.st26{fill:#40272A;}
	.st27{fill:#534748;}
	.st28{fill:#F1BAC7;}
	.st29{fill:#DA7FA0;}
	.st30{fill:#C79FC1;}
	.st31{fill:#B55D83;}
	.st32{fill:#CF6F87;}
</style>
<g>
	<rect x="53.1" y="20.9" class="st0" width="5.4" height="5.4"/>
	<rect x="58.5" y="20.9" class="st0" width="5.4" height="5.4"/>
	<rect x="128.2" y="20.9" class="st0" width="5.4" height="5.4"/>
	<rect x="133.5" y="20.9" class="st0" width="5.4" height="5.4"/>
	<rect x="47.7" y="26.3" class="st0" width="5.4" height="5.4"/>
	<rect x="53.1" y="26.3" class="st1" width="5.4" height="5.4"/>
	<rect x="58.5" y="26.3" class="st2" width="5.4" height="5.4"/>
	<rect x="63.8" y="26.3" class="st0" width="5.4" height="5.4"/>
	<rect x="122.8" y="26.3" class="st0" width="5.4" height="5.4"/>
	<rect x="128.2" y="26.3" class="st3" width="5.4" height="5.4"/>
	<rect x="133.5" y="26.3" class="st3" width="5.4" height="5.4"/>
	<rect x="138.9" y="26.3" class="st0" width="5.4" height="5.4"/>
	<rect x="42.4" y="31.6" class="st0" width="5.4" height="5.4"/>
	<rect x="47.7" y="31.6" class="st1" width="5.4" height="5.4"/>
	<rect x="53.1" y="31.6" class="st4" width="5.4" height="5.4"/>
	<rect x="58.5" y="31.6" class="st4" width="5.4" height="5.4"/>
	<rect x="63.8" y="31.6" class="st1" width="5.4" height="5.4"/>
	<rect x="69.2" y="31.6" class="st0" width="5.4" height="5.4"/>
	<rect x="117.5" y="31.6" class="st0" width="5.4" height="5.4"/>
	<rect x="122.8" y="31.6" class="st3" width="5.4" height="5.4"/>
	<rect x="128.2" y="31.6" class="st4" width="5.4" height="5.4"/>
	<rect x="133.5" y="31.6" class="st4" width="5.4" height="5.4"/>
	<rect x="138.9" y="31.6" class="st3" width="5.4" height="5.4"/>
	<rect x="144.3" y="31.6" class="st0" width="5.4" height="5.4"/>
	<rect x="37" y="37" class="st0" width="5.4" height="5.4"/>
	<rect x="42.4" y="37" class="st5" width="5.4" height="5.4"/>
	<rect x="47.7" y="37" class="st4" width="5.4" height="5.4"/>
	<rect x="53.1" y="37" class="st6" width="5.4" height="5.4"/>
	<rect x="58.5" y="37" class="st6" width="5.4" height="5.4"/>
	<rect x="63.8" y="37" class="st4" width="5.4" height="5.4"/>
	<rect x="69.2" y="37" class="st1" width="5.4" height="5.4"/>
	<rect x="74.5" y="37" class="st0" width="5.4" height="5.4"/>
	<rect x="112.1" y="37" class="st0" width="5.4" height="5.4"/>
	<rect x="117.5" y="37" class="st7" width="5.4" height="5.4"/>
	<rect x="122.8" y="37" class="st4" width="5.4" height="5.4"/>
	<rect x="128.2" y="37" class="st6" width="5.4" height="5.4"/>
	<rect x="133.5" y="37" class="st6" width="5.4" height="5.4"/>
	<rect x="138.9" y="37" class="st4" width="5.4" height="5.4"/>
	<rect x="144.3" y="37" class="st7" width="5.4" height="5.4"/>
	<rect x="149.6" y="37" class="st0" width="5.4" height="5.4"/>
	<rect x="37" y="42.4" class="st0" width="5.4" height="5.4"/>
	<rect x="42.4" y="42.4" class="st2" width="5.4" height="5.4"/>
	<rect x="47.7" y="42.4" class="st4" width="5.4" height="5.4"/>
	<rect x="53.1" y="42.4" class="st8" width="5.4" height="5.4"/>
	<rect x="58.5" y="42.4" class="st8" width="5.4" height="5.4"/>
	<rect x="63.8" y="42.4" class="st6" width="5.4" height="5.4"/>
	<rect x="69.2" y="42.4" class="st4" width="5.4" height="5.4"/>
	<rect x="74.5" y="42.4" class="st2" width="5.4" height="5.4"/>
	<rect x="79.9" y="42.4" class="st0" width="5.4" height="5.4"/>
	<rect x="85.3" y="42.4" class="st0" width="5.4" height="5.4"/>
	<rect x="90.6" y="42.4" class="st0" width="5.4" height="5.4"/>
	<rect x="96" y="42.4" class="st0" width="5.4" height="5.4"/>
	<rect x="101.4" y="42.4" class="st0" width="5.4" height="5.4"/>
	<rect x="106.7" y="42.4" class="st0" width="5.4" height="5.4"/>
	<rect x="112.1" y="42.4" class="st7" width="5.4" height="5.4"/>
	<rect x="117.5" y="42.4" class="st4" width="5.4" height="5.4"/>
	<rect x="122.8" y="42.4" class="st6" width="5.4" height="5.4"/>
	<rect x="128.2" y="42.4" class="st8" width="5.4" height="5.4"/>
	<rect x="133.5" y="42.4" class="st8" width="5.4" height="5.4"/>
	<rect x="138.9" y="42.4" class="st6" width="5.4" height="5.4"/>
	<rect x="144.3" y="42.4" class="st3" width="5.4" height="5.4"/>
	<rect x="149.6" y="42.4" class="st0" width="5.4" height="5.4"/>
	<rect x="37" y="47.7" class="st0" width="5.4" height="5.4"/>
	<rect x="42.4" y="47.7" class="st1" width="5.4" height="5.4"/>
	<rect x="47.7" y="47.7" class="st4" width="5.4" height="5.4"/>
	<rect x="53.1" y="47.7" class="st8" width="5.4" height="5.4"/>
	<rect x="58.5" y="47.7" class="st8" width="5.4" height="5.4"/>
	<rect x="63.8" y="47.7" class="st8" width="5.4" height="5.4"/>
	<rect x="69.2" y="47.7" class="st6" width="5.4" height="5.4"/>
	<rect x="74.5" y="47.7" class="st9" width="5.4" height="5.4"/>
	<rect x="79.9" y="47.7" class="st2" width="5.4" height="5.4"/>
	<rect x="85.3" y="47.7" class="st10" width="5.4" height="5.4"/>
	<rect x="90.6" y="47.7" class="st10" width="5.4" height="5.4"/>
	<rect x="96" y="47.7" class="st7" width="5.4" height="5.4"/>
	<rect x="101.4" y="47.7" class="st7" width="5.4" height="5.4"/>
	<rect x="106.7" y="47.7" class="st7" width="5.4" height="5.4"/>
	<rect x="112.1" y="47.7" class="st9" width="5.4" height="5.4"/>
	<rect x="117.5" y="47.7" class="st6" width="5.4" height="5.4"/>
	<rect x="122.8" y="47.7" class="st8" width="5.4" height="5.4"/>
	<rect x="128.2" y="47.7" class="st8" width="5.4" height="5.4"/>
	<rect x="133.5" y="47.7" class="st8" width="5.4" height="5.4"/>
	<rect x="138.9" y="47.7" class="st4" width="5.4" height="5.4"/>
	<rect x="144.3" y="47.7" class="st3" width="5.4" height="5.4"/>
	<rect x="149.6" y="47.7" class="st0" width="5.4" height="5.4"/>
	<rect x="37" y="53.1" class="st0" width="5.4" height="5.4"/>
	<rect x="42.4" y="53.1" class="st1" width="5.4" height="5.4"/>
	<rect x="47.7" y="53.1" class="st4" width="5.4" height="5.4"/>
	<rect x="53.1" y="53.1" class="st8" width="5.4" height="5.4"/>
	<rect x="58.5" y="53.1" class="st8" width="5.4" height="5.4"/>
	<rect x="63.8" y="53.1" class="st11" width="5.4" height="5.4"/>
	<rect x="69.2" y="53.1" class="st11" width="5.4" height="5.4"/>
	<rect x="74.5" y="53.1" class="st12" width="5.4" height="5.4"/>
	<rect x="79.9" y="53.1" class="st9" width="5.4" height="5.4"/>
	<rect x="85.3" y="53.1" class="st9" width="5.4" height="5.4"/>
	<rect x="90.6" y="53.1" class="st10" width="5.4" height="5.4"/>
	<rect x="96" y="53.1" class="st7" width="5.4" height="5.4"/>
	<rect x="101.4" y="53.1" class="st9" width="5.4" height="5.4"/>
	<rect x="106.7" y="53.1" class="st9" width="5.4" height="5.4"/>
	<rect x="112.1" y="53.1" class="st12" width="5.4" height="5.4"/>
	<rect x="117.5" y="53.1" class="st11" width="5.4" height="5.4"/>
	<rect x="122.8" y="53.1" class="st11" width="5.4" height="5.4"/>
	<rect x="128.2" y="53.1" class="st8" width="5.4" height="5.4"/>
	<rect x="133.5" y="53.1" class="st8" width="5.4" height="5.4"/>
	<rect x="138.9" y="53.1" class="st6" width="5.4" height="5.4"/>
	<rect x="144.3" y="53.1" class="st3" width="5.4" height="5.4"/>
	<rect x="149.6" y="53.1" class="st0" width="5.4" height="5.4"/>
	<rect x="37" y="58.5" class="st0" width="5.4" height="5.4"/>
	<rect x="42.4" y="58.5" class="st5" width="5.4" height="5.4"/>
	<rect x="47.7" y="58.5" class="st4" width="5.4" height="5.4"/>
	<rect x="53.1" y="58.5" class="st8" width="5.4" height="5.4"/>
	<rect x="58.5" y="58.5" class="st11" width="5.4" height="5.4"/>
	<rect x="63.8" y="58.5" class="st3" width="5.4" height="5.4"/>
	<rect x="69.2" y="58.5" class="st7" width="5.4" height="5.4"/>
	<rect x="74.5" y="58.5" class="st4" width="5.4" height="5.4"/>
	<rect x="79.9" y="58.5" class="st12" width="5.4" height="5.4"/>
	<rect x="85.3" y="58.5" class="st12" width="5.4" height="5.4"/>
	<rect x="90.6" y="58.5" class="st10" width="5.4" height="5.4"/>
	<rect x="96" y="58.5" class="st7" width="5.4" height="5.4"/>
	<rect x="101.4" y="58.5" class="st12" width="5.4" height="5.4"/>
	<rect x="106.7" y="58.5" class="st12" width="5.4" height="5.4"/>
	<rect x="112.1" y="58.5" class="st4" width="5.4" height="5.4"/>
	<rect x="117.5" y="58.5" class="st7" width="5.4" height="5.4"/>
	<rect x="122.8" y="58.5" class="st3" width="5.4" height="5.4"/>
	<rect x="128.2" y="58.5" class="st11" width="5.4" height="5.4"/>
	<rect x="133.5" y="58.5" class="st8" width="5.4" height="5.4"/>
	<rect x="138.9" y="58.5" class="st4" width="5.4" height="5.4"/>
	<rect x="144.3" y="58.5" class="st3" width="5.4" height="5.4"/>
	<rect x="149.6" y="58.5" class="st0" width="5.4" height="5.4"/>
	<rect x="37" y="63.8" class="st0" width="5.4" height="5.4"/>
	<rect x="42.4" y="63.8" class="st5" width="5.4" height="5.4"/>
	<rect x="47.7" y="63.8" class="st3" width="5.4" height="5.4"/>
	<rect x="53.1" y="63.8" class="st11" width="5.4" height="5.4"/>
	<rect x="58.5" y="63.8" class="st3" width="5.4" height="5.4"/>
	<rect x="63.8" y="63.8" class="st7" width="5.4" height="5.4"/>
	<rect x="69.2" y="63.8" class="st4" width="5.4" height="5.4"/>
	<rect x="74.5" y="63.8" class="st3" width="5.4" height="5.4"/>
	<rect x="79.9" y="63.8" class="st3" width="5.4" height="5.4"/>
	<rect x="85.3" y="63.8" class="st13" width="5.4" height="5.4"/>
	<rect x="90.6" y="63.8" class="st12" width="5.4" height="5.4"/>
	<rect x="96" y="63.8" class="st12" width="5.4" height="5.4"/>
	<rect x="101.4" y="63.8" class="st13" width="5.4" height="5.4"/>
	<rect x="106.7" y="63.8" class="st3" width="5.4" height="5.4"/>
	<rect x="112.1" y="63.8" class="st3" width="5.4" height="5.4"/>
	<rect x="117.5" y="63.8" class="st4" width="5.4" height="5.4"/>
	<rect x="122.8" y="63.8" class="st7" width="5.4" height="5.4"/>
	<rect x="128.2" y="63.8" class="st3" width="5.4" height="5.4"/>
	<rect x="133.5" y="63.8" class="st11" width="5.4" height="5.4"/>
	<rect x="138.9" y="63.8" class="st3" width="5.4" height="5.4"/>
	<rect x="144.3" y="63.8" class="st7" width="5.4" height="5.4"/>
	<rect x="149.6" y="63.8" class="st0" width="5.4" height="5.4"/>
	<rect x="37" y="69.2" class="st0" width="5.4" height="5.4"/>
	<rect x="42.4" y="69.2" class="st5" width="5.4" height="5.4"/>
	<rect x="47.7" y="69.2" class="st7" width="5.4" height="5.4"/>
	<rect x="53.1" y="69.2" class="st3" width="5.4" height="5.4"/>
	<rect x="58.5" y="69.2" class="st7" width="5.4" height="5.4"/>
	<rect x="63.8" y="69.2" class="st4" width="5.4" height="5.4"/>
	<rect x="69.2" y="69.2" class="st3" width="5.4" height="5.4"/>
	<rect x="74.5" y="69.2" class="st14" width="5.4" height="5.4"/>
	<rect x="79.9" y="69.2" class="st14" width="5.4" height="5.4"/>
	<rect x="85.3" y="69.2" class="st3" width="5.4" height="5.4"/>
	<rect x="90.6" y="69.2" class="st13" width="5.4" height="5.4"/>
	<rect x="96" y="69.2" class="st13" width="5.4" height="5.4"/>
	<rect x="101.4" y="69.2" class="st3" width="5.4" height="5.4"/>
	<rect x="106.7" y="69.2" class="st14" width="5.4" height="5.4"/>
	<rect x="112.1" y="69.2" class="st14" width="5.4" height="5.4"/>
	<rect x="117.5" y="69.2" class="st3" width="5.4" height="5.4"/>
	<rect x="122.8" y="69.2" class="st4" width="5.4" height="5.4"/>
	<rect x="128.2" y="69.2" class="st7" width="5.4" height="5.4"/>
	<rect x="133.5" y="69.2" class="st3" width="5.4" height="5.4"/>
	<rect x="138.9" y="69.2" class="st7" width="5.4" height="5.4"/>
	<rect x="144.3" y="69.2" class="st7" width="5.4" height="5.4"/>
	<rect x="149.6" y="69.2" class="st0" width="5.4" height="5.4"/>
	<rect x="31.6" y="74.5" class="st0" width="5.4" height="5.4"/>
	<rect x="37" y="74.5" class="st2" width="5.4" height="5.4"/>
	<rect x="42.4" y="74.5" class="st15" width="5.4" height="5.4"/>
	<rect x="47.7" y="74.5" class="st7" width="5.4" height="5.4"/>
	<rect x="53.1" y="74.5" class="st7" width="5.4" height="5.4"/>
	<rect x="58.5" y="74.5" class="st4" width="5.4" height="5.4"/>
	<rect x="63.8" y="74.5" class="st3" width="5.4" height="5.4"/>
	<rect x="69.2" y="74.5" class="st16" width="5.4" height="5.4"/>
	<rect x="74.5" y="74.5" class="st16" width="5.4" height="5.4"/>
	<rect x="79.9" y="74.5" class="st14" width="5.4" height="5.4"/>
	<rect x="85.3" y="74.5" class="st14" width="5.4" height="5.4"/>
	<rect x="90.6" y="74.5" class="st3" width="5.4" height="5.4"/>
	<rect x="96" y="74.5" class="st3" width="5.4" height="5.4"/>
	<rect x="101.4" y="74.5" class="st14" width="5.4" height="5.4"/>
	<rect x="106.7" y="74.5" class="st14" width="5.4" height="5.4"/>
	<rect x="112.1" y="74.5" class="st16" width="5.4" height="5.4"/>
	<rect x="117.5" y="74.5" class="st16" width="5.4" height="5.4"/>
	<rect x="122.8" y="74.5" class="st3" width="5.4" height="5.4"/>
	<rect x="128.2" y="74.5" class="st4" width="5.4" height="5.4"/>
	<rect x="133.5" y="74.5" class="st7" width="5.4" height="5.4"/>
	<rect x="138.9" y="74.5" class="st7" width="5.4" height="5.4"/>
	<rect x="144.3" y="74.5" class="st15" width="5.4" height="5.4"/>
	<rect x="149.6" y="74.5" class="st7" width="5.4" height="5.4"/>
	<rect x="155" y="74.5" class="st0" width="5.4" height="5.4"/>
	<rect x="26.3" y="79.9" class="st0" width="5.4" height="5.4"/>
	<rect x="31.6" y="79.9" class="st5" width="5.4" height="5.4"/>
	<rect x="37" y="79.9" class="st15" width="5.4" height="5.4"/>
	<rect x="42.4" y="79.9" class="st12" width="5.4" height="5.4"/>
	<rect x="47.7" y="79.9" class="st4" width="5.4" height="5.4"/>
	<rect x="53.1" y="79.9" class="st4" width="5.4" height="5.4"/>
	<rect x="58.5" y="79.9" class="st4" width="5.4" height="5.4"/>
	<rect x="63.8" y="79.9" class="st16" width="5.4" height="5.4"/>
	<rect x="69.2" y="79.9" class="st16" width="5.4" height="5.4"/>
	<rect x="74.5" y="79.9" class="st16" width="5.4" height="5.4"/>
	<rect x="79.9" y="79.9" class="st16" width="5.4" height="5.4"/>
	<rect x="85.3" y="79.9" class="st14" width="5.4" height="5.4"/>
	<rect x="90.6" y="79.9" class="st3" width="5.4" height="5.4"/>
	<rect x="96" y="79.9" class="st3" width="5.4" height="5.4"/>
	<rect x="101.4" y="79.9" class="st14" width="5.4" height="5.4"/>
	<rect x="106.7" y="79.9" class="st16" width="5.4" height="5.4"/>
	<rect x="112.1" y="79.9" class="st16" width="5.4" height="5.4"/>
	<rect x="117.5" y="79.9" class="st16" width="5.4" height="5.4"/>
	<rect x="122.8" y="79.9" class="st16" width="5.4" height="5.4"/>
	<rect x="128.2" y="79.9" class="st4" width="5.4" height="5.4"/>
	<rect x="133.5" y="79.9" class="st4" width="5.4" height="5.4"/>
	<rect x="138.9" y="79.9" class="st4" width="5.4" height="5.4"/>
	<rect x="144.3" y="79.9" class="st12" width="5.4" height="5.4"/>
	<rect x="149.6" y="79.9" class="st15" width="5.4" height="5.4"/>
	<rect x="155" y="79.9" class="st7" width="5.4" height="5.4"/>
	<rect x="160.4" y="79.9" class="st0" width="5.4" height="5.4"/>
	<rect x="26.3" y="85.3" class="st0" width="5.4" height="5.4"/>
	<rect x="31.6" y="85.3" class="st5" width="5.4" height="5.4"/>
	<rect x="37" y="85.3" class="st9" width="5.4" height="5.4"/>
	<rect x="42.4" y="85.3" class="st12" width="5.4" height="5.4"/>
	<rect x="47.7" y="85.3" class="st12" width="5.4" height="5.4"/>
	<rect x="53.1" y="85.3" class="st4" width="5.4" height="5.4"/>
	<rect x="58.5" y="85.3" class="st4" width="5.4" height="5.4"/>
	<rect x="63.8" y="85.3" class="st8" width="5.4" height="5.4"/>
	<rect x="69.2" y="85.3" class="st8" width="5.4" height="5.4"/>
	<rect x="74.5" y="85.3" class="st16" width="5.4" height="5.4"/>
	<rect x="79.9" y="85.3" class="st16" width="5.4" height="5.4"/>
	<rect x="85.3" y="85.3" class="st3" width="5.4" height="5.4"/>
	<rect x="90.6" y="85.3" class="st17" width="5.4" height="5.4"/>
	<rect x="96" y="85.3" class="st17" width="5.4" height="5.4"/>
	<rect x="101.4" y="85.3" class="st3" width="5.4" height="5.4"/>
	<rect x="106.7" y="85.3" class="st16" width="5.4" height="5.4"/>
	<rect x="112.1" y="85.3" class="st16" width="5.4" height="5.4"/>
	<rect x="117.5" y="85.3" class="st8" width="5.4" height="5.4"/>
	<rect x="122.8" y="85.3" class="st8" width="5.4" height="5.4"/>
	<rect x="128.2" y="85.3" class="st4" width="5.4" height="5.4"/>
	<rect x="133.5" y="85.3" class="st4" width="5.4" height="5.4"/>
	<rect x="138.9" y="85.3" class="st12" width="5.4" height="5.4"/>
	<rect x="144.3" y="85.3" class="st12" width="5.4" height="5.4"/>
	<rect x="149.6" y="85.3" class="st9" width="5.4" height="5.4"/>
	<rect x="155" y="85.3" class="st7" width="5.4" height="5.4"/>
	<rect x="160.4" y="85.3" class="st0" width="5.4" height="5.4"/>
	<rect x="26.3" y="90.6" class="st0" width="5.4" height="5.4"/>
	<rect x="31.6" y="90.6" class="st5" width="5.4" height="5.4"/>
	<rect x="37" y="90.6" class="st9" width="5.4" height="5.4"/>
	<rect x="42.4" y="90.6" class="st12" width="5.4" height="5.4"/>
	<rect x="47.7" y="90.6" class="st4" width="5.4" height="5.4"/>
	<rect x="53.1" y="90.6" class="st12" width="5.4" height="5.4"/>
	<rect x="58.5" y="90.6" class="st12" width="5.4" height="5.4"/>
	<rect x="63.8" y="90.6" class="st8" width="5.4" height="5.4"/>
	<rect x="69.2" y="90.6" class="st8" width="5.4" height="5.4"/>
	<rect x="74.5" y="90.6" class="st8" width="5.4" height="5.4"/>
	<rect x="79.9" y="90.6" class="st16" width="5.4" height="5.4"/>
	<rect x="85.3" y="90.6" class="st17" width="5.4" height="5.4"/>
	<rect x="90.6" y="90.6" class="st14" width="5.4" height="5.4"/>
	<rect x="96" y="90.6" class="st14" width="5.4" height="5.4"/>
	<rect x="101.4" y="90.6" class="st17" width="5.4" height="5.4"/>
	<rect x="106.7" y="90.6" class="st16" width="5.4" height="5.4"/>
	<rect x="112.1" y="90.6" class="st8" width="5.4" height="5.4"/>
	<rect x="117.5" y="90.6" class="st8" width="5.4" height="5.4"/>
	<rect x="122.8" y="90.6" class="st8" width="5.4" height="5.4"/>
	<rect x="128.2" y="90.6" class="st12" width="5.4" height="5.4"/>
	<rect x="133.5" y="90.6" class="st12" width="5.4" height="5.4"/>
	<rect x="138.9" y="90.6" class="st4" width="5.4" height="5.4"/>
	<rect x="144.3" y="90.6" class="st12" width="5.4" height="5.4"/>
	<rect x="149.6" y="90.6" class="st9" width="5.4" height="5.4"/>
	<rect x="155" y="90.6" class="st7" width="5.4" height="5.4"/>
	<rect x="160.4" y="90.6" class="st0" width="5.4" height="5.4"/>
	<rect x="26.3" y="96" class="st0" width="5.4" height="5.4"/>
	<rect x="31.6" y="96" class="st1" width="5.4" height="5.4"/>
	<rect x="37" y="96" class="st9" width="5.4" height="5.4"/>
	<rect x="42.4" y="96" class="st9" width="5.4" height="5.4"/>
	<rect x="47.7" y="96" class="st12" width="5.4" height="5.4"/>
	<rect x="53.1" y="96" class="st9" width="5.4" height="5.4"/>
	<rect x="58.5" y="96" class="st4" width="5.4" height="5.4"/>
	<rect x="63.8" y="96" class="st4" width="5.4" height="5.4"/>
	<rect x="69.2" y="96" class="st18" width="5.4" height="5.4"/>
	<rect x="74.5" y="96" class="st18" width="5.4" height="5.4"/>
	<rect x="79.9" y="96" class="st18" width="5.4" height="5.4"/>
	<rect x="85.3" y="96" class="st14" width="5.4" height="5.4"/>
	<rect x="90.6" y="96" class="st14" width="5.4" height="5.4"/>
	<rect x="96" y="96" class="st14" width="5.4" height="5.4"/>
	<rect x="101.4" y="96" class="st14" width="5.4" height="5.4"/>
	<rect x="106.7" y="96" class="st18" width="5.4" height="5.4"/>
	<rect x="112.1" y="96" class="st18" width="5.4" height="5.4"/>
	<rect x="117.5" y="96" class="st18" width="5.4" height="5.4"/>
	<rect x="122.8" y="96" class="st4" width="5.4" height="5.4"/>
	<rect x="128.2" y="96" class="st4" width="5.4" height="5.4"/>
	<rect x="133.5" y="96" class="st9" width="5.4" height="5.4"/>
	<rect x="138.9" y="96" class="st12" width="5.4" height="5.4"/>
	<rect x="144.3" y="96" class="st9" width="5.4" height="5.4"/>
	<rect x="149.6" y="96" class="st9" width="5.4" height="5.4"/>
	<rect x="155" y="96" class="st3" width="5.4" height="5.4"/>
	<rect x="160.4" y="96" class="st0" width="5.4" height="5.4"/>
	<rect x="26.3" y="101.4" class="st0" width="5.4" height="5.4"/>
	<rect x="31.6" y="101.4" class="st19" width="5.4" height="5.4"/>
	<rect x="37" y="101.4" class="st20" width="5.4" height="5.4"/>
	<rect x="42.4" y="101.4" class="st21" width="5.4" height="5.4"/>
	<rect x="47.7" y="101.4" class="st22" width="5.4" height="5.4"/>
	<rect x="53.1" y="101.4" class="st23" width="5.4" height="5.4"/>
	<rect x="58.5" y="101.4" class="st18" width="5.4" height="5.4"/>
	<rect x="63.8" y="101.4" class="st18" width="5.4" height="5.4"/>
	<rect x="69.2" y="101.4" class="st18" width="5.4" height="5.4"/>
	<rect x="74.5" y="101.4" class="st18" width="5.4" height="5.4"/>
	<rect x="79.9" y="101.4" class="st14" width="5.4" height="5.4"/>
	<rect x="85.3" y="101.4" class="st14" width="5.4" height="5.4"/>
	<rect x="90.6" y="101.4" class="st14" width="5.4" height="5.4"/>
	<rect x="96" y="101.4" class="st14" width="5.4" height="5.4"/>
	<rect x="101.4" y="101.4" class="st14" width="5.4" height="5.4"/>
	<rect x="106.7" y="101.4" class="st14" width="5.4" height="5.4"/>
	<rect x="112.1" y="101.4" class="st18" width="5.4" height="5.4"/>
	<rect x="117.5" y="101.4" class="st18" width="5.4" height="5.4"/>
	<rect x="122.8" y="101.4" class="st18" width="5.4" height="5.4"/>
	<rect x="128.2" y="101.4" class="st18" width="5.4" height="5.4"/>
	<rect x="133.5" y="101.4" class="st23" width="5.4" height="5.4"/>
	<rect x="138.9" y="101.4" class="st22" width="5.4" height="5.4"/>
	<rect x="144.3" y="101.4" class="st21" width="5.4" height="5.4"/>
	<rect x="149.6" y="101.4" class="st20" width="5.4" height="5.4"/>
	<rect x="155" y="101.4" class="st7" width="5.4" height="5.4"/>
	<rect x="160.4" y="101.4" class="st0" width="5.4" height="5.4"/>
	<rect x="26.3" y="106.7" class="st0" width="5.4" height="5.4"/>
	<rect x="31.6" y="106.7" class="st2" width="5.4" height="5.4"/>
	<rect x="37" y="106.7" class="st21" width="5.4" height="5.4"/>
	<rect x="42.4" y="106.7" class="st22" width="5.4" height="5.4"/>
	<rect x="47.7" y="106.7" class="st17" width="5.4" height="5.4"/>
	<rect x="53.1" y="106.7" class="st23" width="5.4" height="5.4"/>
	<rect x="58.5" y="106.7" class="st23" width="5.4" height="5.4"/>
	<rect x="63.8" y="106.7" class="st24" width="5.4" height="5.4"/>
	<rect x="69.2" y="106.7" class="st25" width="5.4" height="5.4"/>
	<rect x="74.5" y="106.7" class="st18" width="5.4" height="5.4"/>
	<rect x="79.9" y="106.7" class="st14" width="5.4" height="5.4"/>
	<rect x="85.3" y="106.7" class="st26" width="5.4" height="5.4"/>
	<rect x="90.6" y="106.7" class="st26" width="5.4" height="5.4"/>
	<rect x="96" y="106.7" class="st27" width="5.4" height="5.4"/>
	<rect x="101.4" y="106.7" class="st27" width="5.4" height="5.4"/>
	<rect x="106.7" y="106.7" class="st14" width="5.4" height="5.4"/>
	<rect x="112.1" y="106.7" class="st18" width="5.4" height="5.4"/>
	<rect x="117.5" y="106.7" class="st25" width="5.4" height="5.4"/>
	<rect x="122.8" y="106.7" class="st24" width="5.4" height="5.4"/>
	<rect x="128.2" y="106.7" class="st23" width="5.4" height="5.4"/>
	<rect x="133.5" y="106.7" class="st23" width="5.4" height="5.4"/>
	<rect x="138.9" y="106.7" class="st17" width="5.4" height="5.4"/>
	<rect x="144.3" y="106.7" class="st22" width="5.4" height="5.4"/>
	<rect x="149.6" y="106.7" class="st21" width="5.4" height="5.4"/>
	<rect x="155" y="106.7" class="st3" width="5.4" height="5.4"/>
	<rect x="160.4" y="106.7" class="st0" width="5.4" height="5.4"/>
	<rect x="26.3" y="112.1" class="st0" width="5.4" height="5.4"/>
	<rect x="31.6" y="112.1" class="st2" width="5.4" height="5.4"/>
	<rect x="37" y="112.1" class="st21" width="5.4" height="5.4"/>
	<rect x="42.4" y="112.1" class="st22" width="5.4" height="5.4"/>
	<rect x="47.7" y="112.1" class="st17" width="5.4" height="5.4"/>
	<rect x="53.1" y="112.1" class="st17" width="5.4" height="5.4"/>
	<rect x="58.5" y="112.1" class="st23" width="5.4" height="5.4"/>
	<rect x="63.8" y="112.1" class="st25" width="5.4" height="5.4"/>
	<rect x="69.2" y="112.1" class="st28" width="5.4" height="5.4"/>
	<rect x="74.5" y="112.1" class="st18" width="5.4" height="5.4"/>
	<rect x="79.9" y="112.1" class="st14" width="5.4" height="5.4"/>
	<rect x="85.3" y="112.1" class="st26" width="5.4" height="5.4"/>
	<rect x="90.6" y="112.1" class="st26" width="5.4" height="5.4"/>
	<rect x="96" y="112.1" class="st27" width="5.4" height="5.4"/>
	<rect x="101.4" y="112.1" class="st27" width="5.4" height="5.4"/>
	<rect x="106.7" y="112.1" class="st14" width="5.4" height="5.4"/>
	<rect x="112.1" y="112.1" class="st18" width="5.4" height="5.4"/>
	<rect x="117.5" y="112.1" class="st28" width="5.4" height="5.4"/>
	<rect x="122.8" y="112.1" class="st25" width="5.4" height="5.4"/>
	<rect x="128.2" y="112.1" class="st23" width="5.4" height="5.4"/>
	<rect x="133.5" y="112.1" class="st17" width="5.4" height="5.4"/>
	<rect x="138.9" y="112.1" class="st17" width="5.4" height="5.4"/>
	<rect x="144.3" y="112.1" class="st22" width="5.4" height="5.4"/>
	<rect x="149.6" y="112.1" class="st21" width="5.4" height="5.4"/>
	<rect x="155" y="112.1" class="st7" width="5.4" height="5.4"/>
	<rect x="160.4" y="112.1" class="st0" width="5.4" height="5.4"/>
	<rect x="26.3" y="117.5" class="st0" width="5.4" height="5.4"/>
	<rect x="31.6" y="117.5" class="st1" width="5.4" height="5.4"/>
	<rect x="37" y="117.5" class="st21" width="5.4" height="5.4"/>
	<rect x="42.4" y="117.5" class="st22" width="5.4" height="5.4"/>
	<rect x="47.7" y="117.5" class="st17" width="5.4" height="5.4"/>
	<rect x="53.1" y="117.5" class="st17" width="5.4" height="5.4"/>
	<rect x="58.5" y="117.5" class="st28" width="5.4" height="5.4"/>
	<rect x="63.8" y="117.5" class="st17" width="5.4" height="5.4"/>
	<rect x="69.2" y="117.5" class="st18" width="5.4" height="5.4"/>
	<rect x="74.5" y="117.5" class="st14" width="5.4" height="5.4"/>
	<rect x="79.9" y="117.5" class="st14" width="5.4" height="5.4"/>
	<rect x="85.3" y="117.5" class="st14" width="5.4" height="5.4"/>
	<rect x="90.6" y="117.5" class="st26" width="5.4" height="5.4"/>
	<rect x="96" y="117.5" class="st27" width="5.4" height="5.4"/>
	<rect x="101.4" y="117.5" class="st14" width="5.4" height="5.4"/>
	<rect x="106.7" y="117.5" class="st14" width="5.4" height="5.4"/>
	<rect x="112.1" y="117.5" class="st14" width="5.4" height="5.4"/>
	<rect x="117.5" y="117.5" class="st18" width="5.4" height="5.4"/>
	<rect x="122.8" y="117.5" class="st17" width="5.4" height="5.4"/>
	<rect x="128.2" y="117.5" class="st28" width="5.4" height="5.4"/>
	<rect x="133.5" y="117.5" class="st17" width="5.4" height="5.4"/>
	<rect x="138.9" y="117.5" class="st17" width="5.4" height="5.4"/>
	<rect x="144.3" y="117.5" class="st22" width="5.4" height="5.4"/>
	<rect x="149.6" y="117.5" class="st21" width="5.4" height="5.4"/>
	<rect x="155" y="117.5" class="st7" width="5.4" height="5.4"/>
	<rect x="160.4" y="117.5" class="st0" width="5.4" height="5.4"/>
	<rect x="26.3" y="122.8" class="st0" width="5.4" height="5.4"/>
	<rect x="31.6" y="122.8" class="st19" width="5.4" height="5.4"/>
	<rect x="37" y="122.8" class="st21" width="5.4" height="5.4"/>
	<rect x="42.4" y="122.8" class="st22" width="5.4" height="5.4"/>
	<rect x="47.7" y="122.8" class="st17" width="5.4" height="5.4"/>
	<rect x="53.1" y="122.8" class="st17" width="5.4" height="5.4"/>
	<rect x="58.5" y="122.8" class="st17" width="5.4" height="5.4"/>
	<rect x="63.8" y="122.8" class="st17" width="5.4" height="5.4"/>
	<rect x="69.2" y="122.8" class="st14" width="5.4" height="5.4"/>
	<rect x="74.5" y="122.8" class="st14" width="5.4" height="5.4"/>
	<rect x="79.9" y="122.8" class="st14" width="5.4" height="5.4"/>
	<rect x="85.3" y="122.8" class="st14" width="5.4" height="5.4"/>
	<rect x="90.6" y="122.8" class="st22" width="5.4" height="5.4"/>
	<rect x="96" y="122.8" class="st22" width="5.4" height="5.4"/>
	<rect x="101.4" y="122.8" class="st14" width="5.4" height="5.4"/>
	<rect x="106.7" y="122.8" class="st14" width="5.4" height="5.4"/>
	<rect x="112.1" y="122.8" class="st14" width="5.4" height="5.4"/>
	<rect x="117.5" y="122.8" class="st14" width="5.4" height="5.4"/>
	<rect x="122.8" y="122.8" class="st17" width="5.4" height="5.4"/>
	<rect x="128.2" y="122.8" class="st17" width="5.4" height="5.4"/>
	<rect x="133.5" y="122.8" class="st17" width="5.4" height="5.4"/>
	<rect x="138.9" y="122.8" class="st17" width="5.4" height="5.4"/>
	<rect x="144.3" y="122.8" class="st22" width="5.4" height="5.4"/>
	<rect x="149.6" y="122.8" class="st21" width="5.4" height="5.4"/>
	<rect x="155" y="122.8" class="st3" width="5.4" height="5.4"/>
	<rect x="160.4" y="122.8" class="st0" width="5.4" height="5.4"/>
	<rect x="31.6" y="128.2" class="st0" width="5.4" height="5.4"/>
	<rect x="37" y="128.2" class="st19" width="5.4" height="5.4"/>
	<rect x="42.4" y="128.2" class="st22" width="5.4" height="5.4"/>
	<rect x="47.7" y="128.2" class="st17" width="5.4" height="5.4"/>
	<rect x="53.1" y="128.2" class="st17" width="5.4" height="5.4"/>
	<rect x="58.5" y="128.2" class="st17" width="5.4" height="5.4"/>
	<rect x="63.8" y="128.2" class="st17" width="5.4" height="5.4"/>
	<rect x="69.2" y="128.2" class="st17" width="5.4" height="5.4"/>
	<rect x="74.5" y="128.2" class="st13" width="5.4" height="5.4"/>
	<rect x="79.9" y="128.2" class="st14" width="5.4" height="5.4"/>
	<rect x="85.3" y="128.2" class="st14" width="5.4" height="5.4"/>
	<rect x="90.6" y="128.2" class="st13" width="5.4" height="5.4"/>
	<rect x="96" y="128.2" class="st13" width="5.4" height="5.4"/>
	<rect x="101.4" y="128.2" class="st14" width="5.4" height="5.4"/>
	<rect x="106.7" y="128.2" class="st14" width="5.4" height="5.4"/>
	<rect x="112.1" y="128.2" class="st13" width="5.4" height="5.4"/>
	<rect x="117.5" y="128.2" class="st17" width="5.4" height="5.4"/>
	<rect x="122.8" y="128.2" class="st17" width="5.4" height="5.4"/>
	<rect x="128.2" y="128.2" class="st17" width="5.4" height="5.4"/>
	<rect x="133.5" y="128.2" class="st17" width="5.4" height="5.4"/>
	<rect x="138.9" y="128.2" class="st17" width="5.4" height="5.4"/>
	<rect x="144.3" y="128.2" class="st22" width="5.4" height="5.4"/>
	<rect x="149.6" y="128.2" class="st7" width="5.4" height="5.4"/>
	<rect x="155" y="128.2" class="st0" width="5.4" height="5.4"/>
	<rect x="37" y="133.5" class="st0" width="5.4" height="5.4"/>
	<rect x="42.4" y="133.5" class="st1" width="5.4" height="5.4"/>
	<rect x="47.7" y="133.5" class="st22" width="5.4" height="5.4"/>
	<rect x="53.1" y="133.5" class="st17" width="5.4" height="5.4"/>
	<rect x="58.5" y="133.5" class="st17" width="5.4" height="5.4"/>
	<rect x="63.8" y="133.5" class="st17" width="5.4" height="5.4"/>
	<rect x="69.2" y="133.5" class="st17" width="5.4" height="5.4"/>
	<rect x="74.5" y="133.5" class="st22" width="5.4" height="5.4"/>
	<rect x="79.9" y="133.5" class="st13" width="5.4" height="5.4"/>
	<rect x="85.3" y="133.5" class="st13" width="5.4" height="5.4"/>
	<rect x="90.6" y="133.5" class="st29" width="5.4" height="5.4"/>
	<rect x="96" y="133.5" class="st30" width="5.4" height="5.4"/>
	<rect x="101.4" y="133.5" class="st13" width="5.4" height="5.4"/>
	<rect x="106.7" y="133.5" class="st13" width="5.4" height="5.4"/>
	<rect x="112.1" y="133.5" class="st22" width="5.4" height="5.4"/>
	<rect x="117.5" y="133.5" class="st17" width="5.4" height="5.4"/>
	<rect x="122.8" y="133.5" class="st17" width="5.4" height="5.4"/>
	<rect x="128.2" y="133.5" class="st17" width="5.4" height="5.4"/>
	<rect x="133.5" y="133.5" class="st17" width="5.4" height="5.4"/>
	<rect x="138.9" y="133.5" class="st22" width="5.4" height="5.4"/>
	<rect x="144.3" y="133.5" class="st3" width="5.4" height="5.4"/>
	<rect x="149.6" y="133.5" class="st0" width="5.4" height="5.4"/>
	<rect x="42.4" y="138.9" class="st0" width="5.4" height="5.4"/>
	<rect x="47.7" y="138.9" class="st19" width="5.4" height="5.4"/>
	<rect x="53.1" y="138.9" class="st22" width="5.4" height="5.4"/>
	<rect x="58.5" y="138.9" class="st22" width="5.4" height="5.4"/>
	<rect x="63.8" y="138.9" class="st21" width="5.4" height="5.4"/>
	<rect x="69.2" y="138.9" class="st17" width="5.4" height="5.4"/>
	<rect x="74.5" y="138.9" class="st17" width="5.4" height="5.4"/>
	<rect x="79.9" y="138.9" class="st22" width="5.4" height="5.4"/>
	<rect x="85.3" y="138.9" class="st29" width="5.4" height="5.4"/>
	<rect x="90.6" y="138.9" class="st25" width="5.4" height="5.4"/>
	<rect x="96" y="138.9" class="st28" width="5.4" height="5.4"/>
	<rect x="101.4" y="138.9" class="st30" width="5.4" height="5.4"/>
	<rect x="106.7" y="138.9" class="st22" width="5.4" height="5.4"/>
	<rect x="112.1" y="138.9" class="st17" width="5.4" height="5.4"/>
	<rect x="117.5" y="138.9" class="st17" width="5.4" height="5.4"/>
	<rect x="122.8" y="138.9" class="st21" width="5.4" height="5.4"/>
	<rect x="128.2" y="138.9" class="st22" width="5.4" height="5.4"/>
	<rect x="133.5" y="138.9" class="st22" width="5.4" height="5.4"/>
	<rect x="138.9" y="138.9" class="st7" width="5.4" height="5.4"/>
	<rect x="144.3" y="138.9" class="st0" width="5.4" height="5.4"/>
	<rect x="47.7" y="144.3" class="st0" width="5.4" height="5.4"/>
	<rect x="53.1" y="144.3" class="st1" width="5.4" height="5.4"/>
	<rect x="58.5" y="144.3" class="st31" width="5.4" height="5.4"/>
	<rect x="63.8" y="144.3" class="st21" width="5.4" height="5.4"/>
	<rect x="69.2" y="144.3" class="st21" width="5.4" height="5.4"/>
	<rect x="74.5" y="144.3" class="st17" width="5.4" height="5.4"/>
	<rect x="79.9" y="144.3" class="st17" width="5.4" height="5.4"/>
	<rect x="85.3" y="144.3" class="st25" width="5.4" height="5.4"/>
	<rect x="90.6" y="144.3" class="st25" width="5.4" height="5.4"/>
	<rect x="96" y="144.3" class="st28" width="5.4" height="5.4"/>
	<rect x="101.4" y="144.3" class="st28" width="5.4" height="5.4"/>
	<rect x="106.7" y="144.3" class="st17" width="5.4" height="5.4"/>
	<rect x="112.1" y="144.3" class="st17" width="5.4" height="5.4"/>
	<rect x="117.5" y="144.3" class="st21" width="5.4" height="5.4"/>
	<rect x="122.8" y="144.3" class="st21" width="5.4" height="5.4"/>
	<rect x="128.2" y="144.3" class="st31" width="5.4" height="5.4"/>
	<rect x="133.5" y="144.3" class="st7" width="5.4" height="5.4"/>
	<rect x="138.9" y="144.3" class="st0" width="5.4" height="5.4"/>
	<rect x="53.1" y="149.6" class="st0" width="5.4" height="5.4"/>
	<rect x="58.5" y="149.6" class="st0" width="5.4" height="5.4"/>
	<rect x="63.8" y="149.6" class="st19" width="5.4" height="5.4"/>
	<rect x="69.2" y="149.6" class="st19" width="5.4" height="5.4"/>
	<rect x="74.5" y="149.6" class="st19" width="5.4" height="5.4"/>
	<rect x="79.9" y="149.6" class="st31" width="5.4" height="5.4"/>
	<rect x="85.3" y="149.6" class="st25" width="5.4" height="5.4"/>
	<rect x="90.6" y="149.6" class="st25" width="5.4" height="5.4"/>
	<rect x="96" y="149.6" class="st28" width="5.4" height="5.4"/>
	<rect x="101.4" y="149.6" class="st28" width="5.4" height="5.4"/>
	<rect x="106.7" y="149.6" class="st31" width="5.4" height="5.4"/>
	<rect x="112.1" y="149.6" class="st32" width="5.4" height="5.4"/>
	<rect x="117.5" y="149.6" class="st32" width="5.4" height="5.4"/>
	<rect x="122.8" y="149.6" class="st32" width="5.4" height="5.4"/>
	<rect x="128.2" y="149.6" class="st0" width="5.4" height="5.4"/>
	<rect x="133.5" y="149.6" class="st0" width="5.4" height="5.4"/>
	<rect x="63.8" y="155" class="st0" width="5.4" height="5.4"/>
	<rect x="69.2" y="155" class="st0" width="5.4" height="5.4"/>
	<rect x="74.5" y="155" class="st0" width="5.4" height="5.4"/>
	<rect x="79.9" y="155" class="st0" width="5.4" height="5.4"/>
	<rect x="85.3" y="155" class="st19" width="5.4" height="5.4"/>
	<rect x="90.6" y="155" class="st25" width="5.4" height="5.4"/>
	<rect x="96" y="155" class="st28" width="5.4" height="5.4"/>
	<rect x="101.4" y="155" class="st32" width="5.4" height="5.4"/>
	<rect x="106.7" y="155" class="st0" width="5.4" height="5.4"/>
	<rect x="112.1" y="155" class="st0" width="5.4" height="5.4"/>
	<rect x="117.5" y="155" class="st0" width="5.4" height="5.4"/>
	<rect x="122.8" y="155" class="st0" width="5.4" height="5.4"/>
	<rect x="85.3" y="160.4" class="st0" width="5.4" height="5.4"/>
	<rect x="90.6" y="160.4" class="st19" width="5.4" height="5.4"/>
	<rect x="96" y="160.4" class="st31" width="5.4" height="5.4"/>
	<rect x="101.4" y="160.4" class="st0" width="5.4" height="5.4"/>
	<rect x="90.6" y="165.7" class="st0" width="5.4" height="5.4"/>
	<rect x="96" y="165.7" class="st0" width="5.4" height="5.4"/>
</g>
</svg>
