<?xml version="1.0" encoding="UTF-8"?><svg id="Layer_1" xmlns="http://www.w3.org/2000/svg" viewBox="0 0 500 430"><defs><style>.cls-1,.cls-2{stroke:#914938;stroke-miterlimit:10;stroke-width:2px;}.cls-1,.cls-3{fill:#914938;}.cls-4{fill:#f4ebd4;font-family:Roboto-Bold, Roboto;font-size:20.36px;font-weight:700;}.cls-2{fill:none;}.cls-3{stroke-width:0px;}</style></defs><path class="cls-3" d="m232.9,267.12c12.24-6.12,24.12-8.28,35.64-8.28,18.36,0,31.68,14.04,31.68,36.72,0,9.36-1.08,20.52-1.08,29.16,0,36.72,21.6,36.72,52.56,36.72,15.84,0,33.84-1.08,46.8-3.24,0,16.2,1.08,25.56,1.08,25.56-14.04,1.44-30.96,2.16-46.8,2.16-14.76,0-28.08-.72-37.44-2.16-25.92-3.96-40.68-23.04-41.04-44.28,0-8.28.72-24.48.72-35.28,0-15.12-5.76-23.76-18.36-23.76-17.28,0-43.92,10.08-64.44,29.88-20.88,20.52-60.12,60.12-72.36,74.52,0,0-3.96-5.04-19.44-19.08,34.2-34.92,147.24-144.72,183.96-180.36-26.28,2.52-108,7.2-149.04,9.36-1.08,2.16-2.88,3.6-5.76,3.96l-2.16-28.8c50.4-1.44,145.08-6.12,181.44-9.36l5.4-3.24,20.88,19.08c-2.16,1.8-4.68,2.52-8.64,2.88-22.68,21.24-66.96,61.92-93.6,87.48v.36Zm90.36-144c-38.52-11.16-106.2-21.96-154.08-24.12l5.4-24.12c49.68,2.16,114.48,11.88,155.52,23.76l-6.84,24.48Z"/><path class="cls-2" d="m185.78,60.17s61.74,3.89,127.97,22.79"/><circle class="cls-1" cx="153.59" cy="60.17" r="16.1"/><text class="cls-4" transform="translate(147.75 67.48)"><tspan x="0" y="0">1</tspan></text><polygon class="cls-1" points="311.4 82.35 312.84 77.83 317.7 81.87 322.57 85.91 316.26 86.4 309.96 86.88 311.4 82.35"/><path class="cls-2" d="m127.42,156.92s72.04-.52,145.71-6.79"/><path class="cls-2" d="m336.7,191.89s-40.57,37.64-53.48,49.7"/><path class="cls-2" d="m180.51,335.77s39.84-50.62,72.35-38.42c20.05,7.52,8.44,51.05,9.33,51.48"/><polygon class="cls-1" points="271.81 150.13 271.32 145.41 277.39 147.17 283.47 148.94 277.88 151.9 272.29 154.86 271.81 150.13"/><polygon class="cls-1" points="283 241.3 286.27 244.74 280.39 247.05 274.5 249.37 277.11 243.61 279.73 237.85 283 241.3"/><polygon class="cls-1" points="262.9 344.31 267.56 345.23 264.09 350.52 260.63 355.81 259.43 349.6 258.24 343.39 262.9 344.31"/><circle class="cls-1" cx="135.98" cy="130.25" r="16.1"/><text class="cls-4" transform="translate(130.14 137.56)"><tspan x="0" y="0">2</tspan></text></svg>