<?xml version="1.0" encoding="utf-8"?>
<!-- Generator: Adobe Illustrator 27.9.0, SVG Export Plug-In . SVG Version: 6.00 Build 0)  -->
<svg version="1.1" id="Layer_1" shape-rendering="crispEdges"
	 xmlns="http://www.w3.org/2000/svg" xmlns:xlink="http://www.w3.org/1999/xlink" x="0px" y="0px" viewBox="0 0 192 192"
	 style="enable-background:new 0 0 192 192;" xml:space="preserve">
<style type="text/css">
	.st0{fill:#5CABE1;}
	.st1{fill:#8E3465;}
	.st2{fill:#AE5269;}
	.st3{fill:#934D52;}
	.st4{fill:#E17557;}
	.st5{fill:#E4895D;}
	.st6{fill:#E7A55D;}
	.st7{fill:#EA9571;}
	.st8{fill:#CD694F;}
	.st9{fill:#8D3934;}
	.st10{fill:#9B433E;}
	.st11{fill:#B3534E;}
	.st12{fill:#D65A70;}
	.st13{fill:#C33C4A;}
	.st14{fill:#D1584A;}
	.st15{fill:#E6A974;}
</style>
<g>
	<rect x="65.5" y="16" class="st0" width="5.6" height="5.6"/>
	<rect x="71" y="16" class="st0" width="5.6" height="5.6"/>
	<rect x="76.6" y="16" class="st0" width="5.6" height="5.6"/>
	<rect x="82.1" y="16" class="st0" width="5.6" height="5.6"/>
	<rect x="87.7" y="16" class="st0" width="5.6" height="5.6"/>
	<rect x="93.2" y="16" class="st0" width="5.6" height="5.6"/>
	<rect x="98.8" y="16" class="st0" width="5.6" height="5.6"/>
	<rect x="104.3" y="16" class="st0" width="5.6" height="5.6"/>
	<rect x="109.9" y="16" class="st0" width="5.6" height="5.6"/>
	<rect x="115.4" y="16" class="st0" width="5.6" height="5.6"/>
	<rect x="59.9" y="21.6" class="st0" width="5.6" height="5.6"/>
	<rect x="65.5" y="21.6" class="st1" width="5.6" height="5.6"/>
	<rect x="71" y="21.6" class="st2" width="5.6" height="5.6"/>
	<rect x="76.6" y="21.6" class="st1" width="5.6" height="5.6"/>
	<rect x="82.1" y="21.6" class="st3" width="5.6" height="5.6"/>
	<rect x="87.7" y="21.6" class="st3" width="5.6" height="5.6"/>
	<rect x="93.2" y="21.6" class="st3" width="5.6" height="5.6"/>
	<rect x="98.8" y="21.6" class="st2" width="5.6" height="5.6"/>
	<rect x="104.3" y="21.6" class="st2" width="5.6" height="5.6"/>
	<rect x="109.9" y="21.6" class="st2" width="5.6" height="5.6"/>
	<rect x="115.4" y="21.6" class="st2" width="5.6" height="5.6"/>
	<rect x="121" y="21.6" class="st0" width="5.6" height="5.6"/>
	<rect x="54.4" y="27.1" class="st0" width="5.6" height="5.6"/>
	<rect x="59.9" y="27.1" class="st2" width="5.6" height="5.6"/>
	<rect x="65.5" y="27.1" class="st4" width="5.6" height="5.6"/>
	<rect x="71" y="27.1" class="st4" width="5.6" height="5.6"/>
	<rect x="76.6" y="27.1" class="st4" width="5.6" height="5.6"/>
	<rect x="82.1" y="27.1" class="st5" width="5.6" height="5.6"/>
	<rect x="87.7" y="27.1" class="st5" width="5.6" height="5.6"/>
	<rect x="93.2" y="27.1" class="st5" width="5.6" height="5.6"/>
	<rect x="98.8" y="27.1" class="st6" width="5.6" height="5.6"/>
	<rect x="104.3" y="27.1" class="st6" width="5.6" height="5.6"/>
	<rect x="109.9" y="27.1" class="st6" width="5.6" height="5.6"/>
	<rect x="115.4" y="27.1" class="st6" width="5.6" height="5.6"/>
	<rect x="121" y="27.1" class="st2" width="5.6" height="5.6"/>
	<rect x="126.5" y="27.1" class="st0" width="5.6" height="5.6"/>
	<rect x="48.8" y="32.7" class="st0" width="5.6" height="5.6"/>
	<rect x="54.4" y="32.7" class="st2" width="5.6" height="5.6"/>
	<rect x="59.9" y="32.7" class="st4" width="5.6" height="5.6"/>
	<rect x="65.5" y="32.7" class="st7" width="5.6" height="5.6"/>
	<rect x="71" y="32.7" class="st7" width="5.6" height="5.6"/>
	<rect x="76.6" y="32.7" class="st7" width="5.6" height="5.6"/>
	<rect x="82.1" y="32.7" class="st7" width="5.6" height="5.6"/>
	<rect x="87.7" y="32.7" class="st7" width="5.6" height="5.6"/>
	<rect x="93.2" y="32.7" class="st7" width="5.6" height="5.6"/>
	<rect x="98.8" y="32.7" class="st7" width="5.6" height="5.6"/>
	<rect x="104.3" y="32.7" class="st7" width="5.6" height="5.6"/>
	<rect x="109.9" y="32.7" class="st7" width="5.6" height="5.6"/>
	<rect x="115.4" y="32.7" class="st7" width="5.6" height="5.6"/>
	<rect x="121" y="32.7" class="st6" width="5.6" height="5.6"/>
	<rect x="126.5" y="32.7" class="st2" width="5.6" height="5.6"/>
	<rect x="132.1" y="32.7" class="st0" width="5.6" height="5.6"/>
	<rect x="43.3" y="38.2" class="st0" width="5.6" height="5.6"/>
	<rect x="48.8" y="38.2" class="st2" width="5.6" height="5.6"/>
	<rect x="54.4" y="38.2" class="st8" width="5.6" height="5.6"/>
	<rect x="59.9" y="38.2" class="st8" width="5.6" height="5.6"/>
	<rect x="65.5" y="38.2" class="st8" width="5.6" height="5.6"/>
	<rect x="71" y="38.2" class="st9" width="5.6" height="5.6"/>
	<rect x="76.6" y="38.2" class="st10" width="5.6" height="5.6"/>
	<rect x="82.1" y="38.2" class="st10" width="5.6" height="5.6"/>
	<rect x="87.7" y="38.2" class="st11" width="5.6" height="5.6"/>
	<rect x="93.2" y="38.2" class="st11" width="5.6" height="5.6"/>
	<rect x="98.8" y="38.2" class="st11" width="5.6" height="5.6"/>
	<rect x="104.3" y="38.2" class="st11" width="5.6" height="5.6"/>
	<rect x="109.9" y="38.2" class="st11" width="5.6" height="5.6"/>
	<rect x="115.4" y="38.2" class="st7" width="5.6" height="5.6"/>
	<rect x="121" y="38.2" class="st7" width="5.6" height="5.6"/>
	<rect x="126.5" y="38.2" class="st6" width="5.6" height="5.6"/>
	<rect x="132.1" y="38.2" class="st2" width="5.6" height="5.6"/>
	<rect x="137.6" y="38.2" class="st0" width="5.6" height="5.6"/>
	<rect x="43.3" y="43.8" class="st0" width="5.6" height="5.6"/>
	<rect x="48.8" y="43.8" class="st1" width="5.6" height="5.6"/>
	<rect x="54.4" y="43.8" class="st4" width="5.6" height="5.6"/>
	<rect x="59.9" y="43.8" class="st12" width="5.6" height="5.6"/>
	<rect x="65.5" y="43.8" class="st9" width="5.6" height="5.6"/>
	<rect x="71" y="43.8" class="st13" width="5.6" height="5.6"/>
	<rect x="76.6" y="43.8" class="st13" width="5.6" height="5.6"/>
	<rect x="82.1" y="43.8" class="st14" width="5.6" height="5.6"/>
	<rect x="87.7" y="43.8" class="st7" width="5.6" height="5.6"/>
	<rect x="93.2" y="43.8" class="st15" width="5.6" height="5.6"/>
	<rect x="98.8" y="43.8" class="st7" width="5.6" height="5.6"/>
	<rect x="104.3" y="43.8" class="st14" width="5.6" height="5.6"/>
	<rect x="109.9" y="43.8" class="st13" width="5.6" height="5.6"/>
	<rect x="115.4" y="43.8" class="st11" width="5.6" height="5.6"/>
	<rect x="121" y="43.8" class="st7" width="5.6" height="5.6"/>
	<rect x="126.5" y="43.8" class="st7" width="5.6" height="5.6"/>
	<rect x="132.1" y="43.8" class="st6" width="5.6" height="5.6"/>
	<rect x="137.6" y="43.8" class="st3" width="5.6" height="5.6"/>
	<rect x="143.2" y="43.8" class="st0" width="5.6" height="5.6"/>
	<rect x="37.7" y="49.3" class="st0" width="5.6" height="5.6"/>
	<rect x="43.3" y="49.3" class="st2" width="5.6" height="5.6"/>
	<rect x="48.8" y="49.3" class="st12" width="5.6" height="5.6"/>
	<rect x="54.4" y="49.3" class="st4" width="5.6" height="5.6"/>
	<rect x="59.9" y="49.3" class="st9" width="5.6" height="5.6"/>
	<rect x="65.5" y="49.3" class="st13" width="5.6" height="5.6"/>
	<rect x="71" y="49.3" class="st14" width="5.6" height="5.6"/>
	<rect x="76.6" y="49.3" class="st14" width="5.6" height="5.6"/>
	<rect x="82.1" y="49.3" class="st7" width="5.6" height="5.6"/>
	<rect x="87.7" y="49.3" class="st7" width="5.6" height="5.6"/>
	<rect x="93.2" y="49.3" class="st15" width="5.6" height="5.6"/>
	<rect x="98.8" y="49.3" class="st7" width="5.6" height="5.6"/>
	<rect x="104.3" y="49.3" class="st7" width="5.6" height="5.6"/>
	<rect x="109.9" y="49.3" class="st14" width="5.6" height="5.6"/>
	<rect x="115.4" y="49.3" class="st13" width="5.6" height="5.6"/>
	<rect x="121" y="49.3" class="st11" width="5.6" height="5.6"/>
	<rect x="126.5" y="49.3" class="st7" width="5.6" height="5.6"/>
	<rect x="132.1" y="49.3" class="st7" width="5.6" height="5.6"/>
	<rect x="137.6" y="49.3" class="st6" width="5.6" height="5.6"/>
	<rect x="143.2" y="49.3" class="st3" width="5.6" height="5.6"/>
	<rect x="148.7" y="49.3" class="st0" width="5.6" height="5.6"/>
	<rect x="37.7" y="54.9" class="st0" width="5.6" height="5.6"/>
	<rect x="43.3" y="54.9" class="st2" width="5.6" height="5.6"/>
	<rect x="48.8" y="54.9" class="st4" width="5.6" height="5.6"/>
	<rect x="54.4" y="54.9" class="st12" width="5.6" height="5.6"/>
	<rect x="59.9" y="54.9" class="st9" width="5.6" height="5.6"/>
	<rect x="65.5" y="54.9" class="st13" width="5.6" height="5.6"/>
	<rect x="71" y="54.9" class="st14" width="5.6" height="5.6"/>
	<rect x="76.6" y="54.9" class="st7" width="5.6" height="5.6"/>
	<rect x="82.1" y="54.9" class="st7" width="5.6" height="5.6"/>
	<rect x="87.7" y="54.9" class="st15" width="5.6" height="5.6"/>
	<rect x="93.2" y="54.9" class="st7" width="5.6" height="5.6"/>
	<rect x="98.8" y="54.9" class="st7" width="5.6" height="5.6"/>
	<rect x="104.3" y="54.9" class="st7" width="5.6" height="5.6"/>
	<rect x="109.9" y="54.9" class="st7" width="5.6" height="5.6"/>
	<rect x="115.4" y="54.9" class="st14" width="5.6" height="5.6"/>
	<rect x="121" y="54.9" class="st13" width="5.6" height="5.6"/>
	<rect x="126.5" y="54.9" class="st11" width="5.6" height="5.6"/>
	<rect x="132.1" y="54.9" class="st7" width="5.6" height="5.6"/>
	<rect x="137.6" y="54.9" class="st7" width="5.6" height="5.6"/>
	<rect x="143.2" y="54.9" class="st6" width="5.6" height="5.6"/>
	<rect x="148.7" y="54.9" class="st0" width="5.6" height="5.6"/>
	<rect x="37.7" y="60.4" class="st0" width="5.6" height="5.6"/>
	<rect x="43.3" y="60.4" class="st2" width="5.6" height="5.6"/>
	<rect x="48.8" y="60.4" class="st4" width="5.6" height="5.6"/>
	<rect x="54.4" y="60.4" class="st12" width="5.6" height="5.6"/>
	<rect x="59.9" y="60.4" class="st10" width="5.6" height="5.6"/>
	<rect x="65.5" y="60.4" class="st13" width="5.6" height="5.6"/>
	<rect x="71" y="60.4" class="st14" width="5.6" height="5.6"/>
	<rect x="76.6" y="60.4" class="st7" width="5.6" height="5.6"/>
	<rect x="82.1" y="60.4" class="st15" width="5.6" height="5.6"/>
	<rect x="87.7" y="60.4" class="st7" width="5.6" height="5.6"/>
	<rect x="93.2" y="60.4" class="st7" width="5.6" height="5.6"/>
	<rect x="98.8" y="60.4" class="st4" width="5.6" height="5.6"/>
	<rect x="104.3" y="60.4" class="st4" width="5.6" height="5.6"/>
	<rect x="109.9" y="60.4" class="st4" width="5.6" height="5.6"/>
	<rect x="115.4" y="60.4" class="st4" width="5.6" height="5.6"/>
	<rect x="121" y="60.4" class="st13" width="5.6" height="5.6"/>
	<rect x="126.5" y="60.4" class="st11" width="5.6" height="5.6"/>
	<rect x="132.1" y="60.4" class="st7" width="5.6" height="5.6"/>
	<rect x="137.6" y="60.4" class="st7" width="5.6" height="5.6"/>
	<rect x="143.2" y="60.4" class="st4" width="5.6" height="5.6"/>
	<rect x="148.7" y="60.4" class="st0" width="5.6" height="5.6"/>
	<rect x="37.7" y="66" class="st0" width="5.6" height="5.6"/>
	<rect x="43.3" y="66" class="st2" width="5.6" height="5.6"/>
	<rect x="48.8" y="66" class="st4" width="5.6" height="5.6"/>
	<rect x="54.4" y="66" class="st9" width="5.6" height="5.6"/>
	<rect x="59.9" y="66" class="st13" width="5.6" height="5.6"/>
	<rect x="65.5" y="66" class="st14" width="5.6" height="5.6"/>
	<rect x="71" y="66" class="st7" width="5.6" height="5.6"/>
	<rect x="76.6" y="66" class="st15" width="5.6" height="5.6"/>
	<rect x="82.1" y="66" class="st7" width="5.6" height="5.6"/>
	<rect x="87.7" y="66" class="st4" width="5.6" height="5.6"/>
	<rect x="93.2" y="66" class="st4" width="5.6" height="5.6"/>
	<rect x="98.8" y="66" class="st4" width="5.6" height="5.6"/>
	<rect x="104.3" y="66" class="st4" width="5.6" height="5.6"/>
	<rect x="109.9" y="66" class="st4" width="5.6" height="5.6"/>
	<rect x="115.4" y="66" class="st4" width="5.6" height="5.6"/>
	<rect x="121" y="66" class="st13" width="5.6" height="5.6"/>
	<rect x="126.5" y="66" class="st11" width="5.6" height="5.6"/>
	<rect x="132.1" y="66" class="st7" width="5.6" height="5.6"/>
	<rect x="137.6" y="66" class="st7" width="5.6" height="5.6"/>
	<rect x="143.2" y="66" class="st4" width="5.6" height="5.6"/>
	<rect x="148.7" y="66" class="st0" width="5.6" height="5.6"/>
	<rect x="37.7" y="71.5" class="st0" width="5.6" height="5.6"/>
	<rect x="43.3" y="71.5" class="st2" width="5.6" height="5.6"/>
	<rect x="48.8" y="71.5" class="st4" width="5.6" height="5.6"/>
	<rect x="54.4" y="71.5" class="st10" width="5.6" height="5.6"/>
	<rect x="59.9" y="71.5" class="st13" width="5.6" height="5.6"/>
	<rect x="65.5" y="71.5" class="st14" width="5.6" height="5.6"/>
	<rect x="71" y="71.5" class="st15" width="5.6" height="5.6"/>
	<rect x="76.6" y="71.5" class="st7" width="5.6" height="5.6"/>
	<rect x="82.1" y="71.5" class="st4" width="5.6" height="5.6"/>
	<rect x="87.7" y="71.5" class="st4" width="5.6" height="5.6"/>
	<rect x="93.2" y="71.5" class="st4" width="5.6" height="5.6"/>
	<rect x="98.8" y="71.5" class="st4" width="5.6" height="5.6"/>
	<rect x="104.3" y="71.5" class="st4" width="5.6" height="5.6"/>
	<rect x="109.9" y="71.5" class="st4" width="5.6" height="5.6"/>
	<rect x="115.4" y="71.5" class="st13" width="5.6" height="5.6"/>
	<rect x="121" y="71.5" class="st13" width="5.6" height="5.6"/>
	<rect x="126.5" y="71.5" class="st11" width="5.6" height="5.6"/>
	<rect x="132.1" y="71.5" class="st7" width="5.6" height="5.6"/>
	<rect x="137.6" y="71.5" class="st7" width="5.6" height="5.6"/>
	<rect x="143.2" y="71.5" class="st7" width="5.6" height="5.6"/>
	<rect x="148.7" y="71.5" class="st0" width="5.6" height="5.6"/>
	<rect x="37.7" y="77.1" class="st0" width="5.6" height="5.6"/>
	<rect x="43.3" y="77.1" class="st2" width="5.6" height="5.6"/>
	<rect x="48.8" y="77.1" class="st8" width="5.6" height="5.6"/>
	<rect x="54.4" y="77.1" class="st9" width="5.6" height="5.6"/>
	<rect x="59.9" y="77.1" class="st13" width="5.6" height="5.6"/>
	<rect x="65.5" y="77.1" class="st14" width="5.6" height="5.6"/>
	<rect x="71" y="77.1" class="st15" width="5.6" height="5.6"/>
	<rect x="76.6" y="77.1" class="st7" width="5.6" height="5.6"/>
	<rect x="82.1" y="77.1" class="st4" width="5.6" height="5.6"/>
	<rect x="87.7" y="77.1" class="st4" width="5.6" height="5.6"/>
	<rect x="93.2" y="77.1" class="st4" width="5.6" height="5.6"/>
	<rect x="98.8" y="77.1" class="st4" width="5.6" height="5.6"/>
	<rect x="104.3" y="77.1" class="st4" width="5.6" height="5.6"/>
	<rect x="109.9" y="77.1" class="st14" width="5.6" height="5.6"/>
	<rect x="115.4" y="77.1" class="st13" width="5.6" height="5.6"/>
	<rect x="121" y="77.1" class="st11" width="5.6" height="5.6"/>
	<rect x="126.5" y="77.1" class="st7" width="5.6" height="5.6"/>
	<rect x="132.1" y="77.1" class="st15" width="5.6" height="5.6"/>
	<rect x="137.6" y="77.1" class="st7" width="5.6" height="5.6"/>
	<rect x="143.2" y="77.1" class="st7" width="5.6" height="5.6"/>
	<rect x="148.7" y="77.1" class="st0" width="5.6" height="5.6"/>
	<rect x="37.7" y="82.6" class="st0" width="5.6" height="5.6"/>
	<rect x="43.3" y="82.6" class="st1" width="5.6" height="5.6"/>
	<rect x="48.8" y="82.6" class="st8" width="5.6" height="5.6"/>
	<rect x="54.4" y="82.6" class="st9" width="5.6" height="5.6"/>
	<rect x="59.9" y="82.6" class="st13" width="5.6" height="5.6"/>
	<rect x="65.5" y="82.6" class="st14" width="5.6" height="5.6"/>
	<rect x="71" y="82.6" class="st15" width="5.6" height="5.6"/>
	<rect x="76.6" y="82.6" class="st7" width="5.6" height="5.6"/>
	<rect x="82.1" y="82.6" class="st4" width="5.6" height="5.6"/>
	<rect x="87.7" y="82.6" class="st4" width="5.6" height="5.6"/>
	<rect x="93.2" y="82.6" class="st4" width="5.6" height="5.6"/>
	<rect x="98.8" y="82.6" class="st4" width="5.6" height="5.6"/>
	<rect x="104.3" y="82.6" class="st14" width="5.6" height="5.6"/>
	<rect x="109.9" y="82.6" class="st11" width="5.6" height="5.6"/>
	<rect x="115.4" y="82.6" class="st11" width="5.6" height="5.6"/>
	<rect x="121" y="82.6" class="st7" width="5.6" height="5.6"/>
	<rect x="126.5" y="82.6" class="st15" width="5.6" height="5.6"/>
	<rect x="132.1" y="82.6" class="st7" width="5.6" height="5.6"/>
	<rect x="137.6" y="82.6" class="st7" width="5.6" height="5.6"/>
	<rect x="143.2" y="82.6" class="st7" width="5.6" height="5.6"/>
	<rect x="148.7" y="82.6" class="st0" width="5.6" height="5.6"/>
	<rect x="37.7" y="88.2" class="st0" width="5.6" height="5.6"/>
	<rect x="43.3" y="88.2" class="st1" width="5.6" height="5.6"/>
	<rect x="48.8" y="88.2" class="st8" width="5.6" height="5.6"/>
	<rect x="54.4" y="88.2" class="st9" width="5.6" height="5.6"/>
	<rect x="59.9" y="88.2" class="st13" width="5.6" height="5.6"/>
	<rect x="65.5" y="88.2" class="st14" width="5.6" height="5.6"/>
	<rect x="71" y="88.2" class="st15" width="5.6" height="5.6"/>
	<rect x="76.6" y="88.2" class="st7" width="5.6" height="5.6"/>
	<rect x="82.1" y="88.2" class="st4" width="5.6" height="5.6"/>
	<rect x="87.7" y="88.2" class="st4" width="5.6" height="5.6"/>
	<rect x="93.2" y="88.2" class="st4" width="5.6" height="5.6"/>
	<rect x="98.8" y="88.2" class="st4" width="5.6" height="5.6"/>
	<rect x="104.3" y="88.2" class="st11" width="5.6" height="5.6"/>
	<rect x="109.9" y="88.2" class="st7" width="5.6" height="5.6"/>
	<rect x="115.4" y="88.2" class="st7" width="5.6" height="5.6"/>
	<rect x="121" y="88.2" class="st7" width="5.6" height="5.6"/>
	<rect x="126.5" y="88.2" class="st11" width="5.6" height="5.6"/>
	<rect x="132.1" y="88.2" class="st7" width="5.6" height="5.6"/>
	<rect x="137.6" y="88.2" class="st7" width="5.6" height="5.6"/>
	<rect x="143.2" y="88.2" class="st7" width="5.6" height="5.6"/>
	<rect x="148.7" y="88.2" class="st0" width="5.6" height="5.6"/>
	<rect x="37.7" y="93.7" class="st0" width="5.6" height="5.6"/>
	<rect x="43.3" y="93.7" class="st3" width="5.6" height="5.6"/>
	<rect x="48.8" y="93.7" class="st12" width="5.6" height="5.6"/>
	<rect x="54.4" y="93.7" class="st8" width="5.6" height="5.6"/>
	<rect x="59.9" y="93.7" class="st10" width="5.6" height="5.6"/>
	<rect x="65.5" y="93.7" class="st14" width="5.6" height="5.6"/>
	<rect x="71" y="93.7" class="st15" width="5.6" height="5.6"/>
	<rect x="76.6" y="93.7" class="st7" width="5.6" height="5.6"/>
	<rect x="82.1" y="93.7" class="st4" width="5.6" height="5.6"/>
	<rect x="87.7" y="93.7" class="st4" width="5.6" height="5.6"/>
	<rect x="93.2" y="93.7" class="st4" width="5.6" height="5.6"/>
	<rect x="98.8" y="93.7" class="st4" width="5.6" height="5.6"/>
	<rect x="104.3" y="93.7" class="st7" width="5.6" height="5.6"/>
	<rect x="109.9" y="93.7" class="st7" width="5.6" height="5.6"/>
	<rect x="115.4" y="93.7" class="st11" width="5.6" height="5.6"/>
	<rect x="121" y="93.7" class="st11" width="5.6" height="5.6"/>
	<rect x="126.5" y="93.7" class="st13" width="5.6" height="5.6"/>
	<rect x="132.1" y="93.7" class="st11" width="5.6" height="5.6"/>
	<rect x="137.6" y="93.7" class="st7" width="5.6" height="5.6"/>
	<rect x="143.2" y="93.7" class="st7" width="5.6" height="5.6"/>
	<rect x="148.7" y="93.7" class="st0" width="5.6" height="5.6"/>
	<rect x="37.7" y="99.3" class="st0" width="5.6" height="5.6"/>
	<rect x="43.3" y="99.3" class="st1" width="5.6" height="5.6"/>
	<rect x="48.8" y="99.3" class="st8" width="5.6" height="5.6"/>
	<rect x="54.4" y="99.3" class="st12" width="5.6" height="5.6"/>
	<rect x="59.9" y="99.3" class="st9" width="5.6" height="5.6"/>
	<rect x="65.5" y="99.3" class="st14" width="5.6" height="5.6"/>
	<rect x="71" y="99.3" class="st7" width="5.6" height="5.6"/>
	<rect x="76.6" y="99.3" class="st7" width="5.6" height="5.6"/>
	<rect x="82.1" y="99.3" class="st4" width="5.6" height="5.6"/>
	<rect x="87.7" y="99.3" class="st4" width="5.6" height="5.6"/>
	<rect x="93.2" y="99.3" class="st4" width="5.6" height="5.6"/>
	<rect x="98.8" y="99.3" class="st4" width="5.6" height="5.6"/>
	<rect x="104.3" y="99.3" class="st4" width="5.6" height="5.6"/>
	<rect x="109.9" y="99.3" class="st11" width="5.6" height="5.6"/>
	<rect x="115.4" y="99.3" class="st13" width="5.6" height="5.6"/>
	<rect x="121" y="99.3" class="st13" width="5.6" height="5.6"/>
	<rect x="126.5" y="99.3" class="st13" width="5.6" height="5.6"/>
	<rect x="132.1" y="99.3" class="st11" width="5.6" height="5.6"/>
	<rect x="137.6" y="99.3" class="st7" width="5.6" height="5.6"/>
	<rect x="143.2" y="99.3" class="st7" width="5.6" height="5.6"/>
	<rect x="148.7" y="99.3" class="st0" width="5.6" height="5.6"/>
	<rect x="37.7" y="104.8" class="st0" width="5.6" height="5.6"/>
	<rect x="43.3" y="104.8" class="st1" width="5.6" height="5.6"/>
	<rect x="48.8" y="104.8" class="st4" width="5.6" height="5.6"/>
	<rect x="54.4" y="104.8" class="st12" width="5.6" height="5.6"/>
	<rect x="59.9" y="104.8" class="st9" width="5.6" height="5.6"/>
	<rect x="65.5" y="104.8" class="st4" width="5.6" height="5.6"/>
	<rect x="71" y="104.8" class="st7" width="5.6" height="5.6"/>
	<rect x="76.6" y="104.8" class="st7" width="5.6" height="5.6"/>
	<rect x="82.1" y="104.8" class="st4" width="5.6" height="5.6"/>
	<rect x="87.7" y="104.8" class="st4" width="5.6" height="5.6"/>
	<rect x="93.2" y="104.8" class="st4" width="5.6" height="5.6"/>
	<rect x="98.8" y="104.8" class="st4" width="5.6" height="5.6"/>
	<rect x="104.3" y="104.8" class="st4" width="5.6" height="5.6"/>
	<rect x="109.9" y="104.8" class="st14" width="5.6" height="5.6"/>
	<rect x="115.4" y="104.8" class="st14" width="5.6" height="5.6"/>
	<rect x="121" y="104.8" class="st13" width="5.6" height="5.6"/>
	<rect x="126.5" y="104.8" class="st11" width="5.6" height="5.6"/>
	<rect x="132.1" y="104.8" class="st7" width="5.6" height="5.6"/>
	<rect x="137.6" y="104.8" class="st7" width="5.6" height="5.6"/>
	<rect x="143.2" y="104.8" class="st7" width="5.6" height="5.6"/>
	<rect x="148.7" y="104.8" class="st0" width="5.6" height="5.6"/>
	<rect x="43.3" y="110.4" class="st0" width="5.6" height="5.6"/>
	<rect x="48.8" y="110.4" class="st1" width="5.6" height="5.6"/>
	<rect x="54.4" y="110.4" class="st12" width="5.6" height="5.6"/>
	<rect x="59.9" y="110.4" class="st9" width="5.6" height="5.6"/>
	<rect x="65.5" y="110.4" class="st4" width="5.6" height="5.6"/>
	<rect x="71" y="110.4" class="st7" width="5.6" height="5.6"/>
	<rect x="76.6" y="110.4" class="st7" width="5.6" height="5.6"/>
	<rect x="82.1" y="110.4" class="st7" width="5.6" height="5.6"/>
	<rect x="87.7" y="110.4" class="st4" width="5.6" height="5.6"/>
	<rect x="93.2" y="110.4" class="st4" width="5.6" height="5.6"/>
	<rect x="98.8" y="110.4" class="st4" width="5.6" height="5.6"/>
	<rect x="104.3" y="110.4" class="st14" width="5.6" height="5.6"/>
	<rect x="109.9" y="110.4" class="st14" width="5.6" height="5.6"/>
	<rect x="115.4" y="110.4" class="st13" width="5.6" height="5.6"/>
	<rect x="121" y="110.4" class="st11" width="5.6" height="5.6"/>
	<rect x="126.5" y="110.4" class="st7" width="5.6" height="5.6"/>
	<rect x="132.1" y="110.4" class="st7" width="5.6" height="5.6"/>
	<rect x="137.6" y="110.4" class="st7" width="5.6" height="5.6"/>
	<rect x="143.2" y="110.4" class="st7" width="5.6" height="5.6"/>
	<rect x="148.7" y="110.4" class="st0" width="5.6" height="5.6"/>
	<rect x="43.3" y="115.9" class="st0" width="5.6" height="5.6"/>
	<rect x="48.8" y="115.9" class="st1" width="5.6" height="5.6"/>
	<rect x="54.4" y="115.9" class="st12" width="5.6" height="5.6"/>
	<rect x="59.9" y="115.9" class="st12" width="5.6" height="5.6"/>
	<rect x="65.5" y="115.9" class="st9" width="5.6" height="5.6"/>
	<rect x="71" y="115.9" class="st4" width="5.6" height="5.6"/>
	<rect x="76.6" y="115.9" class="st7" width="5.6" height="5.6"/>
	<rect x="82.1" y="115.9" class="st7" width="5.6" height="5.6"/>
	<rect x="87.7" y="115.9" class="st7" width="5.6" height="5.6"/>
	<rect x="93.2" y="115.9" class="st8" width="5.6" height="5.6"/>
	<rect x="98.8" y="115.9" class="st8" width="5.6" height="5.6"/>
	<rect x="104.3" y="115.9" class="st8" width="5.6" height="5.6"/>
	<rect x="109.9" y="115.9" class="st8" width="5.6" height="5.6"/>
	<rect x="115.4" y="115.9" class="st11" width="5.6" height="5.6"/>
	<rect x="121" y="115.9" class="st7" width="5.6" height="5.6"/>
	<rect x="126.5" y="115.9" class="st7" width="5.6" height="5.6"/>
	<rect x="132.1" y="115.9" class="st7" width="5.6" height="5.6"/>
	<rect x="137.6" y="115.9" class="st7" width="5.6" height="5.6"/>
	<rect x="143.2" y="115.9" class="st7" width="5.6" height="5.6"/>
	<rect x="148.7" y="115.9" class="st0" width="5.6" height="5.6"/>
	<rect x="48.8" y="121.5" class="st0" width="5.6" height="5.6"/>
	<rect x="54.4" y="121.5" class="st1" width="5.6" height="5.6"/>
	<rect x="59.9" y="121.5" class="st12" width="5.6" height="5.6"/>
	<rect x="65.5" y="121.5" class="st12" width="5.6" height="5.6"/>
	<rect x="71" y="121.5" class="st10" width="5.6" height="5.6"/>
	<rect x="76.6" y="121.5" class="st4" width="5.6" height="5.6"/>
	<rect x="82.1" y="121.5" class="st7" width="5.6" height="5.6"/>
	<rect x="87.7" y="121.5" class="st7" width="5.6" height="5.6"/>
	<rect x="93.2" y="121.5" class="st7" width="5.6" height="5.6"/>
	<rect x="98.8" y="121.5" class="st7" width="5.6" height="5.6"/>
	<rect x="104.3" y="121.5" class="st7" width="5.6" height="5.6"/>
	<rect x="109.9" y="121.5" class="st7" width="5.6" height="5.6"/>
	<rect x="115.4" y="121.5" class="st7" width="5.6" height="5.6"/>
	<rect x="121" y="121.5" class="st7" width="5.6" height="5.6"/>
	<rect x="126.5" y="121.5" class="st4" width="5.6" height="5.6"/>
	<rect x="132.1" y="121.5" class="st14" width="5.6" height="5.6"/>
	<rect x="137.6" y="121.5" class="st7" width="5.6" height="5.6"/>
	<rect x="143.2" y="121.5" class="st6" width="5.6" height="5.6"/>
	<rect x="148.7" y="121.5" class="st0" width="5.6" height="5.6"/>
	<rect x="54.4" y="127" class="st0" width="5.6" height="5.6"/>
	<rect x="59.9" y="127" class="st1" width="5.6" height="5.6"/>
	<rect x="65.5" y="127" class="st12" width="5.6" height="5.6"/>
	<rect x="71" y="127" class="st4" width="5.6" height="5.6"/>
	<rect x="76.6" y="127" class="st10" width="5.6" height="5.6"/>
	<rect x="82.1" y="127" class="st7" width="5.6" height="5.6"/>
	<rect x="87.7" y="127" class="st4" width="5.6" height="5.6"/>
	<rect x="93.2" y="127" class="st7" width="5.6" height="5.6"/>
	<rect x="98.8" y="127" class="st7" width="5.6" height="5.6"/>
	<rect x="104.3" y="127" class="st7" width="5.6" height="5.6"/>
	<rect x="109.9" y="127" class="st7" width="5.6" height="5.6"/>
	<rect x="115.4" y="127" class="st7" width="5.6" height="5.6"/>
	<rect x="121" y="127" class="st7" width="5.6" height="5.6"/>
	<rect x="126.5" y="127" class="st4" width="5.6" height="5.6"/>
	<rect x="132.1" y="127" class="st14" width="5.6" height="5.6"/>
	<rect x="137.6" y="127" class="st7" width="5.6" height="5.6"/>
	<rect x="143.2" y="127" class="st6" width="5.6" height="5.6"/>
	<rect x="148.7" y="127" class="st0" width="5.6" height="5.6"/>
	<rect x="59.9" y="132.6" class="st0" width="5.6" height="5.6"/>
	<rect x="65.5" y="132.6" class="st1" width="5.6" height="5.6"/>
	<rect x="71" y="132.6" class="st12" width="5.6" height="5.6"/>
	<rect x="76.6" y="132.6" class="st4" width="5.6" height="5.6"/>
	<rect x="82.1" y="132.6" class="st4" width="5.6" height="5.6"/>
	<rect x="87.7" y="132.6" class="st7" width="5.6" height="5.6"/>
	<rect x="93.2" y="132.6" class="st7" width="5.6" height="5.6"/>
	<rect x="98.8" y="132.6" class="st7" width="5.6" height="5.6"/>
	<rect x="104.3" y="132.6" class="st4" width="5.6" height="5.6"/>
	<rect x="109.9" y="132.6" class="st4" width="5.6" height="5.6"/>
	<rect x="115.4" y="132.6" class="st4" width="5.6" height="5.6"/>
	<rect x="121" y="132.6" class="st4" width="5.6" height="5.6"/>
	<rect x="126.5" y="132.6" class="st14" width="5.6" height="5.6"/>
	<rect x="132.1" y="132.6" class="st7" width="5.6" height="5.6"/>
	<rect x="137.6" y="132.6" class="st7" width="5.6" height="5.6"/>
	<rect x="143.2" y="132.6" class="st6" width="5.6" height="5.6"/>
	<rect x="148.7" y="132.6" class="st0" width="5.6" height="5.6"/>
	<rect x="65.5" y="138.1" class="st0" width="5.6" height="5.6"/>
	<rect x="71" y="138.1" class="st1" width="5.6" height="5.6"/>
	<rect x="76.6" y="138.1" class="st4" width="5.6" height="5.6"/>
	<rect x="82.1" y="138.1" class="st12" width="5.6" height="5.6"/>
	<rect x="87.7" y="138.1" class="st4" width="5.6" height="5.6"/>
	<rect x="93.2" y="138.1" class="st7" width="5.6" height="5.6"/>
	<rect x="98.8" y="138.1" class="st7" width="5.6" height="5.6"/>
	<rect x="104.3" y="138.1" class="st14" width="5.6" height="5.6"/>
	<rect x="109.9" y="138.1" class="st14" width="5.6" height="5.6"/>
	<rect x="115.4" y="138.1" class="st14" width="5.6" height="5.6"/>
	<rect x="121" y="138.1" class="st14" width="5.6" height="5.6"/>
	<rect x="126.5" y="138.1" class="st7" width="5.6" height="5.6"/>
	<rect x="132.1" y="138.1" class="st7" width="5.6" height="5.6"/>
	<rect x="137.6" y="138.1" class="st15" width="5.6" height="5.6"/>
	<rect x="143.2" y="138.1" class="st2" width="5.6" height="5.6"/>
	<rect x="148.7" y="138.1" class="st0" width="5.6" height="5.6"/>
	<rect x="71" y="143.7" class="st0" width="5.6" height="5.6"/>
	<rect x="76.6" y="143.7" class="st1" width="5.6" height="5.6"/>
	<rect x="82.1" y="143.7" class="st1" width="5.6" height="5.6"/>
	<rect x="87.7" y="143.7" class="st1" width="5.6" height="5.6"/>
	<rect x="93.2" y="143.7" class="st12" width="5.6" height="5.6"/>
	<rect x="98.8" y="143.7" class="st7" width="5.6" height="5.6"/>
	<rect x="104.3" y="143.7" class="st7" width="5.6" height="5.6"/>
	<rect x="109.9" y="143.7" class="st7" width="5.6" height="5.6"/>
	<rect x="115.4" y="143.7" class="st7" width="5.6" height="5.6"/>
	<rect x="121" y="143.7" class="st7" width="5.6" height="5.6"/>
	<rect x="126.5" y="143.7" class="st7" width="5.6" height="5.6"/>
	<rect x="132.1" y="143.7" class="st15" width="5.6" height="5.6"/>
	<rect x="137.6" y="143.7" class="st7" width="5.6" height="5.6"/>
	<rect x="143.2" y="143.7" class="st1" width="5.6" height="5.6"/>
	<rect x="148.7" y="143.7" class="st0" width="5.6" height="5.6"/>
	<rect x="76.6" y="149.2" class="st0" width="5.6" height="5.6"/>
	<rect x="82.1" y="149.2" class="st0" width="5.6" height="5.6"/>
	<rect x="87.7" y="149.2" class="st1" width="5.6" height="5.6"/>
	<rect x="93.2" y="149.2" class="st12" width="5.6" height="5.6"/>
	<rect x="98.8" y="149.2" class="st7" width="5.6" height="5.6"/>
	<rect x="104.3" y="149.2" class="st4" width="5.6" height="5.6"/>
	<rect x="109.9" y="149.2" class="st7" width="5.6" height="5.6"/>
	<rect x="115.4" y="149.2" class="st15" width="5.6" height="5.6"/>
	<rect x="121" y="149.2" class="st15" width="5.6" height="5.6"/>
	<rect x="126.5" y="149.2" class="st15" width="5.6" height="5.6"/>
	<rect x="132.1" y="149.2" class="st7" width="5.6" height="5.6"/>
	<rect x="137.6" y="149.2" class="st4" width="5.6" height="5.6"/>
	<rect x="143.2" y="149.2" class="st2" width="5.6" height="5.6"/>
	<rect x="148.7" y="149.2" class="st0" width="5.6" height="5.6"/>
	<rect x="87.7" y="154.8" class="st0" width="5.6" height="5.6"/>
	<rect x="93.2" y="154.8" class="st1" width="5.6" height="5.6"/>
	<rect x="98.8" y="154.8" class="st12" width="5.6" height="5.6"/>
	<rect x="104.3" y="154.8" class="st7" width="5.6" height="5.6"/>
	<rect x="109.9" y="154.8" class="st7" width="5.6" height="5.6"/>
	<rect x="115.4" y="154.8" class="st7" width="5.6" height="5.6"/>
	<rect x="121" y="154.8" class="st7" width="5.6" height="5.6"/>
	<rect x="126.5" y="154.8" class="st7" width="5.6" height="5.6"/>
	<rect x="132.1" y="154.8" class="st12" width="5.6" height="5.6"/>
	<rect x="137.6" y="154.8" class="st2" width="5.6" height="5.6"/>
	<rect x="143.2" y="154.8" class="st0" width="5.6" height="5.6"/>
	<rect x="93.2" y="160.3" class="st0" width="5.6" height="5.6"/>
	<rect x="98.8" y="160.3" class="st1" width="5.6" height="5.6"/>
	<rect x="104.3" y="160.3" class="st4" width="5.6" height="5.6"/>
	<rect x="109.9" y="160.3" class="st12" width="5.6" height="5.6"/>
	<rect x="115.4" y="160.3" class="st12" width="5.6" height="5.6"/>
	<rect x="121" y="160.3" class="st4" width="5.6" height="5.6"/>
	<rect x="126.5" y="160.3" class="st4" width="5.6" height="5.6"/>
	<rect x="132.1" y="160.3" class="st2" width="5.6" height="5.6"/>
	<rect x="137.6" y="160.3" class="st0" width="5.6" height="5.6"/>
	<rect x="98.8" y="165.9" class="st0" width="5.6" height="5.6"/>
	<rect x="104.3" y="165.9" class="st1" width="5.6" height="5.6"/>
	<rect x="109.9" y="165.9" class="st1" width="5.6" height="5.6"/>
	<rect x="115.4" y="165.9" class="st2" width="5.6" height="5.6"/>
	<rect x="121" y="165.9" class="st2" width="5.6" height="5.6"/>
	<rect x="126.5" y="165.9" class="st2" width="5.6" height="5.6"/>
	<rect x="132.1" y="165.9" class="st0" width="5.6" height="5.6"/>
	<rect x="104.3" y="171.4" class="st0" width="5.6" height="5.6"/>
	<rect x="109.9" y="171.4" class="st0" width="5.6" height="5.6"/>
	<rect x="115.4" y="171.4" class="st0" width="5.6" height="5.6"/>
	<rect x="121" y="171.4" class="st0" width="5.6" height="5.6"/>
	<rect x="126.5" y="171.4" class="st0" width="5.6" height="5.6"/>
</g>
</svg>
