<?xml version="1.0" encoding="utf-8"?>
<!-- Generator: Adobe Illustrator 27.9.0, SVG Export Plug-In . SVG Version: 6.00 Build 0)  -->
<svg version="1.1" id="Layer_1" shape-rendering="crispEdges"
	 xmlns="http://www.w3.org/2000/svg" xmlns:xlink="http://www.w3.org/1999/xlink" x="0px" y="0px" viewBox="0 0 192 192"
	 style="enable-background:new 0 0 192 192;" xml:space="preserve">
<style type="text/css">
	.st0{fill:#5CABE1;}
	.st1{fill:#ED9392;}
	.st2{fill:#EBAC8B;}
	.st3{fill:#DA7FA0;}
	.st4{fill:#CF6F87;}
	.st5{fill:#E7A55D;}
	.st6{fill:#ECC98B;}
	.st7{fill:#ECBA8B;}
	.st8{fill:#EDE5B7;}
	.st9{fill:#AE5269;}
	.st10{fill:#8D5386;}
	.st11{fill:#CD694F;}
	.st12{fill:#E17557;}
	.st13{fill:#B55D83;}
	.st14{fill:#694F86;}
	.st15{fill:#E4895D;}
	.st16{fill:#EA9571;}
	.st17{fill:#E6C874;}
</style>
<g>
	<rect x="78.4" y="16" class="st0" width="5.9" height="5.9"/>
	<rect x="84.3" y="16" class="st0" width="5.9" height="5.9"/>
	<rect x="90.1" y="16" class="st0" width="5.9" height="5.9"/>
	<rect x="96" y="16" class="st0" width="5.9" height="5.9"/>
	<rect x="101.9" y="16" class="st0" width="5.9" height="5.9"/>
	<rect x="107.7" y="16" class="st0" width="5.9" height="5.9"/>
	<rect x="60.9" y="21.9" class="st0" width="5.9" height="5.9"/>
	<rect x="66.7" y="21.9" class="st0" width="5.9" height="5.9"/>
	<rect x="72.6" y="21.9" class="st0" width="5.9" height="5.9"/>
	<rect x="78.4" y="21.9" class="st1" width="5.9" height="5.9"/>
	<rect x="84.3" y="21.9" class="st2" width="5.9" height="5.9"/>
	<rect x="90.1" y="21.9" class="st3" width="5.9" height="5.9"/>
	<rect x="96" y="21.9" class="st3" width="5.9" height="5.9"/>
	<rect x="101.9" y="21.9" class="st4" width="5.9" height="5.9"/>
	<rect x="107.7" y="21.9" class="st1" width="5.9" height="5.9"/>
	<rect x="113.6" y="21.9" class="st0" width="5.9" height="5.9"/>
	<rect x="119.4" y="21.9" class="st0" width="5.9" height="5.9"/>
	<rect x="125.3" y="21.9" class="st0" width="5.9" height="5.9"/>
	<rect x="55" y="27.7" class="st0" width="5.9" height="5.9"/>
	<rect x="60.9" y="27.7" class="st1" width="5.9" height="5.9"/>
	<rect x="66.7" y="27.7" class="st2" width="5.9" height="5.9"/>
	<rect x="72.6" y="27.7" class="st5" width="5.9" height="5.9"/>
	<rect x="78.4" y="27.7" class="st6" width="5.9" height="5.9"/>
	<rect x="84.3" y="27.7" class="st6" width="5.9" height="5.9"/>
	<rect x="90.1" y="27.7" class="st7" width="5.9" height="5.9"/>
	<rect x="96" y="27.7" class="st7" width="5.9" height="5.9"/>
	<rect x="101.9" y="27.7" class="st7" width="5.9" height="5.9"/>
	<rect x="107.7" y="27.7" class="st7" width="5.9" height="5.9"/>
	<rect x="113.6" y="27.7" class="st5" width="5.9" height="5.9"/>
	<rect x="119.4" y="27.7" class="st4" width="5.9" height="5.9"/>
	<rect x="125.3" y="27.7" class="st1" width="5.9" height="5.9"/>
	<rect x="131.1" y="27.7" class="st0" width="5.9" height="5.9"/>
	<rect x="49.1" y="33.6" class="st0" width="5.9" height="5.9"/>
	<rect x="55" y="33.6" class="st1" width="5.9" height="5.9"/>
	<rect x="60.9" y="33.6" class="st6" width="5.9" height="5.9"/>
	<rect x="66.7" y="33.6" class="st6" width="5.9" height="5.9"/>
	<rect x="72.6" y="33.6" class="st6" width="5.9" height="5.9"/>
	<rect x="78.4" y="33.6" class="st8" width="5.9" height="5.9"/>
	<rect x="84.3" y="33.6" class="st8" width="5.9" height="5.9"/>
	<rect x="90.1" y="33.6" class="st8" width="5.9" height="5.9"/>
	<rect x="96" y="33.6" class="st8" width="5.9" height="5.9"/>
	<rect x="101.9" y="33.6" class="st8" width="5.9" height="5.9"/>
	<rect x="107.7" y="33.6" class="st6" width="5.9" height="5.9"/>
	<rect x="113.6" y="33.6" class="st7" width="5.9" height="5.9"/>
	<rect x="119.4" y="33.6" class="st7" width="5.9" height="5.9"/>
	<rect x="125.3" y="33.6" class="st7" width="5.9" height="5.9"/>
	<rect x="131.1" y="33.6" class="st4" width="5.9" height="5.9"/>
	<rect x="137" y="33.6" class="st0" width="5.9" height="5.9"/>
	<rect x="43.3" y="39.4" class="st0" width="5.9" height="5.9"/>
	<rect x="49.1" y="39.4" class="st5" width="5.9" height="5.9"/>
	<rect x="55" y="39.4" class="st6" width="5.9" height="5.9"/>
	<rect x="60.9" y="39.4" class="st8" width="5.9" height="5.9"/>
	<rect x="66.7" y="39.4" class="st8" width="5.9" height="5.9"/>
	<rect x="72.6" y="39.4" class="st8" width="5.9" height="5.9"/>
	<rect x="78.4" y="39.4" class="st8" width="5.9" height="5.9"/>
	<rect x="84.3" y="39.4" class="st8" width="5.9" height="5.9"/>
	<rect x="90.1" y="39.4" class="st8" width="5.9" height="5.9"/>
	<rect x="96" y="39.4" class="st8" width="5.9" height="5.9"/>
	<rect x="101.9" y="39.4" class="st8" width="5.9" height="5.9"/>
	<rect x="107.7" y="39.4" class="st8" width="5.9" height="5.9"/>
	<rect x="113.6" y="39.4" class="st8" width="5.9" height="5.9"/>
	<rect x="119.4" y="39.4" class="st6" width="5.9" height="5.9"/>
	<rect x="125.3" y="39.4" class="st6" width="5.9" height="5.9"/>
	<rect x="131.1" y="39.4" class="st7" width="5.9" height="5.9"/>
	<rect x="137" y="39.4" class="st5" width="5.9" height="5.9"/>
	<rect x="142.9" y="39.4" class="st0" width="5.9" height="5.9"/>
	<rect x="37.4" y="45.3" class="st0" width="5.9" height="5.9"/>
	<rect x="43.3" y="45.3" class="st2" width="5.9" height="5.9"/>
	<rect x="49.1" y="45.3" class="st6" width="5.9" height="5.9"/>
	<rect x="55" y="45.3" class="st8" width="5.9" height="5.9"/>
	<rect x="60.9" y="45.3" class="st8" width="5.9" height="5.9"/>
	<rect x="66.7" y="45.3" class="st8" width="5.9" height="5.9"/>
	<rect x="72.6" y="45.3" class="st8" width="5.9" height="5.9"/>
	<rect x="78.4" y="45.3" class="st8" width="5.9" height="5.9"/>
	<rect x="84.3" y="45.3" class="st8" width="5.9" height="5.9"/>
	<rect x="90.1" y="45.3" class="st8" width="5.9" height="5.9"/>
	<rect x="96" y="45.3" class="st8" width="5.9" height="5.9"/>
	<rect x="101.9" y="45.3" class="st8" width="5.9" height="5.9"/>
	<rect x="107.7" y="45.3" class="st8" width="5.9" height="5.9"/>
	<rect x="113.6" y="45.3" class="st6" width="5.9" height="5.9"/>
	<rect x="119.4" y="45.3" class="st8" width="5.9" height="5.9"/>
	<rect x="125.3" y="45.3" class="st8" width="5.9" height="5.9"/>
	<rect x="131.1" y="45.3" class="st6" width="5.9" height="5.9"/>
	<rect x="137" y="45.3" class="st7" width="5.9" height="5.9"/>
	<rect x="142.9" y="45.3" class="st4" width="5.9" height="5.9"/>
	<rect x="148.7" y="45.3" class="st0" width="5.9" height="5.9"/>
	<rect x="31.6" y="51.1" class="st0" width="5.9" height="5.9"/>
	<rect x="37.4" y="51.1" class="st1" width="5.9" height="5.9"/>
	<rect x="43.3" y="51.1" class="st6" width="5.9" height="5.9"/>
	<rect x="49.1" y="51.1" class="st8" width="5.9" height="5.9"/>
	<rect x="55" y="51.1" class="st8" width="5.9" height="5.9"/>
	<rect x="60.9" y="51.1" class="st8" width="5.9" height="5.9"/>
	<rect x="66.7" y="51.1" class="st8" width="5.9" height="5.9"/>
	<rect x="72.6" y="51.1" class="st8" width="5.9" height="5.9"/>
	<rect x="78.4" y="51.1" class="st8" width="5.9" height="5.9"/>
	<rect x="84.3" y="51.1" class="st8" width="5.9" height="5.9"/>
	<rect x="90.1" y="51.1" class="st8" width="5.9" height="5.9"/>
	<rect x="96" y="51.1" class="st8" width="5.9" height="5.9"/>
	<rect x="101.9" y="51.1" class="st8" width="5.9" height="5.9"/>
	<rect x="107.7" y="51.1" class="st8" width="5.9" height="5.9"/>
	<rect x="113.6" y="51.1" class="st8" width="5.9" height="5.9"/>
	<rect x="119.4" y="51.1" class="st8" width="5.9" height="5.9"/>
	<rect x="125.3" y="51.1" class="st6" width="5.9" height="5.9"/>
	<rect x="131.1" y="51.1" class="st8" width="5.9" height="5.9"/>
	<rect x="137" y="51.1" class="st6" width="5.9" height="5.9"/>
	<rect x="142.9" y="51.1" class="st7" width="5.9" height="5.9"/>
	<rect x="148.7" y="51.1" class="st5" width="5.9" height="5.9"/>
	<rect x="154.6" y="51.1" class="st0" width="5.9" height="5.9"/>
	<rect x="25.7" y="57" class="st0" width="5.9" height="5.9"/>
	<rect x="31.6" y="57" class="st2" width="5.9" height="5.9"/>
	<rect x="37.4" y="57" class="st6" width="5.9" height="5.9"/>
	<rect x="43.3" y="57" class="st8" width="5.9" height="5.9"/>
	<rect x="49.1" y="57" class="st8" width="5.9" height="5.9"/>
	<rect x="55" y="57" class="st8" width="5.9" height="5.9"/>
	<rect x="60.9" y="57" class="st8" width="5.9" height="5.9"/>
	<rect x="66.7" y="57" class="st8" width="5.9" height="5.9"/>
	<rect x="72.6" y="57" class="st8" width="5.9" height="5.9"/>
	<rect x="78.4" y="57" class="st8" width="5.9" height="5.9"/>
	<rect x="84.3" y="57" class="st8" width="5.9" height="5.9"/>
	<rect x="90.1" y="57" class="st8" width="5.9" height="5.9"/>
	<rect x="96" y="57" class="st8" width="5.9" height="5.9"/>
	<rect x="101.9" y="57" class="st8" width="5.9" height="5.9"/>
	<rect x="107.7" y="57" class="st8" width="5.9" height="5.9"/>
	<rect x="113.6" y="57" class="st8" width="5.9" height="5.9"/>
	<rect x="119.4" y="57" class="st8" width="5.9" height="5.9"/>
	<rect x="125.3" y="57" class="st8" width="5.9" height="5.9"/>
	<rect x="131.1" y="57" class="st8" width="5.9" height="5.9"/>
	<rect x="137" y="57" class="st6" width="5.9" height="5.9"/>
	<rect x="142.9" y="57" class="st6" width="5.9" height="5.9"/>
	<rect x="148.7" y="57" class="st7" width="5.9" height="5.9"/>
	<rect x="154.6" y="57" class="st4" width="5.9" height="5.9"/>
	<rect x="160.4" y="57" class="st0" width="5.9" height="5.9"/>
	<rect x="19.9" y="62.9" class="st0" width="5.9" height="5.9"/>
	<rect x="25.7" y="62.9" class="st1" width="5.9" height="5.9"/>
	<rect x="31.6" y="62.9" class="st6" width="5.9" height="5.9"/>
	<rect x="37.4" y="62.9" class="st8" width="5.9" height="5.9"/>
	<rect x="43.3" y="62.9" class="st8" width="5.9" height="5.9"/>
	<rect x="49.1" y="62.9" class="st8" width="5.9" height="5.9"/>
	<rect x="55" y="62.9" class="st8" width="5.9" height="5.9"/>
	<rect x="60.9" y="62.9" class="st8" width="5.9" height="5.9"/>
	<rect x="66.7" y="62.9" class="st8" width="5.9" height="5.9"/>
	<rect x="72.6" y="62.9" class="st8" width="5.9" height="5.9"/>
	<rect x="78.4" y="62.9" class="st9" width="5.9" height="5.9"/>
	<rect x="84.3" y="62.9" class="st9" width="5.9" height="5.9"/>
	<rect x="90.1" y="62.9" class="st10" width="5.9" height="5.9"/>
	<rect x="96" y="62.9" class="st10" width="5.9" height="5.9"/>
	<rect x="101.9" y="62.9" class="st9" width="5.9" height="5.9"/>
	<rect x="107.7" y="62.9" class="st9" width="5.9" height="5.9"/>
	<rect x="113.6" y="62.9" class="st8" width="5.9" height="5.9"/>
	<rect x="119.4" y="62.9" class="st8" width="5.9" height="5.9"/>
	<rect x="125.3" y="62.9" class="st8" width="5.9" height="5.9"/>
	<rect x="131.1" y="62.9" class="st6" width="5.9" height="5.9"/>
	<rect x="137" y="62.9" class="st8" width="5.9" height="5.9"/>
	<rect x="142.9" y="62.9" class="st6" width="5.9" height="5.9"/>
	<rect x="148.7" y="62.9" class="st6" width="5.9" height="5.9"/>
	<rect x="154.6" y="62.9" class="st7" width="5.9" height="5.9"/>
	<rect x="160.4" y="62.9" class="st1" width="5.9" height="5.9"/>
	<rect x="166.3" y="62.9" class="st0" width="5.9" height="5.9"/>
	<rect x="19.9" y="68.7" class="st0" width="5.9" height="5.9"/>
	<rect x="25.7" y="68.7" class="st2" width="5.9" height="5.9"/>
	<rect x="31.6" y="68.7" class="st6" width="5.9" height="5.9"/>
	<rect x="37.4" y="68.7" class="st8" width="5.9" height="5.9"/>
	<rect x="43.3" y="68.7" class="st8" width="5.9" height="5.9"/>
	<rect x="49.1" y="68.7" class="st8" width="5.9" height="5.9"/>
	<rect x="55" y="68.7" class="st8" width="5.9" height="5.9"/>
	<rect x="60.9" y="68.7" class="st8" width="5.9" height="5.9"/>
	<rect x="66.7" y="68.7" class="st8" width="5.9" height="5.9"/>
	<rect x="72.6" y="68.7" class="st9" width="5.9" height="5.9"/>
	<rect x="78.4" y="68.7" class="st3" width="5.9" height="5.9"/>
	<rect x="84.3" y="68.7" class="st3" width="5.9" height="5.9"/>
	<rect x="90.1" y="68.7" class="st4" width="5.9" height="5.9"/>
	<rect x="96" y="68.7" class="st4" width="5.9" height="5.9"/>
	<rect x="101.9" y="68.7" class="st11" width="5.9" height="5.9"/>
	<rect x="107.7" y="68.7" class="st11" width="5.9" height="5.9"/>
	<rect x="113.6" y="68.7" class="st10" width="5.9" height="5.9"/>
	<rect x="119.4" y="68.7" class="st8" width="5.9" height="5.9"/>
	<rect x="125.3" y="68.7" class="st8" width="5.9" height="5.9"/>
	<rect x="131.1" y="68.7" class="st8" width="5.9" height="5.9"/>
	<rect x="137" y="68.7" class="st6" width="5.9" height="5.9"/>
	<rect x="142.9" y="68.7" class="st8" width="5.9" height="5.9"/>
	<rect x="148.7" y="68.7" class="st6" width="5.9" height="5.9"/>
	<rect x="154.6" y="68.7" class="st7" width="5.9" height="5.9"/>
	<rect x="160.4" y="68.7" class="st4" width="5.9" height="5.9"/>
	<rect x="166.3" y="68.7" class="st0" width="5.9" height="5.9"/>
	<rect x="19.9" y="74.6" class="st0" width="5.9" height="5.9"/>
	<rect x="25.7" y="74.6" class="st5" width="5.9" height="5.9"/>
	<rect x="31.6" y="74.6" class="st6" width="5.9" height="5.9"/>
	<rect x="37.4" y="74.6" class="st8" width="5.9" height="5.9"/>
	<rect x="43.3" y="74.6" class="st8" width="5.9" height="5.9"/>
	<rect x="49.1" y="74.6" class="st8" width="5.9" height="5.9"/>
	<rect x="55" y="74.6" class="st8" width="5.9" height="5.9"/>
	<rect x="60.9" y="74.6" class="st8" width="5.9" height="5.9"/>
	<rect x="66.7" y="74.6" class="st11" width="5.9" height="5.9"/>
	<rect x="72.6" y="74.6" class="st3" width="5.9" height="5.9"/>
	<rect x="78.4" y="74.6" class="st5" width="5.9" height="5.9"/>
	<rect x="84.3" y="74.6" class="st5" width="5.9" height="5.9"/>
	<rect x="90.1" y="74.6" class="st5" width="5.9" height="5.9"/>
	<rect x="96" y="74.6" class="st12" width="5.9" height="5.9"/>
	<rect x="101.9" y="74.6" class="st12" width="5.9" height="5.9"/>
	<rect x="107.7" y="74.6" class="st12" width="5.9" height="5.9"/>
	<rect x="113.6" y="74.6" class="st13" width="5.9" height="5.9"/>
	<rect x="119.4" y="74.6" class="st14" width="5.9" height="5.9"/>
	<rect x="125.3" y="74.6" class="st8" width="5.9" height="5.9"/>
	<rect x="131.1" y="74.6" class="st8" width="5.9" height="5.9"/>
	<rect x="137" y="74.6" class="st8" width="5.9" height="5.9"/>
	<rect x="142.9" y="74.6" class="st6" width="5.9" height="5.9"/>
	<rect x="148.7" y="74.6" class="st6" width="5.9" height="5.9"/>
	<rect x="154.6" y="74.6" class="st7" width="5.9" height="5.9"/>
	<rect x="160.4" y="74.6" class="st5" width="5.9" height="5.9"/>
	<rect x="166.3" y="74.6" class="st0" width="5.9" height="5.9"/>
	<rect x="14" y="80.4" class="st0" width="5.9" height="5.9"/>
	<rect x="19.9" y="80.4" class="st5" width="5.9" height="5.9"/>
	<rect x="25.7" y="80.4" class="st6" width="5.9" height="5.9"/>
	<rect x="31.6" y="80.4" class="st8" width="5.9" height="5.9"/>
	<rect x="37.4" y="80.4" class="st8" width="5.9" height="5.9"/>
	<rect x="43.3" y="80.4" class="st8" width="5.9" height="5.9"/>
	<rect x="49.1" y="80.4" class="st8" width="5.9" height="5.9"/>
	<rect x="55" y="80.4" class="st8" width="5.9" height="5.9"/>
	<rect x="60.9" y="80.4" class="st9" width="5.9" height="5.9"/>
	<rect x="66.7" y="80.4" class="st3" width="5.9" height="5.9"/>
	<rect x="72.6" y="80.4" class="st5" width="5.9" height="5.9"/>
	<rect x="78.4" y="80.4" class="st5" width="5.9" height="5.9"/>
	<rect x="84.3" y="80.4" class="st5" width="5.9" height="5.9"/>
	<rect x="90.1" y="80.4" class="st5" width="5.9" height="5.9"/>
	<rect x="96" y="80.4" class="st5" width="5.9" height="5.9"/>
	<rect x="101.9" y="80.4" class="st15" width="5.9" height="5.9"/>
	<rect x="107.7" y="80.4" class="st15" width="5.9" height="5.9"/>
	<rect x="113.6" y="80.4" class="st12" width="5.9" height="5.9"/>
	<rect x="119.4" y="80.4" class="st13" width="5.9" height="5.9"/>
	<rect x="125.3" y="80.4" class="st10" width="5.9" height="5.9"/>
	<rect x="131.1" y="80.4" class="st8" width="5.9" height="5.9"/>
	<rect x="137" y="80.4" class="st8" width="5.9" height="5.9"/>
	<rect x="142.9" y="80.4" class="st8" width="5.9" height="5.9"/>
	<rect x="148.7" y="80.4" class="st6" width="5.9" height="5.9"/>
	<rect x="154.6" y="80.4" class="st6" width="5.9" height="5.9"/>
	<rect x="160.4" y="80.4" class="st7" width="5.9" height="5.9"/>
	<rect x="166.3" y="80.4" class="st5" width="5.9" height="5.9"/>
	<rect x="172.1" y="80.4" class="st0" width="5.9" height="5.9"/>
	<rect x="14" y="86.3" class="st0" width="5.9" height="5.9"/>
	<rect x="19.9" y="86.3" class="st2" width="5.9" height="5.9"/>
	<rect x="25.7" y="86.3" class="st6" width="5.9" height="5.9"/>
	<rect x="31.6" y="86.3" class="st8" width="5.9" height="5.9"/>
	<rect x="37.4" y="86.3" class="st8" width="5.9" height="5.9"/>
	<rect x="43.3" y="86.3" class="st8" width="5.9" height="5.9"/>
	<rect x="49.1" y="86.3" class="st8" width="5.9" height="5.9"/>
	<rect x="55" y="86.3" class="st8" width="5.9" height="5.9"/>
	<rect x="60.9" y="86.3" class="st9" width="5.9" height="5.9"/>
	<rect x="66.7" y="86.3" class="st16" width="5.9" height="5.9"/>
	<rect x="72.6" y="86.3" class="st17" width="5.9" height="5.9"/>
	<rect x="78.4" y="86.3" class="st17" width="5.9" height="5.9"/>
	<rect x="84.3" y="86.3" class="st5" width="5.9" height="5.9"/>
	<rect x="90.1" y="86.3" class="st5" width="5.9" height="5.9"/>
	<rect x="96" y="86.3" class="st5" width="5.9" height="5.9"/>
	<rect x="101.9" y="86.3" class="st16" width="5.9" height="5.9"/>
	<rect x="107.7" y="86.3" class="st15" width="5.9" height="5.9"/>
	<rect x="113.6" y="86.3" class="st12" width="5.9" height="5.9"/>
	<rect x="119.4" y="86.3" class="st13" width="5.9" height="5.9"/>
	<rect x="125.3" y="86.3" class="st14" width="5.9" height="5.9"/>
	<rect x="131.1" y="86.3" class="st8" width="5.9" height="5.9"/>
	<rect x="137" y="86.3" class="st8" width="5.9" height="5.9"/>
	<rect x="142.9" y="86.3" class="st6" width="5.9" height="5.9"/>
	<rect x="148.7" y="86.3" class="st8" width="5.9" height="5.9"/>
	<rect x="154.6" y="86.3" class="st6" width="5.9" height="5.9"/>
	<rect x="160.4" y="86.3" class="st7" width="5.9" height="5.9"/>
	<rect x="166.3" y="86.3" class="st4" width="5.9" height="5.9"/>
	<rect x="172.1" y="86.3" class="st0" width="5.9" height="5.9"/>
	<rect x="14" y="92.1" class="st0" width="5.9" height="5.9"/>
	<rect x="19.9" y="92.1" class="st1" width="5.9" height="5.9"/>
	<rect x="25.7" y="92.1" class="st6" width="5.9" height="5.9"/>
	<rect x="31.6" y="92.1" class="st8" width="5.9" height="5.9"/>
	<rect x="37.4" y="92.1" class="st8" width="5.9" height="5.9"/>
	<rect x="43.3" y="92.1" class="st8" width="5.9" height="5.9"/>
	<rect x="49.1" y="92.1" class="st8" width="5.9" height="5.9"/>
	<rect x="55" y="92.1" class="st8" width="5.9" height="5.9"/>
	<rect x="60.9" y="92.1" class="st11" width="5.9" height="5.9"/>
	<rect x="66.7" y="92.1" class="st16" width="5.9" height="5.9"/>
	<rect x="72.6" y="92.1" class="st17" width="5.9" height="5.9"/>
	<rect x="78.4" y="92.1" class="st17" width="5.9" height="5.9"/>
	<rect x="84.3" y="92.1" class="st5" width="5.9" height="5.9"/>
	<rect x="90.1" y="92.1" class="st5" width="5.9" height="5.9"/>
	<rect x="96" y="92.1" class="st5" width="5.9" height="5.9"/>
	<rect x="101.9" y="92.1" class="st16" width="5.9" height="5.9"/>
	<rect x="107.7" y="92.1" class="st15" width="5.9" height="5.9"/>
	<rect x="113.6" y="92.1" class="st12" width="5.9" height="5.9"/>
	<rect x="119.4" y="92.1" class="st13" width="5.9" height="5.9"/>
	<rect x="125.3" y="92.1" class="st14" width="5.9" height="5.9"/>
	<rect x="131.1" y="92.1" class="st8" width="5.9" height="5.9"/>
	<rect x="137" y="92.1" class="st8" width="5.9" height="5.9"/>
	<rect x="142.9" y="92.1" class="st8" width="5.9" height="5.9"/>
	<rect x="148.7" y="92.1" class="st6" width="5.9" height="5.9"/>
	<rect x="154.6" y="92.1" class="st6" width="5.9" height="5.9"/>
	<rect x="160.4" y="92.1" class="st7" width="5.9" height="5.9"/>
	<rect x="166.3" y="92.1" class="st4" width="5.9" height="5.9"/>
	<rect x="172.1" y="92.1" class="st0" width="5.9" height="5.9"/>
	<rect x="14" y="98" class="st0" width="5.9" height="5.9"/>
	<rect x="19.9" y="98" class="st1" width="5.9" height="5.9"/>
	<rect x="25.7" y="98" class="st6" width="5.9" height="5.9"/>
	<rect x="31.6" y="98" class="st8" width="5.9" height="5.9"/>
	<rect x="37.4" y="98" class="st8" width="5.9" height="5.9"/>
	<rect x="43.3" y="98" class="st8" width="5.9" height="5.9"/>
	<rect x="49.1" y="98" class="st8" width="5.9" height="5.9"/>
	<rect x="55" y="98" class="st8" width="5.9" height="5.9"/>
	<rect x="60.9" y="98" class="st11" width="5.9" height="5.9"/>
	<rect x="66.7" y="98" class="st16" width="5.9" height="5.9"/>
	<rect x="72.6" y="98" class="st17" width="5.9" height="5.9"/>
	<rect x="78.4" y="98" class="st8" width="5.9" height="5.9"/>
	<rect x="84.3" y="98" class="st5" width="5.9" height="5.9"/>
	<rect x="90.1" y="98" class="st5" width="5.9" height="5.9"/>
	<rect x="96" y="98" class="st5" width="5.9" height="5.9"/>
	<rect x="101.9" y="98" class="st16" width="5.9" height="5.9"/>
	<rect x="107.7" y="98" class="st15" width="5.9" height="5.9"/>
	<rect x="113.6" y="98" class="st12" width="5.9" height="5.9"/>
	<rect x="119.4" y="98" class="st13" width="5.9" height="5.9"/>
	<rect x="125.3" y="98" class="st14" width="5.9" height="5.9"/>
	<rect x="131.1" y="98" class="st8" width="5.9" height="5.9"/>
	<rect x="137" y="98" class="st8" width="5.9" height="5.9"/>
	<rect x="142.9" y="98" class="st6" width="5.9" height="5.9"/>
	<rect x="148.7" y="98" class="st8" width="5.9" height="5.9"/>
	<rect x="154.6" y="98" class="st6" width="5.9" height="5.9"/>
	<rect x="160.4" y="98" class="st7" width="5.9" height="5.9"/>
	<rect x="166.3" y="98" class="st1" width="5.9" height="5.9"/>
	<rect x="172.1" y="98" class="st0" width="5.9" height="5.9"/>
	<rect x="14" y="103.9" class="st0" width="5.9" height="5.9"/>
	<rect x="19.9" y="103.9" class="st2" width="5.9" height="5.9"/>
	<rect x="25.7" y="103.9" class="st6" width="5.9" height="5.9"/>
	<rect x="31.6" y="103.9" class="st8" width="5.9" height="5.9"/>
	<rect x="37.4" y="103.9" class="st8" width="5.9" height="5.9"/>
	<rect x="43.3" y="103.9" class="st8" width="5.9" height="5.9"/>
	<rect x="49.1" y="103.9" class="st8" width="5.9" height="5.9"/>
	<rect x="55" y="103.9" class="st8" width="5.9" height="5.9"/>
	<rect x="60.9" y="103.9" class="st9" width="5.9" height="5.9"/>
	<rect x="66.7" y="103.9" class="st16" width="5.9" height="5.9"/>
	<rect x="72.6" y="103.9" class="st17" width="5.9" height="5.9"/>
	<rect x="78.4" y="103.9" class="st8" width="5.9" height="5.9"/>
	<rect x="84.3" y="103.9" class="st5" width="5.9" height="5.9"/>
	<rect x="90.1" y="103.9" class="st5" width="5.9" height="5.9"/>
	<rect x="96" y="103.9" class="st5" width="5.9" height="5.9"/>
	<rect x="101.9" y="103.9" class="st16" width="5.9" height="5.9"/>
	<rect x="107.7" y="103.9" class="st15" width="5.9" height="5.9"/>
	<rect x="113.6" y="103.9" class="st12" width="5.9" height="5.9"/>
	<rect x="119.4" y="103.9" class="st13" width="5.9" height="5.9"/>
	<rect x="125.3" y="103.9" class="st10" width="5.9" height="5.9"/>
	<rect x="131.1" y="103.9" class="st8" width="5.9" height="5.9"/>
	<rect x="137" y="103.9" class="st8" width="5.9" height="5.9"/>
	<rect x="142.9" y="103.9" class="st8" width="5.9" height="5.9"/>
	<rect x="148.7" y="103.9" class="st6" width="5.9" height="5.9"/>
	<rect x="154.6" y="103.9" class="st6" width="5.9" height="5.9"/>
	<rect x="160.4" y="103.9" class="st7" width="5.9" height="5.9"/>
	<rect x="166.3" y="103.9" class="st4" width="5.9" height="5.9"/>
	<rect x="172.1" y="103.9" class="st0" width="5.9" height="5.9"/>
	<rect x="14" y="109.7" class="st0" width="5.9" height="5.9"/>
	<rect x="19.9" y="109.7" class="st5" width="5.9" height="5.9"/>
	<rect x="25.7" y="109.7" class="st6" width="5.9" height="5.9"/>
	<rect x="31.6" y="109.7" class="st8" width="5.9" height="5.9"/>
	<rect x="37.4" y="109.7" class="st8" width="5.9" height="5.9"/>
	<rect x="43.3" y="109.7" class="st8" width="5.9" height="5.9"/>
	<rect x="49.1" y="109.7" class="st8" width="5.9" height="5.9"/>
	<rect x="55" y="109.7" class="st8" width="5.9" height="5.9"/>
	<rect x="60.9" y="109.7" class="st9" width="5.9" height="5.9"/>
	<rect x="66.7" y="109.7" class="st3" width="5.9" height="5.9"/>
	<rect x="72.6" y="109.7" class="st5" width="5.9" height="5.9"/>
	<rect x="78.4" y="109.7" class="st5" width="5.9" height="5.9"/>
	<rect x="84.3" y="109.7" class="st5" width="5.9" height="5.9"/>
	<rect x="90.1" y="109.7" class="st5" width="5.9" height="5.9"/>
	<rect x="96" y="109.7" class="st15" width="5.9" height="5.9"/>
	<rect x="101.9" y="109.7" class="st15" width="5.9" height="5.9"/>
	<rect x="107.7" y="109.7" class="st15" width="5.9" height="5.9"/>
	<rect x="113.6" y="109.7" class="st12" width="5.9" height="5.9"/>
	<rect x="119.4" y="109.7" class="st13" width="5.9" height="5.9"/>
	<rect x="125.3" y="109.7" class="st14" width="5.9" height="5.9"/>
	<rect x="131.1" y="109.7" class="st8" width="5.9" height="5.9"/>
	<rect x="137" y="109.7" class="st8" width="5.9" height="5.9"/>
	<rect x="142.9" y="109.7" class="st6" width="5.9" height="5.9"/>
	<rect x="148.7" y="109.7" class="st8" width="5.9" height="5.9"/>
	<rect x="154.6" y="109.7" class="st6" width="5.9" height="5.9"/>
	<rect x="160.4" y="109.7" class="st7" width="5.9" height="5.9"/>
	<rect x="166.3" y="109.7" class="st5" width="5.9" height="5.9"/>
	<rect x="172.1" y="109.7" class="st0" width="5.9" height="5.9"/>
	<rect x="19.9" y="115.6" class="st0" width="5.9" height="5.9"/>
	<rect x="25.7" y="115.6" class="st5" width="5.9" height="5.9"/>
	<rect x="31.6" y="115.6" class="st6" width="5.9" height="5.9"/>
	<rect x="37.4" y="115.6" class="st8" width="5.9" height="5.9"/>
	<rect x="43.3" y="115.6" class="st8" width="5.9" height="5.9"/>
	<rect x="49.1" y="115.6" class="st8" width="5.9" height="5.9"/>
	<rect x="55" y="115.6" class="st8" width="5.9" height="5.9"/>
	<rect x="60.9" y="115.6" class="st8" width="5.9" height="5.9"/>
	<rect x="66.7" y="115.6" class="st11" width="5.9" height="5.9"/>
	<rect x="72.6" y="115.6" class="st3" width="5.9" height="5.9"/>
	<rect x="78.4" y="115.6" class="st5" width="5.9" height="5.9"/>
	<rect x="84.3" y="115.6" class="st16" width="5.9" height="5.9"/>
	<rect x="90.1" y="115.6" class="st12" width="5.9" height="5.9"/>
	<rect x="96" y="115.6" class="st12" width="5.9" height="5.9"/>
	<rect x="101.9" y="115.6" class="st12" width="5.9" height="5.9"/>
	<rect x="107.7" y="115.6" class="st12" width="5.9" height="5.9"/>
	<rect x="113.6" y="115.6" class="st13" width="5.9" height="5.9"/>
	<rect x="119.4" y="115.6" class="st10" width="5.9" height="5.9"/>
	<rect x="125.3" y="115.6" class="st8" width="5.9" height="5.9"/>
	<rect x="131.1" y="115.6" class="st8" width="5.9" height="5.9"/>
	<rect x="137" y="115.6" class="st6" width="5.9" height="5.9"/>
	<rect x="142.9" y="115.6" class="st8" width="5.9" height="5.9"/>
	<rect x="148.7" y="115.6" class="st6" width="5.9" height="5.9"/>
	<rect x="154.6" y="115.6" class="st7" width="5.9" height="5.9"/>
	<rect x="160.4" y="115.6" class="st5" width="5.9" height="5.9"/>
	<rect x="166.3" y="115.6" class="st0" width="5.9" height="5.9"/>
	<rect x="19.9" y="121.4" class="st0" width="5.9" height="5.9"/>
	<rect x="25.7" y="121.4" class="st2" width="5.9" height="5.9"/>
	<rect x="31.6" y="121.4" class="st6" width="5.9" height="5.9"/>
	<rect x="37.4" y="121.4" class="st8" width="5.9" height="5.9"/>
	<rect x="43.3" y="121.4" class="st8" width="5.9" height="5.9"/>
	<rect x="49.1" y="121.4" class="st8" width="5.9" height="5.9"/>
	<rect x="55" y="121.4" class="st8" width="5.9" height="5.9"/>
	<rect x="60.9" y="121.4" class="st8" width="5.9" height="5.9"/>
	<rect x="66.7" y="121.4" class="st8" width="5.9" height="5.9"/>
	<rect x="72.6" y="121.4" class="st9" width="5.9" height="5.9"/>
	<rect x="78.4" y="121.4" class="st3" width="5.9" height="5.9"/>
	<rect x="84.3" y="121.4" class="st3" width="5.9" height="5.9"/>
	<rect x="90.1" y="121.4" class="st4" width="5.9" height="5.9"/>
	<rect x="96" y="121.4" class="st4" width="5.9" height="5.9"/>
	<rect x="101.9" y="121.4" class="st11" width="5.9" height="5.9"/>
	<rect x="107.7" y="121.4" class="st11" width="5.9" height="5.9"/>
	<rect x="113.6" y="121.4" class="st10" width="5.9" height="5.9"/>
	<rect x="119.4" y="121.4" class="st8" width="5.9" height="5.9"/>
	<rect x="125.3" y="121.4" class="st8" width="5.9" height="5.9"/>
	<rect x="131.1" y="121.4" class="st8" width="5.9" height="5.9"/>
	<rect x="137" y="121.4" class="st8" width="5.9" height="5.9"/>
	<rect x="142.9" y="121.4" class="st6" width="5.9" height="5.9"/>
	<rect x="148.7" y="121.4" class="st6" width="5.9" height="5.9"/>
	<rect x="154.6" y="121.4" class="st7" width="5.9" height="5.9"/>
	<rect x="160.4" y="121.4" class="st4" width="5.9" height="5.9"/>
	<rect x="166.3" y="121.4" class="st0" width="5.9" height="5.9"/>
	<rect x="19.9" y="127.3" class="st0" width="5.9" height="5.9"/>
	<rect x="25.7" y="127.3" class="st1" width="5.9" height="5.9"/>
	<rect x="31.6" y="127.3" class="st6" width="5.9" height="5.9"/>
	<rect x="37.4" y="127.3" class="st8" width="5.9" height="5.9"/>
	<rect x="43.3" y="127.3" class="st8" width="5.9" height="5.9"/>
	<rect x="49.1" y="127.3" class="st8" width="5.9" height="5.9"/>
	<rect x="55" y="127.3" class="st8" width="5.9" height="5.9"/>
	<rect x="60.9" y="127.3" class="st8" width="5.9" height="5.9"/>
	<rect x="66.7" y="127.3" class="st8" width="5.9" height="5.9"/>
	<rect x="72.6" y="127.3" class="st8" width="5.9" height="5.9"/>
	<rect x="78.4" y="127.3" class="st9" width="5.9" height="5.9"/>
	<rect x="84.3" y="127.3" class="st9" width="5.9" height="5.9"/>
	<rect x="90.1" y="127.3" class="st11" width="5.9" height="5.9"/>
	<rect x="96" y="127.3" class="st9" width="5.9" height="5.9"/>
	<rect x="101.9" y="127.3" class="st10" width="5.9" height="5.9"/>
	<rect x="107.7" y="127.3" class="st14" width="5.9" height="5.9"/>
	<rect x="113.6" y="127.3" class="st8" width="5.9" height="5.9"/>
	<rect x="119.4" y="127.3" class="st8" width="5.9" height="5.9"/>
	<rect x="125.3" y="127.3" class="st8" width="5.9" height="5.9"/>
	<rect x="131.1" y="127.3" class="st8" width="5.9" height="5.9"/>
	<rect x="137" y="127.3" class="st6" width="5.9" height="5.9"/>
	<rect x="142.9" y="127.3" class="st8" width="5.9" height="5.9"/>
	<rect x="148.7" y="127.3" class="st6" width="5.9" height="5.9"/>
	<rect x="154.6" y="127.3" class="st7" width="5.9" height="5.9"/>
	<rect x="160.4" y="127.3" class="st1" width="5.9" height="5.9"/>
	<rect x="166.3" y="127.3" class="st0" width="5.9" height="5.9"/>
	<rect x="25.7" y="133.1" class="st0" width="5.9" height="5.9"/>
	<rect x="31.6" y="133.1" class="st1" width="5.9" height="5.9"/>
	<rect x="37.4" y="133.1" class="st6" width="5.9" height="5.9"/>
	<rect x="43.3" y="133.1" class="st8" width="5.9" height="5.9"/>
	<rect x="49.1" y="133.1" class="st8" width="5.9" height="5.9"/>
	<rect x="55" y="133.1" class="st8" width="5.9" height="5.9"/>
	<rect x="60.9" y="133.1" class="st8" width="5.9" height="5.9"/>
	<rect x="66.7" y="133.1" class="st8" width="5.9" height="5.9"/>
	<rect x="72.6" y="133.1" class="st8" width="5.9" height="5.9"/>
	<rect x="78.4" y="133.1" class="st8" width="5.9" height="5.9"/>
	<rect x="84.3" y="133.1" class="st8" width="5.9" height="5.9"/>
	<rect x="90.1" y="133.1" class="st8" width="5.9" height="5.9"/>
	<rect x="96" y="133.1" class="st8" width="5.9" height="5.9"/>
	<rect x="101.9" y="133.1" class="st8" width="5.9" height="5.9"/>
	<rect x="107.7" y="133.1" class="st8" width="5.9" height="5.9"/>
	<rect x="113.6" y="133.1" class="st8" width="5.9" height="5.9"/>
	<rect x="119.4" y="133.1" class="st8" width="5.9" height="5.9"/>
	<rect x="125.3" y="133.1" class="st8" width="5.9" height="5.9"/>
	<rect x="131.1" y="133.1" class="st8" width="5.9" height="5.9"/>
	<rect x="137" y="133.1" class="st8" width="5.9" height="5.9"/>
	<rect x="142.9" y="133.1" class="st6" width="5.9" height="5.9"/>
	<rect x="148.7" y="133.1" class="st7" width="5.9" height="5.9"/>
	<rect x="154.6" y="133.1" class="st4" width="5.9" height="5.9"/>
	<rect x="160.4" y="133.1" class="st0" width="5.9" height="5.9"/>
	<rect x="31.6" y="139" class="st0" width="5.9" height="5.9"/>
	<rect x="37.4" y="139" class="st5" width="5.9" height="5.9"/>
	<rect x="43.3" y="139" class="st6" width="5.9" height="5.9"/>
	<rect x="49.1" y="139" class="st8" width="5.9" height="5.9"/>
	<rect x="55" y="139" class="st8" width="5.9" height="5.9"/>
	<rect x="60.9" y="139" class="st8" width="5.9" height="5.9"/>
	<rect x="66.7" y="139" class="st8" width="5.9" height="5.9"/>
	<rect x="72.6" y="139" class="st8" width="5.9" height="5.9"/>
	<rect x="78.4" y="139" class="st8" width="5.9" height="5.9"/>
	<rect x="84.3" y="139" class="st8" width="5.9" height="5.9"/>
	<rect x="90.1" y="139" class="st8" width="5.9" height="5.9"/>
	<rect x="96" y="139" class="st8" width="5.9" height="5.9"/>
	<rect x="101.9" y="139" class="st8" width="5.9" height="5.9"/>
	<rect x="107.7" y="139" class="st8" width="5.9" height="5.9"/>
	<rect x="113.6" y="139" class="st8" width="5.9" height="5.9"/>
	<rect x="119.4" y="139" class="st8" width="5.9" height="5.9"/>
	<rect x="125.3" y="139" class="st6" width="5.9" height="5.9"/>
	<rect x="131.1" y="139" class="st8" width="5.9" height="5.9"/>
	<rect x="137" y="139" class="st6" width="5.9" height="5.9"/>
	<rect x="142.9" y="139" class="st7" width="5.9" height="5.9"/>
	<rect x="148.7" y="139" class="st5" width="5.9" height="5.9"/>
	<rect x="154.6" y="139" class="st0" width="5.9" height="5.9"/>
	<rect x="37.4" y="144.9" class="st0" width="5.9" height="5.9"/>
	<rect x="43.3" y="144.9" class="st1" width="5.9" height="5.9"/>
	<rect x="49.1" y="144.9" class="st6" width="5.9" height="5.9"/>
	<rect x="55" y="144.9" class="st8" width="5.9" height="5.9"/>
	<rect x="60.9" y="144.9" class="st8" width="5.9" height="5.9"/>
	<rect x="66.7" y="144.9" class="st8" width="5.9" height="5.9"/>
	<rect x="72.6" y="144.9" class="st8" width="5.9" height="5.9"/>
	<rect x="78.4" y="144.9" class="st8" width="5.9" height="5.9"/>
	<rect x="84.3" y="144.9" class="st8" width="5.9" height="5.9"/>
	<rect x="90.1" y="144.9" class="st8" width="5.9" height="5.9"/>
	<rect x="96" y="144.9" class="st8" width="5.9" height="5.9"/>
	<rect x="101.9" y="144.9" class="st8" width="5.9" height="5.9"/>
	<rect x="107.7" y="144.9" class="st6" width="5.9" height="5.9"/>
	<rect x="113.6" y="144.9" class="st8" width="5.9" height="5.9"/>
	<rect x="119.4" y="144.9" class="st6" width="5.9" height="5.9"/>
	<rect x="125.3" y="144.9" class="st8" width="5.9" height="5.9"/>
	<rect x="131.1" y="144.9" class="st6" width="5.9" height="5.9"/>
	<rect x="137" y="144.9" class="st7" width="5.9" height="5.9"/>
	<rect x="142.9" y="144.9" class="st4" width="5.9" height="5.9"/>
	<rect x="148.7" y="144.9" class="st0" width="5.9" height="5.9"/>
	<rect x="43.3" y="150.7" class="st0" width="5.9" height="5.9"/>
	<rect x="49.1" y="150.7" class="st1" width="5.9" height="5.9"/>
	<rect x="55" y="150.7" class="st6" width="5.9" height="5.9"/>
	<rect x="60.9" y="150.7" class="st8" width="5.9" height="5.9"/>
	<rect x="66.7" y="150.7" class="st8" width="5.9" height="5.9"/>
	<rect x="72.6" y="150.7" class="st8" width="5.9" height="5.9"/>
	<rect x="78.4" y="150.7" class="st8" width="5.9" height="5.9"/>
	<rect x="84.3" y="150.7" class="st8" width="5.9" height="5.9"/>
	<rect x="90.1" y="150.7" class="st6" width="5.9" height="5.9"/>
	<rect x="96" y="150.7" class="st8" width="5.9" height="5.9"/>
	<rect x="101.9" y="150.7" class="st6" width="5.9" height="5.9"/>
	<rect x="107.7" y="150.7" class="st8" width="5.9" height="5.9"/>
	<rect x="113.6" y="150.7" class="st6" width="5.9" height="5.9"/>
	<rect x="119.4" y="150.7" class="st6" width="5.9" height="5.9"/>
	<rect x="125.3" y="150.7" class="st6" width="5.9" height="5.9"/>
	<rect x="131.1" y="150.7" class="st7" width="5.9" height="5.9"/>
	<rect x="137" y="150.7" class="st1" width="5.9" height="5.9"/>
	<rect x="142.9" y="150.7" class="st0" width="5.9" height="5.9"/>
	<rect x="49.1" y="156.6" class="st0" width="5.9" height="5.9"/>
	<rect x="55" y="156.6" class="st2" width="5.9" height="5.9"/>
	<rect x="60.9" y="156.6" class="st6" width="5.9" height="5.9"/>
	<rect x="66.7" y="156.6" class="st6" width="5.9" height="5.9"/>
	<rect x="72.6" y="156.6" class="st6" width="5.9" height="5.9"/>
	<rect x="78.4" y="156.6" class="st8" width="5.9" height="5.9"/>
	<rect x="84.3" y="156.6" class="st8" width="5.9" height="5.9"/>
	<rect x="90.1" y="156.6" class="st8" width="5.9" height="5.9"/>
	<rect x="96" y="156.6" class="st6" width="5.9" height="5.9"/>
	<rect x="101.9" y="156.6" class="st6" width="5.9" height="5.9"/>
	<rect x="107.7" y="156.6" class="st6" width="5.9" height="5.9"/>
	<rect x="113.6" y="156.6" class="st7" width="5.9" height="5.9"/>
	<rect x="119.4" y="156.6" class="st7" width="5.9" height="5.9"/>
	<rect x="125.3" y="156.6" class="st7" width="5.9" height="5.9"/>
	<rect x="131.1" y="156.6" class="st4" width="5.9" height="5.9"/>
	<rect x="137" y="156.6" class="st0" width="5.9" height="5.9"/>
	<rect x="55" y="162.4" class="st0" width="5.9" height="5.9"/>
	<rect x="60.9" y="162.4" class="st1" width="5.9" height="5.9"/>
	<rect x="66.7" y="162.4" class="st1" width="5.9" height="5.9"/>
	<rect x="72.6" y="162.4" class="st5" width="5.9" height="5.9"/>
	<rect x="78.4" y="162.4" class="st6" width="5.9" height="5.9"/>
	<rect x="84.3" y="162.4" class="st6" width="5.9" height="5.9"/>
	<rect x="90.1" y="162.4" class="st6" width="5.9" height="5.9"/>
	<rect x="96" y="162.4" class="st7" width="5.9" height="5.9"/>
	<rect x="101.9" y="162.4" class="st7" width="5.9" height="5.9"/>
	<rect x="107.7" y="162.4" class="st7" width="5.9" height="5.9"/>
	<rect x="113.6" y="162.4" class="st5" width="5.9" height="5.9"/>
	<rect x="119.4" y="162.4" class="st4" width="5.9" height="5.9"/>
	<rect x="125.3" y="162.4" class="st1" width="5.9" height="5.9"/>
	<rect x="131.1" y="162.4" class="st0" width="5.9" height="5.9"/>
	<rect x="60.9" y="168.3" class="st0" width="5.9" height="5.9"/>
	<rect x="66.7" y="168.3" class="st0" width="5.9" height="5.9"/>
	<rect x="72.6" y="168.3" class="st0" width="5.9" height="5.9"/>
	<rect x="78.4" y="168.3" class="st1" width="5.9" height="5.9"/>
	<rect x="84.3" y="168.3" class="st2" width="5.9" height="5.9"/>
	<rect x="90.1" y="168.3" class="st3" width="5.9" height="5.9"/>
	<rect x="96" y="168.3" class="st3" width="5.9" height="5.9"/>
	<rect x="101.9" y="168.3" class="st4" width="5.9" height="5.9"/>
	<rect x="107.7" y="168.3" class="st1" width="5.9" height="5.9"/>
	<rect x="113.6" y="168.3" class="st0" width="5.9" height="5.9"/>
	<rect x="119.4" y="168.3" class="st0" width="5.9" height="5.9"/>
	<rect x="125.3" y="168.3" class="st0" width="5.9" height="5.9"/>
	<rect x="78.4" y="174.1" class="st0" width="5.9" height="5.9"/>
	<rect x="84.3" y="174.1" class="st0" width="5.9" height="5.9"/>
	<rect x="90.1" y="174.1" class="st0" width="5.9" height="5.9"/>
	<rect x="96" y="174.1" class="st0" width="5.9" height="5.9"/>
	<rect x="101.9" y="174.1" class="st0" width="5.9" height="5.9"/>
	<rect x="107.7" y="174.1" class="st0" width="5.9" height="5.9"/>
</g>
</svg>
