<?xml version="1.0" encoding="utf-8"?>
<!-- Generator: Adobe Illustrator 27.9.0, SVG Export Plug-In . SVG Version: 6.00 Build 0)  -->
<svg version="1.1" id="Layer_1" shape-rendering="crispEdges"
	 xmlns="http://www.w3.org/2000/svg" xmlns:xlink="http://www.w3.org/1999/xlink" x="0px" y="0px" viewBox="0 0 192 192"
	 style="enable-background:new 0 0 192 192;" xml:space="preserve">
<style type="text/css">
	.st0{fill:#EECC11;}
	.st1{fill:#E0603D;}
</style>
<g>
	<rect x="84" y="78" class="st0" width="6" height="6"/>
	<rect x="102" y="78" class="st0" width="6" height="6"/>
	<rect x="78" y="84" class="st0" width="6" height="6"/>
	<rect x="84" y="84" class="st1" width="6" height="6"/>
	<rect x="90" y="84" class="st0" width="6" height="6"/>
	<rect x="96" y="84" class="st0" width="6" height="6"/>
	<rect x="102" y="84" class="st1" width="6" height="6"/>
	<rect x="108" y="84" class="st0" width="6" height="6"/>
	<rect x="84" y="90" class="st0" width="6" height="6"/>
	<rect x="90" y="90" class="st1" width="6" height="6"/>
	<rect x="96" y="90" class="st1" width="6" height="6"/>
	<rect x="102" y="90" class="st0" width="6" height="6"/>
	<rect x="84" y="96" class="st0" width="6" height="6"/>
	<rect x="90" y="96" class="st1" width="6" height="6"/>
	<rect x="96" y="96" class="st1" width="6" height="6"/>
	<rect x="102" y="96" class="st0" width="6" height="6"/>
	<rect x="78" y="102" class="st0" width="6" height="6"/>
	<rect x="84" y="102" class="st1" width="6" height="6"/>
	<rect x="90" y="102" class="st0" width="6" height="6"/>
	<rect x="96" y="102" class="st0" width="6" height="6"/>
	<rect x="102" y="102" class="st1" width="6" height="6"/>
	<rect x="108" y="102" class="st0" width="6" height="6"/>
	<rect x="84" y="108" class="st0" width="6" height="6"/>
	<rect x="102" y="108" class="st0" width="6" height="6"/>
</g>
</svg>
