<?xml version="1.0" encoding="UTF-8"?><svg id="Layer_1" xmlns="http://www.w3.org/2000/svg" viewBox="0 0 500 430"><defs><style>.cls-1,.cls-2{stroke:#914938;stroke-miterlimit:10;stroke-width:2px;}.cls-1,.cls-3{fill:#914938;}.cls-4{fill:#f4ebd4;font-family:Roboto-Bold, Roboto;font-size:20.36px;font-weight:700;}.cls-2{fill:none;}.cls-3{stroke-width:0px;}</style></defs><path class="cls-3" d="m83.88,335.93c21.24-13.68,58.68-42.12,87.84-68.76l12.6,19.44c-23.76,21.96-57.96,50.04-77.04,64.8.36,3.96-1.08,7.56-3.96,9.72l-19.44-25.2Zm147.96-142.2c-6.12,10.44-9.72,19.08-9.72,27.36,0,14.76,10.44,27.36,34.56,43.92,29.16,19.8,43.2,44.28,43.2,70.2,0,33.12-25.56,55.08-58.32,55.08-18.36,0-38.16-7.56-69.84-24.12,2.88-5.76,5.4-13.32,7.2-20.88,30.24,15.84,47.88,21.24,59.76,21.24,22.68,0,34.92-13.32,34.92-32.04,0-16.2-11.52-37.8-37.8-55.8-26.28-18-38.52-35.64-38.52-55.44,0-11.52,3.96-24.12,11.88-37.8l22.68,8.28Zm-45.36-115.2c39.24,23.04,91.44,38.88,136.08,42.84l-6.12,24.12c-4.68-.72-9-1.08-13.32-1.08-19.08,0-35.28,7.2-56.88,27l-21.6-9.36c10.08-10.08,25.92-21.96,37.44-26.64-25.56-5.76-57.6-18-88.56-37.44l12.96-19.44Zm126.36,158.04c41.4,16.2,80.64,50.76,97.2,99.36l-23.4,12.96c-15.12-43.92-50.4-79.56-87.12-93.6l13.32-18.72Z"/><path class="cls-2" d="m199.1,66.82s55.04,33.43,118.96,37.53"/><path class="cls-2" d="m244.83,198.03s-28.96,33.96,20.91,57.78"/><path class="cls-2" d="m161.19,261.15s-61.94,53.23-74.04,58.26"/><path class="cls-2" d="m330.06,227.72s60.38,22.52,86.26,82.87"/><polygon class="cls-1" points="309.88 103.67 310.45 98.96 315.99 102.02 321.52 105.08 315.41 106.74 309.31 108.39 309.88 103.67"/><polygon class="cls-1" points="262.89 254.5 264.79 250.15 269.21 254.67 273.63 259.19 267.31 259.02 260.99 258.85 262.89 254.5"/><polygon class="cls-1" points="93.44 315.86 96.04 319.83 89.84 321.06 83.64 322.29 87.23 317.09 90.83 311.89 93.44 315.86"/><polygon class="cls-1" points="410.94 300.2 415.15 298.01 415.76 304.3 416.36 310.6 411.55 306.5 406.73 302.4 410.94 300.2"/><circle class="cls-1" cx="172.71" cy="55.81" r="16.1"/><text class="cls-4" transform="translate(166.87 63.11)"><tspan x="0" y="0">1</tspan></text><circle class="cls-1" cx="273.18" cy="185.3" r="16.1"/><text class="cls-4" transform="translate(267.34 192.6)"><tspan x="0" y="0">2</tspan></text><circle class="cls-1" cx="150.39" cy="234.41" r="16.1"/><text class="cls-4" transform="translate(144.55 241.72)"><tspan x="0" y="0">3</tspan></text><circle class="cls-1" cx="331.22" cy="198.69" r="16.1"/><text class="cls-4" transform="translate(325.38 206)"><tspan x="0" y="0">4</tspan></text></svg>