<?xml version="1.0" encoding="utf-8"?>
<!-- Generator: Adobe Illustrator 27.9.0, SVG Export Plug-In . SVG Version: 6.00 Build 0)  -->
<svg version="1.1" id="Layer_1" shape-rendering="crispEdges"
	 xmlns="http://www.w3.org/2000/svg" xmlns:xlink="http://www.w3.org/1999/xlink" x="0px" y="0px" viewBox="0 0 192 192"
	 style="enable-background:new 0 0 192 192;" xml:space="preserve">
<style type="text/css">
	.st0{fill:#FF9648;}
	.st1{fill:#388A84;}
	.st2{fill:#176B75;}
	.st3{fill:#50B06E;}
	.st4{fill:#13795B;}
	.st5{fill:#4A8E72;}
	.st6{fill:#B56851;}
	.st7{fill:#ABCC5C;}
	.st8{fill:#E17557;}
	.st9{fill:#CF6F87;}
	.st10{fill:#F2C7B6;}
	.st11{fill:#EDE5B7;}
	.st12{fill:#AE5269;}
	.st13{fill:#FFF9D9;}
	.st14{fill:#F1B5AE;}
	.st15{fill:#ECC98B;}
	.st16{fill:#EBAC8B;}
	.st17{fill:#EA9571;}
	.st18{fill:#EB97A7;}
	.st19{fill:#D58858;}
	.st20{fill:#8D506B;}
	.st21{fill:#CD694F;}
</style>
<g>
	<rect x="72" y="6" class="st0" width="6" height="6"/>
	<rect x="114" y="6" class="st0" width="6" height="6"/>
	<rect x="66" y="12" class="st0" width="6" height="6"/>
	<rect x="72" y="12" class="st1" width="6" height="6"/>
	<rect x="78" y="12" class="st0" width="6" height="6"/>
	<rect x="84" y="12" class="st0" width="6" height="6"/>
	<rect x="102" y="12" class="st0" width="6" height="6"/>
	<rect x="108" y="12" class="st0" width="6" height="6"/>
	<rect x="114" y="12" class="st2" width="6" height="6"/>
	<rect x="120" y="12" class="st0" width="6" height="6"/>
	<rect x="72" y="18" class="st0" width="6" height="6"/>
	<rect x="78" y="18" class="st3" width="6" height="6"/>
	<rect x="84" y="18" class="st4" width="6" height="6"/>
	<rect x="90" y="18" class="st0" width="6" height="6"/>
	<rect x="96" y="18" class="st0" width="6" height="6"/>
	<rect x="102" y="18" class="st2" width="6" height="6"/>
	<rect x="108" y="18" class="st5" width="6" height="6"/>
	<rect x="114" y="18" class="st0" width="6" height="6"/>
	<rect x="72" y="24" class="st0" width="6" height="6"/>
	<rect x="78" y="24" class="st1" width="6" height="6"/>
	<rect x="84" y="24" class="st3" width="6" height="6"/>
	<rect x="90" y="24" class="st0" width="6" height="6"/>
	<rect x="96" y="24" class="st0" width="6" height="6"/>
	<rect x="102" y="24" class="st5" width="6" height="6"/>
	<rect x="108" y="24" class="st2" width="6" height="6"/>
	<rect x="114" y="24" class="st0" width="6" height="6"/>
	<rect x="78" y="30" class="st0" width="6" height="6"/>
	<rect x="84" y="30" class="st3" width="6" height="6"/>
	<rect x="90" y="30" class="st4" width="6" height="6"/>
	<rect x="96" y="30" class="st4" width="6" height="6"/>
	<rect x="102" y="30" class="st4" width="6" height="6"/>
	<rect x="108" y="30" class="st0" width="6" height="6"/>
	<rect x="78" y="36" class="st0" width="6" height="6"/>
	<rect x="84" y="36" class="st3" width="6" height="6"/>
	<rect x="90" y="36" class="st3" width="6" height="6"/>
	<rect x="96" y="36" class="st4" width="6" height="6"/>
	<rect x="102" y="36" class="st2" width="6" height="6"/>
	<rect x="108" y="36" class="st0" width="6" height="6"/>
	<rect x="78" y="42" class="st0" width="6" height="6"/>
	<rect x="84" y="42" class="st1" width="6" height="6"/>
	<rect x="90" y="42" class="st3" width="6" height="6"/>
	<rect x="96" y="42" class="st5" width="6" height="6"/>
	<rect x="102" y="42" class="st2" width="6" height="6"/>
	<rect x="108" y="42" class="st0" width="6" height="6"/>
	<rect x="78" y="48" class="st0" width="6" height="6"/>
	<rect x="84" y="48" class="st1" width="6" height="6"/>
	<rect x="90" y="48" class="st3" width="6" height="6"/>
	<rect x="96" y="48" class="st5" width="6" height="6"/>
	<rect x="102" y="48" class="st2" width="6" height="6"/>
	<rect x="108" y="48" class="st0" width="6" height="6"/>
	<rect x="78" y="54" class="st0" width="6" height="6"/>
	<rect x="84" y="54" class="st5" width="6" height="6"/>
	<rect x="90" y="54" class="st3" width="6" height="6"/>
	<rect x="96" y="54" class="st3" width="6" height="6"/>
	<rect x="102" y="54" class="st2" width="6" height="6"/>
	<rect x="108" y="54" class="st0" width="6" height="6"/>
	<rect x="78" y="60" class="st0" width="6" height="6"/>
	<rect x="84" y="60" class="st1" width="6" height="6"/>
	<rect x="90" y="60" class="st3" width="6" height="6"/>
	<rect x="96" y="60" class="st3" width="6" height="6"/>
	<rect x="102" y="60" class="st1" width="6" height="6"/>
	<rect x="108" y="60" class="st0" width="6" height="6"/>
	<rect x="78" y="66" class="st0" width="6" height="6"/>
	<rect x="84" y="66" class="st6" width="6" height="6"/>
	<rect x="90" y="66" class="st7" width="6" height="6"/>
	<rect x="96" y="66" class="st7" width="6" height="6"/>
	<rect x="102" y="66" class="st8" width="6" height="6"/>
	<rect x="108" y="66" class="st0" width="6" height="6"/>
	<rect x="78" y="72" class="st0" width="6" height="6"/>
	<rect x="84" y="72" class="st9" width="6" height="6"/>
	<rect x="90" y="72" class="st10" width="6" height="6"/>
	<rect x="96" y="72" class="st11" width="6" height="6"/>
	<rect x="102" y="72" class="st9" width="6" height="6"/>
	<rect x="108" y="72" class="st0" width="6" height="6"/>
	<rect x="72" y="78" class="st0" width="6" height="6"/>
	<rect x="78" y="78" class="st9" width="6" height="6"/>
	<rect x="84" y="78" class="st10" width="6" height="6"/>
	<rect x="90" y="78" class="st11" width="6" height="6"/>
	<rect x="96" y="78" class="st11" width="6" height="6"/>
	<rect x="102" y="78" class="st11" width="6" height="6"/>
	<rect x="108" y="78" class="st9" width="6" height="6"/>
	<rect x="114" y="78" class="st0" width="6" height="6"/>
	<rect x="66" y="84" class="st0" width="6" height="6"/>
	<rect x="72" y="84" class="st0" width="6" height="6"/>
	<rect x="78" y="84" class="st9" width="6" height="6"/>
	<rect x="84" y="84" class="st10" width="6" height="6"/>
	<rect x="90" y="84" class="st11" width="6" height="6"/>
	<rect x="96" y="84" class="st11" width="6" height="6"/>
	<rect x="102" y="84" class="st11" width="6" height="6"/>
	<rect x="108" y="84" class="st9" width="6" height="6"/>
	<rect x="114" y="84" class="st0" width="6" height="6"/>
	<rect x="120" y="84" class="st0" width="6" height="6"/>
	<rect x="60" y="90" class="st0" width="6" height="6"/>
	<rect x="66" y="90" class="st12" width="6" height="6"/>
	<rect x="72" y="90" class="st9" width="6" height="6"/>
	<rect x="78" y="90" class="st10" width="6" height="6"/>
	<rect x="84" y="90" class="st11" width="6" height="6"/>
	<rect x="90" y="90" class="st11" width="6" height="6"/>
	<rect x="96" y="90" class="st11" width="6" height="6"/>
	<rect x="102" y="90" class="st11" width="6" height="6"/>
	<rect x="108" y="90" class="st11" width="6" height="6"/>
	<rect x="114" y="90" class="st9" width="6" height="6"/>
	<rect x="120" y="90" class="st9" width="6" height="6"/>
	<rect x="126" y="90" class="st0" width="6" height="6"/>
	<rect x="54" y="96" class="st0" width="6" height="6"/>
	<rect x="60" y="96" class="st12" width="6" height="6"/>
	<rect x="66" y="96" class="st10" width="6" height="6"/>
	<rect x="72" y="96" class="st10" width="6" height="6"/>
	<rect x="78" y="96" class="st11" width="6" height="6"/>
	<rect x="84" y="96" class="st11" width="6" height="6"/>
	<rect x="90" y="96" class="st11" width="6" height="6"/>
	<rect x="96" y="96" class="st11" width="6" height="6"/>
	<rect x="102" y="96" class="st11" width="6" height="6"/>
	<rect x="108" y="96" class="st11" width="6" height="6"/>
	<rect x="114" y="96" class="st11" width="6" height="6"/>
	<rect x="120" y="96" class="st13" width="6" height="6"/>
	<rect x="126" y="96" class="st9" width="6" height="6"/>
	<rect x="132" y="96" class="st0" width="6" height="6"/>
	<rect x="48" y="102" class="st0" width="6" height="6"/>
	<rect x="54" y="102" class="st12" width="6" height="6"/>
	<rect x="60" y="102" class="st14" width="6" height="6"/>
	<rect x="66" y="102" class="st15" width="6" height="6"/>
	<rect x="72" y="102" class="st15" width="6" height="6"/>
	<rect x="78" y="102" class="st16" width="6" height="6"/>
	<rect x="84" y="102" class="st11" width="6" height="6"/>
	<rect x="90" y="102" class="st16" width="6" height="6"/>
	<rect x="96" y="102" class="st11" width="6" height="6"/>
	<rect x="102" y="102" class="st11" width="6" height="6"/>
	<rect x="108" y="102" class="st16" width="6" height="6"/>
	<rect x="114" y="102" class="st11" width="6" height="6"/>
	<rect x="120" y="102" class="st11" width="6" height="6"/>
	<rect x="126" y="102" class="st13" width="6" height="6"/>
	<rect x="132" y="102" class="st9" width="6" height="6"/>
	<rect x="138" y="102" class="st0" width="6" height="6"/>
	<rect x="42" y="108" class="st0" width="6" height="6"/>
	<rect x="48" y="108" class="st12" width="6" height="6"/>
	<rect x="54" y="108" class="st14" width="6" height="6"/>
	<rect x="60" y="108" class="st15" width="6" height="6"/>
	<rect x="66" y="108" class="st15" width="6" height="6"/>
	<rect x="72" y="108" class="st16" width="6" height="6"/>
	<rect x="78" y="108" class="st11" width="6" height="6"/>
	<rect x="84" y="108" class="st13" width="6" height="6"/>
	<rect x="90" y="108" class="st16" width="6" height="6"/>
	<rect x="96" y="108" class="st11" width="6" height="6"/>
	<rect x="102" y="108" class="st11" width="6" height="6"/>
	<rect x="108" y="108" class="st13" width="6" height="6"/>
	<rect x="114" y="108" class="st16" width="6" height="6"/>
	<rect x="120" y="108" class="st11" width="6" height="6"/>
	<rect x="126" y="108" class="st11" width="6" height="6"/>
	<rect x="132" y="108" class="st13" width="6" height="6"/>
	<rect x="138" y="108" class="st9" width="6" height="6"/>
	<rect x="144" y="108" class="st0" width="6" height="6"/>
	<rect x="36" y="114" class="st0" width="6" height="6"/>
	<rect x="42" y="114" class="st12" width="6" height="6"/>
	<rect x="48" y="114" class="st12" width="6" height="6"/>
	<rect x="54" y="114" class="st14" width="6" height="6"/>
	<rect x="60" y="114" class="st15" width="6" height="6"/>
	<rect x="66" y="114" class="st17" width="6" height="6"/>
	<rect x="72" y="114" class="st11" width="6" height="6"/>
	<rect x="78" y="114" class="st11" width="6" height="6"/>
	<rect x="84" y="114" class="st13" width="6" height="6"/>
	<rect x="90" y="114" class="st17" width="6" height="6"/>
	<rect x="96" y="114" class="st11" width="6" height="6"/>
	<rect x="102" y="114" class="st11" width="6" height="6"/>
	<rect x="108" y="114" class="st11" width="6" height="6"/>
	<rect x="114" y="114" class="st13" width="6" height="6"/>
	<rect x="120" y="114" class="st16" width="6" height="6"/>
	<rect x="126" y="114" class="st11" width="6" height="6"/>
	<rect x="132" y="114" class="st13" width="6" height="6"/>
	<rect x="138" y="114" class="st9" width="6" height="6"/>
	<rect x="144" y="114" class="st9" width="6" height="6"/>
	<rect x="150" y="114" class="st0" width="6" height="6"/>
	<rect x="30" y="120" class="st0" width="6" height="6"/>
	<rect x="36" y="120" class="st12" width="6" height="6"/>
	<rect x="42" y="120" class="st18" width="6" height="6"/>
	<rect x="48" y="120" class="st18" width="6" height="6"/>
	<rect x="54" y="120" class="st15" width="6" height="6"/>
	<rect x="60" y="120" class="st9" width="6" height="6"/>
	<rect x="66" y="120" class="st19" width="6" height="6"/>
	<rect x="72" y="120" class="st11" width="6" height="6"/>
	<rect x="78" y="120" class="st11" width="6" height="6"/>
	<rect x="84" y="120" class="st13" width="6" height="6"/>
	<rect x="90" y="120" class="st17" width="6" height="6"/>
	<rect x="96" y="120" class="st10" width="6" height="6"/>
	<rect x="102" y="120" class="st11" width="6" height="6"/>
	<rect x="108" y="120" class="st11" width="6" height="6"/>
	<rect x="114" y="120" class="st13" width="6" height="6"/>
	<rect x="120" y="120" class="st16" width="6" height="6"/>
	<rect x="126" y="120" class="st16" width="6" height="6"/>
	<rect x="132" y="120" class="st11" width="6" height="6"/>
	<rect x="138" y="120" class="st13" width="6" height="6"/>
	<rect x="144" y="120" class="st13" width="6" height="6"/>
	<rect x="150" y="120" class="st9" width="6" height="6"/>
	<rect x="156" y="120" class="st0" width="6" height="6"/>
	<rect x="30" y="126" class="st0" width="6" height="6"/>
	<rect x="36" y="126" class="st12" width="6" height="6"/>
	<rect x="42" y="126" class="st18" width="6" height="6"/>
	<rect x="48" y="126" class="st15" width="6" height="6"/>
	<rect x="54" y="126" class="st9" width="6" height="6"/>
	<rect x="60" y="126" class="st14" width="6" height="6"/>
	<rect x="66" y="126" class="st14" width="6" height="6"/>
	<rect x="72" y="126" class="st11" width="6" height="6"/>
	<rect x="78" y="126" class="st11" width="6" height="6"/>
	<rect x="84" y="126" class="st13" width="6" height="6"/>
	<rect x="90" y="126" class="st19" width="6" height="6"/>
	<rect x="96" y="126" class="st10" width="6" height="6"/>
	<rect x="102" y="126" class="st11" width="6" height="6"/>
	<rect x="108" y="126" class="st11" width="6" height="6"/>
	<rect x="114" y="126" class="st11" width="6" height="6"/>
	<rect x="120" y="126" class="st13" width="6" height="6"/>
	<rect x="126" y="126" class="st13" width="6" height="6"/>
	<rect x="132" y="126" class="st16" width="6" height="6"/>
	<rect x="138" y="126" class="st11" width="6" height="6"/>
	<rect x="144" y="126" class="st13" width="6" height="6"/>
	<rect x="150" y="126" class="st9" width="6" height="6"/>
	<rect x="156" y="126" class="st0" width="6" height="6"/>
	<rect x="30" y="132" class="st0" width="6" height="6"/>
	<rect x="36" y="132" class="st20" width="6" height="6"/>
	<rect x="42" y="132" class="st18" width="6" height="6"/>
	<rect x="48" y="132" class="st15" width="6" height="6"/>
	<rect x="54" y="132" class="st9" width="6" height="6"/>
	<rect x="60" y="132" class="st14" width="6" height="6"/>
	<rect x="66" y="132" class="st15" width="6" height="6"/>
	<rect x="72" y="132" class="st11" width="6" height="6"/>
	<rect x="78" y="132" class="st11" width="6" height="6"/>
	<rect x="84" y="132" class="st11" width="6" height="6"/>
	<rect x="90" y="132" class="st13" width="6" height="6"/>
	<rect x="96" y="132" class="st17" width="6" height="6"/>
	<rect x="102" y="132" class="st10" width="6" height="6"/>
	<rect x="108" y="132" class="st11" width="6" height="6"/>
	<rect x="114" y="132" class="st11" width="6" height="6"/>
	<rect x="120" y="132" class="st11" width="6" height="6"/>
	<rect x="126" y="132" class="st11" width="6" height="6"/>
	<rect x="132" y="132" class="st16" width="6" height="6"/>
	<rect x="138" y="132" class="st11" width="6" height="6"/>
	<rect x="144" y="132" class="st11" width="6" height="6"/>
	<rect x="150" y="132" class="st9" width="6" height="6"/>
	<rect x="156" y="132" class="st0" width="6" height="6"/>
	<rect x="30" y="138" class="st0" width="6" height="6"/>
	<rect x="36" y="138" class="st20" width="6" height="6"/>
	<rect x="42" y="138" class="st18" width="6" height="6"/>
	<rect x="48" y="138" class="st15" width="6" height="6"/>
	<rect x="54" y="138" class="st8" width="6" height="6"/>
	<rect x="60" y="138" class="st14" width="6" height="6"/>
	<rect x="66" y="138" class="st15" width="6" height="6"/>
	<rect x="72" y="138" class="st11" width="6" height="6"/>
	<rect x="78" y="138" class="st11" width="6" height="6"/>
	<rect x="84" y="138" class="st11" width="6" height="6"/>
	<rect x="90" y="138" class="st11" width="6" height="6"/>
	<rect x="96" y="138" class="st19" width="6" height="6"/>
	<rect x="102" y="138" class="st10" width="6" height="6"/>
	<rect x="108" y="138" class="st11" width="6" height="6"/>
	<rect x="114" y="138" class="st11" width="6" height="6"/>
	<rect x="120" y="138" class="st11" width="6" height="6"/>
	<rect x="126" y="138" class="st11" width="6" height="6"/>
	<rect x="132" y="138" class="st16" width="6" height="6"/>
	<rect x="138" y="138" class="st11" width="6" height="6"/>
	<rect x="144" y="138" class="st11" width="6" height="6"/>
	<rect x="150" y="138" class="st12" width="6" height="6"/>
	<rect x="156" y="138" class="st0" width="6" height="6"/>
	<rect x="30" y="144" class="st0" width="6" height="6"/>
	<rect x="36" y="144" class="st20" width="6" height="6"/>
	<rect x="42" y="144" class="st8" width="6" height="6"/>
	<rect x="48" y="144" class="st18" width="6" height="6"/>
	<rect x="54" y="144" class="st8" width="6" height="6"/>
	<rect x="60" y="144" class="st18" width="6" height="6"/>
	<rect x="66" y="144" class="st15" width="6" height="6"/>
	<rect x="72" y="144" class="st15" width="6" height="6"/>
	<rect x="78" y="144" class="st11" width="6" height="6"/>
	<rect x="84" y="144" class="st11" width="6" height="6"/>
	<rect x="90" y="144" class="st11" width="6" height="6"/>
	<rect x="96" y="144" class="st19" width="6" height="6"/>
	<rect x="102" y="144" class="st10" width="6" height="6"/>
	<rect x="108" y="144" class="st11" width="6" height="6"/>
	<rect x="114" y="144" class="st11" width="6" height="6"/>
	<rect x="120" y="144" class="st11" width="6" height="6"/>
	<rect x="126" y="144" class="st11" width="6" height="6"/>
	<rect x="132" y="144" class="st16" width="6" height="6"/>
	<rect x="138" y="144" class="st11" width="6" height="6"/>
	<rect x="144" y="144" class="st11" width="6" height="6"/>
	<rect x="150" y="144" class="st12" width="6" height="6"/>
	<rect x="156" y="144" class="st0" width="6" height="6"/>
	<rect x="30" y="150" class="st0" width="6" height="6"/>
	<rect x="36" y="150" class="st20" width="6" height="6"/>
	<rect x="42" y="150" class="st8" width="6" height="6"/>
	<rect x="48" y="150" class="st18" width="6" height="6"/>
	<rect x="54" y="150" class="st8" width="6" height="6"/>
	<rect x="60" y="150" class="st18" width="6" height="6"/>
	<rect x="66" y="150" class="st18" width="6" height="6"/>
	<rect x="72" y="150" class="st15" width="6" height="6"/>
	<rect x="78" y="150" class="st15" width="6" height="6"/>
	<rect x="84" y="150" class="st11" width="6" height="6"/>
	<rect x="90" y="150" class="st11" width="6" height="6"/>
	<rect x="96" y="150" class="st9" width="6" height="6"/>
	<rect x="102" y="150" class="st10" width="6" height="6"/>
	<rect x="108" y="150" class="st11" width="6" height="6"/>
	<rect x="114" y="150" class="st11" width="6" height="6"/>
	<rect x="120" y="150" class="st11" width="6" height="6"/>
	<rect x="126" y="150" class="st11" width="6" height="6"/>
	<rect x="132" y="150" class="st16" width="6" height="6"/>
	<rect x="138" y="150" class="st11" width="6" height="6"/>
	<rect x="144" y="150" class="st11" width="6" height="6"/>
	<rect x="150" y="150" class="st12" width="6" height="6"/>
	<rect x="156" y="150" class="st0" width="6" height="6"/>
	<rect x="36" y="156" class="st0" width="6" height="6"/>
	<rect x="42" y="156" class="st20" width="6" height="6"/>
	<rect x="48" y="156" class="st21" width="6" height="6"/>
	<rect x="54" y="156" class="st8" width="6" height="6"/>
	<rect x="60" y="156" class="st8" width="6" height="6"/>
	<rect x="66" y="156" class="st8" width="6" height="6"/>
	<rect x="72" y="156" class="st18" width="6" height="6"/>
	<rect x="78" y="156" class="st15" width="6" height="6"/>
	<rect x="84" y="156" class="st15" width="6" height="6"/>
	<rect x="90" y="156" class="st15" width="6" height="6"/>
	<rect x="96" y="156" class="st9" width="6" height="6"/>
	<rect x="102" y="156" class="st10" width="6" height="6"/>
	<rect x="108" y="156" class="st11" width="6" height="6"/>
	<rect x="114" y="156" class="st11" width="6" height="6"/>
	<rect x="120" y="156" class="st16" width="6" height="6"/>
	<rect x="126" y="156" class="st16" width="6" height="6"/>
	<rect x="132" y="156" class="st16" width="6" height="6"/>
	<rect x="138" y="156" class="st17" width="6" height="6"/>
	<rect x="144" y="156" class="st12" width="6" height="6"/>
	<rect x="150" y="156" class="st0" width="6" height="6"/>
	<rect x="42" y="162" class="st0" width="6" height="6"/>
	<rect x="48" y="162" class="st20" width="6" height="6"/>
	<rect x="54" y="162" class="st21" width="6" height="6"/>
	<rect x="60" y="162" class="st21" width="6" height="6"/>
	<rect x="66" y="162" class="st21" width="6" height="6"/>
	<rect x="72" y="162" class="st8" width="6" height="6"/>
	<rect x="78" y="162" class="st18" width="6" height="6"/>
	<rect x="84" y="162" class="st18" width="6" height="6"/>
	<rect x="90" y="162" class="st8" width="6" height="6"/>
	<rect x="96" y="162" class="st8" width="6" height="6"/>
	<rect x="102" y="162" class="st8" width="6" height="6"/>
	<rect x="108" y="162" class="st10" width="6" height="6"/>
	<rect x="114" y="162" class="st19" width="6" height="6"/>
	<rect x="120" y="162" class="st17" width="6" height="6"/>
	<rect x="126" y="162" class="st17" width="6" height="6"/>
	<rect x="132" y="162" class="st19" width="6" height="6"/>
	<rect x="138" y="162" class="st20" width="6" height="6"/>
	<rect x="144" y="162" class="st0" width="6" height="6"/>
	<rect x="48" y="168" class="st0" width="6" height="6"/>
	<rect x="54" y="168" class="st20" width="6" height="6"/>
	<rect x="60" y="168" class="st20" width="6" height="6"/>
	<rect x="66" y="168" class="st20" width="6" height="6"/>
	<rect x="72" y="168" class="st20" width="6" height="6"/>
	<rect x="78" y="168" class="st21" width="6" height="6"/>
	<rect x="84" y="168" class="st21" width="6" height="6"/>
	<rect x="90" y="168" class="st21" width="6" height="6"/>
	<rect x="96" y="168" class="st21" width="6" height="6"/>
	<rect x="102" y="168" class="st21" width="6" height="6"/>
	<rect x="108" y="168" class="st8" width="6" height="6"/>
	<rect x="114" y="168" class="st20" width="6" height="6"/>
	<rect x="120" y="168" class="st20" width="6" height="6"/>
	<rect x="126" y="168" class="st20" width="6" height="6"/>
	<rect x="132" y="168" class="st20" width="6" height="6"/>
	<rect x="138" y="168" class="st0" width="6" height="6"/>
	<rect x="54" y="174" class="st0" width="6" height="6"/>
	<rect x="60" y="174" class="st0" width="6" height="6"/>
	<rect x="66" y="174" class="st0" width="6" height="6"/>
	<rect x="72" y="174" class="st0" width="6" height="6"/>
	<rect x="78" y="174" class="st20" width="6" height="6"/>
	<rect x="84" y="174" class="st20" width="6" height="6"/>
	<rect x="90" y="174" class="st20" width="6" height="6"/>
	<rect x="96" y="174" class="st20" width="6" height="6"/>
	<rect x="102" y="174" class="st20" width="6" height="6"/>
	<rect x="108" y="174" class="st20" width="6" height="6"/>
	<rect x="114" y="174" class="st0" width="6" height="6"/>
	<rect x="120" y="174" class="st0" width="6" height="6"/>
	<rect x="126" y="174" class="st0" width="6" height="6"/>
	<rect x="132" y="174" class="st0" width="6" height="6"/>
	<rect x="78" y="180" class="st0" width="6" height="6"/>
	<rect x="84" y="180" class="st0" width="6" height="6"/>
	<rect x="90" y="180" class="st0" width="6" height="6"/>
	<rect x="96" y="180" class="st0" width="6" height="6"/>
	<rect x="102" y="180" class="st0" width="6" height="6"/>
	<rect x="108" y="180" class="st0" width="6" height="6"/>
</g>
</svg>
