<?xml version="1.0" encoding="utf-8"?>
<!-- Generator: Adobe Illustrator 27.9.0, SVG Export Plug-In . SVG Version: 6.00 Build 0)  -->
<svg version="1.1" id="Layer_1" shape-rendering="crispEdges"
	 xmlns="http://www.w3.org/2000/svg" xmlns:xlink="http://www.w3.org/1999/xlink" x="0px" y="0px" viewBox="0 0 192 192"
	 style="enable-background:new 0 0 192 192;" xml:space="preserve">
<style type="text/css">
	.st0{fill:#FF9648;}
	.st1{fill:#8D5386;}
	.st2{fill:#AE5269;}
	.st3{fill:#B55D83;}
	.st4{fill:#E6C874;}
	.st5{fill:#E75D81;}
	.st6{fill:#E17557;}
	.st7{fill:#EECC11;}
	.st8{fill:#ED7837;}
	.st9{fill:#E66720;}
	.st10{fill:#EB97A7;}
	.st11{fill:#E0603D;}
	.st12{fill:#EDE5B7;}
	.st13{fill:#E4895D;}
	.st14{fill:#E7A55D;}
	.st15{fill:#71AFE3;}
	.st16{fill:#694F86;}
	.st17{fill:#E2574A;}
	.st18{fill:#EEAD11;}
	.st19{fill:#AA3963;}
	.st20{fill:#63E054;}
	.st21{fill:#2BA43E;}
	.st22{fill:#35933B;}
	.st23{fill:#B3534E;}
	.st24{fill:#8ACC59;}
	.st25{fill:#D1584A;}
	.st26{fill:#CEB8C8;}
	.st27{fill:#CF6F87;}
</style>
<g>
	<rect x="42" y="6" class="st0" width="6" height="6"/>
	<rect x="48" y="6" class="st0" width="6" height="6"/>
	<rect x="78" y="6" class="st0" width="6" height="6"/>
	<rect x="84" y="6" class="st0" width="6" height="6"/>
	<rect x="12" y="12" class="st0" width="6" height="6"/>
	<rect x="18" y="12" class="st0" width="6" height="6"/>
	<rect x="36" y="12" class="st0" width="6" height="6"/>
	<rect x="42" y="12" class="st1" width="6" height="6"/>
	<rect x="48" y="12" class="st1" width="6" height="6"/>
	<rect x="54" y="12" class="st0" width="6" height="6"/>
	<rect x="72" y="12" class="st0" width="6" height="6"/>
	<rect x="78" y="12" class="st1" width="6" height="6"/>
	<rect x="84" y="12" class="st1" width="6" height="6"/>
	<rect x="90" y="12" class="st0" width="6" height="6"/>
	<rect x="108" y="12" class="st0" width="6" height="6"/>
	<rect x="114" y="12" class="st0" width="6" height="6"/>
	<rect x="6" y="18" class="st0" width="6" height="6"/>
	<rect x="12" y="18" class="st2" width="6" height="6"/>
	<rect x="18" y="18" class="st2" width="6" height="6"/>
	<rect x="24" y="18" class="st0" width="6" height="6"/>
	<rect x="36" y="18" class="st0" width="6" height="6"/>
	<rect x="42" y="18" class="st1" width="6" height="6"/>
	<rect x="48" y="18" class="st3" width="6" height="6"/>
	<rect x="54" y="18" class="st0" width="6" height="6"/>
	<rect x="60" y="18" class="st0" width="6" height="6"/>
	<rect x="66" y="18" class="st0" width="6" height="6"/>
	<rect x="72" y="18" class="st0" width="6" height="6"/>
	<rect x="78" y="18" class="st3" width="6" height="6"/>
	<rect x="84" y="18" class="st1" width="6" height="6"/>
	<rect x="90" y="18" class="st0" width="6" height="6"/>
	<rect x="102" y="18" class="st0" width="6" height="6"/>
	<rect x="108" y="18" class="st2" width="6" height="6"/>
	<rect x="114" y="18" class="st2" width="6" height="6"/>
	<rect x="120" y="18" class="st0" width="6" height="6"/>
	<rect x="6" y="24" class="st0" width="6" height="6"/>
	<rect x="12" y="24" class="st2" width="6" height="6"/>
	<rect x="18" y="24" class="st4" width="6" height="6"/>
	<rect x="24" y="24" class="st2" width="6" height="6"/>
	<rect x="30" y="24" class="st0" width="6" height="6"/>
	<rect x="42" y="24" class="st0" width="6" height="6"/>
	<rect x="48" y="24" class="st5" width="6" height="6"/>
	<rect x="54" y="24" class="st6" width="6" height="6"/>
	<rect x="60" y="24" class="st6" width="6" height="6"/>
	<rect x="66" y="24" class="st6" width="6" height="6"/>
	<rect x="72" y="24" class="st6" width="6" height="6"/>
	<rect x="78" y="24" class="st5" width="6" height="6"/>
	<rect x="84" y="24" class="st0" width="6" height="6"/>
	<rect x="96" y="24" class="st0" width="6" height="6"/>
	<rect x="102" y="24" class="st2" width="6" height="6"/>
	<rect x="108" y="24" class="st4" width="6" height="6"/>
	<rect x="114" y="24" class="st2" width="6" height="6"/>
	<rect x="120" y="24" class="st0" width="6" height="6"/>
	<rect x="6" y="30" class="st0" width="6" height="6"/>
	<rect x="12" y="30" class="st2" width="6" height="6"/>
	<rect x="18" y="30" class="st4" width="6" height="6"/>
	<rect x="24" y="30" class="st4" width="6" height="6"/>
	<rect x="30" y="30" class="st2" width="6" height="6"/>
	<rect x="36" y="30" class="st0" width="6" height="6"/>
	<rect x="42" y="30" class="st6" width="6" height="6"/>
	<rect x="48" y="30" class="st6" width="6" height="6"/>
	<rect x="54" y="30" class="st7" width="6" height="6"/>
	<rect x="60" y="30" class="st8" width="6" height="6"/>
	<rect x="66" y="30" class="st8" width="6" height="6"/>
	<rect x="72" y="30" class="st7" width="6" height="6"/>
	<rect x="78" y="30" class="st6" width="6" height="6"/>
	<rect x="84" y="30" class="st6" width="6" height="6"/>
	<rect x="90" y="30" class="st0" width="6" height="6"/>
	<rect x="96" y="30" class="st2" width="6" height="6"/>
	<rect x="102" y="30" class="st4" width="6" height="6"/>
	<rect x="108" y="30" class="st4" width="6" height="6"/>
	<rect x="114" y="30" class="st2" width="6" height="6"/>
	<rect x="120" y="30" class="st0" width="6" height="6"/>
	<rect x="12" y="36" class="st0" width="6" height="6"/>
	<rect x="18" y="36" class="st6" width="6" height="6"/>
	<rect x="24" y="36" class="st9" width="6" height="6"/>
	<rect x="30" y="36" class="st10" width="6" height="6"/>
	<rect x="36" y="36" class="st6" width="6" height="6"/>
	<rect x="42" y="36" class="st7" width="6" height="6"/>
	<rect x="48" y="36" class="st7" width="6" height="6"/>
	<rect x="54" y="36" class="st8" width="6" height="6"/>
	<rect x="60" y="36" class="st11" width="6" height="6"/>
	<rect x="66" y="36" class="st11" width="6" height="6"/>
	<rect x="72" y="36" class="st8" width="6" height="6"/>
	<rect x="78" y="36" class="st7" width="6" height="6"/>
	<rect x="84" y="36" class="st7" width="6" height="6"/>
	<rect x="90" y="36" class="st6" width="6" height="6"/>
	<rect x="96" y="36" class="st10" width="6" height="6"/>
	<rect x="102" y="36" class="st9" width="6" height="6"/>
	<rect x="108" y="36" class="st6" width="6" height="6"/>
	<rect x="114" y="36" class="st0" width="6" height="6"/>
	<rect x="18" y="42" class="st0" width="6" height="6"/>
	<rect x="24" y="42" class="st0" width="6" height="6"/>
	<rect x="30" y="42" class="st9" width="6" height="6"/>
	<rect x="36" y="42" class="st12" width="6" height="6"/>
	<rect x="42" y="42" class="st12" width="6" height="6"/>
	<rect x="48" y="42" class="st12" width="6" height="6"/>
	<rect x="54" y="42" class="st8" width="6" height="6"/>
	<rect x="60" y="42" class="st8" width="6" height="6"/>
	<rect x="66" y="42" class="st8" width="6" height="6"/>
	<rect x="72" y="42" class="st8" width="6" height="6"/>
	<rect x="78" y="42" class="st12" width="6" height="6"/>
	<rect x="84" y="42" class="st12" width="6" height="6"/>
	<rect x="90" y="42" class="st12" width="6" height="6"/>
	<rect x="96" y="42" class="st9" width="6" height="6"/>
	<rect x="102" y="42" class="st0" width="6" height="6"/>
	<rect x="108" y="42" class="st0" width="6" height="6"/>
	<rect x="24" y="48" class="st0" width="6" height="6"/>
	<rect x="30" y="48" class="st9" width="6" height="6"/>
	<rect x="36" y="48" class="st13" width="6" height="6"/>
	<rect x="42" y="48" class="st13" width="6" height="6"/>
	<rect x="48" y="48" class="st14" width="6" height="6"/>
	<rect x="54" y="48" class="st8" width="6" height="6"/>
	<rect x="60" y="48" class="st11" width="6" height="6"/>
	<rect x="66" y="48" class="st11" width="6" height="6"/>
	<rect x="72" y="48" class="st8" width="6" height="6"/>
	<rect x="78" y="48" class="st14" width="6" height="6"/>
	<rect x="84" y="48" class="st13" width="6" height="6"/>
	<rect x="90" y="48" class="st13" width="6" height="6"/>
	<rect x="96" y="48" class="st9" width="6" height="6"/>
	<rect x="102" y="48" class="st0" width="6" height="6"/>
	<rect x="24" y="54" class="st0" width="6" height="6"/>
	<rect x="30" y="54" class="st9" width="6" height="6"/>
	<rect x="36" y="54" class="st15" width="6" height="6"/>
	<rect x="42" y="54" class="st16" width="6" height="6"/>
	<rect x="48" y="54" class="st7" width="6" height="6"/>
	<rect x="54" y="54" class="st8" width="6" height="6"/>
	<rect x="60" y="54" class="st8" width="6" height="6"/>
	<rect x="66" y="54" class="st8" width="6" height="6"/>
	<rect x="72" y="54" class="st8" width="6" height="6"/>
	<rect x="78" y="54" class="st7" width="6" height="6"/>
	<rect x="84" y="54" class="st15" width="6" height="6"/>
	<rect x="90" y="54" class="st16" width="6" height="6"/>
	<rect x="96" y="54" class="st9" width="6" height="6"/>
	<rect x="102" y="54" class="st0" width="6" height="6"/>
	<rect x="30" y="60" class="st0" width="6" height="6"/>
	<rect x="36" y="60" class="st15" width="6" height="6"/>
	<rect x="42" y="60" class="st16" width="6" height="6"/>
	<rect x="48" y="60" class="st7" width="6" height="6"/>
	<rect x="54" y="60" class="st14" width="6" height="6"/>
	<rect x="60" y="60" class="st11" width="6" height="6"/>
	<rect x="66" y="60" class="st11" width="6" height="6"/>
	<rect x="72" y="60" class="st14" width="6" height="6"/>
	<rect x="78" y="60" class="st7" width="6" height="6"/>
	<rect x="84" y="60" class="st15" width="6" height="6"/>
	<rect x="90" y="60" class="st16" width="6" height="6"/>
	<rect x="96" y="60" class="st0" width="6" height="6"/>
	<rect x="24" y="66" class="st0" width="6" height="6"/>
	<rect x="30" y="66" class="st17" width="6" height="6"/>
	<rect x="36" y="66" class="st18" width="6" height="6"/>
	<rect x="42" y="66" class="st7" width="6" height="6"/>
	<rect x="48" y="66" class="st6" width="6" height="6"/>
	<rect x="54" y="66" class="st7" width="6" height="6"/>
	<rect x="60" y="66" class="st8" width="6" height="6"/>
	<rect x="66" y="66" class="st8" width="6" height="6"/>
	<rect x="72" y="66" class="st7" width="6" height="6"/>
	<rect x="78" y="66" class="st6" width="6" height="6"/>
	<rect x="84" y="66" class="st7" width="6" height="6"/>
	<rect x="90" y="66" class="st18" width="6" height="6"/>
	<rect x="96" y="66" class="st17" width="6" height="6"/>
	<rect x="102" y="66" class="st0" width="6" height="6"/>
	<rect x="108" y="66" class="st0" width="6" height="6"/>
	<rect x="138" y="66" class="st0" width="6" height="6"/>
	<rect x="144" y="66" class="st0" width="6" height="6"/>
	<rect x="24" y="72" class="st0" width="6" height="6"/>
	<rect x="30" y="72" class="st17" width="6" height="6"/>
	<rect x="36" y="72" class="st18" width="6" height="6"/>
	<rect x="42" y="72" class="st7" width="6" height="6"/>
	<rect x="48" y="72" class="st7" width="6" height="6"/>
	<rect x="54" y="72" class="st8" width="6" height="6"/>
	<rect x="60" y="72" class="st8" width="6" height="6"/>
	<rect x="66" y="72" class="st8" width="6" height="6"/>
	<rect x="72" y="72" class="st8" width="6" height="6"/>
	<rect x="78" y="72" class="st7" width="6" height="6"/>
	<rect x="84" y="72" class="st7" width="6" height="6"/>
	<rect x="90" y="72" class="st18" width="6" height="6"/>
	<rect x="96" y="72" class="st17" width="6" height="6"/>
	<rect x="102" y="72" class="st1" width="6" height="6"/>
	<rect x="108" y="72" class="st1" width="6" height="6"/>
	<rect x="114" y="72" class="st0" width="6" height="6"/>
	<rect x="132" y="72" class="st0" width="6" height="6"/>
	<rect x="138" y="72" class="st1" width="6" height="6"/>
	<rect x="144" y="72" class="st1" width="6" height="6"/>
	<rect x="150" y="72" class="st0" width="6" height="6"/>
	<rect x="168" y="72" class="st0" width="6" height="6"/>
	<rect x="174" y="72" class="st0" width="6" height="6"/>
	<rect x="30" y="78" class="st0" width="6" height="6"/>
	<rect x="36" y="78" class="st17" width="6" height="6"/>
	<rect x="42" y="78" class="st11" width="6" height="6"/>
	<rect x="48" y="78" class="st7" width="6" height="6"/>
	<rect x="54" y="78" class="st8" width="6" height="6"/>
	<rect x="60" y="78" class="st8" width="6" height="6"/>
	<rect x="66" y="78" class="st8" width="6" height="6"/>
	<rect x="72" y="78" class="st8" width="6" height="6"/>
	<rect x="78" y="78" class="st7" width="6" height="6"/>
	<rect x="84" y="78" class="st11" width="6" height="6"/>
	<rect x="90" y="78" class="st17" width="6" height="6"/>
	<rect x="96" y="78" class="st0" width="6" height="6"/>
	<rect x="102" y="78" class="st1" width="6" height="6"/>
	<rect x="108" y="78" class="st3" width="6" height="6"/>
	<rect x="114" y="78" class="st0" width="6" height="6"/>
	<rect x="120" y="78" class="st0" width="6" height="6"/>
	<rect x="126" y="78" class="st0" width="6" height="6"/>
	<rect x="132" y="78" class="st0" width="6" height="6"/>
	<rect x="138" y="78" class="st3" width="6" height="6"/>
	<rect x="144" y="78" class="st1" width="6" height="6"/>
	<rect x="150" y="78" class="st0" width="6" height="6"/>
	<rect x="162" y="78" class="st0" width="6" height="6"/>
	<rect x="168" y="78" class="st2" width="6" height="6"/>
	<rect x="174" y="78" class="st2" width="6" height="6"/>
	<rect x="180" y="78" class="st0" width="6" height="6"/>
	<rect x="36" y="84" class="st0" width="6" height="6"/>
	<rect x="42" y="84" class="st11" width="6" height="6"/>
	<rect x="48" y="84" class="st7" width="6" height="6"/>
	<rect x="54" y="84" class="st19" width="6" height="6"/>
	<rect x="60" y="84" class="st14" width="6" height="6"/>
	<rect x="66" y="84" class="st14" width="6" height="6"/>
	<rect x="72" y="84" class="st19" width="6" height="6"/>
	<rect x="78" y="84" class="st7" width="6" height="6"/>
	<rect x="84" y="84" class="st11" width="6" height="6"/>
	<rect x="90" y="84" class="st0" width="6" height="6"/>
	<rect x="102" y="84" class="st0" width="6" height="6"/>
	<rect x="108" y="84" class="st5" width="6" height="6"/>
	<rect x="114" y="84" class="st6" width="6" height="6"/>
	<rect x="120" y="84" class="st6" width="6" height="6"/>
	<rect x="126" y="84" class="st6" width="6" height="6"/>
	<rect x="132" y="84" class="st6" width="6" height="6"/>
	<rect x="138" y="84" class="st5" width="6" height="6"/>
	<rect x="144" y="84" class="st0" width="6" height="6"/>
	<rect x="156" y="84" class="st0" width="6" height="6"/>
	<rect x="162" y="84" class="st2" width="6" height="6"/>
	<rect x="168" y="84" class="st4" width="6" height="6"/>
	<rect x="174" y="84" class="st2" width="6" height="6"/>
	<rect x="180" y="84" class="st0" width="6" height="6"/>
	<rect x="36" y="90" class="st0" width="6" height="6"/>
	<rect x="42" y="90" class="st11" width="6" height="6"/>
	<rect x="48" y="90" class="st7" width="6" height="6"/>
	<rect x="54" y="90" class="st8" width="6" height="6"/>
	<rect x="60" y="90" class="st19" width="6" height="6"/>
	<rect x="66" y="90" class="st19" width="6" height="6"/>
	<rect x="72" y="90" class="st8" width="6" height="6"/>
	<rect x="78" y="90" class="st7" width="6" height="6"/>
	<rect x="84" y="90" class="st11" width="6" height="6"/>
	<rect x="90" y="90" class="st2" width="6" height="6"/>
	<rect x="96" y="90" class="st0" width="6" height="6"/>
	<rect x="102" y="90" class="st6" width="6" height="6"/>
	<rect x="108" y="90" class="st6" width="6" height="6"/>
	<rect x="114" y="90" class="st7" width="6" height="6"/>
	<rect x="120" y="90" class="st8" width="6" height="6"/>
	<rect x="126" y="90" class="st8" width="6" height="6"/>
	<rect x="132" y="90" class="st7" width="6" height="6"/>
	<rect x="138" y="90" class="st6" width="6" height="6"/>
	<rect x="144" y="90" class="st6" width="6" height="6"/>
	<rect x="150" y="90" class="st0" width="6" height="6"/>
	<rect x="156" y="90" class="st2" width="6" height="6"/>
	<rect x="162" y="90" class="st4" width="6" height="6"/>
	<rect x="168" y="90" class="st4" width="6" height="6"/>
	<rect x="174" y="90" class="st2" width="6" height="6"/>
	<rect x="180" y="90" class="st0" width="6" height="6"/>
	<rect x="36" y="96" class="st0" width="6" height="6"/>
	<rect x="42" y="96" class="st11" width="6" height="6"/>
	<rect x="48" y="96" class="st18" width="6" height="6"/>
	<rect x="54" y="96" class="st7" width="6" height="6"/>
	<rect x="60" y="96" class="st8" width="6" height="6"/>
	<rect x="66" y="96" class="st8" width="6" height="6"/>
	<rect x="72" y="96" class="st7" width="6" height="6"/>
	<rect x="78" y="96" class="st18" width="6" height="6"/>
	<rect x="84" y="96" class="st11" width="6" height="6"/>
	<rect x="90" y="96" class="st10" width="6" height="6"/>
	<rect x="96" y="96" class="st6" width="6" height="6"/>
	<rect x="102" y="96" class="st7" width="6" height="6"/>
	<rect x="108" y="96" class="st7" width="6" height="6"/>
	<rect x="114" y="96" class="st8" width="6" height="6"/>
	<rect x="120" y="96" class="st11" width="6" height="6"/>
	<rect x="126" y="96" class="st11" width="6" height="6"/>
	<rect x="132" y="96" class="st8" width="6" height="6"/>
	<rect x="138" y="96" class="st7" width="6" height="6"/>
	<rect x="144" y="96" class="st7" width="6" height="6"/>
	<rect x="150" y="96" class="st6" width="6" height="6"/>
	<rect x="156" y="96" class="st10" width="6" height="6"/>
	<rect x="162" y="96" class="st9" width="6" height="6"/>
	<rect x="168" y="96" class="st6" width="6" height="6"/>
	<rect x="174" y="96" class="st0" width="6" height="6"/>
	<rect x="42" y="102" class="st0" width="6" height="6"/>
	<rect x="48" y="102" class="st11" width="6" height="6"/>
	<rect x="54" y="102" class="st18" width="6" height="6"/>
	<rect x="60" y="102" class="st18" width="6" height="6"/>
	<rect x="66" y="102" class="st18" width="6" height="6"/>
	<rect x="72" y="102" class="st18" width="6" height="6"/>
	<rect x="78" y="102" class="st11" width="6" height="6"/>
	<rect x="84" y="102" class="st0" width="6" height="6"/>
	<rect x="90" y="102" class="st9" width="6" height="6"/>
	<rect x="96" y="102" class="st12" width="6" height="6"/>
	<rect x="102" y="102" class="st12" width="6" height="6"/>
	<rect x="108" y="102" class="st12" width="6" height="6"/>
	<rect x="114" y="102" class="st8" width="6" height="6"/>
	<rect x="120" y="102" class="st8" width="6" height="6"/>
	<rect x="126" y="102" class="st8" width="6" height="6"/>
	<rect x="132" y="102" class="st8" width="6" height="6"/>
	<rect x="138" y="102" class="st12" width="6" height="6"/>
	<rect x="144" y="102" class="st12" width="6" height="6"/>
	<rect x="150" y="102" class="st12" width="6" height="6"/>
	<rect x="156" y="102" class="st9" width="6" height="6"/>
	<rect x="162" y="102" class="st0" width="6" height="6"/>
	<rect x="168" y="102" class="st0" width="6" height="6"/>
	<rect x="42" y="108" class="st0" width="6" height="6"/>
	<rect x="48" y="108" class="st3" width="6" height="6"/>
	<rect x="54" y="108" class="st11" width="6" height="6"/>
	<rect x="60" y="108" class="st20" width="6" height="6"/>
	<rect x="66" y="108" class="st21" width="6" height="6"/>
	<rect x="72" y="108" class="st22" width="6" height="6"/>
	<rect x="78" y="108" class="st3" width="6" height="6"/>
	<rect x="84" y="108" class="st0" width="6" height="6"/>
	<rect x="90" y="108" class="st9" width="6" height="6"/>
	<rect x="96" y="108" class="st13" width="6" height="6"/>
	<rect x="102" y="108" class="st13" width="6" height="6"/>
	<rect x="108" y="108" class="st14" width="6" height="6"/>
	<rect x="114" y="108" class="st8" width="6" height="6"/>
	<rect x="120" y="108" class="st11" width="6" height="6"/>
	<rect x="126" y="108" class="st11" width="6" height="6"/>
	<rect x="132" y="108" class="st8" width="6" height="6"/>
	<rect x="138" y="108" class="st14" width="6" height="6"/>
	<rect x="144" y="108" class="st13" width="6" height="6"/>
	<rect x="150" y="108" class="st13" width="6" height="6"/>
	<rect x="156" y="108" class="st9" width="6" height="6"/>
	<rect x="162" y="108" class="st0" width="6" height="6"/>
	<rect x="36" y="114" class="st0" width="6" height="6"/>
	<rect x="42" y="114" class="st20" width="6" height="6"/>
	<rect x="48" y="114" class="st23" width="6" height="6"/>
	<rect x="54" y="114" class="st7" width="6" height="6"/>
	<rect x="60" y="114" class="st22" width="6" height="6"/>
	<rect x="66" y="114" class="st24" width="6" height="6"/>
	<rect x="72" y="114" class="st6" width="6" height="6"/>
	<rect x="78" y="114" class="st25" width="6" height="6"/>
	<rect x="84" y="114" class="st20" width="6" height="6"/>
	<rect x="90" y="114" class="st9" width="6" height="6"/>
	<rect x="96" y="114" class="st15" width="6" height="6"/>
	<rect x="102" y="114" class="st16" width="6" height="6"/>
	<rect x="108" y="114" class="st7" width="6" height="6"/>
	<rect x="114" y="114" class="st8" width="6" height="6"/>
	<rect x="120" y="114" class="st8" width="6" height="6"/>
	<rect x="126" y="114" class="st8" width="6" height="6"/>
	<rect x="132" y="114" class="st8" width="6" height="6"/>
	<rect x="138" y="114" class="st7" width="6" height="6"/>
	<rect x="144" y="114" class="st15" width="6" height="6"/>
	<rect x="150" y="114" class="st16" width="6" height="6"/>
	<rect x="156" y="114" class="st9" width="6" height="6"/>
	<rect x="162" y="114" class="st0" width="6" height="6"/>
	<rect x="42" y="120" class="st0" width="6" height="6"/>
	<rect x="48" y="120" class="st21" width="6" height="6"/>
	<rect x="54" y="120" class="st21" width="6" height="6"/>
	<rect x="60" y="120" class="st7" width="6" height="6"/>
	<rect x="66" y="120" class="st23" width="6" height="6"/>
	<rect x="72" y="120" class="st22" width="6" height="6"/>
	<rect x="78" y="120" class="st21" width="6" height="6"/>
	<rect x="84" y="120" class="st0" width="6" height="6"/>
	<rect x="90" y="120" class="st0" width="6" height="6"/>
	<rect x="96" y="120" class="st15" width="6" height="6"/>
	<rect x="102" y="120" class="st16" width="6" height="6"/>
	<rect x="108" y="120" class="st7" width="6" height="6"/>
	<rect x="114" y="120" class="st14" width="6" height="6"/>
	<rect x="120" y="120" class="st11" width="6" height="6"/>
	<rect x="126" y="120" class="st11" width="6" height="6"/>
	<rect x="132" y="120" class="st14" width="6" height="6"/>
	<rect x="138" y="120" class="st7" width="6" height="6"/>
	<rect x="144" y="120" class="st15" width="6" height="6"/>
	<rect x="150" y="120" class="st16" width="6" height="6"/>
	<rect x="156" y="120" class="st0" width="6" height="6"/>
	<rect x="36" y="126" class="st0" width="6" height="6"/>
	<rect x="42" y="126" class="st21" width="6" height="6"/>
	<rect x="48" y="126" class="st25" width="6" height="6"/>
	<rect x="54" y="126" class="st21" width="6" height="6"/>
	<rect x="60" y="126" class="st23" width="6" height="6"/>
	<rect x="66" y="126" class="st6" width="6" height="6"/>
	<rect x="72" y="126" class="st21" width="6" height="6"/>
	<rect x="78" y="126" class="st25" width="6" height="6"/>
	<rect x="84" y="126" class="st0" width="6" height="6"/>
	<rect x="90" y="126" class="st17" width="6" height="6"/>
	<rect x="96" y="126" class="st18" width="6" height="6"/>
	<rect x="102" y="126" class="st7" width="6" height="6"/>
	<rect x="108" y="126" class="st6" width="6" height="6"/>
	<rect x="114" y="126" class="st7" width="6" height="6"/>
	<rect x="120" y="126" class="st8" width="6" height="6"/>
	<rect x="126" y="126" class="st8" width="6" height="6"/>
	<rect x="132" y="126" class="st7" width="6" height="6"/>
	<rect x="138" y="126" class="st6" width="6" height="6"/>
	<rect x="144" y="126" class="st7" width="6" height="6"/>
	<rect x="150" y="126" class="st18" width="6" height="6"/>
	<rect x="156" y="126" class="st17" width="6" height="6"/>
	<rect x="162" y="126" class="st0" width="6" height="6"/>
	<rect x="42" y="132" class="st0" width="6" height="6"/>
	<rect x="48" y="132" class="st25" width="6" height="6"/>
	<rect x="54" y="132" class="st6" width="6" height="6"/>
	<rect x="60" y="132" class="st20" width="6" height="6"/>
	<rect x="66" y="132" class="st23" width="6" height="6"/>
	<rect x="72" y="132" class="st26" width="6" height="6"/>
	<rect x="78" y="132" class="st20" width="6" height="6"/>
	<rect x="84" y="132" class="st0" width="6" height="6"/>
	<rect x="90" y="132" class="st17" width="6" height="6"/>
	<rect x="96" y="132" class="st18" width="6" height="6"/>
	<rect x="102" y="132" class="st7" width="6" height="6"/>
	<rect x="108" y="132" class="st7" width="6" height="6"/>
	<rect x="114" y="132" class="st8" width="6" height="6"/>
	<rect x="120" y="132" class="st8" width="6" height="6"/>
	<rect x="126" y="132" class="st8" width="6" height="6"/>
	<rect x="132" y="132" class="st8" width="6" height="6"/>
	<rect x="138" y="132" class="st7" width="6" height="6"/>
	<rect x="144" y="132" class="st7" width="6" height="6"/>
	<rect x="150" y="132" class="st18" width="6" height="6"/>
	<rect x="156" y="132" class="st17" width="6" height="6"/>
	<rect x="162" y="132" class="st0" width="6" height="6"/>
	<rect x="42" y="138" class="st0" width="6" height="6"/>
	<rect x="48" y="138" class="st25" width="6" height="6"/>
	<rect x="54" y="138" class="st23" width="6" height="6"/>
	<rect x="60" y="138" class="st6" width="6" height="6"/>
	<rect x="66" y="138" class="st23" width="6" height="6"/>
	<rect x="72" y="138" class="st26" width="6" height="6"/>
	<rect x="78" y="138" class="st23" width="6" height="6"/>
	<rect x="84" y="138" class="st0" width="6" height="6"/>
	<rect x="90" y="138" class="st0" width="6" height="6"/>
	<rect x="96" y="138" class="st17" width="6" height="6"/>
	<rect x="102" y="138" class="st11" width="6" height="6"/>
	<rect x="108" y="138" class="st7" width="6" height="6"/>
	<rect x="114" y="138" class="st8" width="6" height="6"/>
	<rect x="120" y="138" class="st8" width="6" height="6"/>
	<rect x="126" y="138" class="st8" width="6" height="6"/>
	<rect x="132" y="138" class="st8" width="6" height="6"/>
	<rect x="138" y="138" class="st7" width="6" height="6"/>
	<rect x="144" y="138" class="st11" width="6" height="6"/>
	<rect x="150" y="138" class="st17" width="6" height="6"/>
	<rect x="156" y="138" class="st0" width="6" height="6"/>
	<rect x="42" y="144" class="st0" width="6" height="6"/>
	<rect x="48" y="144" class="st23" width="6" height="6"/>
	<rect x="54" y="144" class="st26" width="6" height="6"/>
	<rect x="60" y="144" class="st23" width="6" height="6"/>
	<rect x="66" y="144" class="st6" width="6" height="6"/>
	<rect x="72" y="144" class="st23" width="6" height="6"/>
	<rect x="78" y="144" class="st25" width="6" height="6"/>
	<rect x="84" y="144" class="st0" width="6" height="6"/>
	<rect x="96" y="144" class="st0" width="6" height="6"/>
	<rect x="102" y="144" class="st11" width="6" height="6"/>
	<rect x="108" y="144" class="st7" width="6" height="6"/>
	<rect x="114" y="144" class="st19" width="6" height="6"/>
	<rect x="120" y="144" class="st14" width="6" height="6"/>
	<rect x="126" y="144" class="st14" width="6" height="6"/>
	<rect x="132" y="144" class="st19" width="6" height="6"/>
	<rect x="138" y="144" class="st7" width="6" height="6"/>
	<rect x="144" y="144" class="st11" width="6" height="6"/>
	<rect x="150" y="144" class="st0" width="6" height="6"/>
	<rect x="42" y="150" class="st0" width="6" height="6"/>
	<rect x="48" y="150" class="st1" width="6" height="6"/>
	<rect x="54" y="150" class="st26" width="6" height="6"/>
	<rect x="60" y="150" class="st23" width="6" height="6"/>
	<rect x="66" y="150" class="st27" width="6" height="6"/>
	<rect x="72" y="150" class="st6" width="6" height="6"/>
	<rect x="78" y="150" class="st25" width="6" height="6"/>
	<rect x="84" y="150" class="st0" width="6" height="6"/>
	<rect x="96" y="150" class="st0" width="6" height="6"/>
	<rect x="102" y="150" class="st11" width="6" height="6"/>
	<rect x="108" y="150" class="st7" width="6" height="6"/>
	<rect x="114" y="150" class="st8" width="6" height="6"/>
	<rect x="120" y="150" class="st19" width="6" height="6"/>
	<rect x="126" y="150" class="st19" width="6" height="6"/>
	<rect x="132" y="150" class="st8" width="6" height="6"/>
	<rect x="138" y="150" class="st7" width="6" height="6"/>
	<rect x="144" y="150" class="st11" width="6" height="6"/>
	<rect x="150" y="150" class="st0" width="6" height="6"/>
	<rect x="42" y="156" class="st0" width="6" height="6"/>
	<rect x="48" y="156" class="st1" width="6" height="6"/>
	<rect x="54" y="156" class="st26" width="6" height="6"/>
	<rect x="60" y="156" class="st23" width="6" height="6"/>
	<rect x="66" y="156" class="st1" width="6" height="6"/>
	<rect x="72" y="156" class="st23" width="6" height="6"/>
	<rect x="78" y="156" class="st25" width="6" height="6"/>
	<rect x="84" y="156" class="st0" width="6" height="6"/>
	<rect x="96" y="156" class="st0" width="6" height="6"/>
	<rect x="102" y="156" class="st11" width="6" height="6"/>
	<rect x="108" y="156" class="st18" width="6" height="6"/>
	<rect x="114" y="156" class="st7" width="6" height="6"/>
	<rect x="120" y="156" class="st8" width="6" height="6"/>
	<rect x="126" y="156" class="st8" width="6" height="6"/>
	<rect x="132" y="156" class="st7" width="6" height="6"/>
	<rect x="138" y="156" class="st18" width="6" height="6"/>
	<rect x="144" y="156" class="st11" width="6" height="6"/>
	<rect x="150" y="156" class="st0" width="6" height="6"/>
	<rect x="42" y="162" class="st0" width="6" height="6"/>
	<rect x="48" y="162" class="st25" width="6" height="6"/>
	<rect x="54" y="162" class="st23" width="6" height="6"/>
	<rect x="60" y="162" class="st1" width="6" height="6"/>
	<rect x="66" y="162" class="st26" width="6" height="6"/>
	<rect x="72" y="162" class="st26" width="6" height="6"/>
	<rect x="78" y="162" class="st23" width="6" height="6"/>
	<rect x="84" y="162" class="st0" width="6" height="6"/>
	<rect x="102" y="162" class="st0" width="6" height="6"/>
	<rect x="108" y="162" class="st11" width="6" height="6"/>
	<rect x="114" y="162" class="st18" width="6" height="6"/>
	<rect x="120" y="162" class="st18" width="6" height="6"/>
	<rect x="126" y="162" class="st18" width="6" height="6"/>
	<rect x="132" y="162" class="st18" width="6" height="6"/>
	<rect x="138" y="162" class="st11" width="6" height="6"/>
	<rect x="144" y="162" class="st0" width="6" height="6"/>
	<rect x="42" y="168" class="st0" width="6" height="6"/>
	<rect x="48" y="168" class="st3" width="6" height="6"/>
	<rect x="54" y="168" class="st27" width="6" height="6"/>
	<rect x="60" y="168" class="st1" width="6" height="6"/>
	<rect x="66" y="168" class="st26" width="6" height="6"/>
	<rect x="72" y="168" class="st26" width="6" height="6"/>
	<rect x="78" y="168" class="st1" width="6" height="6"/>
	<rect x="84" y="168" class="st0" width="6" height="6"/>
	<rect x="102" y="168" class="st0" width="6" height="6"/>
	<rect x="108" y="168" class="st25" width="6" height="6"/>
	<rect x="114" y="168" class="st20" width="6" height="6"/>
	<rect x="120" y="168" class="st21" width="6" height="6"/>
	<rect x="126" y="168" class="st24" width="6" height="6"/>
	<rect x="132" y="168" class="st11" width="6" height="6"/>
	<rect x="138" y="168" class="st3" width="6" height="6"/>
	<rect x="144" y="168" class="st0" width="6" height="6"/>
	<rect x="42" y="174" class="st0" width="6" height="6"/>
	<rect x="48" y="174" class="st3" width="6" height="6"/>
	<rect x="54" y="174" class="st27" width="6" height="6"/>
	<rect x="60" y="174" class="st27" width="6" height="6"/>
	<rect x="66" y="174" class="st1" width="6" height="6"/>
	<rect x="72" y="174" class="st1" width="6" height="6"/>
	<rect x="78" y="174" class="st25" width="6" height="6"/>
	<rect x="84" y="174" class="st0" width="6" height="6"/>
	<rect x="96" y="174" class="st0" width="6" height="6"/>
	<rect x="102" y="174" class="st24" width="6" height="6"/>
	<rect x="108" y="174" class="st23" width="6" height="6"/>
	<rect x="114" y="174" class="st21" width="6" height="6"/>
	<rect x="120" y="174" class="st20" width="6" height="6"/>
	<rect x="126" y="174" class="st21" width="6" height="6"/>
	<rect x="132" y="174" class="st6" width="6" height="6"/>
	<rect x="138" y="174" class="st25" width="6" height="6"/>
	<rect x="144" y="174" class="st0" width="6" height="6"/>
	<rect x="42" y="180" class="st0" width="6" height="6"/>
	<rect x="48" y="180" class="st3" width="6" height="6"/>
	<rect x="54" y="180" class="st1" width="6" height="6"/>
	<rect x="60" y="180" class="st1" width="6" height="6"/>
	<rect x="66" y="180" class="st27" width="6" height="6"/>
	<rect x="72" y="180" class="st27" width="6" height="6"/>
	<rect x="78" y="180" class="st3" width="6" height="6"/>
	<rect x="84" y="180" class="st0" width="6" height="6"/>
	<rect x="102" y="180" class="st0" width="6" height="6"/>
	<rect x="108" y="180" class="st22" width="6" height="6"/>
	<rect x="114" y="180" class="st26" width="6" height="6"/>
	<rect x="120" y="180" class="st26" width="6" height="6"/>
	<rect x="126" y="180" class="st24" width="6" height="6"/>
	<rect x="132" y="180" class="st22" width="6" height="6"/>
	<rect x="138" y="180" class="st3" width="6" height="6"/>
	<rect x="144" y="180" class="st0" width="6" height="6"/>
	<rect x="42" y="186" class="st0" width="6" height="6"/>
	<rect x="48" y="186" class="st1" width="6" height="6"/>
	<rect x="54" y="186" class="st26" width="6" height="6"/>
	<rect x="60" y="186" class="st26" width="6" height="6"/>
	<rect x="66" y="186" class="st1" width="6" height="6"/>
	<rect x="72" y="186" class="st27" width="6" height="6"/>
	<rect x="78" y="186" class="st3" width="6" height="6"/>
	<rect x="84" y="186" class="st0" width="6" height="6"/>
	<rect x="96" y="186" class="st0" width="6" height="6"/>
	<rect x="102" y="186" class="st21" width="6" height="6"/>
	<rect x="108" y="186" class="st3" width="6" height="6"/>
	<rect x="114" y="186" class="st23" width="6" height="6"/>
	<rect x="120" y="186" class="st23" width="6" height="6"/>
	<rect x="126" y="186" class="st6" width="6" height="6"/>
	<rect x="132" y="186" class="st23" width="6" height="6"/>
	<rect x="138" y="186" class="st21" width="6" height="6"/>
	<rect x="144" y="186" class="st22" width="6" height="6"/>
	<rect x="150" y="186" class="st0" width="6" height="6"/>
</g>
</svg>
