<?xml version="1.0" encoding="UTF-8"?><svg id="Layer_1" xmlns="http://www.w3.org/2000/svg" viewBox="0 0 500 430"><defs><style>.cls-1,.cls-2{stroke:#914938;stroke-miterlimit:10;stroke-width:2px;}.cls-1,.cls-3{fill:#914938;}.cls-4{fill:#f4ebd4;font-family:Roboto-Bold, Roboto;font-size:20.36px;font-weight:700;}.cls-2{fill:none;}.cls-3{stroke-width:0px;}</style></defs><path class="cls-3" d="m133.46,366.41c-11.16-25.92-15.48-79.56-15.48-126.72s7.56-108,19.44-168.12l34.92,6.84c-.72,3.6-4.32,6.12-9.36,6.48-12.96,49.32-20.88,113.4-20.88,155.16,0,27.36.36,54.72,3.24,68.04,7.92-21.6,22.32-56.16,29.88-73.08l16.2,15.12c-11.88,24.48-37.08,79.2-37.08,96.12,0,5.04,1.08,10.44,3.6,17.28l-24.48,2.88Zm91.44-212.04c30.24.36,60.48.72,90.72-1.44-1.44-30.96-2.52-57.6-3.24-84.24l36.36,1.08c-.36,3.6-3.6,6.48-9.36,7.56.36,23.04,1.08,46.44,1.8,73.8,28.44-2.88,51.48-7.92,70.56-14.4l3.24,25.2c-17.28,5.4-42.12,10.44-72.72,12.96,1.44,39.96,3.24,82.08,4.32,105.12,27.36,11.16,54.72,28.8,73.44,45.72l-14.04,23.04c-14.76-14.76-36-30.6-58.32-41.04-.36,30.6-6.12,64.8-60.12,64.8-42.12,0-70.2-20.16-70.2-51.84,0-36.72,37.08-52.92,70.2-52.92,11.16,0,23.04,1.44,34.2,4.68-1.08-22.68-3.24-60.48-5.04-95.76-11.16.72-26.28,1.08-36.72,1.08h-54.72l-.36-23.4Zm98.64,141.48c-11.52-3.6-23.76-6.48-35.64-6.48-21.96,0-48.24,7.92-48.24,30.6,0,20.16,21.6,30.24,47.88,30.24s36.36-12.96,36.36-41.76l-.36-12.6Z"/><path class="cls-2" d="m121.13,83.46s-8.82,29.79-15.96,121.02"/><path class="cls-2" d="m239.66,139.21c2.97,0,100.47,3.78,146.32-10.25"/><line class="cls-2" x1="353.56" y1="87.24" x2="357.54" y2="208.61"/><path class="cls-2" d="m209.32,296.76s5.3-42.45,69.23-42.99"/><polygon class="cls-1" points="105.6 195.34 110.34 195.71 107.51 201.37 104.69 207.02 102.78 201 100.86 194.97 105.6 195.34"/><polygon class="cls-1" points="381.43 129.96 380.43 125.31 386.66 126.4 392.89 127.48 387.66 131.04 382.43 134.6 381.43 129.96"/><polygon class="cls-1" points="357.28 201.01 362.02 200.82 359.87 206.77 357.72 212.72 355.13 206.95 352.53 201.19 357.28 201.01"/><polygon class="cls-1" points="277.8 253.73 278.21 249 283.84 251.88 289.48 254.76 283.43 256.61 277.39 258.47 277.8 253.73"/><circle class="cls-1" cx="96.07" cy="73.56" r="16.1"/><text class="cls-4" transform="translate(90.23 80.87)"><tspan x="0" y="0">1</tspan></text><circle class="cls-1" cx="381.49" cy="84.17" r="16.1"/><text class="cls-4" transform="translate(375.65 91.47)"><tspan x="0" y="0">3</tspan></text><circle class="cls-1" cx="248.35" cy="112.07" r="16.1"/><text class="cls-4" transform="translate(242.51 119.38)"><tspan x="0" y="0">2</tspan></text></svg>