<?xml version="1.0" encoding="UTF-8"?><svg id="Layer_1" xmlns="http://www.w3.org/2000/svg" viewBox="0 0 500 430"><defs><style>.cls-1,.cls-2{stroke:#914938;stroke-miterlimit:10;stroke-width:2px;}.cls-1,.cls-3{fill:#914938;}.cls-4{fill:#f4ebd4;font-family:Roboto-Bold, Roboto;font-size:20.36px;font-weight:700;}.cls-2{fill:none;}.cls-3{stroke-width:0px;}</style></defs><path class="cls-3" d="m103.43,217.7c15.12-14.4,52.2-53.64,71.28-74.16,27.72-30.6,41.4-37.44,59.4-37.44,21.6,0,37.08,13.68,69.12,51.84,25.56,30.96,84.6,96.84,135.72,143.64l-19.08,22.32c-49.32-44.64-108-111.96-129.6-138.96-30.6-37.44-41.76-51.84-56.52-51.84s-25.56,11.88-47.52,36.72c-12.24,14.04-41.4,46.08-56.88,63.36.36,4.68-1.08,8.28-3.96,10.08l-21.96-25.56Z"/><line class="cls-2" x1="104.72" y1="197.55" x2="185.25" y2="113.42"/><polygon class="cls-1" points="182.42 116.51 178.88 113.34 184.56 110.56 190.24 107.77 188.1 113.72 185.95 119.67 182.42 116.51"/><circle class="cls-1" cx="77.15" cy="206.55" r="16.1"/><text class="cls-4" transform="translate(71.31 213.86)"><tspan x="0" y="0">1</tspan></text></svg>