<?xml version="1.0" encoding="utf-8"?>
<!-- Generator: Adobe Illustrator 27.9.0, SVG Export Plug-In . SVG Version: 6.00 Build 0)  -->
<svg version="1.1" id="Layer_1" shape-rendering="crispEdges"
	 xmlns="http://www.w3.org/2000/svg" xmlns:xlink="http://www.w3.org/1999/xlink" x="0px" y="0px" viewBox="0 0 192 192"
	 style="enable-background:new 0 0 192 192;" xml:space="preserve">
<style type="text/css">
	.st0{fill:#50B06E;}
	.st1{fill:#48588D;}
	.st2{fill:#B55D83;}
	.st3{fill:#B5E273;}
	.st4{fill:#75C3A7;}
	.st5{fill:#4E6B90;}
	.st6{fill:#4973A9;}
	.st7{fill:#4A9155;}
	.st8{fill:#3A81AF;}
	.st9{fill:#D8B05C;}
	.st10{fill:#E6C874;}
	.st11{fill:#EDE5B7;}
	.st12{fill:#E4895D;}
	.st13{fill:#58B0B3;}
	.st14{fill:#BDE1EB;}
	.st15{fill:#E3FFAC;}
	.st16{fill:#C7E391;}
	.st17{fill:#ECE7E8;}
	.st18{fill:#1A795D;}
	.st19{fill:#1D7852;}
	.st20{fill:#35933B;}
	.st21{fill:#185589;}
	.st22{fill:#E7A55D;}
	.st23{fill:#8D5386;}
	.st24{fill:#E36C74;}
	.st25{fill:#E2574A;}
	.st26{fill:#ECD9D3;}
</style>
<g>
	<rect x="84" y="21" class="st0" width="6" height="6"/>
	<rect x="18" y="27" class="st0" width="6" height="6"/>
	<rect x="24" y="27" class="st0" width="6" height="6"/>
	<rect x="30" y="27" class="st0" width="6" height="6"/>
	<rect x="36" y="27" class="st0" width="6" height="6"/>
	<rect x="42" y="27" class="st0" width="6" height="6"/>
	<rect x="48" y="27" class="st0" width="6" height="6"/>
	<rect x="54" y="27" class="st0" width="6" height="6"/>
	<rect x="60" y="27" class="st0" width="6" height="6"/>
	<rect x="66" y="27" class="st0" width="6" height="6"/>
	<rect x="72" y="27" class="st0" width="6" height="6"/>
	<rect x="78" y="27" class="st0" width="6" height="6"/>
	<rect x="84" y="27" class="st1" width="6" height="6"/>
	<rect x="90" y="27" class="st0" width="6" height="6"/>
	<rect x="96" y="27" class="st0" width="6" height="6"/>
	<rect x="102" y="27" class="st0" width="6" height="6"/>
	<rect x="108" y="27" class="st0" width="6" height="6"/>
	<rect x="114" y="27" class="st0" width="6" height="6"/>
	<rect x="120" y="27" class="st0" width="6" height="6"/>
	<rect x="126" y="27" class="st0" width="6" height="6"/>
	<rect x="132" y="27" class="st0" width="6" height="6"/>
	<rect x="138" y="27" class="st0" width="6" height="6"/>
	<rect x="144" y="27" class="st0" width="6" height="6"/>
	<rect x="150" y="27" class="st0" width="6" height="6"/>
	<rect x="12" y="33" class="st0" width="6" height="6"/>
	<rect x="18" y="33" class="st2" width="6" height="6"/>
	<rect x="24" y="33" class="st2" width="6" height="6"/>
	<rect x="30" y="33" class="st2" width="6" height="6"/>
	<rect x="36" y="33" class="st2" width="6" height="6"/>
	<rect x="42" y="33" class="st2" width="6" height="6"/>
	<rect x="48" y="33" class="st1" width="6" height="6"/>
	<rect x="54" y="33" class="st1" width="6" height="6"/>
	<rect x="60" y="33" class="st1" width="6" height="6"/>
	<rect x="66" y="33" class="st3" width="6" height="6"/>
	<rect x="72" y="33" class="st1" width="6" height="6"/>
	<rect x="78" y="33" class="st1" width="6" height="6"/>
	<rect x="84" y="33" class="st4" width="6" height="6"/>
	<rect x="90" y="33" class="st1" width="6" height="6"/>
	<rect x="96" y="33" class="st1" width="6" height="6"/>
	<rect x="102" y="33" class="st3" width="6" height="6"/>
	<rect x="108" y="33" class="st1" width="6" height="6"/>
	<rect x="114" y="33" class="st1" width="6" height="6"/>
	<rect x="120" y="33" class="st1" width="6" height="6"/>
	<rect x="126" y="33" class="st2" width="6" height="6"/>
	<rect x="132" y="33" class="st2" width="6" height="6"/>
	<rect x="138" y="33" class="st2" width="6" height="6"/>
	<rect x="144" y="33" class="st2" width="6" height="6"/>
	<rect x="150" y="33" class="st2" width="6" height="6"/>
	<rect x="156" y="33" class="st0" width="6" height="6"/>
	<rect x="18" y="39" class="st0" width="6" height="6"/>
	<rect x="24" y="39" class="st0" width="6" height="6"/>
	<rect x="30" y="39" class="st0" width="6" height="6"/>
	<rect x="36" y="39" class="st0" width="6" height="6"/>
	<rect x="42" y="39" class="st0" width="6" height="6"/>
	<rect x="48" y="39" class="st0" width="6" height="6"/>
	<rect x="54" y="39" class="st0" width="6" height="6"/>
	<rect x="60" y="39" class="st0" width="6" height="6"/>
	<rect x="66" y="39" class="st0" width="6" height="6"/>
	<rect x="72" y="39" class="st0" width="6" height="6"/>
	<rect x="78" y="39" class="st0" width="6" height="6"/>
	<rect x="84" y="39" class="st5" width="6" height="6"/>
	<rect x="90" y="39" class="st0" width="6" height="6"/>
	<rect x="96" y="39" class="st0" width="6" height="6"/>
	<rect x="102" y="39" class="st0" width="6" height="6"/>
	<rect x="108" y="39" class="st0" width="6" height="6"/>
	<rect x="114" y="39" class="st0" width="6" height="6"/>
	<rect x="120" y="39" class="st0" width="6" height="6"/>
	<rect x="126" y="39" class="st0" width="6" height="6"/>
	<rect x="132" y="39" class="st0" width="6" height="6"/>
	<rect x="138" y="39" class="st0" width="6" height="6"/>
	<rect x="144" y="39" class="st0" width="6" height="6"/>
	<rect x="150" y="39" class="st0" width="6" height="6"/>
	<rect x="72" y="45" class="st0" width="6" height="6"/>
	<rect x="78" y="45" class="st6" width="6" height="6"/>
	<rect x="84" y="45" class="st7" width="6" height="6"/>
	<rect x="90" y="45" class="st5" width="6" height="6"/>
	<rect x="96" y="45" class="st0" width="6" height="6"/>
	<rect x="186" y="45" class="st0" width="6" height="6"/>
	<rect x="66" y="51" class="st0" width="6" height="6"/>
	<rect x="72" y="51" class="st0" width="6" height="6"/>
	<rect x="78" y="51" class="st6" width="6" height="6"/>
	<rect x="84" y="51" class="st4" width="6" height="6"/>
	<rect x="90" y="51" class="st5" width="6" height="6"/>
	<rect x="96" y="51" class="st0" width="6" height="6"/>
	<rect x="102" y="51" class="st0" width="6" height="6"/>
	<rect x="180" y="51" class="st0" width="6" height="6"/>
	<rect x="186" y="51" class="st8" width="6" height="6"/>
	<rect x="60" y="57" class="st0" width="6" height="6"/>
	<rect x="66" y="57" class="st6" width="6" height="6"/>
	<rect x="72" y="57" class="st6" width="6" height="6"/>
	<rect x="78" y="57" class="st6" width="6" height="6"/>
	<rect x="84" y="57" class="st5" width="6" height="6"/>
	<rect x="90" y="57" class="st5" width="6" height="6"/>
	<rect x="96" y="57" class="st5" width="6" height="6"/>
	<rect x="102" y="57" class="st5" width="6" height="6"/>
	<rect x="108" y="57" class="st0" width="6" height="6"/>
	<rect x="174" y="57" class="st0" width="6" height="6"/>
	<rect x="180" y="57" class="st8" width="6" height="6"/>
	<rect x="186" y="57" class="st9" width="6" height="6"/>
	<rect x="48" y="63" class="st0" width="6" height="6"/>
	<rect x="54" y="63" class="st0" width="6" height="6"/>
	<rect x="60" y="63" class="st6" width="6" height="6"/>
	<rect x="66" y="63" class="st10" width="6" height="6"/>
	<rect x="72" y="63" class="st11" width="6" height="6"/>
	<rect x="78" y="63" class="st10" width="6" height="6"/>
	<rect x="84" y="63" class="st10" width="6" height="6"/>
	<rect x="90" y="63" class="st12" width="6" height="6"/>
	<rect x="96" y="63" class="st12" width="6" height="6"/>
	<rect x="102" y="63" class="st12" width="6" height="6"/>
	<rect x="108" y="63" class="st5" width="6" height="6"/>
	<rect x="114" y="63" class="st0" width="6" height="6"/>
	<rect x="120" y="63" class="st0" width="6" height="6"/>
	<rect x="126" y="63" class="st0" width="6" height="6"/>
	<rect x="132" y="63" class="st0" width="6" height="6"/>
	<rect x="138" y="63" class="st0" width="6" height="6"/>
	<rect x="144" y="63" class="st0" width="6" height="6"/>
	<rect x="150" y="63" class="st0" width="6" height="6"/>
	<rect x="156" y="63" class="st0" width="6" height="6"/>
	<rect x="162" y="63" class="st0" width="6" height="6"/>
	<rect x="168" y="63" class="st0" width="6" height="6"/>
	<rect x="174" y="63" class="st8" width="6" height="6"/>
	<rect x="180" y="63" class="st13" width="6" height="6"/>
	<rect x="186" y="63" class="st8" width="6" height="6"/>
	<rect x="42" y="69" class="st0" width="6" height="6"/>
	<rect x="48" y="69" class="st8" width="6" height="6"/>
	<rect x="54" y="69" class="st8" width="6" height="6"/>
	<rect x="60" y="69" class="st8" width="6" height="6"/>
	<rect x="66" y="69" class="st8" width="6" height="6"/>
	<rect x="72" y="69" class="st8" width="6" height="6"/>
	<rect x="78" y="69" class="st8" width="6" height="6"/>
	<rect x="84" y="69" class="st8" width="6" height="6"/>
	<rect x="90" y="69" class="st8" width="6" height="6"/>
	<rect x="96" y="69" class="st8" width="6" height="6"/>
	<rect x="102" y="69" class="st8" width="6" height="6"/>
	<rect x="108" y="69" class="st8" width="6" height="6"/>
	<rect x="114" y="69" class="st8" width="6" height="6"/>
	<rect x="120" y="69" class="st8" width="6" height="6"/>
	<rect x="126" y="69" class="st8" width="6" height="6"/>
	<rect x="132" y="69" class="st8" width="6" height="6"/>
	<rect x="138" y="69" class="st8" width="6" height="6"/>
	<rect x="144" y="69" class="st8" width="6" height="6"/>
	<rect x="150" y="69" class="st8" width="6" height="6"/>
	<rect x="156" y="69" class="st8" width="6" height="6"/>
	<rect x="162" y="69" class="st8" width="6" height="6"/>
	<rect x="168" y="69" class="st8" width="6" height="6"/>
	<rect x="174" y="69" class="st13" width="6" height="6"/>
	<rect x="180" y="69" class="st8" width="6" height="6"/>
	<rect x="186" y="69" class="st14" width="6" height="6"/>
	<rect x="36" y="75" class="st0" width="6" height="6"/>
	<rect x="42" y="75" class="st8" width="6" height="6"/>
	<rect x="48" y="75" class="st15" width="6" height="6"/>
	<rect x="54" y="75" class="st15" width="6" height="6"/>
	<rect x="60" y="75" class="st15" width="6" height="6"/>
	<rect x="66" y="75" class="st16" width="6" height="6"/>
	<rect x="72" y="75" class="st8" width="6" height="6"/>
	<rect x="78" y="75" class="st16" width="6" height="6"/>
	<rect x="84" y="75" class="st16" width="6" height="6"/>
	<rect x="90" y="75" class="st16" width="6" height="6"/>
	<rect x="96" y="75" class="st13" width="6" height="6"/>
	<rect x="102" y="75" class="st17" width="6" height="6"/>
	<rect x="108" y="75" class="st17" width="6" height="6"/>
	<rect x="114" y="75" class="st17" width="6" height="6"/>
	<rect x="120" y="75" class="st17" width="6" height="6"/>
	<rect x="126" y="75" class="st14" width="6" height="6"/>
	<rect x="132" y="75" class="st17" width="6" height="6"/>
	<rect x="138" y="75" class="st14" width="6" height="6"/>
	<rect x="144" y="75" class="st14" width="6" height="6"/>
	<rect x="150" y="75" class="st14" width="6" height="6"/>
	<rect x="156" y="75" class="st14" width="6" height="6"/>
	<rect x="162" y="75" class="st14" width="6" height="6"/>
	<rect x="168" y="75" class="st14" width="6" height="6"/>
	<rect x="174" y="75" class="st8" width="6" height="6"/>
	<rect x="180" y="75" class="st14" width="6" height="6"/>
	<rect x="186" y="75" class="st13" width="6" height="6"/>
	<rect x="30" y="81" class="st0" width="6" height="6"/>
	<rect x="36" y="81" class="st8" width="6" height="6"/>
	<rect x="42" y="81" class="st15" width="6" height="6"/>
	<rect x="48" y="81" class="st7" width="6" height="6"/>
	<rect x="54" y="81" class="st7" width="6" height="6"/>
	<rect x="60" y="81" class="st7" width="6" height="6"/>
	<rect x="66" y="81" class="st16" width="6" height="6"/>
	<rect x="72" y="81" class="st8" width="6" height="6"/>
	<rect x="78" y="81" class="st16" width="6" height="6"/>
	<rect x="84" y="81" class="st18" width="6" height="6"/>
	<rect x="90" y="81" class="st18" width="6" height="6"/>
	<rect x="96" y="81" class="st18" width="6" height="6"/>
	<rect x="102" y="81" class="st13" width="6" height="6"/>
	<rect x="108" y="81" class="st13" width="6" height="6"/>
	<rect x="114" y="81" class="st13" width="6" height="6"/>
	<rect x="120" y="81" class="st13" width="6" height="6"/>
	<rect x="126" y="81" class="st13" width="6" height="6"/>
	<rect x="132" y="81" class="st13" width="6" height="6"/>
	<rect x="138" y="81" class="st7" width="6" height="6"/>
	<rect x="144" y="81" class="st7" width="6" height="6"/>
	<rect x="150" y="81" class="st7" width="6" height="6"/>
	<rect x="156" y="81" class="st19" width="6" height="6"/>
	<rect x="162" y="81" class="st5" width="6" height="6"/>
	<rect x="168" y="81" class="st5" width="6" height="6"/>
	<rect x="174" y="81" class="st20" width="6" height="6"/>
	<rect x="180" y="81" class="st5" width="6" height="6"/>
	<rect x="186" y="81" class="st13" width="6" height="6"/>
	<rect x="24" y="87" class="st0" width="6" height="6"/>
	<rect x="30" y="87" class="st8" width="6" height="6"/>
	<rect x="36" y="87" class="st15" width="6" height="6"/>
	<rect x="42" y="87" class="st7" width="6" height="6"/>
	<rect x="48" y="87" class="st21" width="6" height="6"/>
	<rect x="54" y="87" class="st21" width="6" height="6"/>
	<rect x="60" y="87" class="st18" width="6" height="6"/>
	<rect x="66" y="87" class="st16" width="6" height="6"/>
	<rect x="72" y="87" class="st8" width="6" height="6"/>
	<rect x="78" y="87" class="st16" width="6" height="6"/>
	<rect x="84" y="87" class="st18" width="6" height="6"/>
	<rect x="90" y="87" class="st21" width="6" height="6"/>
	<rect x="96" y="87" class="st21" width="6" height="6"/>
	<rect x="102" y="87" class="st5" width="6" height="6"/>
	<rect x="108" y="87" class="st13" width="6" height="6"/>
	<rect x="114" y="87" class="st13" width="6" height="6"/>
	<rect x="120" y="87" class="st7" width="6" height="6"/>
	<rect x="126" y="87" class="st7" width="6" height="6"/>
	<rect x="132" y="87" class="st7" width="6" height="6"/>
	<rect x="138" y="87" class="st19" width="6" height="6"/>
	<rect x="144" y="87" class="st19" width="6" height="6"/>
	<rect x="150" y="87" class="st5" width="6" height="6"/>
	<rect x="156" y="87" class="st0" width="6" height="6"/>
	<rect x="162" y="87" class="st0" width="6" height="6"/>
	<rect x="168" y="87" class="st0" width="6" height="6"/>
	<rect x="174" y="87" class="st5" width="6" height="6"/>
	<rect x="180" y="87" class="st20" width="6" height="6"/>
	<rect x="186" y="87" class="st5" width="6" height="6"/>
	<rect x="24" y="93" class="st0" width="6" height="6"/>
	<rect x="30" y="93" class="st8" width="6" height="6"/>
	<rect x="36" y="93" class="st15" width="6" height="6"/>
	<rect x="42" y="93" class="st7" width="6" height="6"/>
	<rect x="48" y="93" class="st15" width="6" height="6"/>
	<rect x="54" y="93" class="st21" width="6" height="6"/>
	<rect x="60" y="93" class="st18" width="6" height="6"/>
	<rect x="66" y="93" class="st16" width="6" height="6"/>
	<rect x="72" y="93" class="st8" width="6" height="6"/>
	<rect x="78" y="93" class="st16" width="6" height="6"/>
	<rect x="84" y="93" class="st18" width="6" height="6"/>
	<rect x="90" y="93" class="st21" width="6" height="6"/>
	<rect x="96" y="93" class="st21" width="6" height="6"/>
	<rect x="102" y="93" class="st5" width="6" height="6"/>
	<rect x="108" y="93" class="st13" width="6" height="6"/>
	<rect x="114" y="93" class="st7" width="6" height="6"/>
	<rect x="120" y="93" class="st19" width="6" height="6"/>
	<rect x="126" y="93" class="st19" width="6" height="6"/>
	<rect x="132" y="93" class="st19" width="6" height="6"/>
	<rect x="138" y="93" class="st0" width="6" height="6"/>
	<rect x="144" y="93" class="st0" width="6" height="6"/>
	<rect x="150" y="93" class="st0" width="6" height="6"/>
	<rect x="174" y="93" class="st0" width="6" height="6"/>
	<rect x="180" y="93" class="st5" width="6" height="6"/>
	<rect x="186" y="93" class="st22" width="6" height="6"/>
	<rect x="18" y="99" class="st0" width="6" height="6"/>
	<rect x="24" y="99" class="st8" width="6" height="6"/>
	<rect x="30" y="99" class="st15" width="6" height="6"/>
	<rect x="36" y="99" class="st16" width="6" height="6"/>
	<rect x="42" y="99" class="st7" width="6" height="6"/>
	<rect x="48" y="99" class="st18" width="6" height="6"/>
	<rect x="54" y="99" class="st18" width="6" height="6"/>
	<rect x="60" y="99" class="st18" width="6" height="6"/>
	<rect x="66" y="99" class="st16" width="6" height="6"/>
	<rect x="72" y="99" class="st8" width="6" height="6"/>
	<rect x="78" y="99" class="st16" width="6" height="6"/>
	<rect x="84" y="99" class="st5" width="6" height="6"/>
	<rect x="90" y="99" class="st5" width="6" height="6"/>
	<rect x="96" y="99" class="st5" width="6" height="6"/>
	<rect x="102" y="99" class="st5" width="6" height="6"/>
	<rect x="108" y="99" class="st7" width="6" height="6"/>
	<rect x="114" y="99" class="st19" width="6" height="6"/>
	<rect x="120" y="99" class="st0" width="6" height="6"/>
	<rect x="126" y="99" class="st0" width="6" height="6"/>
	<rect x="132" y="99" class="st0" width="6" height="6"/>
	<rect x="180" y="99" class="st0" width="6" height="6"/>
	<rect x="186" y="99" class="st5" width="6" height="6"/>
	<rect x="12" y="105" class="st0" width="6" height="6"/>
	<rect x="18" y="105" class="st2" width="6" height="6"/>
	<rect x="24" y="105" class="st12" width="6" height="6"/>
	<rect x="30" y="105" class="st16" width="6" height="6"/>
	<rect x="36" y="105" class="st16" width="6" height="6"/>
	<rect x="42" y="105" class="st16" width="6" height="6"/>
	<rect x="48" y="105" class="st16" width="6" height="6"/>
	<rect x="54" y="105" class="st16" width="6" height="6"/>
	<rect x="60" y="105" class="st16" width="6" height="6"/>
	<rect x="66" y="105" class="st16" width="6" height="6"/>
	<rect x="72" y="105" class="st0" width="6" height="6"/>
	<rect x="78" y="105" class="st16" width="6" height="6"/>
	<rect x="84" y="105" class="st16" width="6" height="6"/>
	<rect x="90" y="105" class="st16" width="6" height="6"/>
	<rect x="96" y="105" class="st13" width="6" height="6"/>
	<rect x="102" y="105" class="st13" width="6" height="6"/>
	<rect x="108" y="105" class="st7" width="6" height="6"/>
	<rect x="114" y="105" class="st19" width="6" height="6"/>
	<rect x="120" y="105" class="st0" width="6" height="6"/>
	<rect x="186" y="105" class="st0" width="6" height="6"/>
	<rect x="6" y="111" class="st0" width="6" height="6"/>
	<rect x="12" y="111" class="st2" width="6" height="6"/>
	<rect x="18" y="111" class="st12" width="6" height="6"/>
	<rect x="24" y="111" class="st23" width="6" height="6"/>
	<rect x="30" y="111" class="st8" width="6" height="6"/>
	<rect x="36" y="111" class="st8" width="6" height="6"/>
	<rect x="42" y="111" class="st8" width="6" height="6"/>
	<rect x="48" y="111" class="st8" width="6" height="6"/>
	<rect x="54" y="111" class="st8" width="6" height="6"/>
	<rect x="60" y="111" class="st8" width="6" height="6"/>
	<rect x="66" y="111" class="st0" width="6" height="6"/>
	<rect x="72" y="111" class="st0" width="6" height="6"/>
	<rect x="78" y="111" class="st0" width="6" height="6"/>
	<rect x="84" y="111" class="st0" width="6" height="6"/>
	<rect x="90" y="111" class="st0" width="6" height="6"/>
	<rect x="96" y="111" class="st8" width="6" height="6"/>
	<rect x="102" y="111" class="st8" width="6" height="6"/>
	<rect x="108" y="111" class="st19" width="6" height="6"/>
	<rect x="114" y="111" class="st19" width="6" height="6"/>
	<rect x="120" y="111" class="st0" width="6" height="6"/>
	<rect x="12" y="117" class="st0" width="6" height="6"/>
	<rect x="18" y="117" class="st2" width="6" height="6"/>
	<rect x="24" y="117" class="st12" width="6" height="6"/>
	<rect x="30" y="117" class="st16" width="6" height="6"/>
	<rect x="36" y="117" class="st16" width="6" height="6"/>
	<rect x="42" y="117" class="st16" width="6" height="6"/>
	<rect x="48" y="117" class="st16" width="6" height="6"/>
	<rect x="54" y="117" class="st16" width="6" height="6"/>
	<rect x="60" y="117" class="st16" width="6" height="6"/>
	<rect x="66" y="117" class="st16" width="6" height="6"/>
	<rect x="72" y="117" class="st24" width="6" height="6"/>
	<rect x="78" y="117" class="st16" width="6" height="6"/>
	<rect x="84" y="117" class="st16" width="6" height="6"/>
	<rect x="90" y="117" class="st16" width="6" height="6"/>
	<rect x="96" y="117" class="st13" width="6" height="6"/>
	<rect x="102" y="117" class="st13" width="6" height="6"/>
	<rect x="108" y="117" class="st7" width="6" height="6"/>
	<rect x="114" y="117" class="st5" width="6" height="6"/>
	<rect x="120" y="117" class="st0" width="6" height="6"/>
	<rect x="18" y="123" class="st0" width="6" height="6"/>
	<rect x="24" y="123" class="st8" width="6" height="6"/>
	<rect x="30" y="123" class="st24" width="6" height="6"/>
	<rect x="36" y="123" class="st24" width="6" height="6"/>
	<rect x="42" y="123" class="st25" width="6" height="6"/>
	<rect x="48" y="123" class="st25" width="6" height="6"/>
	<rect x="54" y="123" class="st25" width="6" height="6"/>
	<rect x="60" y="123" class="st25" width="6" height="6"/>
	<rect x="66" y="123" class="st25" width="6" height="6"/>
	<rect x="72" y="123" class="st16" width="6" height="6"/>
	<rect x="78" y="123" class="st16" width="6" height="6"/>
	<rect x="84" y="123" class="st16" width="6" height="6"/>
	<rect x="90" y="123" class="st16" width="6" height="6"/>
	<rect x="96" y="123" class="st13" width="6" height="6"/>
	<rect x="102" y="123" class="st7" width="6" height="6"/>
	<rect x="108" y="123" class="st7" width="6" height="6"/>
	<rect x="114" y="123" class="st5" width="6" height="6"/>
	<rect x="120" y="123" class="st0" width="6" height="6"/>
	<rect x="24" y="129" class="st0" width="6" height="6"/>
	<rect x="30" y="129" class="st6" width="6" height="6"/>
	<rect x="36" y="129" class="st26" width="6" height="6"/>
	<rect x="42" y="129" class="st1" width="6" height="6"/>
	<rect x="48" y="129" class="st26" width="6" height="6"/>
	<rect x="54" y="129" class="st1" width="6" height="6"/>
	<rect x="60" y="129" class="st26" width="6" height="6"/>
	<rect x="66" y="129" class="st25" width="6" height="6"/>
	<rect x="72" y="129" class="st10" width="6" height="6"/>
	<rect x="78" y="129" class="st7" width="6" height="6"/>
	<rect x="84" y="129" class="st7" width="6" height="6"/>
	<rect x="90" y="129" class="st10" width="6" height="6"/>
	<rect x="96" y="129" class="st7" width="6" height="6"/>
	<rect x="102" y="129" class="st7" width="6" height="6"/>
	<rect x="108" y="129" class="st5" width="6" height="6"/>
	<rect x="114" y="129" class="st0" width="6" height="6"/>
	<rect x="30" y="135" class="st0" width="6" height="6"/>
	<rect x="36" y="135" class="st6" width="6" height="6"/>
	<rect x="42" y="135" class="st6" width="6" height="6"/>
	<rect x="48" y="135" class="st17" width="6" height="6"/>
	<rect x="54" y="135" class="st6" width="6" height="6"/>
	<rect x="60" y="135" class="st17" width="6" height="6"/>
	<rect x="66" y="135" class="st24" width="6" height="6"/>
	<rect x="72" y="135" class="st10" width="6" height="6"/>
	<rect x="78" y="135" class="st10" width="6" height="6"/>
	<rect x="84" y="135" class="st10" width="6" height="6"/>
	<rect x="90" y="135" class="st7" width="6" height="6"/>
	<rect x="96" y="135" class="st7" width="6" height="6"/>
	<rect x="102" y="135" class="st5" width="6" height="6"/>
	<rect x="108" y="135" class="st0" width="6" height="6"/>
	<rect x="36" y="141" class="st0" width="6" height="6"/>
	<rect x="42" y="141" class="st6" width="6" height="6"/>
	<rect x="48" y="141" class="st6" width="6" height="6"/>
	<rect x="54" y="141" class="st6" width="6" height="6"/>
	<rect x="60" y="141" class="st6" width="6" height="6"/>
	<rect x="66" y="141" class="st6" width="6" height="6"/>
	<rect x="72" y="141" class="st6" width="6" height="6"/>
	<rect x="78" y="141" class="st6" width="6" height="6"/>
	<rect x="84" y="141" class="st6" width="6" height="6"/>
	<rect x="90" y="141" class="st6" width="6" height="6"/>
	<rect x="96" y="141" class="st6" width="6" height="6"/>
	<rect x="102" y="141" class="st0" width="6" height="6"/>
	<rect x="24" y="147" class="st0" width="6" height="6"/>
	<rect x="36" y="147" class="st0" width="6" height="6"/>
	<rect x="42" y="147" class="st1" width="6" height="6"/>
	<rect x="48" y="147" class="st0" width="6" height="6"/>
	<rect x="54" y="147" class="st0" width="6" height="6"/>
	<rect x="60" y="147" class="st6" width="6" height="6"/>
	<rect x="66" y="147" class="st0" width="6" height="6"/>
	<rect x="72" y="147" class="st0" width="6" height="6"/>
	<rect x="78" y="147" class="st0" width="6" height="6"/>
	<rect x="84" y="147" class="st0" width="6" height="6"/>
	<rect x="90" y="147" class="st0" width="6" height="6"/>
	<rect x="96" y="147" class="st6" width="6" height="6"/>
	<rect x="102" y="147" class="st0" width="6" height="6"/>
	<rect x="114" y="147" class="st0" width="6" height="6"/>
	<rect x="18" y="153" class="st0" width="6" height="6"/>
	<rect x="24" y="153" class="st1" width="6" height="6"/>
	<rect x="30" y="153" class="st0" width="6" height="6"/>
	<rect x="36" y="153" class="st1" width="6" height="6"/>
	<rect x="42" y="153" class="st0" width="6" height="6"/>
	<rect x="48" y="153" class="st0" width="6" height="6"/>
	<rect x="54" y="153" class="st6" width="6" height="6"/>
	<rect x="60" y="153" class="st0" width="6" height="6"/>
	<rect x="66" y="153" class="st6" width="6" height="6"/>
	<rect x="72" y="153" class="st0" width="6" height="6"/>
	<rect x="78" y="153" class="st0" width="6" height="6"/>
	<rect x="84" y="153" class="st0" width="6" height="6"/>
	<rect x="90" y="153" class="st1" width="6" height="6"/>
	<rect x="96" y="153" class="st0" width="6" height="6"/>
	<rect x="102" y="153" class="st6" width="6" height="6"/>
	<rect x="108" y="153" class="st0" width="6" height="6"/>
	<rect x="114" y="153" class="st6" width="6" height="6"/>
	<rect x="120" y="153" class="st0" width="6" height="6"/>
	<rect x="24" y="159" class="st0" width="6" height="6"/>
	<rect x="30" y="159" class="st1" width="6" height="6"/>
	<rect x="36" y="159" class="st1" width="6" height="6"/>
	<rect x="42" y="159" class="st1" width="6" height="6"/>
	<rect x="48" y="159" class="st1" width="6" height="6"/>
	<rect x="54" y="159" class="st1" width="6" height="6"/>
	<rect x="60" y="159" class="st6" width="6" height="6"/>
	<rect x="66" y="159" class="st6" width="6" height="6"/>
	<rect x="72" y="159" class="st6" width="6" height="6"/>
	<rect x="78" y="159" class="st6" width="6" height="6"/>
	<rect x="84" y="159" class="st6" width="6" height="6"/>
	<rect x="90" y="159" class="st6" width="6" height="6"/>
	<rect x="96" y="159" class="st6" width="6" height="6"/>
	<rect x="102" y="159" class="st6" width="6" height="6"/>
	<rect x="108" y="159" class="st6" width="6" height="6"/>
	<rect x="114" y="159" class="st0" width="6" height="6"/>
	<rect x="30" y="165" class="st0" width="6" height="6"/>
	<rect x="36" y="165" class="st0" width="6" height="6"/>
	<rect x="42" y="165" class="st0" width="6" height="6"/>
	<rect x="48" y="165" class="st0" width="6" height="6"/>
	<rect x="54" y="165" class="st0" width="6" height="6"/>
	<rect x="60" y="165" class="st0" width="6" height="6"/>
	<rect x="66" y="165" class="st0" width="6" height="6"/>
	<rect x="72" y="165" class="st0" width="6" height="6"/>
	<rect x="78" y="165" class="st0" width="6" height="6"/>
	<rect x="84" y="165" class="st0" width="6" height="6"/>
	<rect x="90" y="165" class="st0" width="6" height="6"/>
	<rect x="96" y="165" class="st0" width="6" height="6"/>
	<rect x="102" y="165" class="st0" width="6" height="6"/>
	<rect x="108" y="165" class="st0" width="6" height="6"/>
</g>
</svg>
