<?xml version="1.0" encoding="UTF-8"?><svg id="Layer_1" xmlns="http://www.w3.org/2000/svg" viewBox="0 0 500 430"><defs><style>.cls-1,.cls-2{stroke:#914938;stroke-miterlimit:10;stroke-width:2px;}.cls-1,.cls-3{fill:#914938;}.cls-4{fill:#f4ebd4;font-family:Roboto-Bold, Roboto;font-size:20.36px;font-weight:700;}.cls-2{fill:none;}.cls-3{stroke-width:0px;}</style></defs><path class="cls-3" d="m105.01,100.41c40.68-2.16,81-8.28,100.8-14.4,12.6-3.96,19.44-7.56,27.72-13.32l18.36,17.28c-34.2,22.68-97.92,98.28-97.92,174.96,0,60.12,42.12,80.64,88.56,80.64,89.64,0,89.64-68.04,89.64-99.72,0-45.36-5.76-98.64-23.76-136.8l23.4-11.16c20.88,50.76,63.36,90.36,98.64,102.6l-10.44,25.2c-28.8-10.08-60.12-39.96-72.36-62.64h-.36c7.2,32.04,9.36,66.96,9.36,93.6v11.52c-2.16,61.56-40.68,102.24-114.12,102.24-63,0-113.4-30.96-113.4-103.68,0-49.68,25.2-110.16,69.12-156.6-18.72,5.76-49.68,11.88-83.52,14.04-1.08,2.88-3.24,5.4-6.48,5.76l-3.24-29.52Z"/><path class="cls-2" d="m111.16,84.71s76.53-1.29,111.34-23.09"/><polygon class="cls-1" points="215.97 64.88 213.83 60.64 220.13 60.11 226.44 59.59 222.28 64.35 218.12 69.12 215.97 64.88"/><circle class="cls-1" cx="85.65" cy="78.97" r="16.1"/><text class="cls-4" transform="translate(79.81 86.28)"><tspan x="0" y="0">1</tspan></text></svg>