<?xml version="1.0" encoding="UTF-8"?><svg id="Layer_1" xmlns="http://www.w3.org/2000/svg" viewBox="0 0 500 430"><defs><style>.cls-1,.cls-2{stroke:#914938;stroke-miterlimit:10;stroke-width:2px;}.cls-1,.cls-3{fill:#914938;}.cls-4{fill:#f4ebd4;font-family:Roboto-Bold, Roboto;font-size:20.36px;font-weight:700;}.cls-2{fill:none;}.cls-3{stroke-width:0px;}</style></defs><path class="cls-3" d="m128.88,377.98c-11.16-28.44-17.28-75.96-17.28-122.04s9.36-111.6,21.96-170.28l34.56,6.48c-1.08,3.24-4.68,5.76-9.72,5.76-12.6,48.6-22.68,117-22.68,157.68,0,26.64,1.44,52.2,3.96,65.52,4.32-15.12,18.72-51.12,28.8-73.8l15.84,14.76c-12.6,26.28-34.56,74.16-34.56,95.4,0,4.68.72,9.36,2.88,15.48l-23.76,5.04ZM222.12,102.94h48.6c42.48,0,89.28-2.88,118.8-9.72l2.88,23.04c-15.84,3.24-39.24,5.4-61.92,6.84v.36l5.04.36c-.72,2.88-2.88,4.32-7.2,5.04,0,14.76,1.08,40.32,2.52,66.24,26.64-2.52,54.36-6.12,73.08-11.88l2.88,23.4c-19.08,5.4-47.16,8.64-74.88,10.8l4.68,76.32c24.84,10.8,50.4,26.64,73.44,45.72l-13.32,22.32c-19.8-16.92-41.76-32.4-60.12-41.76,2.16,38.16-9.36,62.64-56.88,62.64-39.96,0-70.56-17.64-70.56-50.04s32.4-50.04,70.92-50.04c10.44,0,21.24,1.8,32.04,4.68-.72-17.64-2.52-44.64-3.96-68.4-17.28,1.08-72,1.08-91.8,1.08v-22.32h56.88c11.16,0,22.68-.36,33.48-1.08-1.44-26.28-2.52-52.92-3.24-72-10.44.36-23.04,1.08-33.48,1.08h-47.88v-22.68Zm91.08,207c-11.88-4.32-23.04-6.84-33.48-6.84-27.36,0-48.24,10.08-48.24,29.52s20.16,29.52,47.16,29.52,34.92-12.6,34.92-37.08l-.36-15.12Z"/><path class="cls-2" d="m117.96,94.22s-17.24,79.92-20.36,138.6"/><path class="cls-2" d="m234.89,88.94s104.64.81,138.97-6.7"/><path class="cls-2" d="m234.89,182.62s110.29,1.1,141.8-8.27"/><line class="cls-2" x1="342.5" y1="141.46" x2="348.24" y2="255.3"/><path class="cls-2" d="m198.16,334.92s-13.71-56.38,63.36-62.1"/><circle class="cls-1" cx="106.06" cy="68.64" r="16.1"/><text class="cls-4" transform="translate(100.22 75.95)"><tspan x="0" y="0">1</tspan></text><circle class="cls-1" cx="228.85" cy="63.43" r="16.1"/><text class="cls-4" transform="translate(223.01 70.74)"><tspan x="0" y="0">2</tspan></text><circle class="cls-1" cx="223.64" cy="158.5" r="16.1"/><text class="cls-4" transform="translate(217.8 165.81)"><tspan x="0" y="0">3</tspan></text><circle class="cls-1" cx="367.26" cy="141.38" r="16.1"/><text class="cls-4" transform="translate(361.42 148.69)"><tspan x="0" y="0">4</tspan></text><polygon class="cls-1" points="98.03 227.57 102.77 227.87 100.03 233.57 97.3 239.27 95.29 233.27 93.29 227.28 98.03 227.57"/><polygon class="cls-1" points="362.91 83.96 362.19 79.26 368.34 80.72 374.49 82.19 369.06 85.42 363.62 88.65 362.91 83.96"/><polygon class="cls-1" points="366.35 176.33 365.54 171.65 371.72 172.99 377.9 174.32 372.53 177.67 367.16 181.01 366.35 176.33"/><polygon class="cls-1" points="348.23 247.64 352.97 247.34 350.98 253.34 348.99 259.34 346.24 253.64 343.49 247.95 348.23 247.64"/><polygon class="cls-1" points="253.03 273.29 253.15 268.54 258.95 271.06 264.75 273.58 258.83 275.81 252.92 278.04 253.03 273.29"/></svg>