<?xml version="1.0" encoding="UTF-8"?><svg id="Layer_1" xmlns="http://www.w3.org/2000/svg" viewBox="0 0 500 430"><defs><style>.cls-1,.cls-2{stroke:#914938;stroke-miterlimit:10;stroke-width:2px;}.cls-1,.cls-3{fill:#914938;}.cls-4{fill:#f4ebd4;font-family:Roboto-Bold, Roboto;font-size:20.36px;font-weight:700;}.cls-2{fill:none;}.cls-3{stroke-width:0px;}</style></defs><circle class="cls-1" cx="80.87" cy="96.52" r="16.1"/><text class="cls-4" transform="translate(75.03 103.83)"><tspan x="0" y="0">1</tspan></text><circle class="cls-1" cx="369.53" cy="89.55" r="16.1"/><text class="cls-4" transform="translate(363.69 96.85)"><tspan x="0" y="0">2</tspan></text><path class="cls-3" d="m162.89,98.06c-.72,3.24-4.68,5.4-9.72,5.76-4.32,27-6.84,59.4-6.84,89.64,0,13.32.72,26.28,1.44,37.8,4.32,61.2,29.16,98.28,56.88,97.92,14.4,0,33.12-36.72,46.08-77.04,5.04,5.04,14.76,11.88,20.88,15.48-16.56,48.6-37.44,88.2-67.32,88.92-45.72.72-77.4-54.72-82.44-123.84-1.08-13.68-1.44-28.8-1.44-45,0-31.68,1.8-66.24,5.4-96.84l37.08,7.2Zm238.68,167.4c-10.08-63-42.12-108.36-90.72-135.36l15.84-19.44c52.56,28.08,91.08,79.92,101.52,146.52l-26.64,8.28Z"/><path class="cls-2" d="m109.98,92.82s-13.85,96.77,0,171.53"/><polygon class="cls-1" points="109.67 261.9 114.32 260.94 113.18 267.16 112.03 273.38 108.52 268.12 105.02 262.86 109.67 261.9"/><path class="cls-2" d="m339.05,103.83s63.54,26.11,93.56,113.04"/><polygon class="cls-1" points="430.77 211.85 435.23 210.21 435.02 216.53 434.81 222.85 430.56 218.17 426.31 213.49 430.77 211.85"/></svg>