<?xml version="1.0" encoding="utf-8"?>
<!-- Generator: Adobe Illustrator 27.9.0, SVG Export Plug-In . SVG Version: 6.00 Build 0)  -->
<svg version="1.1" id="Layer_1" shape-rendering="crispEdges"
	 xmlns="http://www.w3.org/2000/svg" xmlns:xlink="http://www.w3.org/1999/xlink" x="0px" y="0px" viewBox="0 0 192 192"
	 style="enable-background:new 0 0 192 192;" xml:space="preserve">
<style type="text/css">
	.st0{fill:#C1B9E0;}
	.st1{fill:#E17557;}
	.st2{fill:#D1584A;}
	.st3{fill:#EECC11;}
	.st4{fill:#DA7FA0;}
	.st5{fill:#CF6F87;}
	.st6{fill:#B55D83;}
	.st7{fill:#B3534E;}
	.st8{fill:#ECE7E8;}
	.st9{fill:#5CABE1;}
	.st10{fill:#CD694F;}
	.st11{fill:#934D52;}
	.st12{fill:#FBD8E0;}
	.st13{fill:#F1BAC7;}
	.st14{fill:#EEA6B7;}
	.st15{fill:#ECC98B;}
	.st16{fill:#E75D81;}
	.st17{fill:#D45D82;}
	.st18{fill:#EDE5B7;}
	.st19{fill:#AA3963;}
	.st20{fill:#59CC6B;}
	.st21{fill:#D8BA14;}
	.st22{fill:#EFDCE5;}
	.st23{fill:#C73D62;}
	.st24{fill:#50B06E;}
	.st25{fill:#A71D4A;}
	.st26{fill:#EB97A7;}
	.st27{fill:#5993C5;}
	.st28{fill:#E6A974;}
	.st29{fill:#8D506B;}
	.st30{fill:#E7A55D;}
	.st31{fill:#E4895D;}
	.st32{fill:#AE5269;}
</style>
<g>
	<rect x="45" y="3" class="st0" width="6" height="6"/>
	<rect x="51" y="3" class="st0" width="6" height="6"/>
	<rect x="63" y="3" class="st0" width="6" height="6"/>
	<rect x="69" y="3" class="st0" width="6" height="6"/>
	<rect x="39" y="9" class="st0" width="6" height="6"/>
	<rect x="45" y="9" class="st1" width="6" height="6"/>
	<rect x="51" y="9" class="st1" width="6" height="6"/>
	<rect x="57" y="9" class="st0" width="6" height="6"/>
	<rect x="63" y="9" class="st2" width="6" height="6"/>
	<rect x="69" y="9" class="st2" width="6" height="6"/>
	<rect x="75" y="9" class="st0" width="6" height="6"/>
	<rect x="99" y="9" class="st0" width="6" height="6"/>
	<rect x="105" y="9" class="st0" width="6" height="6"/>
	<rect x="33" y="15" class="st0" width="6" height="6"/>
	<rect x="39" y="15" class="st1" width="6" height="6"/>
	<rect x="45" y="15" class="st3" width="6" height="6"/>
	<rect x="51" y="15" class="st3" width="6" height="6"/>
	<rect x="57" y="15" class="st2" width="6" height="6"/>
	<rect x="63" y="15" class="st3" width="6" height="6"/>
	<rect x="69" y="15" class="st3" width="6" height="6"/>
	<rect x="75" y="15" class="st2" width="6" height="6"/>
	<rect x="81" y="15" class="st0" width="6" height="6"/>
	<rect x="93" y="15" class="st0" width="6" height="6"/>
	<rect x="99" y="15" class="st4" width="6" height="6"/>
	<rect x="105" y="15" class="st5" width="6" height="6"/>
	<rect x="111" y="15" class="st0" width="6" height="6"/>
	<rect x="141" y="15" class="st0" width="6" height="6"/>
	<rect x="147" y="15" class="st0" width="6" height="6"/>
	<rect x="33" y="21" class="st0" width="6" height="6"/>
	<rect x="39" y="21" class="st1" width="6" height="6"/>
	<rect x="45" y="21" class="st3" width="6" height="6"/>
	<rect x="51" y="21" class="st3" width="6" height="6"/>
	<rect x="57" y="21" class="st3" width="6" height="6"/>
	<rect x="63" y="21" class="st3" width="6" height="6"/>
	<rect x="69" y="21" class="st3" width="6" height="6"/>
	<rect x="75" y="21" class="st2" width="6" height="6"/>
	<rect x="81" y="21" class="st0" width="6" height="6"/>
	<rect x="87" y="21" class="st0" width="6" height="6"/>
	<rect x="93" y="21" class="st5" width="6" height="6"/>
	<rect x="99" y="21" class="st3" width="6" height="6"/>
	<rect x="105" y="21" class="st6" width="6" height="6"/>
	<rect x="111" y="21" class="st0" width="6" height="6"/>
	<rect x="135" y="21" class="st0" width="6" height="6"/>
	<rect x="141" y="21" class="st7" width="6" height="6"/>
	<rect x="147" y="21" class="st7" width="6" height="6"/>
	<rect x="153" y="21" class="st0" width="6" height="6"/>
	<rect x="39" y="27" class="st0" width="6" height="6"/>
	<rect x="45" y="27" class="st1" width="6" height="6"/>
	<rect x="51" y="27" class="st3" width="6" height="6"/>
	<rect x="57" y="27" class="st3" width="6" height="6"/>
	<rect x="63" y="27" class="st3" width="6" height="6"/>
	<rect x="69" y="27" class="st2" width="6" height="6"/>
	<rect x="75" y="27" class="st0" width="6" height="6"/>
	<rect x="81" y="27" class="st0" width="6" height="6"/>
	<rect x="87" y="27" class="st4" width="6" height="6"/>
	<rect x="93" y="27" class="st8" width="6" height="6"/>
	<rect x="99" y="27" class="st9" width="6" height="6"/>
	<rect x="105" y="27" class="st6" width="6" height="6"/>
	<rect x="111" y="27" class="st0" width="6" height="6"/>
	<rect x="129" y="27" class="st0" width="6" height="6"/>
	<rect x="135" y="27" class="st7" width="6" height="6"/>
	<rect x="141" y="27" class="st10" width="6" height="6"/>
	<rect x="147" y="27" class="st11" width="6" height="6"/>
	<rect x="153" y="27" class="st0" width="6" height="6"/>
	<rect x="45" y="33" class="st0" width="6" height="6"/>
	<rect x="51" y="33" class="st1" width="6" height="6"/>
	<rect x="57" y="33" class="st3" width="6" height="6"/>
	<rect x="63" y="33" class="st2" width="6" height="6"/>
	<rect x="69" y="33" class="st0" width="6" height="6"/>
	<rect x="75" y="33" class="st0" width="6" height="6"/>
	<rect x="81" y="33" class="st5" width="6" height="6"/>
	<rect x="87" y="33" class="st8" width="6" height="6"/>
	<rect x="93" y="33" class="st12" width="6" height="6"/>
	<rect x="99" y="33" class="st13" width="6" height="6"/>
	<rect x="105" y="33" class="st14" width="6" height="6"/>
	<rect x="111" y="33" class="st6" width="6" height="6"/>
	<rect x="117" y="33" class="st0" width="6" height="6"/>
	<rect x="129" y="33" class="st0" width="6" height="6"/>
	<rect x="135" y="33" class="st7" width="6" height="6"/>
	<rect x="141" y="33" class="st15" width="6" height="6"/>
	<rect x="147" y="33" class="st11" width="6" height="6"/>
	<rect x="153" y="33" class="st0" width="6" height="6"/>
	<rect x="51" y="39" class="st0" width="6" height="6"/>
	<rect x="57" y="39" class="st2" width="6" height="6"/>
	<rect x="63" y="39" class="st0" width="6" height="6"/>
	<rect x="69" y="39" class="st0" width="6" height="6"/>
	<rect x="75" y="39" class="st4" width="6" height="6"/>
	<rect x="81" y="39" class="st3" width="6" height="6"/>
	<rect x="87" y="39" class="st12" width="6" height="6"/>
	<rect x="93" y="39" class="st16" width="6" height="6"/>
	<rect x="99" y="39" class="st13" width="6" height="6"/>
	<rect x="105" y="39" class="st17" width="6" height="6"/>
	<rect x="111" y="39" class="st14" width="6" height="6"/>
	<rect x="117" y="39" class="st6" width="6" height="6"/>
	<rect x="123" y="39" class="st0" width="6" height="6"/>
	<rect x="129" y="39" class="st7" width="6" height="6"/>
	<rect x="135" y="39" class="st18" width="6" height="6"/>
	<rect x="141" y="39" class="st18" width="6" height="6"/>
	<rect x="147" y="39" class="st11" width="6" height="6"/>
	<rect x="153" y="39" class="st0" width="6" height="6"/>
	<rect x="57" y="45" class="st0" width="6" height="6"/>
	<rect x="63" y="45" class="st19" width="6" height="6"/>
	<rect x="69" y="45" class="st19" width="6" height="6"/>
	<rect x="75" y="45" class="st19" width="6" height="6"/>
	<rect x="81" y="45" class="st8" width="6" height="6"/>
	<rect x="87" y="45" class="st9" width="6" height="6"/>
	<rect x="93" y="45" class="st13" width="6" height="6"/>
	<rect x="99" y="45" class="st20" width="6" height="6"/>
	<rect x="105" y="45" class="st14" width="6" height="6"/>
	<rect x="111" y="45" class="st21" width="6" height="6"/>
	<rect x="117" y="45" class="st6" width="6" height="6"/>
	<rect x="123" y="45" class="st0" width="6" height="6"/>
	<rect x="129" y="45" class="st7" width="6" height="6"/>
	<rect x="135" y="45" class="st15" width="6" height="6"/>
	<rect x="141" y="45" class="st7" width="6" height="6"/>
	<rect x="147" y="45" class="st0" width="6" height="6"/>
	<rect x="51" y="51" class="st0" width="6" height="6"/>
	<rect x="57" y="51" class="st19" width="6" height="6"/>
	<rect x="63" y="51" class="st22" width="6" height="6"/>
	<rect x="69" y="51" class="st13" width="6" height="6"/>
	<rect x="75" y="51" class="st23" width="6" height="6"/>
	<rect x="81" y="51" class="st19" width="6" height="6"/>
	<rect x="87" y="51" class="st8" width="6" height="6"/>
	<rect x="93" y="51" class="st5" width="6" height="6"/>
	<rect x="99" y="51" class="st5" width="6" height="6"/>
	<rect x="105" y="51" class="st6" width="6" height="6"/>
	<rect x="111" y="51" class="st6" width="6" height="6"/>
	<rect x="117" y="51" class="st24" width="6" height="6"/>
	<rect x="123" y="51" class="st6" width="6" height="6"/>
	<rect x="129" y="51" class="st7" width="6" height="6"/>
	<rect x="135" y="51" class="st10" width="6" height="6"/>
	<rect x="141" y="51" class="st11" width="6" height="6"/>
	<rect x="147" y="51" class="st0" width="6" height="6"/>
	<rect x="51" y="57" class="st0" width="6" height="6"/>
	<rect x="57" y="57" class="st19" width="6" height="6"/>
	<rect x="63" y="57" class="st13" width="6" height="6"/>
	<rect x="69" y="57" class="st23" width="6" height="6"/>
	<rect x="75" y="57" class="st23" width="6" height="6"/>
	<rect x="81" y="57" class="st25" width="6" height="6"/>
	<rect x="87" y="57" class="st8" width="6" height="6"/>
	<rect x="93" y="57" class="st12" width="6" height="6"/>
	<rect x="99" y="57" class="st20" width="6" height="6"/>
	<rect x="105" y="57" class="st12" width="6" height="6"/>
	<rect x="111" y="57" class="st13" width="6" height="6"/>
	<rect x="117" y="57" class="st14" width="6" height="6"/>
	<rect x="123" y="57" class="st7" width="6" height="6"/>
	<rect x="129" y="57" class="st10" width="6" height="6"/>
	<rect x="135" y="57" class="st10" width="6" height="6"/>
	<rect x="141" y="57" class="st11" width="6" height="6"/>
	<rect x="147" y="57" class="st0" width="6" height="6"/>
	<rect x="51" y="63" class="st0" width="6" height="6"/>
	<rect x="57" y="63" class="st19" width="6" height="6"/>
	<rect x="63" y="63" class="st23" width="6" height="6"/>
	<rect x="69" y="63" class="st23" width="6" height="6"/>
	<rect x="75" y="63" class="st23" width="6" height="6"/>
	<rect x="81" y="63" class="st25" width="6" height="6"/>
	<rect x="87" y="63" class="st12" width="6" height="6"/>
	<rect x="93" y="63" class="st16" width="6" height="6"/>
	<rect x="99" y="63" class="st12" width="6" height="6"/>
	<rect x="105" y="63" class="st13" width="6" height="6"/>
	<rect x="111" y="63" class="st17" width="6" height="6"/>
	<rect x="117" y="63" class="st26" width="6" height="6"/>
	<rect x="123" y="63" class="st11" width="6" height="6"/>
	<rect x="129" y="63" class="st15" width="6" height="6"/>
	<rect x="135" y="63" class="st11" width="6" height="6"/>
	<rect x="141" y="63" class="st0" width="6" height="6"/>
	<rect x="51" y="69" class="st0" width="6" height="6"/>
	<rect x="57" y="69" class="st4" width="6" height="6"/>
	<rect x="63" y="69" class="st19" width="6" height="6"/>
	<rect x="69" y="69" class="st25" width="6" height="6"/>
	<rect x="75" y="69" class="st25" width="6" height="6"/>
	<rect x="81" y="69" class="st12" width="6" height="6"/>
	<rect x="87" y="69" class="st20" width="6" height="6"/>
	<rect x="93" y="69" class="st12" width="6" height="6"/>
	<rect x="99" y="69" class="st9" width="6" height="6"/>
	<rect x="105" y="69" class="st3" width="6" height="6"/>
	<rect x="111" y="69" class="st26" width="6" height="6"/>
	<rect x="117" y="69" class="st11" width="6" height="6"/>
	<rect x="123" y="69" class="st18" width="6" height="6"/>
	<rect x="129" y="69" class="st18" width="6" height="6"/>
	<rect x="135" y="69" class="st11" width="6" height="6"/>
	<rect x="141" y="69" class="st0" width="6" height="6"/>
	<rect x="45" y="75" class="st0" width="6" height="6"/>
	<rect x="51" y="75" class="st4" width="6" height="6"/>
	<rect x="57" y="75" class="st9" width="6" height="6"/>
	<rect x="63" y="75" class="st8" width="6" height="6"/>
	<rect x="69" y="75" class="st20" width="6" height="6"/>
	<rect x="75" y="75" class="st5" width="6" height="6"/>
	<rect x="81" y="75" class="st6" width="6" height="6"/>
	<rect x="87" y="75" class="st12" width="6" height="6"/>
	<rect x="93" y="75" class="st5" width="6" height="6"/>
	<rect x="99" y="75" class="st5" width="6" height="6"/>
	<rect x="105" y="75" class="st6" width="6" height="6"/>
	<rect x="111" y="75" class="st6" width="6" height="6"/>
	<rect x="117" y="75" class="st11" width="6" height="6"/>
	<rect x="123" y="75" class="st15" width="6" height="6"/>
	<rect x="129" y="75" class="st7" width="6" height="6"/>
	<rect x="135" y="75" class="st24" width="6" height="6"/>
	<rect x="141" y="75" class="st6" width="6" height="6"/>
	<rect x="147" y="75" class="st0" width="6" height="6"/>
	<rect x="45" y="81" class="st0" width="6" height="6"/>
	<rect x="51" y="81" class="st4" width="6" height="6"/>
	<rect x="57" y="81" class="st8" width="6" height="6"/>
	<rect x="63" y="81" class="st16" width="6" height="6"/>
	<rect x="69" y="81" class="st8" width="6" height="6"/>
	<rect x="75" y="81" class="st8" width="6" height="6"/>
	<rect x="81" y="81" class="st20" width="6" height="6"/>
	<rect x="87" y="81" class="st12" width="6" height="6"/>
	<rect x="93" y="81" class="st20" width="6" height="6"/>
	<rect x="99" y="81" class="st12" width="6" height="6"/>
	<rect x="105" y="81" class="st17" width="6" height="6"/>
	<rect x="111" y="81" class="st26" width="6" height="6"/>
	<rect x="117" y="81" class="st10" width="6" height="6"/>
	<rect x="123" y="81" class="st10" width="6" height="6"/>
	<rect x="129" y="81" class="st11" width="6" height="6"/>
	<rect x="135" y="81" class="st14" width="6" height="6"/>
	<rect x="141" y="81" class="st6" width="6" height="6"/>
	<rect x="147" y="81" class="st0" width="6" height="6"/>
	<rect x="45" y="87" class="st0" width="6" height="6"/>
	<rect x="51" y="87" class="st1" width="6" height="6"/>
	<rect x="57" y="87" class="st5" width="6" height="6"/>
	<rect x="63" y="87" class="st8" width="6" height="6"/>
	<rect x="69" y="87" class="st9" width="6" height="6"/>
	<rect x="75" y="87" class="st3" width="6" height="6"/>
	<rect x="81" y="87" class="st12" width="6" height="6"/>
	<rect x="87" y="87" class="st16" width="6" height="6"/>
	<rect x="93" y="87" class="st12" width="6" height="6"/>
	<rect x="99" y="87" class="st13" width="6" height="6"/>
	<rect x="105" y="87" class="st20" width="6" height="6"/>
	<rect x="111" y="87" class="st14" width="6" height="6"/>
	<rect x="117" y="87" class="st27" width="6" height="6"/>
	<rect x="123" y="87" class="st11" width="6" height="6"/>
	<rect x="129" y="87" class="st21" width="6" height="6"/>
	<rect x="135" y="87" class="st6" width="6" height="6"/>
	<rect x="141" y="87" class="st10" width="6" height="6"/>
	<rect x="147" y="87" class="st0" width="6" height="6"/>
	<rect x="45" y="93" class="st0" width="6" height="6"/>
	<rect x="51" y="93" class="st1" width="6" height="6"/>
	<rect x="57" y="93" class="st15" width="6" height="6"/>
	<rect x="63" y="93" class="st5" width="6" height="6"/>
	<rect x="69" y="93" class="st5" width="6" height="6"/>
	<rect x="75" y="93" class="st6" width="6" height="6"/>
	<rect x="81" y="93" class="st9" width="6" height="6"/>
	<rect x="87" y="93" class="st13" width="6" height="6"/>
	<rect x="93" y="93" class="st3" width="6" height="6"/>
	<rect x="99" y="93" class="st17" width="6" height="6"/>
	<rect x="105" y="93" class="st14" width="6" height="6"/>
	<rect x="111" y="93" class="st21" width="6" height="6"/>
	<rect x="117" y="93" class="st6" width="6" height="6"/>
	<rect x="123" y="93" class="st6" width="6" height="6"/>
	<rect x="129" y="93" class="st6" width="6" height="6"/>
	<rect x="135" y="93" class="st28" width="6" height="6"/>
	<rect x="141" y="93" class="st2" width="6" height="6"/>
	<rect x="147" y="93" class="st0" width="6" height="6"/>
	<rect x="45" y="99" class="st0" width="6" height="6"/>
	<rect x="51" y="99" class="st7" width="6" height="6"/>
	<rect x="57" y="99" class="st1" width="6" height="6"/>
	<rect x="63" y="99" class="st15" width="6" height="6"/>
	<rect x="69" y="99" class="st15" width="6" height="6"/>
	<rect x="75" y="99" class="st15" width="6" height="6"/>
	<rect x="81" y="99" class="st5" width="6" height="6"/>
	<rect x="87" y="99" class="st5" width="6" height="6"/>
	<rect x="93" y="99" class="st6" width="6" height="6"/>
	<rect x="99" y="99" class="st6" width="6" height="6"/>
	<rect x="105" y="99" class="st6" width="6" height="6"/>
	<rect x="111" y="99" class="st6" width="6" height="6"/>
	<rect x="117" y="99" class="st28" width="6" height="6"/>
	<rect x="123" y="99" class="st28" width="6" height="6"/>
	<rect x="129" y="99" class="st28" width="6" height="6"/>
	<rect x="135" y="99" class="st2" width="6" height="6"/>
	<rect x="141" y="99" class="st29" width="6" height="6"/>
	<rect x="147" y="99" class="st0" width="6" height="6"/>
	<rect x="45" y="105" class="st0" width="6" height="6"/>
	<rect x="51" y="105" class="st7" width="6" height="6"/>
	<rect x="57" y="105" class="st30" width="6" height="6"/>
	<rect x="63" y="105" class="st1" width="6" height="6"/>
	<rect x="69" y="105" class="st1" width="6" height="6"/>
	<rect x="75" y="105" class="st15" width="6" height="6"/>
	<rect x="81" y="105" class="st15" width="6" height="6"/>
	<rect x="87" y="105" class="st15" width="6" height="6"/>
	<rect x="93" y="105" class="st28" width="6" height="6"/>
	<rect x="99" y="105" class="st28" width="6" height="6"/>
	<rect x="105" y="105" class="st28" width="6" height="6"/>
	<rect x="111" y="105" class="st28" width="6" height="6"/>
	<rect x="117" y="105" class="st28" width="6" height="6"/>
	<rect x="123" y="105" class="st2" width="6" height="6"/>
	<rect x="129" y="105" class="st2" width="6" height="6"/>
	<rect x="135" y="105" class="st10" width="6" height="6"/>
	<rect x="141" y="105" class="st29" width="6" height="6"/>
	<rect x="147" y="105" class="st0" width="6" height="6"/>
	<rect x="51" y="111" class="st0" width="6" height="6"/>
	<rect x="57" y="111" class="st7" width="6" height="6"/>
	<rect x="63" y="111" class="st30" width="6" height="6"/>
	<rect x="69" y="111" class="st30" width="6" height="6"/>
	<rect x="75" y="111" class="st1" width="6" height="6"/>
	<rect x="81" y="111" class="st1" width="6" height="6"/>
	<rect x="87" y="111" class="st10" width="6" height="6"/>
	<rect x="93" y="111" class="st10" width="6" height="6"/>
	<rect x="99" y="111" class="st2" width="6" height="6"/>
	<rect x="105" y="111" class="st2" width="6" height="6"/>
	<rect x="111" y="111" class="st2" width="6" height="6"/>
	<rect x="117" y="111" class="st2" width="6" height="6"/>
	<rect x="123" y="111" class="st10" width="6" height="6"/>
	<rect x="129" y="111" class="st10" width="6" height="6"/>
	<rect x="135" y="111" class="st29" width="6" height="6"/>
	<rect x="141" y="111" class="st0" width="6" height="6"/>
	<rect x="51" y="117" class="st0" width="6" height="6"/>
	<rect x="57" y="117" class="st7" width="6" height="6"/>
	<rect x="63" y="117" class="st30" width="6" height="6"/>
	<rect x="69" y="117" class="st30" width="6" height="6"/>
	<rect x="75" y="117" class="st31" width="6" height="6"/>
	<rect x="81" y="117" class="st30" width="6" height="6"/>
	<rect x="87" y="117" class="st1" width="6" height="6"/>
	<rect x="93" y="117" class="st31" width="6" height="6"/>
	<rect x="99" y="117" class="st1" width="6" height="6"/>
	<rect x="105" y="117" class="st10" width="6" height="6"/>
	<rect x="111" y="117" class="st10" width="6" height="6"/>
	<rect x="117" y="117" class="st10" width="6" height="6"/>
	<rect x="123" y="117" class="st10" width="6" height="6"/>
	<rect x="129" y="117" class="st10" width="6" height="6"/>
	<rect x="135" y="117" class="st29" width="6" height="6"/>
	<rect x="141" y="117" class="st0" width="6" height="6"/>
	<rect x="57" y="123" class="st0" width="6" height="6"/>
	<rect x="63" y="123" class="st7" width="6" height="6"/>
	<rect x="69" y="123" class="st30" width="6" height="6"/>
	<rect x="75" y="123" class="st30" width="6" height="6"/>
	<rect x="81" y="123" class="st31" width="6" height="6"/>
	<rect x="87" y="123" class="st30" width="6" height="6"/>
	<rect x="93" y="123" class="st1" width="6" height="6"/>
	<rect x="99" y="123" class="st31" width="6" height="6"/>
	<rect x="105" y="123" class="st1" width="6" height="6"/>
	<rect x="111" y="123" class="st10" width="6" height="6"/>
	<rect x="117" y="123" class="st10" width="6" height="6"/>
	<rect x="123" y="123" class="st10" width="6" height="6"/>
	<rect x="129" y="123" class="st29" width="6" height="6"/>
	<rect x="135" y="123" class="st0" width="6" height="6"/>
	<rect x="57" y="129" class="st0" width="6" height="6"/>
	<rect x="63" y="129" class="st7" width="6" height="6"/>
	<rect x="69" y="129" class="st30" width="6" height="6"/>
	<rect x="75" y="129" class="st31" width="6" height="6"/>
	<rect x="81" y="129" class="st30" width="6" height="6"/>
	<rect x="87" y="129" class="st1" width="6" height="6"/>
	<rect x="93" y="129" class="st31" width="6" height="6"/>
	<rect x="99" y="129" class="st1" width="6" height="6"/>
	<rect x="105" y="129" class="st31" width="6" height="6"/>
	<rect x="111" y="129" class="st1" width="6" height="6"/>
	<rect x="117" y="129" class="st10" width="6" height="6"/>
	<rect x="123" y="129" class="st10" width="6" height="6"/>
	<rect x="129" y="129" class="st29" width="6" height="6"/>
	<rect x="135" y="129" class="st0" width="6" height="6"/>
	<rect x="63" y="135" class="st0" width="6" height="6"/>
	<rect x="69" y="135" class="st32" width="6" height="6"/>
	<rect x="75" y="135" class="st30" width="6" height="6"/>
	<rect x="81" y="135" class="st30" width="6" height="6"/>
	<rect x="87" y="135" class="st31" width="6" height="6"/>
	<rect x="93" y="135" class="st1" width="6" height="6"/>
	<rect x="99" y="135" class="st31" width="6" height="6"/>
	<rect x="105" y="135" class="st1" width="6" height="6"/>
	<rect x="111" y="135" class="st10" width="6" height="6"/>
	<rect x="117" y="135" class="st10" width="6" height="6"/>
	<rect x="123" y="135" class="st29" width="6" height="6"/>
	<rect x="129" y="135" class="st0" width="6" height="6"/>
	<rect x="63" y="141" class="st0" width="6" height="6"/>
	<rect x="69" y="141" class="st32" width="6" height="6"/>
	<rect x="75" y="141" class="st30" width="6" height="6"/>
	<rect x="81" y="141" class="st31" width="6" height="6"/>
	<rect x="87" y="141" class="st30" width="6" height="6"/>
	<rect x="93" y="141" class="st31" width="6" height="6"/>
	<rect x="99" y="141" class="st1" width="6" height="6"/>
	<rect x="105" y="141" class="st31" width="6" height="6"/>
	<rect x="111" y="141" class="st1" width="6" height="6"/>
	<rect x="117" y="141" class="st10" width="6" height="6"/>
	<rect x="123" y="141" class="st29" width="6" height="6"/>
	<rect x="129" y="141" class="st0" width="6" height="6"/>
	<rect x="69" y="147" class="st0" width="6" height="6"/>
	<rect x="75" y="147" class="st32" width="6" height="6"/>
	<rect x="81" y="147" class="st30" width="6" height="6"/>
	<rect x="87" y="147" class="st31" width="6" height="6"/>
	<rect x="93" y="147" class="st1" width="6" height="6"/>
	<rect x="99" y="147" class="st31" width="6" height="6"/>
	<rect x="105" y="147" class="st1" width="6" height="6"/>
	<rect x="111" y="147" class="st10" width="6" height="6"/>
	<rect x="117" y="147" class="st29" width="6" height="6"/>
	<rect x="123" y="147" class="st0" width="6" height="6"/>
	<rect x="69" y="153" class="st0" width="6" height="6"/>
	<rect x="75" y="153" class="st32" width="6" height="6"/>
	<rect x="81" y="153" class="st30" width="6" height="6"/>
	<rect x="87" y="153" class="st1" width="6" height="6"/>
	<rect x="93" y="153" class="st31" width="6" height="6"/>
	<rect x="99" y="153" class="st1" width="6" height="6"/>
	<rect x="105" y="153" class="st10" width="6" height="6"/>
	<rect x="111" y="153" class="st10" width="6" height="6"/>
	<rect x="117" y="153" class="st29" width="6" height="6"/>
	<rect x="123" y="153" class="st0" width="6" height="6"/>
	<rect x="75" y="159" class="st0" width="6" height="6"/>
	<rect x="81" y="159" class="st32" width="6" height="6"/>
	<rect x="87" y="159" class="st30" width="6" height="6"/>
	<rect x="93" y="159" class="st1" width="6" height="6"/>
	<rect x="99" y="159" class="st31" width="6" height="6"/>
	<rect x="105" y="159" class="st10" width="6" height="6"/>
	<rect x="111" y="159" class="st29" width="6" height="6"/>
	<rect x="117" y="159" class="st0" width="6" height="6"/>
	<rect x="75" y="165" class="st0" width="6" height="6"/>
	<rect x="81" y="165" class="st32" width="6" height="6"/>
	<rect x="87" y="165" class="st30" width="6" height="6"/>
	<rect x="93" y="165" class="st31" width="6" height="6"/>
	<rect x="99" y="165" class="st1" width="6" height="6"/>
	<rect x="105" y="165" class="st10" width="6" height="6"/>
	<rect x="111" y="165" class="st29" width="6" height="6"/>
	<rect x="117" y="165" class="st0" width="6" height="6"/>
	<rect x="81" y="171" class="st0" width="6" height="6"/>
	<rect x="87" y="171" class="st29" width="6" height="6"/>
	<rect x="93" y="171" class="st30" width="6" height="6"/>
	<rect x="99" y="171" class="st10" width="6" height="6"/>
	<rect x="105" y="171" class="st29" width="6" height="6"/>
	<rect x="111" y="171" class="st0" width="6" height="6"/>
	<rect x="87" y="177" class="st0" width="6" height="6"/>
	<rect x="93" y="177" class="st29" width="6" height="6"/>
	<rect x="99" y="177" class="st29" width="6" height="6"/>
	<rect x="105" y="177" class="st0" width="6" height="6"/>
	<rect x="93" y="183" class="st0" width="6" height="6"/>
	<rect x="99" y="183" class="st0" width="6" height="6"/>
</g>
</svg>
