<?xml version="1.0" encoding="UTF-8"?>
<svg xmlns="http://www.w3.org/2000/svg" version="1.1" viewBox="0 0 192 192">
  <!-- Generator: Adobe Illustrator 29.6.1, SVG Export Plug-In . SVG Version: 2.1.1 Build 9)  -->
  <defs>
    <style>
      .st0 {
        fill: #c73d62;
      }

      .st1 {
        fill: #1d8566;
      }

      .st2 {
        fill: #89251e;
      }

      .st3 {
        fill: #50b06e;
      }

      .st4 {
        fill: #e7a55d;
      }

      .st5 {
        fill: #a42c23;
      }

      .st6 {
        fill: #981f16;
      }

      .st7 {
        fill: #b5e273;
      }

      .st8 {
        fill: #2d0617;
      }

      .st9 {
        fill: #ff9648;
      }

      .st10 {
        fill: #da7fa0;
      }

      .st11 {
        fill: #49100b;
      }

      .st12 {
        fill: #d56440;
      }

      .st13 {
        fill: #98462c;
      }

      .st14 {
        fill: #733c81;
      }

      .st15 {
        fill: #671914;
      }

      .st16 {
        fill: #ece7e8;
      }

      .st17 {
        fill: #b65638;
      }

      .st18 {
        fill: #2ba43e;
      }

      .st19 {
        fill: #6d1c16;
      }

      .st20 {
        fill: #f36d90;
      }

      .st21 {
        fill: #0a2f17;
      }

      .st22 {
        fill: #921b1c;
      }

      .st23 {
        fill: #698c54;
      }

      .st24 {
        fill: #124536;
      }

      .st25 {
        fill: #4a0e43;
      }
    </style>
  </defs>
  <g id="Layer_1" shape-rendering="crispEdges">
    <g>
      <rect class="st9" x="24" width="6" height="6"/>
      <rect class="st9" x="78" width="6" height="6"/>
      <rect class="st9" x="18" y="6" width="6" height="6"/>
      <rect class="st11" x="24" y="6" width="6" height="6"/>
      <rect class="st9" x="30" y="6" width="6" height="6"/>
      <rect class="st9" x="72" y="6" width="6" height="6"/>
      <rect class="st11" x="78" y="6" width="6" height="6"/>
      <rect class="st9" x="84" y="6" width="6" height="6"/>
      <rect class="st9" x="12" y="12" width="6" height="6"/>
      <rect class="st11" x="18" y="12" width="6" height="6"/>
      <rect class="st9" x="24" y="12" width="6" height="6"/>
      <rect class="st9" x="78" y="12" width="6" height="6"/>
      <rect class="st11" x="84" y="12" width="6" height="6"/>
      <rect class="st9" x="90" y="12" width="6" height="6"/>
      <rect class="st9" x="6" y="18" width="6" height="6"/>
      <rect class="st11" x="12" y="18" width="6" height="6"/>
      <rect class="st5" x="18" y="18" width="6" height="6"/>
      <rect class="st8" x="24" y="18" width="6" height="6"/>
      <rect class="st9" x="30" y="18" width="6" height="6"/>
      <rect class="st9" x="72" y="18" width="6" height="6"/>
      <rect class="st8" x="78" y="18" width="6" height="6"/>
      <rect class="st5" x="84" y="18" width="6" height="6"/>
      <rect class="st11" x="90" y="18" width="6" height="6"/>
      <rect class="st9" x="96" y="18" width="6" height="6"/>
      <rect class="st9" x="6" y="24" width="6" height="6"/>
      <rect class="st11" x="12" y="24" width="6" height="6"/>
      <rect class="st17" x="18" y="24" width="6" height="6"/>
      <rect class="st9" x="24" y="24" width="6" height="6"/>
      <rect class="st9" x="78" y="24" width="6" height="6"/>
      <rect class="st17" x="84" y="24" width="6" height="6"/>
      <rect class="st11" x="90" y="24" width="6" height="6"/>
      <rect class="st9" x="96" y="24" width="6" height="6"/>
      <rect class="st9" y="30" width="6" height="6"/>
      <rect class="st11" x="6" y="30" width="6" height="6"/>
      <rect class="st6" x="12" y="30" width="6" height="6"/>
      <rect class="st10" x="18" y="30" width="6" height="6"/>
      <rect class="st8" x="24" y="30" width="6" height="6"/>
      <rect class="st9" x="30" y="30" width="6" height="6"/>
      <rect class="st9" x="72" y="30" width="6" height="6"/>
      <rect class="st8" x="78" y="30" width="6" height="6"/>
      <rect class="st10" x="84" y="30" width="6" height="6"/>
      <rect class="st5" x="90" y="30" width="6" height="6"/>
      <rect class="st11" x="96" y="30" width="6" height="6"/>
      <rect class="st9" x="102" y="30" width="6" height="6"/>
      <rect class="st9" x="120" y="30" width="6" height="6"/>
      <rect class="st9" x="132" y="30" width="6" height="6"/>
      <rect class="st9" x="138" y="30" width="6" height="6"/>
      <rect class="st9" x="144" y="30" width="6" height="6"/>
      <rect class="st9" x="156" y="30" width="6" height="6"/>
      <rect class="st9" y="36" width="6" height="6"/>
      <rect class="st11" x="6" y="36" width="6" height="6"/>
      <rect class="st17" x="12" y="36" width="6" height="6"/>
      <rect class="st8" x="18" y="36" width="6" height="6"/>
      <rect class="st9" x="24" y="36" width="6" height="6"/>
      <rect class="st9" x="78" y="36" width="6" height="6"/>
      <rect class="st11" x="84" y="36" width="6" height="6"/>
      <rect class="st17" x="90" y="36" width="6" height="6"/>
      <rect class="st11" x="96" y="36" width="6" height="6"/>
      <rect class="st9" x="102" y="36" width="6" height="6"/>
      <rect class="st9" x="114" y="36" width="6" height="6"/>
      <rect class="st14" x="120" y="36" width="6" height="6"/>
      <rect class="st9" x="126" y="36" width="6" height="6"/>
      <rect class="st11" x="132" y="36" width="6" height="6"/>
      <rect class="st11" x="138" y="36" width="6" height="6"/>
      <rect class="st11" x="144" y="36" width="6" height="6"/>
      <rect class="st9" x="150" y="36" width="6" height="6"/>
      <rect class="st14" x="156" y="36" width="6" height="6"/>
      <rect class="st9" x="162" y="36" width="6" height="6"/>
      <rect class="st9" y="42" width="6" height="6"/>
      <rect class="st11" x="6" y="42" width="6" height="6"/>
      <rect class="st6" x="12" y="42" width="6" height="6"/>
      <rect class="st8" x="18" y="42" width="6" height="6"/>
      <rect class="st9" x="24" y="42" width="6" height="6"/>
      <rect class="st9" x="78" y="42" width="6" height="6"/>
      <rect class="st11" x="84" y="42" width="6" height="6"/>
      <rect class="st5" x="90" y="42" width="6" height="6"/>
      <rect class="st11" x="96" y="42" width="6" height="6"/>
      <rect class="st9" x="102" y="42" width="6" height="6"/>
      <rect class="st9" x="120" y="42" width="6" height="6"/>
      <rect class="st11" x="126" y="42" width="6" height="6"/>
      <rect class="st11" x="132" y="42" width="6" height="6"/>
      <rect class="st11" x="138" y="42" width="6" height="6"/>
      <rect class="st11" x="144" y="42" width="6" height="6"/>
      <rect class="st11" x="150" y="42" width="6" height="6"/>
      <rect class="st9" x="156" y="42" width="6" height="6"/>
      <rect class="st9" y="48" width="6" height="6"/>
      <rect class="st11" x="6" y="48" width="6" height="6"/>
      <rect class="st6" x="12" y="48" width="6" height="6"/>
      <rect class="st12" x="18" y="48" width="6" height="6"/>
      <rect class="st8" x="24" y="48" width="6" height="6"/>
      <rect class="st9" x="30" y="48" width="6" height="6"/>
      <rect class="st9" x="72" y="48" width="6" height="6"/>
      <rect class="st8" x="78" y="48" width="6" height="6"/>
      <rect class="st12" x="84" y="48" width="6" height="6"/>
      <rect class="st5" x="90" y="48" width="6" height="6"/>
      <rect class="st11" x="96" y="48" width="6" height="6"/>
      <rect class="st9" x="102" y="48" width="6" height="6"/>
      <rect class="st9" x="114" y="48" width="6" height="6"/>
      <rect class="st11" x="120" y="48" width="6" height="6"/>
      <rect class="st22" x="126" y="48" width="6" height="6"/>
      <rect class="st22" x="132" y="48" width="6" height="6"/>
      <rect class="st22" x="138" y="48" width="6" height="6"/>
      <rect class="st22" x="144" y="48" width="6" height="6"/>
      <rect class="st22" x="150" y="48" width="6" height="6"/>
      <rect class="st11" x="156" y="48" width="6" height="6"/>
      <rect class="st9" x="162" y="48" width="6" height="6"/>
      <rect class="st9" y="54" width="6" height="6"/>
      <rect class="st9" x="6" y="54" width="6" height="6"/>
      <rect class="st11" x="12" y="54" width="6" height="6"/>
      <rect class="st6" x="18" y="54" width="6" height="6"/>
      <rect class="st12" x="24" y="54" width="6" height="6"/>
      <rect class="st8" x="30" y="54" width="6" height="6"/>
      <rect class="st9" x="36" y="54" width="6" height="6"/>
      <rect class="st9" x="42" y="54" width="6" height="6"/>
      <rect class="st9" x="60" y="54" width="6" height="6"/>
      <rect class="st9" x="66" y="54" width="6" height="6"/>
      <rect class="st8" x="72" y="54" width="6" height="6"/>
      <rect class="st12" x="78" y="54" width="6" height="6"/>
      <rect class="st5" x="84" y="54" width="6" height="6"/>
      <rect class="st11" x="90" y="54" width="6" height="6"/>
      <rect class="st9" x="96" y="54" width="6" height="6"/>
      <rect class="st9" x="102" y="54" width="6" height="6"/>
      <rect class="st9" x="108" y="54" width="6" height="6"/>
      <rect class="st14" x="114" y="54" width="6" height="6"/>
      <rect class="st22" x="120" y="54" width="6" height="6"/>
      <rect class="st0" x="126" y="54" width="6" height="6"/>
      <rect class="st0" x="132" y="54" width="6" height="6"/>
      <rect class="st0" x="138" y="54" width="6" height="6"/>
      <rect class="st20" x="144" y="54" width="6" height="6"/>
      <rect class="st20" x="150" y="54" width="6" height="6"/>
      <rect class="st22" x="156" y="54" width="6" height="6"/>
      <rect class="st9" x="162" y="54" width="6" height="6"/>
      <rect class="st11" y="60" width="6" height="6"/>
      <rect class="st9" x="6" y="60" width="6" height="6"/>
      <rect class="st11" x="12" y="60" width="6" height="6"/>
      <rect class="st19" x="18" y="60" width="6" height="6"/>
      <rect class="st19" x="24" y="60" width="6" height="6"/>
      <rect class="st12" x="30" y="60" width="6" height="6"/>
      <rect class="st8" x="36" y="60" width="6" height="6"/>
      <rect class="st8" x="42" y="60" width="6" height="6"/>
      <rect class="st9" x="48" y="60" width="6" height="6"/>
      <rect class="st9" x="54" y="60" width="6" height="6"/>
      <rect class="st8" x="60" y="60" width="6" height="6"/>
      <rect class="st8" x="66" y="60" width="6" height="6"/>
      <rect class="st12" x="72" y="60" width="6" height="6"/>
      <rect class="st2" x="78" y="60" width="6" height="6"/>
      <rect class="st2" x="84" y="60" width="6" height="6"/>
      <rect class="st11" x="90" y="60" width="6" height="6"/>
      <rect class="st9" x="96" y="60" width="6" height="6"/>
      <rect class="st11" x="102" y="60" width="6" height="6"/>
      <rect class="st25" x="108" y="60" width="6" height="6"/>
      <rect class="st22" x="114" y="60" width="6" height="6"/>
      <rect class="st0" x="120" y="60" width="6" height="6"/>
      <rect class="st0" x="126" y="60" width="6" height="6"/>
      <rect class="st0" x="132" y="60" width="6" height="6"/>
      <rect class="st0" x="138" y="60" width="6" height="6"/>
      <rect class="st20" x="144" y="60" width="6" height="6"/>
      <rect class="st20" x="150" y="60" width="6" height="6"/>
      <rect class="st20" x="156" y="60" width="6" height="6"/>
      <rect class="st22" x="162" y="60" width="6" height="6"/>
      <rect class="st9" x="168" y="60" width="6" height="6"/>
      <rect class="st9" y="66" width="6" height="6"/>
      <rect class="st11" x="6" y="66" width="6" height="6"/>
      <rect class="st11" x="12" y="66" width="6" height="6"/>
      <rect class="st11" x="18" y="66" width="6" height="6"/>
      <rect class="st19" x="24" y="66" width="6" height="6"/>
      <rect class="st8" x="30" y="66" width="6" height="6"/>
      <rect class="st8" x="36" y="66" width="6" height="6"/>
      <rect class="st13" x="42" y="66" width="6" height="6"/>
      <rect class="st8" x="48" y="66" width="6" height="6"/>
      <rect class="st8" x="54" y="66" width="6" height="6"/>
      <rect class="st17" x="60" y="66" width="6" height="6"/>
      <rect class="st8" x="66" y="66" width="6" height="6"/>
      <rect class="st8" x="72" y="66" width="6" height="6"/>
      <rect class="st2" x="78" y="66" width="6" height="6"/>
      <rect class="st11" x="84" y="66" width="6" height="6"/>
      <rect class="st11" x="90" y="66" width="6" height="6"/>
      <rect class="st11" x="96" y="66" width="6" height="6"/>
      <rect class="st9" x="102" y="66" width="6" height="6"/>
      <rect class="st22" x="108" y="66" width="6" height="6"/>
      <rect class="st0" x="114" y="66" width="6" height="6"/>
      <rect class="st20" x="120" y="66" width="6" height="6"/>
      <rect class="st11" x="126" y="66" width="6" height="6"/>
      <rect class="st0" x="132" y="66" width="6" height="6"/>
      <rect class="st0" x="138" y="66" width="6" height="6"/>
      <rect class="st20" x="144" y="66" width="6" height="6"/>
      <rect class="st11" x="150" y="66" width="6" height="6"/>
      <rect class="st0" x="156" y="66" width="6" height="6"/>
      <rect class="st20" x="162" y="66" width="6" height="6"/>
      <rect class="st22" x="168" y="66" width="6" height="6"/>
      <rect class="st9" x="174" y="66" width="6" height="6"/>
      <rect class="st9" x="6" y="72" width="6" height="6"/>
      <rect class="st11" x="12" y="72" width="6" height="6"/>
      <rect class="st16" x="18" y="72" width="6" height="6"/>
      <rect class="st8" x="24" y="72" width="6" height="6"/>
      <rect class="st19" x="30" y="72" width="6" height="6"/>
      <rect class="st19" x="36" y="72" width="6" height="6"/>
      <rect class="st6" x="42" y="72" width="6" height="6"/>
      <rect class="st13" x="48" y="72" width="6" height="6"/>
      <rect class="st17" x="54" y="72" width="6" height="6"/>
      <rect class="st5" x="60" y="72" width="6" height="6"/>
      <rect class="st2" x="66" y="72" width="6" height="6"/>
      <rect class="st2" x="72" y="72" width="6" height="6"/>
      <rect class="st8" x="78" y="72" width="6" height="6"/>
      <rect class="st16" x="84" y="72" width="6" height="6"/>
      <rect class="st11" x="90" y="72" width="6" height="6"/>
      <rect class="st9" x="96" y="72" width="6" height="6"/>
      <rect class="st9" x="102" y="72" width="6" height="6"/>
      <rect class="st22" x="108" y="72" width="6" height="6"/>
      <rect class="st0" x="114" y="72" width="6" height="6"/>
      <rect class="st0" x="120" y="72" width="6" height="6"/>
      <rect class="st0" x="126" y="72" width="6" height="6"/>
      <rect class="st0" x="132" y="72" width="6" height="6"/>
      <rect class="st0" x="138" y="72" width="6" height="6"/>
      <rect class="st20" x="144" y="72" width="6" height="6"/>
      <rect class="st20" x="150" y="72" width="6" height="6"/>
      <rect class="st20" x="156" y="72" width="6" height="6"/>
      <rect class="st20" x="162" y="72" width="6" height="6"/>
      <rect class="st22" x="168" y="72" width="6" height="6"/>
      <rect class="st9" x="174" y="72" width="6" height="6"/>
      <rect class="st9" x="6" y="78" width="6" height="6"/>
      <rect class="st19" x="12" y="78" width="6" height="6"/>
      <rect class="st11" x="18" y="78" width="6" height="6"/>
      <rect class="st19" x="24" y="78" width="6" height="6"/>
      <rect class="st10" x="30" y="78" width="6" height="6"/>
      <rect class="st19" x="36" y="78" width="6" height="6"/>
      <rect class="st13" x="42" y="78" width="6" height="6"/>
      <rect class="st6" x="48" y="78" width="6" height="6"/>
      <rect class="st5" x="54" y="78" width="6" height="6"/>
      <rect class="st17" x="60" y="78" width="6" height="6"/>
      <rect class="st2" x="66" y="78" width="6" height="6"/>
      <rect class="st10" x="72" y="78" width="6" height="6"/>
      <rect class="st2" x="78" y="78" width="6" height="6"/>
      <rect class="st11" x="84" y="78" width="6" height="6"/>
      <rect class="st2" x="90" y="78" width="6" height="6"/>
      <rect class="st9" x="96" y="78" width="6" height="6"/>
      <rect class="st9" x="102" y="78" width="6" height="6"/>
      <rect class="st22" x="108" y="78" width="6" height="6"/>
      <rect class="st20" x="114" y="78" width="6" height="6"/>
      <rect class="st11" x="120" y="78" width="6" height="6"/>
      <rect class="st0" x="126" y="78" width="6" height="6"/>
      <rect class="st0" x="132" y="78" width="6" height="6"/>
      <rect class="st11" x="138" y="78" width="6" height="6"/>
      <rect class="st20" x="144" y="78" width="6" height="6"/>
      <rect class="st20" x="150" y="78" width="6" height="6"/>
      <rect class="st11" x="156" y="78" width="6" height="6"/>
      <rect class="st0" x="162" y="78" width="6" height="6"/>
      <rect class="st22" x="168" y="78" width="6" height="6"/>
      <rect class="st9" x="174" y="78" width="6" height="6"/>
      <rect class="st9" x="12" y="84" width="6" height="6"/>
      <rect class="st11" x="18" y="84" width="6" height="6"/>
      <rect class="st19" x="24" y="84" width="6" height="6"/>
      <rect class="st19" x="30" y="84" width="6" height="6"/>
      <rect class="st19" x="36" y="84" width="6" height="6"/>
      <rect class="st8" x="42" y="84" width="6" height="6"/>
      <rect class="st8" x="48" y="84" width="6" height="6"/>
      <rect class="st8" x="54" y="84" width="6" height="6"/>
      <rect class="st8" x="60" y="84" width="6" height="6"/>
      <rect class="st2" x="66" y="84" width="6" height="6"/>
      <rect class="st2" x="72" y="84" width="6" height="6"/>
      <rect class="st2" x="78" y="84" width="6" height="6"/>
      <rect class="st11" x="84" y="84" width="6" height="6"/>
      <rect class="st9" x="90" y="84" width="6" height="6"/>
      <rect class="st9" x="102" y="84" width="6" height="6"/>
      <rect class="st22" x="108" y="84" width="6" height="6"/>
      <rect class="st0" x="114" y="84" width="6" height="6"/>
      <rect class="st0" x="120" y="84" width="6" height="6"/>
      <rect class="st0" x="126" y="84" width="6" height="6"/>
      <rect class="st0" x="132" y="84" width="6" height="6"/>
      <rect class="st20" x="138" y="84" width="6" height="6"/>
      <rect class="st20" x="144" y="84" width="6" height="6"/>
      <rect class="st20" x="150" y="84" width="6" height="6"/>
      <rect class="st20" x="156" y="84" width="6" height="6"/>
      <rect class="st20" x="162" y="84" width="6" height="6"/>
      <rect class="st22" x="168" y="84" width="6" height="6"/>
      <rect class="st9" x="174" y="84" width="6" height="6"/>
      <rect class="st9" x="18" y="90" width="6" height="6"/>
      <rect class="st8" x="24" y="90" width="6" height="6"/>
      <rect class="st8" x="30" y="90" width="6" height="6"/>
      <rect class="st8" x="36" y="90" width="6" height="6"/>
      <rect class="st6" x="42" y="90" width="6" height="6"/>
      <rect class="st11" x="48" y="90" width="6" height="6"/>
      <rect class="st19" x="54" y="90" width="6" height="6"/>
      <rect class="st5" x="60" y="90" width="6" height="6"/>
      <rect class="st8" x="66" y="90" width="6" height="6"/>
      <rect class="st8" x="72" y="90" width="6" height="6"/>
      <rect class="st8" x="78" y="90" width="6" height="6"/>
      <rect class="st9" x="84" y="90" width="6" height="6"/>
      <rect class="st9" x="102" y="90" width="6" height="6"/>
      <rect class="st22" x="108" y="90" width="6" height="6"/>
      <rect class="st0" x="114" y="90" width="6" height="6"/>
      <rect class="st20" x="120" y="90" width="6" height="6"/>
      <rect class="st11" x="126" y="90" width="6" height="6"/>
      <rect class="st0" x="132" y="90" width="6" height="6"/>
      <rect class="st20" x="138" y="90" width="6" height="6"/>
      <rect class="st20" x="144" y="90" width="6" height="6"/>
      <rect class="st11" x="150" y="90" width="6" height="6"/>
      <rect class="st0" x="156" y="90" width="6" height="6"/>
      <rect class="st20" x="162" y="90" width="6" height="6"/>
      <rect class="st22" x="168" y="90" width="6" height="6"/>
      <rect class="st9" x="174" y="90" width="6" height="6"/>
      <rect class="st9" x="12" y="96" width="6" height="6"/>
      <rect class="st11" x="18" y="96" width="6" height="6"/>
      <rect class="st19" x="24" y="96" width="6" height="6"/>
      <rect class="st11" x="30" y="96" width="6" height="6"/>
      <rect class="st6" x="36" y="96" width="6" height="6"/>
      <rect class="st11" x="42" y="96" width="6" height="6"/>
      <rect class="st6" x="48" y="96" width="6" height="6"/>
      <rect class="st5" x="54" y="96" width="6" height="6"/>
      <rect class="st15" x="60" y="96" width="6" height="6"/>
      <rect class="st5" x="66" y="96" width="6" height="6"/>
      <rect class="st15" x="72" y="96" width="6" height="6"/>
      <rect class="st2" x="78" y="96" width="6" height="6"/>
      <rect class="st11" x="84" y="96" width="6" height="6"/>
      <rect class="st9" x="90" y="96" width="6" height="6"/>
      <rect class="st9" x="108" y="96" width="6" height="6"/>
      <rect class="st22" x="114" y="96" width="6" height="6"/>
      <rect class="st0" x="120" y="96" width="6" height="6"/>
      <rect class="st0" x="126" y="96" width="6" height="6"/>
      <rect class="st0" x="132" y="96" width="6" height="6"/>
      <rect class="st20" x="138" y="96" width="6" height="6"/>
      <rect class="st20" x="144" y="96" width="6" height="6"/>
      <rect class="st20" x="150" y="96" width="6" height="6"/>
      <rect class="st20" x="156" y="96" width="6" height="6"/>
      <rect class="st22" x="162" y="96" width="6" height="6"/>
      <rect class="st9" x="168" y="96" width="6" height="6"/>
      <rect class="st9" x="12" y="102" width="6" height="6"/>
      <rect class="st11" x="18" y="102" width="6" height="6"/>
      <rect class="st11" x="24" y="102" width="6" height="6"/>
      <rect class="st19" x="30" y="102" width="6" height="6"/>
      <rect class="st4" x="36" y="102" width="6" height="6"/>
      <rect class="st13" x="42" y="102" width="6" height="6"/>
      <rect class="st19" x="48" y="102" width="6" height="6"/>
      <rect class="st2" x="54" y="102" width="6" height="6"/>
      <rect class="st17" x="60" y="102" width="6" height="6"/>
      <rect class="st4" x="66" y="102" width="6" height="6"/>
      <rect class="st2" x="72" y="102" width="6" height="6"/>
      <rect class="st15" x="78" y="102" width="6" height="6"/>
      <rect class="st11" x="84" y="102" width="6" height="6"/>
      <rect class="st9" x="90" y="102" width="6" height="6"/>
      <rect class="st9" x="114" y="102" width="6" height="6"/>
      <rect class="st22" x="120" y="102" width="6" height="6"/>
      <rect class="st0" x="126" y="102" width="6" height="6"/>
      <rect class="st0" x="132" y="102" width="6" height="6"/>
      <rect class="st20" x="138" y="102" width="6" height="6"/>
      <rect class="st20" x="144" y="102" width="6" height="6"/>
      <rect class="st20" x="150" y="102" width="6" height="6"/>
      <rect class="st22" x="156" y="102" width="6" height="6"/>
      <rect class="st9" x="162" y="102" width="6" height="6"/>
      <rect class="st9" x="12" y="108" width="6" height="6"/>
      <rect class="st11" x="18" y="108" width="6" height="6"/>
      <rect class="st11" x="24" y="108" width="6" height="6"/>
      <rect class="st11" x="30" y="108" width="6" height="6"/>
      <rect class="st19" x="36" y="108" width="6" height="6"/>
      <rect class="st19" x="42" y="108" width="6" height="6"/>
      <rect class="st19" x="48" y="108" width="6" height="6"/>
      <rect class="st2" x="54" y="108" width="6" height="6"/>
      <rect class="st2" x="60" y="108" width="6" height="6"/>
      <rect class="st2" x="66" y="108" width="6" height="6"/>
      <rect class="st15" x="72" y="108" width="6" height="6"/>
      <rect class="st15" x="78" y="108" width="6" height="6"/>
      <rect class="st11" x="84" y="108" width="6" height="6"/>
      <rect class="st9" x="90" y="108" width="6" height="6"/>
      <rect class="st9" x="96" y="108" width="6" height="6"/>
      <rect class="st9" x="102" y="108" width="6" height="6"/>
      <rect class="st9" x="108" y="108" width="6" height="6"/>
      <rect class="st9" x="114" y="108" width="6" height="6"/>
      <rect class="st9" x="120" y="108" width="6" height="6"/>
      <rect class="st22" x="126" y="108" width="6" height="6"/>
      <rect class="st22" x="132" y="108" width="6" height="6"/>
      <rect class="st22" x="138" y="108" width="6" height="6"/>
      <rect class="st22" x="144" y="108" width="6" height="6"/>
      <rect class="st22" x="150" y="108" width="6" height="6"/>
      <rect class="st9" x="156" y="108" width="6" height="6"/>
      <rect class="st9" x="162" y="108" width="6" height="6"/>
      <rect class="st9" x="168" y="108" width="6" height="6"/>
      <rect class="st9" x="174" y="108" width="6" height="6"/>
      <rect class="st9" x="180" y="108" width="6" height="6"/>
      <rect class="st9" x="18" y="114" width="6" height="6"/>
      <rect class="st11" x="24" y="114" width="6" height="6"/>
      <rect class="st11" x="30" y="114" width="6" height="6"/>
      <rect class="st11" x="36" y="114" width="6" height="6"/>
      <rect class="st11" x="42" y="114" width="6" height="6"/>
      <rect class="st11" x="48" y="114" width="6" height="6"/>
      <rect class="st15" x="54" y="114" width="6" height="6"/>
      <rect class="st15" x="60" y="114" width="6" height="6"/>
      <rect class="st15" x="66" y="114" width="6" height="6"/>
      <rect class="st15" x="72" y="114" width="6" height="6"/>
      <rect class="st11" x="78" y="114" width="6" height="6"/>
      <rect class="st9" x="84" y="114" width="6" height="6"/>
      <rect class="st24" x="96" y="114" width="6" height="6"/>
      <rect class="st24" x="102" y="114" width="6" height="6"/>
      <rect class="st24" x="108" y="114" width="6" height="6"/>
      <rect class="st24" x="114" y="114" width="6" height="6"/>
      <rect class="st9" x="120" y="114" width="6" height="6"/>
      <rect class="st9" x="126" y="114" width="6" height="6"/>
      <rect class="st9" x="132" y="114" width="6" height="6"/>
      <rect class="st9" x="138" y="114" width="6" height="6"/>
      <rect class="st9" x="144" y="114" width="6" height="6"/>
      <rect class="st9" x="150" y="114" width="6" height="6"/>
      <rect class="st9" x="156" y="114" width="6" height="6"/>
      <rect class="st24" x="162" y="114" width="6" height="6"/>
      <rect class="st24" x="168" y="114" width="6" height="6"/>
      <rect class="st24" x="174" y="114" width="6" height="6"/>
      <rect class="st24" x="180" y="114" width="6" height="6"/>
      <rect class="st9" x="186" y="114" width="6" height="6"/>
      <rect class="st9" x="12" y="120" width="6" height="6"/>
      <rect class="st11" x="18" y="120" width="6" height="6"/>
      <rect class="st19" x="24" y="120" width="6" height="6"/>
      <rect class="st8" x="30" y="120" width="6" height="6"/>
      <rect class="st8" x="36" y="120" width="6" height="6"/>
      <rect class="st8" x="42" y="120" width="6" height="6"/>
      <rect class="st8" x="48" y="120" width="6" height="6"/>
      <rect class="st8" x="54" y="120" width="6" height="6"/>
      <rect class="st8" x="60" y="120" width="6" height="6"/>
      <rect class="st8" x="66" y="120" width="6" height="6"/>
      <rect class="st8" x="72" y="120" width="6" height="6"/>
      <rect class="st2" x="78" y="120" width="6" height="6"/>
      <rect class="st11" x="84" y="120" width="6" height="6"/>
      <rect class="st9" x="90" y="120" width="6" height="6"/>
      <rect class="st24" x="96" y="120" width="6" height="6"/>
      <rect class="st23" x="102" y="120" width="6" height="6"/>
      <rect class="st24" x="108" y="120" width="6" height="6"/>
      <rect class="st1" x="114" y="120" width="6" height="6"/>
      <rect class="st24" x="120" y="120" width="6" height="6"/>
      <rect class="st24" x="126" y="120" width="6" height="6"/>
      <rect class="st9" x="132" y="120" width="6" height="6"/>
      <rect class="st9" x="144" y="120" width="6" height="6"/>
      <rect class="st24" x="150" y="120" width="6" height="6"/>
      <rect class="st24" x="156" y="120" width="6" height="6"/>
      <rect class="st1" x="162" y="120" width="6" height="6"/>
      <rect class="st24" x="168" y="120" width="6" height="6"/>
      <rect class="st23" x="174" y="120" width="6" height="6"/>
      <rect class="st24" x="180" y="120" width="6" height="6"/>
      <rect class="st9" x="186" y="120" width="6" height="6"/>
      <rect class="st9" x="12" y="126" width="6" height="6"/>
      <rect class="st11" x="18" y="126" width="6" height="6"/>
      <rect class="st19" x="24" y="126" width="6" height="6"/>
      <rect class="st4" x="30" y="126" width="6" height="6"/>
      <rect class="st13" x="36" y="126" width="6" height="6"/>
      <rect class="st8" x="42" y="126" width="6" height="6"/>
      <rect class="st19" x="48" y="126" width="6" height="6"/>
      <rect class="st2" x="54" y="126" width="6" height="6"/>
      <rect class="st8" x="60" y="126" width="6" height="6"/>
      <rect class="st17" x="66" y="126" width="6" height="6"/>
      <rect class="st4" x="72" y="126" width="6" height="6"/>
      <rect class="st2" x="78" y="126" width="6" height="6"/>
      <rect class="st11" x="84" y="126" width="6" height="6"/>
      <rect class="st9" x="90" y="126" width="6" height="6"/>
      <rect class="st24" x="96" y="126" width="6" height="6"/>
      <rect class="st24" x="102" y="126" width="6" height="6"/>
      <rect class="st23" x="108" y="126" width="6" height="6"/>
      <rect class="st1" x="114" y="126" width="6" height="6"/>
      <rect class="st1" x="120" y="126" width="6" height="6"/>
      <rect class="st1" x="126" y="126" width="6" height="6"/>
      <rect class="st24" x="132" y="126" width="6" height="6"/>
      <rect class="st9" x="138" y="126" width="6" height="6"/>
      <rect class="st24" x="144" y="126" width="6" height="6"/>
      <rect class="st1" x="150" y="126" width="6" height="6"/>
      <rect class="st1" x="156" y="126" width="6" height="6"/>
      <rect class="st1" x="162" y="126" width="6" height="6"/>
      <rect class="st23" x="168" y="126" width="6" height="6"/>
      <rect class="st24" x="174" y="126" width="6" height="6"/>
      <rect class="st24" x="180" y="126" width="6" height="6"/>
      <rect class="st9" x="186" y="126" width="6" height="6"/>
      <rect class="st9" x="12" y="132" width="6" height="6"/>
      <rect class="st11" x="18" y="132" width="6" height="6"/>
      <rect class="st4" x="24" y="132" width="6" height="6"/>
      <rect class="st13" x="30" y="132" width="6" height="6"/>
      <rect class="st17" x="36" y="132" width="6" height="6"/>
      <rect class="st13" x="42" y="132" width="6" height="6"/>
      <rect class="st8" x="48" y="132" width="6" height="6"/>
      <rect class="st8" x="54" y="132" width="6" height="6"/>
      <rect class="st17" x="60" y="132" width="6" height="6"/>
      <rect class="st17" x="66" y="132" width="6" height="6"/>
      <rect class="st17" x="72" y="132" width="6" height="6"/>
      <rect class="st4" x="78" y="132" width="6" height="6"/>
      <rect class="st11" x="84" y="132" width="6" height="6"/>
      <rect class="st9" x="90" y="132" width="6" height="6"/>
      <rect class="st24" x="96" y="132" width="6" height="6"/>
      <rect class="st18" x="102" y="132" width="6" height="6"/>
      <rect class="st1" x="108" y="132" width="6" height="6"/>
      <rect class="st3" x="114" y="132" width="6" height="6"/>
      <rect class="st3" x="120" y="132" width="6" height="6"/>
      <rect class="st1" x="126" y="132" width="6" height="6"/>
      <rect class="st1" x="132" y="132" width="6" height="6"/>
      <rect class="st24" x="138" y="132" width="6" height="6"/>
      <rect class="st1" x="144" y="132" width="6" height="6"/>
      <rect class="st1" x="150" y="132" width="6" height="6"/>
      <rect class="st3" x="156" y="132" width="6" height="6"/>
      <rect class="st3" x="162" y="132" width="6" height="6"/>
      <rect class="st1" x="168" y="132" width="6" height="6"/>
      <rect class="st18" x="174" y="132" width="6" height="6"/>
      <rect class="st24" x="180" y="132" width="6" height="6"/>
      <rect class="st9" x="186" y="132" width="6" height="6"/>
      <rect class="st9" x="12" y="138" width="6" height="6"/>
      <rect class="st11" x="18" y="138" width="6" height="6"/>
      <rect class="st19" x="24" y="138" width="6" height="6"/>
      <rect class="st13" x="30" y="138" width="6" height="6"/>
      <rect class="st17" x="36" y="138" width="6" height="6"/>
      <rect class="st13" x="42" y="138" width="6" height="6"/>
      <rect class="st13" x="48" y="138" width="6" height="6"/>
      <rect class="st17" x="54" y="138" width="6" height="6"/>
      <rect class="st17" x="60" y="138" width="6" height="6"/>
      <rect class="st17" x="66" y="138" width="6" height="6"/>
      <rect class="st17" x="72" y="138" width="6" height="6"/>
      <rect class="st2" x="78" y="138" width="6" height="6"/>
      <rect class="st11" x="84" y="138" width="6" height="6"/>
      <rect class="st9" x="90" y="138" width="6" height="6"/>
      <rect class="st9" x="96" y="138" width="6" height="6"/>
      <rect class="st24" x="102" y="138" width="6" height="6"/>
      <rect class="st1" x="108" y="138" width="6" height="6"/>
      <rect class="st1" x="114" y="138" width="6" height="6"/>
      <rect class="st1" x="120" y="138" width="6" height="6"/>
      <rect class="st7" x="126" y="138" width="6" height="6"/>
      <rect class="st3" x="132" y="138" width="6" height="6"/>
      <rect class="st24" x="138" y="138" width="6" height="6"/>
      <rect class="st3" x="144" y="138" width="6" height="6"/>
      <rect class="st7" x="150" y="138" width="6" height="6"/>
      <rect class="st1" x="156" y="138" width="6" height="6"/>
      <rect class="st1" x="162" y="138" width="6" height="6"/>
      <rect class="st1" x="168" y="138" width="6" height="6"/>
      <rect class="st24" x="174" y="138" width="6" height="6"/>
      <rect class="st9" x="180" y="138" width="6" height="6"/>
      <rect class="st9" x="12" y="144" width="6" height="6"/>
      <rect class="st11" x="18" y="144" width="6" height="6"/>
      <rect class="st19" x="24" y="144" width="6" height="6"/>
      <rect class="st13" x="30" y="144" width="6" height="6"/>
      <rect class="st17" x="36" y="144" width="6" height="6"/>
      <rect class="st13" x="42" y="144" width="6" height="6"/>
      <rect class="st13" x="48" y="144" width="6" height="6"/>
      <rect class="st17" x="54" y="144" width="6" height="6"/>
      <rect class="st17" x="60" y="144" width="6" height="6"/>
      <rect class="st17" x="66" y="144" width="6" height="6"/>
      <rect class="st17" x="72" y="144" width="6" height="6"/>
      <rect class="st2" x="78" y="144" width="6" height="6"/>
      <rect class="st11" x="84" y="144" width="6" height="6"/>
      <rect class="st9" x="90" y="144" width="6" height="6"/>
      <rect class="st9" x="96" y="144" width="6" height="6"/>
      <rect class="st24" x="102" y="144" width="6" height="6"/>
      <rect class="st1" x="108" y="144" width="6" height="6"/>
      <rect class="st1" x="114" y="144" width="6" height="6"/>
      <rect class="st1" x="120" y="144" width="6" height="6"/>
      <rect class="st24" x="126" y="144" width="6" height="6"/>
      <rect class="st7" x="132" y="144" width="6" height="6"/>
      <rect class="st24" x="138" y="144" width="6" height="6"/>
      <rect class="st7" x="144" y="144" width="6" height="6"/>
      <rect class="st24" x="150" y="144" width="6" height="6"/>
      <rect class="st1" x="156" y="144" width="6" height="6"/>
      <rect class="st1" x="162" y="144" width="6" height="6"/>
      <rect class="st1" x="168" y="144" width="6" height="6"/>
      <rect class="st24" x="174" y="144" width="6" height="6"/>
      <rect class="st9" x="180" y="144" width="6" height="6"/>
      <rect class="st9" x="12" y="150" width="6" height="6"/>
      <rect class="st11" x="18" y="150" width="6" height="6"/>
      <rect class="st19" x="24" y="150" width="6" height="6"/>
      <rect class="st13" x="30" y="150" width="6" height="6"/>
      <rect class="st13" x="36" y="150" width="6" height="6"/>
      <rect class="st17" x="42" y="150" width="6" height="6"/>
      <rect class="st17" x="48" y="150" width="6" height="6"/>
      <rect class="st17" x="54" y="150" width="6" height="6"/>
      <rect class="st17" x="60" y="150" width="6" height="6"/>
      <rect class="st17" x="66" y="150" width="6" height="6"/>
      <rect class="st17" x="72" y="150" width="6" height="6"/>
      <rect class="st2" x="78" y="150" width="6" height="6"/>
      <rect class="st11" x="84" y="150" width="6" height="6"/>
      <rect class="st9" x="90" y="150" width="6" height="6"/>
      <rect class="st9" x="102" y="150" width="6" height="6"/>
      <rect class="st24" x="108" y="150" width="6" height="6"/>
      <rect class="st3" x="114" y="150" width="6" height="6"/>
      <rect class="st24" x="120" y="150" width="6" height="6"/>
      <rect class="st1" x="126" y="150" width="6" height="6"/>
      <rect class="st7" x="132" y="150" width="6" height="6"/>
      <rect class="st24" x="138" y="150" width="6" height="6"/>
      <rect class="st7" x="144" y="150" width="6" height="6"/>
      <rect class="st1" x="150" y="150" width="6" height="6"/>
      <rect class="st24" x="156" y="150" width="6" height="6"/>
      <rect class="st3" x="162" y="150" width="6" height="6"/>
      <rect class="st24" x="168" y="150" width="6" height="6"/>
      <rect class="st9" x="174" y="150" width="6" height="6"/>
      <rect class="st9" x="12" y="156" width="6" height="6"/>
      <rect class="st11" x="18" y="156" width="6" height="6"/>
      <rect class="st19" x="24" y="156" width="6" height="6"/>
      <rect class="st19" x="30" y="156" width="6" height="6"/>
      <rect class="st13" x="36" y="156" width="6" height="6"/>
      <rect class="st13" x="42" y="156" width="6" height="6"/>
      <rect class="st13" x="48" y="156" width="6" height="6"/>
      <rect class="st17" x="54" y="156" width="6" height="6"/>
      <rect class="st17" x="60" y="156" width="6" height="6"/>
      <rect class="st17" x="66" y="156" width="6" height="6"/>
      <rect class="st2" x="72" y="156" width="6" height="6"/>
      <rect class="st2" x="78" y="156" width="6" height="6"/>
      <rect class="st11" x="84" y="156" width="6" height="6"/>
      <rect class="st9" x="90" y="156" width="6" height="6"/>
      <rect class="st9" x="96" y="156" width="6" height="6"/>
      <rect class="st24" x="102" y="156" width="6" height="6"/>
      <rect class="st23" x="108" y="156" width="6" height="6"/>
      <rect class="st1" x="114" y="156" width="6" height="6"/>
      <rect class="st7" x="120" y="156" width="6" height="6"/>
      <rect class="st24" x="126" y="156" width="6" height="6"/>
      <rect class="st18" x="132" y="156" width="6" height="6"/>
      <rect class="st24" x="138" y="156" width="6" height="6"/>
      <rect class="st18" x="144" y="156" width="6" height="6"/>
      <rect class="st24" x="150" y="156" width="6" height="6"/>
      <rect class="st7" x="156" y="156" width="6" height="6"/>
      <rect class="st1" x="162" y="156" width="6" height="6"/>
      <rect class="st23" x="168" y="156" width="6" height="6"/>
      <rect class="st24" x="174" y="156" width="6" height="6"/>
      <rect class="st9" x="180" y="156" width="6" height="6"/>
      <rect class="st9" x="18" y="162" width="6" height="6"/>
      <rect class="st11" x="24" y="162" width="6" height="6"/>
      <rect class="st19" x="30" y="162" width="6" height="6"/>
      <rect class="st19" x="36" y="162" width="6" height="6"/>
      <rect class="st13" x="42" y="162" width="6" height="6"/>
      <rect class="st13" x="48" y="162" width="6" height="6"/>
      <rect class="st17" x="54" y="162" width="6" height="6"/>
      <rect class="st17" x="60" y="162" width="6" height="6"/>
      <rect class="st2" x="66" y="162" width="6" height="6"/>
      <rect class="st2" x="72" y="162" width="6" height="6"/>
      <rect class="st11" x="78" y="162" width="6" height="6"/>
      <rect class="st9" x="84" y="162" width="6" height="6"/>
      <rect class="st9" x="96" y="162" width="6" height="6"/>
      <rect class="st24" x="102" y="162" width="6" height="6"/>
      <rect class="st23" x="108" y="162" width="6" height="6"/>
      <rect class="st24" x="114" y="162" width="6" height="6"/>
      <rect class="st23" x="120" y="162" width="6" height="6"/>
      <rect class="st1" x="126" y="162" width="6" height="6"/>
      <rect class="st24" x="132" y="162" width="6" height="6"/>
      <rect class="st9" x="138" y="162" width="6" height="6"/>
      <rect class="st24" x="144" y="162" width="6" height="6"/>
      <rect class="st1" x="150" y="162" width="6" height="6"/>
      <rect class="st23" x="156" y="162" width="6" height="6"/>
      <rect class="st24" x="162" y="162" width="6" height="6"/>
      <rect class="st23" x="168" y="162" width="6" height="6"/>
      <rect class="st24" x="174" y="162" width="6" height="6"/>
      <rect class="st9" x="180" y="162" width="6" height="6"/>
      <rect class="st9" x="18" y="168" width="6" height="6"/>
      <rect class="st11" x="24" y="168" width="6" height="6"/>
      <rect class="st19" x="30" y="168" width="6" height="6"/>
      <rect class="st19" x="36" y="168" width="6" height="6"/>
      <rect class="st19" x="42" y="168" width="6" height="6"/>
      <rect class="st19" x="48" y="168" width="6" height="6"/>
      <rect class="st2" x="54" y="168" width="6" height="6"/>
      <rect class="st2" x="60" y="168" width="6" height="6"/>
      <rect class="st2" x="66" y="168" width="6" height="6"/>
      <rect class="st15" x="72" y="168" width="6" height="6"/>
      <rect class="st11" x="78" y="168" width="6" height="6"/>
      <rect class="st9" x="84" y="168" width="6" height="6"/>
      <rect class="st9" x="96" y="168" width="6" height="6"/>
      <rect class="st24" x="102" y="168" width="6" height="6"/>
      <rect class="st24" x="108" y="168" width="6" height="6"/>
      <rect class="st1" x="114" y="168" width="6" height="6"/>
      <rect class="st1" x="120" y="168" width="6" height="6"/>
      <rect class="st1" x="126" y="168" width="6" height="6"/>
      <rect class="st24" x="132" y="168" width="6" height="6"/>
      <rect class="st9" x="138" y="168" width="6" height="6"/>
      <rect class="st24" x="144" y="168" width="6" height="6"/>
      <rect class="st1" x="150" y="168" width="6" height="6"/>
      <rect class="st1" x="156" y="168" width="6" height="6"/>
      <rect class="st1" x="162" y="168" width="6" height="6"/>
      <rect class="st24" x="168" y="168" width="6" height="6"/>
      <rect class="st24" x="174" y="168" width="6" height="6"/>
      <rect class="st9" x="180" y="168" width="6" height="6"/>
      <rect class="st9" x="24" y="174" width="6" height="6"/>
      <rect class="st11" x="30" y="174" width="6" height="6"/>
      <rect class="st15" x="36" y="174" width="6" height="6"/>
      <rect class="st15" x="42" y="174" width="6" height="6"/>
      <rect class="st15" x="48" y="174" width="6" height="6"/>
      <rect class="st15" x="54" y="174" width="6" height="6"/>
      <rect class="st15" x="60" y="174" width="6" height="6"/>
      <rect class="st15" x="66" y="174" width="6" height="6"/>
      <rect class="st11" x="72" y="174" width="6" height="6"/>
      <rect class="st9" x="78" y="174" width="6" height="6"/>
      <rect class="st9" x="102" y="174" width="6" height="6"/>
      <rect class="st24" x="108" y="174" width="6" height="6"/>
      <rect class="st24" x="114" y="174" width="6" height="6"/>
      <rect class="st24" x="120" y="174" width="6" height="6"/>
      <rect class="st24" x="126" y="174" width="6" height="6"/>
      <rect class="st9" x="132" y="174" width="6" height="6"/>
      <rect class="st9" x="144" y="174" width="6" height="6"/>
      <rect class="st24" x="150" y="174" width="6" height="6"/>
      <rect class="st24" x="156" y="174" width="6" height="6"/>
      <rect class="st24" x="162" y="174" width="6" height="6"/>
      <rect class="st24" x="168" y="174" width="6" height="6"/>
      <rect class="st9" x="174" y="174" width="6" height="6"/>
      <rect class="st9" x="30" y="180" width="6" height="6"/>
      <rect class="st11" x="36" y="180" width="6" height="6"/>
      <rect class="st11" x="42" y="180" width="6" height="6"/>
      <rect class="st11" x="48" y="180" width="6" height="6"/>
      <rect class="st11" x="54" y="180" width="6" height="6"/>
      <rect class="st11" x="60" y="180" width="6" height="6"/>
      <rect class="st11" x="66" y="180" width="6" height="6"/>
      <rect class="st9" x="72" y="180" width="6" height="6"/>
      <rect class="st9" x="96" y="180" width="6" height="6"/>
      <rect class="st21" x="102" y="180" width="6" height="6"/>
      <rect class="st9" x="108" y="180" width="6" height="6"/>
      <rect class="st9" x="114" y="180" width="6" height="6"/>
      <rect class="st9" x="120" y="180" width="6" height="6"/>
      <rect class="st9" x="126" y="180" width="6" height="6"/>
      <rect class="st9" x="150" y="180" width="6" height="6"/>
      <rect class="st9" x="156" y="180" width="6" height="6"/>
      <rect class="st9" x="162" y="180" width="6" height="6"/>
      <rect class="st9" x="168" y="180" width="6" height="6"/>
      <rect class="st21" x="174" y="180" width="6" height="6"/>
      <rect class="st9" x="180" y="180" width="6" height="6"/>
      <rect class="st9" x="36" y="186" width="6" height="6"/>
      <rect class="st9" x="42" y="186" width="6" height="6"/>
      <rect class="st9" x="48" y="186" width="6" height="6"/>
      <rect class="st9" x="54" y="186" width="6" height="6"/>
      <rect class="st9" x="60" y="186" width="6" height="6"/>
      <rect class="st9" x="66" y="186" width="6" height="6"/>
      <rect class="st9" x="102" y="186" width="6" height="6"/>
      <rect class="st9" x="174" y="186" width="6" height="6"/>
    </g>
  </g>
</svg>