<?xml version="1.0" encoding="UTF-8"?><svg id="Layer_1" xmlns="http://www.w3.org/2000/svg" viewBox="0 0 500 430"><defs><style>.cls-1,.cls-2{stroke:#914938;stroke-miterlimit:10;stroke-width:2px;}.cls-1,.cls-3{fill:#914938;}.cls-4{fill:#f4ebd4;font-family:Roboto-Bold, Roboto;font-size:20.36px;font-weight:700;}.cls-2{fill:none;}.cls-3{stroke-width:0px;}</style></defs><path class="cls-3" d="m217.5,65.65c-.72,4.32-5.04,6.12-11.88,6.48-3.96,20.16-10.44,55.08-14.76,76.68,16.2-1.8,30.96-3.24,39.96-3.24,54.72-.72,73.44,35.64,73.44,89.64,0,27-5.04,59.04-12.24,80.64-11.16,36.72-34.2,54.36-64.08,54.36-14.76,0-34.2-6.12-65.16-31.32,3.96-6.48,6.84-14.4,9.72-21.96,28.8,22.32,43.92,27.36,55.08,27.36,20.52,0,32.76-12.96,39.96-36,7.56-22.32,11.52-55.44,11.52-73.8-.36-41.04-13.68-65.52-49.68-65.16-10.8,0-25.56,1.44-43.92,3.6-18,73.44-39.24,136.44-73.8,194.4l-23.76-11.52c34.92-55.8,54.72-111.6,71.64-180-18.36,2.16-44.64,5.4-64.08,8.64l-2.16-25.2c17.64-2.16,47.16-5.4,71.28-8.28,5.4-26.28,11.16-58.68,15.48-90.36l37.44,5.04Zm166.68,173.16c-11.52-52.56-45.72-97.2-81-123.12l19.44-15.12c38.16,27,75.96,76.68,87.48,128.16l-25.92,10.08Z"/><path class="cls-2" d="m93.3,145.25s124.76-12.03,131.29-12.57"/><path class="cls-2" d="m218.62,76.13s-23.81,119.17-32.8,148.45"/><path class="cls-2" d="m333.02,92.98s49.62,33.9,76.03,93.98"/><polygon class="cls-1" points="222.84 132.68 222.69 127.94 228.62 130.12 234.56 132.3 228.78 134.87 223 137.43 222.84 132.68"/><polygon class="cls-1" points="187.32 219.7 191.85 221.13 187.83 226 183.81 230.88 183.3 224.58 182.79 218.28 187.32 219.7"/><polygon class="cls-1" points="407.41 183.31 411.76 181.41 411.93 187.73 412.11 194.05 407.58 189.63 403.06 185.22 407.41 183.31"/><circle class="cls-1" cx="106.87" cy="114.67" r="16.1"/><text class="cls-4" transform="translate(101.03 121.97)"><tspan x="0" y="0">1</tspan></text><circle class="cls-1" cx="244.11" cy="87.98" r="16.1"/><text class="cls-4" transform="translate(238.27 95.29)"><tspan x="0" y="0">2</tspan></text><circle class="cls-1" cx="357.64" cy="75.88" r="16.1"/><text class="cls-4" transform="translate(351.8 83.19)"><tspan x="0" y="0">3</tspan></text></svg>