<?xml version="1.0" encoding="UTF-8"?><svg id="Layer_1" xmlns="http://www.w3.org/2000/svg" viewBox="0 0 500 430"><defs><style>.cls-1,.cls-2{stroke:#914938;stroke-miterlimit:10;stroke-width:2px;}.cls-1,.cls-3{fill:#914938;}.cls-4{fill:#f4ebd4;font-family:Roboto-Bold, Roboto;font-size:20.36px;font-weight:700;}.cls-2{fill:none;}.cls-3{stroke-width:0px;}</style></defs><path class="cls-3" d="m394,111.62c-.72,1.44-2.88,2.52-4.68,3.24-19.44,46.08-50.4,86.04-85.32,115.2-5.4-4.68-15.48-11.16-21.96-14.76,33.12-24.12,59.76-59.04,71.64-89.28H95.92v-24.48h271.44l3.96-1.8,22.68,11.88Zm-140.4,65.52c-.36,2.88-3.6,5.4-8.28,6.12-10.44,84.96-39.6,165.96-113.76,208.8-5.04-4.32-14.4-12.6-21.24-16.56,73.44-40.32,99.72-115.56,108.36-202.32l34.92,3.96Z"/><line class="cls-2" x1="95.92" y1="84.48" x2="221.76" y2="84.48"/><polygon class="cls-1" points="219.73 84.48 219.79 79.73 225.62 82.18 231.45 84.64 225.56 86.93 219.67 89.23 219.73 84.48"/><path class="cls-2" d="m405.41,123.72s-16.46,39.07-41.72,66.26"/><polygon class="cls-1" points="365.22 188.24 368.17 191.97 362.1 193.74 356.03 195.52 359.15 190.02 362.27 184.52 365.22 188.24"/><path class="cls-2" d="m199.43,198.89s-12.46,83.93-51.12,125.95"/><polygon class="cls-1" points="150.88 321.97 154.14 325.42 148.26 327.72 142.37 330.03 144.99 324.28 147.61 318.52 150.88 321.97"/><circle class="cls-1" cx="110.69" cy="54.04" r="16.1"/><text class="cls-4" transform="translate(104.85 61.34)"><tspan x="0" y="0">1</tspan></text><circle class="cls-1" cx="176.55" cy="176.83" r="16.1"/><text class="cls-4" transform="translate(170.71 184.14)"><tspan x="0" y="0">2</tspan></text></svg>