<?xml version="1.0" encoding="UTF-8"?><svg id="Layer_1" xmlns="http://www.w3.org/2000/svg" viewBox="0 0 500 430"><defs><style>.cls-1,.cls-2{stroke:#914938;stroke-miterlimit:10;stroke-width:2px;}.cls-1,.cls-3{fill:#914938;}.cls-4{fill:#f4ebd4;font-family:Roboto-Bold, Roboto;font-size:20.36px;font-weight:700;}.cls-2{fill:none;}.cls-3{stroke-width:0px;}</style></defs><path class="cls-3" d="m203.92,123.65c-1.08,3.24-3.96,5.04-9.36,5.76-14.76,85.32-42.48,176.4-86.04,231.48-6.84-4.68-16.92-9-24.12-12.24,43.2-52.56,70.56-140.76,83.16-232.92l36.36,7.92Zm113.4-11.52c39.6,66.96,82.44,172.44,98.28,236.52l-26.28,10.44c-16.2-63.36-57.96-171.36-96.48-236.52l24.48-10.44Z"/><path class="cls-2" d="m151.56,115.73s-7.64,53.69-16.08,83.9"/><path class="cls-2" d="m333.32,112.13s21.31,37.46,32.8,62.37"/><polygon class="cls-1" points="136.46 195.57 141.04 196.81 137.23 201.85 133.41 206.89 132.64 200.61 131.87 194.34 136.46 195.57"/><polygon class="cls-1" points="364.67 171.65 368.92 169.51 369.43 175.81 369.95 182.11 365.19 177.95 360.43 173.79 364.67 171.65"/><circle class="cls-1" cx="149.47" cy="89.11" r="16.1"/><text class="cls-4" transform="translate(143.63 96.41)"><tspan x="0" y="0">1</tspan></text><circle class="cls-1" cx="333.94" cy="85.2" r="16.1"/><text class="cls-4" transform="translate(328.1 92.5)"><tspan x="0" y="0">2</tspan></text></svg>