<?xml version="1.0" encoding="UTF-8"?><svg id="Layer_1" xmlns="http://www.w3.org/2000/svg" viewBox="0 0 500 430"><defs><style>.cls-1,.cls-2{stroke:#914938;stroke-miterlimit:10;stroke-width:2px;}.cls-1,.cls-3{fill:#914938;}.cls-4{fill:#f4ebd4;font-family:Roboto-Bold, Roboto;font-size:20.36px;font-weight:700;}.cls-2{fill:none;}.cls-3{stroke-width:0px;}</style></defs><path class="cls-3" d="m268.1,258.76l12.96,113.04-25.92,2.88-12.6-112.68-135,17.28-3.24-23.76,135.72-17.28-9.36-81-113.04,14.76-3.24-24.12,113.4-14.4-7.92-71.28,35.28-1.44c0,3.6-3.24,6.48-8.28,7.92l6.48,61.2,109.44-14.4,2.88,24.48-109.44,14.04,9.36,80.64,135.36-16.92,3.24,23.76-136.08,17.28Z"/><line class="cls-2" x1="119.79" y1="131.06" x2="169.88" y2="124.7"/><polygon class="cls-1" points="169.97 124.7 169.52 119.97 175.58 121.78 181.64 123.59 176.03 126.51 170.42 129.43 169.97 124.7"/><line class="cls-2" x1="113.92" y1="238.11" x2="164" y2="231.75"/><polygon class="cls-1" points="164.09 231.75 163.64 227.02 169.7 228.83 175.76 230.64 170.15 233.56 164.54 236.48 164.09 231.75"/><circle class="cls-1" cx="123.86" cy="101.7" r="16.1"/><text class="cls-4" transform="translate(118.02 109)"><tspan x="0" y="0">1</tspan></text><circle class="cls-1" cx="111.92" cy="209" r="16.1"/><text class="cls-4" transform="translate(106.08 216.3)"><tspan x="0" y="0">2</tspan></text><line class="cls-1" x1="263.47" y1="73.45" x2="268.06" y2="116.79"/><polygon class="cls-1" points="267.15 109.07 271.86 108.46 270.26 114.58 268.66 120.69 265.55 115.19 262.44 109.68 267.15 109.07"/><circle class="cls-1" cx="292.22" cy="71.42" r="16.1"/><text class="cls-4" transform="translate(286.38 78.72)"><tspan x="0" y="0">3</tspan></text></svg>