<?xml version="1.0" encoding="UTF-8"?><svg id="Layer_1" xmlns="http://www.w3.org/2000/svg" viewBox="0 0 500 430"><defs><style>.cls-1,.cls-2{stroke:#914938;stroke-miterlimit:10;stroke-width:2px;}.cls-1,.cls-3{fill:#914938;}.cls-4{fill:#f4ebd4;font-family:Roboto-Bold, Roboto;font-size:20.36px;font-weight:700;}.cls-2{fill:none;}.cls-3{stroke-width:0px;}</style></defs><path class="cls-3" d="m376.32,135.84c-.36,1.8-2.16,3.24-4.32,3.96-13.32,44.64-31.32,85.68-52.92,119.16,15.48,9,33.12,20.16,46.44,29.88l-15.12,23.76c-12.96-10.08-31.32-21.96-46.44-31.32-33.12,46.08-75.6,83.16-129.96,109.44-3.96-6.12-13.32-14.76-19.8-18.72,52.56-24.48,94.68-60.84,127.44-103.68-26.64-14.76-52.92-27.36-79.56-37.44l13.68-20.16c26.28,9.36,53.28,21.6,81,36.36,18.72-29.52,33.48-60.84,43.56-95.4h-122.04c-21.96,36.72-51.48,73.08-83.16,99-4.68-4.32-14.4-12.24-20.52-16.2,47.16-36,91.8-100.8,113.4-162.36l34.2,7.92c-1.44,3.96-5.04,5.04-9.72,4.68-5.04,11.88-13.32,29.52-20.16,42.84h119.52l5.04-1.44,19.44,9.72Z"/><path class="cls-2" d="m204.44,83.22s-22,60.53-60.11,99.43"/><line class="cls-2" x1="257.03" y1="111.56" x2="318.26" y2="111.56"/><path class="cls-2" d="m385.4,149.04s-5.18,22.64-19.06,52.3"/><path class="cls-2" d="m197.08,243.88s41.23,17.13,57.17,25.52"/><polygon class="cls-1" points="151.58 175.3 155.07 178.52 149.35 181.22 143.64 183.92 145.86 178 148.09 172.08 151.58 175.3"/><polygon class="cls-1" points="313 111.12 313.07 106.37 318.89 108.83 324.72 111.29 318.83 113.58 312.93 115.87 313 111.12"/><polygon class="cls-1" points="369.36 195.06 373.55 197.3 368.68 201.34 363.82 205.38 364.5 199.09 365.18 192.81 369.36 195.06"/><polygon class="cls-1" points="248.03 266.18 249.8 261.77 254.36 266.15 258.92 270.53 252.59 270.56 246.27 270.59 248.03 266.18"/><circle class="cls-1" cx="204.68" cy="55.38" r="16.1"/><text class="cls-4" transform="translate(198.84 62.68)"><tspan x="0" y="0">1</tspan></text><circle class="cls-1" cx="283.94" cy="84.4" r="16.1"/><text class="cls-4" transform="translate(278.1 91.71)"><tspan x="0" y="0">2</tspan></text><circle class="cls-1" cx="176.22" cy="257.98" r="16.1"/><text class="cls-4" transform="translate(170.38 265.29)"><tspan x="0" y="0">3</tspan></text></svg>