<?xml version="1.0" encoding="UTF-8"?><svg id="Layer_1" xmlns="http://www.w3.org/2000/svg" viewBox="0 0 500 430"><defs><style>.cls-1,.cls-2{stroke:#914938;stroke-miterlimit:10;stroke-width:2px;}.cls-1,.cls-3{fill:#914938;}.cls-4{fill:#f4ebd4;font-family:Roboto-Bold, Roboto;font-size:20.36px;font-weight:700;}.cls-2{fill:none;}.cls-3{stroke-width:0px;}</style></defs><path class="cls-3" d="m346.26,263.21c-36.72-19.8-87.12-43.2-126.36-58.68v180h-27V71.69l36.36,2.16c-.36,3.96-3.24,6.48-9.36,7.56v105.12l5.4-7.56c42.12,15.48,97.92,40.32,135.36,60.12l-14.4,24.12Z"/><line class="cls-2" x1="175.16" y1="81.65" x2="175.16" y2="167.61"/><path class="cls-2" d="m246.04,171.14s19.53,7.07,46.51,19.16"/><polygon class="cls-1" points="175.19 161.84 179.94 161.9 177.48 167.73 175.03 173.56 172.74 167.67 170.44 161.78 175.19 161.84"/><polygon class="cls-1" points="287.38 188.11 289.13 183.69 293.71 188.05 298.28 192.41 291.96 192.47 285.64 192.52 287.38 188.11"/><circle class="cls-1" cx="155.43" cy="61.56" r="16.1"/><text class="cls-4" transform="translate(149.6 68.87)"><tspan x="0" y="0">1</tspan></text><circle class="cls-1" cx="245.74" cy="141.82" r="16.1"/><text class="cls-4" transform="translate(239.9 149.12)"><tspan x="0" y="0">2</tspan></text></svg>