<?xml version="1.0" encoding="UTF-8"?><svg id="Layer_1" xmlns="http://www.w3.org/2000/svg" viewBox="0 0 500 430"><defs><style>.cls-1,.cls-2{stroke:#914938;stroke-miterlimit:10;stroke-width:2px;}.cls-1,.cls-3{fill:#914938;}.cls-4{fill:#f4ebd4;font-family:Roboto-Bold, Roboto;font-size:20.36px;font-weight:700;}.cls-2{fill:none;}.cls-3{stroke-width:0px;}</style></defs><path class="cls-3" d="m352.14,103.12c-.72,1.8-2.52,3.24-4.68,3.96-19.44,45.72-42.48,85.32-72,123.84,39.24,31.32,98.28,84.96,131.76,122.04l-21.96,19.08c-31.68-36.72-89.64-91.44-126.36-120.96-31.68,38.52-86.4,91.08-138.6,120.96-3.96-5.4-12.6-14.4-18.72-19.44,99.72-54.72,178.56-156.96,210.96-235.08h-176.76v-24.48h190.8l4.68-1.8,20.88,11.88Z"/><line class="cls-2" x1="135.78" y1="76.04" x2="246.18" y2="76.04"/><polygon class="cls-1" points="239.54 76.07 239.6 71.32 245.43 73.77 251.26 76.22 245.37 78.52 239.48 80.82 239.54 76.07"/><path class="cls-2" d="m360.73,118.94s-7.81,21.58-25.3,52.09"/><polygon class="cls-1" points="337.56 167.2 341.52 169.81 336.32 173.4 331.11 176.99 332.35 170.79 333.59 164.59 337.56 167.2"/><path class="cls-2" d="m273.94,289.96s28.65,23.81,48.74,42.79"/><polygon class="cls-1" points="318.54 329.01 321.87 325.62 324.39 331.42 326.91 337.22 321.06 334.81 315.22 332.4 318.54 329.01"/><circle class="cls-1" cx="108.87" cy="74.05" r="16.1"/><text class="cls-4" transform="translate(103.03 81.36)"><tspan x="0" y="0">1</tspan></text><circle class="cls-1" cx="250.73" cy="299.91" r="16.1"/><text class="cls-4" transform="translate(244.89 307.22)"><tspan x="0" y="0">2</tspan></text></svg>