<?xml version="1.0" encoding="UTF-8"?><svg id="Layer_1" xmlns="http://www.w3.org/2000/svg" viewBox="0 0 500 430"><defs><style>.cls-1,.cls-2{stroke:#914938;stroke-miterlimit:10;stroke-width:2px;}.cls-1,.cls-3{fill:#914938;}.cls-4{fill:#f4ebd4;font-family:Roboto-Bold, Roboto;font-size:20.36px;font-weight:700;}.cls-2{fill:none;}.cls-3{stroke-width:0px;}</style></defs><path class="cls-3" d="m422.62,187.05h-130.32c-6.84,92.52-30.24,148.68-108.72,193.68-5.04-5.76-13.68-12.6-20.52-17.64,74.52-41.4,96.48-90.72,103.32-176.04H122.02v-24.84h145.44c1.08-28.08,1.44-60.48,1.44-96.84l35.28,2.16c-.36,3.6-3.6,5.76-8.64,6.48-.36,32.76-.36,61.92-1.8,88.2h128.88v24.84Z"/><line class="cls-2" x1="122.02" y1="146.21" x2="202.31" y2="146.21"/><polygon class="cls-1" points="196.49 146.21 196.55 141.46 202.38 143.92 208.21 146.37 202.31 148.66 196.42 150.96 196.49 146.21"/><line class="cls-2" x1="311.39" y1="89.43" x2="310.44" y2="146.21"/><polygon class="cls-1" points="310.91 137.25 315.66 137.32 313.2 143.15 310.75 148.97 308.46 143.08 306.16 137.19 310.91 137.25"/><circle class="cls-1" cx="93.48" cy="152.21" r="16.1"/><text class="cls-4" transform="translate(87.64 159.51)"><tspan x="0" y="0">1</tspan></text><circle class="cls-1" cx="328.08" cy="65.37" r="16.1"/><text class="cls-4" transform="translate(322.24 72.67)"><tspan x="0" y="0">2</tspan></text></svg>