<?xml version="1.0" encoding="UTF-8"?><svg id="Layer_1" xmlns="http://www.w3.org/2000/svg" viewBox="0 0 500 430"><defs><style>.cls-1,.cls-2{stroke:#914938;stroke-miterlimit:10;stroke-width:2px;}.cls-1,.cls-3{fill:#914938;}.cls-4{fill:#f4ebd4;font-family:Roboto-Bold, Roboto;font-size:20.36px;font-weight:700;}.cls-2{fill:none;}.cls-3{stroke-width:0px;}</style></defs><path class="cls-3" d="m118.35,167.71c32.4,7.2,72.72,20.88,96.84,32.4l-10.8,22.68c-23.76-11.52-65.16-25.92-96.84-33.12l10.8-21.96Zm21.6,176.04c117-39.24,196.92-101.52,244.8-209.52,5.4,4.68,16.56,12.24,21.96,15.84-48.24,106.92-132.12,173.52-242.28,212.76.72,3.24-1.08,7.56-4.32,9l-20.16-28.08Zm18-265.32c32.4,8.64,72,23.04,96.48,35.28l-11.88,21.96c-25.56-12.96-63-27.36-95.4-36.36l10.8-20.88Z"/><path class="cls-2" d="m165.95,60.43s52.3,15.35,87.57,31.03"/><polygon class="cls-1" points="248.16 89.26 250.12 84.93 254.48 89.51 258.83 94.1 252.52 93.84 246.2 93.58 248.16 89.26"/><path class="cls-2" d="m126.35,146.71s70.81,19.76,86.43,28.69"/><polygon class="cls-1" points="206.3 172.29 208.26 167.96 212.62 172.54 216.97 177.12 210.66 176.87 204.34 176.61 206.3 172.29"/><path class="cls-2" d="m168.2,382.33s45.33-12.83,92.54-42.46"/><polygon class="cls-1" points="256.67 342.29 254.21 338.22 260.46 337.23 266.7 336.24 262.91 341.3 259.12 346.36 256.67 342.29"/><circle class="cls-1" cx="153.81" cy="37.51" r="16.1"/><text class="cls-4" transform="translate(147.97 44.82)"><tspan x="0" y="0">1</tspan></text><circle class="cls-1" cx="109.39" cy="127.05" r="16.1"/><text class="cls-4" transform="translate(103.55 134.35)"><tspan x="0" y="0">2</tspan></text><circle class="cls-1" cx="140.41" cy="392.49" r="16.1"/><text class="cls-4" transform="translate(134.57 399.79)"><tspan x="0" y="0">3</tspan></text></svg>