<?xml version="1.0" encoding="UTF-8"?><svg id="Layer_1" xmlns="http://www.w3.org/2000/svg" viewBox="0 0 500 430"><defs><style>.cls-1,.cls-2{stroke:#914938;stroke-miterlimit:10;stroke-width:2px;}.cls-1,.cls-3{fill:#914938;}.cls-4{fill:#f4ebd4;font-family:Roboto-Bold, Roboto;font-size:20.36px;font-weight:700;}.cls-2{fill:none;}.cls-3{stroke-width:0px;}</style></defs><path class="cls-3" d="m111.57,114.41c13.68,26.64,29.52,69.84,34.56,95.76l-24.12,7.92c-5.04-25.2-20.16-68.04-33.84-96.12l23.4-7.56Zm269.64,4.32c-1.08,3.24-4.68,4.68-9.36,4.68-37.8,127.08-96.84,204.84-209.52,254.16-3.6-5.04-11.88-14.76-17.28-19.8,110.16-46.44,166.68-118.8,202.32-249.84l33.84,10.8Zm-155.52-24.84c8.28,29.88,17.28,74.52,19.08,102.24l-25.56,3.96c-2.16-28.44-10.08-71.64-18.72-101.88l25.2-4.32Z"/><path class="cls-2" d="m127.57,112.41s16.81,32.26,25.18,62.96"/><path class="cls-2" d="m241.69,93.89s10.78,41.99,14.87,68.04"/><path class="cls-2" d="m386.1,130.25s-5.86,36-37.67,98.79"/><polygon class="cls-1" points="151.93 171.27 156.49 169.96 155.83 176.25 155.17 182.54 151.27 177.56 147.36 172.58 151.93 171.27"/><polygon class="cls-1" points="255.91 155.43 260.62 154.8 259.05 160.93 257.48 167.05 254.34 161.56 251.21 156.07 255.91 155.43"/><polygon class="cls-1" points="351.36 223.09 355.41 225.56 350.33 229.33 345.25 233.09 346.28 226.85 347.31 220.61 351.36 223.09"/><circle class="cls-1" cx="106.61" cy="87.51" r="16.1"/><text class="cls-4" transform="translate(100.78 94.81)"><tspan x="0" y="0">1</tspan></text><circle class="cls-1" cx="226.06" cy="68.53" r="16.1"/><text class="cls-4" transform="translate(220.22 75.83)"><tspan x="0" y="0">2</tspan></text><circle class="cls-1" cx="395.73" cy="97.55" r="16.1"/><text class="cls-4" transform="translate(389.89 104.86)"><tspan x="0" y="0">3</tspan></text></svg>