<?xml version="1.0" encoding="UTF-8"?><svg id="Layer_1" xmlns="http://www.w3.org/2000/svg" viewBox="0 0 500 430"><defs><style>.cls-1,.cls-2{stroke:#914938;stroke-miterlimit:10;stroke-width:2px;}.cls-1,.cls-3{fill:#914938;}.cls-4{fill:#f4ebd4;font-family:Roboto-Bold, Roboto;font-size:20.36px;font-weight:700;}.cls-2{fill:none;}.cls-3{stroke-width:0px;}</style></defs><path class="cls-3" d="m385.29,150.02c-.72,1.44-1.44,3.24-3.24,4.68-4.68,103.68-14.76,168.84-28.8,194.4-14.4,24.84-35.28,25.92-47.16,25.92-14.04,0-39.6-3.24-64.44-8.28.72-7.2,0-18-1.08-25.56,27,6.12,54.72,9,63,9,12.96,0,20.16-3.24,27.72-16.92,10.8-21.96,19.8-82.44,23.4-163.44h-115.2c-18,86.04-53.64,157.32-118.8,206.28-4.32-4.68-13.68-11.52-20.52-15.84,62.28-46.8,95.04-108.36,112.32-190.44h-99.36v-24.12h104.4c4.32-25.56,6.48-48.6,8.28-78.48l35.64,2.88c-.36,3.96-3.6,6.12-9,6.48-2.16,26.28-3.96,46.08-7.92,69.12h116.64l5.76-2.16,18.36,6.48Z"/><line class="cls-2" x1="113.13" y1="128.7" x2="196.08" y2="128.7"/><polygon class="cls-1" points="190.25 128.7 190.32 123.95 196.15 126.41 201.97 128.86 196.08 131.15 190.19 133.45 190.25 128.7"/><path class="cls-2" d="m398.33,169.52s-1.55,34.58-4.21,60.6"/><polygon class="cls-1" points="395.11 222.19 399.83 222.72 396.82 228.28 393.81 233.84 392.1 227.75 390.39 221.66 395.11 222.19"/><path class="cls-2" d="m268.45,78.58s-3.34,39.13-5.29,52.12"/><polygon class="cls-1" points="263.99 125.18 268.68 125.92 265.42 131.34 262.16 136.76 260.73 130.6 259.3 124.44 263.99 125.18"/><circle class="cls-1" cx="129.22" cy="99.77" r="16.1"/><text class="cls-4" transform="translate(123.38 107.08)"><tspan x="0" y="0">1</tspan></text><circle class="cls-1" cx="297.66" cy="69.99" r="16.1"/><text class="cls-4" transform="translate(291.82 77.3)"><tspan x="0" y="0">2</tspan></text></svg>