<?xml version="1.0" encoding="UTF-8"?><svg id="Layer_1" xmlns="http://www.w3.org/2000/svg" viewBox="0 0 500 430"><defs><style>.cls-1,.cls-2{stroke:#914938;stroke-miterlimit:10;stroke-width:2px;}.cls-1,.cls-3{fill:#914938;}.cls-4{fill:#f4ebd4;font-family:Roboto-Bold, Roboto;font-size:20.36px;font-weight:700;}.cls-2{fill:none;}.cls-3{stroke-width:0px;}</style></defs><path class="cls-3" d="m149.13,120.65h246.24v24.48h-110.88v174.6h136.8v24.48H123.93v-24.48h134.64v-174.6h-109.44v-24.48Z"/><line class="cls-2" x1="149.13" y1="103.65" x2="245.5" y2="103.65"/><line class="cls-2" x1="243.57" y1="163.13" x2="243.57" y2="271.22"/><line class="cls-2" x1="123.93" y1="360.21" x2="250.52" y2="360.21"/><polygon class="cls-1" points="244.8 103.47 244.87 98.72 250.69 101.17 256.52 103.62 250.63 105.92 244.74 108.22 244.8 103.47"/><polygon class="cls-1" points="244.04 265.41 248.79 265.47 246.34 271.3 243.89 277.13 241.59 271.24 239.29 265.34 244.04 265.41"/><polygon class="cls-1" points="247.36 360.26 247.43 355.51 253.25 357.96 259.08 360.42 253.19 362.71 247.3 365.01 247.36 360.26"/><circle class="cls-1" cx="134.52" cy="81.08" r="16.1"/><text class="cls-4" transform="translate(128.68 88.39)"><tspan x="0" y="0">1</tspan></text><circle class="cls-1" cx="213.36" cy="172.85" r="16.1"/><text class="cls-4" transform="translate(207.52 180.16)"><tspan x="0" y="0">2</tspan></text><circle class="cls-1" cx="94.8" cy="341.41" r="16.1"/><text class="cls-4" transform="translate(88.96 348.71)"><tspan x="0" y="0">3</tspan></text></svg>