<?xml version="1.0" encoding="UTF-8"?><svg id="Layer_1" xmlns="http://www.w3.org/2000/svg" viewBox="0 0 500 430"><defs><style>.cls-1,.cls-2{stroke:#914938;stroke-miterlimit:10;stroke-width:2px;}.cls-1,.cls-3{fill:#914938;}.cls-4{fill:#f4ebd4;font-family:Roboto-Bold, Roboto;font-size:20.36px;font-weight:700;}.cls-2{fill:none;}.cls-3{stroke-width:0px;}</style></defs><path class="cls-3" d="m379.82,145.32c-1.44,1.8-3.24,3.6-5.4,5.04-37.8,116.64-96.84,191.52-196.2,241.92-4.32-6.12-11.16-14.4-18.36-19.8,94.32-45.72,152.64-117.72,182.52-213.12h-128.52c-20.88,32.4-48.6,63.72-80.64,88.92-5.04-5.04-13.32-11.88-20.52-16.56,48.96-37.8,90.36-92.88,114.84-156.24l34.2,9.72c-1.44,3.6-5.76,4.68-10.44,4.68-7.2,15.84-14.76,30.96-23.04,45.36h126.72l4.32-2.16,20.52,12.24Z"/><path class="cls-2" d="m207.26,83.69s-24.29,51.67-45,76.54"/><polygon class="cls-1" points="164.8 156.89 168.44 159.93 162.86 162.9 157.28 165.87 159.22 159.85 161.16 153.84 164.8 156.89"/><line class="cls-2" x1="248.89" y1="119.24" x2="311.12" y2="119.24"/><path class="cls-2" d="m387.3,161.76s-13.82,37.38-18.94,48.45"/><polygon class="cls-1" points="305.29 119.24 305.36 114.49 311.18 116.94 317.01 119.39 311.12 121.69 305.23 123.99 305.29 119.24"/><polygon class="cls-1" points="370.3 206.02 374.56 208.12 369.84 212.33 365.12 216.54 365.58 210.23 366.04 203.92 370.3 206.02"/><circle class="cls-1" cx="209.38" cy="53.82" r="16.1"/><text class="cls-4" transform="translate(203.54 61.12)"><tspan x="0" y="0">1</tspan></text><circle class="cls-1" cx="285.56" cy="88.98" r="16.1"/><text class="cls-4" transform="translate(279.72 96.28)"><tspan x="0" y="0">2</tspan></text></svg>