<?xml version="1.0" encoding="UTF-8"?><svg id="Layer_1" xmlns="http://www.w3.org/2000/svg" viewBox="0 0 500 430"><defs><style>.cls-1,.cls-2{stroke:#914938;stroke-miterlimit:10;stroke-width:2px;}.cls-1,.cls-3{fill:#914938;}.cls-4{fill:#f4ebd4;font-family:Roboto-Bold, Roboto;font-size:20.36px;font-weight:700;}.cls-2{fill:none;}.cls-3{stroke-width:0px;}</style></defs><path class="cls-3" d="m417.93,229.7h-125.64c-7.92,69.12-31.32,120.96-101.16,160.56-5.4-5.76-14.04-12.6-20.16-17.28,64.8-35.28,88.2-79.92,95.76-143.28H119.85v-23.76h148.68c1.8-23.76,1.8-48.24,2.16-77.04-36.72,8.28-84.24,16.2-123.84,20.52-1.8-6.84-4.32-14.04-7.56-20.88,126.36-15.12,200.88-39.96,223.2-49.68l19.08,21.24c-1.44.72-2.88,1.08-4.68,1.08-1.44,0-2.52,0-3.96-.36-20.16,7.56-52.2,16.92-80.64,23.76l11.88,1.08c-.36,3.24-2.88,5.4-7.56,6.12-.36,27-.72,51.48-2.16,74.16h123.48v23.76Z"/><path class="cls-2" d="m353.65,66.14s-23.81,11.53-79.63,23.81"/><line class="cls-2" x1="126.82" y1="189.42" x2="191.19" y2="189.42"/><path class="cls-2" d="m307.91,235.7s-1.12,24.56-16.37,68.09"/><polygon class="cls-1" points="185.7 189.39 185.77 184.64 191.6 187.09 197.42 189.55 191.53 191.84 185.64 194.13 185.7 189.39"/><polygon class="cls-1" points="274.98 89.91 276.09 94.53 269.84 93.59 263.59 92.65 268.73 88.97 273.88 85.3 274.98 89.91"/><polygon class="cls-1" points="293.34 298.99 297.65 301 293.02 305.31 288.39 309.62 288.71 303.3 289.04 296.99 293.34 298.99"/><circle class="cls-1" cx="382.82" cy="55.84" r="16.1"/><text class="cls-4" transform="translate(376.98 63.14)"><tspan x="0" y="0">1</tspan></text><circle class="cls-1" cx="98.17" cy="186.44" r="16.1"/><text class="cls-4" transform="translate(92.33 193.75)"><tspan x="0" y="0">2</tspan></text><circle class="cls-1" cx="333.17" cy="259.12" r="16.1"/><text class="cls-4" transform="translate(327.33 266.42)"><tspan x="0" y="0">3</tspan></text></svg>