<?xml version="1.0" encoding="UTF-8"?><svg id="Layer_1" xmlns="http://www.w3.org/2000/svg" viewBox="0 0 500 430"><defs><style>.cls-1{stroke:#914938;stroke-miterlimit:10;stroke-width:2px;}.cls-1,.cls-2{fill:#914938;}.cls-3{fill:#f4ebd4;font-family:Roboto-Bold, Roboto;font-size:20.36px;font-weight:700;}.cls-2{stroke-width:0px;}</style></defs><path class="cls-2" d="m103.01,229.4c27.36-28.8,80.28-88.2,100.8-110.16,11.88-11.88,21.24-17.64,32.04-17.64,12.24,0,20.52,6.48,34.56,19.08,42.48,38.52,113.76,117.36,169.92,187.92l-21.6,19.8c-53.28-70.2-125.28-152.64-161.28-185.76-8.64-8.64-13.68-14.04-20.52-14.04-4.68,0-10.8,5.4-18.72,12.96-16.92,18.36-65.52,74.88-89.64,100.8.36.72.36,1.8.36,2.52,0,2.88-1.44,5.76-3.6,7.56l-22.32-23.04Z"/><line class="cls-1" x1="94.01" y1="216.4" x2="151.45" y2="153.82"/><polygon class="cls-1" points="148.46 156.59 145.03 153.3 150.81 150.72 156.58 148.14 154.23 154.01 151.88 159.88 148.46 156.59"/><circle class="cls-1" cx="75.77" cy="191.85" r="16.1"/><text class="cls-3" transform="translate(69.93 199.15)"><tspan x="0" y="0">1</tspan></text></svg>