<?xml version="1.0" encoding="UTF-8"?><svg id="Layer_1" xmlns="http://www.w3.org/2000/svg" viewBox="0 0 500 430"><defs><style>.cls-1,.cls-2{stroke:#914938;stroke-miterlimit:10;stroke-width:2px;}.cls-1,.cls-3{fill:#914938;}.cls-4{fill:#f4ebd4;font-family:Roboto-Bold, Roboto;font-size:20.36px;font-weight:700;}.cls-2{fill:none;}.cls-3{stroke-width:0px;}</style></defs><path class="cls-3" d="m325.14,339.82c14.4-.36,52.92-1.8,75.6-5.4.36,7.92.72,18,1.44,25.92-23.76,2.52-59.76,3.96-74.52,3.96h-90c-54.36,0-80.64-23.76-80.64-75.24V79.18l35.28,2.16c-.72,3.6-3.24,5.76-9.72,6.48v117.36c54.72-16.56,130.68-45.36,178.56-71.28l18.36,24.84c-1.08.72-2.88,1.08-4.32,1.08-1.8,0-3.24-.36-5.04-1.08-43.56,21.96-125.64,52.2-187.56,70.92v60.12c0,36.36,17.64,50.04,54.72,50.04h87.84Z"/><line class="cls-2" x1="141.02" y1="79.18" x2="141.02" y2="170.76"/><polygon class="cls-1" points="141.49 165.83 146.24 165.9 143.79 171.72 141.33 177.55 139.04 171.66 136.74 165.76 141.49 165.83"/><line class="cls-1" x1="190.51" y1="186.06" x2="255.6" y2="163.66"/><polygon class="cls-1" points="252.08 164.34 250.83 159.76 257.1 160.51 263.38 161.25 258.35 165.09 253.33 168.92 252.08 164.34"/><circle class="cls-1" cx="113.92" cy="68.34" r="16.1"/><text class="cls-4" transform="translate(108.08 75.64)"><tspan x="0" y="0">1</tspan></text><circle class="cls-1" cx="207.69" cy="148.71" r="16.1"/><text class="cls-4" transform="translate(201.85 156.01)"><tspan x="0" y="0">2</tspan></text><path class="cls-2" d="m143.38,321.88s1.06,42.36,47.88,53.04"/><polygon class="cls-1" points="184.99 373.16 186.2 368.57 191.26 372.35 196.33 376.14 190.06 376.95 183.79 377.76 184.99 373.16"/></svg>