<?xml version="1.0" encoding="UTF-8"?><svg id="Layer_1" xmlns="http://www.w3.org/2000/svg" viewBox="0 0 500 430"><defs><style>.cls-1,.cls-2{stroke:#914938;stroke-miterlimit:10;stroke-width:2px;}.cls-1,.cls-3{fill:#914938;}.cls-4{fill:#f4ebd4;font-family:Roboto-Bold, Roboto;font-size:20.36px;font-weight:700;}.cls-2{fill:none;}.cls-3{stroke-width:0px;}</style></defs><path class="cls-3" d="m260.01,73.28l36,2.16c-.36,3.6-4.68,6.84-10.08,7.2v56.52h96.48l5.4-2.16,22.32,10.08c-.72,1.44-2.52,2.88-3.96,3.96-16.56,126-68.76,199.08-182.88,239.04-3.6-6.12-11.16-15.48-16.92-21.6,106.92-36.72,156.24-103.68,168.48-204.84h-203.4v89.28h-24.84v-113.76h113.4v-65.88Z"/><line class="cls-2" x1="243.01" y1="73.28" x2="243.01" y2="126.9"/><line class="cls-2" x1="131.15" y1="139.44" x2="131.15" y2="217.13"/><polygon class="cls-1" points="243.16 118.38 247.91 118.45 245.45 124.28 243 130.1 240.7 124.21 238.41 118.32 243.16 118.38"/><polygon class="cls-1" points="131.25 211.97 136 212.03 133.55 217.86 131.1 223.69 128.8 217.79 126.5 211.9 131.25 211.97"/><line class="cls-2" x1="200.84" y1="179.17" x2="290.7" y2="179.17"/><polygon class="cls-1" points="289.5 179.05 289.56 174.3 295.39 176.75 301.22 179.21 295.33 181.5 289.44 183.8 289.5 179.05"/><path class="cls-2" d="m353.84,189.87s-9.49,60.28-43.53,96.56"/><polygon class="cls-1" points="312.1 284.65 315.42 288.05 309.58 290.45 303.73 292.85 306.25 287.06 308.78 281.26 312.1 284.65"/><circle class="cls-1" cx="216.47" cy="56.01" r="16.1"/><text class="cls-4" transform="translate(210.63 63.32)"><tspan x="0" y="0">1</tspan></text><circle class="cls-1" cx="105.96" cy="121.87" r="16.1"/><text class="cls-4" transform="translate(100.12 129.18)"><tspan x="0" y="0">2</tspan></text><circle class="cls-1" cx="210.89" cy="211.17" r="16.1"/><text class="cls-4" transform="translate(205.05 218.48)"><tspan x="0" y="0">3</tspan></text></svg>