<?xml version="1.0" encoding="UTF-8"?><svg id="Layer_1" xmlns="http://www.w3.org/2000/svg" viewBox="0 0 500 430"><defs><style>.cls-1,.cls-2{stroke:#914938;stroke-miterlimit:10;stroke-width:2px;}.cls-1,.cls-3{fill:#914938;}.cls-4{fill:#f4ebd4;font-family:Roboto-Bold, Roboto;font-size:20.36px;font-weight:700;}.cls-2{fill:none;}.cls-3{stroke-width:0px;}</style></defs><path class="cls-3" d="m419.15,153.15c-1.08,1.8-3.24,3.24-5.76,4.32-16.2,38.88-44.64,87.84-75.24,117.36-5.4-3.96-14.76-9.36-21.6-12.96,27.36-24.48,49.68-60.48,61.56-89.28l-137.88,36v93.24c0,35.28,21.24,47.16,50.04,47.16h58.68c14.76,0,39.6-2.16,53.64-3.96,0,7.92.36,17.64.72,25.2-14.4,1.8-39.6,2.88-53.28,2.88h-60.12c-45.36,0-75.6-21.24-75.6-70.92v-87.12l-90.72,23.4-6.12-24.12,96.84-24.12v-109.44l34.92,1.44c-.72,4.32-3.96,6.48-9,7.2v93.96l152.28-39.24,3.96-2.88,22.68,11.88Z"/><line class="cls-2" x1="117.47" y1="197.35" x2="191.16" y2="178.45"/><path class="cls-2" d="m423.72,169.66s.56,3.91-22.88,45.77"/><line class="cls-2" x1="257.23" y1="95.55" x2="257.23" y2="158.62"/><polygon class="cls-1" points="184.03 179.89 182.93 175.27 189.18 176.22 195.43 177.17 190.28 180.84 185.13 184.51 184.03 179.89"/><polygon class="cls-1" points="257.51 154.61 262.26 154.62 259.87 160.48 257.49 166.33 255.12 160.47 252.76 154.6 257.51 154.61"/><polygon class="cls-1" points="402.65 212.06 406.71 214.52 401.65 218.31 396.58 222.09 397.58 215.85 398.58 209.61 402.65 212.06"/><circle class="cls-1" cx="92.37" cy="204" r="16.1"/><text class="cls-4" transform="translate(86.53 211.31)"><tspan x="0" y="0">1</tspan></text><circle class="cls-1" cx="273.32" cy="72.98" r="16.1"/><text class="cls-4" transform="translate(267.48 80.29)"><tspan x="0" y="0">2</tspan></text></svg>