<?xml version="1.0" encoding="UTF-8"?><svg id="Layer_1" xmlns="http://www.w3.org/2000/svg" viewBox="0 0 500 430"><defs><style>.cls-1,.cls-2{stroke:#914938;stroke-miterlimit:10;stroke-width:2px;}.cls-1,.cls-3{fill:#914938;}.cls-4{fill:#f4ebd4;font-family:Roboto-Bold, Roboto;font-size:20.36px;font-weight:700;}.cls-2{fill:none;}.cls-3{stroke-width:0px;}</style></defs><path class="cls-3" d="m406.89,99.66c-1.08,1.8-2.52,3.24-4.68,3.96-28.44,136.44-99,217.44-216.72,258.84-3.96-6.12-11.88-15.84-16.56-20.88,111.6-36.36,180-116.64,201.6-225.72h-235.44v-24.12h244.8l5.04-3.24,21.96,11.16Z"/><line class="cls-2" x1="135.09" y1="75.74" x2="232.78" y2="75.74"/><path class="cls-2" d="m410.04,136.21s-9.86,36.69-22.1,60.68"/><polygon class="cls-1" points="228.62 75.74 228.69 70.99 234.52 73.45 240.34 75.9 234.45 78.2 228.55 80.49 228.62 75.74"/><polygon class="cls-1" points="389.61 193.86 393.91 195.87 389.28 200.18 384.65 204.48 384.98 198.17 385.3 191.85 389.61 193.86"/><circle class="cls-1" cx="106.06" cy="83.64" r="16.1"/><text class="cls-4" transform="translate(100.22 90.94)"><tspan x="0" y="0">1</tspan></text></svg>