<?xml version="1.0" encoding="UTF-8"?><svg id="Layer_1" xmlns="http://www.w3.org/2000/svg" viewBox="0 0 500 430"><defs><style>.cls-1,.cls-2{stroke:#914938;stroke-miterlimit:10;stroke-width:2px;}.cls-1,.cls-3{fill:#914938;}.cls-4{fill:#f4ebd4;font-family:Roboto-Bold, Roboto;font-size:20.36px;font-weight:700;}.cls-2{fill:none;}.cls-3{stroke-width:0px;}</style></defs><path class="cls-3" d="m395.44,98.93c-1.44,1.8-3.6,2.88-6.84,2.88-1.08,0-2.16,0-3.6-.36-27.72,28.08-67.68,60.84-102.6,86.04,2.88,1.08,7.2,3.24,8.64,3.96-.72,2.16-3.96,4.32-7.92,4.68v193.32h-26.28v-185.04c-38.16,27-87.84,56.16-137.16,80.28-3.6-5.76-10.08-14.76-15.12-19.8,98.28-45.36,205.92-122.4,263.88-186.12l27,20.16Z"/><path class="cls-2" d="m337.05,85.83s-54.42,59.44-116.37,91.26"/><polygon class="cls-1" points="222.39 175.86 224.34 180.19 218.02 180.44 211.7 180.68 216.07 176.11 220.44 171.53 222.39 175.86"/><line class="cls-2" x1="296.24" y1="209.13" x2="296.24" y2="316.86"/><polygon class="cls-1" points="296.53 311.66 301.28 311.72 298.83 317.55 296.37 323.38 294.08 317.49 291.78 311.6 296.53 311.66"/><circle class="cls-1" cx="325.33" cy="56.65" r="16.1"/><text class="cls-4" transform="translate(319.49 63.95)"><tspan x="0" y="0">1</tspan></text><circle class="cls-1" cx="324.66" cy="197.97" r="16.1"/><text class="cls-4" transform="translate(318.82 205.28)"><tspan x="0" y="0">2</tspan></text></svg>