<?xml version="1.0" encoding="UTF-8"?><svg id="Layer_1" xmlns="http://www.w3.org/2000/svg" viewBox="0 0 500 430"><defs><style>.cls-1,.cls-2{stroke:#914938;stroke-miterlimit:10;stroke-width:2px;}.cls-1,.cls-3{fill:#914938;}.cls-4{fill:#f4ebd4;font-family:Roboto-Bold, Roboto;font-size:20.36px;font-weight:700;}.cls-2{fill:none;}.cls-3{stroke-width:0px;}</style></defs><path class="cls-3" d="m427.94,182.27h-75.24v24.84c0,68.76-21.24,138.6-115.2,181.08-4.68-5.76-12.24-12.96-18.72-18,91.44-39.6,108.36-103.68,108.36-162.72v-25.2h-116.28v89.64h-25.56v-89.64h-70.56v-24.48h70.56v-78.12l34.56,2.16c-.36,3.6-3.6,6.84-9,7.56v68.4h116.28v-82.8l34.56,2.16c-.36,3.24-3.24,6.12-9,6.84v73.8h75.24v24.48Z"/><line class="cls-2" x1="114.74" y1="140.79" x2="168.1" y2="140.79"/><polygon class="cls-1" points="162.27 140.79 162.33 136.05 168.16 138.5 173.99 140.95 168.1 143.25 162.21 145.54 162.27 140.79"/><line class="cls-1" x1="226.86" y1="89.39" x2="226.86" y2="145.54"/><line class="cls-1" x1="369.12" y1="89.39" x2="369.12" y2="145.54"/><polygon class="cls-1" points="226.86 138.25 231.61 138.32 229.16 144.14 226.71 149.97 224.41 144.08 222.11 138.19 226.86 138.25"/><polygon class="cls-1" points="369.12 138.25 373.87 138.32 371.42 144.14 368.97 149.97 366.67 144.08 364.37 138.19 369.12 138.25"/><circle class="cls-1" cx="88.15" cy="136.05" r="16.1"/><text class="cls-4" transform="translate(82.31 143.35)"><tspan x="0" y="0">1</tspan></text><circle class="cls-1" cx="226.86" cy="57.9" r="16.1"/><text class="cls-4" transform="translate(221.02 65.21)"><tspan x="0" y="0">2</tspan></text><circle class="cls-1" cx="369.12" cy="57.9" r="16.1"/><text class="cls-4" transform="translate(363.28 65.21)"><tspan x="0" y="0">3</tspan></text></svg>