<?xml version="1.0" encoding="UTF-8"?><svg id="Layer_1" xmlns="http://www.w3.org/2000/svg" viewBox="0 0 500 430"><defs><style>.cls-1,.cls-2{stroke:#914938;stroke-miterlimit:10;stroke-width:2px;}.cls-1,.cls-3{fill:#914938;}.cls-4{fill:#f4ebd4;font-family:Roboto-Bold, Roboto;font-size:20.36px;font-weight:700;}.cls-2{fill:none;}.cls-3{stroke-width:0px;}</style></defs><path class="cls-3" d="m402.82,165.31h-107.64l1.44,174.96c.72,36.36-23.76,37.44-90,36.72-1.08-6.48-3.6-16.56-6.48-23.4,23.76.36,52.2.36,58.68-.36,8.64-1.08,12.96-6.84,12.6-13.32l-1.44-155.52c-36.72,54-96.48,110.16-155.16,144.72-4.32-6.48-11.16-14.04-17.64-19.44,58.68-32.4,120.6-88.92,157.32-144.36H111.22v-24.48h158.04l-.72-77.76,34.56,1.44c-.36,3.96-3.96,6.12-9,6.84l.72,69.48h108v24.48Z"/><line class="cls-2" x1="111.22" y1="124.83" x2="202.14" y2="124.83"/><polygon class="cls-1" points="198.84 124.81 198.9 120.06 204.73 122.51 210.56 124.96 204.67 127.26 198.78 129.56 198.84 124.81"/><line class="cls-2" x1="308.1" y1="72.35" x2="309.07" y2="128.86"/><polygon class="cls-1" points="309.43 118.65 314.18 118.71 311.73 124.54 309.27 130.37 306.98 124.48 304.68 118.59 309.43 118.65"/><path class="cls-2" d="m227.12,177.49s-21.77,30.14-56.09,58.6"/><polygon class="cls-1" points="173.07 234.23 176.01 237.96 169.94 239.73 163.87 241.5 167 236 170.12 230.5 173.07 234.23"/><circle class="cls-1" cx="119.26" cy="96.89" r="16.1"/><text class="cls-4" transform="translate(113.42 104.19)"><tspan x="0" y="0">1</tspan></text><circle class="cls-1" cx="338.05" cy="68.98" r="16.1"/><text class="cls-4" transform="translate(332.21 76.28)"><tspan x="0" y="0">2</tspan></text><circle class="cls-1" cx="184" cy="187.19" r="16.1"/><text class="cls-4" transform="translate(178.16 194.49)"><tspan x="0" y="0">3</tspan></text></svg>