<?xml version="1.0" encoding="UTF-8"?><svg id="Layer_1" xmlns="http://www.w3.org/2000/svg" viewBox="0 0 500 430"><defs><style>.cls-1,.cls-2{stroke:#914938;stroke-miterlimit:10;stroke-width:2px;}.cls-1,.cls-3{fill:#914938;}.cls-4{fill:#f4ebd4;font-family:Roboto-Bold, Roboto;font-size:20.36px;font-weight:700;}.cls-2{fill:none;}.cls-3{stroke-width:0px;}</style></defs><path class="cls-3" d="m361.72,161.35c-1.08,1.8-3.24,2.88-6.48,3.24-23.04,28.8-54,59.76-87.12,85.32l5.76,1.44c-.72,1.8-3.24,4.68-7.92,5.04v137.16h-25.56v-124.92c-36.72,25.2-84.24,50.76-128.52,68.4-1.8-2.52-13.68-17.28-16.56-20.16,87.12-32.4,169.92-86.04,219.24-143.64h-182.16v-23.4h206.28l3.96-2.52,19.08,14.04Zm-59.4-28.08c-31.32-16.56-80.28-32.76-118.44-43.56l11.88-20.88c38.52,9.36,87.12,26.64,119.88,42.48l-13.32,21.96Zm2.52,115.56c36,18.72,79.2,45.72,105.12,66.24l-18.36,19.44c-24.12-20.16-68.76-49.32-103.32-67.68l16.56-18Z"/><path class="cls-2" d="m201.76,54.83s53.55,14.42,79.5,25.3"/><polygon class="cls-1" points="275.41 78.17 277.12 73.74 281.74 78.06 286.36 82.37 280.04 82.49 273.71 82.61 275.41 78.17"/><line class="cls-1" x1="132.4" y1="133.83" x2="210.79" y2="133.83"/><line class="cls-1" x1="222.58" y1="295.34" x2="222.58" y2="358.13"/><path class="cls-1" d="m317.84,236.83s32.37,16.93,66.7,39.54"/><polygon class="cls-1" points="206.65 133.68 206.72 128.93 212.55 131.39 218.37 133.84 212.48 136.14 206.59 138.43 206.65 133.68"/><polygon class="cls-1" points="222.58 355.25 227.33 355.32 224.87 361.14 222.42 366.97 220.12 361.08 217.83 355.18 222.58 355.25"/><polygon class="cls-1" points="379.48 273.03 382.13 269.09 385.67 274.34 389.2 279.58 383.01 278.27 376.82 276.97 379.48 273.03"/><circle class="cls-1" cx="173.12" cy="52.55" r="16.1"/><text class="cls-4" transform="translate(167.28 59.85)"><tspan x="0" y="0">1</tspan></text><circle class="cls-1" cx="106.14" cy="139.62" r="16.1"/><text class="cls-4" transform="translate(100.3 146.92)"><tspan x="0" y="0">2</tspan></text><circle class="cls-1" cx="194.33" cy="328.27" r="16.1"/><text class="cls-4" transform="translate(188.49 335.57)"><tspan x="0" y="0">3</tspan></text><circle class="cls-1" cx="345.02" cy="218.87" r="16.1"/><text class="cls-4" transform="translate(339.18 226.18)"><tspan x="0" y="0">4</tspan></text></svg>