<?xml version="1.0" encoding="UTF-8"?><svg id="Layer_1" xmlns="http://www.w3.org/2000/svg" viewBox="0 0 500 430"><defs><style>.cls-1,.cls-2{stroke:#914938;stroke-miterlimit:10;stroke-width:2px;}.cls-1,.cls-3{fill:#914938;}.cls-4{fill:#f4ebd4;font-family:Roboto-Bold, Roboto;font-size:20.36px;font-weight:700;}.cls-2{fill:none;}.cls-3{stroke-width:0px;}</style></defs><path class="cls-3" d="m119.24,103.1c25.2,29.52,50.76,73.08,61.92,102.24l-24.84,12.6c-10.08-28.44-35.64-73.44-59.76-102.96l22.68-11.88Zm252,4.32c-1.08,3.24-3.6,4.68-9.36,4.68-36.36,134.28-105.48,213.12-206.64,259.2-3.96-5.4-12.24-14.4-18.36-19.08,99-43.56,165.6-118.44,199.8-255.96l34.56,11.16Z"/><path class="cls-2" d="m135.24,100.1s20.59,20.67,44.02,64.77"/><path class="cls-2" d="m378.69,116.42s-7.51,32.51-28.25,77.99"/><circle class="cls-1" cx="119.15" cy="74.8" r="16.1"/><text class="cls-4" transform="translate(113.31 82.11)"><tspan x="0" y="0">1</tspan></text><circle class="cls-1" cx="387.34" cy="85" r="16.1"/><text class="cls-4" transform="translate(381.5 92.31)"><tspan x="0" y="0">2</tspan></text><polygon class="cls-1" points="176.02 158.79 180.23 156.58 180.85 162.88 181.46 169.17 176.64 165.08 171.82 160.99 176.02 158.79"/><polygon class="cls-1" points="351.79 191.91 356.04 194.04 351.28 198.21 346.53 202.38 347.04 196.08 347.55 189.78 351.79 191.91"/></svg>