<?xml version="1.0" encoding="UTF-8"?><svg id="Layer_1" xmlns="http://www.w3.org/2000/svg" viewBox="0 0 500 430"><defs><style>.cls-1,.cls-2{stroke:#914938;stroke-miterlimit:10;stroke-width:2px;}.cls-1,.cls-3{fill:#914938;}.cls-4{fill:#f4ebd4;font-family:Roboto-Bold, Roboto;font-size:20.36px;font-weight:700;}.cls-2{fill:none;}.cls-3{stroke-width:0px;}</style></defs><path class="cls-3" d="m421.31,315.6v24.48H124.31v-24.48h297Zm-35.28-197.64v24.84h-223.56v-24.84h223.56Z"/><line class="cls-2" x1="162.47" y1="100.96" x2="253.46" y2="100.96"/><polygon class="cls-1" points="247.64 100.96 247.7 96.21 253.53 98.67 259.36 101.13 253.46 103.42 247.57 105.71 247.64 100.96"/><line class="cls-2" x1="124.31" y1="299.6" x2="215.31" y2="299.6"/><polygon class="cls-1" points="209.48 299.6 209.55 294.85 215.37 297.31 221.2 299.76 215.31 302.06 209.41 304.35 209.48 299.6"/><circle class="cls-1" cx="132.56" cy="106.02" r="16.1"/><text class="cls-4" transform="translate(126.73 113.32)"><tspan x="0" y="0">1</tspan></text><circle class="cls-1" cx="94.79" cy="308.95" r="16.1"/><text class="cls-4" transform="translate(88.95 316.25)"><tspan x="0" y="0">2</tspan></text></svg>