<?xml version="1.0" encoding="UTF-8"?><svg id="Layer_1" xmlns="http://www.w3.org/2000/svg" viewBox="0 0 500 430"><defs><style>.cls-1,.cls-2{stroke:#914938;stroke-miterlimit:10;stroke-width:2px;}.cls-1,.cls-3{fill:#914938;}.cls-4{fill:#f4ebd4;font-family:Roboto-Bold, Roboto;font-size:20.36px;font-weight:700;}.cls-2{fill:none;}.cls-3{stroke-width:0px;}</style></defs><path class="cls-3" d="m383.86,112.06v243.72h-26.28v-19.8h-226.8v-24.12h226.8v-175.68h-223.2v-24.12h249.48Z"/><line class="cls-2" x1="146.38" y1="95.06" x2="231.78" y2="95.06"/><line class="cls-2" x1="400.86" y1="128.14" x2="400.86" y2="189.8"/><line class="cls-2" x1="139.12" y1="294.86" x2="217.26" y2="294.86"/><polygon class="cls-1" points="230.62 95.06 230.69 90.31 236.51 92.76 242.34 95.22 236.45 97.51 230.56 99.81 230.62 95.06"/><polygon class="cls-1" points="214.24 294.86 214.3 290.11 220.13 292.56 225.96 295.02 220.07 297.31 214.18 299.61 214.24 294.86"/><polygon class="cls-1" points="400.86 187.67 405.61 187.73 403.15 193.56 400.7 199.39 398.4 193.5 396.11 187.61 400.86 187.67"/><circle class="cls-1" cx="118.47" cy="90.31" r="16.1"/><text class="cls-4" transform="translate(112.63 97.62)"><tspan x="0" y="0">1</tspan></text><circle class="cls-1" cx="110.49" cy="294.86" r="16.1"/><text class="cls-4" transform="translate(104.65 302.17)"><tspan x="0" y="0">2</tspan></text></svg>