<?xml version="1.0" encoding="UTF-8"?><svg id="Layer_1" xmlns="http://www.w3.org/2000/svg" viewBox="0 0 500 430"><defs><style>.cls-1,.cls-2{stroke:#914938;stroke-miterlimit:10;stroke-width:2px;}.cls-1,.cls-3{fill:#914938;}.cls-4{fill:#f4ebd4;font-family:Roboto-Bold, Roboto;font-size:20.36px;font-weight:700;}.cls-2{fill:none;}.cls-3{stroke-width:0px;}</style></defs><path class="cls-3" d="m415.78,204.6h-121.68l6.12,1.8c-.72,2.16-3.24,3.96-7.2,4.32-9.72,66.96-34.2,126.72-111.24,164.52-4.32-4.68-13.32-13.32-19.44-18,74.88-36,95.76-86.4,104.04-152.64H126.34v-24.12h289.44v24.12Zm-35.64-101.52h-221.04v-24.12h221.04v24.12Z"/><line class="cls-2" x1="159.1" y1="62.96" x2="253.24" y2="62.96"/><line class="cls-2" x1="126.34" y1="163.48" x2="220.31" y2="163.48"/><path class="cls-2" d="m307.96,228.25s-7.26,51.35-30.7,80.93"/><polygon class="cls-1" points="246.59 62.98 246.65 58.23 252.48 60.68 258.31 63.14 252.42 65.43 246.53 67.73 246.59 62.98"/><polygon class="cls-1" points="217.75 163.33 217.82 158.58 223.65 161.03 229.47 163.49 223.58 165.78 217.69 168.08 217.75 163.33"/><polygon class="cls-1" points="279.86 305.63 283.49 308.69 277.89 311.64 272.3 314.58 274.27 308.57 276.23 302.56 279.86 305.63"/><circle class="cls-1" cx="130.45" cy="70.85" r="16.1"/><text class="cls-4" transform="translate(124.61 78.16)"><tspan x="0" y="0">1</tspan></text><circle class="cls-1" cx="100.31" cy="171.32" r="16.1"/><text class="cls-4" transform="translate(94.47 178.62)"><tspan x="0" y="0">2</tspan></text><circle class="cls-1" cx="338.08" cy="229.36" r="16.1"/><text class="cls-4" transform="translate(332.24 236.67)"><tspan x="0" y="0">3</tspan></text></svg>