<?xml version="1.0" encoding="UTF-8"?><svg id="Layer_1" xmlns="http://www.w3.org/2000/svg" viewBox="0 0 500 430"><defs><style>.cls-1{stroke:#914938;stroke-miterlimit:10;stroke-width:2px;}.cls-1,.cls-2{fill:#914938;}.cls-3{fill:#f4ebd4;font-family:Roboto-Bold, Roboto;font-size:20.36px;font-weight:700;}.cls-2{stroke-width:0px;}</style></defs><path class="cls-2" d="m198.34,231.06c-16.56,42.12-40.32,79.92-68.04,106.92l-20.88-13.68c25.92-24.84,50.76-59.4,65.16-101.88l23.76,8.64Zm76.68-56.16v171.36c0,40.32-31.68,39.96-85.32,39.24-1.44-6.48-4.32-16.56-7.92-23.76,8.28.36,48.6,0,52.56,0,10.08,0,14.76-6.48,14.76-15.12v-171.72h-122.4v-24.12h122.4v-73.8l34.2,1.8c-.36,3.6-2.88,6.48-8.28,6.84v65.16h121.68v24.12h-121.68Zm64.44,45.36c26.28,29.16,56.52,71.28,75.96,104.76l-23.04,13.32c-17.64-33.12-49.32-79.2-73.44-106.56l20.52-11.52Z"/><line class="cls-1" x1="126.7" y1="134.78" x2="196.12" y2="134.78"/><line class="cls-1" x1="291.02" y1="87.62" x2="291.02" y2="137.03"/><path class="cls-1" d="m159.58,222.42s-9.64,29.47-23.21,49.58"/><path class="cls-1" d="m353.46,213.26s50.71,60.81,51.83,66.58"/><polygon class="cls-1" points="140.64 265.67 144.61 268.28 139.4 271.87 134.19 275.45 135.44 269.25 136.68 263.05 140.64 265.67"/><polygon class="cls-1" points="402.33 274.38 406.32 271.8 407.51 278.02 408.69 284.23 403.52 280.59 398.34 276.96 402.33 274.38"/><polygon class="cls-1" points="291.04 131.43 295.79 131.5 293.33 137.33 290.88 143.15 288.59 137.26 286.29 131.37 291.04 131.43"/><polygon class="cls-1" points="192.68 135.18 192.74 130.43 198.57 132.89 204.4 135.34 198.5 137.64 192.61 139.93 192.68 135.18"/><circle class="cls-1" cx="100.68" cy="140.74" r="16.1"/><text class="cls-3" transform="translate(94.84 148.05)"><tspan x="0" y="0">1</tspan></text><circle class="cls-1" cx="303.84" cy="60.42" r="16.1"/><text class="cls-3" transform="translate(298 67.73)"><tspan x="0" y="0">2</tspan></text><circle class="cls-1" cx="169.91" cy="201.33" r="16.1"/><text class="cls-3" transform="translate(164.07 208.64)"><tspan x="0" y="0">3</tspan></text><circle class="cls-1" cx="326.72" cy="199.96" r="16.1"/><text class="cls-3" transform="translate(320.89 207.26)"><tspan x="0" y="0">4</tspan></text></svg>