<?xml version="1.0" encoding="UTF-8"?><svg id="Layer_1" xmlns="http://www.w3.org/2000/svg" viewBox="0 0 500 430"><defs><style>.cls-1,.cls-2{stroke:#914938;stroke-miterlimit:10;stroke-width:2px;}.cls-1,.cls-3{fill:#914938;}.cls-4{fill:#f4ebd4;font-family:Roboto-Bold, Roboto;font-size:20.36px;font-weight:700;}.cls-2{fill:none;}.cls-3{stroke-width:0px;}</style></defs><path class="cls-3" d="m400.66,163.38v24.48h-89.28c-1.08,2.16-3.24,3.96-6.48,4.32-10.8,83.52-44.64,156.24-120.6,200.16-5.76-5.4-15.48-11.88-22.32-16.2,73.8-39.96,108-107.64,117-188.28h-100.08c-16.56,29.52-37.44,56.16-56.88,74.16-5.4-3.96-15.48-9.36-22.68-12.6,38.88-33.48,80.64-103.68,97.92-170.64l34.56,7.92c-.72,2.52-3.96,5.4-9.72,5.4-7.56,22.32-19.8,49.68-30.6,71.28h209.16Z"/><path class="cls-2" d="m180.26,80.55s-14.86,45.86-23.87,63.72"/><line class="cls-2" x1="212.12" y1="146.38" x2="277.24" y2="146.38"/><path class="cls-2" d="m319.46,209.53s-5.79,36.91-15.94,60.75"/><polygon class="cls-1" points="158.26 140.48 162.41 142.8 157.48 146.76 152.55 150.72 153.33 144.44 154.12 138.17 158.26 140.48"/><polygon class="cls-1" points="276.74 146.39 276.8 141.64 282.63 144.09 288.46 146.54 282.56 148.84 276.67 151.14 276.74 146.39"/><polygon class="cls-1" points="304.15 268.89 308.43 270.94 303.76 275.2 299.09 279.47 299.48 273.16 299.86 266.84 304.15 268.89"/><circle class="cls-1" cx="187.89" cy="53.76" r="16.1"/><text class="cls-4" transform="translate(182.05 61.06)"><tspan x="0" y="0">1</tspan></text><circle class="cls-1" cx="238.8" cy="119.5" r="16.1"/><text class="cls-4" transform="translate(232.96 126.81)"><tspan x="0" y="0">2</tspan></text><circle class="cls-1" cx="347.19" cy="211.66" r="16.1"/><text class="cls-4" transform="translate(341.35 218.97)"><tspan x="0" y="0">3</tspan></text></svg>