<?xml version="1.0" encoding="UTF-8"?><svg id="Layer_1" xmlns="http://www.w3.org/2000/svg" viewBox="0 0 500 430"><defs><style>.cls-1,.cls-2{stroke:#914938;stroke-miterlimit:10;stroke-width:2px;}.cls-1,.cls-3{fill:#914938;}.cls-4{fill:#f4ebd4;font-family:Roboto-Bold, Roboto;font-size:20.36px;font-weight:700;}.cls-2{fill:none;}.cls-3{stroke-width:0px;}</style></defs><path class="cls-3" d="m160.78,85.37h195.12l4.68-2.88,21.96,11.16c-.72,1.44-2.52,2.88-4.68,3.96-14.76,49.68-36.72,96.48-63.72,135.36,27.36,18.72,51.48,37.44,69.48,54.36l-17.64,21.96c-18-16.92-41.4-36-68.04-54.72-39.6,50.4-89.64,89.28-144,117-5.04-6.48-12.6-14.76-18.72-20.16,53.28-24.84,104.04-64.08,141.48-111.96-29.88-19.8-61.92-39.24-93.24-55.44l16.2-19.08c30.96,15.48,63.36,34.2,92.52,53.64,21.96-31.68,39.96-67.68,52.2-108.72h-183.6v-24.48Z"/><line class="cls-2" x1="160.78" y1="69.37" x2="252.57" y2="69.37"/><polygon class="cls-1" points="243.86 69.37 243.93 64.62 249.75 67.08 255.58 69.53 249.69 71.83 243.79 74.12 243.86 69.37"/><path class="cls-2" d="m286.67,291.86s-17.88,22.61-52.48,45.7"/><polygon class="cls-1" points="236.87 335.9 239.19 340.05 232.91 340.84 226.64 341.62 230.59 336.69 234.55 331.76 236.87 335.9"/><path class="cls-2" d="m205.66,150.93s39.42,20.11,59.52,33.5"/><polygon class="cls-1" points="259.11 180.36 261.4 176.19 265.39 181.1 269.38 186 263.1 185.26 256.82 184.52 259.11 180.36"/><circle class="cls-1" cx="132.48" cy="74.52" r="16.1"/><text class="cls-4" transform="translate(126.64 81.83)"><tspan x="0" y="0">1</tspan></text><circle class="cls-1" cx="173.78" cy="149.32" r="16.1"/><text class="cls-4" transform="translate(167.94 156.62)"><tspan x="0" y="0">2</tspan></text></svg>