<?xml version="1.0" encoding="UTF-8"?><svg id="Layer_1" xmlns="http://www.w3.org/2000/svg" viewBox="0 0 500 430"><defs><style>.cls-1,.cls-2{stroke:#914938;stroke-miterlimit:10;stroke-width:2px;}.cls-1,.cls-3{fill:#914938;}.cls-4{fill:#f4ebd4;font-family:Roboto-Bold, Roboto;font-size:20.36px;font-weight:700;}.cls-2{fill:none;}.cls-3{stroke-width:0px;}</style></defs><path class="cls-3" d="m173.44,75.68c-.72,3.24-3.96,5.76-9.36,6.48-10.44,45.36-18.72,108.36-18.72,148.68,0,24.84,1.08,46.08,3.6,60.48,7.92-16.2,25.56-50.4,36.72-71.28l16.56,16.92c-26.28,46.8-42.84,76.68-42.84,90.72,0,4.32,1.08,9,2.88,14.76l-25.2,5.04c-9.36-25.92-16.56-65.52-16.56-115.92,0-46.08,7.56-108,18-161.64l34.92,5.76Zm53.28,81.72c28.8,0,71.28-.72,97.2-2.52-2.16-41.76-4.68-91.44-5.76-99l37.08,1.44c-.36,3.96-3.96,7.2-9.72,8.28.72,19.8,2.52,56.52,3.96,87.84,24.48-2.16,50.76-5.76,70.56-11.16l2.52,25.56c-20.16,4.32-45.72,7.92-72.36,9.72,0,2.16.36,7.92.36,29.16,0,77.76-17.28,132.84-86.76,167.4-2.88-3.96-13.32-13.68-19.44-18,66.6-32.4,80.64-79.56,80.64-147.24l-.36-29.88c-24.12,1.44-65.52,2.52-97.56,2.52l-.36-24.12Z"/><path class="cls-2" d="m125.52,69.92s-23.7,121.79-18,178.15"/><path class="cls-2" d="m232.72,142.4s110.04,3.63,162.8-8.8"/><path class="cls-2" d="m361.39,86.72s10.8,128.87-1.07,182.09"/><circle class="cls-1" cx="93.54" cy="75.89" r="16.1"/><text class="cls-4" transform="translate(87.7 83.19)"><tspan x="0" y="0">1</tspan></text><circle class="cls-1" cx="253.08" cy="113.8" r="16.1"/><text class="cls-4" transform="translate(247.24 121.11)"><tspan x="0" y="0">2</tspan></text><circle class="cls-1" cx="392.01" cy="95.94" r="16.1"/><text class="cls-4" transform="translate(386.18 103.24)"><tspan x="0" y="0">3</tspan></text><polygon class="cls-1" points="107.14 242.84 111.87 242.4 110.04 248.46 108.21 254.51 105.31 248.89 102.41 243.27 107.14 242.84"/><polygon class="cls-1" points="390.04 134.88 389.23 130.2 395.41 131.55 401.59 132.91 396.21 136.24 390.84 139.56 390.04 134.88"/><polygon class="cls-1" points="361.27 263.67 365.89 264.79 362.2 269.93 358.51 275.06 357.58 268.81 356.66 262.55 361.27 263.67"/></svg>