<?xml version="1.0" encoding="UTF-8"?><svg id="Layer_1" xmlns="http://www.w3.org/2000/svg" viewBox="0 0 500 430"><defs><style>.cls-1,.cls-2{stroke:#914938;stroke-miterlimit:10;stroke-width:2px;}.cls-1,.cls-3{fill:#914938;}.cls-4{fill:#f4ebd4;font-family:Roboto-Bold, Roboto;font-size:20.36px;font-weight:700;}.cls-2{fill:none;}.cls-3{stroke-width:0px;}</style></defs><path class="cls-3" d="m392.74,184.44c-32.4,11.16-71.64,18-108.72,22.32,11.16,19.44,33.12,46.44,59.4,56.52l-14.4,20.52c-5.04-2.52-14.4-6.84-20.88-10.8-7.92-2.88-25.56-5.4-42.48-5.4-5.04,0-10.08.36-14.76.72l-5.04-19.8c12.24-.72,29.88,0,40.32,1.44-9.72-10.44-21.24-25.92-28.44-40.68-24.12,2.52-50.76,3.6-96.48,3.6-17.64,0-37.44,0-53.64-.36l-.36-22.68c16.2.36,37.08.72,55.08.72,29.52,0,58.68,0,87.84-2.52-3.96-11.16-9.72-31.68-14.04-47.88-14.4,1.44-30.6,2.16-45.36,2.16-19.44,0-44.28,0-61.2-.72v-22.32c21.6,1.08,45.36,1.08,60.84,1.08,12.96,0,27.72-.72,41.4-1.8-3.24-16.56-6.84-36.36-9.72-56.52l37.08.36c0,4.32-3.24,6.84-9.72,7.92,2.16,15.48,4.68,32.04,7.56,46.08,33.84-3.24,70.2-10.44,96.48-20.88l6.12,22.32c-26.28,9.72-61.92,16.56-97.92,20.52,4.68,19.08,9.36,36,13.68,47.16,38.16-3.96,79.56-12.24,112.32-23.76l5.04,22.68Zm-63.36,190.44c-19.8,1.44-43.56,2.16-79.2,2.16-58.32-.36-103.68-19.08-102.96-59.76.36-21.24,19.08-43.92,42.48-56.88l16.2,16.56c-20.88,11.16-33.12,26.28-33.12,39.96,0,25.56,31.68,36.72,77.4,37.08,27,0,55.44-1.44,79.92-3.24l-.72,24.12Z"/><path class="cls-2" d="m154.96,107s84.05,5.07,170.95-15.67"/><path class="cls-2" d="m149.95,177.51s108.44,6.1,203.24-18.78"/><path class="cls-2" d="m266.35,81.89s8.49,100.95,54.79,151.85"/><path class="cls-2" d="m209.93,286.2s-32.47,12.98-23.13,38.6c10.74,29.46,107.29,15.68,100.15,17.03"/><circle class="cls-1" cx="149.95" cy="81.89" r="16.1"/><text class="cls-4" transform="translate(144.11 89.19)"><tspan x="0" y="0">1</tspan></text><circle class="cls-1" cx="127.32" cy="164.9" r="16.1"/><text class="cls-4" transform="translate(121.48 172.2)"><tspan x="0" y="0">2</tspan></text><circle class="cls-1" cx="288.22" cy="69.06" r="16.1"/><text class="cls-4" transform="translate(282.38 76.36)"><tspan x="0" y="0">3</tspan></text><circle class="cls-1" cx="230.74" cy="281.8" r="16.1"/><text class="cls-4" transform="translate(224.9 289.1)"><tspan x="0" y="0">4</tspan></text><polygon class="cls-1" points="324.43 91.28 323.49 86.63 329.71 87.79 335.92 88.95 330.65 92.45 325.38 95.94 324.43 91.28"/><polygon class="cls-1" points="350.57 159.3 349.63 154.64 355.84 155.81 362.06 156.97 356.79 160.46 351.51 163.95 350.57 159.3"/><polygon class="cls-1" points="317.82 230.2 321.28 226.95 323.56 232.85 325.83 238.75 320.09 236.1 314.35 233.45 317.82 230.2"/><polygon class="cls-1" points="284.85 342.03 284.27 337.31 290.38 338.95 296.48 340.59 290.96 343.66 285.43 346.74 284.85 342.03"/></svg>