<?xml version="1.0" encoding="utf-8"?>
<!-- Generator: Adobe Illustrator 27.9.0, SVG Export Plug-In . SVG Version: 6.00 Build 0)  -->
<svg version="1.1" id="Layer_1" shape-rendering="crispEdges"
	 xmlns="http://www.w3.org/2000/svg" xmlns:xlink="http://www.w3.org/1999/xlink" x="0px" y="0px" viewBox="0 0 192 192"
	 style="enable-background:new 0 0 192 192;" xml:space="preserve">
<style type="text/css">
	.st0{fill:#FF9648;}
	.st1{fill:#8E3465;}
	.st2{fill:#8D5386;}
	.st3{fill:#F1B5AE;}
	.st4{fill:#E25C72;}
	.st5{fill:#C73D62;}
	.st6{fill:#733C81;}
	.st7{fill:#AA3963;}
	.st8{fill:#981D48;}
	.st9{fill:#BDE1EB;}
	.st10{fill:#5CABE1;}
	.st11{fill:#E75D81;}
	.st12{fill:#D45D82;}
	.st13{fill:#ECC98B;}
	.st14{fill:#E0603D;}
	.st15{fill:#E36C74;}
	.st16{fill:#E6C874;}
	.st17{fill:#EA9571;}
	.st18{fill:#EDE5B7;}
</style>
<g>
	<rect x="79.5" y="20.2" class="st0" width="5.5" height="5.5"/>
	<rect x="85" y="20.2" class="st0" width="5.5" height="5.5"/>
	<rect x="101.5" y="20.2" class="st0" width="5.5" height="5.5"/>
	<rect x="107" y="20.2" class="st0" width="5.5" height="5.5"/>
	<rect x="68.6" y="25.7" class="st0" width="5.5" height="5.5"/>
	<rect x="74.1" y="25.7" class="st0" width="5.5" height="5.5"/>
	<rect x="79.5" y="25.7" class="st1" width="5.5" height="5.5"/>
	<rect x="85" y="25.7" class="st1" width="5.5" height="5.5"/>
	<rect x="90.5" y="25.7" class="st0" width="5.5" height="5.5"/>
	<rect x="96" y="25.7" class="st0" width="5.5" height="5.5"/>
	<rect x="101.5" y="25.7" class="st2" width="5.5" height="5.5"/>
	<rect x="107" y="25.7" class="st2" width="5.5" height="5.5"/>
	<rect x="112.5" y="25.7" class="st0" width="5.5" height="5.5"/>
	<rect x="117.9" y="25.7" class="st0" width="5.5" height="5.5"/>
	<rect x="57.6" y="31.2" class="st0" width="5.5" height="5.5"/>
	<rect x="63.1" y="31.2" class="st0" width="5.5" height="5.5"/>
	<rect x="68.6" y="31.2" class="st1" width="5.5" height="5.5"/>
	<rect x="74.1" y="31.2" class="st1" width="5.5" height="5.5"/>
	<rect x="79.5" y="31.2" class="st3" width="5.5" height="5.5"/>
	<rect x="85" y="31.2" class="st1" width="5.5" height="5.5"/>
	<rect x="90.5" y="31.2" class="st0" width="5.5" height="5.5"/>
	<rect x="96" y="31.2" class="st0" width="5.5" height="5.5"/>
	<rect x="101.5" y="31.2" class="st2" width="5.5" height="5.5"/>
	<rect x="107" y="31.2" class="st3" width="5.5" height="5.5"/>
	<rect x="112.5" y="31.2" class="st2" width="5.5" height="5.5"/>
	<rect x="117.9" y="31.2" class="st1" width="5.5" height="5.5"/>
	<rect x="123.4" y="31.2" class="st0" width="5.5" height="5.5"/>
	<rect x="128.9" y="31.2" class="st0" width="5.5" height="5.5"/>
	<rect x="52.1" y="36.7" class="st0" width="5.5" height="5.5"/>
	<rect x="57.6" y="36.7" class="st1" width="5.5" height="5.5"/>
	<rect x="63.1" y="36.7" class="st1" width="5.5" height="5.5"/>
	<rect x="68.6" y="36.7" class="st4" width="5.5" height="5.5"/>
	<rect x="74.1" y="36.7" class="st5" width="5.5" height="5.5"/>
	<rect x="79.5" y="36.7" class="st4" width="5.5" height="5.5"/>
	<rect x="85" y="36.7" class="st3" width="5.5" height="5.5"/>
	<rect x="90.5" y="36.7" class="st1" width="5.5" height="5.5"/>
	<rect x="96" y="36.7" class="st1" width="5.5" height="5.5"/>
	<rect x="101.5" y="36.7" class="st3" width="5.5" height="5.5"/>
	<rect x="107" y="36.7" class="st5" width="5.5" height="5.5"/>
	<rect x="112.5" y="36.7" class="st4" width="5.5" height="5.5"/>
	<rect x="117.9" y="36.7" class="st2" width="5.5" height="5.5"/>
	<rect x="123.4" y="36.7" class="st1" width="5.5" height="5.5"/>
	<rect x="128.9" y="36.7" class="st1" width="5.5" height="5.5"/>
	<rect x="134.4" y="36.7" class="st0" width="5.5" height="5.5"/>
	<rect x="46.6" y="42.1" class="st0" width="5.5" height="5.5"/>
	<rect x="52.1" y="42.1" class="st1" width="5.5" height="5.5"/>
	<rect x="57.6" y="42.1" class="st5" width="5.5" height="5.5"/>
	<rect x="63.1" y="42.1" class="st5" width="5.5" height="5.5"/>
	<rect x="68.6" y="42.1" class="st1" width="5.5" height="5.5"/>
	<rect x="74.1" y="42.1" class="st4" width="5.5" height="5.5"/>
	<rect x="79.5" y="42.1" class="st5" width="5.5" height="5.5"/>
	<rect x="85" y="42.1" class="st4" width="5.5" height="5.5"/>
	<rect x="90.5" y="42.1" class="st3" width="5.5" height="5.5"/>
	<rect x="96" y="42.1" class="st3" width="5.5" height="5.5"/>
	<rect x="101.5" y="42.1" class="st5" width="5.5" height="5.5"/>
	<rect x="107" y="42.1" class="st4" width="5.5" height="5.5"/>
	<rect x="112.5" y="42.1" class="st2" width="5.5" height="5.5"/>
	<rect x="117.9" y="42.1" class="st5" width="5.5" height="5.5"/>
	<rect x="123.4" y="42.1" class="st5" width="5.5" height="5.5"/>
	<rect x="128.9" y="42.1" class="st5" width="5.5" height="5.5"/>
	<rect x="134.4" y="42.1" class="st1" width="5.5" height="5.5"/>
	<rect x="139.9" y="42.1" class="st0" width="5.5" height="5.5"/>
	<rect x="35.7" y="47.6" class="st0" width="5.5" height="5.5"/>
	<rect x="41.1" y="47.6" class="st0" width="5.5" height="5.5"/>
	<rect x="46.6" y="47.6" class="st1" width="5.5" height="5.5"/>
	<rect x="52.1" y="47.6" class="st5" width="5.5" height="5.5"/>
	<rect x="57.6" y="47.6" class="st5" width="5.5" height="5.5"/>
	<rect x="63.1" y="47.6" class="st5" width="5.5" height="5.5"/>
	<rect x="68.6" y="47.6" class="st5" width="5.5" height="5.5"/>
	<rect x="74.1" y="47.6" class="st1" width="5.5" height="5.5"/>
	<rect x="79.5" y="47.6" class="st4" width="5.5" height="5.5"/>
	<rect x="85" y="47.6" class="st5" width="5.5" height="5.5"/>
	<rect x="90.5" y="47.6" class="st4" width="5.5" height="5.5"/>
	<rect x="96" y="47.6" class="st5" width="5.5" height="5.5"/>
	<rect x="101.5" y="47.6" class="st4" width="5.5" height="5.5"/>
	<rect x="107" y="47.6" class="st2" width="5.5" height="5.5"/>
	<rect x="112.5" y="47.6" class="st5" width="5.5" height="5.5"/>
	<rect x="117.9" y="47.6" class="st5" width="5.5" height="5.5"/>
	<rect x="123.4" y="47.6" class="st5" width="5.5" height="5.5"/>
	<rect x="128.9" y="47.6" class="st5" width="5.5" height="5.5"/>
	<rect x="134.4" y="47.6" class="st5" width="5.5" height="5.5"/>
	<rect x="139.9" y="47.6" class="st2" width="5.5" height="5.5"/>
	<rect x="145.4" y="47.6" class="st0" width="5.5" height="5.5"/>
	<rect x="150.9" y="47.6" class="st0" width="5.5" height="5.5"/>
	<rect x="30.2" y="53.1" class="st0" width="5.5" height="5.5"/>
	<rect x="35.7" y="53.1" class="st1" width="5.5" height="5.5"/>
	<rect x="41.1" y="53.1" class="st1" width="5.5" height="5.5"/>
	<rect x="46.6" y="53.1" class="st5" width="5.5" height="5.5"/>
	<rect x="52.1" y="53.1" class="st5" width="5.5" height="5.5"/>
	<rect x="57.6" y="53.1" class="st1" width="5.5" height="5.5"/>
	<rect x="63.1" y="53.1" class="st5" width="5.5" height="5.5"/>
	<rect x="68.6" y="53.1" class="st5" width="5.5" height="5.5"/>
	<rect x="74.1" y="53.1" class="st5" width="5.5" height="5.5"/>
	<rect x="79.5" y="53.1" class="st1" width="5.5" height="5.5"/>
	<rect x="85" y="53.1" class="st4" width="5.5" height="5.5"/>
	<rect x="90.5" y="53.1" class="st5" width="5.5" height="5.5"/>
	<rect x="96" y="53.1" class="st4" width="5.5" height="5.5"/>
	<rect x="101.5" y="53.1" class="st2" width="5.5" height="5.5"/>
	<rect x="107" y="53.1" class="st5" width="5.5" height="5.5"/>
	<rect x="112.5" y="53.1" class="st5" width="5.5" height="5.5"/>
	<rect x="117.9" y="53.1" class="st5" width="5.5" height="5.5"/>
	<rect x="123.4" y="53.1" class="st5" width="5.5" height="5.5"/>
	<rect x="128.9" y="53.1" class="st2" width="5.5" height="5.5"/>
	<rect x="134.4" y="53.1" class="st5" width="5.5" height="5.5"/>
	<rect x="139.9" y="53.1" class="st5" width="5.5" height="5.5"/>
	<rect x="145.4" y="53.1" class="st2" width="5.5" height="5.5"/>
	<rect x="150.9" y="53.1" class="st2" width="5.5" height="5.5"/>
	<rect x="156.3" y="53.1" class="st0" width="5.5" height="5.5"/>
	<rect x="24.7" y="58.6" class="st0" width="5.5" height="5.5"/>
	<rect x="30.2" y="58.6" class="st1" width="5.5" height="5.5"/>
	<rect x="35.7" y="58.6" class="st5" width="5.5" height="5.5"/>
	<rect x="41.1" y="58.6" class="st5" width="5.5" height="5.5"/>
	<rect x="46.6" y="58.6" class="st5" width="5.5" height="5.5"/>
	<rect x="52.1" y="58.6" class="st5" width="5.5" height="5.5"/>
	<rect x="57.6" y="58.6" class="st5" width="5.5" height="5.5"/>
	<rect x="63.1" y="58.6" class="st6" width="5.5" height="5.5"/>
	<rect x="68.6" y="58.6" class="st5" width="5.5" height="5.5"/>
	<rect x="74.1" y="58.6" class="st5" width="5.5" height="5.5"/>
	<rect x="79.5" y="58.6" class="st4" width="5.5" height="5.5"/>
	<rect x="85" y="58.6" class="st5" width="5.5" height="5.5"/>
	<rect x="90.5" y="58.6" class="st4" width="5.5" height="5.5"/>
	<rect x="96" y="58.6" class="st2" width="5.5" height="5.5"/>
	<rect x="101.5" y="58.6" class="st5" width="5.5" height="5.5"/>
	<rect x="107" y="58.6" class="st5" width="5.5" height="5.5"/>
	<rect x="112.5" y="58.6" class="st5" width="5.5" height="5.5"/>
	<rect x="117.9" y="58.6" class="st5" width="5.5" height="5.5"/>
	<rect x="123.4" y="58.6" class="st1" width="5.5" height="5.5"/>
	<rect x="128.9" y="58.6" class="st5" width="5.5" height="5.5"/>
	<rect x="134.4" y="58.6" class="st5" width="5.5" height="5.5"/>
	<rect x="139.9" y="58.6" class="st5" width="5.5" height="5.5"/>
	<rect x="145.4" y="58.6" class="st5" width="5.5" height="5.5"/>
	<rect x="150.9" y="58.6" class="st5" width="5.5" height="5.5"/>
	<rect x="156.3" y="58.6" class="st1" width="5.5" height="5.5"/>
	<rect x="161.8" y="58.6" class="st0" width="5.5" height="5.5"/>
	<rect x="19.2" y="64.1" class="st0" width="5.5" height="5.5"/>
	<rect x="24.7" y="64.1" class="st1" width="5.5" height="5.5"/>
	<rect x="30.2" y="64.1" class="st5" width="5.5" height="5.5"/>
	<rect x="35.7" y="64.1" class="st5" width="5.5" height="5.5"/>
	<rect x="41.1" y="64.1" class="st5" width="5.5" height="5.5"/>
	<rect x="46.6" y="64.1" class="st5" width="5.5" height="5.5"/>
	<rect x="52.1" y="64.1" class="st7" width="5.5" height="5.5"/>
	<rect x="57.6" y="64.1" class="st6" width="5.5" height="5.5"/>
	<rect x="63.1" y="64.1" class="st0" width="5.5" height="5.5"/>
	<rect x="68.6" y="64.1" class="st6" width="5.5" height="5.5"/>
	<rect x="74.1" y="64.1" class="st4" width="5.5" height="5.5"/>
	<rect x="79.5" y="64.1" class="st5" width="5.5" height="5.5"/>
	<rect x="85" y="64.1" class="st4" width="5.5" height="5.5"/>
	<rect x="90.5" y="64.1" class="st2" width="5.5" height="5.5"/>
	<rect x="96" y="64.1" class="st5" width="5.5" height="5.5"/>
	<rect x="101.5" y="64.1" class="st5" width="5.5" height="5.5"/>
	<rect x="107" y="64.1" class="st5" width="5.5" height="5.5"/>
	<rect x="112.5" y="64.1" class="st5" width="5.5" height="5.5"/>
	<rect x="117.9" y="64.1" class="st1" width="5.5" height="5.5"/>
	<rect x="123.4" y="64.1" class="st0" width="5.5" height="5.5"/>
	<rect x="128.9" y="64.1" class="st1" width="5.5" height="5.5"/>
	<rect x="134.4" y="64.1" class="st7" width="5.5" height="5.5"/>
	<rect x="139.9" y="64.1" class="st5" width="5.5" height="5.5"/>
	<rect x="145.4" y="64.1" class="st5" width="5.5" height="5.5"/>
	<rect x="150.9" y="64.1" class="st5" width="5.5" height="5.5"/>
	<rect x="156.3" y="64.1" class="st5" width="5.5" height="5.5"/>
	<rect x="161.8" y="64.1" class="st1" width="5.5" height="5.5"/>
	<rect x="167.3" y="64.1" class="st0" width="5.5" height="5.5"/>
	<rect x="13.7" y="69.6" class="st0" width="5.5" height="5.5"/>
	<rect x="19.2" y="69.6" class="st1" width="5.5" height="5.5"/>
	<rect x="24.7" y="69.6" class="st5" width="5.5" height="5.5"/>
	<rect x="30.2" y="69.6" class="st5" width="5.5" height="5.5"/>
	<rect x="35.7" y="69.6" class="st5" width="5.5" height="5.5"/>
	<rect x="41.1" y="69.6" class="st5" width="5.5" height="5.5"/>
	<rect x="46.6" y="69.6" class="st7" width="5.5" height="5.5"/>
	<rect x="52.1" y="69.6" class="st5" width="5.5" height="5.5"/>
	<rect x="57.6" y="69.6" class="st6" width="5.5" height="5.5"/>
	<rect x="63.1" y="69.6" class="st0" width="5.5" height="5.5"/>
	<rect x="68.6" y="69.6" class="st8" width="5.5" height="5.5"/>
	<rect x="74.1" y="69.6" class="st9" width="5.5" height="5.5"/>
	<rect x="79.5" y="69.6" class="st9" width="5.5" height="5.5"/>
	<rect x="85" y="69.6" class="st9" width="5.5" height="5.5"/>
	<rect x="90.5" y="69.6" class="st9" width="5.5" height="5.5"/>
	<rect x="96" y="69.6" class="st10" width="5.5" height="5.5"/>
	<rect x="101.5" y="69.6" class="st11" width="5.5" height="5.5"/>
	<rect x="107" y="69.6" class="st10" width="5.5" height="5.5"/>
	<rect x="112.5" y="69.6" class="st9" width="5.5" height="5.5"/>
	<rect x="117.9" y="69.6" class="st1" width="5.5" height="5.5"/>
	<rect x="123.4" y="69.6" class="st0" width="5.5" height="5.5"/>
	<rect x="128.9" y="69.6" class="st1" width="5.5" height="5.5"/>
	<rect x="134.4" y="69.6" class="st5" width="5.5" height="5.5"/>
	<rect x="139.9" y="69.6" class="st7" width="5.5" height="5.5"/>
	<rect x="145.4" y="69.6" class="st5" width="5.5" height="5.5"/>
	<rect x="150.9" y="69.6" class="st5" width="5.5" height="5.5"/>
	<rect x="156.3" y="69.6" class="st5" width="5.5" height="5.5"/>
	<rect x="161.8" y="69.6" class="st5" width="5.5" height="5.5"/>
	<rect x="167.3" y="69.6" class="st2" width="5.5" height="5.5"/>
	<rect x="172.8" y="69.6" class="st0" width="5.5" height="5.5"/>
	<rect x="13.7" y="75.1" class="st0" width="5.5" height="5.5"/>
	<rect x="19.2" y="75.1" class="st1" width="5.5" height="5.5"/>
	<rect x="24.7" y="75.1" class="st5" width="5.5" height="5.5"/>
	<rect x="30.2" y="75.1" class="st5" width="5.5" height="5.5"/>
	<rect x="35.7" y="75.1" class="st5" width="5.5" height="5.5"/>
	<rect x="41.1" y="75.1" class="st5" width="5.5" height="5.5"/>
	<rect x="46.6" y="75.1" class="st5" width="5.5" height="5.5"/>
	<rect x="52.1" y="75.1" class="st7" width="5.5" height="5.5"/>
	<rect x="57.6" y="75.1" class="st6" width="5.5" height="5.5"/>
	<rect x="63.1" y="75.1" class="st0" width="5.5" height="5.5"/>
	<rect x="68.6" y="75.1" class="st6" width="5.5" height="5.5"/>
	<rect x="74.1" y="75.1" class="st10" width="5.5" height="5.5"/>
	<rect x="79.5" y="75.1" class="st10" width="5.5" height="5.5"/>
	<rect x="85" y="75.1" class="st10" width="5.5" height="5.5"/>
	<rect x="90.5" y="75.1" class="st10" width="5.5" height="5.5"/>
	<rect x="96" y="75.1" class="st12" width="5.5" height="5.5"/>
	<rect x="101.5" y="75.1" class="st13" width="5.5" height="5.5"/>
	<rect x="107" y="75.1" class="st12" width="5.5" height="5.5"/>
	<rect x="112.5" y="75.1" class="st10" width="5.5" height="5.5"/>
	<rect x="117.9" y="75.1" class="st1" width="5.5" height="5.5"/>
	<rect x="123.4" y="75.1" class="st0" width="5.5" height="5.5"/>
	<rect x="128.9" y="75.1" class="st1" width="5.5" height="5.5"/>
	<rect x="134.4" y="75.1" class="st7" width="5.5" height="5.5"/>
	<rect x="139.9" y="75.1" class="st5" width="5.5" height="5.5"/>
	<rect x="145.4" y="75.1" class="st5" width="5.5" height="5.5"/>
	<rect x="150.9" y="75.1" class="st5" width="5.5" height="5.5"/>
	<rect x="156.3" y="75.1" class="st5" width="5.5" height="5.5"/>
	<rect x="161.8" y="75.1" class="st5" width="5.5" height="5.5"/>
	<rect x="167.3" y="75.1" class="st2" width="5.5" height="5.5"/>
	<rect x="172.8" y="75.1" class="st0" width="5.5" height="5.5"/>
	<rect x="13.7" y="80.5" class="st0" width="5.5" height="5.5"/>
	<rect x="19.2" y="80.5" class="st1" width="5.5" height="5.5"/>
	<rect x="24.7" y="80.5" class="st5" width="5.5" height="5.5"/>
	<rect x="30.2" y="80.5" class="st5" width="5.5" height="5.5"/>
	<rect x="35.7" y="80.5" class="st5" width="5.5" height="5.5"/>
	<rect x="41.1" y="80.5" class="st5" width="5.5" height="5.5"/>
	<rect x="46.6" y="80.5" class="st7" width="5.5" height="5.5"/>
	<rect x="52.1" y="80.5" class="st5" width="5.5" height="5.5"/>
	<rect x="57.6" y="80.5" class="st6" width="5.5" height="5.5"/>
	<rect x="63.1" y="80.5" class="st0" width="5.5" height="5.5"/>
	<rect x="68.6" y="80.5" class="st8" width="5.5" height="5.5"/>
	<rect x="74.1" y="80.5" class="st9" width="5.5" height="5.5"/>
	<rect x="79.5" y="80.5" class="st9" width="5.5" height="5.5"/>
	<rect x="85" y="80.5" class="st9" width="5.5" height="5.5"/>
	<rect x="90.5" y="80.5" class="st9" width="5.5" height="5.5"/>
	<rect x="96" y="80.5" class="st10" width="5.5" height="5.5"/>
	<rect x="101.5" y="80.5" class="st11" width="5.5" height="5.5"/>
	<rect x="107" y="80.5" class="st10" width="5.5" height="5.5"/>
	<rect x="112.5" y="80.5" class="st9" width="5.5" height="5.5"/>
	<rect x="117.9" y="80.5" class="st2" width="5.5" height="5.5"/>
	<rect x="123.4" y="80.5" class="st0" width="5.5" height="5.5"/>
	<rect x="128.9" y="80.5" class="st1" width="5.5" height="5.5"/>
	<rect x="134.4" y="80.5" class="st5" width="5.5" height="5.5"/>
	<rect x="139.9" y="80.5" class="st7" width="5.5" height="5.5"/>
	<rect x="145.4" y="80.5" class="st5" width="5.5" height="5.5"/>
	<rect x="150.9" y="80.5" class="st5" width="5.5" height="5.5"/>
	<rect x="156.3" y="80.5" class="st5" width="5.5" height="5.5"/>
	<rect x="161.8" y="80.5" class="st5" width="5.5" height="5.5"/>
	<rect x="167.3" y="80.5" class="st2" width="5.5" height="5.5"/>
	<rect x="172.8" y="80.5" class="st0" width="5.5" height="5.5"/>
	<rect x="13.7" y="86" class="st0" width="5.5" height="5.5"/>
	<rect x="19.2" y="86" class="st2" width="5.5" height="5.5"/>
	<rect x="24.7" y="86" class="st14" width="5.5" height="5.5"/>
	<rect x="30.2" y="86" class="st5" width="5.5" height="5.5"/>
	<rect x="35.7" y="86" class="st14" width="5.5" height="5.5"/>
	<rect x="41.1" y="86" class="st5" width="5.5" height="5.5"/>
	<rect x="46.6" y="86" class="st15" width="5.5" height="5.5"/>
	<rect x="52.1" y="86" class="st1" width="5.5" height="5.5"/>
	<rect x="57.6" y="86" class="st0" width="5.5" height="5.5"/>
	<rect x="63.1" y="86" class="st0" width="5.5" height="5.5"/>
	<rect x="68.6" y="86" class="st8" width="5.5" height="5.5"/>
	<rect x="74.1" y="86" class="st9" width="5.5" height="5.5"/>
	<rect x="79.5" y="86" class="st9" width="5.5" height="5.5"/>
	<rect x="85" y="86" class="st9" width="5.5" height="5.5"/>
	<rect x="90.5" y="86" class="st9" width="5.5" height="5.5"/>
	<rect x="96" y="86" class="st9" width="5.5" height="5.5"/>
	<rect x="101.5" y="86" class="st9" width="5.5" height="5.5"/>
	<rect x="107" y="86" class="st9" width="5.5" height="5.5"/>
	<rect x="112.5" y="86" class="st9" width="5.5" height="5.5"/>
	<rect x="117.9" y="86" class="st2" width="5.5" height="5.5"/>
	<rect x="123.4" y="86" class="st0" width="5.5" height="5.5"/>
	<rect x="128.9" y="86" class="st0" width="5.5" height="5.5"/>
	<rect x="134.4" y="86" class="st1" width="5.5" height="5.5"/>
	<rect x="139.9" y="86" class="st15" width="5.5" height="5.5"/>
	<rect x="145.4" y="86" class="st5" width="5.5" height="5.5"/>
	<rect x="150.9" y="86" class="st14" width="5.5" height="5.5"/>
	<rect x="156.3" y="86" class="st5" width="5.5" height="5.5"/>
	<rect x="161.8" y="86" class="st14" width="5.5" height="5.5"/>
	<rect x="167.3" y="86" class="st2" width="5.5" height="5.5"/>
	<rect x="172.8" y="86" class="st0" width="5.5" height="5.5"/>
	<rect x="13.7" y="91.5" class="st0" width="5.5" height="5.5"/>
	<rect x="19.2" y="91.5" class="st15" width="5.5" height="5.5"/>
	<rect x="24.7" y="91.5" class="st5" width="5.5" height="5.5"/>
	<rect x="30.2" y="91.5" class="st16" width="5.5" height="5.5"/>
	<rect x="35.7" y="91.5" class="st5" width="5.5" height="5.5"/>
	<rect x="41.1" y="91.5" class="st16" width="5.5" height="5.5"/>
	<rect x="46.6" y="91.5" class="st5" width="5.5" height="5.5"/>
	<rect x="52.1" y="91.5" class="st15" width="5.5" height="5.5"/>
	<rect x="57.6" y="91.5" class="st0" width="5.5" height="5.5"/>
	<rect x="63.1" y="91.5" class="st0" width="5.5" height="5.5"/>
	<rect x="68.6" y="91.5" class="st1" width="5.5" height="5.5"/>
	<rect x="74.1" y="91.5" class="st8" width="5.5" height="5.5"/>
	<rect x="79.5" y="91.5" class="st7" width="5.5" height="5.5"/>
	<rect x="85" y="91.5" class="st5" width="5.5" height="5.5"/>
	<rect x="90.5" y="91.5" class="st17" width="5.5" height="5.5"/>
	<rect x="96" y="91.5" class="st5" width="5.5" height="5.5"/>
	<rect x="101.5" y="91.5" class="st17" width="5.5" height="5.5"/>
	<rect x="107" y="91.5" class="st5" width="5.5" height="5.5"/>
	<rect x="112.5" y="91.5" class="st17" width="5.5" height="5.5"/>
	<rect x="117.9" y="91.5" class="st1" width="5.5" height="5.5"/>
	<rect x="123.4" y="91.5" class="st0" width="5.5" height="5.5"/>
	<rect x="128.9" y="91.5" class="st0" width="5.5" height="5.5"/>
	<rect x="134.4" y="91.5" class="st1" width="5.5" height="5.5"/>
	<rect x="139.9" y="91.5" class="st5" width="5.5" height="5.5"/>
	<rect x="145.4" y="91.5" class="st16" width="5.5" height="5.5"/>
	<rect x="150.9" y="91.5" class="st5" width="5.5" height="5.5"/>
	<rect x="156.3" y="91.5" class="st16" width="5.5" height="5.5"/>
	<rect x="161.8" y="91.5" class="st5" width="5.5" height="5.5"/>
	<rect x="167.3" y="91.5" class="st1" width="5.5" height="5.5"/>
	<rect x="172.8" y="91.5" class="st0" width="5.5" height="5.5"/>
	<rect x="13.7" y="97" class="st0" width="5.5" height="5.5"/>
	<rect x="19.2" y="97" class="st2" width="5.5" height="5.5"/>
	<rect x="24.7" y="97" class="st18" width="5.5" height="5.5"/>
	<rect x="30.2" y="97" class="st10" width="5.5" height="5.5"/>
	<rect x="35.7" y="97" class="st18" width="5.5" height="5.5"/>
	<rect x="41.1" y="97" class="st10" width="5.5" height="5.5"/>
	<rect x="46.6" y="97" class="st18" width="5.5" height="5.5"/>
	<rect x="52.1" y="97" class="st2" width="5.5" height="5.5"/>
	<rect x="57.6" y="97" class="st0" width="5.5" height="5.5"/>
	<rect x="63.1" y="97" class="st0" width="5.5" height="5.5"/>
	<rect x="68.6" y="97" class="st1" width="5.5" height="5.5"/>
	<rect x="74.1" y="97" class="st7" width="5.5" height="5.5"/>
	<rect x="79.5" y="97" class="st5" width="5.5" height="5.5"/>
	<rect x="85" y="97" class="st15" width="5.5" height="5.5"/>
	<rect x="90.5" y="97" class="st5" width="5.5" height="5.5"/>
	<rect x="96" y="97" class="st17" width="5.5" height="5.5"/>
	<rect x="101.5" y="97" class="st5" width="5.5" height="5.5"/>
	<rect x="107" y="97" class="st17" width="5.5" height="5.5"/>
	<rect x="112.5" y="97" class="st14" width="5.5" height="5.5"/>
	<rect x="117.9" y="97" class="st1" width="5.5" height="5.5"/>
	<rect x="123.4" y="97" class="st0" width="5.5" height="5.5"/>
	<rect x="128.9" y="97" class="st0" width="5.5" height="5.5"/>
	<rect x="134.4" y="97" class="st2" width="5.5" height="5.5"/>
	<rect x="139.9" y="97" class="st18" width="5.5" height="5.5"/>
	<rect x="145.4" y="97" class="st10" width="5.5" height="5.5"/>
	<rect x="150.9" y="97" class="st18" width="5.5" height="5.5"/>
	<rect x="156.3" y="97" class="st10" width="5.5" height="5.5"/>
	<rect x="161.8" y="97" class="st18" width="5.5" height="5.5"/>
	<rect x="167.3" y="97" class="st2" width="5.5" height="5.5"/>
	<rect x="172.8" y="97" class="st0" width="5.5" height="5.5"/>
	<rect x="13.7" y="102.5" class="st0" width="5.5" height="5.5"/>
	<rect x="19.2" y="102.5" class="st1" width="5.5" height="5.5"/>
	<rect x="24.7" y="102.5" class="st2" width="5.5" height="5.5"/>
	<rect x="30.2" y="102.5" class="st2" width="5.5" height="5.5"/>
	<rect x="35.7" y="102.5" class="st15" width="5.5" height="5.5"/>
	<rect x="41.1" y="102.5" class="st15" width="5.5" height="5.5"/>
	<rect x="46.6" y="102.5" class="st2" width="5.5" height="5.5"/>
	<rect x="52.1" y="102.5" class="st1" width="5.5" height="5.5"/>
	<rect x="57.6" y="102.5" class="st0" width="5.5" height="5.5"/>
	<rect x="63.1" y="102.5" class="st0" width="5.5" height="5.5"/>
	<rect x="68.6" y="102.5" class="st6" width="5.5" height="5.5"/>
	<rect x="74.1" y="102.5" class="st8" width="5.5" height="5.5"/>
	<rect x="79.5" y="102.5" class="st7" width="5.5" height="5.5"/>
	<rect x="85" y="102.5" class="st5" width="5.5" height="5.5"/>
	<rect x="90.5" y="102.5" class="st15" width="5.5" height="5.5"/>
	<rect x="96" y="102.5" class="st5" width="5.5" height="5.5"/>
	<rect x="101.5" y="102.5" class="st18" width="5.5" height="5.5"/>
	<rect x="107" y="102.5" class="st14" width="5.5" height="5.5"/>
	<rect x="112.5" y="102.5" class="st18" width="5.5" height="5.5"/>
	<rect x="117.9" y="102.5" class="st1" width="5.5" height="5.5"/>
	<rect x="123.4" y="102.5" class="st0" width="5.5" height="5.5"/>
	<rect x="128.9" y="102.5" class="st0" width="5.5" height="5.5"/>
	<rect x="134.4" y="102.5" class="st1" width="5.5" height="5.5"/>
	<rect x="139.9" y="102.5" class="st2" width="5.5" height="5.5"/>
	<rect x="145.4" y="102.5" class="st2" width="5.5" height="5.5"/>
	<rect x="150.9" y="102.5" class="st15" width="5.5" height="5.5"/>
	<rect x="156.3" y="102.5" class="st15" width="5.5" height="5.5"/>
	<rect x="161.8" y="102.5" class="st2" width="5.5" height="5.5"/>
	<rect x="167.3" y="102.5" class="st1" width="5.5" height="5.5"/>
	<rect x="172.8" y="102.5" class="st0" width="5.5" height="5.5"/>
	<rect x="13.7" y="108" class="st0" width="5.5" height="5.5"/>
	<rect x="19.2" y="108" class="st0" width="5.5" height="5.5"/>
	<rect x="24.7" y="108" class="st0" width="5.5" height="5.5"/>
	<rect x="30.2" y="108" class="st0" width="5.5" height="5.5"/>
	<rect x="35.7" y="108" class="st0" width="5.5" height="5.5"/>
	<rect x="41.1" y="108" class="st0" width="5.5" height="5.5"/>
	<rect x="46.6" y="108" class="st0" width="5.5" height="5.5"/>
	<rect x="52.1" y="108" class="st0" width="5.5" height="5.5"/>
	<rect x="57.6" y="108" class="st0" width="5.5" height="5.5"/>
	<rect x="63.1" y="108" class="st0" width="5.5" height="5.5"/>
	<rect x="68.6" y="108" class="st6" width="5.5" height="5.5"/>
	<rect x="74.1" y="108" class="st7" width="5.5" height="5.5"/>
	<rect x="79.5" y="108" class="st5" width="5.5" height="5.5"/>
	<rect x="85" y="108" class="st7" width="5.5" height="5.5"/>
	<rect x="90.5" y="108" class="st5" width="5.5" height="5.5"/>
	<rect x="96" y="108" class="st15" width="5.5" height="5.5"/>
	<rect x="101.5" y="108" class="st5" width="5.5" height="5.5"/>
	<rect x="107" y="108" class="st18" width="5.5" height="5.5"/>
	<rect x="112.5" y="108" class="st14" width="5.5" height="5.5"/>
	<rect x="117.9" y="108" class="st1" width="5.5" height="5.5"/>
	<rect x="123.4" y="108" class="st0" width="5.5" height="5.5"/>
	<rect x="128.9" y="108" class="st0" width="5.5" height="5.5"/>
	<rect x="134.4" y="108" class="st0" width="5.5" height="5.5"/>
	<rect x="139.9" y="108" class="st0" width="5.5" height="5.5"/>
	<rect x="145.4" y="108" class="st0" width="5.5" height="5.5"/>
	<rect x="150.9" y="108" class="st0" width="5.5" height="5.5"/>
	<rect x="156.3" y="108" class="st0" width="5.5" height="5.5"/>
	<rect x="161.8" y="108" class="st0" width="5.5" height="5.5"/>
	<rect x="167.3" y="108" class="st0" width="5.5" height="5.5"/>
	<rect x="172.8" y="108" class="st0" width="5.5" height="5.5"/>
	<rect x="63.1" y="113.5" class="st0" width="5.5" height="5.5"/>
	<rect x="68.6" y="113.5" class="st6" width="5.5" height="5.5"/>
	<rect x="74.1" y="113.5" class="st8" width="5.5" height="5.5"/>
	<rect x="79.5" y="113.5" class="st7" width="5.5" height="5.5"/>
	<rect x="85" y="113.5" class="st5" width="5.5" height="5.5"/>
	<rect x="90.5" y="113.5" class="st15" width="5.5" height="5.5"/>
	<rect x="96" y="113.5" class="st5" width="5.5" height="5.5"/>
	<rect x="101.5" y="113.5" class="st18" width="5.5" height="5.5"/>
	<rect x="107" y="113.5" class="st14" width="5.5" height="5.5"/>
	<rect x="112.5" y="113.5" class="st18" width="5.5" height="5.5"/>
	<rect x="117.9" y="113.5" class="st1" width="5.5" height="5.5"/>
	<rect x="123.4" y="113.5" class="st0" width="5.5" height="5.5"/>
	<rect x="63.1" y="118.9" class="st0" width="5.5" height="5.5"/>
	<rect x="68.6" y="118.9" class="st6" width="5.5" height="5.5"/>
	<rect x="74.1" y="118.9" class="st7" width="5.5" height="5.5"/>
	<rect x="79.5" y="118.9" class="st5" width="5.5" height="5.5"/>
	<rect x="85" y="118.9" class="st15" width="5.5" height="5.5"/>
	<rect x="90.5" y="118.9" class="st5" width="5.5" height="5.5"/>
	<rect x="96" y="118.9" class="st15" width="5.5" height="5.5"/>
	<rect x="101.5" y="118.9" class="st14" width="5.5" height="5.5"/>
	<rect x="107" y="118.9" class="st16" width="5.5" height="5.5"/>
	<rect x="112.5" y="118.9" class="st14" width="5.5" height="5.5"/>
	<rect x="117.9" y="118.9" class="st1" width="5.5" height="5.5"/>
	<rect x="123.4" y="118.9" class="st0" width="5.5" height="5.5"/>
	<rect x="63.1" y="124.4" class="st0" width="5.5" height="5.5"/>
	<rect x="68.6" y="124.4" class="st6" width="5.5" height="5.5"/>
	<rect x="74.1" y="124.4" class="st8" width="5.5" height="5.5"/>
	<rect x="79.5" y="124.4" class="st7" width="5.5" height="5.5"/>
	<rect x="85" y="124.4" class="st5" width="5.5" height="5.5"/>
	<rect x="90.5" y="124.4" class="st15" width="5.5" height="5.5"/>
	<rect x="96" y="124.4" class="st5" width="5.5" height="5.5"/>
	<rect x="101.5" y="124.4" class="st18" width="5.5" height="5.5"/>
	<rect x="107" y="124.4" class="st14" width="5.5" height="5.5"/>
	<rect x="112.5" y="124.4" class="st18" width="5.5" height="5.5"/>
	<rect x="117.9" y="124.4" class="st1" width="5.5" height="5.5"/>
	<rect x="123.4" y="124.4" class="st0" width="5.5" height="5.5"/>
	<rect x="63.1" y="129.9" class="st0" width="5.5" height="5.5"/>
	<rect x="68.6" y="129.9" class="st6" width="5.5" height="5.5"/>
	<rect x="74.1" y="129.9" class="st7" width="5.5" height="5.5"/>
	<rect x="79.5" y="129.9" class="st5" width="5.5" height="5.5"/>
	<rect x="85" y="129.9" class="st7" width="5.5" height="5.5"/>
	<rect x="90.5" y="129.9" class="st5" width="5.5" height="5.5"/>
	<rect x="96" y="129.9" class="st15" width="5.5" height="5.5"/>
	<rect x="101.5" y="129.9" class="st14" width="5.5" height="5.5"/>
	<rect x="107" y="129.9" class="st18" width="5.5" height="5.5"/>
	<rect x="112.5" y="129.9" class="st14" width="5.5" height="5.5"/>
	<rect x="117.9" y="129.9" class="st1" width="5.5" height="5.5"/>
	<rect x="123.4" y="129.9" class="st0" width="5.5" height="5.5"/>
	<rect x="63.1" y="135.4" class="st0" width="5.5" height="5.5"/>
	<rect x="68.6" y="135.4" class="st6" width="5.5" height="5.5"/>
	<rect x="74.1" y="135.4" class="st8" width="5.5" height="5.5"/>
	<rect x="79.5" y="135.4" class="st7" width="5.5" height="5.5"/>
	<rect x="85" y="135.4" class="st5" width="5.5" height="5.5"/>
	<rect x="90.5" y="135.4" class="st15" width="5.5" height="5.5"/>
	<rect x="96" y="135.4" class="st5" width="5.5" height="5.5"/>
	<rect x="101.5" y="135.4" class="st18" width="5.5" height="5.5"/>
	<rect x="107" y="135.4" class="st14" width="5.5" height="5.5"/>
	<rect x="112.5" y="135.4" class="st16" width="5.5" height="5.5"/>
	<rect x="117.9" y="135.4" class="st1" width="5.5" height="5.5"/>
	<rect x="123.4" y="135.4" class="st0" width="5.5" height="5.5"/>
	<rect x="63.1" y="140.9" class="st0" width="5.5" height="5.5"/>
	<rect x="68.6" y="140.9" class="st6" width="5.5" height="5.5"/>
	<rect x="74.1" y="140.9" class="st7" width="5.5" height="5.5"/>
	<rect x="79.5" y="140.9" class="st5" width="5.5" height="5.5"/>
	<rect x="85" y="140.9" class="st15" width="5.5" height="5.5"/>
	<rect x="90.5" y="140.9" class="st5" width="5.5" height="5.5"/>
	<rect x="96" y="140.9" class="st15" width="5.5" height="5.5"/>
	<rect x="101.5" y="140.9" class="st5" width="5.5" height="5.5"/>
	<rect x="107" y="140.9" class="st16" width="5.5" height="5.5"/>
	<rect x="112.5" y="140.9" class="st14" width="5.5" height="5.5"/>
	<rect x="117.9" y="140.9" class="st1" width="5.5" height="5.5"/>
	<rect x="123.4" y="140.9" class="st0" width="5.5" height="5.5"/>
	<rect x="63.1" y="146.4" class="st0" width="5.5" height="5.5"/>
	<rect x="68.6" y="146.4" class="st6" width="5.5" height="5.5"/>
	<rect x="74.1" y="146.4" class="st8" width="5.5" height="5.5"/>
	<rect x="79.5" y="146.4" class="st7" width="5.5" height="5.5"/>
	<rect x="85" y="146.4" class="st5" width="5.5" height="5.5"/>
	<rect x="90.5" y="146.4" class="st15" width="5.5" height="5.5"/>
	<rect x="96" y="146.4" class="st5" width="5.5" height="5.5"/>
	<rect x="101.5" y="146.4" class="st16" width="5.5" height="5.5"/>
	<rect x="107" y="146.4" class="st14" width="5.5" height="5.5"/>
	<rect x="112.5" y="146.4" class="st16" width="5.5" height="5.5"/>
	<rect x="117.9" y="146.4" class="st1" width="5.5" height="5.5"/>
	<rect x="123.4" y="146.4" class="st0" width="5.5" height="5.5"/>
	<rect x="63.1" y="151.9" class="st0" width="5.5" height="5.5"/>
	<rect x="68.6" y="151.9" class="st6" width="5.5" height="5.5"/>
	<rect x="74.1" y="151.9" class="st7" width="5.5" height="5.5"/>
	<rect x="79.5" y="151.9" class="st5" width="5.5" height="5.5"/>
	<rect x="85" y="151.9" class="st7" width="5.5" height="5.5"/>
	<rect x="90.5" y="151.9" class="st5" width="5.5" height="5.5"/>
	<rect x="96" y="151.9" class="st15" width="5.5" height="5.5"/>
	<rect x="101.5" y="151.9" class="st5" width="5.5" height="5.5"/>
	<rect x="107" y="151.9" class="st16" width="5.5" height="5.5"/>
	<rect x="112.5" y="151.9" class="st14" width="5.5" height="5.5"/>
	<rect x="117.9" y="151.9" class="st1" width="5.5" height="5.5"/>
	<rect x="123.4" y="151.9" class="st0" width="5.5" height="5.5"/>
	<rect x="63.1" y="157.3" class="st0" width="5.5" height="5.5"/>
	<rect x="68.6" y="157.3" class="st6" width="5.5" height="5.5"/>
	<rect x="74.1" y="157.3" class="st8" width="5.5" height="5.5"/>
	<rect x="79.5" y="157.3" class="st7" width="5.5" height="5.5"/>
	<rect x="85" y="157.3" class="st5" width="5.5" height="5.5"/>
	<rect x="90.5" y="157.3" class="st15" width="5.5" height="5.5"/>
	<rect x="96" y="157.3" class="st5" width="5.5" height="5.5"/>
	<rect x="101.5" y="157.3" class="st16" width="5.5" height="5.5"/>
	<rect x="107" y="157.3" class="st14" width="5.5" height="5.5"/>
	<rect x="112.5" y="157.3" class="st16" width="5.5" height="5.5"/>
	<rect x="117.9" y="157.3" class="st1" width="5.5" height="5.5"/>
	<rect x="123.4" y="157.3" class="st0" width="5.5" height="5.5"/>
	<rect x="68.6" y="162.8" class="st0" width="5.5" height="5.5"/>
	<rect x="74.1" y="162.8" class="st6" width="5.5" height="5.5"/>
	<rect x="79.5" y="162.8" class="st6" width="5.5" height="5.5"/>
	<rect x="85" y="162.8" class="st6" width="5.5" height="5.5"/>
	<rect x="90.5" y="162.8" class="st6" width="5.5" height="5.5"/>
	<rect x="96" y="162.8" class="st6" width="5.5" height="5.5"/>
	<rect x="101.5" y="162.8" class="st1" width="5.5" height="5.5"/>
	<rect x="107" y="162.8" class="st1" width="5.5" height="5.5"/>
	<rect x="112.5" y="162.8" class="st1" width="5.5" height="5.5"/>
	<rect x="117.9" y="162.8" class="st0" width="5.5" height="5.5"/>
	<rect x="74.1" y="168.3" class="st0" width="5.5" height="5.5"/>
	<rect x="79.5" y="168.3" class="st0" width="5.5" height="5.5"/>
	<rect x="85" y="168.3" class="st0" width="5.5" height="5.5"/>
	<rect x="90.5" y="168.3" class="st0" width="5.5" height="5.5"/>
	<rect x="96" y="168.3" class="st0" width="5.5" height="5.5"/>
	<rect x="101.5" y="168.3" class="st0" width="5.5" height="5.5"/>
	<rect x="107" y="168.3" class="st0" width="5.5" height="5.5"/>
	<rect x="112.5" y="168.3" class="st0" width="5.5" height="5.5"/>
</g>
</svg>
