<?xml version="1.0" encoding="UTF-8"?><svg id="Layer_1" xmlns="http://www.w3.org/2000/svg" viewBox="0 0 500 430"><defs><style>.cls-1,.cls-2{stroke:#914938;stroke-miterlimit:10;stroke-width:2px;}.cls-1,.cls-3{fill:#914938;}.cls-4{fill:#f4ebd4;font-family:Roboto-Bold, Roboto;font-size:20.36px;font-weight:700;}.cls-2{fill:none;}.cls-3{stroke-width:0px;}</style></defs><path class="cls-3" d="m397.86,355.71c-31.68,5.76-73.44,8.28-109.44,8.28-30.24,0-56.52-1.8-70.56-4.68-43.56-9.72-62.28-37.08-62.28-68.76,0-27.72,15.48-55.44,36.72-77.04l20.88,10.8c-20.16,20.88-31.68,43.92-31.68,64.08s14.04,39.96,45,46.8c12.6,2.88,33.84,4.32,58.68,4.32,34.92,0,76.68-2.88,110.88-9.72l1.8,25.92Zm-161.64-181.8c18.72-14.4,44.28-32.04,63.72-41.76v-.36c-27.36,3.24-90,4.68-129.96,4.32,0-6.84,0-18.72-.36-25.2,7.92.36,146.16,2.52,205.2-11.52l2.88,26.64c-42.84,5.04-97.92,42.48-120.96,60.84l-20.52-12.96Z"/><path class="cls-2" d="m186.15,97.18s114.53,1.96,159.69-6.79"/><path class="cls-2" d="m146.58,284.81s-18.51,80.7,79.71,86.96"/><polygon class="cls-1" points="340.69 91.42 339.59 86.8 345.84 87.75 352.09 88.69 346.95 92.37 341.8 96.04 340.69 91.42"/><polygon class="cls-1" points="222.06 371.07 222.29 366.33 228.03 368.99 233.77 371.66 227.79 373.74 221.82 375.82 222.06 371.07"/><circle class="cls-1" cx="191.74" cy="70.28" r="16.1"/><text class="cls-4" transform="translate(185.9 77.58)"><tspan x="0" y="0">1</tspan></text><circle class="cls-1" cx="118.24" cy="284.81" r="16.1"/><text class="cls-4" transform="translate(112.4 292.11)"><tspan x="0" y="0">2</tspan></text></svg>