<?xml version="1.0" encoding="UTF-8"?><svg id="Layer_1" xmlns="http://www.w3.org/2000/svg" viewBox="0 0 500 430"><defs><style>.cls-1,.cls-2{stroke:#914938;stroke-miterlimit:10;stroke-width:2px;}.cls-1,.cls-3{fill:#914938;}.cls-4{fill:#f4ebd4;font-family:Roboto-Bold, Roboto;font-size:20.36px;font-weight:700;}.cls-2{fill:none;}.cls-3{stroke-width:0px;}</style></defs><path class="cls-3" d="m320.38,394.38c-36.36-42.48-92.52-95.76-141.12-133.92-18-14.4-24.48-24.48-24.48-37.44,0-10.44,5.76-20.52,19.08-32.76,32.76-30.24,94.32-88.56,128.88-123.84l30.6,20.16c-.72.72-3.24,3.6-7.92,3.6-1.44,0-2.88-.36-4.32-.72-36,34.56-92.16,83.52-121.68,111.24-8.64,8.28-15.48,15.48-15.48,21.24,0,6.12,6.48,13.32,19.08,22.68,47.52,36.72,98.28,83.16,142.2,130.68l-24.84,19.08Z"/><path class="cls-2" d="m282.92,66.33s-77.13,74.96-98.59,94.94"/><polygon class="cls-1" points="186.31 159.23 189.44 162.8 183.47 164.88 177.49 166.95 180.34 161.3 183.18 155.66 186.31 159.23"/><circle class="cls-1" cx="254.79" cy="51.72" r="16.1"/><text class="cls-4" transform="translate(248.95 59.02)"><tspan x="0" y="0">1</tspan></text></svg>