<?xml version="1.0" encoding="utf-8"?>
<!-- Generator: Adobe Illustrator 27.9.0, SVG Export Plug-In . SVG Version: 6.00 Build 0)  -->
<svg version="1.1" id="Layer_1" shape-rendering="crispEdges"
	 xmlns="http://www.w3.org/2000/svg" xmlns:xlink="http://www.w3.org/1999/xlink" x="0px" y="0px" viewBox="0 0 192 192"
	 style="enable-background:new 0 0 192 192;" xml:space="preserve">
<style type="text/css">
	.st0{fill:#C1B9E0;}
	.st1{fill:#8D5386;}
	.st2{fill:#6C7AA7;}
	.st3{fill:#694F86;}
	.st4{fill:#733C81;}
	.st5{fill:#548AB7;}
	.st6{fill:#B55D83;}
	.st7{fill:#FFCA71;}
	.st8{fill:#F6BF61;}
	.st9{fill:#DA7FA0;}
	.st10{fill:#E6C874;}
	.st11{fill:#D5D06E;}
	.st12{fill:#6C9BC9;}
	.st13{fill:#CF6F87;}
	.st14{fill:#E7A55D;}
	.st15{fill:#71AFE3;}
	.st16{fill:#EB97A7;}
	.st17{fill:#EBAC8B;}
	.st18{fill:#E17557;}
	.st19{fill:#D8B05C;}
	.st20{fill:#F1B5AE;}
	.st21{fill:#F6B561;}
	.st22{fill:#E4895D;}
	.st23{fill:#F1BAC7;}
	.st24{fill:#ECC98B;}
	.st25{fill:#EDE5B7;}
	.st26{fill:#D26A71;}
	.st27{fill:#D1584A;}
	.st28{fill:#B3534E;}
</style>
<g>
	<rect x="186" class="st0" width="6" height="6"/>
	<rect x="180" y="6" class="st0" width="6" height="6"/>
	<rect x="186" y="6" class="st1" width="6" height="6"/>
	<rect x="174" y="12" class="st0" width="6" height="6"/>
	<rect x="180" y="12" class="st1" width="6" height="6"/>
	<rect x="186" y="12" class="st2" width="6" height="6"/>
	<rect x="168" y="18" class="st0" width="6" height="6"/>
	<rect x="174" y="18" class="st1" width="6" height="6"/>
	<rect x="180" y="18" class="st2" width="6" height="6"/>
	<rect x="186" y="18" class="st3" width="6" height="6"/>
	<rect x="162" y="24" class="st0" width="6" height="6"/>
	<rect x="168" y="24" class="st1" width="6" height="6"/>
	<rect x="174" y="24" class="st2" width="6" height="6"/>
	<rect x="180" y="24" class="st3" width="6" height="6"/>
	<rect x="186" y="24" class="st4" width="6" height="6"/>
	<rect x="156" y="30" class="st0" width="6" height="6"/>
	<rect x="162" y="30" class="st1" width="6" height="6"/>
	<rect x="168" y="30" class="st2" width="6" height="6"/>
	<rect x="174" y="30" class="st3" width="6" height="6"/>
	<rect x="180" y="30" class="st4" width="6" height="6"/>
	<rect x="186" y="30" class="st0" width="6" height="6"/>
	<rect x="150" y="36" class="st0" width="6" height="6"/>
	<rect x="156" y="36" class="st1" width="6" height="6"/>
	<rect x="162" y="36" class="st2" width="6" height="6"/>
	<rect x="168" y="36" class="st3" width="6" height="6"/>
	<rect x="174" y="36" class="st4" width="6" height="6"/>
	<rect x="180" y="36" class="st0" width="6" height="6"/>
	<rect x="186" y="36" class="st1" width="6" height="6"/>
	<rect x="72" y="42" class="st0" width="6" height="6"/>
	<rect x="78" y="42" class="st0" width="6" height="6"/>
	<rect x="84" y="42" class="st0" width="6" height="6"/>
	<rect x="90" y="42" class="st0" width="6" height="6"/>
	<rect x="96" y="42" class="st0" width="6" height="6"/>
	<rect x="102" y="42" class="st0" width="6" height="6"/>
	<rect x="108" y="42" class="st0" width="6" height="6"/>
	<rect x="114" y="42" class="st0" width="6" height="6"/>
	<rect x="144" y="42" class="st0" width="6" height="6"/>
	<rect x="150" y="42" class="st1" width="6" height="6"/>
	<rect x="156" y="42" class="st5" width="6" height="6"/>
	<rect x="162" y="42" class="st3" width="6" height="6"/>
	<rect x="168" y="42" class="st4" width="6" height="6"/>
	<rect x="174" y="42" class="st0" width="6" height="6"/>
	<rect x="180" y="42" class="st1" width="6" height="6"/>
	<rect x="186" y="42" class="st2" width="6" height="6"/>
	<rect x="60" y="48" class="st0" width="6" height="6"/>
	<rect x="66" y="48" class="st0" width="6" height="6"/>
	<rect x="72" y="48" class="st6" width="6" height="6"/>
	<rect x="78" y="48" class="st6" width="6" height="6"/>
	<rect x="84" y="48" class="st6" width="6" height="6"/>
	<rect x="90" y="48" class="st6" width="6" height="6"/>
	<rect x="96" y="48" class="st6" width="6" height="6"/>
	<rect x="102" y="48" class="st6" width="6" height="6"/>
	<rect x="108" y="48" class="st6" width="6" height="6"/>
	<rect x="114" y="48" class="st6" width="6" height="6"/>
	<rect x="120" y="48" class="st0" width="6" height="6"/>
	<rect x="126" y="48" class="st0" width="6" height="6"/>
	<rect x="138" y="48" class="st0" width="6" height="6"/>
	<rect x="144" y="48" class="st1" width="6" height="6"/>
	<rect x="150" y="48" class="st5" width="6" height="6"/>
	<rect x="156" y="48" class="st3" width="6" height="6"/>
	<rect x="162" y="48" class="st4" width="6" height="6"/>
	<rect x="168" y="48" class="st0" width="6" height="6"/>
	<rect x="174" y="48" class="st1" width="6" height="6"/>
	<rect x="180" y="48" class="st2" width="6" height="6"/>
	<rect x="186" y="48" class="st3" width="6" height="6"/>
	<rect x="54" y="54" class="st0" width="6" height="6"/>
	<rect x="60" y="54" class="st6" width="6" height="6"/>
	<rect x="66" y="54" class="st6" width="6" height="6"/>
	<rect x="72" y="54" class="st7" width="6" height="6"/>
	<rect x="78" y="54" class="st7" width="6" height="6"/>
	<rect x="84" y="54" class="st7" width="6" height="6"/>
	<rect x="90" y="54" class="st7" width="6" height="6"/>
	<rect x="96" y="54" class="st7" width="6" height="6"/>
	<rect x="102" y="54" class="st7" width="6" height="6"/>
	<rect x="108" y="54" class="st7" width="6" height="6"/>
	<rect x="114" y="54" class="st7" width="6" height="6"/>
	<rect x="120" y="54" class="st6" width="6" height="6"/>
	<rect x="126" y="54" class="st6" width="6" height="6"/>
	<rect x="132" y="54" class="st0" width="6" height="6"/>
	<rect x="138" y="54" class="st1" width="6" height="6"/>
	<rect x="144" y="54" class="st5" width="6" height="6"/>
	<rect x="150" y="54" class="st3" width="6" height="6"/>
	<rect x="156" y="54" class="st4" width="6" height="6"/>
	<rect x="162" y="54" class="st0" width="6" height="6"/>
	<rect x="168" y="54" class="st1" width="6" height="6"/>
	<rect x="174" y="54" class="st2" width="6" height="6"/>
	<rect x="180" y="54" class="st3" width="6" height="6"/>
	<rect x="186" y="54" class="st4" width="6" height="6"/>
	<rect x="48" y="60" class="st0" width="6" height="6"/>
	<rect x="54" y="60" class="st6" width="6" height="6"/>
	<rect x="60" y="60" class="st7" width="6" height="6"/>
	<rect x="66" y="60" class="st7" width="6" height="6"/>
	<rect x="72" y="60" class="st7" width="6" height="6"/>
	<rect x="78" y="60" class="st7" width="6" height="6"/>
	<rect x="84" y="60" class="st7" width="6" height="6"/>
	<rect x="90" y="60" class="st6" width="6" height="6"/>
	<rect x="96" y="60" class="st6" width="6" height="6"/>
	<rect x="102" y="60" class="st7" width="6" height="6"/>
	<rect x="108" y="60" class="st7" width="6" height="6"/>
	<rect x="114" y="60" class="st7" width="6" height="6"/>
	<rect x="120" y="60" class="st7" width="6" height="6"/>
	<rect x="126" y="60" class="st7" width="6" height="6"/>
	<rect x="132" y="60" class="st1" width="6" height="6"/>
	<rect x="138" y="60" class="st5" width="6" height="6"/>
	<rect x="144" y="60" class="st3" width="6" height="6"/>
	<rect x="150" y="60" class="st4" width="6" height="6"/>
	<rect x="156" y="60" class="st0" width="6" height="6"/>
	<rect x="162" y="60" class="st1" width="6" height="6"/>
	<rect x="168" y="60" class="st2" width="6" height="6"/>
	<rect x="174" y="60" class="st3" width="6" height="6"/>
	<rect x="180" y="60" class="st4" width="6" height="6"/>
	<rect x="186" y="60" class="st0" width="6" height="6"/>
	<rect x="42" y="66" class="st0" width="6" height="6"/>
	<rect x="48" y="66" class="st6" width="6" height="6"/>
	<rect x="54" y="66" class="st8" width="6" height="6"/>
	<rect x="60" y="66" class="st6" width="6" height="6"/>
	<rect x="66" y="66" class="st6" width="6" height="6"/>
	<rect x="72" y="66" class="st7" width="6" height="6"/>
	<rect x="78" y="66" class="st7" width="6" height="6"/>
	<rect x="84" y="66" class="st6" width="6" height="6"/>
	<rect x="90" y="66" class="st9" width="6" height="6"/>
	<rect x="96" y="66" class="st9" width="6" height="6"/>
	<rect x="102" y="66" class="st6" width="6" height="6"/>
	<rect x="108" y="66" class="st7" width="6" height="6"/>
	<rect x="114" y="66" class="st7" width="6" height="6"/>
	<rect x="120" y="66" class="st6" width="6" height="6"/>
	<rect x="126" y="66" class="st3" width="6" height="6"/>
	<rect x="132" y="66" class="st5" width="6" height="6"/>
	<rect x="138" y="66" class="st3" width="6" height="6"/>
	<rect x="144" y="66" class="st4" width="6" height="6"/>
	<rect x="150" y="66" class="st0" width="6" height="6"/>
	<rect x="156" y="66" class="st1" width="6" height="6"/>
	<rect x="162" y="66" class="st2" width="6" height="6"/>
	<rect x="168" y="66" class="st3" width="6" height="6"/>
	<rect x="174" y="66" class="st4" width="6" height="6"/>
	<rect x="180" y="66" class="st0" width="6" height="6"/>
	<rect x="36" y="72" class="st0" width="6" height="6"/>
	<rect x="42" y="72" class="st6" width="6" height="6"/>
	<rect x="48" y="72" class="st7" width="6" height="6"/>
	<rect x="54" y="72" class="st1" width="6" height="6"/>
	<rect x="60" y="72" class="st10" width="6" height="6"/>
	<rect x="66" y="72" class="st11" width="6" height="6"/>
	<rect x="72" y="72" class="st1" width="6" height="6"/>
	<rect x="78" y="72" class="st7" width="6" height="6"/>
	<rect x="84" y="72" class="st6" width="6" height="6"/>
	<rect x="90" y="72" class="st8" width="6" height="6"/>
	<rect x="96" y="72" class="st8" width="6" height="6"/>
	<rect x="102" y="72" class="st6" width="6" height="6"/>
	<rect x="108" y="72" class="st7" width="6" height="6"/>
	<rect x="114" y="72" class="st6" width="6" height="6"/>
	<rect x="120" y="72" class="st3" width="6" height="6"/>
	<rect x="126" y="72" class="st5" width="6" height="6"/>
	<rect x="132" y="72" class="st3" width="6" height="6"/>
	<rect x="138" y="72" class="st4" width="6" height="6"/>
	<rect x="144" y="72" class="st6" width="6" height="6"/>
	<rect x="150" y="72" class="st1" width="6" height="6"/>
	<rect x="156" y="72" class="st2" width="6" height="6"/>
	<rect x="162" y="72" class="st3" width="6" height="6"/>
	<rect x="168" y="72" class="st4" width="6" height="6"/>
	<rect x="174" y="72" class="st0" width="6" height="6"/>
	<rect x="30" y="78" class="st0" width="6" height="6"/>
	<rect x="36" y="78" class="st6" width="6" height="6"/>
	<rect x="42" y="78" class="st7" width="6" height="6"/>
	<rect x="48" y="78" class="st7" width="6" height="6"/>
	<rect x="54" y="78" class="st7" width="6" height="6"/>
	<rect x="60" y="78" class="st1" width="6" height="6"/>
	<rect x="66" y="78" class="st1" width="6" height="6"/>
	<rect x="72" y="78" class="st1" width="6" height="6"/>
	<rect x="78" y="78" class="st7" width="6" height="6"/>
	<rect x="84" y="78" class="st1" width="6" height="6"/>
	<rect x="90" y="78" class="st11" width="6" height="6"/>
	<rect x="96" y="78" class="st11" width="6" height="6"/>
	<rect x="102" y="78" class="st1" width="6" height="6"/>
	<rect x="108" y="78" class="st7" width="6" height="6"/>
	<rect x="114" y="78" class="st3" width="6" height="6"/>
	<rect x="120" y="78" class="st12" width="6" height="6"/>
	<rect x="126" y="78" class="st3" width="6" height="6"/>
	<rect x="132" y="78" class="st4" width="6" height="6"/>
	<rect x="138" y="78" class="st7" width="6" height="6"/>
	<rect x="144" y="78" class="st7" width="6" height="6"/>
	<rect x="150" y="78" class="st6" width="6" height="6"/>
	<rect x="156" y="78" class="st3" width="6" height="6"/>
	<rect x="162" y="78" class="st4" width="6" height="6"/>
	<rect x="168" y="78" class="st0" width="6" height="6"/>
	<rect x="30" y="84" class="st0" width="6" height="6"/>
	<rect x="36" y="84" class="st13" width="6" height="6"/>
	<rect x="42" y="84" class="st7" width="6" height="6"/>
	<rect x="48" y="84" class="st7" width="6" height="6"/>
	<rect x="54" y="84" class="st7" width="6" height="6"/>
	<rect x="60" y="84" class="st7" width="6" height="6"/>
	<rect x="66" y="84" class="st7" width="6" height="6"/>
	<rect x="72" y="84" class="st7" width="6" height="6"/>
	<rect x="78" y="84" class="st7" width="6" height="6"/>
	<rect x="84" y="84" class="st7" width="6" height="6"/>
	<rect x="90" y="84" class="st1" width="6" height="6"/>
	<rect x="96" y="84" class="st1" width="6" height="6"/>
	<rect x="102" y="84" class="st8" width="6" height="6"/>
	<rect x="108" y="84" class="st3" width="6" height="6"/>
	<rect x="114" y="84" class="st12" width="6" height="6"/>
	<rect x="120" y="84" class="st3" width="6" height="6"/>
	<rect x="126" y="84" class="st4" width="6" height="6"/>
	<rect x="132" y="84" class="st14" width="6" height="6"/>
	<rect x="138" y="84" class="st7" width="6" height="6"/>
	<rect x="144" y="84" class="st7" width="6" height="6"/>
	<rect x="150" y="84" class="st13" width="6" height="6"/>
	<rect x="156" y="84" class="st4" width="6" height="6"/>
	<rect x="162" y="84" class="st0" width="6" height="6"/>
	<rect x="24" y="90" class="st0" width="6" height="6"/>
	<rect x="30" y="90" class="st6" width="6" height="6"/>
	<rect x="36" y="90" class="st7" width="6" height="6"/>
	<rect x="42" y="90" class="st7" width="6" height="6"/>
	<rect x="48" y="90" class="st7" width="6" height="6"/>
	<rect x="54" y="90" class="st6" width="6" height="6"/>
	<rect x="60" y="90" class="st6" width="6" height="6"/>
	<rect x="66" y="90" class="st6" width="6" height="6"/>
	<rect x="72" y="90" class="st6" width="6" height="6"/>
	<rect x="78" y="90" class="st6" width="6" height="6"/>
	<rect x="84" y="90" class="st7" width="6" height="6"/>
	<rect x="90" y="90" class="st7" width="6" height="6"/>
	<rect x="96" y="90" class="st7" width="6" height="6"/>
	<rect x="102" y="90" class="st3" width="6" height="6"/>
	<rect x="108" y="90" class="st15" width="6" height="6"/>
	<rect x="114" y="90" class="st3" width="6" height="6"/>
	<rect x="120" y="90" class="st4" width="6" height="6"/>
	<rect x="126" y="90" class="st6" width="6" height="6"/>
	<rect x="132" y="90" class="st6" width="6" height="6"/>
	<rect x="138" y="90" class="st7" width="6" height="6"/>
	<rect x="144" y="90" class="st7" width="6" height="6"/>
	<rect x="150" y="90" class="st7" width="6" height="6"/>
	<rect x="156" y="90" class="st6" width="6" height="6"/>
	<rect x="162" y="90" class="st0" width="6" height="6"/>
	<rect x="24" y="96" class="st0" width="6" height="6"/>
	<rect x="30" y="96" class="st6" width="6" height="6"/>
	<rect x="36" y="96" class="st7" width="6" height="6"/>
	<rect x="42" y="96" class="st7" width="6" height="6"/>
	<rect x="48" y="96" class="st6" width="6" height="6"/>
	<rect x="54" y="96" class="st9" width="6" height="6"/>
	<rect x="60" y="96" class="st9" width="6" height="6"/>
	<rect x="66" y="96" class="st9" width="6" height="6"/>
	<rect x="72" y="96" class="st9" width="6" height="6"/>
	<rect x="78" y="96" class="st9" width="6" height="6"/>
	<rect x="84" y="96" class="st6" width="6" height="6"/>
	<rect x="90" y="96" class="st7" width="6" height="6"/>
	<rect x="96" y="96" class="st3" width="6" height="6"/>
	<rect x="102" y="96" class="st15" width="6" height="6"/>
	<rect x="108" y="96" class="st3" width="6" height="6"/>
	<rect x="114" y="96" class="st4" width="6" height="6"/>
	<rect x="120" y="96" class="st9" width="6" height="6"/>
	<rect x="126" y="96" class="st9" width="6" height="6"/>
	<rect x="132" y="96" class="st9" width="6" height="6"/>
	<rect x="138" y="96" class="st6" width="6" height="6"/>
	<rect x="144" y="96" class="st7" width="6" height="6"/>
	<rect x="150" y="96" class="st7" width="6" height="6"/>
	<rect x="156" y="96" class="st6" width="6" height="6"/>
	<rect x="162" y="96" class="st0" width="6" height="6"/>
	<rect x="24" y="102" class="st0" width="6" height="6"/>
	<rect x="30" y="102" class="st13" width="6" height="6"/>
	<rect x="36" y="102" class="st7" width="6" height="6"/>
	<rect x="42" y="102" class="st7" width="6" height="6"/>
	<rect x="48" y="102" class="st1" width="6" height="6"/>
	<rect x="54" y="102" class="st11" width="6" height="6"/>
	<rect x="60" y="102" class="st11" width="6" height="6"/>
	<rect x="66" y="102" class="st11" width="6" height="6"/>
	<rect x="72" y="102" class="st11" width="6" height="6"/>
	<rect x="78" y="102" class="st1" width="6" height="6"/>
	<rect x="84" y="102" class="st7" width="6" height="6"/>
	<rect x="90" y="102" class="st3" width="6" height="6"/>
	<rect x="96" y="102" class="st15" width="6" height="6"/>
	<rect x="102" y="102" class="st3" width="6" height="6"/>
	<rect x="108" y="102" class="st4" width="6" height="6"/>
	<rect x="114" y="102" class="st11" width="6" height="6"/>
	<rect x="120" y="102" class="st10" width="6" height="6"/>
	<rect x="126" y="102" class="st10" width="6" height="6"/>
	<rect x="132" y="102" class="st10" width="6" height="6"/>
	<rect x="138" y="102" class="st1" width="6" height="6"/>
	<rect x="144" y="102" class="st7" width="6" height="6"/>
	<rect x="150" y="102" class="st7" width="6" height="6"/>
	<rect x="156" y="102" class="st13" width="6" height="6"/>
	<rect x="162" y="102" class="st0" width="6" height="6"/>
	<rect x="24" y="108" class="st0" width="6" height="6"/>
	<rect x="30" y="108" class="st13" width="6" height="6"/>
	<rect x="36" y="108" class="st7" width="6" height="6"/>
	<rect x="42" y="108" class="st7" width="6" height="6"/>
	<rect x="48" y="108" class="st7" width="6" height="6"/>
	<rect x="54" y="108" class="st1" width="6" height="6"/>
	<rect x="60" y="108" class="st1" width="6" height="6"/>
	<rect x="66" y="108" class="st1" width="6" height="6"/>
	<rect x="72" y="108" class="st1" width="6" height="6"/>
	<rect x="78" y="108" class="st7" width="6" height="6"/>
	<rect x="84" y="108" class="st7" width="6" height="6"/>
	<rect x="90" y="108" class="st3" width="6" height="6"/>
	<rect x="96" y="108" class="st3" width="6" height="6"/>
	<rect x="102" y="108" class="st4" width="6" height="6"/>
	<rect x="108" y="108" class="st11" width="6" height="6"/>
	<rect x="114" y="108" class="st1" width="6" height="6"/>
	<rect x="120" y="108" class="st1" width="6" height="6"/>
	<rect x="126" y="108" class="st1" width="6" height="6"/>
	<rect x="132" y="108" class="st1" width="6" height="6"/>
	<rect x="138" y="108" class="st7" width="6" height="6"/>
	<rect x="144" y="108" class="st7" width="6" height="6"/>
	<rect x="150" y="108" class="st7" width="6" height="6"/>
	<rect x="156" y="108" class="st13" width="6" height="6"/>
	<rect x="162" y="108" class="st0" width="6" height="6"/>
	<rect x="168" y="108" class="st0" width="6" height="6"/>
	<rect x="174" y="108" class="st0" width="6" height="6"/>
	<rect x="180" y="108" class="st0" width="6" height="6"/>
	<rect x="18" y="114" class="st0" width="6" height="6"/>
	<rect x="24" y="114" class="st0" width="6" height="6"/>
	<rect x="30" y="114" class="st1" width="6" height="6"/>
	<rect x="36" y="114" class="st13" width="6" height="6"/>
	<rect x="42" y="114" class="st7" width="6" height="6"/>
	<rect x="48" y="114" class="st7" width="6" height="6"/>
	<rect x="54" y="114" class="st7" width="6" height="6"/>
	<rect x="60" y="114" class="st7" width="6" height="6"/>
	<rect x="66" y="114" class="st7" width="6" height="6"/>
	<rect x="72" y="114" class="st7" width="6" height="6"/>
	<rect x="78" y="114" class="st7" width="6" height="6"/>
	<rect x="84" y="114" class="st7" width="6" height="6"/>
	<rect x="90" y="114" class="st6" width="6" height="6"/>
	<rect x="96" y="114" class="st6" width="6" height="6"/>
	<rect x="102" y="114" class="st11" width="6" height="6"/>
	<rect x="108" y="114" class="st7" width="6" height="6"/>
	<rect x="114" y="114" class="st7" width="6" height="6"/>
	<rect x="120" y="114" class="st7" width="6" height="6"/>
	<rect x="126" y="114" class="st7" width="6" height="6"/>
	<rect x="132" y="114" class="st7" width="6" height="6"/>
	<rect x="138" y="114" class="st7" width="6" height="6"/>
	<rect x="144" y="114" class="st7" width="6" height="6"/>
	<rect x="150" y="114" class="st13" width="6" height="6"/>
	<rect x="156" y="114" class="st1" width="6" height="6"/>
	<rect x="162" y="114" class="st6" width="6" height="6"/>
	<rect x="168" y="114" class="st3" width="6" height="6"/>
	<rect x="174" y="114" class="st6" width="6" height="6"/>
	<rect x="180" y="114" class="st6" width="6" height="6"/>
	<rect x="186" y="114" class="st0" width="6" height="6"/>
	<rect x="6" y="120" class="st0" width="6" height="6"/>
	<rect x="12" y="120" class="st0" width="6" height="6"/>
	<rect x="18" y="120" class="st3" width="6" height="6"/>
	<rect x="24" y="120" class="st6" width="6" height="6"/>
	<rect x="30" y="120" class="st1" width="6" height="6"/>
	<rect x="36" y="120" class="st16" width="6" height="6"/>
	<rect x="42" y="120" class="st17" width="6" height="6"/>
	<rect x="48" y="120" class="st7" width="6" height="6"/>
	<rect x="54" y="120" class="st7" width="6" height="6"/>
	<rect x="60" y="120" class="st7" width="6" height="6"/>
	<rect x="66" y="120" class="st6" width="6" height="6"/>
	<rect x="72" y="120" class="st6" width="6" height="6"/>
	<rect x="78" y="120" class="st7" width="6" height="6"/>
	<rect x="84" y="120" class="st6" width="6" height="6"/>
	<rect x="90" y="120" class="st9" width="6" height="6"/>
	<rect x="96" y="120" class="st9" width="6" height="6"/>
	<rect x="102" y="120" class="st6" width="6" height="6"/>
	<rect x="108" y="120" class="st7" width="6" height="6"/>
	<rect x="114" y="120" class="st6" width="6" height="6"/>
	<rect x="120" y="120" class="st6" width="6" height="6"/>
	<rect x="126" y="120" class="st6" width="6" height="6"/>
	<rect x="132" y="120" class="st7" width="6" height="6"/>
	<rect x="138" y="120" class="st7" width="6" height="6"/>
	<rect x="144" y="120" class="st17" width="6" height="6"/>
	<rect x="150" y="120" class="st16" width="6" height="6"/>
	<rect x="156" y="120" class="st1" width="6" height="6"/>
	<rect x="162" y="120" class="st18" width="6" height="6"/>
	<rect x="168" y="120" class="st19" width="6" height="6"/>
	<rect x="174" y="120" class="st19" width="6" height="6"/>
	<rect x="180" y="120" class="st19" width="6" height="6"/>
	<rect x="186" y="120" class="st3" width="6" height="6"/>
	<rect y="126" class="st0" width="6" height="6"/>
	<rect x="6" y="126" class="st3" width="6" height="6"/>
	<rect x="12" y="126" class="st6" width="6" height="6"/>
	<rect x="18" y="126" class="st20" width="6" height="6"/>
	<rect x="24" y="126" class="st13" width="6" height="6"/>
	<rect x="30" y="126" class="st1" width="6" height="6"/>
	<rect x="36" y="126" class="st16" width="6" height="6"/>
	<rect x="42" y="126" class="st13" width="6" height="6"/>
	<rect x="48" y="126" class="st21" width="6" height="6"/>
	<rect x="54" y="126" class="st7" width="6" height="6"/>
	<rect x="60" y="126" class="st6" width="6" height="6"/>
	<rect x="66" y="126" class="st11" width="6" height="6"/>
	<rect x="72" y="126" class="st1" width="6" height="6"/>
	<rect x="78" y="126" class="st7" width="6" height="6"/>
	<rect x="84" y="126" class="st6" width="6" height="6"/>
	<rect x="90" y="126" class="st8" width="6" height="6"/>
	<rect x="96" y="126" class="st8" width="6" height="6"/>
	<rect x="102" y="126" class="st6" width="6" height="6"/>
	<rect x="108" y="126" class="st7" width="6" height="6"/>
	<rect x="114" y="126" class="st1" width="6" height="6"/>
	<rect x="120" y="126" class="st11" width="6" height="6"/>
	<rect x="126" y="126" class="st10" width="6" height="6"/>
	<rect x="132" y="126" class="st1" width="6" height="6"/>
	<rect x="138" y="126" class="st21" width="6" height="6"/>
	<rect x="144" y="126" class="st13" width="6" height="6"/>
	<rect x="150" y="126" class="st16" width="6" height="6"/>
	<rect x="156" y="126" class="st1" width="6" height="6"/>
	<rect x="162" y="126" class="st18" width="6" height="6"/>
	<rect x="168" y="126" class="st18" width="6" height="6"/>
	<rect x="174" y="126" class="st18" width="6" height="6"/>
	<rect x="180" y="126" class="st18" width="6" height="6"/>
	<rect x="186" y="126" class="st19" width="6" height="6"/>
	<rect y="132" class="st6" width="6" height="6"/>
	<rect x="6" y="132" class="st16" width="6" height="6"/>
	<rect x="12" y="132" class="st3" width="6" height="6"/>
	<rect x="18" y="132" class="st20" width="6" height="6"/>
	<rect x="24" y="132" class="st20" width="6" height="6"/>
	<rect x="30" y="132" class="st13" width="6" height="6"/>
	<rect x="36" y="132" class="st1" width="6" height="6"/>
	<rect x="42" y="132" class="st16" width="6" height="6"/>
	<rect x="48" y="132" class="st13" width="6" height="6"/>
	<rect x="54" y="132" class="st21" width="6" height="6"/>
	<rect x="60" y="132" class="st1" width="6" height="6"/>
	<rect x="66" y="132" class="st1" width="6" height="6"/>
	<rect x="72" y="132" class="st7" width="6" height="6"/>
	<rect x="78" y="132" class="st7" width="6" height="6"/>
	<rect x="84" y="132" class="st1" width="6" height="6"/>
	<rect x="90" y="132" class="st11" width="6" height="6"/>
	<rect x="96" y="132" class="st10" width="6" height="6"/>
	<rect x="102" y="132" class="st1" width="6" height="6"/>
	<rect x="108" y="132" class="st7" width="6" height="6"/>
	<rect x="114" y="132" class="st7" width="6" height="6"/>
	<rect x="120" y="132" class="st1" width="6" height="6"/>
	<rect x="126" y="132" class="st1" width="6" height="6"/>
	<rect x="132" y="132" class="st21" width="6" height="6"/>
	<rect x="138" y="132" class="st13" width="6" height="6"/>
	<rect x="144" y="132" class="st16" width="6" height="6"/>
	<rect x="150" y="132" class="st1" width="6" height="6"/>
	<rect x="156" y="132" class="st18" width="6" height="6"/>
	<rect x="162" y="132" class="st22" width="6" height="6"/>
	<rect x="168" y="132" class="st3" width="6" height="6"/>
	<rect x="174" y="132" class="st18" width="6" height="6"/>
	<rect x="180" y="132" class="st18" width="6" height="6"/>
	<rect x="186" y="132" class="st19" width="6" height="6"/>
	<rect y="138" class="st16" width="6" height="6"/>
	<rect x="6" y="138" class="st9" width="6" height="6"/>
	<rect x="12" y="138" class="st13" width="6" height="6"/>
	<rect x="18" y="138" class="st3" width="6" height="6"/>
	<rect x="24" y="138" class="st6" width="6" height="6"/>
	<rect x="30" y="138" class="st3" width="6" height="6"/>
	<rect x="36" y="138" class="st13" width="6" height="6"/>
	<rect x="42" y="138" class="st1" width="6" height="6"/>
	<rect x="48" y="138" class="st23" width="6" height="6"/>
	<rect x="54" y="138" class="st13" width="6" height="6"/>
	<rect x="60" y="138" class="st24" width="6" height="6"/>
	<rect x="66" y="138" class="st25" width="6" height="6"/>
	<rect x="72" y="138" class="st7" width="6" height="6"/>
	<rect x="78" y="138" class="st7" width="6" height="6"/>
	<rect x="84" y="138" class="st7" width="6" height="6"/>
	<rect x="90" y="138" class="st1" width="6" height="6"/>
	<rect x="96" y="138" class="st1" width="6" height="6"/>
	<rect x="102" y="138" class="st7" width="6" height="6"/>
	<rect x="108" y="138" class="st7" width="6" height="6"/>
	<rect x="114" y="138" class="st7" width="6" height="6"/>
	<rect x="120" y="138" class="st25" width="6" height="6"/>
	<rect x="126" y="138" class="st24" width="6" height="6"/>
	<rect x="132" y="138" class="st13" width="6" height="6"/>
	<rect x="138" y="138" class="st23" width="6" height="6"/>
	<rect x="144" y="138" class="st1" width="6" height="6"/>
	<rect x="150" y="138" class="st18" width="6" height="6"/>
	<rect x="156" y="138" class="st22" width="6" height="6"/>
	<rect x="162" y="138" class="st17" width="6" height="6"/>
	<rect x="168" y="138" class="st6" width="6" height="6"/>
	<rect x="174" y="138" class="st18" width="6" height="6"/>
	<rect x="180" y="138" class="st6" width="6" height="6"/>
	<rect x="186" y="138" class="st3" width="6" height="6"/>
	<rect y="144" class="st9" width="6" height="6"/>
	<rect x="6" y="144" class="st13" width="6" height="6"/>
	<rect x="12" y="144" class="st13" width="6" height="6"/>
	<rect x="18" y="144" class="st13" width="6" height="6"/>
	<rect x="24" y="144" class="st13" width="6" height="6"/>
	<rect x="30" y="144" class="st13" width="6" height="6"/>
	<rect x="36" y="144" class="st16" width="6" height="6"/>
	<rect x="42" y="144" class="st13" width="6" height="6"/>
	<rect x="48" y="144" class="st1" width="6" height="6"/>
	<rect x="54" y="144" class="st23" width="6" height="6"/>
	<rect x="60" y="144" class="st13" width="6" height="6"/>
	<rect x="66" y="144" class="st13" width="6" height="6"/>
	<rect x="72" y="144" class="st25" width="6" height="6"/>
	<rect x="78" y="144" class="st25" width="6" height="6"/>
	<rect x="84" y="144" class="st25" width="6" height="6"/>
	<rect x="90" y="144" class="st25" width="6" height="6"/>
	<rect x="96" y="144" class="st25" width="6" height="6"/>
	<rect x="102" y="144" class="st25" width="6" height="6"/>
	<rect x="108" y="144" class="st25" width="6" height="6"/>
	<rect x="114" y="144" class="st25" width="6" height="6"/>
	<rect x="120" y="144" class="st13" width="6" height="6"/>
	<rect x="126" y="144" class="st13" width="6" height="6"/>
	<rect x="132" y="144" class="st23" width="6" height="6"/>
	<rect x="138" y="144" class="st1" width="6" height="6"/>
	<rect x="144" y="144" class="st18" width="6" height="6"/>
	<rect x="150" y="144" class="st18" width="6" height="6"/>
	<rect x="156" y="144" class="st3" width="6" height="6"/>
	<rect x="162" y="144" class="st6" width="6" height="6"/>
	<rect x="168" y="144" class="st18" width="6" height="6"/>
	<rect x="174" y="144" class="st18" width="6" height="6"/>
	<rect x="180" y="144" class="st17" width="6" height="6"/>
	<rect x="186" y="144" class="st14" width="6" height="6"/>
	<rect y="150" class="st9" width="6" height="6"/>
	<rect x="6" y="150" class="st13" width="6" height="6"/>
	<rect x="12" y="150" class="st6" width="6" height="6"/>
	<rect x="18" y="150" class="st6" width="6" height="6"/>
	<rect x="24" y="150" class="st6" width="6" height="6"/>
	<rect x="30" y="150" class="st3" width="6" height="6"/>
	<rect x="36" y="150" class="st3" width="6" height="6"/>
	<rect x="42" y="150" class="st9" width="6" height="6"/>
	<rect x="48" y="150" class="st13" width="6" height="6"/>
	<rect x="54" y="150" class="st1" width="6" height="6"/>
	<rect x="60" y="150" class="st23" width="6" height="6"/>
	<rect x="66" y="150" class="st23" width="6" height="6"/>
	<rect x="72" y="150" class="st9" width="6" height="6"/>
	<rect x="78" y="150" class="st9" width="6" height="6"/>
	<rect x="84" y="150" class="st9" width="6" height="6"/>
	<rect x="90" y="150" class="st9" width="6" height="6"/>
	<rect x="96" y="150" class="st9" width="6" height="6"/>
	<rect x="102" y="150" class="st9" width="6" height="6"/>
	<rect x="108" y="150" class="st9" width="6" height="6"/>
	<rect x="114" y="150" class="st9" width="6" height="6"/>
	<rect x="120" y="150" class="st23" width="6" height="6"/>
	<rect x="126" y="150" class="st23" width="6" height="6"/>
	<rect x="132" y="150" class="st1" width="6" height="6"/>
	<rect x="138" y="150" class="st18" width="6" height="6"/>
	<rect x="144" y="150" class="st3" width="6" height="6"/>
	<rect x="150" y="150" class="st19" width="6" height="6"/>
	<rect x="156" y="150" class="st18" width="6" height="6"/>
	<rect x="162" y="150" class="st18" width="6" height="6"/>
	<rect x="168" y="150" class="st18" width="6" height="6"/>
	<rect x="174" y="150" class="st19" width="6" height="6"/>
	<rect x="180" y="150" class="st3" width="6" height="6"/>
	<rect x="186" y="150" class="st6" width="6" height="6"/>
	<rect y="156" class="st6" width="6" height="6"/>
	<rect x="6" y="156" class="st3" width="6" height="6"/>
	<rect x="12" y="156" class="st9" width="6" height="6"/>
	<rect x="18" y="156" class="st9" width="6" height="6"/>
	<rect x="24" y="156" class="st9" width="6" height="6"/>
	<rect x="30" y="156" class="st9" width="6" height="6"/>
	<rect x="36" y="156" class="st9" width="6" height="6"/>
	<rect x="42" y="156" class="st3" width="6" height="6"/>
	<rect x="48" y="156" class="st13" width="6" height="6"/>
	<rect x="54" y="156" class="st13" width="6" height="6"/>
	<rect x="60" y="156" class="st1" width="6" height="6"/>
	<rect x="66" y="156" class="st1" width="6" height="6"/>
	<rect x="72" y="156" class="st23" width="6" height="6"/>
	<rect x="78" y="156" class="st23" width="6" height="6"/>
	<rect x="84" y="156" class="st23" width="6" height="6"/>
	<rect x="90" y="156" class="st23" width="6" height="6"/>
	<rect x="96" y="156" class="st23" width="6" height="6"/>
	<rect x="102" y="156" class="st23" width="6" height="6"/>
	<rect x="108" y="156" class="st23" width="6" height="6"/>
	<rect x="114" y="156" class="st23" width="6" height="6"/>
	<rect x="120" y="156" class="st1" width="6" height="6"/>
	<rect x="126" y="156" class="st1" width="6" height="6"/>
	<rect x="132" y="156" class="st18" width="6" height="6"/>
	<rect x="138" y="156" class="st26" width="6" height="6"/>
	<rect x="144" y="156" class="st26" width="6" height="6"/>
	<rect x="150" y="156" class="st19" width="6" height="6"/>
	<rect x="156" y="156" class="st18" width="6" height="6"/>
	<rect x="162" y="156" class="st18" width="6" height="6"/>
	<rect x="168" y="156" class="st19" width="6" height="6"/>
	<rect x="174" y="156" class="st3" width="6" height="6"/>
	<rect x="180" y="156" class="st22" width="6" height="6"/>
	<rect x="186" y="156" class="st22" width="6" height="6"/>
	<rect y="162" class="st13" width="6" height="6"/>
	<rect x="6" y="162" class="st6" width="6" height="6"/>
	<rect x="12" y="162" class="st20" width="6" height="6"/>
	<rect x="18" y="162" class="st20" width="6" height="6"/>
	<rect x="24" y="162" class="st20" width="6" height="6"/>
	<rect x="30" y="162" class="st20" width="6" height="6"/>
	<rect x="36" y="162" class="st3" width="6" height="6"/>
	<rect x="42" y="162" class="st13" width="6" height="6"/>
	<rect x="48" y="162" class="st13" width="6" height="6"/>
	<rect x="54" y="162" class="st3" width="6" height="6"/>
	<rect x="60" y="162" class="st13" width="6" height="6"/>
	<rect x="66" y="162" class="st13" width="6" height="6"/>
	<rect x="72" y="162" class="st1" width="6" height="6"/>
	<rect x="78" y="162" class="st1" width="6" height="6"/>
	<rect x="84" y="162" class="st1" width="6" height="6"/>
	<rect x="90" y="162" class="st1" width="6" height="6"/>
	<rect x="96" y="162" class="st1" width="6" height="6"/>
	<rect x="102" y="162" class="st1" width="6" height="6"/>
	<rect x="108" y="162" class="st1" width="6" height="6"/>
	<rect x="114" y="162" class="st1" width="6" height="6"/>
	<rect x="120" y="162" class="st18" width="6" height="6"/>
	<rect x="126" y="162" class="st18" width="6" height="6"/>
	<rect x="132" y="162" class="st17" width="6" height="6"/>
	<rect x="138" y="162" class="st17" width="6" height="6"/>
	<rect x="144" y="162" class="st3" width="6" height="6"/>
	<rect x="150" y="162" class="st18" width="6" height="6"/>
	<rect x="156" y="162" class="st18" width="6" height="6"/>
	<rect x="162" y="162" class="st18" width="6" height="6"/>
	<rect x="168" y="162" class="st6" width="6" height="6"/>
	<rect x="174" y="162" class="st22" width="6" height="6"/>
	<rect x="180" y="162" class="st22" width="6" height="6"/>
	<rect x="186" y="162" class="st22" width="6" height="6"/>
	<rect y="168" class="st13" width="6" height="6"/>
	<rect x="6" y="168" class="st13" width="6" height="6"/>
	<rect x="12" y="168" class="st13" width="6" height="6"/>
	<rect x="18" y="168" class="st13" width="6" height="6"/>
	<rect x="24" y="168" class="st13" width="6" height="6"/>
	<rect x="30" y="168" class="st13" width="6" height="6"/>
	<rect x="36" y="168" class="st13" width="6" height="6"/>
	<rect x="42" y="168" class="st13" width="6" height="6"/>
	<rect x="48" y="168" class="st3" width="6" height="6"/>
	<rect x="54" y="168" class="st13" width="6" height="6"/>
	<rect x="60" y="168" class="st13" width="6" height="6"/>
	<rect x="66" y="168" class="st13" width="6" height="6"/>
	<rect x="72" y="168" class="st13" width="6" height="6"/>
	<rect x="78" y="168" class="st13" width="6" height="6"/>
	<rect x="84" y="168" class="st13" width="6" height="6"/>
	<rect x="90" y="168" class="st13" width="6" height="6"/>
	<rect x="96" y="168" class="st9" width="6" height="6"/>
	<rect x="102" y="168" class="st6" width="6" height="6"/>
	<rect x="108" y="168" class="st18" width="6" height="6"/>
	<rect x="114" y="168" class="st18" width="6" height="6"/>
	<rect x="120" y="168" class="st18" width="6" height="6"/>
	<rect x="126" y="168" class="st18" width="6" height="6"/>
	<rect x="132" y="168" class="st18" width="6" height="6"/>
	<rect x="138" y="168" class="st18" width="6" height="6"/>
	<rect x="144" y="168" class="st18" width="6" height="6"/>
	<rect x="150" y="168" class="st18" width="6" height="6"/>
	<rect x="156" y="168" class="st6" width="6" height="6"/>
	<rect x="162" y="168" class="st3" width="6" height="6"/>
	<rect x="168" y="168" class="st18" width="6" height="6"/>
	<rect x="174" y="168" class="st18" width="6" height="6"/>
	<rect x="180" y="168" class="st18" width="6" height="6"/>
	<rect x="186" y="168" class="st18" width="6" height="6"/>
	<rect y="174" class="st13" width="6" height="6"/>
	<rect x="6" y="174" class="st13" width="6" height="6"/>
	<rect x="12" y="174" class="st13" width="6" height="6"/>
	<rect x="18" y="174" class="st9" width="6" height="6"/>
	<rect x="24" y="174" class="st3" width="6" height="6"/>
	<rect x="30" y="174" class="st6" width="6" height="6"/>
	<rect x="36" y="174" class="st13" width="6" height="6"/>
	<rect x="42" y="174" class="st6" width="6" height="6"/>
	<rect x="48" y="174" class="st9" width="6" height="6"/>
	<rect x="54" y="174" class="st6" width="6" height="6"/>
	<rect x="60" y="174" class="st13" width="6" height="6"/>
	<rect x="66" y="174" class="st6" width="6" height="6"/>
	<rect x="72" y="174" class="st3" width="6" height="6"/>
	<rect x="78" y="174" class="st6" width="6" height="6"/>
	<rect x="84" y="174" class="st13" width="6" height="6"/>
	<rect x="90" y="174" class="st13" width="6" height="6"/>
	<rect x="96" y="174" class="st3" width="6" height="6"/>
	<rect x="102" y="174" class="st6" width="6" height="6"/>
	<rect x="108" y="174" class="st18" width="6" height="6"/>
	<rect x="114" y="174" class="st22" width="6" height="6"/>
	<rect x="120" y="174" class="st18" width="6" height="6"/>
	<rect x="126" y="174" class="st14" width="6" height="6"/>
	<rect x="132" y="174" class="st3" width="6" height="6"/>
	<rect x="138" y="174" class="st14" width="6" height="6"/>
	<rect x="144" y="174" class="st18" width="6" height="6"/>
	<rect x="150" y="174" class="st6" width="6" height="6"/>
	<rect x="156" y="174" class="st17" width="6" height="6"/>
	<rect x="162" y="174" class="st17" width="6" height="6"/>
	<rect x="168" y="174" class="st3" width="6" height="6"/>
	<rect x="174" y="174" class="st18" width="6" height="6"/>
	<rect x="180" y="174" class="st18" width="6" height="6"/>
	<rect x="186" y="174" class="st3" width="6" height="6"/>
	<rect y="180" class="st6" width="6" height="6"/>
	<rect x="6" y="180" class="st9" width="6" height="6"/>
	<rect x="12" y="180" class="st13" width="6" height="6"/>
	<rect x="18" y="180" class="st3" width="6" height="6"/>
	<rect x="24" y="180" class="st20" width="6" height="6"/>
	<rect x="30" y="180" class="st3" width="6" height="6"/>
	<rect x="36" y="180" class="st13" width="6" height="6"/>
	<rect x="42" y="180" class="st6" width="6" height="6"/>
	<rect x="48" y="180" class="st20" width="6" height="6"/>
	<rect x="54" y="180" class="st3" width="6" height="6"/>
	<rect x="60" y="180" class="st6" width="6" height="6"/>
	<rect x="66" y="180" class="st3" width="6" height="6"/>
	<rect x="72" y="180" class="st20" width="6" height="6"/>
	<rect x="78" y="180" class="st20" width="6" height="6"/>
	<rect x="84" y="180" class="st3" width="6" height="6"/>
	<rect x="90" y="180" class="st9" width="6" height="6"/>
	<rect x="96" y="180" class="st13" width="6" height="6"/>
	<rect x="102" y="180" class="st3" width="6" height="6"/>
	<rect x="108" y="180" class="st6" width="6" height="6"/>
	<rect x="114" y="180" class="st13" width="6" height="6"/>
	<rect x="120" y="180" class="st22" width="6" height="6"/>
	<rect x="126" y="180" class="st3" width="6" height="6"/>
	<rect x="132" y="180" class="st17" width="6" height="6"/>
	<rect x="138" y="180" class="st3" width="6" height="6"/>
	<rect x="144" y="180" class="st27" width="6" height="6"/>
	<rect x="150" y="180" class="st6" width="6" height="6"/>
	<rect x="156" y="180" class="st22" width="6" height="6"/>
	<rect x="162" y="180" class="st22" width="6" height="6"/>
	<rect x="168" y="180" class="st6" width="6" height="6"/>
	<rect x="174" y="180" class="st18" width="6" height="6"/>
	<rect x="180" y="180" class="st3" width="6" height="6"/>
	<rect x="186" y="180" class="st14" width="6" height="6"/>
	<rect y="186" class="st3" width="6" height="6"/>
	<rect x="6" y="186" class="st6" width="6" height="6"/>
	<rect x="12" y="186" class="st9" width="6" height="6"/>
	<rect x="18" y="186" class="st6" width="6" height="6"/>
	<rect x="24" y="186" class="st3" width="6" height="6"/>
	<rect x="30" y="186" class="st6" width="6" height="6"/>
	<rect x="36" y="186" class="st6" width="6" height="6"/>
	<rect x="42" y="186" class="st3" width="6" height="6"/>
	<rect x="48" y="186" class="st20" width="6" height="6"/>
	<rect x="54" y="186" class="st3" width="6" height="6"/>
	<rect x="60" y="186" class="st6" width="6" height="6"/>
	<rect x="66" y="186" class="st6" width="6" height="6"/>
	<rect x="72" y="186" class="st3" width="6" height="6"/>
	<rect x="78" y="186" class="st6" width="6" height="6"/>
	<rect x="84" y="186" class="st9" width="6" height="6"/>
	<rect x="90" y="186" class="st13" width="6" height="6"/>
	<rect x="96" y="186" class="st6" width="6" height="6"/>
	<rect x="102" y="186" class="st3" width="6" height="6"/>
	<rect x="108" y="186" class="st6" width="6" height="6"/>
	<rect x="114" y="186" class="st18" width="6" height="6"/>
	<rect x="120" y="186" class="st13" width="6" height="6"/>
	<rect x="126" y="186" class="st22" width="6" height="6"/>
	<rect x="132" y="186" class="st3" width="6" height="6"/>
	<rect x="138" y="186" class="st28" width="6" height="6"/>
	<rect x="144" y="186" class="st28" width="6" height="6"/>
	<rect x="150" y="186" class="st3" width="6" height="6"/>
	<rect x="156" y="186" class="st22" width="6" height="6"/>
	<rect x="162" y="186" class="st22" width="6" height="6"/>
	<rect x="168" y="186" class="st3" width="6" height="6"/>
	<rect x="174" y="186" class="st28" width="6" height="6"/>
	<rect x="180" y="186" class="st28" width="6" height="6"/>
	<rect x="186" y="186" class="st6" width="6" height="6"/>
</g>
</svg>
