<?xml version="1.0" encoding="utf-8"?>
<!-- Generator: Adobe Illustrator 27.9.0, SVG Export Plug-In . SVG Version: 6.00 Build 0)  -->
<svg version="1.1" id="Layer_1" shape-rendering="crispEdges"
	 xmlns="http://www.w3.org/2000/svg" xmlns:xlink="http://www.w3.org/1999/xlink" x="0px" y="0px" viewBox="0 0 192 192"
	 style="enable-background:new 0 0 192 192;" xml:space="preserve">
<style type="text/css">
	.st0{fill:#50B06E;}
	.st1{fill:#B5E273;}
	.st2{fill:#1F649B;}
	.st3{fill:#283C82;}
	.st4{fill:#694F86;}
	.st5{fill:#E6C874;}
	.st6{fill:#E36C74;}
	.st7{fill:#435BA3;}
	.st8{fill:#733C81;}
	.st9{fill:#428E3B;}
	.st10{fill:#5BD45A;}
	.st11{fill:#1D8566;}
</style>
<g>
	<rect x="62.4" class="st0" width="5.6" height="5.6"/>
	<rect x="68" class="st1" width="5.6" height="5.6"/>
	<rect x="73.6" class="st0" width="5.6" height="5.6"/>
	<rect x="112.8" class="st0" width="5.6" height="5.6"/>
	<rect x="118.4" class="st1" width="5.6" height="5.6"/>
	<rect x="124" class="st0" width="5.6" height="5.6"/>
	<rect x="68" y="5.6" class="st0" width="5.6" height="5.6"/>
	<rect x="73.6" y="5.6" class="st1" width="5.6" height="5.6"/>
	<rect x="79.2" y="5.6" class="st0" width="5.6" height="5.6"/>
	<rect x="107.2" y="5.6" class="st0" width="5.6" height="5.6"/>
	<rect x="112.8" y="5.6" class="st1" width="5.6" height="5.6"/>
	<rect x="118.4" y="5.6" class="st0" width="5.6" height="5.6"/>
	<rect x="73.6" y="11.2" class="st0" width="5.6" height="5.6"/>
	<rect x="79.2" y="11.2" class="st1" width="5.6" height="5.6"/>
	<rect x="84.8" y="11.2" class="st0" width="5.6" height="5.6"/>
	<rect x="101.6" y="11.2" class="st0" width="5.6" height="5.6"/>
	<rect x="107.2" y="11.2" class="st1" width="5.6" height="5.6"/>
	<rect x="112.8" y="11.2" class="st0" width="5.6" height="5.6"/>
	<rect x="68" y="16.8" class="st0" width="5.6" height="5.6"/>
	<rect x="73.6" y="16.8" class="st0" width="5.6" height="5.6"/>
	<rect x="79.2" y="16.8" class="st0" width="5.6" height="5.6"/>
	<rect x="84.8" y="16.8" class="st1" width="5.6" height="5.6"/>
	<rect x="90.4" y="16.8" class="st0" width="5.6" height="5.6"/>
	<rect x="96" y="16.8" class="st0" width="5.6" height="5.6"/>
	<rect x="101.6" y="16.8" class="st1" width="5.6" height="5.6"/>
	<rect x="107.2" y="16.8" class="st0" width="5.6" height="5.6"/>
	<rect x="112.8" y="16.8" class="st0" width="5.6" height="5.6"/>
	<rect x="118.4" y="16.8" class="st0" width="5.6" height="5.6"/>
	<rect x="62.4" y="22.4" class="st0" width="5.6" height="5.6"/>
	<rect x="68" y="22.4" class="st2" width="5.6" height="5.6"/>
	<rect x="73.6" y="22.4" class="st2" width="5.6" height="5.6"/>
	<rect x="79.2" y="22.4" class="st2" width="5.6" height="5.6"/>
	<rect x="84.8" y="22.4" class="st3" width="5.6" height="5.6"/>
	<rect x="90.4" y="22.4" class="st1" width="5.6" height="5.6"/>
	<rect x="96" y="22.4" class="st1" width="5.6" height="5.6"/>
	<rect x="101.6" y="22.4" class="st3" width="5.6" height="5.6"/>
	<rect x="107.2" y="22.4" class="st4" width="5.6" height="5.6"/>
	<rect x="112.8" y="22.4" class="st4" width="5.6" height="5.6"/>
	<rect x="118.4" y="22.4" class="st4" width="5.6" height="5.6"/>
	<rect x="124" y="22.4" class="st0" width="5.6" height="5.6"/>
	<rect x="56.8" y="28" class="st0" width="5.6" height="5.6"/>
	<rect x="62.4" y="28" class="st5" width="5.6" height="5.6"/>
	<rect x="68" y="28" class="st1" width="5.6" height="5.6"/>
	<rect x="73.6" y="28" class="st1" width="5.6" height="5.6"/>
	<rect x="79.2" y="28" class="st6" width="5.6" height="5.6"/>
	<rect x="84.8" y="28" class="st1" width="5.6" height="5.6"/>
	<rect x="90.4" y="28" class="st7" width="5.6" height="5.6"/>
	<rect x="96" y="28" class="st7" width="5.6" height="5.6"/>
	<rect x="101.6" y="28" class="st1" width="5.6" height="5.6"/>
	<rect x="107.2" y="28" class="st8" width="5.6" height="5.6"/>
	<rect x="112.8" y="28" class="st5" width="5.6" height="5.6"/>
	<rect x="118.4" y="28" class="st1" width="5.6" height="5.6"/>
	<rect x="124" y="28" class="st1" width="5.6" height="5.6"/>
	<rect x="129.6" y="28" class="st0" width="5.6" height="5.6"/>
	<rect x="51.2" y="33.6" class="st0" width="5.6" height="5.6"/>
	<rect x="56.8" y="33.6" class="st5" width="5.6" height="5.6"/>
	<rect x="62.4" y="33.6" class="st9" width="5.6" height="5.6"/>
	<rect x="68" y="33.6" class="st9" width="5.6" height="5.6"/>
	<rect x="73.6" y="33.6" class="st9" width="5.6" height="5.6"/>
	<rect x="79.2" y="33.6" class="st1" width="5.6" height="5.6"/>
	<rect x="84.8" y="33.6" class="st9" width="5.6" height="5.6"/>
	<rect x="90.4" y="33.6" class="st3" width="5.6" height="5.6"/>
	<rect x="96" y="33.6" class="st3" width="5.6" height="5.6"/>
	<rect x="101.6" y="33.6" class="st9" width="5.6" height="5.6"/>
	<rect x="107.2" y="33.6" class="st5" width="5.6" height="5.6"/>
	<rect x="112.8" y="33.6" class="st9" width="5.6" height="5.6"/>
	<rect x="118.4" y="33.6" class="st9" width="5.6" height="5.6"/>
	<rect x="124" y="33.6" class="st9" width="5.6" height="5.6"/>
	<rect x="129.6" y="33.6" class="st1" width="5.6" height="5.6"/>
	<rect x="135.2" y="33.6" class="st0" width="5.6" height="5.6"/>
	<rect x="45.6" y="39.2" class="st0" width="5.6" height="5.6"/>
	<rect x="51.2" y="39.2" class="st5" width="5.6" height="5.6"/>
	<rect x="56.8" y="39.2" class="st9" width="5.6" height="5.6"/>
	<rect x="62.4" y="39.2" class="st7" width="5.6" height="5.6"/>
	<rect x="68" y="39.2" class="st7" width="5.6" height="5.6"/>
	<rect x="73.6" y="39.2" class="st7" width="5.6" height="5.6"/>
	<rect x="79.2" y="39.2" class="st9" width="5.6" height="5.6"/>
	<rect x="84.8" y="39.2" class="st1" width="5.6" height="5.6"/>
	<rect x="90.4" y="39.2" class="st1" width="5.6" height="5.6"/>
	<rect x="96" y="39.2" class="st3" width="5.6" height="5.6"/>
	<rect x="101.6" y="39.2" class="st1" width="5.6" height="5.6"/>
	<rect x="107.2" y="39.2" class="st9" width="5.6" height="5.6"/>
	<rect x="112.8" y="39.2" class="st7" width="5.6" height="5.6"/>
	<rect x="118.4" y="39.2" class="st7" width="5.6" height="5.6"/>
	<rect x="124" y="39.2" class="st7" width="5.6" height="5.6"/>
	<rect x="129.6" y="39.2" class="st9" width="5.6" height="5.6"/>
	<rect x="135.2" y="39.2" class="st1" width="5.6" height="5.6"/>
	<rect x="140.8" y="39.2" class="st0" width="5.6" height="5.6"/>
	<rect x="39.9" y="44.8" class="st0" width="5.6" height="5.6"/>
	<rect x="45.6" y="44.8" class="st2" width="5.6" height="5.6"/>
	<rect x="51.2" y="44.8" class="st1" width="5.6" height="5.6"/>
	<rect x="56.8" y="44.8" class="st9" width="5.6" height="5.6"/>
	<rect x="62.4" y="44.8" class="st7" width="5.6" height="5.6"/>
	<rect x="68" y="44.8" class="st7" width="5.6" height="5.6"/>
	<rect x="73.6" y="44.8" class="st7" width="5.6" height="5.6"/>
	<rect x="79.2" y="44.8" class="st9" width="5.6" height="5.6"/>
	<rect x="84.8" y="44.8" class="st1" width="5.6" height="5.6"/>
	<rect x="90.4" y="44.8" class="st3" width="5.6" height="5.6"/>
	<rect x="96" y="44.8" class="st1" width="5.6" height="5.6"/>
	<rect x="101.6" y="44.8" class="st1" width="5.6" height="5.6"/>
	<rect x="107.2" y="44.8" class="st9" width="5.6" height="5.6"/>
	<rect x="112.8" y="44.8" class="st7" width="5.6" height="5.6"/>
	<rect x="118.4" y="44.8" class="st7" width="5.6" height="5.6"/>
	<rect x="124" y="44.8" class="st7" width="5.6" height="5.6"/>
	<rect x="129.6" y="44.8" class="st9" width="5.6" height="5.6"/>
	<rect x="135.2" y="44.8" class="st1" width="5.6" height="5.6"/>
	<rect x="140.8" y="44.8" class="st3" width="5.6" height="5.6"/>
	<rect x="146.4" y="44.8" class="st0" width="5.6" height="5.6"/>
	<rect x="39.9" y="50.4" class="st0" width="5.6" height="5.6"/>
	<rect x="45.6" y="50.4" class="st2" width="5.6" height="5.6"/>
	<rect x="51.2" y="50.4" class="st6" width="5.6" height="5.6"/>
	<rect x="56.8" y="50.4" class="st1" width="5.6" height="5.6"/>
	<rect x="62.4" y="50.4" class="st9" width="5.6" height="5.6"/>
	<rect x="68" y="50.4" class="st9" width="5.6" height="5.6"/>
	<rect x="73.6" y="50.4" class="st9" width="5.6" height="5.6"/>
	<rect x="79.2" y="50.4" class="st1" width="5.6" height="5.6"/>
	<rect x="84.8" y="50.4" class="st9" width="5.6" height="5.6"/>
	<rect x="90.4" y="50.4" class="st3" width="5.6" height="5.6"/>
	<rect x="96" y="50.4" class="st3" width="5.6" height="5.6"/>
	<rect x="101.6" y="50.4" class="st9" width="5.6" height="5.6"/>
	<rect x="107.2" y="50.4" class="st1" width="5.6" height="5.6"/>
	<rect x="112.8" y="50.4" class="st9" width="5.6" height="5.6"/>
	<rect x="118.4" y="50.4" class="st9" width="5.6" height="5.6"/>
	<rect x="124" y="50.4" class="st9" width="5.6" height="5.6"/>
	<rect x="129.6" y="50.4" class="st1" width="5.6" height="5.6"/>
	<rect x="135.2" y="50.4" class="st7" width="5.6" height="5.6"/>
	<rect x="140.8" y="50.4" class="st3" width="5.6" height="5.6"/>
	<rect x="146.4" y="50.4" class="st0" width="5.6" height="5.6"/>
	<rect x="39.9" y="56.1" class="st0" width="5.6" height="5.6"/>
	<rect x="45.6" y="56.1" class="st2" width="5.6" height="5.6"/>
	<rect x="51.2" y="56.1" class="st6" width="5.6" height="5.6"/>
	<rect x="56.8" y="56.1" class="st7" width="5.6" height="5.6"/>
	<rect x="62.4" y="56.1" class="st1" width="5.6" height="5.6"/>
	<rect x="68" y="56.1" class="st1" width="5.6" height="5.6"/>
	<rect x="73.6" y="56.1" class="st1" width="5.6" height="5.6"/>
	<rect x="79.2" y="56.1" class="st7" width="5.6" height="5.6"/>
	<rect x="84.8" y="56.1" class="st1" width="5.6" height="5.6"/>
	<rect x="90.4" y="56.1" class="st7" width="5.6" height="5.6"/>
	<rect x="96" y="56.1" class="st7" width="5.6" height="5.6"/>
	<rect x="101.6" y="56.1" class="st1" width="5.6" height="5.6"/>
	<rect x="107.2" y="56.1" class="st7" width="5.6" height="5.6"/>
	<rect x="112.8" y="56.1" class="st1" width="5.6" height="5.6"/>
	<rect x="118.4" y="56.1" class="st1" width="5.6" height="5.6"/>
	<rect x="124" y="56.1" class="st1" width="5.6" height="5.6"/>
	<rect x="129.6" y="56.1" class="st7" width="5.6" height="5.6"/>
	<rect x="135.2" y="56.1" class="st7" width="5.6" height="5.6"/>
	<rect x="140.8" y="56.1" class="st3" width="5.6" height="5.6"/>
	<rect x="146.4" y="56.1" class="st0" width="5.6" height="5.6"/>
	<rect x="39.9" y="61.7" class="st0" width="5.6" height="5.6"/>
	<rect x="45.6" y="61.7" class="st2" width="5.6" height="5.6"/>
	<rect x="51.2" y="61.7" class="st8" width="5.6" height="5.6"/>
	<rect x="56.8" y="61.7" class="st7" width="5.6" height="5.6"/>
	<rect x="62.4" y="61.7" class="st7" width="5.6" height="5.6"/>
	<rect x="68" y="61.7" class="st7" width="5.6" height="5.6"/>
	<rect x="73.6" y="61.7" class="st7" width="5.6" height="5.6"/>
	<rect x="79.2" y="61.7" class="st7" width="5.6" height="5.6"/>
	<rect x="84.8" y="61.7" class="st7" width="5.6" height="5.6"/>
	<rect x="90.4" y="61.7" class="st1" width="5.6" height="5.6"/>
	<rect x="96" y="61.7" class="st1" width="5.6" height="5.6"/>
	<rect x="101.6" y="61.7" class="st7" width="5.6" height="5.6"/>
	<rect x="107.2" y="61.7" class="st7" width="5.6" height="5.6"/>
	<rect x="112.8" y="61.7" class="st7" width="5.6" height="5.6"/>
	<rect x="118.4" y="61.7" class="st7" width="5.6" height="5.6"/>
	<rect x="124" y="61.7" class="st7" width="5.6" height="5.6"/>
	<rect x="129.6" y="61.7" class="st7" width="5.6" height="5.6"/>
	<rect x="135.2" y="61.7" class="st7" width="5.6" height="5.6"/>
	<rect x="140.8" y="61.7" class="st3" width="5.6" height="5.6"/>
	<rect x="146.4" y="61.7" class="st0" width="5.6" height="5.6"/>
	<rect x="39.9" y="67.3" class="st0" width="5.6" height="5.6"/>
	<rect x="45.6" y="67.3" class="st2" width="5.6" height="5.6"/>
	<rect x="51.2" y="67.3" class="st8" width="5.6" height="5.6"/>
	<rect x="56.8" y="67.3" class="st7" width="5.6" height="5.6"/>
	<rect x="62.4" y="67.3" class="st7" width="5.6" height="5.6"/>
	<rect x="68" y="67.3" class="st7" width="5.6" height="5.6"/>
	<rect x="73.6" y="67.3" class="st7" width="5.6" height="5.6"/>
	<rect x="79.2" y="67.3" class="st7" width="5.6" height="5.6"/>
	<rect x="84.8" y="67.3" class="st7" width="5.6" height="5.6"/>
	<rect x="90.4" y="67.3" class="st7" width="5.6" height="5.6"/>
	<rect x="96" y="67.3" class="st7" width="5.6" height="5.6"/>
	<rect x="101.6" y="67.3" class="st7" width="5.6" height="5.6"/>
	<rect x="107.2" y="67.3" class="st7" width="5.6" height="5.6"/>
	<rect x="112.8" y="67.3" class="st7" width="5.6" height="5.6"/>
	<rect x="118.4" y="67.3" class="st1" width="5.6" height="5.6"/>
	<rect x="124" y="67.3" class="st1" width="5.6" height="5.6"/>
	<rect x="129.6" y="67.3" class="st1" width="5.6" height="5.6"/>
	<rect x="135.2" y="67.3" class="st1" width="5.6" height="5.6"/>
	<rect x="140.8" y="67.3" class="st3" width="5.6" height="5.6"/>
	<rect x="146.4" y="67.3" class="st0" width="5.6" height="5.6"/>
	<rect x="39.9" y="72.9" class="st0" width="5.6" height="5.6"/>
	<rect x="45.6" y="72.9" class="st2" width="5.6" height="5.6"/>
	<rect x="51.2" y="72.9" class="st6" width="5.6" height="5.6"/>
	<rect x="56.8" y="72.9" class="st7" width="5.6" height="5.6"/>
	<rect x="62.4" y="72.9" class="st7" width="5.6" height="5.6"/>
	<rect x="68" y="72.9" class="st7" width="5.6" height="5.6"/>
	<rect x="73.6" y="72.9" class="st7" width="5.6" height="5.6"/>
	<rect x="79.2" y="72.9" class="st7" width="5.6" height="5.6"/>
	<rect x="84.8" y="72.9" class="st9" width="5.6" height="5.6"/>
	<rect x="90.4" y="72.9" class="st9" width="5.6" height="5.6"/>
	<rect x="96" y="72.9" class="st9" width="5.6" height="5.6"/>
	<rect x="101.6" y="72.9" class="st9" width="5.6" height="5.6"/>
	<rect x="107.2" y="72.9" class="st7" width="5.6" height="5.6"/>
	<rect x="112.8" y="72.9" class="st1" width="5.6" height="5.6"/>
	<rect x="118.4" y="72.9" class="st3" width="5.6" height="5.6"/>
	<rect x="124" y="72.9" class="st1" width="5.6" height="5.6"/>
	<rect x="129.6" y="72.9" class="st1" width="5.6" height="5.6"/>
	<rect x="135.2" y="72.9" class="st3" width="5.6" height="5.6"/>
	<rect x="140.8" y="72.9" class="st4" width="5.6" height="5.6"/>
	<rect x="146.4" y="72.9" class="st0" width="5.6" height="5.6"/>
	<rect x="39.9" y="78.5" class="st0" width="5.6" height="5.6"/>
	<rect x="45.6" y="78.5" class="st2" width="5.6" height="5.6"/>
	<rect x="51.2" y="78.5" class="st6" width="5.6" height="5.6"/>
	<rect x="56.8" y="78.5" class="st7" width="5.6" height="5.6"/>
	<rect x="62.4" y="78.5" class="st7" width="5.6" height="5.6"/>
	<rect x="68" y="78.5" class="st7" width="5.6" height="5.6"/>
	<rect x="73.6" y="78.5" class="st7" width="5.6" height="5.6"/>
	<rect x="79.2" y="78.5" class="st9" width="5.6" height="5.6"/>
	<rect x="84.8" y="78.5" class="st6" width="5.6" height="5.6"/>
	<rect x="90.4" y="78.5" class="st6" width="5.6" height="5.6"/>
	<rect x="96" y="78.5" class="st6" width="5.6" height="5.6"/>
	<rect x="101.6" y="78.5" class="st6" width="5.6" height="5.6"/>
	<rect x="107.2" y="78.5" class="st9" width="5.6" height="5.6"/>
	<rect x="112.8" y="78.5" class="st3" width="5.6" height="5.6"/>
	<rect x="118.4" y="78.5" class="st1" width="5.6" height="5.6"/>
	<rect x="124" y="78.5" class="st3" width="5.6" height="5.6"/>
	<rect x="129.6" y="78.5" class="st3" width="5.6" height="5.6"/>
	<rect x="135.2" y="78.5" class="st1" width="5.6" height="5.6"/>
	<rect x="140.8" y="78.5" class="st3" width="5.6" height="5.6"/>
	<rect x="146.4" y="78.5" class="st0" width="5.6" height="5.6"/>
	<rect x="39.9" y="84.1" class="st0" width="5.6" height="5.6"/>
	<rect x="45.6" y="84.1" class="st2" width="5.6" height="5.6"/>
	<rect x="51.2" y="84.1" class="st6" width="5.6" height="5.6"/>
	<rect x="56.8" y="84.1" class="st7" width="5.6" height="5.6"/>
	<rect x="62.4" y="84.1" class="st7" width="5.6" height="5.6"/>
	<rect x="68" y="84.1" class="st7" width="5.6" height="5.6"/>
	<rect x="73.6" y="84.1" class="st9" width="5.6" height="5.6"/>
	<rect x="79.2" y="84.1" class="st6" width="5.6" height="5.6"/>
	<rect x="84.8" y="84.1" class="st1" width="5.6" height="5.6"/>
	<rect x="90.4" y="84.1" class="st1" width="5.6" height="5.6"/>
	<rect x="96" y="84.1" class="st1" width="5.6" height="5.6"/>
	<rect x="101.6" y="84.1" class="st1" width="5.6" height="5.6"/>
	<rect x="107.2" y="84.1" class="st10" width="5.6" height="5.6"/>
	<rect x="112.8" y="84.1" class="st9" width="5.6" height="5.6"/>
	<rect x="118.4" y="84.1" class="st3" width="5.6" height="5.6"/>
	<rect x="124" y="84.1" class="st1" width="5.6" height="5.6"/>
	<rect x="129.6" y="84.1" class="st1" width="5.6" height="5.6"/>
	<rect x="135.2" y="84.1" class="st3" width="5.6" height="5.6"/>
	<rect x="140.8" y="84.1" class="st4" width="5.6" height="5.6"/>
	<rect x="146.4" y="84.1" class="st0" width="5.6" height="5.6"/>
	<rect x="39.9" y="89.7" class="st0" width="5.6" height="5.6"/>
	<rect x="45.6" y="89.7" class="st2" width="5.6" height="5.6"/>
	<rect x="51.2" y="89.7" class="st11" width="5.6" height="5.6"/>
	<rect x="56.8" y="89.7" class="st1" width="5.6" height="5.6"/>
	<rect x="62.4" y="89.7" class="st1" width="5.6" height="5.6"/>
	<rect x="68" y="89.7" class="st1" width="5.6" height="5.6"/>
	<rect x="73.6" y="89.7" class="st9" width="5.6" height="5.6"/>
	<rect x="79.2" y="89.7" class="st6" width="5.6" height="5.6"/>
	<rect x="84.8" y="89.7" class="st1" width="5.6" height="5.6"/>
	<rect x="90.4" y="89.7" class="st1" width="5.6" height="5.6"/>
	<rect x="96" y="89.7" class="st1" width="5.6" height="5.6"/>
	<rect x="101.6" y="89.7" class="st1" width="5.6" height="5.6"/>
	<rect x="107.2" y="89.7" class="st10" width="5.6" height="5.6"/>
	<rect x="112.8" y="89.7" class="st9" width="5.6" height="5.6"/>
	<rect x="118.4" y="89.7" class="st3" width="5.6" height="5.6"/>
	<rect x="124" y="89.7" class="st1" width="5.6" height="5.6"/>
	<rect x="129.6" y="89.7" class="st1" width="5.6" height="5.6"/>
	<rect x="135.2" y="89.7" class="st3" width="5.6" height="5.6"/>
	<rect x="140.8" y="89.7" class="st4" width="5.6" height="5.6"/>
	<rect x="146.4" y="89.7" class="st0" width="5.6" height="5.6"/>
	<rect x="39.9" y="95.3" class="st0" width="5.6" height="5.6"/>
	<rect x="45.6" y="95.3" class="st2" width="5.6" height="5.6"/>
	<rect x="51.2" y="95.3" class="st3" width="5.6" height="5.6"/>
	<rect x="56.8" y="95.3" class="st1" width="5.6" height="5.6"/>
	<rect x="62.4" y="95.3" class="st1" width="5.6" height="5.6"/>
	<rect x="68" y="95.3" class="st3" width="5.6" height="5.6"/>
	<rect x="73.6" y="95.3" class="st9" width="5.6" height="5.6"/>
	<rect x="79.2" y="95.3" class="st6" width="5.6" height="5.6"/>
	<rect x="84.8" y="95.3" class="st1" width="5.6" height="5.6"/>
	<rect x="90.4" y="95.3" class="st1" width="5.6" height="5.6"/>
	<rect x="96" y="95.3" class="st1" width="5.6" height="5.6"/>
	<rect x="101.6" y="95.3" class="st1" width="5.6" height="5.6"/>
	<rect x="107.2" y="95.3" class="st10" width="5.6" height="5.6"/>
	<rect x="112.8" y="95.3" class="st9" width="5.6" height="5.6"/>
	<rect x="118.4" y="95.3" class="st1" width="5.6" height="5.6"/>
	<rect x="124" y="95.3" class="st3" width="5.6" height="5.6"/>
	<rect x="129.6" y="95.3" class="st3" width="5.6" height="5.6"/>
	<rect x="135.2" y="95.3" class="st1" width="5.6" height="5.6"/>
	<rect x="140.8" y="95.3" class="st4" width="5.6" height="5.6"/>
	<rect x="146.4" y="95.3" class="st0" width="5.6" height="5.6"/>
	<rect x="39.9" y="100.9" class="st0" width="5.6" height="5.6"/>
	<rect x="45.6" y="100.9" class="st2" width="5.6" height="5.6"/>
	<rect x="51.2" y="100.9" class="st11" width="5.6" height="5.6"/>
	<rect x="56.8" y="100.9" class="st3" width="5.6" height="5.6"/>
	<rect x="62.4" y="100.9" class="st3" width="5.6" height="5.6"/>
	<rect x="68" y="100.9" class="st1" width="5.6" height="5.6"/>
	<rect x="73.6" y="100.9" class="st9" width="5.6" height="5.6"/>
	<rect x="79.2" y="100.9" class="st6" width="5.6" height="5.6"/>
	<rect x="84.8" y="100.9" class="st1" width="5.6" height="5.6"/>
	<rect x="90.4" y="100.9" class="st1" width="5.6" height="5.6"/>
	<rect x="96" y="100.9" class="st1" width="5.6" height="5.6"/>
	<rect x="101.6" y="100.9" class="st1" width="5.6" height="5.6"/>
	<rect x="107.2" y="100.9" class="st10" width="5.6" height="5.6"/>
	<rect x="112.8" y="100.9" class="st9" width="5.6" height="5.6"/>
	<rect x="118.4" y="100.9" class="st3" width="5.6" height="5.6"/>
	<rect x="124" y="100.9" class="st1" width="5.6" height="5.6"/>
	<rect x="129.6" y="100.9" class="st1" width="5.6" height="5.6"/>
	<rect x="135.2" y="100.9" class="st3" width="5.6" height="5.6"/>
	<rect x="140.8" y="100.9" class="st4" width="5.6" height="5.6"/>
	<rect x="146.4" y="100.9" class="st0" width="5.6" height="5.6"/>
	<rect x="39.9" y="106.5" class="st0" width="5.6" height="5.6"/>
	<rect x="45.6" y="106.5" class="st2" width="5.6" height="5.6"/>
	<rect x="51.2" y="106.5" class="st3" width="5.6" height="5.6"/>
	<rect x="56.8" y="106.5" class="st1" width="5.6" height="5.6"/>
	<rect x="62.4" y="106.5" class="st1" width="5.6" height="5.6"/>
	<rect x="68" y="106.5" class="st3" width="5.6" height="5.6"/>
	<rect x="73.6" y="106.5" class="st9" width="5.6" height="5.6"/>
	<rect x="79.2" y="106.5" class="st6" width="5.6" height="5.6"/>
	<rect x="84.8" y="106.5" class="st1" width="5.6" height="5.6"/>
	<rect x="90.4" y="106.5" class="st1" width="5.6" height="5.6"/>
	<rect x="96" y="106.5" class="st1" width="5.6" height="5.6"/>
	<rect x="101.6" y="106.5" class="st1" width="5.6" height="5.6"/>
	<rect x="107.2" y="106.5" class="st10" width="5.6" height="5.6"/>
	<rect x="112.8" y="106.5" class="st9" width="5.6" height="5.6"/>
	<rect x="118.4" y="106.5" class="st1" width="5.6" height="5.6"/>
	<rect x="124" y="106.5" class="st1" width="5.6" height="5.6"/>
	<rect x="129.6" y="106.5" class="st1" width="5.6" height="5.6"/>
	<rect x="135.2" y="106.5" class="st1" width="5.6" height="5.6"/>
	<rect x="140.8" y="106.5" class="st4" width="5.6" height="5.6"/>
	<rect x="146.4" y="106.5" class="st0" width="5.6" height="5.6"/>
	<rect x="39.9" y="112.1" class="st0" width="5.6" height="5.6"/>
	<rect x="45.6" y="112.1" class="st2" width="5.6" height="5.6"/>
	<rect x="51.2" y="112.1" class="st3" width="5.6" height="5.6"/>
	<rect x="56.8" y="112.1" class="st1" width="5.6" height="5.6"/>
	<rect x="62.4" y="112.1" class="st1" width="5.6" height="5.6"/>
	<rect x="68" y="112.1" class="st3" width="5.6" height="5.6"/>
	<rect x="73.6" y="112.1" class="st9" width="5.6" height="5.6"/>
	<rect x="79.2" y="112.1" class="st6" width="5.6" height="5.6"/>
	<rect x="84.8" y="112.1" class="st1" width="5.6" height="5.6"/>
	<rect x="90.4" y="112.1" class="st1" width="5.6" height="5.6"/>
	<rect x="96" y="112.1" class="st1" width="5.6" height="5.6"/>
	<rect x="101.6" y="112.1" class="st1" width="5.6" height="5.6"/>
	<rect x="107.2" y="112.1" class="st10" width="5.6" height="5.6"/>
	<rect x="112.8" y="112.1" class="st9" width="5.6" height="5.6"/>
	<rect x="118.4" y="112.1" class="st7" width="5.6" height="5.6"/>
	<rect x="124" y="112.1" class="st7" width="5.6" height="5.6"/>
	<rect x="129.6" y="112.1" class="st7" width="5.6" height="5.6"/>
	<rect x="135.2" y="112.1" class="st7" width="5.6" height="5.6"/>
	<rect x="140.8" y="112.1" class="st4" width="5.6" height="5.6"/>
	<rect x="146.4" y="112.1" class="st0" width="5.6" height="5.6"/>
	<rect x="39.9" y="117.7" class="st0" width="5.6" height="5.6"/>
	<rect x="45.6" y="117.7" class="st2" width="5.6" height="5.6"/>
	<rect x="51.2" y="117.7" class="st11" width="5.6" height="5.6"/>
	<rect x="56.8" y="117.7" class="st3" width="5.6" height="5.6"/>
	<rect x="62.4" y="117.7" class="st3" width="5.6" height="5.6"/>
	<rect x="68" y="117.7" class="st1" width="5.6" height="5.6"/>
	<rect x="73.6" y="117.7" class="st9" width="5.6" height="5.6"/>
	<rect x="79.2" y="117.7" class="st6" width="5.6" height="5.6"/>
	<rect x="84.8" y="117.7" class="st1" width="5.6" height="5.6"/>
	<rect x="90.4" y="117.7" class="st1" width="5.6" height="5.6"/>
	<rect x="96" y="117.7" class="st1" width="5.6" height="5.6"/>
	<rect x="101.6" y="117.7" class="st1" width="5.6" height="5.6"/>
	<rect x="107.2" y="117.7" class="st10" width="5.6" height="5.6"/>
	<rect x="112.8" y="117.7" class="st9" width="5.6" height="5.6"/>
	<rect x="118.4" y="117.7" class="st7" width="5.6" height="5.6"/>
	<rect x="124" y="117.7" class="st7" width="5.6" height="5.6"/>
	<rect x="129.6" y="117.7" class="st7" width="5.6" height="5.6"/>
	<rect x="135.2" y="117.7" class="st7" width="5.6" height="5.6"/>
	<rect x="140.8" y="117.7" class="st3" width="5.6" height="5.6"/>
	<rect x="146.4" y="117.7" class="st0" width="5.6" height="5.6"/>
	<rect x="39.9" y="123.3" class="st0" width="5.6" height="5.6"/>
	<rect x="45.6" y="123.3" class="st2" width="5.6" height="5.6"/>
	<rect x="51.2" y="123.3" class="st3" width="5.6" height="5.6"/>
	<rect x="56.8" y="123.3" class="st1" width="5.6" height="5.6"/>
	<rect x="62.4" y="123.3" class="st1" width="5.6" height="5.6"/>
	<rect x="68" y="123.3" class="st3" width="5.6" height="5.6"/>
	<rect x="73.6" y="123.3" class="st9" width="5.6" height="5.6"/>
	<rect x="79.2" y="123.3" class="st6" width="5.6" height="5.6"/>
	<rect x="84.8" y="123.3" class="st1" width="5.6" height="5.6"/>
	<rect x="90.4" y="123.3" class="st1" width="5.6" height="5.6"/>
	<rect x="96" y="123.3" class="st1" width="5.6" height="5.6"/>
	<rect x="101.6" y="123.3" class="st1" width="5.6" height="5.6"/>
	<rect x="107.2" y="123.3" class="st10" width="5.6" height="5.6"/>
	<rect x="112.8" y="123.3" class="st9" width="5.6" height="5.6"/>
	<rect x="118.4" y="123.3" class="st7" width="5.6" height="5.6"/>
	<rect x="124" y="123.3" class="st7" width="5.6" height="5.6"/>
	<rect x="129.6" y="123.3" class="st7" width="5.6" height="5.6"/>
	<rect x="135.2" y="123.3" class="st7" width="5.6" height="5.6"/>
	<rect x="140.8" y="123.3" class="st4" width="5.6" height="5.6"/>
	<rect x="146.4" y="123.3" class="st0" width="5.6" height="5.6"/>
	<rect x="39.9" y="128.9" class="st0" width="5.6" height="5.6"/>
	<rect x="45.6" y="128.9" class="st2" width="5.6" height="5.6"/>
	<rect x="51.2" y="128.9" class="st11" width="5.6" height="5.6"/>
	<rect x="56.8" y="128.9" class="st1" width="5.6" height="5.6"/>
	<rect x="62.4" y="128.9" class="st1" width="5.6" height="5.6"/>
	<rect x="68" y="128.9" class="st1" width="5.6" height="5.6"/>
	<rect x="73.6" y="128.9" class="st9" width="5.6" height="5.6"/>
	<rect x="79.2" y="128.9" class="st6" width="5.6" height="5.6"/>
	<rect x="84.8" y="128.9" class="st1" width="5.6" height="5.6"/>
	<rect x="90.4" y="128.9" class="st1" width="5.6" height="5.6"/>
	<rect x="96" y="128.9" class="st1" width="5.6" height="5.6"/>
	<rect x="101.6" y="128.9" class="st1" width="5.6" height="5.6"/>
	<rect x="107.2" y="128.9" class="st10" width="5.6" height="5.6"/>
	<rect x="112.8" y="128.9" class="st9" width="5.6" height="5.6"/>
	<rect x="118.4" y="128.9" class="st1" width="5.6" height="5.6"/>
	<rect x="124" y="128.9" class="st1" width="5.6" height="5.6"/>
	<rect x="129.6" y="128.9" class="st1" width="5.6" height="5.6"/>
	<rect x="135.2" y="128.9" class="st11" width="5.6" height="5.6"/>
	<rect x="140.8" y="128.9" class="st4" width="5.6" height="5.6"/>
	<rect x="146.4" y="128.9" class="st0" width="5.6" height="5.6"/>
	<rect x="39.9" y="134.5" class="st0" width="5.6" height="5.6"/>
	<rect x="45.6" y="134.5" class="st2" width="5.6" height="5.6"/>
	<rect x="51.2" y="134.5" class="st6" width="5.6" height="5.6"/>
	<rect x="56.8" y="134.5" class="st7" width="5.6" height="5.6"/>
	<rect x="62.4" y="134.5" class="st7" width="5.6" height="5.6"/>
	<rect x="68" y="134.5" class="st7" width="5.6" height="5.6"/>
	<rect x="73.6" y="134.5" class="st7" width="5.6" height="5.6"/>
	<rect x="79.2" y="134.5" class="st9" width="5.6" height="5.6"/>
	<rect x="84.8" y="134.5" class="st6" width="5.6" height="5.6"/>
	<rect x="90.4" y="134.5" class="st6" width="5.6" height="5.6"/>
	<rect x="96" y="134.5" class="st10" width="5.6" height="5.6"/>
	<rect x="101.6" y="134.5" class="st10" width="5.6" height="5.6"/>
	<rect x="107.2" y="134.5" class="st9" width="5.6" height="5.6"/>
	<rect x="112.8" y="134.5" class="st1" width="5.6" height="5.6"/>
	<rect x="118.4" y="134.5" class="st3" width="5.6" height="5.6"/>
	<rect x="124" y="134.5" class="st1" width="5.6" height="5.6"/>
	<rect x="129.6" y="134.5" class="st1" width="5.6" height="5.6"/>
	<rect x="135.2" y="134.5" class="st3" width="5.6" height="5.6"/>
	<rect x="140.8" y="134.5" class="st4" width="5.6" height="5.6"/>
	<rect x="146.4" y="134.5" class="st0" width="5.6" height="5.6"/>
	<rect x="39.9" y="140.1" class="st0" width="5.6" height="5.6"/>
	<rect x="45.6" y="140.1" class="st2" width="5.6" height="5.6"/>
	<rect x="51.2" y="140.1" class="st6" width="5.6" height="5.6"/>
	<rect x="56.8" y="140.1" class="st7" width="5.6" height="5.6"/>
	<rect x="62.4" y="140.1" class="st7" width="5.6" height="5.6"/>
	<rect x="68" y="140.1" class="st7" width="5.6" height="5.6"/>
	<rect x="73.6" y="140.1" class="st7" width="5.6" height="5.6"/>
	<rect x="79.2" y="140.1" class="st7" width="5.6" height="5.6"/>
	<rect x="84.8" y="140.1" class="st9" width="5.6" height="5.6"/>
	<rect x="90.4" y="140.1" class="st9" width="5.6" height="5.6"/>
	<rect x="96" y="140.1" class="st9" width="5.6" height="5.6"/>
	<rect x="101.6" y="140.1" class="st9" width="5.6" height="5.6"/>
	<rect x="107.2" y="140.1" class="st1" width="5.6" height="5.6"/>
	<rect x="112.8" y="140.1" class="st3" width="5.6" height="5.6"/>
	<rect x="118.4" y="140.1" class="st1" width="5.6" height="5.6"/>
	<rect x="124" y="140.1" class="st3" width="5.6" height="5.6"/>
	<rect x="129.6" y="140.1" class="st3" width="5.6" height="5.6"/>
	<rect x="135.2" y="140.1" class="st11" width="5.6" height="5.6"/>
	<rect x="140.8" y="140.1" class="st4" width="5.6" height="5.6"/>
	<rect x="146.4" y="140.1" class="st0" width="5.6" height="5.6"/>
	<rect x="39.9" y="145.7" class="st0" width="5.6" height="5.6"/>
	<rect x="45.6" y="145.7" class="st2" width="5.6" height="5.6"/>
	<rect x="51.2" y="145.7" class="st6" width="5.6" height="5.6"/>
	<rect x="56.8" y="145.7" class="st7" width="5.6" height="5.6"/>
	<rect x="62.4" y="145.7" class="st7" width="5.6" height="5.6"/>
	<rect x="68" y="145.7" class="st7" width="5.6" height="5.6"/>
	<rect x="73.6" y="145.7" class="st7" width="5.6" height="5.6"/>
	<rect x="79.2" y="145.7" class="st7" width="5.6" height="5.6"/>
	<rect x="84.8" y="145.7" class="st7" width="5.6" height="5.6"/>
	<rect x="90.4" y="145.7" class="st7" width="5.6" height="5.6"/>
	<rect x="96" y="145.7" class="st7" width="5.6" height="5.6"/>
	<rect x="101.6" y="145.7" class="st7" width="5.6" height="5.6"/>
	<rect x="107.2" y="145.7" class="st1" width="5.6" height="5.6"/>
	<rect x="112.8" y="145.7" class="st1" width="5.6" height="5.6"/>
	<rect x="118.4" y="145.7" class="st3" width="5.6" height="5.6"/>
	<rect x="124" y="145.7" class="st1" width="5.6" height="5.6"/>
	<rect x="129.6" y="145.7" class="st1" width="5.6" height="5.6"/>
	<rect x="135.2" y="145.7" class="st3" width="5.6" height="5.6"/>
	<rect x="140.8" y="145.7" class="st4" width="5.6" height="5.6"/>
	<rect x="146.4" y="145.7" class="st0" width="5.6" height="5.6"/>
	<rect x="39.9" y="151.3" class="st0" width="5.6" height="5.6"/>
	<rect x="45.6" y="151.3" class="st2" width="5.6" height="5.6"/>
	<rect x="51.2" y="151.3" class="st6" width="5.6" height="5.6"/>
	<rect x="56.8" y="151.3" class="st6" width="5.6" height="5.6"/>
	<rect x="62.4" y="151.3" class="st7" width="5.6" height="5.6"/>
	<rect x="68" y="151.3" class="st7" width="5.6" height="5.6"/>
	<rect x="73.6" y="151.3" class="st7" width="5.6" height="5.6"/>
	<rect x="79.2" y="151.3" class="st7" width="5.6" height="5.6"/>
	<rect x="84.8" y="151.3" class="st7" width="5.6" height="5.6"/>
	<rect x="90.4" y="151.3" class="st7" width="5.6" height="5.6"/>
	<rect x="96" y="151.3" class="st7" width="5.6" height="5.6"/>
	<rect x="101.6" y="151.3" class="st7" width="5.6" height="5.6"/>
	<rect x="107.2" y="151.3" class="st1" width="5.6" height="5.6"/>
	<rect x="112.8" y="151.3" class="st1" width="5.6" height="5.6"/>
	<rect x="118.4" y="151.3" class="st3" width="5.6" height="5.6"/>
	<rect x="124" y="151.3" class="st1" width="5.6" height="5.6"/>
	<rect x="129.6" y="151.3" class="st11" width="5.6" height="5.6"/>
	<rect x="135.2" y="151.3" class="st3" width="5.6" height="5.6"/>
	<rect x="140.8" y="151.3" class="st3" width="5.6" height="5.6"/>
	<rect x="146.4" y="151.3" class="st0" width="5.6" height="5.6"/>
	<rect x="45.6" y="156.9" class="st0" width="5.6" height="5.6"/>
	<rect x="51.2" y="156.9" class="st2" width="5.6" height="5.6"/>
	<rect x="56.8" y="156.9" class="st6" width="5.6" height="5.6"/>
	<rect x="62.4" y="156.9" class="st6" width="5.6" height="5.6"/>
	<rect x="68" y="156.9" class="st6" width="5.6" height="5.6"/>
	<rect x="73.6" y="156.9" class="st6" width="5.6" height="5.6"/>
	<rect x="79.2" y="156.9" class="st8" width="5.6" height="5.6"/>
	<rect x="84.8" y="156.9" class="st8" width="5.6" height="5.6"/>
	<rect x="90.4" y="156.9" class="st8" width="5.6" height="5.6"/>
	<rect x="96" y="156.9" class="st8" width="5.6" height="5.6"/>
	<rect x="101.6" y="156.9" class="st8" width="5.6" height="5.6"/>
	<rect x="107.2" y="156.9" class="st11" width="5.6" height="5.6"/>
	<rect x="112.8" y="156.9" class="st3" width="5.6" height="5.6"/>
	<rect x="118.4" y="156.9" class="st11" width="5.6" height="5.6"/>
	<rect x="124" y="156.9" class="st3" width="5.6" height="5.6"/>
	<rect x="129.6" y="156.9" class="st3" width="5.6" height="5.6"/>
	<rect x="135.2" y="156.9" class="st4" width="5.6" height="5.6"/>
	<rect x="140.8" y="156.9" class="st0" width="5.6" height="5.6"/>
	<rect x="51.2" y="162.6" class="st0" width="5.6" height="5.6"/>
	<rect x="56.8" y="162.6" class="st2" width="5.6" height="5.6"/>
	<rect x="62.4" y="162.6" class="st2" width="5.6" height="5.6"/>
	<rect x="68" y="162.6" class="st2" width="5.6" height="5.6"/>
	<rect x="73.6" y="162.6" class="st2" width="5.6" height="5.6"/>
	<rect x="79.2" y="162.6" class="st3" width="5.6" height="5.6"/>
	<rect x="84.8" y="162.6" class="st3" width="5.6" height="5.6"/>
	<rect x="90.4" y="162.6" class="st3" width="5.6" height="5.6"/>
	<rect x="96" y="162.6" class="st2" width="5.6" height="5.6"/>
	<rect x="101.6" y="162.6" class="st3" width="5.6" height="5.6"/>
	<rect x="107.2" y="162.6" class="st3" width="5.6" height="5.6"/>
	<rect x="112.8" y="162.6" class="st4" width="5.6" height="5.6"/>
	<rect x="118.4" y="162.6" class="st4" width="5.6" height="5.6"/>
	<rect x="124" y="162.6" class="st4" width="5.6" height="5.6"/>
	<rect x="129.6" y="162.6" class="st4" width="5.6" height="5.6"/>
	<rect x="135.2" y="162.6" class="st0" width="5.6" height="5.6"/>
	<rect x="56.8" y="168.2" class="st0" width="5.6" height="5.6"/>
	<rect x="62.4" y="168.2" class="st0" width="5.6" height="5.6"/>
	<rect x="68" y="168.2" class="st0" width="5.6" height="5.6"/>
	<rect x="73.6" y="168.2" class="st0" width="5.6" height="5.6"/>
	<rect x="79.2" y="168.2" class="st0" width="5.6" height="5.6"/>
	<rect x="84.8" y="168.2" class="st0" width="5.6" height="5.6"/>
	<rect x="90.4" y="168.2" class="st0" width="5.6" height="5.6"/>
	<rect x="96" y="168.2" class="st0" width="5.6" height="5.6"/>
	<rect x="101.6" y="168.2" class="st0" width="5.6" height="5.6"/>
	<rect x="107.2" y="168.2" class="st0" width="5.6" height="5.6"/>
	<rect x="112.8" y="168.2" class="st0" width="5.6" height="5.6"/>
	<rect x="118.4" y="168.2" class="st0" width="5.6" height="5.6"/>
	<rect x="124" y="168.2" class="st0" width="5.6" height="5.6"/>
	<rect x="129.6" y="168.2" class="st0" width="5.6" height="5.6"/>
</g>
</svg>
