<?xml version="1.0" encoding="UTF-8"?><svg id="Layer_1" xmlns="http://www.w3.org/2000/svg" viewBox="0 0 500 430"><defs><style>.cls-1,.cls-2{stroke:#914938;stroke-miterlimit:10;stroke-width:2px;}.cls-1,.cls-3{fill:#914938;}.cls-4{fill:#f4ebd4;font-family:Roboto-Bold, Roboto;font-size:20.36px;font-weight:700;}.cls-2{fill:none;}.cls-3{stroke-width:0px;}</style></defs><path class="cls-3" d="m112.48,114.24c22.32,1.44,52.2,1.44,76.68,1.44,16.2,0,34.56-.36,49.68-.72-.36-17.28-.72-37.44-.72-50.04l36.36,1.8c-.36,4.32-3.6,6.48-9.72,7.56-.36,5.76,0,33.48,0,39.6,42.12-2.16,83.88-5.76,119.52-14.04l3.24,23.76c-35.28,7.92-77.04,11.52-122.76,13.68.36,21.6.72,43.92,1.44,66.24,34.92-2.16,72.36-6.84,101.52-14.04l2.88,23.4c-30.24,6.48-68.04,10.8-104.04,12.6l2.88,60.12c33.12,10.8,68.4,29.52,105.84,56.16l-15.84,21.96c-32.4-25.56-63-42.84-89.28-52.92,0,5.76.36,12.24.36,16.92-.36,34.2-20.88,54-64.44,54-45.72,0-79.2-18.72-79.2-52.56s39.24-53.64,79.56-53.64c11.88,0,24.48,1.08,37.8,4.32-.36-15.48-1.08-34.2-1.44-53.64-11.52.36-24.48.72-34.92.72-61.56,0-78.84-9.72-78.84-30.6,0-13.68,10.44-24.84,33.48-39.6l17.28,11.16c-16.2,9-24.84,16.92-24.84,24.12,0,10.8,16.92,12.96,62.64,12.96,7.92,0,16.2,0,24.12-.36l-2.16-66.6c-15.48.72-33.48.72-49.68.72-23.04,0-55.8,0-77.4-.72v-23.76Zm133.2,187.56c-14.4-3.96-27.72-5.76-40.32-5.76-27.36,0-55.08,11.16-55.08,32.76s25.2,31.68,56.52,31.68c28.44,0,39.24-12.6,39.24-37.8l-.36-20.88Z"/><path class="cls-2" d="m182.48,100.68s114.1,3.35,148.22-6.95"/><path class="cls-2" d="m182.48,190.63s114.1,3.35,148.22-6.95"/><line class="cls-2" x1="278.6" y1="87.26" x2="278.6" y2="165.4"/><path class="cls-2" d="m115.86,336.12s-13.93-45.03,36.72-62.14"/><path class="cls-2" d="m296.64,280.04s43.67,18.86,53.7,28.94"/><polygon class="cls-1" points="324.33 95.14 323.71 90.43 329.83 92.02 335.95 93.62 330.45 96.73 324.95 99.85 324.33 95.14"/><polygon class="cls-1" points="326.84 184.47 325.92 179.81 332.13 181.01 338.34 182.21 333.04 185.67 327.75 189.13 326.84 184.47"/><polygon class="cls-1" points="278.64 158.91 283.39 158.9 281.03 164.76 278.66 170.63 276.28 164.77 273.89 158.92 278.64 158.91"/><polygon class="cls-1" points="148.48 275.51 147.39 270.88 153.64 271.85 159.89 272.82 154.73 276.48 149.57 280.13 148.48 275.51"/><polygon class="cls-1" points="344.48 304.75 347.08 300.78 350.68 305.98 354.27 311.18 348.07 309.95 341.87 308.72 344.48 304.75"/><circle class="cls-1" cx="158.31" cy="81.12" r="16.1"/><text class="cls-4" transform="translate(152.47 88.42)"><tspan x="0" y="0">1</tspan></text><circle class="cls-1" cx="202.96" cy="163.72" r="16.1"/><text class="cls-4" transform="translate(197.12 171.03)"><tspan x="0" y="0">2</tspan></text><circle class="cls-1" cx="301.19" cy="64.37" r="16.1"/><text class="cls-4" transform="translate(295.35 71.68)"><tspan x="0" y="0">3</tspan></text></svg>