<?xml version="1.0" encoding="utf-8"?>
<!-- Generator: Adobe Illustrator 27.9.0, SVG Export Plug-In . SVG Version: 6.00 Build 0)  -->
<svg version="1.1" id="Layer_1" shape-rendering="crispEdges"
	 xmlns="http://www.w3.org/2000/svg" xmlns:xlink="http://www.w3.org/1999/xlink" x="0px" y="0px" viewBox="0 0 192 192"
	 style="enable-background:new 0 0 192 192;" xml:space="preserve">
<style type="text/css">
	.st0{fill:#50B06E;}
	.st1{fill:#EFDCE5;}
	.st2{fill:#ECE7E8;}
	.st3{fill:#B9E7CA;}
	.st4{fill:#E6C874;}
	.st5{fill:#E0B745;}
	.st6{fill:#C7E391;}
	.st7{fill:#E3BF58;}
	.st8{fill:#D26A71;}
	.st9{fill:#AE5269;}
	.st10{fill:#435BA3;}
	.st11{fill:#283C82;}
	.st12{fill:#AE865B;}
	.st13{fill:#6C7AA7;}
	.st14{fill:#43589F;}
	.st15{fill:#185589;}
	.st16{fill:#733C81;}
	.st17{fill:#126E5E;}
	.st18{fill:#1D8566;}
	.st19{fill:#4973A9;}
	.st20{fill:#1F649B;}
	.st21{fill:#76A5B9;}
	.st22{fill:#58B0B3;}
</style>
<g>
	<rect x="30" class="st0" width="6" height="6"/>
	<rect x="66" class="st0" width="6" height="6"/>
	<rect x="72" class="st1" width="6" height="6"/>
	<rect x="78" class="st2" width="6" height="6"/>
	<rect x="84" class="st2" width="6" height="6"/>
	<rect x="90" class="st3" width="6" height="6"/>
	<rect x="96" class="st4" width="6" height="6"/>
	<rect x="102" class="st4" width="6" height="6"/>
	<rect x="108" class="st4" width="6" height="6"/>
	<rect x="114" class="st2" width="6" height="6"/>
	<rect x="120" class="st2" width="6" height="6"/>
	<rect x="126" class="st1" width="6" height="6"/>
	<rect x="132" class="st1" width="6" height="6"/>
	<rect x="138" class="st4" width="6" height="6"/>
	<rect x="144" class="st0" width="6" height="6"/>
	<rect x="24" y="6" class="st0" width="6" height="6"/>
	<rect x="30" y="6" class="st1" width="6" height="6"/>
	<rect x="36" y="6" class="st0" width="6" height="6"/>
	<rect x="48" y="6" class="st0" width="6" height="6"/>
	<rect x="60" y="6" class="st0" width="6" height="6"/>
	<rect x="72" y="6" class="st0" width="6" height="6"/>
	<rect x="78" y="6" class="st1" width="6" height="6"/>
	<rect x="84" y="6" class="st2" width="6" height="6"/>
	<rect x="90" y="6" class="st2" width="6" height="6"/>
	<rect x="96" y="6" class="st3" width="6" height="6"/>
	<rect x="102" y="6" class="st4" width="6" height="6"/>
	<rect x="108" y="6" class="st4" width="6" height="6"/>
	<rect x="114" y="6" class="st5" width="6" height="6"/>
	<rect x="120" y="6" class="st2" width="6" height="6"/>
	<rect x="126" y="6" class="st2" width="6" height="6"/>
	<rect x="132" y="6" class="st1" width="6" height="6"/>
	<rect x="138" y="6" class="st4" width="6" height="6"/>
	<rect x="144" y="6" class="st0" width="6" height="6"/>
	<rect x="150" y="6" class="st0" width="6" height="6"/>
	<rect x="168" y="6" class="st0" width="6" height="6"/>
	<rect x="180" y="6" class="st0" width="6" height="6"/>
	<rect x="30" y="12" class="st0" width="6" height="6"/>
	<rect x="42" y="12" class="st0" width="6" height="6"/>
	<rect x="48" y="12" class="st2" width="6" height="6"/>
	<rect x="54" y="12" class="st0" width="6" height="6"/>
	<rect x="60" y="12" class="st2" width="6" height="6"/>
	<rect x="66" y="12" class="st0" width="6" height="6"/>
	<rect x="78" y="12" class="st0" width="6" height="6"/>
	<rect x="84" y="12" class="st3" width="6" height="6"/>
	<rect x="90" y="12" class="st2" width="6" height="6"/>
	<rect x="96" y="12" class="st2" width="6" height="6"/>
	<rect x="102" y="12" class="st2" width="6" height="6"/>
	<rect x="108" y="12" class="st4" width="6" height="6"/>
	<rect x="114" y="12" class="st4" width="6" height="6"/>
	<rect x="120" y="12" class="st5" width="6" height="6"/>
	<rect x="126" y="12" class="st2" width="6" height="6"/>
	<rect x="132" y="12" class="st3" width="6" height="6"/>
	<rect x="138" y="12" class="st4" width="6" height="6"/>
	<rect x="144" y="12" class="st0" width="6" height="6"/>
	<rect x="150" y="12" class="st2" width="6" height="6"/>
	<rect x="156" y="12" class="st0" width="6" height="6"/>
	<rect x="162" y="12" class="st0" width="6" height="6"/>
	<rect x="168" y="12" class="st2" width="6" height="6"/>
	<rect x="174" y="12" class="st0" width="6" height="6"/>
	<rect x="180" y="12" class="st2" width="6" height="6"/>
	<rect x="186" y="12" class="st0" width="6" height="6"/>
	<rect x="48" y="18" class="st0" width="6" height="6"/>
	<rect x="54" y="18" class="st6" width="6" height="6"/>
	<rect x="60" y="18" class="st0" width="6" height="6"/>
	<rect x="84" y="18" class="st0" width="6" height="6"/>
	<rect x="90" y="18" class="st3" width="6" height="6"/>
	<rect x="96" y="18" class="st2" width="6" height="6"/>
	<rect x="102" y="18" class="st2" width="6" height="6"/>
	<rect x="108" y="18" class="st2" width="6" height="6"/>
	<rect x="114" y="18" class="st4" width="6" height="6"/>
	<rect x="120" y="18" class="st5" width="6" height="6"/>
	<rect x="126" y="18" class="st2" width="6" height="6"/>
	<rect x="132" y="18" class="st2" width="6" height="6"/>
	<rect x="138" y="18" class="st1" width="6" height="6"/>
	<rect x="144" y="18" class="st4" width="6" height="6"/>
	<rect x="150" y="18" class="st0" width="6" height="6"/>
	<rect x="168" y="18" class="st0" width="6" height="6"/>
	<rect x="174" y="18" class="st1" width="6" height="6"/>
	<rect x="180" y="18" class="st0" width="6" height="6"/>
	<rect x="42" y="24" class="st0" width="6" height="6"/>
	<rect x="48" y="24" class="st2" width="6" height="6"/>
	<rect x="54" y="24" class="st0" width="6" height="6"/>
	<rect x="60" y="24" class="st2" width="6" height="6"/>
	<rect x="66" y="24" class="st0" width="6" height="6"/>
	<rect x="84" y="24" class="st0" width="6" height="6"/>
	<rect x="90" y="24" class="st0" width="6" height="6"/>
	<rect x="96" y="24" class="st1" width="6" height="6"/>
	<rect x="102" y="24" class="st1" width="6" height="6"/>
	<rect x="108" y="24" class="st2" width="6" height="6"/>
	<rect x="114" y="24" class="st4" width="6" height="6"/>
	<rect x="120" y="24" class="st4" width="6" height="6"/>
	<rect x="126" y="24" class="st7" width="6" height="6"/>
	<rect x="132" y="24" class="st2" width="6" height="6"/>
	<rect x="138" y="24" class="st1" width="6" height="6"/>
	<rect x="144" y="24" class="st4" width="6" height="6"/>
	<rect x="150" y="24" class="st0" width="6" height="6"/>
	<rect x="162" y="24" class="st0" width="6" height="6"/>
	<rect x="168" y="24" class="st2" width="6" height="6"/>
	<rect x="174" y="24" class="st0" width="6" height="6"/>
	<rect x="180" y="24" class="st2" width="6" height="6"/>
	<rect x="186" y="24" class="st0" width="6" height="6"/>
	<rect x="48" y="30" class="st0" width="6" height="6"/>
	<rect x="60" y="30" class="st0" width="6" height="6"/>
	<rect x="78" y="30" class="st0" width="6" height="6"/>
	<rect x="84" y="30" class="st6" width="6" height="6"/>
	<rect x="90" y="30" class="st0" width="6" height="6"/>
	<rect x="96" y="30" class="st0" width="6" height="6"/>
	<rect x="102" y="30" class="st0" width="6" height="6"/>
	<rect x="108" y="30" class="st1" width="6" height="6"/>
	<rect x="114" y="30" class="st2" width="6" height="6"/>
	<rect x="120" y="30" class="st3" width="6" height="6"/>
	<rect x="126" y="30" class="st5" width="6" height="6"/>
	<rect x="132" y="30" class="st2" width="6" height="6"/>
	<rect x="138" y="30" class="st1" width="6" height="6"/>
	<rect x="144" y="30" class="st4" width="6" height="6"/>
	<rect x="150" y="30" class="st0" width="6" height="6"/>
	<rect x="168" y="30" class="st0" width="6" height="6"/>
	<rect x="180" y="30" class="st0" width="6" height="6"/>
	<rect x="66" y="36" class="st0" width="6" height="6"/>
	<rect x="78" y="36" class="st0" width="6" height="6"/>
	<rect x="84" y="36" class="st0" width="6" height="6"/>
	<rect x="90" y="36" class="st0" width="6" height="6"/>
	<rect x="96" y="36" class="st2" width="6" height="6"/>
	<rect x="102" y="36" class="st0" width="6" height="6"/>
	<rect x="108" y="36" class="st0" width="6" height="6"/>
	<rect x="114" y="36" class="st1" width="6" height="6"/>
	<rect x="120" y="36" class="st3" width="6" height="6"/>
	<rect x="126" y="36" class="st5" width="6" height="6"/>
	<rect x="132" y="36" class="st2" width="6" height="6"/>
	<rect x="138" y="36" class="st2" width="6" height="6"/>
	<rect x="144" y="36" class="st1" width="6" height="6"/>
	<rect x="150" y="36" class="st4" width="6" height="6"/>
	<rect x="156" y="36" class="st0" width="6" height="6"/>
	<rect x="60" y="42" class="st0" width="6" height="6"/>
	<rect x="66" y="42" class="st2" width="6" height="6"/>
	<rect x="72" y="42" class="st0" width="6" height="6"/>
	<rect x="78" y="42" class="st2" width="6" height="6"/>
	<rect x="84" y="42" class="st0" width="6" height="6"/>
	<rect x="96" y="42" class="st0" width="6" height="6"/>
	<rect x="102" y="42" class="st2" width="6" height="6"/>
	<rect x="108" y="42" class="st0" width="6" height="6"/>
	<rect x="114" y="42" class="st4" width="6" height="6"/>
	<rect x="120" y="42" class="st5" width="6" height="6"/>
	<rect x="126" y="42" class="st2" width="6" height="6"/>
	<rect x="132" y="42" class="st2" width="6" height="6"/>
	<rect x="138" y="42" class="st4" width="6" height="6"/>
	<rect x="144" y="42" class="st1" width="6" height="6"/>
	<rect x="150" y="42" class="st4" width="6" height="6"/>
	<rect x="156" y="42" class="st0" width="6" height="6"/>
	<rect x="168" y="42" class="st0" width="6" height="6"/>
	<rect x="66" y="48" class="st0" width="6" height="6"/>
	<rect x="72" y="48" class="st2" width="6" height="6"/>
	<rect x="78" y="48" class="st0" width="6" height="6"/>
	<rect x="96" y="48" class="st0" width="6" height="6"/>
	<rect x="102" y="48" class="st2" width="6" height="6"/>
	<rect x="108" y="48" class="st0" width="6" height="6"/>
	<rect x="114" y="48" class="st3" width="6" height="6"/>
	<rect x="120" y="48" class="st5" width="6" height="6"/>
	<rect x="126" y="48" class="st2" width="6" height="6"/>
	<rect x="132" y="48" class="st2" width="6" height="6"/>
	<rect x="138" y="48" class="st2" width="6" height="6"/>
	<rect x="144" y="48" class="st1" width="6" height="6"/>
	<rect x="150" y="48" class="st4" width="6" height="6"/>
	<rect x="156" y="48" class="st0" width="6" height="6"/>
	<rect x="162" y="48" class="st0" width="6" height="6"/>
	<rect x="168" y="48" class="st1" width="6" height="6"/>
	<rect x="174" y="48" class="st0" width="6" height="6"/>
	<rect x="60" y="54" class="st0" width="6" height="6"/>
	<rect x="66" y="54" class="st2" width="6" height="6"/>
	<rect x="72" y="54" class="st0" width="6" height="6"/>
	<rect x="78" y="54" class="st2" width="6" height="6"/>
	<rect x="84" y="54" class="st0" width="6" height="6"/>
	<rect x="90" y="54" class="st0" width="6" height="6"/>
	<rect x="96" y="54" class="st0" width="6" height="6"/>
	<rect x="102" y="54" class="st2" width="6" height="6"/>
	<rect x="108" y="54" class="st0" width="6" height="6"/>
	<rect x="114" y="54" class="st5" width="6" height="6"/>
	<rect x="120" y="54" class="st2" width="6" height="6"/>
	<rect x="126" y="54" class="st2" width="6" height="6"/>
	<rect x="132" y="54" class="st4" width="6" height="6"/>
	<rect x="138" y="54" class="st1" width="6" height="6"/>
	<rect x="144" y="54" class="st4" width="6" height="6"/>
	<rect x="150" y="54" class="st0" width="6" height="6"/>
	<rect x="156" y="54" class="st0" width="6" height="6"/>
	<rect x="162" y="54" class="st6" width="6" height="6"/>
	<rect x="168" y="54" class="st0" width="6" height="6"/>
	<rect x="66" y="60" class="st0" width="6" height="6"/>
	<rect x="72" y="60" class="st0" width="6" height="6"/>
	<rect x="78" y="60" class="st0" width="6" height="6"/>
	<rect x="84" y="60" class="st0" width="6" height="6"/>
	<rect x="90" y="60" class="st5" width="6" height="6"/>
	<rect x="96" y="60" class="st2" width="6" height="6"/>
	<rect x="102" y="60" class="st0" width="6" height="6"/>
	<rect x="108" y="60" class="st5" width="6" height="6"/>
	<rect x="114" y="60" class="st2" width="6" height="6"/>
	<rect x="120" y="60" class="st2" width="6" height="6"/>
	<rect x="126" y="60" class="st2" width="6" height="6"/>
	<rect x="132" y="60" class="st4" width="6" height="6"/>
	<rect x="138" y="60" class="st1" width="6" height="6"/>
	<rect x="144" y="60" class="st5" width="6" height="6"/>
	<rect x="150" y="60" class="st0" width="6" height="6"/>
	<rect x="162" y="60" class="st0" width="6" height="6"/>
	<rect x="48" y="66" class="st0" width="6" height="6"/>
	<rect x="60" y="66" class="st0" width="6" height="6"/>
	<rect x="66" y="66" class="st1" width="6" height="6"/>
	<rect x="72" y="66" class="st5" width="6" height="6"/>
	<rect x="78" y="66" class="st3" width="6" height="6"/>
	<rect x="84" y="66" class="st4" width="6" height="6"/>
	<rect x="90" y="66" class="st0" width="6" height="6"/>
	<rect x="96" y="66" class="st0" width="6" height="6"/>
	<rect x="102" y="66" class="st1" width="6" height="6"/>
	<rect x="108" y="66" class="st2" width="6" height="6"/>
	<rect x="114" y="66" class="st2" width="6" height="6"/>
	<rect x="120" y="66" class="st2" width="6" height="6"/>
	<rect x="126" y="66" class="st4" width="6" height="6"/>
	<rect x="132" y="66" class="st1" width="6" height="6"/>
	<rect x="138" y="66" class="st5" width="6" height="6"/>
	<rect x="144" y="66" class="st0" width="6" height="6"/>
	<rect x="156" y="66" class="st0" width="6" height="6"/>
	<rect x="42" y="72" class="st0" width="6" height="6"/>
	<rect x="48" y="72" class="st4" width="6" height="6"/>
	<rect x="54" y="72" class="st0" width="6" height="6"/>
	<rect x="60" y="72" class="st1" width="6" height="6"/>
	<rect x="66" y="72" class="st2" width="6" height="6"/>
	<rect x="72" y="72" class="st2" width="6" height="6"/>
	<rect x="78" y="72" class="st2" width="6" height="6"/>
	<rect x="84" y="72" class="st5" width="6" height="6"/>
	<rect x="90" y="72" class="st5" width="6" height="6"/>
	<rect x="96" y="72" class="st1" width="6" height="6"/>
	<rect x="102" y="72" class="st2" width="6" height="6"/>
	<rect x="108" y="72" class="st2" width="6" height="6"/>
	<rect x="114" y="72" class="st4" width="6" height="6"/>
	<rect x="120" y="72" class="st1" width="6" height="6"/>
	<rect x="126" y="72" class="st1" width="6" height="6"/>
	<rect x="132" y="72" class="st1" width="6" height="6"/>
	<rect x="138" y="72" class="st5" width="6" height="6"/>
	<rect x="144" y="72" class="st0" width="6" height="6"/>
	<rect x="150" y="72" class="st0" width="6" height="6"/>
	<rect x="156" y="72" class="st2" width="6" height="6"/>
	<rect x="162" y="72" class="st0" width="6" height="6"/>
	<rect x="42" y="78" class="st0" width="6" height="6"/>
	<rect x="48" y="78" class="st0" width="6" height="6"/>
	<rect x="54" y="78" class="st4" width="6" height="6"/>
	<rect x="60" y="78" class="st2" width="6" height="6"/>
	<rect x="66" y="78" class="st2" width="6" height="6"/>
	<rect x="72" y="78" class="st3" width="6" height="6"/>
	<rect x="78" y="78" class="st2" width="6" height="6"/>
	<rect x="84" y="78" class="st2" width="6" height="6"/>
	<rect x="90" y="78" class="st2" width="6" height="6"/>
	<rect x="96" y="78" class="st2" width="6" height="6"/>
	<rect x="102" y="78" class="st1" width="6" height="6"/>
	<rect x="108" y="78" class="st1" width="6" height="6"/>
	<rect x="114" y="78" class="st1" width="6" height="6"/>
	<rect x="120" y="78" class="st5" width="6" height="6"/>
	<rect x="126" y="78" class="st5" width="6" height="6"/>
	<rect x="132" y="78" class="st5" width="6" height="6"/>
	<rect x="138" y="78" class="st0" width="6" height="6"/>
	<rect x="144" y="78" class="st4" width="6" height="6"/>
	<rect x="150" y="78" class="st0" width="6" height="6"/>
	<rect x="156" y="78" class="st0" width="6" height="6"/>
	<rect x="36" y="84" class="st0" width="6" height="6"/>
	<rect x="42" y="84" class="st1" width="6" height="6"/>
	<rect x="48" y="84" class="st0" width="6" height="6"/>
	<rect x="54" y="84" class="st5" width="6" height="6"/>
	<rect x="60" y="84" class="st2" width="6" height="6"/>
	<rect x="66" y="84" class="st2" width="6" height="6"/>
	<rect x="72" y="84" class="st2" width="6" height="6"/>
	<rect x="78" y="84" class="st5" width="6" height="6"/>
	<rect x="84" y="84" class="st1" width="6" height="6"/>
	<rect x="90" y="84" class="st1" width="6" height="6"/>
	<rect x="96" y="84" class="st1" width="6" height="6"/>
	<rect x="102" y="84" class="st5" width="6" height="6"/>
	<rect x="108" y="84" class="st5" width="6" height="6"/>
	<rect x="114" y="84" class="st5" width="6" height="6"/>
	<rect x="120" y="84" class="st0" width="6" height="6"/>
	<rect x="126" y="84" class="st4" width="6" height="6"/>
	<rect x="132" y="84" class="st0" width="6" height="6"/>
	<rect x="138" y="84" class="st4" width="6" height="6"/>
	<rect x="144" y="84" class="st0" width="6" height="6"/>
	<rect x="24" y="90" class="st0" width="6" height="6"/>
	<rect x="30" y="90" class="st0" width="6" height="6"/>
	<rect x="36" y="90" class="st1" width="6" height="6"/>
	<rect x="42" y="90" class="st0" width="6" height="6"/>
	<rect x="48" y="90" class="st5" width="6" height="6"/>
	<rect x="54" y="90" class="st3" width="6" height="6"/>
	<rect x="60" y="90" class="st2" width="6" height="6"/>
	<rect x="66" y="90" class="st2" width="6" height="6"/>
	<rect x="72" y="90" class="st2" width="6" height="6"/>
	<rect x="78" y="90" class="st1" width="6" height="6"/>
	<rect x="84" y="90" class="st5" width="6" height="6"/>
	<rect x="90" y="90" class="st5" width="6" height="6"/>
	<rect x="96" y="90" class="st5" width="6" height="6"/>
	<rect x="102" y="90" class="st0" width="6" height="6"/>
	<rect x="108" y="90" class="st0" width="6" height="6"/>
	<rect x="114" y="90" class="st4" width="6" height="6"/>
	<rect x="120" y="90" class="st4" width="6" height="6"/>
	<rect x="126" y="90" class="st0" width="6" height="6"/>
	<rect x="138" y="90" class="st0" width="6" height="6"/>
	<rect x="18" y="96" class="st0" width="6" height="6"/>
	<rect x="24" y="96" class="st3" width="6" height="6"/>
	<rect x="30" y="96" class="st0" width="6" height="6"/>
	<rect x="36" y="96" class="st2" width="6" height="6"/>
	<rect x="42" y="96" class="st0" width="6" height="6"/>
	<rect x="48" y="96" class="st5" width="6" height="6"/>
	<rect x="54" y="96" class="st1" width="6" height="6"/>
	<rect x="60" y="96" class="st2" width="6" height="6"/>
	<rect x="66" y="96" class="st2" width="6" height="6"/>
	<rect x="72" y="96" class="st1" width="6" height="6"/>
	<rect x="78" y="96" class="st4" width="6" height="6"/>
	<rect x="84" y="96" class="st8" width="6" height="6"/>
	<rect x="90" y="96" class="st4" width="6" height="6"/>
	<rect x="96" y="96" class="st9" width="6" height="6"/>
	<rect x="102" y="96" class="st2" width="6" height="6"/>
	<rect x="108" y="96" class="st4" width="6" height="6"/>
	<rect x="114" y="96" class="st10" width="6" height="6"/>
	<rect x="120" y="96" class="st10" width="6" height="6"/>
	<rect x="126" y="96" class="st0" width="6" height="6"/>
	<rect x="132" y="96" class="st0" width="6" height="6"/>
	<rect x="138" y="96" class="st0" width="6" height="6"/>
	<rect x="24" y="102" class="st0" width="6" height="6"/>
	<rect x="30" y="102" class="st0" width="6" height="6"/>
	<rect x="36" y="102" class="st4" width="6" height="6"/>
	<rect x="42" y="102" class="st0" width="6" height="6"/>
	<rect x="48" y="102" class="st3" width="6" height="6"/>
	<rect x="54" y="102" class="st5" width="6" height="6"/>
	<rect x="60" y="102" class="st1" width="6" height="6"/>
	<rect x="66" y="102" class="st2" width="6" height="6"/>
	<rect x="72" y="102" class="st4" width="6" height="6"/>
	<rect x="78" y="102" class="st8" width="6" height="6"/>
	<rect x="84" y="102" class="st8" width="6" height="6"/>
	<rect x="90" y="102" class="st9" width="6" height="6"/>
	<rect x="96" y="102" class="st1" width="6" height="6"/>
	<rect x="102" y="102" class="st1" width="6" height="6"/>
	<rect x="108" y="102" class="st5" width="6" height="6"/>
	<rect x="114" y="102" class="st9" width="6" height="6"/>
	<rect x="120" y="102" class="st9" width="6" height="6"/>
	<rect x="126" y="102" class="st10" width="6" height="6"/>
	<rect x="132" y="102" class="st10" width="6" height="6"/>
	<rect x="138" y="102" class="st10" width="6" height="6"/>
	<rect x="144" y="102" class="st0" width="6" height="6"/>
	<rect x="30" y="108" class="st0" width="6" height="6"/>
	<rect x="36" y="108" class="st5" width="6" height="6"/>
	<rect x="42" y="108" class="st0" width="6" height="6"/>
	<rect x="48" y="108" class="st10" width="6" height="6"/>
	<rect x="54" y="108" class="st5" width="6" height="6"/>
	<rect x="60" y="108" class="st1" width="6" height="6"/>
	<rect x="66" y="108" class="st1" width="6" height="6"/>
	<rect x="72" y="108" class="st1" width="6" height="6"/>
	<rect x="78" y="108" class="st5" width="6" height="6"/>
	<rect x="84" y="108" class="st1" width="6" height="6"/>
	<rect x="90" y="108" class="st1" width="6" height="6"/>
	<rect x="96" y="108" class="st5" width="6" height="6"/>
	<rect x="102" y="108" class="st5" width="6" height="6"/>
	<rect x="108" y="108" class="st9" width="6" height="6"/>
	<rect x="114" y="108" class="st9" width="6" height="6"/>
	<rect x="120" y="108" class="st10" width="6" height="6"/>
	<rect x="126" y="108" class="st10" width="6" height="6"/>
	<rect x="132" y="108" class="st11" width="6" height="6"/>
	<rect x="138" y="108" class="st10" width="6" height="6"/>
	<rect x="144" y="108" class="st0" width="6" height="6"/>
	<rect x="24" y="114" class="st0" width="6" height="6"/>
	<rect x="30" y="114" class="st0" width="6" height="6"/>
	<rect x="36" y="114" class="st10" width="6" height="6"/>
	<rect x="42" y="114" class="st5" width="6" height="6"/>
	<rect x="48" y="114" class="st8" width="6" height="6"/>
	<rect x="54" y="114" class="st8" width="6" height="6"/>
	<rect x="60" y="114" class="st5" width="6" height="6"/>
	<rect x="66" y="114" class="st5" width="6" height="6"/>
	<rect x="72" y="114" class="st1" width="6" height="6"/>
	<rect x="78" y="114" class="st5" width="6" height="6"/>
	<rect x="84" y="114" class="st5" width="6" height="6"/>
	<rect x="90" y="114" class="st5" width="6" height="6"/>
	<rect x="96" y="114" class="st12" width="6" height="6"/>
	<rect x="102" y="114" class="st12" width="6" height="6"/>
	<rect x="108" y="114" class="st10" width="6" height="6"/>
	<rect x="114" y="114" class="st10" width="6" height="6"/>
	<rect x="120" y="114" class="st11" width="6" height="6"/>
	<rect x="126" y="114" class="st11" width="6" height="6"/>
	<rect x="132" y="114" class="st11" width="6" height="6"/>
	<rect x="138" y="114" class="st10" width="6" height="6"/>
	<rect x="144" y="114" class="st0" width="6" height="6"/>
	<rect x="18" y="120" class="st0" width="6" height="6"/>
	<rect x="24" y="120" class="st10" width="6" height="6"/>
	<rect x="30" y="120" class="st13" width="6" height="6"/>
	<rect x="36" y="120" class="st13" width="6" height="6"/>
	<rect x="42" y="120" class="st8" width="6" height="6"/>
	<rect x="48" y="120" class="st5" width="6" height="6"/>
	<rect x="54" y="120" class="st5" width="6" height="6"/>
	<rect x="60" y="120" class="st8" width="6" height="6"/>
	<rect x="66" y="120" class="st5" width="6" height="6"/>
	<rect x="72" y="120" class="st5" width="6" height="6"/>
	<rect x="78" y="120" class="st5" width="6" height="6"/>
	<rect x="84" y="120" class="st12" width="6" height="6"/>
	<rect x="90" y="120" class="st12" width="6" height="6"/>
	<rect x="96" y="120" class="st10" width="6" height="6"/>
	<rect x="102" y="120" class="st10" width="6" height="6"/>
	<rect x="108" y="120" class="st11" width="6" height="6"/>
	<rect x="114" y="120" class="st11" width="6" height="6"/>
	<rect x="120" y="120" class="st11" width="6" height="6"/>
	<rect x="126" y="120" class="st11" width="6" height="6"/>
	<rect x="132" y="120" class="st11" width="6" height="6"/>
	<rect x="138" y="120" class="st10" width="6" height="6"/>
	<rect x="144" y="120" class="st0" width="6" height="6"/>
	<rect x="18" y="126" class="st0" width="6" height="6"/>
	<rect x="24" y="126" class="st13" width="6" height="6"/>
	<rect x="30" y="126" class="st14" width="6" height="6"/>
	<rect x="36" y="126" class="st14" width="6" height="6"/>
	<rect x="42" y="126" class="st10" width="6" height="6"/>
	<rect x="48" y="126" class="st13" width="6" height="6"/>
	<rect x="54" y="126" class="st13" width="6" height="6"/>
	<rect x="60" y="126" class="st13" width="6" height="6"/>
	<rect x="66" y="126" class="st12" width="6" height="6"/>
	<rect x="72" y="126" class="st12" width="6" height="6"/>
	<rect x="78" y="126" class="st12" width="6" height="6"/>
	<rect x="84" y="126" class="st10" width="6" height="6"/>
	<rect x="90" y="126" class="st10" width="6" height="6"/>
	<rect x="96" y="126" class="st11" width="6" height="6"/>
	<rect x="102" y="126" class="st11" width="6" height="6"/>
	<rect x="108" y="126" class="st11" width="6" height="6"/>
	<rect x="114" y="126" class="st11" width="6" height="6"/>
	<rect x="120" y="126" class="st11" width="6" height="6"/>
	<rect x="126" y="126" class="st11" width="6" height="6"/>
	<rect x="132" y="126" class="st11" width="6" height="6"/>
	<rect x="138" y="126" class="st10" width="6" height="6"/>
	<rect x="144" y="126" class="st0" width="6" height="6"/>
	<rect x="12" y="132" class="st0" width="6" height="6"/>
	<rect x="18" y="132" class="st0" width="6" height="6"/>
	<rect x="24" y="132" class="st13" width="6" height="6"/>
	<rect x="30" y="132" class="st14" width="6" height="6"/>
	<rect x="36" y="132" class="st14" width="6" height="6"/>
	<rect x="42" y="132" class="st14" width="6" height="6"/>
	<rect x="48" y="132" class="st14" width="6" height="6"/>
	<rect x="54" y="132" class="st14" width="6" height="6"/>
	<rect x="60" y="132" class="st14" width="6" height="6"/>
	<rect x="66" y="132" class="st13" width="6" height="6"/>
	<rect x="72" y="132" class="st13" width="6" height="6"/>
	<rect x="78" y="132" class="st10" width="6" height="6"/>
	<rect x="84" y="132" class="st11" width="6" height="6"/>
	<rect x="90" y="132" class="st11" width="6" height="6"/>
	<rect x="96" y="132" class="st11" width="6" height="6"/>
	<rect x="102" y="132" class="st11" width="6" height="6"/>
	<rect x="108" y="132" class="st11" width="6" height="6"/>
	<rect x="114" y="132" class="st11" width="6" height="6"/>
	<rect x="120" y="132" class="st11" width="6" height="6"/>
	<rect x="126" y="132" class="st11" width="6" height="6"/>
	<rect x="132" y="132" class="st11" width="6" height="6"/>
	<rect x="138" y="132" class="st10" width="6" height="6"/>
	<rect x="144" y="132" class="st0" width="6" height="6"/>
	<rect y="138" class="st0" width="6" height="6"/>
	<rect x="6" y="138" class="st0" width="6" height="6"/>
	<rect x="12" y="138" class="st8" width="6" height="6"/>
	<rect x="18" y="138" class="st8" width="6" height="6"/>
	<rect x="24" y="138" class="st13" width="6" height="6"/>
	<rect x="30" y="138" class="st14" width="6" height="6"/>
	<rect x="36" y="138" class="st14" width="6" height="6"/>
	<rect x="42" y="138" class="st14" width="6" height="6"/>
	<rect x="48" y="138" class="st14" width="6" height="6"/>
	<rect x="54" y="138" class="st14" width="6" height="6"/>
	<rect x="60" y="138" class="st14" width="6" height="6"/>
	<rect x="66" y="138" class="st14" width="6" height="6"/>
	<rect x="72" y="138" class="st10" width="6" height="6"/>
	<rect x="78" y="138" class="st11" width="6" height="6"/>
	<rect x="84" y="138" class="st11" width="6" height="6"/>
	<rect x="90" y="138" class="st11" width="6" height="6"/>
	<rect x="96" y="138" class="st11" width="6" height="6"/>
	<rect x="102" y="138" class="st11" width="6" height="6"/>
	<rect x="108" y="138" class="st11" width="6" height="6"/>
	<rect x="114" y="138" class="st11" width="6" height="6"/>
	<rect x="120" y="138" class="st11" width="6" height="6"/>
	<rect x="126" y="138" class="st11" width="6" height="6"/>
	<rect x="132" y="138" class="st10" width="6" height="6"/>
	<rect x="138" y="138" class="st10" width="6" height="6"/>
	<rect x="144" y="138" class="st15" width="6" height="6"/>
	<rect x="150" y="138" class="st0" width="6" height="6"/>
	<rect y="144" class="st8" width="6" height="6"/>
	<rect x="6" y="144" class="st8" width="6" height="6"/>
	<rect x="12" y="144" class="st0" width="6" height="6"/>
	<rect x="18" y="144" class="st0" width="6" height="6"/>
	<rect x="24" y="144" class="st13" width="6" height="6"/>
	<rect x="30" y="144" class="st14" width="6" height="6"/>
	<rect x="36" y="144" class="st14" width="6" height="6"/>
	<rect x="42" y="144" class="st14" width="6" height="6"/>
	<rect x="48" y="144" class="st14" width="6" height="6"/>
	<rect x="54" y="144" class="st14" width="6" height="6"/>
	<rect x="60" y="144" class="st14" width="6" height="6"/>
	<rect x="66" y="144" class="st14" width="6" height="6"/>
	<rect x="72" y="144" class="st13" width="6" height="6"/>
	<rect x="78" y="144" class="st11" width="6" height="6"/>
	<rect x="84" y="144" class="st11" width="6" height="6"/>
	<rect x="90" y="144" class="st11" width="6" height="6"/>
	<rect x="96" y="144" class="st11" width="6" height="6"/>
	<rect x="102" y="144" class="st8" width="6" height="6"/>
	<rect x="108" y="144" class="st8" width="6" height="6"/>
	<rect x="114" y="144" class="st9" width="6" height="6"/>
	<rect x="120" y="144" class="st10" width="6" height="6"/>
	<rect x="126" y="144" class="st10" width="6" height="6"/>
	<rect x="132" y="144" class="st13" width="6" height="6"/>
	<rect x="138" y="144" class="st13" width="6" height="6"/>
	<rect x="144" y="144" class="st16" width="6" height="6"/>
	<rect x="150" y="144" class="st0" width="6" height="6"/>
	<rect x="156" y="144" class="st0" width="6" height="6"/>
	<rect x="162" y="144" class="st0" width="6" height="6"/>
	<rect x="168" y="144" class="st0" width="6" height="6"/>
	<rect x="174" y="144" class="st0" width="6" height="6"/>
	<rect x="180" y="144" class="st0" width="6" height="6"/>
	<rect x="186" y="144" class="st0" width="6" height="6"/>
	<rect y="150" class="st0" width="6" height="6"/>
	<rect x="6" y="150" class="st0" width="6" height="6"/>
	<rect x="18" y="150" class="st0" width="6" height="6"/>
	<rect x="24" y="150" class="st13" width="6" height="6"/>
	<rect x="30" y="150" class="st14" width="6" height="6"/>
	<rect x="36" y="150" class="st14" width="6" height="6"/>
	<rect x="42" y="150" class="st14" width="6" height="6"/>
	<rect x="48" y="150" class="st14" width="6" height="6"/>
	<rect x="54" y="150" class="st14" width="6" height="6"/>
	<rect x="60" y="150" class="st14" width="6" height="6"/>
	<rect x="66" y="150" class="st14" width="6" height="6"/>
	<rect x="72" y="150" class="st13" width="6" height="6"/>
	<rect x="78" y="150" class="st11" width="6" height="6"/>
	<rect x="84" y="150" class="st11" width="6" height="6"/>
	<rect x="90" y="150" class="st11" width="6" height="6"/>
	<rect x="96" y="150" class="st11" width="6" height="6"/>
	<rect x="102" y="150" class="st8" width="6" height="6"/>
	<rect x="108" y="150" class="st9" width="6" height="6"/>
	<rect x="114" y="150" class="st8" width="6" height="6"/>
	<rect x="120" y="150" class="st13" width="6" height="6"/>
	<rect x="126" y="150" class="st13" width="6" height="6"/>
	<rect x="132" y="150" class="st16" width="6" height="6"/>
	<rect x="138" y="150" class="st16" width="6" height="6"/>
	<rect x="144" y="150" class="st17" width="6" height="6"/>
	<rect x="150" y="150" class="st18" width="6" height="6"/>
	<rect x="156" y="150" class="st18" width="6" height="6"/>
	<rect x="162" y="150" class="st18" width="6" height="6"/>
	<rect x="168" y="150" class="st18" width="6" height="6"/>
	<rect x="174" y="150" class="st18" width="6" height="6"/>
	<rect x="180" y="150" class="st18" width="6" height="6"/>
	<rect x="186" y="150" class="st18" width="6" height="6"/>
	<rect x="12" y="156" class="st0" width="6" height="6"/>
	<rect x="18" y="156" class="st19" width="6" height="6"/>
	<rect x="24" y="156" class="st10" width="6" height="6"/>
	<rect x="30" y="156" class="st13" width="6" height="6"/>
	<rect x="36" y="156" class="st13" width="6" height="6"/>
	<rect x="42" y="156" class="st14" width="6" height="6"/>
	<rect x="48" y="156" class="st14" width="6" height="6"/>
	<rect x="54" y="156" class="st14" width="6" height="6"/>
	<rect x="60" y="156" class="st14" width="6" height="6"/>
	<rect x="66" y="156" class="st14" width="6" height="6"/>
	<rect x="72" y="156" class="st13" width="6" height="6"/>
	<rect x="78" y="156" class="st11" width="6" height="6"/>
	<rect x="84" y="156" class="st11" width="6" height="6"/>
	<rect x="90" y="156" class="st11" width="6" height="6"/>
	<rect x="96" y="156" class="st10" width="6" height="6"/>
	<rect x="102" y="156" class="st10" width="6" height="6"/>
	<rect x="108" y="156" class="st13" width="6" height="6"/>
	<rect x="114" y="156" class="st13" width="6" height="6"/>
	<rect x="120" y="156" class="st9" width="6" height="6"/>
	<rect x="126" y="156" class="st16" width="6" height="6"/>
	<rect x="132" y="156" class="st17" width="6" height="6"/>
	<rect x="138" y="156" class="st17" width="6" height="6"/>
	<rect x="144" y="156" class="st18" width="6" height="6"/>
	<rect x="150" y="156" class="st18" width="6" height="6"/>
	<rect x="156" y="156" class="st18" width="6" height="6"/>
	<rect x="162" y="156" class="st18" width="6" height="6"/>
	<rect x="168" y="156" class="st18" width="6" height="6"/>
	<rect x="174" y="156" class="st18" width="6" height="6"/>
	<rect x="180" y="156" class="st18" width="6" height="6"/>
	<rect x="186" y="156" class="st18" width="6" height="6"/>
	<rect x="12" y="162" class="st0" width="6" height="6"/>
	<rect x="18" y="162" class="st20" width="6" height="6"/>
	<rect x="24" y="162" class="st21" width="6" height="6"/>
	<rect x="30" y="162" class="st22" width="6" height="6"/>
	<rect x="36" y="162" class="st22" width="6" height="6"/>
	<rect x="42" y="162" class="st13" width="6" height="6"/>
	<rect x="48" y="162" class="st13" width="6" height="6"/>
	<rect x="54" y="162" class="st13" width="6" height="6"/>
	<rect x="60" y="162" class="st10" width="6" height="6"/>
	<rect x="66" y="162" class="st14" width="6" height="6"/>
	<rect x="72" y="162" class="st13" width="6" height="6"/>
	<rect x="78" y="162" class="st11" width="6" height="6"/>
	<rect x="84" y="162" class="st10" width="6" height="6"/>
	<rect x="90" y="162" class="st10" width="6" height="6"/>
	<rect x="96" y="162" class="st13" width="6" height="6"/>
	<rect x="102" y="162" class="st13" width="6" height="6"/>
	<rect x="108" y="162" class="st15" width="6" height="6"/>
	<rect x="114" y="162" class="st16" width="6" height="6"/>
	<rect x="120" y="162" class="st9" width="6" height="6"/>
	<rect x="126" y="162" class="st17" width="6" height="6"/>
	<rect x="132" y="162" class="st18" width="6" height="6"/>
	<rect x="138" y="162" class="st18" width="6" height="6"/>
	<rect x="144" y="162" class="st18" width="6" height="6"/>
	<rect x="150" y="162" class="st18" width="6" height="6"/>
	<rect x="156" y="162" class="st18" width="6" height="6"/>
	<rect x="162" y="162" class="st18" width="6" height="6"/>
	<rect x="168" y="162" class="st18" width="6" height="6"/>
	<rect x="174" y="162" class="st9" width="6" height="6"/>
	<rect x="180" y="162" class="st9" width="6" height="6"/>
	<rect x="186" y="162" class="st9" width="6" height="6"/>
	<rect x="18" y="168" class="st0" width="6" height="6"/>
	<rect x="24" y="168" class="st20" width="6" height="6"/>
	<rect x="30" y="168" class="st19" width="6" height="6"/>
	<rect x="36" y="168" class="st19" width="6" height="6"/>
	<rect x="42" y="168" class="st22" width="6" height="6"/>
	<rect x="48" y="168" class="st22" width="6" height="6"/>
	<rect x="54" y="168" class="st22" width="6" height="6"/>
	<rect x="60" y="168" class="st21" width="6" height="6"/>
	<rect x="66" y="168" class="st13" width="6" height="6"/>
	<rect x="72" y="168" class="st10" width="6" height="6"/>
	<rect x="78" y="168" class="st10" width="6" height="6"/>
	<rect x="84" y="168" class="st13" width="6" height="6"/>
	<rect x="90" y="168" class="st13" width="6" height="6"/>
	<rect x="96" y="168" class="st16" width="6" height="6"/>
	<rect x="102" y="168" class="st16" width="6" height="6"/>
	<rect x="108" y="168" class="st17" width="6" height="6"/>
	<rect x="114" y="168" class="st17" width="6" height="6"/>
	<rect x="120" y="168" class="st17" width="6" height="6"/>
	<rect x="126" y="168" class="st9" width="6" height="6"/>
	<rect x="132" y="168" class="st9" width="6" height="6"/>
	<rect x="138" y="168" class="st18" width="6" height="6"/>
	<rect x="144" y="168" class="st18" width="6" height="6"/>
	<rect x="150" y="168" class="st18" width="6" height="6"/>
	<rect x="156" y="168" class="st18" width="6" height="6"/>
	<rect x="162" y="168" class="st9" width="6" height="6"/>
	<rect x="168" y="168" class="st9" width="6" height="6"/>
	<rect x="174" y="168" class="st17" width="6" height="6"/>
	<rect x="180" y="168" class="st17" width="6" height="6"/>
	<rect x="186" y="168" class="st17" width="6" height="6"/>
	<rect x="24" y="174" class="st0" width="6" height="6"/>
	<rect x="30" y="174" class="st0" width="6" height="6"/>
	<rect x="36" y="174" class="st0" width="6" height="6"/>
	<rect x="42" y="174" class="st19" width="6" height="6"/>
	<rect x="48" y="174" class="st19" width="6" height="6"/>
	<rect x="54" y="174" class="st19" width="6" height="6"/>
	<rect x="60" y="174" class="st20" width="6" height="6"/>
	<rect x="66" y="174" class="st22" width="6" height="6"/>
	<rect x="72" y="174" class="st21" width="6" height="6"/>
	<rect x="78" y="174" class="st13" width="6" height="6"/>
	<rect x="84" y="174" class="st16" width="6" height="6"/>
	<rect x="90" y="174" class="st15" width="6" height="6"/>
	<rect x="96" y="174" class="st17" width="6" height="6"/>
	<rect x="102" y="174" class="st17" width="6" height="6"/>
	<rect x="108" y="174" class="st18" width="6" height="6"/>
	<rect x="114" y="174" class="st18" width="6" height="6"/>
	<rect x="120" y="174" class="st18" width="6" height="6"/>
	<rect x="126" y="174" class="st17" width="6" height="6"/>
	<rect x="132" y="174" class="st17" width="6" height="6"/>
	<rect x="138" y="174" class="st9" width="6" height="6"/>
	<rect x="144" y="174" class="st9" width="6" height="6"/>
	<rect x="150" y="174" class="st9" width="6" height="6"/>
	<rect x="156" y="174" class="st9" width="6" height="6"/>
	<rect x="162" y="174" class="st17" width="6" height="6"/>
	<rect x="168" y="174" class="st17" width="6" height="6"/>
	<rect x="174" y="174" class="st18" width="6" height="6"/>
	<rect x="180" y="174" class="st18" width="6" height="6"/>
	<rect x="186" y="174" class="st18" width="6" height="6"/>
	<rect x="42" y="180" class="st0" width="6" height="6"/>
	<rect x="48" y="180" class="st0" width="6" height="6"/>
	<rect x="54" y="180" class="st0" width="6" height="6"/>
	<rect x="60" y="180" class="st0" width="6" height="6"/>
	<rect x="66" y="180" class="st19" width="6" height="6"/>
	<rect x="72" y="180" class="st19" width="6" height="6"/>
	<rect x="78" y="180" class="st15" width="6" height="6"/>
	<rect x="84" y="180" class="st17" width="6" height="6"/>
	<rect x="90" y="180" class="st17" width="6" height="6"/>
	<rect x="96" y="180" class="st18" width="6" height="6"/>
	<rect x="102" y="180" class="st18" width="6" height="6"/>
	<rect x="108" y="180" class="st18" width="6" height="6"/>
	<rect x="114" y="180" class="st18" width="6" height="6"/>
	<rect x="120" y="180" class="st18" width="6" height="6"/>
	<rect x="126" y="180" class="st18" width="6" height="6"/>
	<rect x="132" y="180" class="st18" width="6" height="6"/>
	<rect x="138" y="180" class="st17" width="6" height="6"/>
	<rect x="144" y="180" class="st17" width="6" height="6"/>
	<rect x="150" y="180" class="st17" width="6" height="6"/>
	<rect x="156" y="180" class="st17" width="6" height="6"/>
	<rect x="162" y="180" class="st18" width="6" height="6"/>
	<rect x="168" y="180" class="st18" width="6" height="6"/>
	<rect x="174" y="180" class="st18" width="6" height="6"/>
	<rect x="180" y="180" class="st18" width="6" height="6"/>
	<rect x="186" y="180" class="st18" width="6" height="6"/>
	<rect x="66" y="186" class="st0" width="6" height="6"/>
	<rect x="72" y="186" class="st0" width="6" height="6"/>
	<rect x="78" y="186" class="st0" width="6" height="6"/>
	<rect x="84" y="186" class="st0" width="6" height="6"/>
	<rect x="90" y="186" class="st0" width="6" height="6"/>
	<rect x="96" y="186" class="st0" width="6" height="6"/>
	<rect x="102" y="186" class="st0" width="6" height="6"/>
	<rect x="108" y="186" class="st0" width="6" height="6"/>
	<rect x="114" y="186" class="st0" width="6" height="6"/>
	<rect x="120" y="186" class="st0" width="6" height="6"/>
	<rect x="126" y="186" class="st0" width="6" height="6"/>
	<rect x="132" y="186" class="st0" width="6" height="6"/>
	<rect x="138" y="186" class="st0" width="6" height="6"/>
	<rect x="144" y="186" class="st0" width="6" height="6"/>
	<rect x="150" y="186" class="st0" width="6" height="6"/>
	<rect x="156" y="186" class="st0" width="6" height="6"/>
	<rect x="162" y="186" class="st0" width="6" height="6"/>
	<rect x="168" y="186" class="st0" width="6" height="6"/>
	<rect x="174" y="186" class="st0" width="6" height="6"/>
	<rect x="180" y="186" class="st0" width="6" height="6"/>
	<rect x="186" y="186" class="st0" width="6" height="6"/>
</g>
</svg>
