<?xml version="1.0" encoding="utf-8"?>
<!-- Generator: Adobe Illustrator 27.9.0, SVG Export Plug-In . SVG Version: 6.00 Build 0)  -->
<svg version="1.1" id="Layer_1" shape-rendering="crispEdges"
	 xmlns="http://www.w3.org/2000/svg" xmlns:xlink="http://www.w3.org/1999/xlink" x="0px" y="0px" viewBox="0 0 192 192"
	 style="enable-background:new 0 0 192 192;" xml:space="preserve">
<style type="text/css">
	.st0{fill:#5CABE1;}
	.st1{fill:#D65A70;}
	.st2{fill:#8D506B;}
	.st3{fill:#AE5269;}
	.st4{fill:#E6C874;}
	.st5{fill:#E6A974;}
	.st6{fill:#CD694F;}
	.st7{fill:#E7A55D;}
	.st8{fill:#E4895D;}
	.st9{fill:#2BA43E;}
	.st10{fill:#ECE7E8;}
	.st11{fill:#C1313E;}
	.st12{fill:#B3534E;}
	.st13{fill:#7F803E;}
	.st14{fill:#D58858;}
	.st15{fill:#E3543C;}
	.st16{fill:#1D8566;}
	.st17{fill:#D5D06E;}
	.st18{fill:#4C6D56;}
</style>
<g>
	<rect x="20.8" y="24.2" class="st0" width="5.8" height="5.8"/>
	<rect x="26.6" y="24.2" class="st0" width="5.8" height="5.8"/>
	<rect x="113.4" y="24.2" class="st0" width="5.8" height="5.8"/>
	<rect x="119.1" y="24.2" class="st0" width="5.8" height="5.8"/>
	<rect x="124.9" y="24.2" class="st0" width="5.8" height="5.8"/>
	<rect x="15" y="30" class="st0" width="5.8" height="5.8"/>
	<rect x="20.8" y="30" class="st1" width="5.8" height="5.8"/>
	<rect x="26.6" y="30" class="st1" width="5.8" height="5.8"/>
	<rect x="32.4" y="30" class="st0" width="5.8" height="5.8"/>
	<rect x="38.1" y="30" class="st0" width="5.8" height="5.8"/>
	<rect x="101.8" y="30" class="st0" width="5.8" height="5.8"/>
	<rect x="107.6" y="30" class="st0" width="5.8" height="5.8"/>
	<rect x="113.4" y="30" class="st2" width="5.8" height="5.8"/>
	<rect x="119.1" y="30" class="st2" width="5.8" height="5.8"/>
	<rect x="124.9" y="30" class="st3" width="5.8" height="5.8"/>
	<rect x="130.7" y="30" class="st0" width="5.8" height="5.8"/>
	<rect x="136.5" y="30" class="st0" width="5.8" height="5.8"/>
	<rect x="15" y="35.8" class="st0" width="5.8" height="5.8"/>
	<rect x="20.8" y="35.8" class="st1" width="5.8" height="5.8"/>
	<rect x="26.6" y="35.8" class="st4" width="5.8" height="5.8"/>
	<rect x="32.4" y="35.8" class="st1" width="5.8" height="5.8"/>
	<rect x="38.1" y="35.8" class="st3" width="5.8" height="5.8"/>
	<rect x="43.9" y="35.8" class="st0" width="5.8" height="5.8"/>
	<rect x="49.7" y="35.8" class="st0" width="5.8" height="5.8"/>
	<rect x="90.2" y="35.8" class="st0" width="5.8" height="5.8"/>
	<rect x="96" y="35.8" class="st0" width="5.8" height="5.8"/>
	<rect x="101.8" y="35.8" class="st2" width="5.8" height="5.8"/>
	<rect x="107.6" y="35.8" class="st2" width="5.8" height="5.8"/>
	<rect x="113.4" y="35.8" class="st5" width="5.8" height="5.8"/>
	<rect x="119.1" y="35.8" class="st3" width="5.8" height="5.8"/>
	<rect x="124.9" y="35.8" class="st4" width="5.8" height="5.8"/>
	<rect x="130.7" y="35.8" class="st3" width="5.8" height="5.8"/>
	<rect x="136.5" y="35.8" class="st1" width="5.8" height="5.8"/>
	<rect x="142.3" y="35.8" class="st0" width="5.8" height="5.8"/>
	<rect x="148.1" y="35.8" class="st0" width="5.8" height="5.8"/>
	<rect x="15" y="41.5" class="st0" width="5.8" height="5.8"/>
	<rect x="20.8" y="41.5" class="st1" width="5.8" height="5.8"/>
	<rect x="26.6" y="41.5" class="st4" width="5.8" height="5.8"/>
	<rect x="32.4" y="41.5" class="st4" width="5.8" height="5.8"/>
	<rect x="38.1" y="41.5" class="st4" width="5.8" height="5.8"/>
	<rect x="43.9" y="41.5" class="st1" width="5.8" height="5.8"/>
	<rect x="49.7" y="41.5" class="st3" width="5.8" height="5.8"/>
	<rect x="55.5" y="41.5" class="st0" width="5.8" height="5.8"/>
	<rect x="61.3" y="41.5" class="st0" width="5.8" height="5.8"/>
	<rect x="78.6" y="41.5" class="st0" width="5.8" height="5.8"/>
	<rect x="84.4" y="41.5" class="st0" width="5.8" height="5.8"/>
	<rect x="90.2" y="41.5" class="st2" width="5.8" height="5.8"/>
	<rect x="96" y="41.5" class="st2" width="5.8" height="5.8"/>
	<rect x="101.8" y="41.5" class="st5" width="5.8" height="5.8"/>
	<rect x="107.6" y="41.5" class="st5" width="5.8" height="5.8"/>
	<rect x="113.4" y="41.5" class="st5" width="5.8" height="5.8"/>
	<rect x="119.1" y="41.5" class="st6" width="5.8" height="5.8"/>
	<rect x="124.9" y="41.5" class="st7" width="5.8" height="5.8"/>
	<rect x="130.7" y="41.5" class="st4" width="5.8" height="5.8"/>
	<rect x="136.5" y="41.5" class="st4" width="5.8" height="5.8"/>
	<rect x="142.3" y="41.5" class="st3" width="5.8" height="5.8"/>
	<rect x="148.1" y="41.5" class="st1" width="5.8" height="5.8"/>
	<rect x="153.9" y="41.5" class="st0" width="5.8" height="5.8"/>
	<rect x="159.6" y="41.5" class="st0" width="5.8" height="5.8"/>
	<rect x="165.4" y="41.5" class="st0" width="5.8" height="5.8"/>
	<rect x="15" y="47.3" class="st0" width="5.8" height="5.8"/>
	<rect x="20.8" y="47.3" class="st1" width="5.8" height="5.8"/>
	<rect x="26.6" y="47.3" class="st4" width="5.8" height="5.8"/>
	<rect x="32.4" y="47.3" class="st7" width="5.8" height="5.8"/>
	<rect x="38.1" y="47.3" class="st4" width="5.8" height="5.8"/>
	<rect x="43.9" y="47.3" class="st4" width="5.8" height="5.8"/>
	<rect x="49.7" y="47.3" class="st4" width="5.8" height="5.8"/>
	<rect x="55.5" y="47.3" class="st1" width="5.8" height="5.8"/>
	<rect x="61.3" y="47.3" class="st3" width="5.8" height="5.8"/>
	<rect x="67.1" y="47.3" class="st0" width="5.8" height="5.8"/>
	<rect x="72.9" y="47.3" class="st0" width="5.8" height="5.8"/>
	<rect x="78.6" y="47.3" class="st2" width="5.8" height="5.8"/>
	<rect x="84.4" y="47.3" class="st2" width="5.8" height="5.8"/>
	<rect x="90.2" y="47.3" class="st5" width="5.8" height="5.8"/>
	<rect x="96" y="47.3" class="st5" width="5.8" height="5.8"/>
	<rect x="101.8" y="47.3" class="st8" width="5.8" height="5.8"/>
	<rect x="107.6" y="47.3" class="st5" width="5.8" height="5.8"/>
	<rect x="113.4" y="47.3" class="st8" width="5.8" height="5.8"/>
	<rect x="119.1" y="47.3" class="st6" width="5.8" height="5.8"/>
	<rect x="124.9" y="47.3" class="st7" width="5.8" height="5.8"/>
	<rect x="130.7" y="47.3" class="st9" width="5.8" height="5.8"/>
	<rect x="136.5" y="47.3" class="st7" width="5.8" height="5.8"/>
	<rect x="142.3" y="47.3" class="st4" width="5.8" height="5.8"/>
	<rect x="148.1" y="47.3" class="st4" width="5.8" height="5.8"/>
	<rect x="153.9" y="47.3" class="st3" width="5.8" height="5.8"/>
	<rect x="159.6" y="47.3" class="st1" width="5.8" height="5.8"/>
	<rect x="165.4" y="47.3" class="st1" width="5.8" height="5.8"/>
	<rect x="171.2" y="47.3" class="st0" width="5.8" height="5.8"/>
	<rect x="15" y="53.1" class="st0" width="5.8" height="5.8"/>
	<rect x="20.8" y="53.1" class="st1" width="5.8" height="5.8"/>
	<rect x="26.6" y="53.1" class="st4" width="5.8" height="5.8"/>
	<rect x="32.4" y="53.1" class="st7" width="5.8" height="5.8"/>
	<rect x="38.1" y="53.1" class="st7" width="5.8" height="5.8"/>
	<rect x="43.9" y="53.1" class="st7" width="5.8" height="5.8"/>
	<rect x="49.7" y="53.1" class="st7" width="5.8" height="5.8"/>
	<rect x="55.5" y="53.1" class="st4" width="5.8" height="5.8"/>
	<rect x="61.3" y="53.1" class="st4" width="5.8" height="5.8"/>
	<rect x="67.1" y="53.1" class="st3" width="5.8" height="5.8"/>
	<rect x="72.9" y="53.1" class="st2" width="5.8" height="5.8"/>
	<rect x="78.6" y="53.1" class="st5" width="5.8" height="5.8"/>
	<rect x="84.4" y="53.1" class="st5" width="5.8" height="5.8"/>
	<rect x="90.2" y="53.1" class="st5" width="5.8" height="5.8"/>
	<rect x="96" y="53.1" class="st8" width="5.8" height="5.8"/>
	<rect x="101.8" y="53.1" class="st5" width="5.8" height="5.8"/>
	<rect x="107.6" y="53.1" class="st8" width="5.8" height="5.8"/>
	<rect x="113.4" y="53.1" class="st5" width="5.8" height="5.8"/>
	<rect x="119.1" y="53.1" class="st6" width="5.8" height="5.8"/>
	<rect x="124.9" y="53.1" class="st7" width="5.8" height="5.8"/>
	<rect x="130.7" y="53.1" class="st9" width="5.8" height="5.8"/>
	<rect x="136.5" y="53.1" class="st9" width="5.8" height="5.8"/>
	<rect x="142.3" y="53.1" class="st7" width="5.8" height="5.8"/>
	<rect x="148.1" y="53.1" class="st7" width="5.8" height="5.8"/>
	<rect x="153.9" y="53.1" class="st4" width="5.8" height="5.8"/>
	<rect x="159.6" y="53.1" class="st4" width="5.8" height="5.8"/>
	<rect x="165.4" y="53.1" class="st1" width="5.8" height="5.8"/>
	<rect x="171.2" y="53.1" class="st0" width="5.8" height="5.8"/>
	<rect x="15" y="58.9" class="st0" width="5.8" height="5.8"/>
	<rect x="20.8" y="58.9" class="st1" width="5.8" height="5.8"/>
	<rect x="26.6" y="58.9" class="st4" width="5.8" height="5.8"/>
	<rect x="32.4" y="58.9" class="st7" width="5.8" height="5.8"/>
	<rect x="38.1" y="58.9" class="st10" width="5.8" height="5.8"/>
	<rect x="43.9" y="58.9" class="st10" width="5.8" height="5.8"/>
	<rect x="49.7" y="58.9" class="st7" width="5.8" height="5.8"/>
	<rect x="55.5" y="58.9" class="st7" width="5.8" height="5.8"/>
	<rect x="61.3" y="58.9" class="st7" width="5.8" height="5.8"/>
	<rect x="67.1" y="58.9" class="st4" width="5.8" height="5.8"/>
	<rect x="72.9" y="58.9" class="st3" width="5.8" height="5.8"/>
	<rect x="78.6" y="58.9" class="st8" width="5.8" height="5.8"/>
	<rect x="84.4" y="58.9" class="st5" width="5.8" height="5.8"/>
	<rect x="90.2" y="58.9" class="st8" width="5.8" height="5.8"/>
	<rect x="96" y="58.9" class="st5" width="5.8" height="5.8"/>
	<rect x="101.8" y="58.9" class="st8" width="5.8" height="5.8"/>
	<rect x="107.6" y="58.9" class="st5" width="5.8" height="5.8"/>
	<rect x="113.4" y="58.9" class="st8" width="5.8" height="5.8"/>
	<rect x="119.1" y="58.9" class="st6" width="5.8" height="5.8"/>
	<rect x="124.9" y="58.9" class="st7" width="5.8" height="5.8"/>
	<rect x="130.7" y="58.9" class="st9" width="5.8" height="5.8"/>
	<rect x="136.5" y="58.9" class="st9" width="5.8" height="5.8"/>
	<rect x="142.3" y="58.9" class="st9" width="5.8" height="5.8"/>
	<rect x="148.1" y="58.9" class="st7" width="5.8" height="5.8"/>
	<rect x="153.9" y="58.9" class="st7" width="5.8" height="5.8"/>
	<rect x="159.6" y="58.9" class="st4" width="5.8" height="5.8"/>
	<rect x="165.4" y="58.9" class="st1" width="5.8" height="5.8"/>
	<rect x="171.2" y="58.9" class="st0" width="5.8" height="5.8"/>
	<rect x="15" y="64.7" class="st0" width="5.8" height="5.8"/>
	<rect x="20.8" y="64.7" class="st1" width="5.8" height="5.8"/>
	<rect x="26.6" y="64.7" class="st4" width="5.8" height="5.8"/>
	<rect x="32.4" y="64.7" class="st7" width="5.8" height="5.8"/>
	<rect x="38.1" y="64.7" class="st10" width="5.8" height="5.8"/>
	<rect x="43.9" y="64.7" class="st10" width="5.8" height="5.8"/>
	<rect x="49.7" y="64.7" class="st10" width="5.8" height="5.8"/>
	<rect x="55.5" y="64.7" class="st10" width="5.8" height="5.8"/>
	<rect x="61.3" y="64.7" class="st7" width="5.8" height="5.8"/>
	<rect x="67.1" y="64.7" class="st7" width="5.8" height="5.8"/>
	<rect x="72.9" y="64.7" class="st6" width="5.8" height="5.8"/>
	<rect x="78.6" y="64.7" class="st5" width="5.8" height="5.8"/>
	<rect x="84.4" y="64.7" class="st8" width="5.8" height="5.8"/>
	<rect x="90.2" y="64.7" class="st5" width="5.8" height="5.8"/>
	<rect x="96" y="64.7" class="st8" width="5.8" height="5.8"/>
	<rect x="101.8" y="64.7" class="st5" width="5.8" height="5.8"/>
	<rect x="107.6" y="64.7" class="st8" width="5.8" height="5.8"/>
	<rect x="113.4" y="64.7" class="st5" width="5.8" height="5.8"/>
	<rect x="119.1" y="64.7" class="st6" width="5.8" height="5.8"/>
	<rect x="124.9" y="64.7" class="st7" width="5.8" height="5.8"/>
	<rect x="130.7" y="64.7" class="st9" width="5.8" height="5.8"/>
	<rect x="136.5" y="64.7" class="st9" width="5.8" height="5.8"/>
	<rect x="142.3" y="64.7" class="st9" width="5.8" height="5.8"/>
	<rect x="148.1" y="64.7" class="st9" width="5.8" height="5.8"/>
	<rect x="153.9" y="64.7" class="st9" width="5.8" height="5.8"/>
	<rect x="159.6" y="64.7" class="st4" width="5.8" height="5.8"/>
	<rect x="165.4" y="64.7" class="st1" width="5.8" height="5.8"/>
	<rect x="171.2" y="64.7" class="st0" width="5.8" height="5.8"/>
	<rect x="15" y="70.5" class="st0" width="5.8" height="5.8"/>
	<rect x="20.8" y="70.5" class="st1" width="5.8" height="5.8"/>
	<rect x="26.6" y="70.5" class="st4" width="5.8" height="5.8"/>
	<rect x="32.4" y="70.5" class="st7" width="5.8" height="5.8"/>
	<rect x="38.1" y="70.5" class="st10" width="5.8" height="5.8"/>
	<rect x="43.9" y="70.5" class="st11" width="5.8" height="5.8"/>
	<rect x="49.7" y="70.5" class="st11" width="5.8" height="5.8"/>
	<rect x="55.5" y="70.5" class="st10" width="5.8" height="5.8"/>
	<rect x="61.3" y="70.5" class="st10" width="5.8" height="5.8"/>
	<rect x="67.1" y="70.5" class="st7" width="5.8" height="5.8"/>
	<rect x="72.9" y="70.5" class="st6" width="5.8" height="5.8"/>
	<rect x="78.6" y="70.5" class="st8" width="5.8" height="5.8"/>
	<rect x="84.4" y="70.5" class="st5" width="5.8" height="5.8"/>
	<rect x="90.2" y="70.5" class="st8" width="5.8" height="5.8"/>
	<rect x="96" y="70.5" class="st5" width="5.8" height="5.8"/>
	<rect x="101.8" y="70.5" class="st8" width="5.8" height="5.8"/>
	<rect x="107.6" y="70.5" class="st5" width="5.8" height="5.8"/>
	<rect x="113.4" y="70.5" class="st8" width="5.8" height="5.8"/>
	<rect x="119.1" y="70.5" class="st6" width="5.8" height="5.8"/>
	<rect x="124.9" y="70.5" class="st7" width="5.8" height="5.8"/>
	<rect x="130.7" y="70.5" class="st9" width="5.8" height="5.8"/>
	<rect x="136.5" y="70.5" class="st9" width="5.8" height="5.8"/>
	<rect x="142.3" y="70.5" class="st9" width="5.8" height="5.8"/>
	<rect x="148.1" y="70.5" class="st9" width="5.8" height="5.8"/>
	<rect x="153.9" y="70.5" class="st9" width="5.8" height="5.8"/>
	<rect x="159.6" y="70.5" class="st4" width="5.8" height="5.8"/>
	<rect x="165.4" y="70.5" class="st1" width="5.8" height="5.8"/>
	<rect x="171.2" y="70.5" class="st0" width="5.8" height="5.8"/>
	<rect x="15" y="76.2" class="st0" width="5.8" height="5.8"/>
	<rect x="20.8" y="76.2" class="st1" width="5.8" height="5.8"/>
	<rect x="26.6" y="76.2" class="st4" width="5.8" height="5.8"/>
	<rect x="32.4" y="76.2" class="st7" width="5.8" height="5.8"/>
	<rect x="38.1" y="76.2" class="st10" width="5.8" height="5.8"/>
	<rect x="43.9" y="76.2" class="st11" width="5.8" height="5.8"/>
	<rect x="49.7" y="76.2" class="st11" width="5.8" height="5.8"/>
	<rect x="55.5" y="76.2" class="st11" width="5.8" height="5.8"/>
	<rect x="61.3" y="76.2" class="st10" width="5.8" height="5.8"/>
	<rect x="67.1" y="76.2" class="st7" width="5.8" height="5.8"/>
	<rect x="72.9" y="76.2" class="st6" width="5.8" height="5.8"/>
	<rect x="78.6" y="76.2" class="st5" width="5.8" height="5.8"/>
	<rect x="84.4" y="76.2" class="st8" width="5.8" height="5.8"/>
	<rect x="90.2" y="76.2" class="st5" width="5.8" height="5.8"/>
	<rect x="96" y="76.2" class="st8" width="5.8" height="5.8"/>
	<rect x="101.8" y="76.2" class="st5" width="5.8" height="5.8"/>
	<rect x="107.6" y="76.2" class="st8" width="5.8" height="5.8"/>
	<rect x="113.4" y="76.2" class="st5" width="5.8" height="5.8"/>
	<rect x="119.1" y="76.2" class="st12" width="5.8" height="5.8"/>
	<rect x="124.9" y="76.2" class="st9" width="5.8" height="5.8"/>
	<rect x="130.7" y="76.2" class="st9" width="5.8" height="5.8"/>
	<rect x="136.5" y="76.2" class="st9" width="5.8" height="5.8"/>
	<rect x="142.3" y="76.2" class="st9" width="5.8" height="5.8"/>
	<rect x="148.1" y="76.2" class="st9" width="5.8" height="5.8"/>
	<rect x="153.9" y="76.2" class="st9" width="5.8" height="5.8"/>
	<rect x="159.6" y="76.2" class="st4" width="5.8" height="5.8"/>
	<rect x="165.4" y="76.2" class="st1" width="5.8" height="5.8"/>
	<rect x="171.2" y="76.2" class="st0" width="5.8" height="5.8"/>
	<rect x="15" y="82" class="st0" width="5.8" height="5.8"/>
	<rect x="20.8" y="82" class="st1" width="5.8" height="5.8"/>
	<rect x="26.6" y="82" class="st4" width="5.8" height="5.8"/>
	<rect x="32.4" y="82" class="st7" width="5.8" height="5.8"/>
	<rect x="38.1" y="82" class="st10" width="5.8" height="5.8"/>
	<rect x="43.9" y="82" class="st10" width="5.8" height="5.8"/>
	<rect x="49.7" y="82" class="st11" width="5.8" height="5.8"/>
	<rect x="55.5" y="82" class="st11" width="5.8" height="5.8"/>
	<rect x="61.3" y="82" class="st10" width="5.8" height="5.8"/>
	<rect x="67.1" y="82" class="st7" width="5.8" height="5.8"/>
	<rect x="72.9" y="82" class="st6" width="5.8" height="5.8"/>
	<rect x="78.6" y="82" class="st8" width="5.8" height="5.8"/>
	<rect x="84.4" y="82" class="st8" width="5.8" height="5.8"/>
	<rect x="90.2" y="82" class="st8" width="5.8" height="5.8"/>
	<rect x="96" y="82" class="st8" width="5.8" height="5.8"/>
	<rect x="101.8" y="82" class="st8" width="5.8" height="5.8"/>
	<rect x="107.6" y="82" class="st8" width="5.8" height="5.8"/>
	<rect x="113.4" y="82" class="st8" width="5.8" height="5.8"/>
	<rect x="119.1" y="82" class="st12" width="5.8" height="5.8"/>
	<rect x="124.9" y="82" class="st9" width="5.8" height="5.8"/>
	<rect x="130.7" y="82" class="st9" width="5.8" height="5.8"/>
	<rect x="136.5" y="82" class="st9" width="5.8" height="5.8"/>
	<rect x="142.3" y="82" class="st9" width="5.8" height="5.8"/>
	<rect x="148.1" y="82" class="st9" width="5.8" height="5.8"/>
	<rect x="153.9" y="82" class="st13" width="5.8" height="5.8"/>
	<rect x="159.6" y="82" class="st4" width="5.8" height="5.8"/>
	<rect x="165.4" y="82" class="st1" width="5.8" height="5.8"/>
	<rect x="171.2" y="82" class="st0" width="5.8" height="5.8"/>
	<rect x="15" y="87.8" class="st0" width="5.8" height="5.8"/>
	<rect x="20.8" y="87.8" class="st1" width="5.8" height="5.8"/>
	<rect x="26.6" y="87.8" class="st4" width="5.8" height="5.8"/>
	<rect x="32.4" y="87.8" class="st7" width="5.8" height="5.8"/>
	<rect x="38.1" y="87.8" class="st14" width="5.8" height="5.8"/>
	<rect x="43.9" y="87.8" class="st10" width="5.8" height="5.8"/>
	<rect x="49.7" y="87.8" class="st10" width="5.8" height="5.8"/>
	<rect x="55.5" y="87.8" class="st10" width="5.8" height="5.8"/>
	<rect x="61.3" y="87.8" class="st10" width="5.8" height="5.8"/>
	<rect x="67.1" y="87.8" class="st7" width="5.8" height="5.8"/>
	<rect x="72.9" y="87.8" class="st6" width="5.8" height="5.8"/>
	<rect x="78.6" y="87.8" class="st8" width="5.8" height="5.8"/>
	<rect x="84.4" y="87.8" class="st8" width="5.8" height="5.8"/>
	<rect x="90.2" y="87.8" class="st15" width="5.8" height="5.8"/>
	<rect x="96" y="87.8" class="st15" width="5.8" height="5.8"/>
	<rect x="101.8" y="87.8" class="st15" width="5.8" height="5.8"/>
	<rect x="107.6" y="87.8" class="st8" width="5.8" height="5.8"/>
	<rect x="113.4" y="87.8" class="st16" width="5.8" height="5.8"/>
	<rect x="119.1" y="87.8" class="st12" width="5.8" height="5.8"/>
	<rect x="124.9" y="87.8" class="st9" width="5.8" height="5.8"/>
	<rect x="130.7" y="87.8" class="st9" width="5.8" height="5.8"/>
	<rect x="136.5" y="87.8" class="st9" width="5.8" height="5.8"/>
	<rect x="142.3" y="87.8" class="st9" width="5.8" height="5.8"/>
	<rect x="148.1" y="87.8" class="st13" width="5.8" height="5.8"/>
	<rect x="153.9" y="87.8" class="st7" width="5.8" height="5.8"/>
	<rect x="159.6" y="87.8" class="st4" width="5.8" height="5.8"/>
	<rect x="165.4" y="87.8" class="st1" width="5.8" height="5.8"/>
	<rect x="171.2" y="87.8" class="st0" width="5.8" height="5.8"/>
	<rect x="15" y="93.6" class="st0" width="5.8" height="5.8"/>
	<rect x="20.8" y="93.6" class="st1" width="5.8" height="5.8"/>
	<rect x="26.6" y="93.6" class="st4" width="5.8" height="5.8"/>
	<rect x="32.4" y="93.6" class="st7" width="5.8" height="5.8"/>
	<rect x="38.1" y="93.6" class="st7" width="5.8" height="5.8"/>
	<rect x="43.9" y="93.6" class="st14" width="5.8" height="5.8"/>
	<rect x="49.7" y="93.6" class="st14" width="5.8" height="5.8"/>
	<rect x="55.5" y="93.6" class="st10" width="5.8" height="5.8"/>
	<rect x="61.3" y="93.6" class="st10" width="5.8" height="5.8"/>
	<rect x="67.1" y="93.6" class="st7" width="5.8" height="5.8"/>
	<rect x="72.9" y="93.6" class="st6" width="5.8" height="5.8"/>
	<rect x="78.6" y="93.6" class="st8" width="5.8" height="5.8"/>
	<rect x="84.4" y="93.6" class="st15" width="5.8" height="5.8"/>
	<rect x="90.2" y="93.6" class="st15" width="5.8" height="5.8"/>
	<rect x="96" y="93.6" class="st15" width="5.8" height="5.8"/>
	<rect x="101.8" y="93.6" class="st15" width="5.8" height="5.8"/>
	<rect x="107.6" y="93.6" class="st15" width="5.8" height="5.8"/>
	<rect x="113.4" y="93.6" class="st16" width="5.8" height="5.8"/>
	<rect x="119.1" y="93.6" class="st12" width="5.8" height="5.8"/>
	<rect x="124.9" y="93.6" class="st9" width="5.8" height="5.8"/>
	<rect x="130.7" y="93.6" class="st13" width="5.8" height="5.8"/>
	<rect x="136.5" y="93.6" class="st13" width="5.8" height="5.8"/>
	<rect x="142.3" y="93.6" class="st13" width="5.8" height="5.8"/>
	<rect x="148.1" y="93.6" class="st7" width="5.8" height="5.8"/>
	<rect x="153.9" y="93.6" class="st7" width="5.8" height="5.8"/>
	<rect x="159.6" y="93.6" class="st4" width="5.8" height="5.8"/>
	<rect x="165.4" y="93.6" class="st1" width="5.8" height="5.8"/>
	<rect x="171.2" y="93.6" class="st0" width="5.8" height="5.8"/>
	<rect x="15" y="99.4" class="st0" width="5.8" height="5.8"/>
	<rect x="20.8" y="99.4" class="st1" width="5.8" height="5.8"/>
	<rect x="26.6" y="99.4" class="st4" width="5.8" height="5.8"/>
	<rect x="32.4" y="99.4" class="st4" width="5.8" height="5.8"/>
	<rect x="38.1" y="99.4" class="st7" width="5.8" height="5.8"/>
	<rect x="43.9" y="99.4" class="st7" width="5.8" height="5.8"/>
	<rect x="49.7" y="99.4" class="st7" width="5.8" height="5.8"/>
	<rect x="55.5" y="99.4" class="st14" width="5.8" height="5.8"/>
	<rect x="61.3" y="99.4" class="st14" width="5.8" height="5.8"/>
	<rect x="67.1" y="99.4" class="st7" width="5.8" height="5.8"/>
	<rect x="72.9" y="99.4" class="st6" width="5.8" height="5.8"/>
	<rect x="78.6" y="99.4" class="st8" width="5.8" height="5.8"/>
	<rect x="84.4" y="99.4" class="st15" width="5.8" height="5.8"/>
	<rect x="90.2" y="99.4" class="st15" width="5.8" height="5.8"/>
	<rect x="96" y="99.4" class="st17" width="5.8" height="5.8"/>
	<rect x="101.8" y="99.4" class="st15" width="5.8" height="5.8"/>
	<rect x="107.6" y="99.4" class="st15" width="5.8" height="5.8"/>
	<rect x="113.4" y="99.4" class="st16" width="5.8" height="5.8"/>
	<rect x="119.1" y="99.4" class="st12" width="5.8" height="5.8"/>
	<rect x="124.9" y="99.4" class="st13" width="5.8" height="5.8"/>
	<rect x="130.7" y="99.4" class="st7" width="5.8" height="5.8"/>
	<rect x="136.5" y="99.4" class="st7" width="5.8" height="5.8"/>
	<rect x="142.3" y="99.4" class="st7" width="5.8" height="5.8"/>
	<rect x="148.1" y="99.4" class="st7" width="5.8" height="5.8"/>
	<rect x="153.9" y="99.4" class="st7" width="5.8" height="5.8"/>
	<rect x="159.6" y="99.4" class="st4" width="5.8" height="5.8"/>
	<rect x="165.4" y="99.4" class="st1" width="5.8" height="5.8"/>
	<rect x="171.2" y="99.4" class="st0" width="5.8" height="5.8"/>
	<rect x="15" y="105.2" class="st0" width="5.8" height="5.8"/>
	<rect x="20.8" y="105.2" class="st1" width="5.8" height="5.8"/>
	<rect x="26.6" y="105.2" class="st4" width="5.8" height="5.8"/>
	<rect x="32.4" y="105.2" class="st7" width="5.8" height="5.8"/>
	<rect x="38.1" y="105.2" class="st4" width="5.8" height="5.8"/>
	<rect x="43.9" y="105.2" class="st7" width="5.8" height="5.8"/>
	<rect x="49.7" y="105.2" class="st4" width="5.8" height="5.8"/>
	<rect x="55.5" y="105.2" class="st7" width="5.8" height="5.8"/>
	<rect x="61.3" y="105.2" class="st7" width="5.8" height="5.8"/>
	<rect x="67.1" y="105.2" class="st7" width="5.8" height="5.8"/>
	<rect x="72.9" y="105.2" class="st6" width="5.8" height="5.8"/>
	<rect x="78.6" y="105.2" class="st8" width="5.8" height="5.8"/>
	<rect x="84.4" y="105.2" class="st15" width="5.8" height="5.8"/>
	<rect x="90.2" y="105.2" class="st15" width="5.8" height="5.8"/>
	<rect x="96" y="105.2" class="st15" width="5.8" height="5.8"/>
	<rect x="101.8" y="105.2" class="st15" width="5.8" height="5.8"/>
	<rect x="107.6" y="105.2" class="st15" width="5.8" height="5.8"/>
	<rect x="113.4" y="105.2" class="st16" width="5.8" height="5.8"/>
	<rect x="119.1" y="105.2" class="st12" width="5.8" height="5.8"/>
	<rect x="124.9" y="105.2" class="st7" width="5.8" height="5.8"/>
	<rect x="130.7" y="105.2" class="st7" width="5.8" height="5.8"/>
	<rect x="136.5" y="105.2" class="st7" width="5.8" height="5.8"/>
	<rect x="142.3" y="105.2" class="st4" width="5.8" height="5.8"/>
	<rect x="148.1" y="105.2" class="st7" width="5.8" height="5.8"/>
	<rect x="153.9" y="105.2" class="st4" width="5.8" height="5.8"/>
	<rect x="159.6" y="105.2" class="st4" width="5.8" height="5.8"/>
	<rect x="165.4" y="105.2" class="st1" width="5.8" height="5.8"/>
	<rect x="171.2" y="105.2" class="st0" width="5.8" height="5.8"/>
	<rect x="15" y="111" class="st0" width="5.8" height="5.8"/>
	<rect x="20.8" y="111" class="st1" width="5.8" height="5.8"/>
	<rect x="26.6" y="111" class="st4" width="5.8" height="5.8"/>
	<rect x="32.4" y="111" class="st4" width="5.8" height="5.8"/>
	<rect x="38.1" y="111" class="st7" width="5.8" height="5.8"/>
	<rect x="43.9" y="111" class="st4" width="5.8" height="5.8"/>
	<rect x="49.7" y="111" class="st7" width="5.8" height="5.8"/>
	<rect x="55.5" y="111" class="st4" width="5.8" height="5.8"/>
	<rect x="61.3" y="111" class="st7" width="5.8" height="5.8"/>
	<rect x="67.1" y="111" class="st4" width="5.8" height="5.8"/>
	<rect x="72.9" y="111" class="st6" width="5.8" height="5.8"/>
	<rect x="78.6" y="111" class="st8" width="5.8" height="5.8"/>
	<rect x="84.4" y="111" class="st5" width="5.8" height="5.8"/>
	<rect x="90.2" y="111" class="st15" width="5.8" height="5.8"/>
	<rect x="96" y="111" class="st15" width="5.8" height="5.8"/>
	<rect x="101.8" y="111" class="st15" width="5.8" height="5.8"/>
	<rect x="107.6" y="111" class="st5" width="5.8" height="5.8"/>
	<rect x="113.4" y="111" class="st16" width="5.8" height="5.8"/>
	<rect x="119.1" y="111" class="st12" width="5.8" height="5.8"/>
	<rect x="124.9" y="111" class="st4" width="5.8" height="5.8"/>
	<rect x="130.7" y="111" class="st7" width="5.8" height="5.8"/>
	<rect x="136.5" y="111" class="st4" width="5.8" height="5.8"/>
	<rect x="142.3" y="111" class="st7" width="5.8" height="5.8"/>
	<rect x="148.1" y="111" class="st4" width="5.8" height="5.8"/>
	<rect x="153.9" y="111" class="st7" width="5.8" height="5.8"/>
	<rect x="159.6" y="111" class="st4" width="5.8" height="5.8"/>
	<rect x="165.4" y="111" class="st1" width="5.8" height="5.8"/>
	<rect x="171.2" y="111" class="st0" width="5.8" height="5.8"/>
	<rect x="15" y="116.8" class="st0" width="5.8" height="5.8"/>
	<rect x="20.8" y="116.8" class="st1" width="5.8" height="5.8"/>
	<rect x="26.6" y="116.8" class="st4" width="5.8" height="5.8"/>
	<rect x="32.4" y="116.8" class="st7" width="5.8" height="5.8"/>
	<rect x="38.1" y="116.8" class="st9" width="5.8" height="5.8"/>
	<rect x="43.9" y="116.8" class="st9" width="5.8" height="5.8"/>
	<rect x="49.7" y="116.8" class="st9" width="5.8" height="5.8"/>
	<rect x="55.5" y="116.8" class="st7" width="5.8" height="5.8"/>
	<rect x="61.3" y="116.8" class="st4" width="5.8" height="5.8"/>
	<rect x="67.1" y="116.8" class="st7" width="5.8" height="5.8"/>
	<rect x="72.9" y="116.8" class="st6" width="5.8" height="5.8"/>
	<rect x="78.6" y="116.8" class="st8" width="5.8" height="5.8"/>
	<rect x="84.4" y="116.8" class="st16" width="5.8" height="5.8"/>
	<rect x="90.2" y="116.8" class="st5" width="5.8" height="5.8"/>
	<rect x="96" y="116.8" class="st15" width="5.8" height="5.8"/>
	<rect x="101.8" y="116.8" class="st5" width="5.8" height="5.8"/>
	<rect x="107.6" y="116.8" class="st16" width="5.8" height="5.8"/>
	<rect x="113.4" y="116.8" class="st18" width="5.8" height="5.8"/>
	<rect x="119.1" y="116.8" class="st6" width="5.8" height="5.8"/>
	<rect x="124.9" y="116.8" class="st7" width="5.8" height="5.8"/>
	<rect x="130.7" y="116.8" class="st4" width="5.8" height="5.8"/>
	<rect x="136.5" y="116.8" class="st7" width="5.8" height="5.8"/>
	<rect x="142.3" y="116.8" class="st4" width="5.8" height="5.8"/>
	<rect x="148.1" y="116.8" class="st7" width="5.8" height="5.8"/>
	<rect x="153.9" y="116.8" class="st4" width="5.8" height="5.8"/>
	<rect x="159.6" y="116.8" class="st4" width="5.8" height="5.8"/>
	<rect x="165.4" y="116.8" class="st1" width="5.8" height="5.8"/>
	<rect x="171.2" y="116.8" class="st0" width="5.8" height="5.8"/>
	<rect x="15" y="122.5" class="st0" width="5.8" height="5.8"/>
	<rect x="20.8" y="122.5" class="st1" width="5.8" height="5.8"/>
	<rect x="26.6" y="122.5" class="st4" width="5.8" height="5.8"/>
	<rect x="32.4" y="122.5" class="st4" width="5.8" height="5.8"/>
	<rect x="38.1" y="122.5" class="st13" width="5.8" height="5.8"/>
	<rect x="43.9" y="122.5" class="st9" width="5.8" height="5.8"/>
	<rect x="49.7" y="122.5" class="st9" width="5.8" height="5.8"/>
	<rect x="55.5" y="122.5" class="st9" width="5.8" height="5.8"/>
	<rect x="61.3" y="122.5" class="st9" width="5.8" height="5.8"/>
	<rect x="67.1" y="122.5" class="st7" width="5.8" height="5.8"/>
	<rect x="72.9" y="122.5" class="st6" width="5.8" height="5.8"/>
	<rect x="78.6" y="122.5" class="st16" width="5.8" height="5.8"/>
	<rect x="84.4" y="122.5" class="st16" width="5.8" height="5.8"/>
	<rect x="90.2" y="122.5" class="st16" width="5.8" height="5.8"/>
	<rect x="96" y="122.5" class="st5" width="5.8" height="5.8"/>
	<rect x="101.8" y="122.5" class="st16" width="5.8" height="5.8"/>
	<rect x="107.6" y="122.5" class="st18" width="5.8" height="5.8"/>
	<rect x="113.4" y="122.5" class="st8" width="5.8" height="5.8"/>
	<rect x="119.1" y="122.5" class="st6" width="5.8" height="5.8"/>
	<rect x="124.9" y="122.5" class="st4" width="5.8" height="5.8"/>
	<rect x="130.7" y="122.5" class="st7" width="5.8" height="5.8"/>
	<rect x="136.5" y="122.5" class="st4" width="5.8" height="5.8"/>
	<rect x="142.3" y="122.5" class="st7" width="5.8" height="5.8"/>
	<rect x="148.1" y="122.5" class="st4" width="5.8" height="5.8"/>
	<rect x="153.9" y="122.5" class="st7" width="5.8" height="5.8"/>
	<rect x="159.6" y="122.5" class="st4" width="5.8" height="5.8"/>
	<rect x="165.4" y="122.5" class="st1" width="5.8" height="5.8"/>
	<rect x="171.2" y="122.5" class="st0" width="5.8" height="5.8"/>
	<rect x="15" y="128.3" class="st0" width="5.8" height="5.8"/>
	<rect x="20.8" y="128.3" class="st1" width="5.8" height="5.8"/>
	<rect x="26.6" y="128.3" class="st4" width="5.8" height="5.8"/>
	<rect x="32.4" y="128.3" class="st7" width="5.8" height="5.8"/>
	<rect x="38.1" y="128.3" class="st7" width="5.8" height="5.8"/>
	<rect x="43.9" y="128.3" class="st13" width="5.8" height="5.8"/>
	<rect x="49.7" y="128.3" class="st13" width="5.8" height="5.8"/>
	<rect x="55.5" y="128.3" class="st9" width="5.8" height="5.8"/>
	<rect x="61.3" y="128.3" class="st9" width="5.8" height="5.8"/>
	<rect x="67.1" y="128.3" class="st9" width="5.8" height="5.8"/>
	<rect x="72.9" y="128.3" class="st12" width="5.8" height="5.8"/>
	<rect x="78.6" y="128.3" class="st16" width="5.8" height="5.8"/>
	<rect x="84.4" y="128.3" class="st16" width="5.8" height="5.8"/>
	<rect x="90.2" y="128.3" class="st16" width="5.8" height="5.8"/>
	<rect x="96" y="128.3" class="st16" width="5.8" height="5.8"/>
	<rect x="101.8" y="128.3" class="st18" width="5.8" height="5.8"/>
	<rect x="107.6" y="128.3" class="st8" width="5.8" height="5.8"/>
	<rect x="113.4" y="128.3" class="st8" width="5.8" height="5.8"/>
	<rect x="119.1" y="128.3" class="st6" width="5.8" height="5.8"/>
	<rect x="124.9" y="128.3" class="st7" width="5.8" height="5.8"/>
	<rect x="130.7" y="128.3" class="st4" width="5.8" height="5.8"/>
	<rect x="136.5" y="128.3" class="st7" width="5.8" height="5.8"/>
	<rect x="142.3" y="128.3" class="st4" width="5.8" height="5.8"/>
	<rect x="148.1" y="128.3" class="st7" width="5.8" height="5.8"/>
	<rect x="153.9" y="128.3" class="st4" width="5.8" height="5.8"/>
	<rect x="159.6" y="128.3" class="st4" width="5.8" height="5.8"/>
	<rect x="165.4" y="128.3" class="st1" width="5.8" height="5.8"/>
	<rect x="171.2" y="128.3" class="st0" width="5.8" height="5.8"/>
	<rect x="15" y="134.1" class="st0" width="5.8" height="5.8"/>
	<rect x="20.8" y="134.1" class="st1" width="5.8" height="5.8"/>
	<rect x="26.6" y="134.1" class="st4" width="5.8" height="5.8"/>
	<rect x="32.4" y="134.1" class="st4" width="5.8" height="5.8"/>
	<rect x="38.1" y="134.1" class="st7" width="5.8" height="5.8"/>
	<rect x="43.9" y="134.1" class="st4" width="5.8" height="5.8"/>
	<rect x="49.7" y="134.1" class="st7" width="5.8" height="5.8"/>
	<rect x="55.5" y="134.1" class="st13" width="5.8" height="5.8"/>
	<rect x="61.3" y="134.1" class="st13" width="5.8" height="5.8"/>
	<rect x="67.1" y="134.1" class="st9" width="5.8" height="5.8"/>
	<rect x="72.9" y="134.1" class="st12" width="5.8" height="5.8"/>
	<rect x="78.6" y="134.1" class="st18" width="5.8" height="5.8"/>
	<rect x="84.4" y="134.1" class="st18" width="5.8" height="5.8"/>
	<rect x="90.2" y="134.1" class="st18" width="5.8" height="5.8"/>
	<rect x="96" y="134.1" class="st18" width="5.8" height="5.8"/>
	<rect x="101.8" y="134.1" class="st8" width="5.8" height="5.8"/>
	<rect x="107.6" y="134.1" class="st5" width="5.8" height="5.8"/>
	<rect x="113.4" y="134.1" class="st5" width="5.8" height="5.8"/>
	<rect x="119.1" y="134.1" class="st3" width="5.8" height="5.8"/>
	<rect x="124.9" y="134.1" class="st4" width="5.8" height="5.8"/>
	<rect x="130.7" y="134.1" class="st7" width="5.8" height="5.8"/>
	<rect x="136.5" y="134.1" class="st4" width="5.8" height="5.8"/>
	<rect x="142.3" y="134.1" class="st7" width="5.8" height="5.8"/>
	<rect x="148.1" y="134.1" class="st4" width="5.8" height="5.8"/>
	<rect x="153.9" y="134.1" class="st7" width="5.8" height="5.8"/>
	<rect x="159.6" y="134.1" class="st4" width="5.8" height="5.8"/>
	<rect x="165.4" y="134.1" class="st1" width="5.8" height="5.8"/>
	<rect x="171.2" y="134.1" class="st0" width="5.8" height="5.8"/>
	<rect x="15" y="139.9" class="st0" width="5.8" height="5.8"/>
	<rect x="20.8" y="139.9" class="st1" width="5.8" height="5.8"/>
	<rect x="26.6" y="139.9" class="st1" width="5.8" height="5.8"/>
	<rect x="32.4" y="139.9" class="st4" width="5.8" height="5.8"/>
	<rect x="38.1" y="139.9" class="st4" width="5.8" height="5.8"/>
	<rect x="43.9" y="139.9" class="st7" width="5.8" height="5.8"/>
	<rect x="49.7" y="139.9" class="st7" width="5.8" height="5.8"/>
	<rect x="55.5" y="139.9" class="st4" width="5.8" height="5.8"/>
	<rect x="61.3" y="139.9" class="st7" width="5.8" height="5.8"/>
	<rect x="67.1" y="139.9" class="st13" width="5.8" height="5.8"/>
	<rect x="72.9" y="139.9" class="st12" width="5.8" height="5.8"/>
	<rect x="78.6" y="139.9" class="st8" width="5.8" height="5.8"/>
	<rect x="84.4" y="139.9" class="st8" width="5.8" height="5.8"/>
	<rect x="90.2" y="139.9" class="st8" width="5.8" height="5.8"/>
	<rect x="96" y="139.9" class="st5" width="5.8" height="5.8"/>
	<rect x="101.8" y="139.9" class="st5" width="5.8" height="5.8"/>
	<rect x="107.6" y="139.9" class="st2" width="5.8" height="5.8"/>
	<rect x="113.4" y="139.9" class="st2" width="5.8" height="5.8"/>
	<rect x="119.1" y="139.9" class="st2" width="5.8" height="5.8"/>
	<rect x="124.9" y="139.9" class="st3" width="5.8" height="5.8"/>
	<rect x="130.7" y="139.9" class="st4" width="5.8" height="5.8"/>
	<rect x="136.5" y="139.9" class="st4" width="5.8" height="5.8"/>
	<rect x="142.3" y="139.9" class="st4" width="5.8" height="5.8"/>
	<rect x="148.1" y="139.9" class="st7" width="5.8" height="5.8"/>
	<rect x="153.9" y="139.9" class="st4" width="5.8" height="5.8"/>
	<rect x="159.6" y="139.9" class="st4" width="5.8" height="5.8"/>
	<rect x="165.4" y="139.9" class="st1" width="5.8" height="5.8"/>
	<rect x="171.2" y="139.9" class="st0" width="5.8" height="5.8"/>
	<rect x="20.8" y="145.7" class="st0" width="5.8" height="5.8"/>
	<rect x="26.6" y="145.7" class="st0" width="5.8" height="5.8"/>
	<rect x="32.4" y="145.7" class="st1" width="5.8" height="5.8"/>
	<rect x="38.1" y="145.7" class="st3" width="5.8" height="5.8"/>
	<rect x="43.9" y="145.7" class="st4" width="5.8" height="5.8"/>
	<rect x="49.7" y="145.7" class="st4" width="5.8" height="5.8"/>
	<rect x="55.5" y="145.7" class="st7" width="5.8" height="5.8"/>
	<rect x="61.3" y="145.7" class="st7" width="5.8" height="5.8"/>
	<rect x="67.1" y="145.7" class="st4" width="5.8" height="5.8"/>
	<rect x="72.9" y="145.7" class="st6" width="5.8" height="5.8"/>
	<rect x="78.6" y="145.7" class="st8" width="5.8" height="5.8"/>
	<rect x="84.4" y="145.7" class="st5" width="5.8" height="5.8"/>
	<rect x="90.2" y="145.7" class="st5" width="5.8" height="5.8"/>
	<rect x="96" y="145.7" class="st2" width="5.8" height="5.8"/>
	<rect x="101.8" y="145.7" class="st2" width="5.8" height="5.8"/>
	<rect x="107.6" y="145.7" class="st0" width="5.8" height="5.8"/>
	<rect x="113.4" y="145.7" class="st0" width="5.8" height="5.8"/>
	<rect x="119.1" y="145.7" class="st0" width="5.8" height="5.8"/>
	<rect x="124.9" y="145.7" class="st0" width="5.8" height="5.8"/>
	<rect x="130.7" y="145.7" class="st3" width="5.8" height="5.8"/>
	<rect x="136.5" y="145.7" class="st1" width="5.8" height="5.8"/>
	<rect x="142.3" y="145.7" class="st4" width="5.8" height="5.8"/>
	<rect x="148.1" y="145.7" class="st4" width="5.8" height="5.8"/>
	<rect x="153.9" y="145.7" class="st7" width="5.8" height="5.8"/>
	<rect x="159.6" y="145.7" class="st4" width="5.8" height="5.8"/>
	<rect x="165.4" y="145.7" class="st1" width="5.8" height="5.8"/>
	<rect x="171.2" y="145.7" class="st0" width="5.8" height="5.8"/>
	<rect x="32.4" y="151.5" class="st0" width="5.8" height="5.8"/>
	<rect x="38.1" y="151.5" class="st0" width="5.8" height="5.8"/>
	<rect x="43.9" y="151.5" class="st1" width="5.8" height="5.8"/>
	<rect x="49.7" y="151.5" class="st3" width="5.8" height="5.8"/>
	<rect x="55.5" y="151.5" class="st4" width="5.8" height="5.8"/>
	<rect x="61.3" y="151.5" class="st4" width="5.8" height="5.8"/>
	<rect x="67.1" y="151.5" class="st4" width="5.8" height="5.8"/>
	<rect x="72.9" y="151.5" class="st3" width="5.8" height="5.8"/>
	<rect x="78.6" y="151.5" class="st5" width="5.8" height="5.8"/>
	<rect x="84.4" y="151.5" class="st2" width="5.8" height="5.8"/>
	<rect x="90.2" y="151.5" class="st2" width="5.8" height="5.8"/>
	<rect x="96" y="151.5" class="st0" width="5.8" height="5.8"/>
	<rect x="101.8" y="151.5" class="st0" width="5.8" height="5.8"/>
	<rect x="130.7" y="151.5" class="st0" width="5.8" height="5.8"/>
	<rect x="136.5" y="151.5" class="st0" width="5.8" height="5.8"/>
	<rect x="142.3" y="151.5" class="st3" width="5.8" height="5.8"/>
	<rect x="148.1" y="151.5" class="st1" width="5.8" height="5.8"/>
	<rect x="153.9" y="151.5" class="st4" width="5.8" height="5.8"/>
	<rect x="159.6" y="151.5" class="st4" width="5.8" height="5.8"/>
	<rect x="165.4" y="151.5" class="st1" width="5.8" height="5.8"/>
	<rect x="171.2" y="151.5" class="st0" width="5.8" height="5.8"/>
	<rect x="43.9" y="157.2" class="st0" width="5.8" height="5.8"/>
	<rect x="49.7" y="157.2" class="st0" width="5.8" height="5.8"/>
	<rect x="55.5" y="157.2" class="st1" width="5.8" height="5.8"/>
	<rect x="61.3" y="157.2" class="st3" width="5.8" height="5.8"/>
	<rect x="67.1" y="157.2" class="st3" width="5.8" height="5.8"/>
	<rect x="72.9" y="157.2" class="st2" width="5.8" height="5.8"/>
	<rect x="78.6" y="157.2" class="st2" width="5.8" height="5.8"/>
	<rect x="84.4" y="157.2" class="st0" width="5.8" height="5.8"/>
	<rect x="90.2" y="157.2" class="st0" width="5.8" height="5.8"/>
	<rect x="142.3" y="157.2" class="st0" width="5.8" height="5.8"/>
	<rect x="148.1" y="157.2" class="st0" width="5.8" height="5.8"/>
	<rect x="153.9" y="157.2" class="st3" width="5.8" height="5.8"/>
	<rect x="159.6" y="157.2" class="st1" width="5.8" height="5.8"/>
	<rect x="165.4" y="157.2" class="st1" width="5.8" height="5.8"/>
	<rect x="171.2" y="157.2" class="st0" width="5.8" height="5.8"/>
	<rect x="55.5" y="163" class="st0" width="5.8" height="5.8"/>
	<rect x="61.3" y="163" class="st0" width="5.8" height="5.8"/>
	<rect x="67.1" y="163" class="st0" width="5.8" height="5.8"/>
	<rect x="72.9" y="163" class="st0" width="5.8" height="5.8"/>
	<rect x="78.6" y="163" class="st0" width="5.8" height="5.8"/>
	<rect x="153.9" y="163" class="st0" width="5.8" height="5.8"/>
	<rect x="159.6" y="163" class="st0" width="5.8" height="5.8"/>
	<rect x="165.4" y="163" class="st0" width="5.8" height="5.8"/>
</g>
</svg>
