<?xml version="1.0" encoding="UTF-8"?><svg id="Layer_1" xmlns="http://www.w3.org/2000/svg" viewBox="0 0 500 430"><defs><style>.cls-1,.cls-2{stroke:#914938;stroke-miterlimit:10;stroke-width:2px;}.cls-1,.cls-3{fill:#914938;}.cls-4{fill:#f4ebd4;font-family:Roboto-Bold, Roboto;font-size:20.36px;font-weight:700;}.cls-2{fill:none;}.cls-3{stroke-width:0px;}</style></defs><path class="cls-3" d="m333.7,65.78c-.72,3.24-4.68,4.68-9.36,5.4-3.96,24.84-9,48.6-14.76,69.84,63,11.88,97.92,57.6,97.92,113.04,0,64.08-48.6,105.12-139.68,118.08-3.6-7.56-7.56-15.48-11.52-21.96,79.56-10.44,124.92-42.84,124.92-95.4,0-43.56-27.72-80.28-78.84-90-16.92,55.44-39.96,98.28-65.16,128.16,4.68,6.48,10.8,12.24,16.56,17.64l-18.36,17.64c-5.4-5.4-10.44-11.16-15.48-17.64-23.4,22.32-48.96,33.48-73.08,33.48-31.68,0-51.12-27-51.12-66.24,0-48.96,27-86.76,63.36-110.52-6.84-27.36-12.6-57.24-17.64-89.64l34.56-.72c-.36,3.24-2.52,6.84-7.56,7.92,3.6,24.84,7.56,48.96,12.6,71.28,39.6-19.8,77.76-19.8,93.96-19.8,2.88,0,6.12,0,8.64.36,5.76-23.76,10.8-50.4,14.4-78.84l35.64,7.92Zm-127.44,225.72c-16.2-26.28-29.52-59.76-40.32-99.72-22.68,15.84-46.44,44.28-46.44,84.24,0,25.56,9.72,43.92,29.16,43.92,22.32,0,41.4-12.96,57.6-28.44Zm16.2-19.8c21.6-26.28,40.32-63,54.72-111.6-3.96-.36-8.64-.36-12.6-.36-27.72.36-54.72,6.48-78.12,19.44,9.36,36,20.88,68.04,36,92.52Z"/><path class="cls-2" d="m130.53,101.9s20.41,106.62,32.39,125.73"/><path class="cls-2" d="m332.78,101.9s-20.81,101.83-51.18,146.43"/><path class="cls-2" d="m105.5,337.58s-33.2-17.04-23.76-79.72"/><path class="cls-2" d="m418.84,224.99s21.35,64.68-28.14,104.84"/><polygon class="cls-1" points="158.69 217.49 163.1 215.73 163.08 222.05 163.05 228.37 158.67 223.82 154.28 219.26 158.69 217.49"/><polygon class="cls-1" points="283.95 244.81 287.67 247.75 282.18 250.88 276.68 254.01 278.45 247.94 280.22 241.86 283.95 244.81"/><polygon class="cls-1" points="81.26 261.34 76.58 260.52 79.93 255.16 83.28 249.8 84.61 255.98 85.94 262.16 81.26 261.34"/><polygon class="cls-1" points="393.12 328.39 395.34 332.59 389.05 333.23 382.76 333.87 386.83 329.03 390.9 324.19 393.12 328.39"/><circle class="cls-1" cx="104.34" cy="88.24" r="16.1"/><text class="cls-4" transform="translate(98.5 95.55)"><tspan x="0" y="0">1</tspan></text><circle class="cls-1" cx="361.09" cy="92.71" r="16.1"/><text class="cls-4" transform="translate(355.25 100.01)"><tspan x="0" y="0">2</tspan></text></svg>