<?xml version="1.0" encoding="utf-8"?>
<!-- Generator: Adobe Illustrator 27.9.0, SVG Export Plug-In . SVG Version: 6.00 Build 0)  -->
<svg version="1.1" id="Layer_1" shape-rendering="crispEdges"
	 xmlns="http://www.w3.org/2000/svg" xmlns:xlink="http://www.w3.org/1999/xlink" x="0px" y="0px" viewBox="0 0 192 192"
	 style="enable-background:new 0 0 192 192;" xml:space="preserve">
<style type="text/css">
	.st0{fill:#EB97A7;}
	.st1{fill:#D66032;}
	.st2{fill:#914938;}
	.st3{fill:#7D3D2E;}
	.st4{fill:#ED9392;}
	.st5{fill:#FCC7C0;}
	.st6{fill:#F1B5AE;}
	.st7{fill:#AA3963;}
	.st8{fill:#793728;}
	.st9{fill:#A82839;}
	.st10{fill:#E2574A;}
	.st11{fill:#E77F62;}
	.st12{fill:#C33C4A;}
	.st13{fill:#E36C74;}
	.st14{fill:#D94F5D;}
	.st15{fill:#CD694F;}
	.st16{fill:#E17557;}
	.st17{fill:#F59479;}
	.st18{fill:#EA623D;}
</style>
<g>
	<rect x="64" y="26.5" class="st0" width="6.4" height="6.4"/>
	<rect x="70.4" y="26.5" class="st0" width="6.4" height="6.4"/>
	<rect x="76.8" y="26.5" class="st0" width="6.4" height="6.4"/>
	<rect x="83.2" y="26.5" class="st0" width="6.4" height="6.4"/>
	<rect x="89.6" y="26.5" class="st0" width="6.4" height="6.4"/>
	<rect x="51.2" y="32.9" class="st0" width="6.4" height="6.4"/>
	<rect x="57.6" y="32.9" class="st0" width="6.4" height="6.4"/>
	<rect x="64" y="32.9" class="st1" width="6.4" height="6.4"/>
	<rect x="70.4" y="32.9" class="st1" width="6.4" height="6.4"/>
	<rect x="76.8" y="32.9" class="st1" width="6.4" height="6.4"/>
	<rect x="83.2" y="32.9" class="st2" width="6.4" height="6.4"/>
	<rect x="89.6" y="32.9" class="st3" width="6.4" height="6.4"/>
	<rect x="96" y="32.9" class="st0" width="6.4" height="6.4"/>
	<rect x="102.4" y="32.9" class="st0" width="6.4" height="6.4"/>
	<rect x="44.8" y="39.4" class="st0" width="6.4" height="6.4"/>
	<rect x="51.2" y="39.4" class="st1" width="6.4" height="6.4"/>
	<rect x="57.6" y="39.4" class="st2" width="6.4" height="6.4"/>
	<rect x="64" y="39.4" class="st4" width="6.4" height="6.4"/>
	<rect x="70.4" y="39.4" class="st4" width="6.4" height="6.4"/>
	<rect x="76.8" y="39.4" class="st5" width="6.4" height="6.4"/>
	<rect x="83.2" y="39.4" class="st5" width="6.4" height="6.4"/>
	<rect x="89.6" y="39.4" class="st6" width="6.4" height="6.4"/>
	<rect x="96" y="39.4" class="st7" width="6.4" height="6.4"/>
	<rect x="102.4" y="39.4" class="st7" width="6.4" height="6.4"/>
	<rect x="108.8" y="39.4" class="st0" width="6.4" height="6.4"/>
	<rect x="115.2" y="39.4" class="st0" width="6.4" height="6.4"/>
	<rect x="38.4" y="45.8" class="st0" width="6.4" height="6.4"/>
	<rect x="44.8" y="45.8" class="st2" width="6.4" height="6.4"/>
	<rect x="51.2" y="45.8" class="st4" width="6.4" height="6.4"/>
	<rect x="57.6" y="45.8" class="st4" width="6.4" height="6.4"/>
	<rect x="64" y="45.8" class="st5" width="6.4" height="6.4"/>
	<rect x="70.4" y="45.8" class="st5" width="6.4" height="6.4"/>
	<rect x="76.8" y="45.8" class="st5" width="6.4" height="6.4"/>
	<rect x="83.2" y="45.8" class="st6" width="6.4" height="6.4"/>
	<rect x="89.6" y="45.8" class="st6" width="6.4" height="6.4"/>
	<rect x="96" y="45.8" class="st4" width="6.4" height="6.4"/>
	<rect x="102.4" y="45.8" class="st4" width="6.4" height="6.4"/>
	<rect x="108.8" y="45.8" class="st8" width="6.4" height="6.4"/>
	<rect x="115.2" y="45.8" class="st7" width="6.4" height="6.4"/>
	<rect x="121.6" y="45.8" class="st0" width="6.4" height="6.4"/>
	<rect x="31.9" y="52.2" class="st0" width="6.4" height="6.4"/>
	<rect x="38.4" y="52.2" class="st1" width="6.4" height="6.4"/>
	<rect x="44.8" y="52.2" class="st4" width="6.4" height="6.4"/>
	<rect x="51.2" y="52.2" class="st5" width="6.4" height="6.4"/>
	<rect x="57.6" y="52.2" class="st5" width="6.4" height="6.4"/>
	<rect x="64" y="52.2" class="st9" width="6.4" height="6.4"/>
	<rect x="70.4" y="52.2" class="st9" width="6.4" height="6.4"/>
	<rect x="76.8" y="52.2" class="st9" width="6.4" height="6.4"/>
	<rect x="83.2" y="52.2" class="st9" width="6.4" height="6.4"/>
	<rect x="89.6" y="52.2" class="st6" width="6.4" height="6.4"/>
	<rect x="96" y="52.2" class="st6" width="6.4" height="6.4"/>
	<rect x="102.4" y="52.2" class="st4" width="6.4" height="6.4"/>
	<rect x="108.8" y="52.2" class="st4" width="6.4" height="6.4"/>
	<rect x="115.2" y="52.2" class="st4" width="6.4" height="6.4"/>
	<rect x="121.6" y="52.2" class="st7" width="6.4" height="6.4"/>
	<rect x="128" y="52.2" class="st0" width="6.4" height="6.4"/>
	<rect x="134.4" y="52.2" class="st0" width="6.4" height="6.4"/>
	<rect x="25.5" y="58.6" class="st0" width="6.4" height="6.4"/>
	<rect x="31.9" y="58.6" class="st1" width="6.4" height="6.4"/>
	<rect x="38.4" y="58.6" class="st4" width="6.4" height="6.4"/>
	<rect x="44.8" y="58.6" class="st5" width="6.4" height="6.4"/>
	<rect x="51.2" y="58.6" class="st9" width="6.4" height="6.4"/>
	<rect x="57.6" y="58.6" class="st9" width="6.4" height="6.4"/>
	<rect x="64" y="58.6" class="st10" width="6.4" height="6.4"/>
	<rect x="70.4" y="58.6" class="st10" width="6.4" height="6.4"/>
	<rect x="76.8" y="58.6" class="st11" width="6.4" height="6.4"/>
	<rect x="83.2" y="58.6" class="st10" width="6.4" height="6.4"/>
	<rect x="89.6" y="58.6" class="st12" width="6.4" height="6.4"/>
	<rect x="96" y="58.6" class="st12" width="6.4" height="6.4"/>
	<rect x="102.4" y="58.6" class="st9" width="6.4" height="6.4"/>
	<rect x="108.8" y="58.6" class="st9" width="6.4" height="6.4"/>
	<rect x="115.2" y="58.6" class="st4" width="6.4" height="6.4"/>
	<rect x="121.6" y="58.6" class="st4" width="6.4" height="6.4"/>
	<rect x="128" y="58.6" class="st7" width="6.4" height="6.4"/>
	<rect x="134.4" y="58.6" class="st7" width="6.4" height="6.4"/>
	<rect x="140.8" y="58.6" class="st0" width="6.4" height="6.4"/>
	<rect x="19.1" y="65" class="st0" width="6.4" height="6.4"/>
	<rect x="25.5" y="65" class="st2" width="6.4" height="6.4"/>
	<rect x="31.9" y="65" class="st4" width="6.4" height="6.4"/>
	<rect x="38.4" y="65" class="st5" width="6.4" height="6.4"/>
	<rect x="44.8" y="65" class="st9" width="6.4" height="6.4"/>
	<rect x="51.2" y="65" class="st10" width="6.4" height="6.4"/>
	<rect x="57.6" y="65" class="st10" width="6.4" height="6.4"/>
	<rect x="64" y="65" class="st10" width="6.4" height="6.4"/>
	<rect x="70.4" y="65" class="st10" width="6.4" height="6.4"/>
	<rect x="76.8" y="65" class="st10" width="6.4" height="6.4"/>
	<rect x="83.2" y="65" class="st11" width="6.4" height="6.4"/>
	<rect x="89.6" y="65" class="st10" width="6.4" height="6.4"/>
	<rect x="96" y="65" class="st12" width="6.4" height="6.4"/>
	<rect x="102.4" y="65" class="st12" width="6.4" height="6.4"/>
	<rect x="108.8" y="65" class="st9" width="6.4" height="6.4"/>
	<rect x="115.2" y="65" class="st9" width="6.4" height="6.4"/>
	<rect x="121.6" y="65" class="st4" width="6.4" height="6.4"/>
	<rect x="128" y="65" class="st4" width="6.4" height="6.4"/>
	<rect x="134.4" y="65" class="st13" width="6.4" height="6.4"/>
	<rect x="140.8" y="65" class="st7" width="6.4" height="6.4"/>
	<rect x="147.2" y="65" class="st0" width="6.4" height="6.4"/>
	<rect x="19.1" y="71.4" class="st0" width="6.4" height="6.4"/>
	<rect x="25.5" y="71.4" class="st1" width="6.4" height="6.4"/>
	<rect x="31.9" y="71.4" class="st4" width="6.4" height="6.4"/>
	<rect x="38.4" y="71.4" class="st5" width="6.4" height="6.4"/>
	<rect x="44.8" y="71.4" class="st10" width="6.4" height="6.4"/>
	<rect x="51.2" y="71.4" class="st10" width="6.4" height="6.4"/>
	<rect x="57.6" y="71.4" class="st11" width="6.4" height="6.4"/>
	<rect x="64" y="71.4" class="st10" width="6.4" height="6.4"/>
	<rect x="70.4" y="71.4" class="st10" width="6.4" height="6.4"/>
	<rect x="76.8" y="71.4" class="st10" width="6.4" height="6.4"/>
	<rect x="83.2" y="71.4" class="st10" width="6.4" height="6.4"/>
	<rect x="89.6" y="71.4" class="st10" width="6.4" height="6.4"/>
	<rect x="96" y="71.4" class="st10" width="6.4" height="6.4"/>
	<rect x="102.4" y="71.4" class="st12" width="6.4" height="6.4"/>
	<rect x="108.8" y="71.4" class="st9" width="6.4" height="6.4"/>
	<rect x="115.2" y="71.4" class="st9" width="6.4" height="6.4"/>
	<rect x="121.6" y="71.4" class="st9" width="6.4" height="6.4"/>
	<rect x="128" y="71.4" class="st4" width="6.4" height="6.4"/>
	<rect x="134.4" y="71.4" class="st13" width="6.4" height="6.4"/>
	<rect x="140.8" y="71.4" class="st13" width="6.4" height="6.4"/>
	<rect x="147.2" y="71.4" class="st8" width="6.4" height="6.4"/>
	<rect x="153.6" y="71.4" class="st0" width="6.4" height="6.4"/>
	<rect x="19.1" y="77.8" class="st0" width="6.4" height="6.4"/>
	<rect x="25.5" y="77.8" class="st1" width="6.4" height="6.4"/>
	<rect x="31.9" y="77.8" class="st4" width="6.4" height="6.4"/>
	<rect x="38.4" y="77.8" class="st5" width="6.4" height="6.4"/>
	<rect x="44.8" y="77.8" class="st10" width="6.4" height="6.4"/>
	<rect x="51.2" y="77.8" class="st10" width="6.4" height="6.4"/>
	<rect x="57.6" y="77.8" class="st11" width="6.4" height="6.4"/>
	<rect x="64" y="77.8" class="st11" width="6.4" height="6.4"/>
	<rect x="70.4" y="77.8" class="st10" width="6.4" height="6.4"/>
	<rect x="76.8" y="77.8" class="st10" width="6.4" height="6.4"/>
	<rect x="83.2" y="77.8" class="st10" width="6.4" height="6.4"/>
	<rect x="89.6" y="77.8" class="st10" width="6.4" height="6.4"/>
	<rect x="96" y="77.8" class="st10" width="6.4" height="6.4"/>
	<rect x="102.4" y="77.8" class="st12" width="6.4" height="6.4"/>
	<rect x="108.8" y="77.8" class="st12" width="6.4" height="6.4"/>
	<rect x="115.2" y="77.8" class="st9" width="6.4" height="6.4"/>
	<rect x="121.6" y="77.8" class="st9" width="6.4" height="6.4"/>
	<rect x="128" y="77.8" class="st9" width="6.4" height="6.4"/>
	<rect x="134.4" y="77.8" class="st4" width="6.4" height="6.4"/>
	<rect x="140.8" y="77.8" class="st14" width="6.4" height="6.4"/>
	<rect x="147.2" y="77.8" class="st13" width="6.4" height="6.4"/>
	<rect x="153.6" y="77.8" class="st7" width="6.4" height="6.4"/>
	<rect x="160.1" y="77.8" class="st0" width="6.4" height="6.4"/>
	<rect x="19.1" y="84.2" class="st0" width="6.4" height="6.4"/>
	<rect x="25.5" y="84.2" class="st1" width="6.4" height="6.4"/>
	<rect x="31.9" y="84.2" class="st4" width="6.4" height="6.4"/>
	<rect x="38.4" y="84.2" class="st5" width="6.4" height="6.4"/>
	<rect x="44.8" y="84.2" class="st10" width="6.4" height="6.4"/>
	<rect x="51.2" y="84.2" class="st10" width="6.4" height="6.4"/>
	<rect x="57.6" y="84.2" class="st10" width="6.4" height="6.4"/>
	<rect x="64" y="84.2" class="st11" width="6.4" height="6.4"/>
	<rect x="70.4" y="84.2" class="st11" width="6.4" height="6.4"/>
	<rect x="76.8" y="84.2" class="st10" width="6.4" height="6.4"/>
	<rect x="83.2" y="84.2" class="st5" width="6.4" height="6.4"/>
	<rect x="89.6" y="84.2" class="st10" width="6.4" height="6.4"/>
	<rect x="96" y="84.2" class="st10" width="6.4" height="6.4"/>
	<rect x="102.4" y="84.2" class="st12" width="6.4" height="6.4"/>
	<rect x="108.8" y="84.2" class="st12" width="6.4" height="6.4"/>
	<rect x="115.2" y="84.2" class="st9" width="6.4" height="6.4"/>
	<rect x="121.6" y="84.2" class="st9" width="6.4" height="6.4"/>
	<rect x="128" y="84.2" class="st9" width="6.4" height="6.4"/>
	<rect x="134.4" y="84.2" class="st4" width="6.4" height="6.4"/>
	<rect x="140.8" y="84.2" class="st14" width="6.4" height="6.4"/>
	<rect x="147.2" y="84.2" class="st14" width="6.4" height="6.4"/>
	<rect x="153.6" y="84.2" class="st7" width="6.4" height="6.4"/>
	<rect x="160.1" y="84.2" class="st0" width="6.4" height="6.4"/>
	<rect x="19.1" y="90.6" class="st0" width="6.4" height="6.4"/>
	<rect x="25.5" y="90.6" class="st1" width="6.4" height="6.4"/>
	<rect x="31.9" y="90.6" class="st4" width="6.4" height="6.4"/>
	<rect x="38.4" y="90.6" class="st5" width="6.4" height="6.4"/>
	<rect x="44.8" y="90.6" class="st10" width="6.4" height="6.4"/>
	<rect x="51.2" y="90.6" class="st10" width="6.4" height="6.4"/>
	<rect x="57.6" y="90.6" class="st11" width="6.4" height="6.4"/>
	<rect x="64" y="90.6" class="st10" width="6.4" height="6.4"/>
	<rect x="70.4" y="90.6" class="st10" width="6.4" height="6.4"/>
	<rect x="76.8" y="90.6" class="st10" width="6.4" height="6.4"/>
	<rect x="83.2" y="90.6" class="st10" width="6.4" height="6.4"/>
	<rect x="89.6" y="90.6" class="st5" width="6.4" height="6.4"/>
	<rect x="96" y="90.6" class="st10" width="6.4" height="6.4"/>
	<rect x="102.4" y="90.6" class="st12" width="6.4" height="6.4"/>
	<rect x="108.8" y="90.6" class="st9" width="6.4" height="6.4"/>
	<rect x="115.2" y="90.6" class="st9" width="6.4" height="6.4"/>
	<rect x="121.6" y="90.6" class="st9" width="6.4" height="6.4"/>
	<rect x="128" y="90.6" class="st4" width="6.4" height="6.4"/>
	<rect x="134.4" y="90.6" class="st5" width="6.4" height="6.4"/>
	<rect x="140.8" y="90.6" class="st14" width="6.4" height="6.4"/>
	<rect x="147.2" y="90.6" class="st14" width="6.4" height="6.4"/>
	<rect x="153.6" y="90.6" class="st14" width="6.4" height="6.4"/>
	<rect x="160.1" y="90.6" class="st7" width="6.4" height="6.4"/>
	<rect x="166.5" y="90.6" class="st0" width="6.4" height="6.4"/>
	<rect x="19.1" y="97" class="st0" width="6.4" height="6.4"/>
	<rect x="25.5" y="97" class="st1" width="6.4" height="6.4"/>
	<rect x="31.9" y="97" class="st4" width="6.4" height="6.4"/>
	<rect x="38.4" y="97" class="st5" width="6.4" height="6.4"/>
	<rect x="44.8" y="97" class="st5" width="6.4" height="6.4"/>
	<rect x="51.2" y="97" class="st10" width="6.4" height="6.4"/>
	<rect x="57.6" y="97" class="st10" width="6.4" height="6.4"/>
	<rect x="64" y="97" class="st10" width="6.4" height="6.4"/>
	<rect x="70.4" y="97" class="st10" width="6.4" height="6.4"/>
	<rect x="76.8" y="97" class="st10" width="6.4" height="6.4"/>
	<rect x="83.2" y="97" class="st10" width="6.4" height="6.4"/>
	<rect x="89.6" y="97" class="st10" width="6.4" height="6.4"/>
	<rect x="96" y="97" class="st6" width="6.4" height="6.4"/>
	<rect x="102.4" y="97" class="st12" width="6.4" height="6.4"/>
	<rect x="108.8" y="97" class="st9" width="6.4" height="6.4"/>
	<rect x="115.2" y="97" class="st9" width="6.4" height="6.4"/>
	<rect x="121.6" y="97" class="st9" width="6.4" height="6.4"/>
	<rect x="128" y="97" class="st6" width="6.4" height="6.4"/>
	<rect x="134.4" y="97" class="st13" width="6.4" height="6.4"/>
	<rect x="140.8" y="97" class="st9" width="6.4" height="6.4"/>
	<rect x="147.2" y="97" class="st9" width="6.4" height="6.4"/>
	<rect x="153.6" y="97" class="st14" width="6.4" height="6.4"/>
	<rect x="160.1" y="97" class="st7" width="6.4" height="6.4"/>
	<rect x="166.5" y="97" class="st0" width="6.4" height="6.4"/>
	<rect x="19.1" y="103.4" class="st0" width="6.4" height="6.4"/>
	<rect x="25.5" y="103.4" class="st2" width="6.4" height="6.4"/>
	<rect x="31.9" y="103.4" class="st15" width="6.4" height="6.4"/>
	<rect x="38.4" y="103.4" class="st4" width="6.4" height="6.4"/>
	<rect x="44.8" y="103.4" class="st5" width="6.4" height="6.4"/>
	<rect x="51.2" y="103.4" class="st5" width="6.4" height="6.4"/>
	<rect x="57.6" y="103.4" class="st10" width="6.4" height="6.4"/>
	<rect x="64" y="103.4" class="st10" width="6.4" height="6.4"/>
	<rect x="70.4" y="103.4" class="st10" width="6.4" height="6.4"/>
	<rect x="76.8" y="103.4" class="st10" width="6.4" height="6.4"/>
	<rect x="83.2" y="103.4" class="st10" width="6.4" height="6.4"/>
	<rect x="89.6" y="103.4" class="st12" width="6.4" height="6.4"/>
	<rect x="96" y="103.4" class="st12" width="6.4" height="6.4"/>
	<rect x="102.4" y="103.4" class="st6" width="6.4" height="6.4"/>
	<rect x="108.8" y="103.4" class="st6" width="6.4" height="6.4"/>
	<rect x="115.2" y="103.4" class="st5" width="6.4" height="6.4"/>
	<rect x="121.6" y="103.4" class="st5" width="6.4" height="6.4"/>
	<rect x="128" y="103.4" class="st5" width="6.4" height="6.4"/>
	<rect x="134.4" y="103.4" class="st12" width="6.4" height="6.4"/>
	<rect x="140.8" y="103.4" class="st12" width="6.4" height="6.4"/>
	<rect x="147.2" y="103.4" class="st9" width="6.4" height="6.4"/>
	<rect x="153.6" y="103.4" class="st14" width="6.4" height="6.4"/>
	<rect x="160.1" y="103.4" class="st8" width="6.4" height="6.4"/>
	<rect x="166.5" y="103.4" class="st0" width="6.4" height="6.4"/>
	<rect x="19.1" y="109.8" class="st0" width="6.4" height="6.4"/>
	<rect x="25.5" y="109.8" class="st1" width="6.4" height="6.4"/>
	<rect x="31.9" y="109.8" class="st15" width="6.4" height="6.4"/>
	<rect x="38.4" y="109.8" class="st16" width="6.4" height="6.4"/>
	<rect x="44.8" y="109.8" class="st5" width="6.4" height="6.4"/>
	<rect x="51.2" y="109.8" class="st5" width="6.4" height="6.4"/>
	<rect x="57.6" y="109.8" class="st5" width="6.4" height="6.4"/>
	<rect x="64" y="109.8" class="st6" width="6.4" height="6.4"/>
	<rect x="70.4" y="109.8" class="st12" width="6.4" height="6.4"/>
	<rect x="76.8" y="109.8" class="st12" width="6.4" height="6.4"/>
	<rect x="83.2" y="109.8" class="st9" width="6.4" height="6.4"/>
	<rect x="89.6" y="109.8" class="st9" width="6.4" height="6.4"/>
	<rect x="96" y="109.8" class="st9" width="6.4" height="6.4"/>
	<rect x="102.4" y="109.8" class="st9" width="6.4" height="6.4"/>
	<rect x="108.8" y="109.8" class="st9" width="6.4" height="6.4"/>
	<rect x="115.2" y="109.8" class="st4" width="6.4" height="6.4"/>
	<rect x="121.6" y="109.8" class="st5" width="6.4" height="6.4"/>
	<rect x="128" y="109.8" class="st10" width="6.4" height="6.4"/>
	<rect x="134.4" y="109.8" class="st10" width="6.4" height="6.4"/>
	<rect x="140.8" y="109.8" class="st9" width="6.4" height="6.4"/>
	<rect x="147.2" y="109.8" class="st9" width="6.4" height="6.4"/>
	<rect x="153.6" y="109.8" class="st14" width="6.4" height="6.4"/>
	<rect x="160.1" y="109.8" class="st7" width="6.4" height="6.4"/>
	<rect x="166.5" y="109.8" class="st0" width="6.4" height="6.4"/>
	<rect x="25.5" y="116.2" class="st0" width="6.4" height="6.4"/>
	<rect x="31.9" y="116.2" class="st2" width="6.4" height="6.4"/>
	<rect x="38.4" y="116.2" class="st16" width="6.4" height="6.4"/>
	<rect x="44.8" y="116.2" class="st16" width="6.4" height="6.4"/>
	<rect x="51.2" y="116.2" class="st17" width="6.4" height="6.4"/>
	<rect x="57.6" y="116.2" class="st16" width="6.4" height="6.4"/>
	<rect x="64" y="116.2" class="st6" width="6.4" height="6.4"/>
	<rect x="70.4" y="116.2" class="st6" width="6.4" height="6.4"/>
	<rect x="76.8" y="116.2" class="st6" width="6.4" height="6.4"/>
	<rect x="83.2" y="116.2" class="st6" width="6.4" height="6.4"/>
	<rect x="89.6" y="116.2" class="st4" width="6.4" height="6.4"/>
	<rect x="96" y="116.2" class="st4" width="6.4" height="6.4"/>
	<rect x="102.4" y="116.2" class="st4" width="6.4" height="6.4"/>
	<rect x="108.8" y="116.2" class="st4" width="6.4" height="6.4"/>
	<rect x="115.2" y="116.2" class="st6" width="6.4" height="6.4"/>
	<rect x="121.6" y="116.2" class="st10" width="6.4" height="6.4"/>
	<rect x="128" y="116.2" class="st10" width="6.4" height="6.4"/>
	<rect x="134.4" y="116.2" class="st11" width="6.4" height="6.4"/>
	<rect x="140.8" y="116.2" class="st9" width="6.4" height="6.4"/>
	<rect x="147.2" y="116.2" class="st14" width="6.4" height="6.4"/>
	<rect x="153.6" y="116.2" class="st14" width="6.4" height="6.4"/>
	<rect x="160.1" y="116.2" class="st7" width="6.4" height="6.4"/>
	<rect x="166.5" y="116.2" class="st0" width="6.4" height="6.4"/>
	<rect x="25.5" y="122.6" class="st0" width="6.4" height="6.4"/>
	<rect x="31.9" y="122.6" class="st1" width="6.4" height="6.4"/>
	<rect x="38.4" y="122.6" class="st15" width="6.4" height="6.4"/>
	<rect x="44.8" y="122.6" class="st16" width="6.4" height="6.4"/>
	<rect x="51.2" y="122.6" class="st17" width="6.4" height="6.4"/>
	<rect x="57.6" y="122.6" class="st17" width="6.4" height="6.4"/>
	<rect x="64" y="122.6" class="st17" width="6.4" height="6.4"/>
	<rect x="70.4" y="122.6" class="st17" width="6.4" height="6.4"/>
	<rect x="76.8" y="122.6" class="st17" width="6.4" height="6.4"/>
	<rect x="83.2" y="122.6" class="st17" width="6.4" height="6.4"/>
	<rect x="89.6" y="122.6" class="st17" width="6.4" height="6.4"/>
	<rect x="96" y="122.6" class="st16" width="6.4" height="6.4"/>
	<rect x="102.4" y="122.6" class="st13" width="6.4" height="6.4"/>
	<rect x="108.8" y="122.6" class="st13" width="6.4" height="6.4"/>
	<rect x="115.2" y="122.6" class="st10" width="6.4" height="6.4"/>
	<rect x="121.6" y="122.6" class="st9" width="6.4" height="6.4"/>
	<rect x="128" y="122.6" class="st9" width="6.4" height="6.4"/>
	<rect x="134.4" y="122.6" class="st9" width="6.4" height="6.4"/>
	<rect x="140.8" y="122.6" class="st14" width="6.4" height="6.4"/>
	<rect x="147.2" y="122.6" class="st14" width="6.4" height="6.4"/>
	<rect x="153.6" y="122.6" class="st18" width="6.4" height="6.4"/>
	<rect x="160.1" y="122.6" class="st7" width="6.4" height="6.4"/>
	<rect x="166.5" y="122.6" class="st0" width="6.4" height="6.4"/>
	<rect x="31.9" y="129" class="st0" width="6.4" height="6.4"/>
	<rect x="38.4" y="129" class="st1" width="6.4" height="6.4"/>
	<rect x="44.8" y="129" class="st16" width="6.4" height="6.4"/>
	<rect x="51.2" y="129" class="st16" width="6.4" height="6.4"/>
	<rect x="57.6" y="129" class="st17" width="6.4" height="6.4"/>
	<rect x="64" y="129" class="st16" width="6.4" height="6.4"/>
	<rect x="70.4" y="129" class="st17" width="6.4" height="6.4"/>
	<rect x="76.8" y="129" class="st17" width="6.4" height="6.4"/>
	<rect x="83.2" y="129" class="st17" width="6.4" height="6.4"/>
	<rect x="89.6" y="129" class="st17" width="6.4" height="6.4"/>
	<rect x="96" y="129" class="st16" width="6.4" height="6.4"/>
	<rect x="102.4" y="129" class="st13" width="6.4" height="6.4"/>
	<rect x="108.8" y="129" class="st16" width="6.4" height="6.4"/>
	<rect x="115.2" y="129" class="st13" width="6.4" height="6.4"/>
	<rect x="121.6" y="129" class="st14" width="6.4" height="6.4"/>
	<rect x="128" y="129" class="st14" width="6.4" height="6.4"/>
	<rect x="134.4" y="129" class="st14" width="6.4" height="6.4"/>
	<rect x="140.8" y="129" class="st14" width="6.4" height="6.4"/>
	<rect x="147.2" y="129" class="st18" width="6.4" height="6.4"/>
	<rect x="153.6" y="129" class="st18" width="6.4" height="6.4"/>
	<rect x="160.1" y="129" class="st8" width="6.4" height="6.4"/>
	<rect x="166.5" y="129" class="st0" width="6.4" height="6.4"/>
	<rect x="38.4" y="135.4" class="st0" width="6.4" height="6.4"/>
	<rect x="44.8" y="135.4" class="st1" width="6.4" height="6.4"/>
	<rect x="51.2" y="135.4" class="st1" width="6.4" height="6.4"/>
	<rect x="57.6" y="135.4" class="st2" width="6.4" height="6.4"/>
	<rect x="64" y="135.4" class="st16" width="6.4" height="6.4"/>
	<rect x="70.4" y="135.4" class="st17" width="6.4" height="6.4"/>
	<rect x="76.8" y="135.4" class="st17" width="6.4" height="6.4"/>
	<rect x="83.2" y="135.4" class="st17" width="6.4" height="6.4"/>
	<rect x="89.6" y="135.4" class="st16" width="6.4" height="6.4"/>
	<rect x="96" y="135.4" class="st13" width="6.4" height="6.4"/>
	<rect x="102.4" y="135.4" class="st13" width="6.4" height="6.4"/>
	<rect x="108.8" y="135.4" class="st13" width="6.4" height="6.4"/>
	<rect x="115.2" y="135.4" class="st16" width="6.4" height="6.4"/>
	<rect x="121.6" y="135.4" class="st16" width="6.4" height="6.4"/>
	<rect x="128" y="135.4" class="st16" width="6.4" height="6.4"/>
	<rect x="134.4" y="135.4" class="st18" width="6.4" height="6.4"/>
	<rect x="140.8" y="135.4" class="st18" width="6.4" height="6.4"/>
	<rect x="147.2" y="135.4" class="st14" width="6.4" height="6.4"/>
	<rect x="153.6" y="135.4" class="st18" width="6.4" height="6.4"/>
	<rect x="160.1" y="135.4" class="st8" width="6.4" height="6.4"/>
	<rect x="166.5" y="135.4" class="st0" width="6.4" height="6.4"/>
	<rect x="44.8" y="141.8" class="st0" width="6.4" height="6.4"/>
	<rect x="51.2" y="141.8" class="st0" width="6.4" height="6.4"/>
	<rect x="57.6" y="141.8" class="st0" width="6.4" height="6.4"/>
	<rect x="64" y="141.8" class="st2" width="6.4" height="6.4"/>
	<rect x="70.4" y="141.8" class="st1" width="6.4" height="6.4"/>
	<rect x="76.8" y="141.8" class="st1" width="6.4" height="6.4"/>
	<rect x="83.2" y="141.8" class="st8" width="6.4" height="6.4"/>
	<rect x="89.6" y="141.8" class="st8" width="6.4" height="6.4"/>
	<rect x="96" y="141.8" class="st7" width="6.4" height="6.4"/>
	<rect x="102.4" y="141.8" class="st7" width="6.4" height="6.4"/>
	<rect x="108.8" y="141.8" class="st16" width="6.4" height="6.4"/>
	<rect x="115.2" y="141.8" class="st16" width="6.4" height="6.4"/>
	<rect x="121.6" y="141.8" class="st16" width="6.4" height="6.4"/>
	<rect x="128" y="141.8" class="st18" width="6.4" height="6.4"/>
	<rect x="134.4" y="141.8" class="st18" width="6.4" height="6.4"/>
	<rect x="140.8" y="141.8" class="st18" width="6.4" height="6.4"/>
	<rect x="147.2" y="141.8" class="st18" width="6.4" height="6.4"/>
	<rect x="153.6" y="141.8" class="st8" width="6.4" height="6.4"/>
	<rect x="160.1" y="141.8" class="st0" width="6.4" height="6.4"/>
	<rect x="64" y="148.2" class="st0" width="6.4" height="6.4"/>
	<rect x="70.4" y="148.2" class="st0" width="6.4" height="6.4"/>
	<rect x="76.8" y="148.2" class="st0" width="6.4" height="6.4"/>
	<rect x="83.2" y="148.2" class="st0" width="6.4" height="6.4"/>
	<rect x="89.6" y="148.2" class="st0" width="6.4" height="6.4"/>
	<rect x="96" y="148.2" class="st0" width="6.4" height="6.4"/>
	<rect x="102.4" y="148.2" class="st0" width="6.4" height="6.4"/>
	<rect x="108.8" y="148.2" class="st7" width="6.4" height="6.4"/>
	<rect x="115.2" y="148.2" class="st16" width="6.4" height="6.4"/>
	<rect x="121.6" y="148.2" class="st16" width="6.4" height="6.4"/>
	<rect x="128" y="148.2" class="st18" width="6.4" height="6.4"/>
	<rect x="134.4" y="148.2" class="st14" width="6.4" height="6.4"/>
	<rect x="140.8" y="148.2" class="st18" width="6.4" height="6.4"/>
	<rect x="147.2" y="148.2" class="st7" width="6.4" height="6.4"/>
	<rect x="153.6" y="148.2" class="st0" width="6.4" height="6.4"/>
	<rect x="108.8" y="154.6" class="st0" width="6.4" height="6.4"/>
	<rect x="115.2" y="154.6" class="st8" width="6.4" height="6.4"/>
	<rect x="121.6" y="154.6" class="st8" width="6.4" height="6.4"/>
	<rect x="128" y="154.6" class="st7" width="6.4" height="6.4"/>
	<rect x="134.4" y="154.6" class="st7" width="6.4" height="6.4"/>
	<rect x="140.8" y="154.6" class="st7" width="6.4" height="6.4"/>
	<rect x="147.2" y="154.6" class="st0" width="6.4" height="6.4"/>
	<rect x="115.2" y="161.1" class="st0" width="6.4" height="6.4"/>
	<rect x="121.6" y="161.1" class="st0" width="6.4" height="6.4"/>
	<rect x="128" y="161.1" class="st0" width="6.4" height="6.4"/>
	<rect x="134.4" y="161.1" class="st0" width="6.4" height="6.4"/>
	<rect x="140.8" y="161.1" class="st0" width="6.4" height="6.4"/>
</g>
</svg>
