<?xml version="1.0" encoding="UTF-8"?>
<svg xmlns="http://www.w3.org/2000/svg" version="1.1" viewBox="0 0 192 192">
  <!-- Generator: Adobe Illustrator 29.6.1, SVG Export Plug-In . SVG Version: 2.1.1 Build 9)  -->
  <defs>
    <style>
      .st0 {
        fill: #d1584a;
      }

      .st1 {
        fill: #d44639;
      }

      .st2 {
        fill: #b6392d;
      }

      .st3 {
        fill: #ffdf2e;
      }

      .st4 {
        fill: #89251e;
      }

      .st5 {
        fill: #ffef95;
      }

      .st6 {
        fill: #ec1;
      }

      .st7 {
        fill: #671914;
      }

      .st8 {
        fill: #f6b224;
      }

      .st9 {
        fill: #db6f62;
      }

      .st10 {
        fill: #c1b9e0;
      }

      .st11 {
        fill: #e4895d;
      }
    </style>
  </defs>
  <g id="Layer_1" shape-rendering="crispEdges">
    <g>
      <rect class="st10" x="24" width="6" height="6"/>
      <rect class="st7" x="30" width="6" height="6"/>
      <rect class="st5" x="36" width="6" height="6"/>
      <rect class="st1" x="42" width="6" height="6"/>
      <rect class="st1" x="48" width="6" height="6"/>
      <rect class="st1" x="54" width="6" height="6"/>
      <rect class="st5" x="60" width="6" height="6"/>
      <rect class="st7" x="66" width="6" height="6"/>
      <rect class="st10" x="72" width="6" height="6"/>
      <rect class="st10" x="114" width="6" height="6"/>
      <rect class="st7" x="120" width="6" height="6"/>
      <rect class="st5" x="126" width="6" height="6"/>
      <rect class="st2" x="132" width="6" height="6"/>
      <rect class="st2" x="138" width="6" height="6"/>
      <rect class="st2" x="144" width="6" height="6"/>
      <rect class="st5" x="150" width="6" height="6"/>
      <rect class="st7" x="156" width="6" height="6"/>
      <rect class="st10" x="162" width="6" height="6"/>
      <rect class="st10" x="30" y="6" width="6" height="6"/>
      <rect class="st7" x="36" y="6" width="6" height="6"/>
      <rect class="st5" x="42" y="6" width="6" height="6"/>
      <rect class="st1" x="48" y="6" width="6" height="6"/>
      <rect class="st1" x="54" y="6" width="6" height="6"/>
      <rect class="st1" x="60" y="6" width="6" height="6"/>
      <rect class="st5" x="66" y="6" width="6" height="6"/>
      <rect class="st7" x="72" y="6" width="6" height="6"/>
      <rect class="st10" x="78" y="6" width="6" height="6"/>
      <rect class="st10" x="108" y="6" width="6" height="6"/>
      <rect class="st7" x="114" y="6" width="6" height="6"/>
      <rect class="st5" x="120" y="6" width="6" height="6"/>
      <rect class="st2" x="126" y="6" width="6" height="6"/>
      <rect class="st2" x="132" y="6" width="6" height="6"/>
      <rect class="st2" x="138" y="6" width="6" height="6"/>
      <rect class="st5" x="144" y="6" width="6" height="6"/>
      <rect class="st7" x="150" y="6" width="6" height="6"/>
      <rect class="st10" x="156" y="6" width="6" height="6"/>
      <rect class="st10" x="36" y="12" width="6" height="6"/>
      <rect class="st7" x="42" y="12" width="6" height="6"/>
      <rect class="st5" x="48" y="12" width="6" height="6"/>
      <rect class="st1" x="54" y="12" width="6" height="6"/>
      <rect class="st1" x="60" y="12" width="6" height="6"/>
      <rect class="st1" x="66" y="12" width="6" height="6"/>
      <rect class="st5" x="72" y="12" width="6" height="6"/>
      <rect class="st7" x="78" y="12" width="6" height="6"/>
      <rect class="st10" x="84" y="12" width="6" height="6"/>
      <rect class="st10" x="102" y="12" width="6" height="6"/>
      <rect class="st7" x="108" y="12" width="6" height="6"/>
      <rect class="st5" x="114" y="12" width="6" height="6"/>
      <rect class="st2" x="120" y="12" width="6" height="6"/>
      <rect class="st2" x="126" y="12" width="6" height="6"/>
      <rect class="st2" x="132" y="12" width="6" height="6"/>
      <rect class="st5" x="138" y="12" width="6" height="6"/>
      <rect class="st7" x="144" y="12" width="6" height="6"/>
      <rect class="st10" x="150" y="12" width="6" height="6"/>
      <rect class="st10" x="42" y="18" width="6" height="6"/>
      <rect class="st7" x="48" y="18" width="6" height="6"/>
      <rect class="st5" x="54" y="18" width="6" height="6"/>
      <rect class="st1" x="60" y="18" width="6" height="6"/>
      <rect class="st1" x="66" y="18" width="6" height="6"/>
      <rect class="st1" x="72" y="18" width="6" height="6"/>
      <rect class="st5" x="78" y="18" width="6" height="6"/>
      <rect class="st7" x="84" y="18" width="6" height="6"/>
      <rect class="st10" x="90" y="18" width="6" height="6"/>
      <rect class="st10" x="96" y="18" width="6" height="6"/>
      <rect class="st7" x="102" y="18" width="6" height="6"/>
      <rect class="st5" x="108" y="18" width="6" height="6"/>
      <rect class="st2" x="114" y="18" width="6" height="6"/>
      <rect class="st2" x="120" y="18" width="6" height="6"/>
      <rect class="st2" x="126" y="18" width="6" height="6"/>
      <rect class="st5" x="132" y="18" width="6" height="6"/>
      <rect class="st7" x="138" y="18" width="6" height="6"/>
      <rect class="st10" x="144" y="18" width="6" height="6"/>
      <rect class="st10" x="48" y="24" width="6" height="6"/>
      <rect class="st7" x="54" y="24" width="6" height="6"/>
      <rect class="st5" x="60" y="24" width="6" height="6"/>
      <rect class="st1" x="66" y="24" width="6" height="6"/>
      <rect class="st1" x="72" y="24" width="6" height="6"/>
      <rect class="st1" x="78" y="24" width="6" height="6"/>
      <rect class="st5" x="84" y="24" width="6" height="6"/>
      <rect class="st7" x="90" y="24" width="6" height="6"/>
      <rect class="st7" x="96" y="24" width="6" height="6"/>
      <rect class="st5" x="102" y="24" width="6" height="6"/>
      <rect class="st2" x="108" y="24" width="6" height="6"/>
      <rect class="st2" x="114" y="24" width="6" height="6"/>
      <rect class="st2" x="120" y="24" width="6" height="6"/>
      <rect class="st5" x="126" y="24" width="6" height="6"/>
      <rect class="st7" x="132" y="24" width="6" height="6"/>
      <rect class="st10" x="138" y="24" width="6" height="6"/>
      <rect class="st10" x="54" y="30" width="6" height="6"/>
      <rect class="st7" x="60" y="30" width="6" height="6"/>
      <rect class="st5" x="66" y="30" width="6" height="6"/>
      <rect class="st1" x="72" y="30" width="6" height="6"/>
      <rect class="st1" x="78" y="30" width="6" height="6"/>
      <rect class="st1" x="84" y="30" width="6" height="6"/>
      <rect class="st5" x="90" y="30" width="6" height="6"/>
      <rect class="st7" x="96" y="30" width="6" height="6"/>
      <rect class="st2" x="102" y="30" width="6" height="6"/>
      <rect class="st2" x="108" y="30" width="6" height="6"/>
      <rect class="st2" x="114" y="30" width="6" height="6"/>
      <rect class="st5" x="120" y="30" width="6" height="6"/>
      <rect class="st7" x="126" y="30" width="6" height="6"/>
      <rect class="st10" x="132" y="30" width="6" height="6"/>
      <rect class="st10" x="60" y="36" width="6" height="6"/>
      <rect class="st7" x="66" y="36" width="6" height="6"/>
      <rect class="st5" x="72" y="36" width="6" height="6"/>
      <rect class="st1" x="78" y="36" width="6" height="6"/>
      <rect class="st1" x="84" y="36" width="6" height="6"/>
      <rect class="st1" x="90" y="36" width="6" height="6"/>
      <rect class="st5" x="96" y="36" width="6" height="6"/>
      <rect class="st2" x="102" y="36" width="6" height="6"/>
      <rect class="st2" x="108" y="36" width="6" height="6"/>
      <rect class="st5" x="114" y="36" width="6" height="6"/>
      <rect class="st7" x="120" y="36" width="6" height="6"/>
      <rect class="st10" x="126" y="36" width="6" height="6"/>
      <rect class="st10" x="54" y="42" width="6" height="6"/>
      <rect class="st7" x="60" y="42" width="6" height="6"/>
      <rect class="st8" x="66" y="42" width="6" height="6"/>
      <rect class="st7" x="72" y="42" width="6" height="6"/>
      <rect class="st7" x="78" y="42" width="6" height="6"/>
      <rect class="st7" x="84" y="42" width="6" height="6"/>
      <rect class="st7" x="90" y="42" width="6" height="6"/>
      <rect class="st7" x="96" y="42" width="6" height="6"/>
      <rect class="st7" x="102" y="42" width="6" height="6"/>
      <rect class="st7" x="108" y="42" width="6" height="6"/>
      <rect class="st7" x="114" y="42" width="6" height="6"/>
      <rect class="st8" x="120" y="42" width="6" height="6"/>
      <rect class="st7" x="126" y="42" width="6" height="6"/>
      <rect class="st10" x="132" y="42" width="6" height="6"/>
      <rect class="st10" x="54" y="48" width="6" height="6"/>
      <rect class="st7" x="60" y="48" width="6" height="6"/>
      <rect class="st5" x="66" y="48" width="6" height="6"/>
      <rect class="st7" x="72" y="48" width="6" height="6"/>
      <rect class="st10" x="78" y="48" width="6" height="6"/>
      <rect class="st10" x="84" y="48" width="6" height="6"/>
      <rect class="st10" x="90" y="48" width="6" height="6"/>
      <rect class="st10" x="96" y="48" width="6" height="6"/>
      <rect class="st10" x="102" y="48" width="6" height="6"/>
      <rect class="st10" x="108" y="48" width="6" height="6"/>
      <rect class="st7" x="114" y="48" width="6" height="6"/>
      <rect class="st5" x="120" y="48" width="6" height="6"/>
      <rect class="st7" x="126" y="48" width="6" height="6"/>
      <rect class="st10" x="132" y="48" width="6" height="6"/>
      <rect class="st10" x="54" y="54" width="6" height="6"/>
      <rect class="st7" x="60" y="54" width="6" height="6"/>
      <rect class="st5" x="66" y="54" width="6" height="6"/>
      <rect class="st8" x="72" y="54" width="6" height="6"/>
      <rect class="st7" x="78" y="54" width="6" height="6"/>
      <rect class="st7" x="84" y="54" width="6" height="6"/>
      <rect class="st7" x="90" y="54" width="6" height="6"/>
      <rect class="st7" x="96" y="54" width="6" height="6"/>
      <rect class="st7" x="102" y="54" width="6" height="6"/>
      <rect class="st7" x="108" y="54" width="6" height="6"/>
      <rect class="st8" x="114" y="54" width="6" height="6"/>
      <rect class="st5" x="120" y="54" width="6" height="6"/>
      <rect class="st7" x="126" y="54" width="6" height="6"/>
      <rect class="st10" x="132" y="54" width="6" height="6"/>
      <rect class="st10" x="54" y="60" width="6" height="6"/>
      <rect class="st10" x="60" y="60" width="6" height="6"/>
      <rect class="st7" x="66" y="60" width="6" height="6"/>
      <rect class="st0" x="72" y="60" width="6" height="6"/>
      <rect class="st5" x="78" y="60" width="6" height="6"/>
      <rect class="st5" x="84" y="60" width="6" height="6"/>
      <rect class="st5" x="90" y="60" width="6" height="6"/>
      <rect class="st6" x="96" y="60" width="6" height="6"/>
      <rect class="st6" x="102" y="60" width="6" height="6"/>
      <rect class="st6" x="108" y="60" width="6" height="6"/>
      <rect class="st0" x="114" y="60" width="6" height="6"/>
      <rect class="st4" x="120" y="60" width="6" height="6"/>
      <rect class="st10" x="126" y="60" width="6" height="6"/>
      <rect class="st10" x="132" y="60" width="6" height="6"/>
      <rect class="st10" x="48" y="66" width="6" height="6"/>
      <rect class="st7" x="54" y="66" width="6" height="6"/>
      <rect class="st7" x="60" y="66" width="6" height="6"/>
      <rect class="st5" x="66" y="66" width="6" height="6"/>
      <rect class="st5" x="72" y="66" width="6" height="6"/>
      <rect class="st5" x="78" y="66" width="6" height="6"/>
      <rect class="st0" x="84" y="66" width="6" height="6"/>
      <rect class="st0" x="90" y="66" width="6" height="6"/>
      <rect class="st0" x="96" y="66" width="6" height="6"/>
      <rect class="st0" x="102" y="66" width="6" height="6"/>
      <rect class="st6" x="108" y="66" width="6" height="6"/>
      <rect class="st6" x="114" y="66" width="6" height="6"/>
      <rect class="st6" x="120" y="66" width="6" height="6"/>
      <rect class="st4" x="126" y="66" width="6" height="6"/>
      <rect class="st4" x="132" y="66" width="6" height="6"/>
      <rect class="st10" x="138" y="66" width="6" height="6"/>
      <rect class="st10" x="42" y="72" width="6" height="6"/>
      <rect class="st7" x="48" y="72" width="6" height="6"/>
      <rect class="st5" x="54" y="72" width="6" height="6"/>
      <rect class="st5" x="60" y="72" width="6" height="6"/>
      <rect class="st0" x="66" y="72" width="6" height="6"/>
      <rect class="st0" x="72" y="72" width="6" height="6"/>
      <rect class="st0" x="78" y="72" width="6" height="6"/>
      <rect class="st8" x="84" y="72" width="6" height="6"/>
      <rect class="st8" x="90" y="72" width="6" height="6"/>
      <rect class="st8" x="96" y="72" width="6" height="6"/>
      <rect class="st8" x="102" y="72" width="6" height="6"/>
      <rect class="st0" x="108" y="72" width="6" height="6"/>
      <rect class="st0" x="114" y="72" width="6" height="6"/>
      <rect class="st11" x="120" y="72" width="6" height="6"/>
      <rect class="st6" x="126" y="72" width="6" height="6"/>
      <rect class="st6" x="132" y="72" width="6" height="6"/>
      <rect class="st4" x="138" y="72" width="6" height="6"/>
      <rect class="st10" x="144" y="72" width="6" height="6"/>
      <rect class="st10" x="42" y="78" width="6" height="6"/>
      <rect class="st7" x="48" y="78" width="6" height="6"/>
      <rect class="st5" x="54" y="78" width="6" height="6"/>
      <rect class="st0" x="60" y="78" width="6" height="6"/>
      <rect class="st8" x="66" y="78" width="6" height="6"/>
      <rect class="st8" x="72" y="78" width="6" height="6"/>
      <rect class="st8" x="78" y="78" width="6" height="6"/>
      <rect class="st8" x="84" y="78" width="6" height="6"/>
      <rect class="st0" x="90" y="78" width="6" height="6"/>
      <rect class="st9" x="96" y="78" width="6" height="6"/>
      <rect class="st8" x="102" y="78" width="6" height="6"/>
      <rect class="st8" x="108" y="78" width="6" height="6"/>
      <rect class="st8" x="114" y="78" width="6" height="6"/>
      <rect class="st8" x="120" y="78" width="6" height="6"/>
      <rect class="st11" x="126" y="78" width="6" height="6"/>
      <rect class="st6" x="132" y="78" width="6" height="6"/>
      <rect class="st4" x="138" y="78" width="6" height="6"/>
      <rect class="st10" x="144" y="78" width="6" height="6"/>
      <rect class="st10" x="36" y="84" width="6" height="6"/>
      <rect class="st7" x="42" y="84" width="6" height="6"/>
      <rect class="st5" x="48" y="84" width="6" height="6"/>
      <rect class="st5" x="54" y="84" width="6" height="6"/>
      <rect class="st0" x="60" y="84" width="6" height="6"/>
      <rect class="st8" x="66" y="84" width="6" height="6"/>
      <rect class="st8" x="72" y="84" width="6" height="6"/>
      <rect class="st8" x="78" y="84" width="6" height="6"/>
      <rect class="st0" x="84" y="84" width="6" height="6"/>
      <rect class="st5" x="90" y="84" width="6" height="6"/>
      <rect class="st5" x="96" y="84" width="6" height="6"/>
      <rect class="st9" x="102" y="84" width="6" height="6"/>
      <rect class="st8" x="108" y="84" width="6" height="6"/>
      <rect class="st8" x="114" y="84" width="6" height="6"/>
      <rect class="st8" x="120" y="84" width="6" height="6"/>
      <rect class="st11" x="126" y="84" width="6" height="6"/>
      <rect class="st6" x="132" y="84" width="6" height="6"/>
      <rect class="st6" x="138" y="84" width="6" height="6"/>
      <rect class="st4" x="144" y="84" width="6" height="6"/>
      <rect class="st10" x="150" y="84" width="6" height="6"/>
      <rect class="st10" x="36" y="90" width="6" height="6"/>
      <rect class="st7" x="42" y="90" width="6" height="6"/>
      <rect class="st5" x="48" y="90" width="6" height="6"/>
      <rect class="st0" x="54" y="90" width="6" height="6"/>
      <rect class="st8" x="60" y="90" width="6" height="6"/>
      <rect class="st8" x="66" y="90" width="6" height="6"/>
      <rect class="st8" x="72" y="90" width="6" height="6"/>
      <rect class="st8" x="78" y="90" width="6" height="6"/>
      <rect class="st0" x="84" y="90" width="6" height="6"/>
      <rect class="st5" x="90" y="90" width="6" height="6"/>
      <rect class="st3" x="96" y="90" width="6" height="6"/>
      <rect class="st9" x="102" y="90" width="6" height="6"/>
      <rect class="st8" x="108" y="90" width="6" height="6"/>
      <rect class="st8" x="114" y="90" width="6" height="6"/>
      <rect class="st8" x="120" y="90" width="6" height="6"/>
      <rect class="st8" x="126" y="90" width="6" height="6"/>
      <rect class="st11" x="132" y="90" width="6" height="6"/>
      <rect class="st6" x="138" y="90" width="6" height="6"/>
      <rect class="st4" x="144" y="90" width="6" height="6"/>
      <rect class="st10" x="150" y="90" width="6" height="6"/>
      <rect class="st10" x="30" y="96" width="6" height="6"/>
      <rect class="st7" x="36" y="96" width="6" height="6"/>
      <rect class="st5" x="42" y="96" width="6" height="6"/>
      <rect class="st5" x="48" y="96" width="6" height="6"/>
      <rect class="st0" x="54" y="96" width="6" height="6"/>
      <rect class="st8" x="60" y="96" width="6" height="6"/>
      <rect class="st0" x="66" y="96" width="6" height="6"/>
      <rect class="st0" x="72" y="96" width="6" height="6"/>
      <rect class="st0" x="78" y="96" width="6" height="6"/>
      <rect class="st5" x="84" y="96" width="6" height="6"/>
      <rect class="st3" x="90" y="96" width="6" height="6"/>
      <rect class="st3" x="96" y="96" width="6" height="6"/>
      <rect class="st3" x="102" y="96" width="6" height="6"/>
      <rect class="st9" x="108" y="96" width="6" height="6"/>
      <rect class="st9" x="114" y="96" width="6" height="6"/>
      <rect class="st9" x="120" y="96" width="6" height="6"/>
      <rect class="st8" x="126" y="96" width="6" height="6"/>
      <rect class="st11" x="132" y="96" width="6" height="6"/>
      <rect class="st6" x="138" y="96" width="6" height="6"/>
      <rect class="st6" x="144" y="96" width="6" height="6"/>
      <rect class="st4" x="150" y="96" width="6" height="6"/>
      <rect class="st10" x="156" y="96" width="6" height="6"/>
      <rect class="st10" x="30" y="102" width="6" height="6"/>
      <rect class="st7" x="36" y="102" width="6" height="6"/>
      <rect class="st5" x="42" y="102" width="6" height="6"/>
      <rect class="st0" x="48" y="102" width="6" height="6"/>
      <rect class="st8" x="54" y="102" width="6" height="6"/>
      <rect class="st0" x="60" y="102" width="6" height="6"/>
      <rect class="st5" x="66" y="102" width="6" height="6"/>
      <rect class="st5" x="72" y="102" width="6" height="6"/>
      <rect class="st5" x="78" y="102" width="6" height="6"/>
      <rect class="st3" x="84" y="102" width="6" height="6"/>
      <rect class="st3" x="90" y="102" width="6" height="6"/>
      <rect class="st3" x="96" y="102" width="6" height="6"/>
      <rect class="st3" x="102" y="102" width="6" height="6"/>
      <rect class="st3" x="108" y="102" width="6" height="6"/>
      <rect class="st3" x="114" y="102" width="6" height="6"/>
      <rect class="st3" x="120" y="102" width="6" height="6"/>
      <rect class="st9" x="126" y="102" width="6" height="6"/>
      <rect class="st8" x="132" y="102" width="6" height="6"/>
      <rect class="st11" x="138" y="102" width="6" height="6"/>
      <rect class="st6" x="144" y="102" width="6" height="6"/>
      <rect class="st4" x="150" y="102" width="6" height="6"/>
      <rect class="st10" x="156" y="102" width="6" height="6"/>
      <rect class="st10" x="30" y="108" width="6" height="6"/>
      <rect class="st7" x="36" y="108" width="6" height="6"/>
      <rect class="st5" x="42" y="108" width="6" height="6"/>
      <rect class="st0" x="48" y="108" width="6" height="6"/>
      <rect class="st8" x="54" y="108" width="6" height="6"/>
      <rect class="st0" x="60" y="108" width="6" height="6"/>
      <rect class="st5" x="66" y="108" width="6" height="6"/>
      <rect class="st3" x="72" y="108" width="6" height="6"/>
      <rect class="st3" x="78" y="108" width="6" height="6"/>
      <rect class="st3" x="84" y="108" width="6" height="6"/>
      <rect class="st3" x="90" y="108" width="6" height="6"/>
      <rect class="st3" x="96" y="108" width="6" height="6"/>
      <rect class="st3" x="102" y="108" width="6" height="6"/>
      <rect class="st3" x="108" y="108" width="6" height="6"/>
      <rect class="st3" x="114" y="108" width="6" height="6"/>
      <rect class="st3" x="120" y="108" width="6" height="6"/>
      <rect class="st9" x="126" y="108" width="6" height="6"/>
      <rect class="st8" x="132" y="108" width="6" height="6"/>
      <rect class="st11" x="138" y="108" width="6" height="6"/>
      <rect class="st6" x="144" y="108" width="6" height="6"/>
      <rect class="st4" x="150" y="108" width="6" height="6"/>
      <rect class="st10" x="156" y="108" width="6" height="6"/>
      <rect class="st10" x="30" y="114" width="6" height="6"/>
      <rect class="st7" x="36" y="114" width="6" height="6"/>
      <rect class="st5" x="42" y="114" width="6" height="6"/>
      <rect class="st0" x="48" y="114" width="6" height="6"/>
      <rect class="st8" x="54" y="114" width="6" height="6"/>
      <rect class="st8" x="60" y="114" width="6" height="6"/>
      <rect class="st0" x="66" y="114" width="6" height="6"/>
      <rect class="st3" x="72" y="114" width="6" height="6"/>
      <rect class="st3" x="78" y="114" width="6" height="6"/>
      <rect class="st3" x="84" y="114" width="6" height="6"/>
      <rect class="st3" x="90" y="114" width="6" height="6"/>
      <rect class="st3" x="96" y="114" width="6" height="6"/>
      <rect class="st3" x="102" y="114" width="6" height="6"/>
      <rect class="st3" x="108" y="114" width="6" height="6"/>
      <rect class="st3" x="114" y="114" width="6" height="6"/>
      <rect class="st9" x="120" y="114" width="6" height="6"/>
      <rect class="st8" x="126" y="114" width="6" height="6"/>
      <rect class="st8" x="132" y="114" width="6" height="6"/>
      <rect class="st11" x="138" y="114" width="6" height="6"/>
      <rect class="st6" x="144" y="114" width="6" height="6"/>
      <rect class="st4" x="150" y="114" width="6" height="6"/>
      <rect class="st10" x="156" y="114" width="6" height="6"/>
      <rect class="st10" x="30" y="120" width="6" height="6"/>
      <rect class="st7" x="36" y="120" width="6" height="6"/>
      <rect class="st5" x="42" y="120" width="6" height="6"/>
      <rect class="st0" x="48" y="120" width="6" height="6"/>
      <rect class="st8" x="54" y="120" width="6" height="6"/>
      <rect class="st8" x="60" y="120" width="6" height="6"/>
      <rect class="st8" x="66" y="120" width="6" height="6"/>
      <rect class="st0" x="72" y="120" width="6" height="6"/>
      <rect class="st3" x="78" y="120" width="6" height="6"/>
      <rect class="st3" x="84" y="120" width="6" height="6"/>
      <rect class="st5" x="90" y="120" width="6" height="6"/>
      <rect class="st5" x="96" y="120" width="6" height="6"/>
      <rect class="st3" x="102" y="120" width="6" height="6"/>
      <rect class="st3" x="108" y="120" width="6" height="6"/>
      <rect class="st9" x="114" y="120" width="6" height="6"/>
      <rect class="st8" x="120" y="120" width="6" height="6"/>
      <rect class="st8" x="126" y="120" width="6" height="6"/>
      <rect class="st8" x="132" y="120" width="6" height="6"/>
      <rect class="st11" x="138" y="120" width="6" height="6"/>
      <rect class="st6" x="144" y="120" width="6" height="6"/>
      <rect class="st4" x="150" y="120" width="6" height="6"/>
      <rect class="st10" x="156" y="120" width="6" height="6"/>
      <rect class="st10" x="30" y="126" width="6" height="6"/>
      <rect class="st7" x="36" y="126" width="6" height="6"/>
      <rect class="st5" x="42" y="126" width="6" height="6"/>
      <rect class="st5" x="48" y="126" width="6" height="6"/>
      <rect class="st0" x="54" y="126" width="6" height="6"/>
      <rect class="st8" x="60" y="126" width="6" height="6"/>
      <rect class="st0" x="66" y="126" width="6" height="6"/>
      <rect class="st5" x="72" y="126" width="6" height="6"/>
      <rect class="st3" x="78" y="126" width="6" height="6"/>
      <rect class="st5" x="84" y="126" width="6" height="6"/>
      <rect class="st0" x="90" y="126" width="6" height="6"/>
      <rect class="st9" x="96" y="126" width="6" height="6"/>
      <rect class="st5" x="102" y="126" width="6" height="6"/>
      <rect class="st3" x="108" y="126" width="6" height="6"/>
      <rect class="st3" x="114" y="126" width="6" height="6"/>
      <rect class="st9" x="120" y="126" width="6" height="6"/>
      <rect class="st8" x="126" y="126" width="6" height="6"/>
      <rect class="st11" x="132" y="126" width="6" height="6"/>
      <rect class="st6" x="138" y="126" width="6" height="6"/>
      <rect class="st6" x="144" y="126" width="6" height="6"/>
      <rect class="st4" x="150" y="126" width="6" height="6"/>
      <rect class="st10" x="156" y="126" width="6" height="6"/>
      <rect class="st10" x="36" y="132" width="6" height="6"/>
      <rect class="st7" x="42" y="132" width="6" height="6"/>
      <rect class="st5" x="48" y="132" width="6" height="6"/>
      <rect class="st0" x="54" y="132" width="6" height="6"/>
      <rect class="st8" x="60" y="132" width="6" height="6"/>
      <rect class="st0" x="66" y="132" width="6" height="6"/>
      <rect class="st5" x="72" y="132" width="6" height="6"/>
      <rect class="st3" x="78" y="132" width="6" height="6"/>
      <rect class="st0" x="84" y="132" width="6" height="6"/>
      <rect class="st8" x="90" y="132" width="6" height="6"/>
      <rect class="st8" x="96" y="132" width="6" height="6"/>
      <rect class="st9" x="102" y="132" width="6" height="6"/>
      <rect class="st3" x="108" y="132" width="6" height="6"/>
      <rect class="st3" x="114" y="132" width="6" height="6"/>
      <rect class="st9" x="120" y="132" width="6" height="6"/>
      <rect class="st8" x="126" y="132" width="6" height="6"/>
      <rect class="st11" x="132" y="132" width="6" height="6"/>
      <rect class="st6" x="138" y="132" width="6" height="6"/>
      <rect class="st4" x="144" y="132" width="6" height="6"/>
      <rect class="st10" x="150" y="132" width="6" height="6"/>
      <rect class="st10" x="36" y="138" width="6" height="6"/>
      <rect class="st7" x="42" y="138" width="6" height="6"/>
      <rect class="st5" x="48" y="138" width="6" height="6"/>
      <rect class="st0" x="54" y="138" width="6" height="6"/>
      <rect class="st8" x="60" y="138" width="6" height="6"/>
      <rect class="st8" x="66" y="138" width="6" height="6"/>
      <rect class="st0" x="72" y="138" width="6" height="6"/>
      <rect class="st0" x="78" y="138" width="6" height="6"/>
      <rect class="st8" x="84" y="138" width="6" height="6"/>
      <rect class="st8" x="90" y="138" width="6" height="6"/>
      <rect class="st8" x="96" y="138" width="6" height="6"/>
      <rect class="st8" x="102" y="138" width="6" height="6"/>
      <rect class="st9" x="108" y="138" width="6" height="6"/>
      <rect class="st9" x="114" y="138" width="6" height="6"/>
      <rect class="st8" x="120" y="138" width="6" height="6"/>
      <rect class="st8" x="126" y="138" width="6" height="6"/>
      <rect class="st11" x="132" y="138" width="6" height="6"/>
      <rect class="st6" x="138" y="138" width="6" height="6"/>
      <rect class="st4" x="144" y="138" width="6" height="6"/>
      <rect class="st10" x="150" y="138" width="6" height="6"/>
      <rect class="st10" x="42" y="144" width="6" height="6"/>
      <rect class="st7" x="48" y="144" width="6" height="6"/>
      <rect class="st5" x="54" y="144" width="6" height="6"/>
      <rect class="st0" x="60" y="144" width="6" height="6"/>
      <rect class="st0" x="66" y="144" width="6" height="6"/>
      <rect class="st8" x="72" y="144" width="6" height="6"/>
      <rect class="st8" x="78" y="144" width="6" height="6"/>
      <rect class="st8" x="84" y="144" width="6" height="6"/>
      <rect class="st8" x="90" y="144" width="6" height="6"/>
      <rect class="st8" x="96" y="144" width="6" height="6"/>
      <rect class="st8" x="102" y="144" width="6" height="6"/>
      <rect class="st8" x="108" y="144" width="6" height="6"/>
      <rect class="st8" x="114" y="144" width="6" height="6"/>
      <rect class="st11" x="120" y="144" width="6" height="6"/>
      <rect class="st11" x="126" y="144" width="6" height="6"/>
      <rect class="st6" x="132" y="144" width="6" height="6"/>
      <rect class="st4" x="138" y="144" width="6" height="6"/>
      <rect class="st10" x="144" y="144" width="6" height="6"/>
      <rect class="st10" x="42" y="150" width="6" height="6"/>
      <rect class="st7" x="48" y="150" width="6" height="6"/>
      <rect class="st5" x="54" y="150" width="6" height="6"/>
      <rect class="st5" x="60" y="150" width="6" height="6"/>
      <rect class="st5" x="66" y="150" width="6" height="6"/>
      <rect class="st0" x="72" y="150" width="6" height="6"/>
      <rect class="st0" x="78" y="150" width="6" height="6"/>
      <rect class="st8" x="84" y="150" width="6" height="6"/>
      <rect class="st8" x="90" y="150" width="6" height="6"/>
      <rect class="st8" x="96" y="150" width="6" height="6"/>
      <rect class="st8" x="102" y="150" width="6" height="6"/>
      <rect class="st0" x="108" y="150" width="6" height="6"/>
      <rect class="st11" x="114" y="150" width="6" height="6"/>
      <rect class="st6" x="120" y="150" width="6" height="6"/>
      <rect class="st6" x="126" y="150" width="6" height="6"/>
      <rect class="st6" x="132" y="150" width="6" height="6"/>
      <rect class="st4" x="138" y="150" width="6" height="6"/>
      <rect class="st10" x="144" y="150" width="6" height="6"/>
      <rect class="st10" x="48" y="156" width="6" height="6"/>
      <rect class="st7" x="54" y="156" width="6" height="6"/>
      <rect class="st7" x="60" y="156" width="6" height="6"/>
      <rect class="st5" x="66" y="156" width="6" height="6"/>
      <rect class="st5" x="72" y="156" width="6" height="6"/>
      <rect class="st6" x="78" y="156" width="6" height="6"/>
      <rect class="st0" x="84" y="156" width="6" height="6"/>
      <rect class="st0" x="90" y="156" width="6" height="6"/>
      <rect class="st0" x="96" y="156" width="6" height="6"/>
      <rect class="st0" x="102" y="156" width="6" height="6"/>
      <rect class="st6" x="108" y="156" width="6" height="6"/>
      <rect class="st6" x="114" y="156" width="6" height="6"/>
      <rect class="st6" x="120" y="156" width="6" height="6"/>
      <rect class="st4" x="126" y="156" width="6" height="6"/>
      <rect class="st4" x="132" y="156" width="6" height="6"/>
      <rect class="st10" x="138" y="156" width="6" height="6"/>
      <rect class="st10" x="54" y="162" width="6" height="6"/>
      <rect class="st10" x="60" y="162" width="6" height="6"/>
      <rect class="st7" x="66" y="162" width="6" height="6"/>
      <rect class="st7" x="72" y="162" width="6" height="6"/>
      <rect class="st6" x="78" y="162" width="6" height="6"/>
      <rect class="st6" x="84" y="162" width="6" height="6"/>
      <rect class="st6" x="90" y="162" width="6" height="6"/>
      <rect class="st6" x="96" y="162" width="6" height="6"/>
      <rect class="st6" x="102" y="162" width="6" height="6"/>
      <rect class="st6" x="108" y="162" width="6" height="6"/>
      <rect class="st4" x="114" y="162" width="6" height="6"/>
      <rect class="st4" x="120" y="162" width="6" height="6"/>
      <rect class="st10" x="126" y="162" width="6" height="6"/>
      <rect class="st10" x="132" y="162" width="6" height="6"/>
      <rect class="st10" x="66" y="168" width="6" height="6"/>
      <rect class="st10" x="72" y="168" width="6" height="6"/>
      <rect class="st7" x="78" y="168" width="6" height="6"/>
      <rect class="st7" x="84" y="168" width="6" height="6"/>
      <rect class="st7" x="90" y="168" width="6" height="6"/>
      <rect class="st4" x="96" y="168" width="6" height="6"/>
      <rect class="st4" x="102" y="168" width="6" height="6"/>
      <rect class="st4" x="108" y="168" width="6" height="6"/>
      <rect class="st10" x="114" y="168" width="6" height="6"/>
      <rect class="st10" x="120" y="168" width="6" height="6"/>
      <rect class="st10" x="78" y="174" width="6" height="6"/>
      <rect class="st10" x="84" y="174" width="6" height="6"/>
      <rect class="st10" x="90" y="174" width="6" height="6"/>
      <rect class="st10" x="96" y="174" width="6" height="6"/>
      <rect class="st10" x="102" y="174" width="6" height="6"/>
      <rect class="st10" x="108" y="174" width="6" height="6"/>
    </g>
  </g>
</svg>