<?xml version="1.0" encoding="UTF-8"?><svg id="Layer_1" xmlns="http://www.w3.org/2000/svg" viewBox="0 0 500 430"><defs><style>.cls-1,.cls-2{stroke:#914938;stroke-miterlimit:10;stroke-width:2px;}.cls-1,.cls-3{fill:#914938;}.cls-4{fill:#f4ebd4;font-family:Roboto-Bold, Roboto;font-size:20.36px;font-weight:700;}.cls-2{fill:none;}.cls-3{stroke-width:0px;}</style></defs><path class="cls-3" d="m385.97,162.05c-1.08,3.96-5.04,6.48-10.44,6.48-3.96,24.84-9.72,51.12-15.84,73.44,19.44,8.28,39.96,17.64,60.48,28.08l-11.52,24.12c-19.44-9.72-38.16-19.08-56.52-27-17.28,51.84-42.12,89.64-80.28,114.84-5.04-5.04-14.04-11.16-20.52-15.12,37.8-24.84,61.2-58.68,77.76-110.16-36.36-14.4-69.48-24.48-96.12-26.64-24.84,90.72-47.16,114.48-90.36,114.48s-51.48-34.56-51.48-56.52c0-55.8,57.96-81.72,122.4-82.08,7.56-28.8,14.4-64.08,19.44-101.52-16.92,1.44-74.52,5.4-101.88,7.2-1.44,2.52-4.32,4.32-7.56,5.04l-3.24-29.16c30.96-1.08,97.92-5.4,119.52-7.56,3.96-.36,5.4-2.16,7.92-3.96l22.32,13.32c-1.8,2.88-4.68,4.32-9,5.76-5.76,39.96-14.4,81.36-22.32,112.32,27.72,2.16,60.84,11.88,96.84,25.56,6.12-21.6,11.52-49.32,15.48-78.48l34.92,7.56Zm-178.2,66.6c-51.84.72-93.24,21.24-93.24,59.4,0,20.16,9.72,33.84,26.64,33.84,26.28,0,43.56-9,66.6-93.24Z"/><path class="cls-2" d="m135.68,69.8s93.21-.88,101.13-4.84"/><path class="cls-2" d="m89.13,331.65s-41.91-58.99,17.65-108.51"/><path class="cls-2" d="m389.53,172.53s-7.48,47.79-13.05,62.86"/><polygon class="cls-1" points="227.6 66.57 227.3 61.83 233.3 63.84 239.29 65.84 233.59 68.58 227.89 71.31 227.6 66.57"/><polygon class="cls-1" points="104.59 224.94 101.62 221.24 107.68 219.42 113.74 217.61 110.65 223.13 107.57 228.65 104.59 224.94"/><polygon class="cls-1" points="379.22 226.46 383.72 227.98 379.6 232.78 375.48 237.57 375.1 231.26 374.72 224.95 379.22 226.46"/><circle class="cls-1" cx="108.54" cy="64.09" r="16.1"/><text class="cls-4" transform="translate(102.7 71.39)"><tspan x="0" y="0">1</tspan></text><circle class="cls-1" cx="409.1" cy="152.83" r="16.1"/><text class="cls-4" transform="translate(403.26 160.14)"><tspan x="0" y="0">2</tspan></text></svg>