<?xml version="1.0" encoding="UTF-8"?>
<svg xmlns="http://www.w3.org/2000/svg" version="1.1" viewBox="0 0 192 192">
  <!-- Generator: Adobe Illustrator 29.6.1, SVG Export Plug-In . SVG Version: 2.1.1 Build 9)  -->
  <defs>
    <style>
      .st0 {
        fill: #6c7aa7;
      }

      .st1 {
        fill: #c73d62;
      }

      .st2 {
        fill: #89251e;
      }

      .st3 {
        fill: #50b06e;
      }

      .st4 {
        fill: #e7a55d;
      }

      .st5 {
        fill: #2c144b;
      }

      .st6 {
        fill: #36d0ff;
      }

      .st7 {
        fill: #e75d81;
      }

      .st8 {
        fill: #365b95;
      }

      .st9 {
        fill: #fff;
      }

      .st10 {
        fill: #eb97a7;
      }

      .st11 {
        fill: #11abdb;
      }

      .st12 {
        fill: #afb5ca;
      }

      .st13 {
        fill: #ece7e8;
      }

      .st14 {
        fill: #4973a9;
      }

      .st15 {
        fill: #48588d;
      }

      .st16 {
        fill: #e25c72;
      }

      .st17 {
        fill: #87e2ff;
      }

      .st18 {
        fill: #d9e8ec;
      }
    </style>
  </defs>
  <g id="Layer_1" shape-rendering="crispEdges">
    <g>
      <rect class="st3" x="75" y="6" width="6" height="6"/>
      <rect class="st3" x="81" y="6" width="6" height="6"/>
      <rect class="st3" x="87" y="6" width="6" height="6"/>
      <rect class="st3" x="93" y="6" width="6" height="6"/>
      <rect class="st3" x="99" y="6" width="6" height="6"/>
      <rect class="st3" x="69" y="12" width="6" height="6"/>
      <rect class="st15" x="75" y="12" width="6" height="6"/>
      <rect class="st15" x="81" y="12" width="6" height="6"/>
      <rect class="st15" x="87" y="12" width="6" height="6"/>
      <rect class="st15" x="93" y="12" width="6" height="6"/>
      <rect class="st15" x="99" y="12" width="6" height="6"/>
      <rect class="st3" x="105" y="12" width="6" height="6"/>
      <rect class="st3" x="63" y="18" width="6" height="6"/>
      <rect class="st15" x="69" y="18" width="6" height="6"/>
      <rect class="st13" x="75" y="18" width="6" height="6"/>
      <rect class="st7" x="81" y="18" width="6" height="6"/>
      <rect class="st13" x="87" y="18" width="6" height="6"/>
      <rect class="st7" x="93" y="18" width="6" height="6"/>
      <rect class="st13" x="99" y="18" width="6" height="6"/>
      <rect class="st15" x="105" y="18" width="6" height="6"/>
      <rect class="st3" x="111" y="18" width="6" height="6"/>
      <rect class="st3" x="63" y="24" width="6" height="6"/>
      <rect class="st13" x="69" y="24" width="6" height="6"/>
      <rect class="st15" x="75" y="24" width="6" height="6"/>
      <rect class="st15" x="81" y="24" width="6" height="6"/>
      <rect class="st15" x="87" y="24" width="6" height="6"/>
      <rect class="st15" x="93" y="24" width="6" height="6"/>
      <rect class="st7" x="99" y="24" width="6" height="6"/>
      <rect class="st15" x="105" y="24" width="6" height="6"/>
      <rect class="st3" x="111" y="24" width="6" height="6"/>
      <rect class="st3" x="63" y="30" width="6" height="6"/>
      <rect class="st13" x="69" y="30" width="6" height="6"/>
      <rect class="st3" x="75" y="30" width="6" height="6"/>
      <rect class="st3" x="81" y="30" width="6" height="6"/>
      <rect class="st3" x="87" y="30" width="6" height="6"/>
      <rect class="st15" x="93" y="30" width="6" height="6"/>
      <rect class="st13" x="99" y="30" width="6" height="6"/>
      <rect class="st15" x="105" y="30" width="6" height="6"/>
      <rect class="st3" x="111" y="30" width="6" height="6"/>
      <rect class="st3" x="69" y="36" width="6" height="6"/>
      <rect class="st3" x="87" y="36" width="6" height="6"/>
      <rect class="st15" x="93" y="36" width="6" height="6"/>
      <rect class="st7" x="99" y="36" width="6" height="6"/>
      <rect class="st15" x="105" y="36" width="6" height="6"/>
      <rect class="st3" x="111" y="36" width="6" height="6"/>
      <rect class="st3" x="63" y="42" width="6" height="6"/>
      <rect class="st3" x="69" y="42" width="6" height="6"/>
      <rect class="st3" x="75" y="42" width="6" height="6"/>
      <rect class="st3" x="81" y="42" width="6" height="6"/>
      <rect class="st3" x="87" y="42" width="6" height="6"/>
      <rect class="st15" x="93" y="42" width="6" height="6"/>
      <rect class="st13" x="99" y="42" width="6" height="6"/>
      <rect class="st15" x="105" y="42" width="6" height="6"/>
      <rect class="st3" x="111" y="42" width="6" height="6"/>
      <rect class="st3" x="117" y="42" width="6" height="6"/>
      <rect class="st3" x="123" y="42" width="6" height="6"/>
      <rect class="st3" x="129" y="42" width="6" height="6"/>
      <rect class="st3" x="135" y="42" width="6" height="6"/>
      <rect class="st3" x="141" y="42" width="6" height="6"/>
      <rect class="st3" x="147" y="42" width="6" height="6"/>
      <rect class="st3" x="51" y="48" width="6" height="6"/>
      <rect class="st3" x="57" y="48" width="6" height="6"/>
      <rect class="st15" x="63" y="48" width="6" height="6"/>
      <rect class="st15" x="69" y="48" width="6" height="6"/>
      <rect class="st15" x="75" y="48" width="6" height="6"/>
      <rect class="st15" x="81" y="48" width="6" height="6"/>
      <rect class="st15" x="87" y="48" width="6" height="6"/>
      <rect class="st15" x="93" y="48" width="6" height="6"/>
      <rect class="st7" x="99" y="48" width="6" height="6"/>
      <rect class="st15" x="105" y="48" width="6" height="6"/>
      <rect class="st15" x="111" y="48" width="6" height="6"/>
      <rect class="st15" x="117" y="48" width="6" height="6"/>
      <rect class="st15" x="123" y="48" width="6" height="6"/>
      <rect class="st15" x="129" y="48" width="6" height="6"/>
      <rect class="st15" x="135" y="48" width="6" height="6"/>
      <rect class="st15" x="141" y="48" width="6" height="6"/>
      <rect class="st15" x="147" y="48" width="6" height="6"/>
      <rect class="st3" x="153" y="48" width="6" height="6"/>
      <rect class="st3" x="39" y="54" width="6" height="6"/>
      <rect class="st3" x="45" y="54" width="6" height="6"/>
      <rect class="st15" x="51" y="54" width="6" height="6"/>
      <rect class="st15" x="57" y="54" width="6" height="6"/>
      <rect class="st17" x="63" y="54" width="6" height="6"/>
      <rect class="st17" x="69" y="54" width="6" height="6"/>
      <rect class="st6" x="75" y="54" width="6" height="6"/>
      <rect class="st6" x="81" y="54" width="6" height="6"/>
      <rect class="st6" x="87" y="54" width="6" height="6"/>
      <rect class="st15" x="93" y="54" width="6" height="6"/>
      <rect class="st13" x="99" y="54" width="6" height="6"/>
      <rect class="st15" x="105" y="54" width="6" height="6"/>
      <rect class="st6" x="111" y="54" width="6" height="6"/>
      <rect class="st6" x="117" y="54" width="6" height="6"/>
      <rect class="st6" x="123" y="54" width="6" height="6"/>
      <rect class="st6" x="129" y="54" width="6" height="6"/>
      <rect class="st6" x="135" y="54" width="6" height="6"/>
      <rect class="st14" x="141" y="54" width="6" height="6"/>
      <rect class="st14" x="147" y="54" width="6" height="6"/>
      <rect class="st15" x="153" y="54" width="6" height="6"/>
      <rect class="st3" x="159" y="54" width="6" height="6"/>
      <rect class="st3" x="33" y="60" width="6" height="6"/>
      <rect class="st14" x="39" y="60" width="6" height="6"/>
      <rect class="st14" x="45" y="60" width="6" height="6"/>
      <rect class="st17" x="51" y="60" width="6" height="6"/>
      <rect class="st17" x="57" y="60" width="6" height="6"/>
      <rect class="st6" x="63" y="60" width="6" height="6"/>
      <rect class="st6" x="69" y="60" width="6" height="6"/>
      <rect class="st6" x="75" y="60" width="6" height="6"/>
      <rect class="st6" x="81" y="60" width="6" height="6"/>
      <rect class="st6" x="87" y="60" width="6" height="6"/>
      <rect class="st6" x="93" y="60" width="6" height="6"/>
      <rect class="st6" x="99" y="60" width="6" height="6"/>
      <rect class="st6" x="105" y="60" width="6" height="6"/>
      <rect class="st6" x="111" y="60" width="6" height="6"/>
      <rect class="st6" x="117" y="60" width="6" height="6"/>
      <rect class="st6" x="123" y="60" width="6" height="6"/>
      <rect class="st14" x="129" y="60" width="6" height="6"/>
      <rect class="st14" x="135" y="60" width="6" height="6"/>
      <rect class="st18" x="141" y="60" width="6" height="6"/>
      <rect class="st18" x="147" y="60" width="6" height="6"/>
      <rect class="st15" x="153" y="60" width="6" height="6"/>
      <rect class="st3" x="159" y="60" width="6" height="6"/>
      <rect class="st3" x="27" y="66" width="6" height="6"/>
      <rect class="st14" x="33" y="66" width="6" height="6"/>
      <rect class="st14" x="39" y="66" width="6" height="6"/>
      <rect class="st15" x="45" y="66" width="6" height="6"/>
      <rect class="st15" x="51" y="66" width="6" height="6"/>
      <rect class="st15" x="57" y="66" width="6" height="6"/>
      <rect class="st15" x="63" y="66" width="6" height="6"/>
      <rect class="st15" x="69" y="66" width="6" height="6"/>
      <rect class="st15" x="75" y="66" width="6" height="6"/>
      <rect class="st15" x="81" y="66" width="6" height="6"/>
      <rect class="st15" x="87" y="66" width="6" height="6"/>
      <rect class="st15" x="93" y="66" width="6" height="6"/>
      <rect class="st15" x="99" y="66" width="6" height="6"/>
      <rect class="st15" x="105" y="66" width="6" height="6"/>
      <rect class="st15" x="111" y="66" width="6" height="6"/>
      <rect class="st15" x="117" y="66" width="6" height="6"/>
      <rect class="st14" x="123" y="66" width="6" height="6"/>
      <rect class="st18" x="129" y="66" width="6" height="6"/>
      <rect class="st18" x="135" y="66" width="6" height="6"/>
      <rect class="st18" x="141" y="66" width="6" height="6"/>
      <rect class="st18" x="147" y="66" width="6" height="6"/>
      <rect class="st15" x="153" y="66" width="6" height="6"/>
      <rect class="st3" x="159" y="66" width="6" height="6"/>
      <rect class="st3" x="27" y="72" width="6" height="6"/>
      <rect class="st14" x="33" y="72" width="6" height="6"/>
      <rect class="st9" x="39" y="72" width="6" height="6"/>
      <rect class="st9" x="45" y="72" width="6" height="6"/>
      <rect class="st9" x="51" y="72" width="6" height="6"/>
      <rect class="st9" x="57" y="72" width="6" height="6"/>
      <rect class="st9" x="63" y="72" width="6" height="6"/>
      <rect class="st9" x="69" y="72" width="6" height="6"/>
      <rect class="st9" x="75" y="72" width="6" height="6"/>
      <rect class="st9" x="81" y="72" width="6" height="6"/>
      <rect class="st9" x="87" y="72" width="6" height="6"/>
      <rect class="st9" x="93" y="72" width="6" height="6"/>
      <rect class="st9" x="99" y="72" width="6" height="6"/>
      <rect class="st9" x="105" y="72" width="6" height="6"/>
      <rect class="st9" x="111" y="72" width="6" height="6"/>
      <rect class="st9" x="117" y="72" width="6" height="6"/>
      <rect class="st14" x="123" y="72" width="6" height="6"/>
      <rect class="st18" x="129" y="72" width="6" height="6"/>
      <rect class="st18" x="135" y="72" width="6" height="6"/>
      <rect class="st18" x="141" y="72" width="6" height="6"/>
      <rect class="st18" x="147" y="72" width="6" height="6"/>
      <rect class="st15" x="153" y="72" width="6" height="6"/>
      <rect class="st3" x="159" y="72" width="6" height="6"/>
      <rect class="st3" x="27" y="78" width="6" height="6"/>
      <rect class="st14" x="33" y="78" width="6" height="6"/>
      <rect class="st9" x="39" y="78" width="6" height="6"/>
      <rect class="st9" x="45" y="78" width="6" height="6"/>
      <rect class="st9" x="51" y="78" width="6" height="6"/>
      <rect class="st9" x="57" y="78" width="6" height="6"/>
      <rect class="st9" x="63" y="78" width="6" height="6"/>
      <rect class="st9" x="69" y="78" width="6" height="6"/>
      <rect class="st9" x="75" y="78" width="6" height="6"/>
      <rect class="st9" x="81" y="78" width="6" height="6"/>
      <rect class="st9" x="87" y="78" width="6" height="6"/>
      <rect class="st9" x="93" y="78" width="6" height="6"/>
      <rect class="st9" x="99" y="78" width="6" height="6"/>
      <rect class="st9" x="105" y="78" width="6" height="6"/>
      <rect class="st9" x="111" y="78" width="6" height="6"/>
      <rect class="st9" x="117" y="78" width="6" height="6"/>
      <rect class="st14" x="123" y="78" width="6" height="6"/>
      <rect class="st18" x="129" y="78" width="6" height="6"/>
      <rect class="st18" x="135" y="78" width="6" height="6"/>
      <rect class="st11" x="141" y="78" width="6" height="6"/>
      <rect class="st11" x="147" y="78" width="6" height="6"/>
      <rect class="st15" x="153" y="78" width="6" height="6"/>
      <rect class="st3" x="159" y="78" width="6" height="6"/>
      <rect class="st3" x="27" y="84" width="6" height="6"/>
      <rect class="st14" x="33" y="84" width="6" height="6"/>
      <rect class="st17" x="39" y="84" width="6" height="6"/>
      <rect class="st6" x="45" y="84" width="6" height="6"/>
      <rect class="st6" x="51" y="84" width="6" height="6"/>
      <rect class="st6" x="57" y="84" width="6" height="6"/>
      <rect class="st6" x="63" y="84" width="6" height="6"/>
      <rect class="st6" x="69" y="84" width="6" height="6"/>
      <rect class="st6" x="75" y="84" width="6" height="6"/>
      <rect class="st6" x="81" y="84" width="6" height="6"/>
      <rect class="st6" x="87" y="84" width="6" height="6"/>
      <rect class="st6" x="93" y="84" width="6" height="6"/>
      <rect class="st6" x="99" y="84" width="6" height="6"/>
      <rect class="st6" x="105" y="84" width="6" height="6"/>
      <rect class="st6" x="111" y="84" width="6" height="6"/>
      <rect class="st6" x="117" y="84" width="6" height="6"/>
      <rect class="st14" x="123" y="84" width="6" height="6"/>
      <rect class="st11" x="129" y="84" width="6" height="6"/>
      <rect class="st11" x="135" y="84" width="6" height="6"/>
      <rect class="st11" x="141" y="84" width="6" height="6"/>
      <rect class="st11" x="147" y="84" width="6" height="6"/>
      <rect class="st15" x="153" y="84" width="6" height="6"/>
      <rect class="st3" x="159" y="84" width="6" height="6"/>
      <rect class="st3" x="27" y="90" width="6" height="6"/>
      <rect class="st14" x="33" y="90" width="6" height="6"/>
      <rect class="st17" x="39" y="90" width="6" height="6"/>
      <rect class="st6" x="45" y="90" width="6" height="6"/>
      <rect class="st6" x="51" y="90" width="6" height="6"/>
      <rect class="st15" x="57" y="90" width="6" height="6"/>
      <rect class="st15" x="63" y="90" width="6" height="6"/>
      <rect class="st6" x="69" y="90" width="6" height="6"/>
      <rect class="st6" x="75" y="90" width="6" height="6"/>
      <rect class="st6" x="81" y="90" width="6" height="6"/>
      <rect class="st6" x="87" y="90" width="6" height="6"/>
      <rect class="st15" x="93" y="90" width="6" height="6"/>
      <rect class="st15" x="99" y="90" width="6" height="6"/>
      <rect class="st6" x="105" y="90" width="6" height="6"/>
      <rect class="st6" x="111" y="90" width="6" height="6"/>
      <rect class="st6" x="117" y="90" width="6" height="6"/>
      <rect class="st14" x="123" y="90" width="6" height="6"/>
      <rect class="st11" x="129" y="90" width="6" height="6"/>
      <rect class="st11" x="135" y="90" width="6" height="6"/>
      <rect class="st11" x="141" y="90" width="6" height="6"/>
      <rect class="st11" x="147" y="90" width="6" height="6"/>
      <rect class="st15" x="153" y="90" width="6" height="6"/>
      <rect class="st3" x="159" y="90" width="6" height="6"/>
      <rect class="st3" x="27" y="96" width="6" height="6"/>
      <rect class="st15" x="33" y="96" width="6" height="6"/>
      <rect class="st17" x="39" y="96" width="6" height="6"/>
      <rect class="st6" x="45" y="96" width="6" height="6"/>
      <rect class="st6" x="51" y="96" width="6" height="6"/>
      <rect class="st15" x="57" y="96" width="6" height="6"/>
      <rect class="st4" x="63" y="96" width="6" height="6"/>
      <rect class="st15" x="69" y="96" width="6" height="6"/>
      <rect class="st6" x="75" y="96" width="6" height="6"/>
      <rect class="st6" x="81" y="96" width="6" height="6"/>
      <rect class="st15" x="87" y="96" width="6" height="6"/>
      <rect class="st4" x="93" y="96" width="6" height="6"/>
      <rect class="st15" x="99" y="96" width="6" height="6"/>
      <rect class="st6" x="105" y="96" width="6" height="6"/>
      <rect class="st6" x="111" y="96" width="6" height="6"/>
      <rect class="st6" x="117" y="96" width="6" height="6"/>
      <rect class="st15" x="123" y="96" width="6" height="6"/>
      <rect class="st11" x="129" y="96" width="6" height="6"/>
      <rect class="st11" x="135" y="96" width="6" height="6"/>
      <rect class="st11" x="141" y="96" width="6" height="6"/>
      <rect class="st11" x="147" y="96" width="6" height="6"/>
      <rect class="st15" x="153" y="96" width="6" height="6"/>
      <rect class="st3" x="159" y="96" width="6" height="6"/>
      <rect class="st3" x="27" y="102" width="6" height="6"/>
      <rect class="st15" x="33" y="102" width="6" height="6"/>
      <rect class="st17" x="39" y="102" width="6" height="6"/>
      <rect class="st6" x="45" y="102" width="6" height="6"/>
      <rect class="st15" x="51" y="102" width="6" height="6"/>
      <rect class="st14" x="57" y="102" width="6" height="6"/>
      <rect class="st2" x="63" y="102" width="6" height="6"/>
      <rect class="st14" x="69" y="102" width="6" height="6"/>
      <rect class="st15" x="75" y="102" width="6" height="6"/>
      <rect class="st15" x="81" y="102" width="6" height="6"/>
      <rect class="st14" x="87" y="102" width="6" height="6"/>
      <rect class="st2" x="93" y="102" width="6" height="6"/>
      <rect class="st14" x="99" y="102" width="6" height="6"/>
      <rect class="st15" x="105" y="102" width="6" height="6"/>
      <rect class="st6" x="111" y="102" width="6" height="6"/>
      <rect class="st6" x="117" y="102" width="6" height="6"/>
      <rect class="st15" x="123" y="102" width="6" height="6"/>
      <rect class="st11" x="129" y="102" width="6" height="6"/>
      <rect class="st11" x="135" y="102" width="6" height="6"/>
      <rect class="st11" x="141" y="102" width="6" height="6"/>
      <rect class="st11" x="147" y="102" width="6" height="6"/>
      <rect class="st15" x="153" y="102" width="6" height="6"/>
      <rect class="st3" x="159" y="102" width="6" height="6"/>
      <rect class="st3" x="27" y="108" width="6" height="6"/>
      <rect class="st15" x="33" y="108" width="6" height="6"/>
      <rect class="st17" x="39" y="108" width="6" height="6"/>
      <rect class="st15" x="45" y="108" width="6" height="6"/>
      <rect class="st13" x="51" y="108" width="6" height="6"/>
      <rect class="st12" x="57" y="108" width="6" height="6"/>
      <rect class="st14" x="63" y="108" width="6" height="6"/>
      <rect class="st12" x="69" y="108" width="6" height="6"/>
      <rect class="st13" x="75" y="108" width="6" height="6"/>
      <rect class="st0" x="81" y="108" width="6" height="6"/>
      <rect class="st8" x="87" y="108" width="6" height="6"/>
      <rect class="st14" x="93" y="108" width="6" height="6"/>
      <rect class="st12" x="99" y="108" width="6" height="6"/>
      <rect class="st13" x="105" y="108" width="6" height="6"/>
      <rect class="st15" x="111" y="108" width="6" height="6"/>
      <rect class="st6" x="117" y="108" width="6" height="6"/>
      <rect class="st15" x="123" y="108" width="6" height="6"/>
      <rect class="st11" x="129" y="108" width="6" height="6"/>
      <rect class="st11" x="135" y="108" width="6" height="6"/>
      <rect class="st11" x="141" y="108" width="6" height="6"/>
      <rect class="st11" x="147" y="108" width="6" height="6"/>
      <rect class="st15" x="153" y="108" width="6" height="6"/>
      <rect class="st3" x="159" y="108" width="6" height="6"/>
      <rect class="st3" x="27" y="114" width="6" height="6"/>
      <rect class="st15" x="33" y="114" width="6" height="6"/>
      <rect class="st17" x="39" y="114" width="6" height="6"/>
      <rect class="st15" x="45" y="114" width="6" height="6"/>
      <rect class="st12" x="51" y="114" width="6" height="6"/>
      <rect class="st14" x="57" y="114" width="6" height="6"/>
      <rect class="st12" x="63" y="114" width="6" height="6"/>
      <rect class="st13" x="69" y="114" width="6" height="6"/>
      <rect class="st13" x="75" y="114" width="6" height="6"/>
      <rect class="st0" x="81" y="114" width="6" height="6"/>
      <rect class="st0" x="87" y="114" width="6" height="6"/>
      <rect class="st8" x="93" y="114" width="6" height="6"/>
      <rect class="st14" x="99" y="114" width="6" height="6"/>
      <rect class="st12" x="105" y="114" width="6" height="6"/>
      <rect class="st15" x="111" y="114" width="6" height="6"/>
      <rect class="st6" x="117" y="114" width="6" height="6"/>
      <rect class="st15" x="123" y="114" width="6" height="6"/>
      <rect class="st11" x="129" y="114" width="6" height="6"/>
      <rect class="st11" x="135" y="114" width="6" height="6"/>
      <rect class="st11" x="141" y="114" width="6" height="6"/>
      <rect class="st11" x="147" y="114" width="6" height="6"/>
      <rect class="st15" x="153" y="114" width="6" height="6"/>
      <rect class="st3" x="159" y="114" width="6" height="6"/>
      <rect class="st3" x="27" y="120" width="6" height="6"/>
      <rect class="st15" x="33" y="120" width="6" height="6"/>
      <rect class="st17" x="39" y="120" width="6" height="6"/>
      <rect class="st15" x="45" y="120" width="6" height="6"/>
      <rect class="st15" x="51" y="120" width="6" height="6"/>
      <rect class="st15" x="57" y="120" width="6" height="6"/>
      <rect class="st13" x="63" y="120" width="6" height="6"/>
      <rect class="st5" x="69" y="120" width="6" height="6"/>
      <rect class="st13" x="75" y="120" width="6" height="6"/>
      <rect class="st0" x="81" y="120" width="6" height="6"/>
      <rect class="st5" x="87" y="120" width="6" height="6"/>
      <rect class="st0" x="93" y="120" width="6" height="6"/>
      <rect class="st15" x="99" y="120" width="6" height="6"/>
      <rect class="st15" x="105" y="120" width="6" height="6"/>
      <rect class="st15" x="111" y="120" width="6" height="6"/>
      <rect class="st6" x="117" y="120" width="6" height="6"/>
      <rect class="st15" x="123" y="120" width="6" height="6"/>
      <rect class="st11" x="129" y="120" width="6" height="6"/>
      <rect class="st11" x="135" y="120" width="6" height="6"/>
      <rect class="st11" x="141" y="120" width="6" height="6"/>
      <rect class="st11" x="147" y="120" width="6" height="6"/>
      <rect class="st15" x="153" y="120" width="6" height="6"/>
      <rect class="st3" x="159" y="120" width="6" height="6"/>
      <rect class="st3" x="27" y="126" width="6" height="6"/>
      <rect class="st15" x="33" y="126" width="6" height="6"/>
      <rect class="st17" x="39" y="126" width="6" height="6"/>
      <rect class="st6" x="45" y="126" width="6" height="6"/>
      <rect class="st6" x="51" y="126" width="6" height="6"/>
      <rect class="st15" x="57" y="126" width="6" height="6"/>
      <rect class="st12" x="63" y="126" width="6" height="6"/>
      <rect class="st13" x="69" y="126" width="6" height="6"/>
      <rect class="st13" x="75" y="126" width="6" height="6"/>
      <rect class="st13" x="81" y="126" width="6" height="6"/>
      <rect class="st13" x="87" y="126" width="6" height="6"/>
      <rect class="st13" x="93" y="126" width="6" height="6"/>
      <rect class="st15" x="99" y="126" width="6" height="6"/>
      <rect class="st6" x="105" y="126" width="6" height="6"/>
      <rect class="st6" x="111" y="126" width="6" height="6"/>
      <rect class="st6" x="117" y="126" width="6" height="6"/>
      <rect class="st15" x="123" y="126" width="6" height="6"/>
      <rect class="st11" x="129" y="126" width="6" height="6"/>
      <rect class="st11" x="135" y="126" width="6" height="6"/>
      <rect class="st11" x="141" y="126" width="6" height="6"/>
      <rect class="st11" x="147" y="126" width="6" height="6"/>
      <rect class="st15" x="153" y="126" width="6" height="6"/>
      <rect class="st3" x="159" y="126" width="6" height="6"/>
      <rect class="st3" x="27" y="132" width="6" height="6"/>
      <rect class="st15" x="33" y="132" width="6" height="6"/>
      <rect class="st17" x="39" y="132" width="6" height="6"/>
      <rect class="st6" x="45" y="132" width="6" height="6"/>
      <rect class="st6" x="51" y="132" width="6" height="6"/>
      <rect class="st15" x="57" y="132" width="6" height="6"/>
      <rect class="st10" x="63" y="132" width="6" height="6"/>
      <rect class="st7" x="69" y="132" width="6" height="6"/>
      <rect class="st10" x="75" y="132" width="6" height="6"/>
      <rect class="st10" x="81" y="132" width="6" height="6"/>
      <rect class="st7" x="87" y="132" width="6" height="6"/>
      <rect class="st10" x="93" y="132" width="6" height="6"/>
      <rect class="st15" x="99" y="132" width="6" height="6"/>
      <rect class="st6" x="105" y="132" width="6" height="6"/>
      <rect class="st6" x="111" y="132" width="6" height="6"/>
      <rect class="st6" x="117" y="132" width="6" height="6"/>
      <rect class="st15" x="123" y="132" width="6" height="6"/>
      <rect class="st11" x="129" y="132" width="6" height="6"/>
      <rect class="st11" x="135" y="132" width="6" height="6"/>
      <rect class="st11" x="141" y="132" width="6" height="6"/>
      <rect class="st11" x="147" y="132" width="6" height="6"/>
      <rect class="st15" x="153" y="132" width="6" height="6"/>
      <rect class="st3" x="159" y="132" width="6" height="6"/>
      <rect class="st3" x="27" y="138" width="6" height="6"/>
      <rect class="st15" x="33" y="138" width="6" height="6"/>
      <rect class="st17" x="39" y="138" width="6" height="6"/>
      <rect class="st6" x="45" y="138" width="6" height="6"/>
      <rect class="st6" x="51" y="138" width="6" height="6"/>
      <rect class="st15" x="57" y="138" width="6" height="6"/>
      <rect class="st7" x="63" y="138" width="6" height="6"/>
      <rect class="st10" x="69" y="138" width="6" height="6"/>
      <rect class="st10" x="75" y="138" width="6" height="6"/>
      <rect class="st10" x="81" y="138" width="6" height="6"/>
      <rect class="st10" x="87" y="138" width="6" height="6"/>
      <rect class="st7" x="93" y="138" width="6" height="6"/>
      <rect class="st15" x="99" y="138" width="6" height="6"/>
      <rect class="st6" x="105" y="138" width="6" height="6"/>
      <rect class="st6" x="111" y="138" width="6" height="6"/>
      <rect class="st6" x="117" y="138" width="6" height="6"/>
      <rect class="st15" x="123" y="138" width="6" height="6"/>
      <rect class="st11" x="129" y="138" width="6" height="6"/>
      <rect class="st11" x="135" y="138" width="6" height="6"/>
      <rect class="st11" x="141" y="138" width="6" height="6"/>
      <rect class="st11" x="147" y="138" width="6" height="6"/>
      <rect class="st15" x="153" y="138" width="6" height="6"/>
      <rect class="st3" x="159" y="138" width="6" height="6"/>
      <rect class="st3" x="27" y="144" width="6" height="6"/>
      <rect class="st15" x="33" y="144" width="6" height="6"/>
      <rect class="st17" x="39" y="144" width="6" height="6"/>
      <rect class="st6" x="45" y="144" width="6" height="6"/>
      <rect class="st6" x="51" y="144" width="6" height="6"/>
      <rect class="st6" x="57" y="144" width="6" height="6"/>
      <rect class="st15" x="63" y="144" width="6" height="6"/>
      <rect class="st15" x="69" y="144" width="6" height="6"/>
      <rect class="st15" x="75" y="144" width="6" height="6"/>
      <rect class="st15" x="81" y="144" width="6" height="6"/>
      <rect class="st15" x="87" y="144" width="6" height="6"/>
      <rect class="st15" x="93" y="144" width="6" height="6"/>
      <rect class="st6" x="99" y="144" width="6" height="6"/>
      <rect class="st6" x="105" y="144" width="6" height="6"/>
      <rect class="st6" x="111" y="144" width="6" height="6"/>
      <rect class="st6" x="117" y="144" width="6" height="6"/>
      <rect class="st15" x="123" y="144" width="6" height="6"/>
      <rect class="st11" x="129" y="144" width="6" height="6"/>
      <rect class="st11" x="135" y="144" width="6" height="6"/>
      <rect class="st11" x="141" y="144" width="6" height="6"/>
      <rect class="st11" x="147" y="144" width="6" height="6"/>
      <rect class="st15" x="153" y="144" width="6" height="6"/>
      <rect class="st3" x="159" y="144" width="6" height="6"/>
      <rect class="st3" x="27" y="150" width="6" height="6"/>
      <rect class="st15" x="33" y="150" width="6" height="6"/>
      <rect class="st17" x="39" y="150" width="6" height="6"/>
      <rect class="st6" x="45" y="150" width="6" height="6"/>
      <rect class="st6" x="51" y="150" width="6" height="6"/>
      <rect class="st6" x="57" y="150" width="6" height="6"/>
      <rect class="st6" x="63" y="150" width="6" height="6"/>
      <rect class="st6" x="69" y="150" width="6" height="6"/>
      <rect class="st1" x="75" y="150" width="6" height="6"/>
      <rect class="st16" x="81" y="150" width="6" height="6"/>
      <rect class="st6" x="87" y="150" width="6" height="6"/>
      <rect class="st6" x="93" y="150" width="6" height="6"/>
      <rect class="st6" x="99" y="150" width="6" height="6"/>
      <rect class="st6" x="105" y="150" width="6" height="6"/>
      <rect class="st6" x="111" y="150" width="6" height="6"/>
      <rect class="st6" x="117" y="150" width="6" height="6"/>
      <rect class="st15" x="123" y="150" width="6" height="6"/>
      <rect class="st11" x="129" y="150" width="6" height="6"/>
      <rect class="st11" x="135" y="150" width="6" height="6"/>
      <rect class="st11" x="141" y="150" width="6" height="6"/>
      <rect class="st11" x="147" y="150" width="6" height="6"/>
      <rect class="st15" x="153" y="150" width="6" height="6"/>
      <rect class="st3" x="159" y="150" width="6" height="6"/>
      <rect class="st3" x="27" y="156" width="6" height="6"/>
      <rect class="st15" x="33" y="156" width="6" height="6"/>
      <rect class="st17" x="39" y="156" width="6" height="6"/>
      <rect class="st6" x="45" y="156" width="6" height="6"/>
      <rect class="st6" x="51" y="156" width="6" height="6"/>
      <rect class="st6" x="57" y="156" width="6" height="6"/>
      <rect class="st6" x="63" y="156" width="6" height="6"/>
      <rect class="st6" x="69" y="156" width="6" height="6"/>
      <rect class="st6" x="75" y="156" width="6" height="6"/>
      <rect class="st6" x="81" y="156" width="6" height="6"/>
      <rect class="st6" x="87" y="156" width="6" height="6"/>
      <rect class="st6" x="93" y="156" width="6" height="6"/>
      <rect class="st6" x="99" y="156" width="6" height="6"/>
      <rect class="st6" x="105" y="156" width="6" height="6"/>
      <rect class="st6" x="111" y="156" width="6" height="6"/>
      <rect class="st6" x="117" y="156" width="6" height="6"/>
      <rect class="st14" x="123" y="156" width="6" height="6"/>
      <rect class="st11" x="129" y="156" width="6" height="6"/>
      <rect class="st11" x="135" y="156" width="6" height="6"/>
      <rect class="st18" x="141" y="156" width="6" height="6"/>
      <rect class="st18" x="147" y="156" width="6" height="6"/>
      <rect class="st15" x="153" y="156" width="6" height="6"/>
      <rect class="st3" x="159" y="156" width="6" height="6"/>
      <rect class="st3" x="27" y="162" width="6" height="6"/>
      <rect class="st15" x="33" y="162" width="6" height="6"/>
      <rect class="st9" x="39" y="162" width="6" height="6"/>
      <rect class="st9" x="45" y="162" width="6" height="6"/>
      <rect class="st9" x="51" y="162" width="6" height="6"/>
      <rect class="st9" x="57" y="162" width="6" height="6"/>
      <rect class="st9" x="63" y="162" width="6" height="6"/>
      <rect class="st9" x="69" y="162" width="6" height="6"/>
      <rect class="st9" x="75" y="162" width="6" height="6"/>
      <rect class="st9" x="81" y="162" width="6" height="6"/>
      <rect class="st9" x="87" y="162" width="6" height="6"/>
      <rect class="st9" x="93" y="162" width="6" height="6"/>
      <rect class="st9" x="99" y="162" width="6" height="6"/>
      <rect class="st9" x="105" y="162" width="6" height="6"/>
      <rect class="st9" x="111" y="162" width="6" height="6"/>
      <rect class="st9" x="117" y="162" width="6" height="6"/>
      <rect class="st14" x="123" y="162" width="6" height="6"/>
      <rect class="st18" x="129" y="162" width="6" height="6"/>
      <rect class="st18" x="135" y="162" width="6" height="6"/>
      <rect class="st15" x="141" y="162" width="6" height="6"/>
      <rect class="st15" x="147" y="162" width="6" height="6"/>
      <rect class="st3" x="153" y="162" width="6" height="6"/>
      <rect class="st3" x="27" y="168" width="6" height="6"/>
      <rect class="st15" x="33" y="168" width="6" height="6"/>
      <rect class="st9" x="39" y="168" width="6" height="6"/>
      <rect class="st9" x="45" y="168" width="6" height="6"/>
      <rect class="st9" x="51" y="168" width="6" height="6"/>
      <rect class="st9" x="57" y="168" width="6" height="6"/>
      <rect class="st9" x="63" y="168" width="6" height="6"/>
      <rect class="st9" x="69" y="168" width="6" height="6"/>
      <rect class="st9" x="75" y="168" width="6" height="6"/>
      <rect class="st9" x="81" y="168" width="6" height="6"/>
      <rect class="st9" x="87" y="168" width="6" height="6"/>
      <rect class="st9" x="93" y="168" width="6" height="6"/>
      <rect class="st9" x="99" y="168" width="6" height="6"/>
      <rect class="st9" x="105" y="168" width="6" height="6"/>
      <rect class="st9" x="111" y="168" width="6" height="6"/>
      <rect class="st9" x="117" y="168" width="6" height="6"/>
      <rect class="st14" x="123" y="168" width="6" height="6"/>
      <rect class="st14" x="129" y="168" width="6" height="6"/>
      <rect class="st15" x="135" y="168" width="6" height="6"/>
      <rect class="st3" x="141" y="168" width="6" height="6"/>
      <rect class="st3" x="147" y="168" width="6" height="6"/>
      <rect class="st3" x="33" y="174" width="6" height="6"/>
      <rect class="st15" x="39" y="174" width="6" height="6"/>
      <rect class="st15" x="45" y="174" width="6" height="6"/>
      <rect class="st15" x="51" y="174" width="6" height="6"/>
      <rect class="st15" x="57" y="174" width="6" height="6"/>
      <rect class="st15" x="63" y="174" width="6" height="6"/>
      <rect class="st15" x="69" y="174" width="6" height="6"/>
      <rect class="st15" x="75" y="174" width="6" height="6"/>
      <rect class="st15" x="81" y="174" width="6" height="6"/>
      <rect class="st15" x="87" y="174" width="6" height="6"/>
      <rect class="st15" x="93" y="174" width="6" height="6"/>
      <rect class="st15" x="99" y="174" width="6" height="6"/>
      <rect class="st14" x="105" y="174" width="6" height="6"/>
      <rect class="st14" x="111" y="174" width="6" height="6"/>
      <rect class="st14" x="117" y="174" width="6" height="6"/>
      <rect class="st3" x="123" y="174" width="6" height="6"/>
      <rect class="st3" x="129" y="174" width="6" height="6"/>
      <rect class="st3" x="135" y="174" width="6" height="6"/>
      <rect class="st3" x="39" y="180" width="6" height="6"/>
      <rect class="st3" x="45" y="180" width="6" height="6"/>
      <rect class="st3" x="51" y="180" width="6" height="6"/>
      <rect class="st3" x="57" y="180" width="6" height="6"/>
      <rect class="st3" x="63" y="180" width="6" height="6"/>
      <rect class="st3" x="69" y="180" width="6" height="6"/>
      <rect class="st3" x="75" y="180" width="6" height="6"/>
      <rect class="st3" x="81" y="180" width="6" height="6"/>
      <rect class="st3" x="87" y="180" width="6" height="6"/>
      <rect class="st3" x="93" y="180" width="6" height="6"/>
      <rect class="st3" x="99" y="180" width="6" height="6"/>
      <rect class="st3" x="105" y="180" width="6" height="6"/>
      <rect class="st3" x="111" y="180" width="6" height="6"/>
      <rect class="st3" x="117" y="180" width="6" height="6"/>
    </g>
  </g>
</svg>