<?xml version="1.0" encoding="UTF-8"?><svg id="Layer_1" xmlns="http://www.w3.org/2000/svg" viewBox="0 0 500 430"><defs><style>.cls-1,.cls-2{stroke:#914938;stroke-miterlimit:10;stroke-width:2px;}.cls-1,.cls-3{fill:#914938;}.cls-4{fill:#f4ebd4;font-family:Roboto-Bold, Roboto;font-size:20.36px;font-weight:700;}.cls-2{fill:none;}.cls-3{stroke-width:0px;}</style></defs><path class="cls-3" d="m297.52,252.16c-23.04,2.52-55.8,4.32-86.04,4.32-1.08,12.6-2.16,26.64-2.16,33.48,0,57.6,38.16,62.28,71.64,62.28,56.52,0,84.6-16.2,84.6-49.32,0-18.72-10.08-42.12-29.52-66.24,6.84-2.16,17.28-6.12,23.04-9,21.96,28.44,33.12,55.8,33.12,79.2,0,60.48-67.68,69.48-111.24,69.48-34.56,0-96.48-2.52-96.48-86.4,0-16.2,1.44-28.08,2.16-34.2-30.24-1.08-78.84-2.88-78.84-39.96,0-16.2,9.36-31.32,30.6-46.44l19.08,11.16c-15.84,9.72-25.2,21.6-25.2,31.32,0,19.08,28.8,19.8,56.16,20.52,2.52-24.12,5.76-52.56,9-80.64-25.92-2.88-55.8-10.08-75.6-19.8l6.48-23.4c19.8,9.36,45,16.2,72,19.44,2.88-22.68,5.4-45.72,7.92-64.8l37.44,4.68c-1.08,4.32-5.04,6.84-11.52,7.2-2.52,15.12-5.4,34.92-8.28,55.44,10.44.72,21.6,1.08,33.12,1.08,13.68,0,27.72-.36,40.68-1.44l-1.08,23.76c-10.8.72-23.04,1.08-35.28,1.08-14.04,0-28.08-.36-40.68-1.08-3.6,27-6.84,54.72-9.36,79.2,28.44,0,60.12-1.8,83.88-5.04l.36,24.12Z"/><path class="cls-2" d="m151.19,102.44s50.88,17.91,126.79,13.85"/><path class="cls-2" d="m154.53,215.92s88.84,7.81,116.75,0"/><line class="cls-2" x1="246.32" y1="86.5" x2="233.29" y2="180.05"/><polygon class="cls-1" points="272.96 116.66 272.91 111.91 278.79 114.23 284.68 116.55 278.84 118.98 273 121.41 272.96 116.66"/><polygon class="cls-1" points="265.59 217.03 264.98 212.31 271.1 213.92 277.21 215.53 271.7 218.63 266.19 221.74 265.59 217.03"/><polygon class="cls-1" points="234.4 171.73 239.09 172.5 235.79 177.9 232.5 183.3 231.11 177.13 229.71 170.96 234.4 171.73"/><circle class="cls-1" cx="140.11" cy="76.44" r="16.1"/><text class="cls-4" transform="translate(134.27 83.74)"><tspan x="0" y="0">2</tspan></text><circle class="cls-1" cx="274.06" cy="69.74" r="16.1"/><text class="cls-4" transform="translate(268.22 77.04)"><tspan x="0" y="0">1</tspan></text><circle class="cls-1" cx="164.67" cy="186.95" r="16.1"/><text class="cls-4" transform="translate(158.83 194.25)"><tspan x="0" y="0">3</tspan></text></svg>