<?xml version="1.0" encoding="UTF-8"?><svg id="Layer_1" xmlns="http://www.w3.org/2000/svg" viewBox="0 0 500 430"><defs><style>.cls-1,.cls-2{stroke:#914938;stroke-miterlimit:10;stroke-width:2px;}.cls-1,.cls-3{fill:#914938;}.cls-4{fill:#f4ebd4;font-family:Roboto-Bold, Roboto;font-size:20.36px;font-weight:700;}.cls-2{fill:none;}.cls-3{stroke-width:0px;}</style></defs><path class="cls-3" d="m225.49,65.71c-.36,3.96-3.6,6.12-10.08,7.56-.36,13.68-1.44,27.36-2.16,41.76,29.52-2.88,56.88-8.28,78.12-14.76l3.96,24.12c-20.52,6.12-50.76,11.52-83.88,14.04-2.52,30.6-5.4,59.04-7.2,76.68.72,3.96.72,7.92.72,12.24,0,19.8-6.12,41.76-16.92,55.8-7.2,14.4-10.8,25.92-10.8,34.92,0,26.64,29.88,29.88,68.76,29.88,73.08,0,105.12-10.08,105.12-47.16,0-18.36-9.72-42.12-33.12-70.2,6.84-2.52,15.48-5.76,21.96-9.72,25.92,32.04,38.16,61.2,38.16,84.96,0,28.08-16.92,48.6-48.24,56.88-9.72,2.52-36,8.28-82.44,8.28-30.24,0-95.04,0-95.04-45.72,0-8.28,2.16-17.64,6.84-27.72-5.4,2.16-11.16,3.24-16.92,3.24-21.96,0-43.2-17.28-43.2-52.2,0-42.84,28.44-67.68,58.32-67.68,9.72,0,18.72,3.96,24.48,10.44l3.96-51.84c-29.16,1.44-76.68.72-77.04.72v-23.04c14.04.36,69.48,0,78.12-.36,1.44-19.8,2.16-38.88,2.16-54.36l36.36,3.24Zm-43.92,164.88c0-16.56-7.56-30.24-23.4-30.24-24.84,0-38.16,20.88-38.16,46.08,0,20.16,10.44,33.12,26.64,33.12,30.6,0,34.92-41.4,34.92-48.96Zm226.08-44.28c-27-14.4-65.16-23.76-100.08-28.44l5.4-22.32c35.28,3.96,75.24,13.32,102.6,27l-7.92,23.76Z"/><line class="cls-2" x1="113.6" y1="103.27" x2="181.57" y2="102.97"/><path class="cls-2" d="m230.01,83.63s-5.31,76.33-7.44,97.99"/><path class="cls-2" d="m95.18,287.99s-31.97-43.89,10.83-96.83"/><path class="cls-2" d="m391.92,300.48c-1.96-4.36,1.23-27.52-31.62-71.47"/><path class="cls-2" d="m322.87,122.66s50.13,6.29,90.34,24.28"/><polygon class="cls-1" points="170.49 102.94 170.43 98.19 176.32 100.49 182.21 102.79 176.38 105.24 170.55 107.69 170.49 102.94"/><polygon class="cls-1" points="223.19 173 227.92 173.47 224.97 179.07 222.03 184.66 220.25 178.6 218.46 172.53 223.19 173"/><polygon class="cls-1" points="103.64 194.24 99.89 191.32 105.36 188.15 110.83 184.98 109.11 191.06 107.4 197.15 103.64 194.24"/><polygon class="cls-1" points="362.46 231.5 358.72 234.44 356.97 228.36 355.21 222.29 360.7 225.43 366.19 228.57 362.46 231.5"/><polygon class="cls-1" points="405.4 143.72 407.16 139.3 411.73 143.68 416.29 148.05 409.97 148.09 403.65 148.13 405.4 143.72"/><circle class="cls-1" cx="104.7" cy="75.1" r="16.1"/><text class="cls-4" transform="translate(98.86 82.41)"><tspan x="0" y="0">1</tspan></text><circle class="cls-1" cx="256.52" cy="77.34" r="16.1"/><text class="cls-4" transform="translate(250.68 84.64)"><tspan x="0" y="0">2</tspan></text><circle class="cls-1" cx="339.12" cy="95.2" r="16.1"/><text class="cls-4" transform="translate(333.28 102.5)"><tspan x="0" y="0">3</tspan></text></svg>