<?xml version="1.0" encoding="UTF-8"?><svg id="Layer_1" xmlns="http://www.w3.org/2000/svg" viewBox="0 0 500 430"><defs><style>.cls-1,.cls-2{stroke:#914938;stroke-miterlimit:10;stroke-width:2px;}.cls-1,.cls-3{fill:#914938;}.cls-4{fill:#f4ebd4;font-family:Roboto-Bold, Roboto;font-size:20.36px;font-weight:700;}.cls-2{fill:none;}.cls-3{stroke-width:0px;}</style></defs><path class="cls-3" d="m83.31,371.72c26.64-76.32,70.92-203.76,84.96-241.92,6.84-19.44,16.2-46.8,18.72-55.8l38.88,10.08c-1.8,5.04-6.84,6.84-14.04,6.84-19.8,49.32-50.4,133.56-63.72,169.56h.36c21.24-25.92,53.64-44.28,78.84-44.28,31.32,0,46.44,21.24,45.36,54.72l-1.08,42.84c-.36,27,14.04,41.76,37.44,41.76,32.4,0,62.28-37.08,78.84-99,7.2,5.04,15.84,9.72,23.4,13.32-19.8,68.76-55.44,111.96-103.32,111.96-38.16,0-63-23.04-63-59.76,0-6.84,1.08-39.96,1.08-47.52,0-22.68-9.36-34.56-25.2-34.56-41.4,0-83.16,60.12-92.16,83.52-5.04,12.6-12.96,35.64-19.8,56.52l-25.56-8.28Z"/><line class="cls-2" x1="169.83" y1="82.2" x2="130.45" y2="194.7"/><path class="cls-2" d="m132.43,355.56s17.54-55.76,43.91-78.33"/><path class="cls-2" d="m357.3,382.98s30.16-8.65,57.15-75.87"/><polygon class="cls-1" points="131.48 190.75 135.86 192.59 131.4 197.07 126.94 201.55 127.02 195.23 127.11 188.91 131.48 190.75"/><polygon class="cls-1" points="171.57 281.55 168.14 278.27 173.91 275.68 179.68 273.09 177.34 278.97 175 284.84 171.57 281.55"/><polygon class="cls-1" points="412.24 312.45 407.78 310.8 412.04 306.13 416.31 301.46 416.5 307.78 416.69 314.1 412.24 312.45"/><circle class="cls-1" cx="150.64" cy="63.11" r="16.1"/><text class="cls-4" transform="translate(144.8 70.42)"><tspan x="0" y="0">1</tspan></text></svg>