<?xml version="1.0" encoding="UTF-8"?><svg id="Layer_1" xmlns="http://www.w3.org/2000/svg" viewBox="0 0 500 430"><defs><style>.cls-1,.cls-2{stroke:#914938;stroke-miterlimit:10;stroke-width:2px;}.cls-1,.cls-3{fill:#914938;}.cls-4{fill:#f4ebd4;font-family:Roboto-Bold, Roboto;font-size:20.36px;font-weight:700;}.cls-2{fill:none;}.cls-3{stroke-width:0px;}</style></defs><path class="cls-3" d="m224.08,61.55c-1.08,2.88-4.68,5.76-11.16,6.12-2.52,15.84-5.76,34.56-9,48.6,35.28-2.16,74.52-8.28,105.84-17.64l3.96,24.48c-33.48,8.28-73.08,14.04-114.48,17.28-17.28,69.12-41.04,125.28-76.32,177.12l-24.12-9.72c32.76-47.16,57.6-101.16,73.08-166.68h-71.64v-23.4h42.84c11.16,0,22.68-.36,33.12-.36,4.32-19.08,7.56-39.6,10.08-60.84l37.8,5.04Zm95.76,153.36c.36,29.16,2.52,48.96,4.68,73.8,23.04,9,52.92,24.48,76.68,41.76l-12.96,23.04c-19.8-15.12-44.28-29.16-63.72-37.8,0,36-14.4,64.08-67.32,64.08-39.96,0-70.56-18-70.2-51.84,0-36,37.8-53.28,70.92-53.28,12.96,0,26.28,2.52,40.68,6.48-1.44-23.04-3.24-46.44-3.24-63.36l24.48-2.88Zm-19.8,90c-14.76-5.76-29.88-8.28-42.84-8.28-21.6,0-47.16,8.64-47.52,30.96,0,20.52,20.16,30.24,48.24,30.24,25.92,0,42.48-12.6,42.48-36.36,0-5.76,0-11.16-.36-16.56Zm98.64-127.08c-40.68.36-90,6.84-127.44,17.64l-3.96-22.68c41.04-11.88,90.72-19.44,129.96-19.44l1.44,24.48Z"/><path class="cls-2" d="m115.61,103.71s108.68,3.74,161.22-10.95"/><path class="cls-2" d="m226.14,72.53s-16.68,118.71-47.11,169.31"/><path class="cls-2" d="m271.82,157.5s60.29-16.94,117.25-18.05"/><path class="cls-2" d="m331.06,225.46s.23,35.84,3.66,54.2"/><polygon class="cls-1" points="273 93.84 271.82 89.24 278.09 90.08 284.35 90.91 279.27 94.68 274.19 98.44 273 93.84"/><polygon class="cls-1" points="181.58 237.62 185.57 240.2 180.39 243.83 175.21 247.46 176.41 241.25 177.6 235.04 181.58 237.62"/><polygon class="cls-1" points="380.84 139.45 381.01 134.71 386.78 137.29 392.55 139.88 386.61 142.04 380.67 144.2 380.84 139.45"/><polygon class="cls-1" points="333.46 270.15 338.11 269.17 336.99 275.39 335.87 281.62 332.34 276.37 328.81 271.12 333.46 270.15"/><circle class="cls-1" cx="115.61" cy="75.1" r="16.1"/><text class="cls-4" transform="translate(109.77 82.4)"><tspan x="0" y="0">1</tspan></text><circle class="cls-1" cx="251.86" cy="66.31" r="16.1"/><text class="cls-4" transform="translate(246.02 73.62)"><tspan x="0" y="0">2</tspan></text><circle class="cls-1" cx="246.31" cy="160.55" r="16.1"/><text class="cls-4" transform="translate(240.47 167.86)"><tspan x="0" y="0">3</tspan></text><circle class="cls-1" cx="351.81" cy="209.04" r="16.1"/><text class="cls-4" transform="translate(345.98 216.35)"><tspan x="0" y="0">4</tspan></text></svg>