<?xml version="1.0" encoding="utf-8"?>
<!-- Generator: Adobe Illustrator 27.9.0, SVG Export Plug-In . SVG Version: 6.00 Build 0)  -->
<svg version="1.1" id="Layer_1" shape-rendering="crispEdges"
	 xmlns="http://www.w3.org/2000/svg" xmlns:xlink="http://www.w3.org/1999/xlink" x="0px" y="0px" viewBox="0 0 192 192"
	 style="enable-background:new 0 0 192 192;" xml:space="preserve">
<style type="text/css">
	.st0{fill:#FF9648;}
	.st1{fill:#4973A9;}
	.st2{fill:#6C7AA7;}
	.st3{fill:#F1B5AE;}
	.st4{fill:#ED9392;}
	.st5{fill:#EEA03B;}
	.st6{fill:#914938;}
	.st7{fill:#D58721;}
	.st8{fill:#8D5386;}
	.st9{fill:#50B06E;}
	.st10{fill:#AB5B43;}
	.st11{fill:#7D3D2E;}
	.st12{fill:#B5E273;}
	.st13{fill:#1E8C54;}
	.st14{fill:#FFFADB;}
	.st15{fill:#6BD46C;}
	.st16{fill:#4A8E72;}
	.st17{fill:#AE865B;}
	.st18{fill:#958979;}
	.st19{fill:#35933B;}
	.st20{fill:#D3D15C;}
	.st21{fill:#C9EDB8;}
	.st22{fill:#AE97A9;}
	.st23{fill:#EDE5B7;}
	.st24{fill:#8ACC59;}
	.st25{fill:#A74C2F;}
	.st26{fill:#D0583B;}
	.st27{fill:#FF7E36;}
	.st28{fill:#1D8566;}
	.st29{fill:#E66720;}
	.st30{fill:#E0603D;}
	.st31{fill:#EECC11;}
	.st32{fill:#C0BA93;}
	.st33{fill:#EEAD11;}
	.st34{fill:#EAE4BB;}
	.st35{fill:#7F803E;}
	.st36{fill:#A7A178;}
	.st37{fill:#E2A20B;}
</style>
<g>
	<rect x="78.7" y="9.7" class="st0" width="5.8" height="5.8"/>
	<rect x="84.5" y="9.7" class="st0" width="5.8" height="5.8"/>
	<rect x="90.2" y="9.7" class="st0" width="5.8" height="5.8"/>
	<rect x="96" y="9.7" class="st0" width="5.8" height="5.8"/>
	<rect x="101.8" y="9.7" class="st0" width="5.8" height="5.8"/>
	<rect x="107.5" y="9.7" class="st0" width="5.8" height="5.8"/>
	<rect x="61.5" y="15.5" class="st0" width="5.8" height="5.8"/>
	<rect x="67.2" y="15.5" class="st0" width="5.8" height="5.8"/>
	<rect x="73" y="15.5" class="st0" width="5.8" height="5.8"/>
	<rect x="78.7" y="15.5" class="st1" width="5.8" height="5.8"/>
	<rect x="84.5" y="15.5" class="st2" width="5.8" height="5.8"/>
	<rect x="90.2" y="15.5" class="st2" width="5.8" height="5.8"/>
	<rect x="96" y="15.5" class="st2" width="5.8" height="5.8"/>
	<rect x="101.8" y="15.5" class="st1" width="5.8" height="5.8"/>
	<rect x="107.5" y="15.5" class="st1" width="5.8" height="5.8"/>
	<rect x="113.3" y="15.5" class="st0" width="5.8" height="5.8"/>
	<rect x="119" y="15.5" class="st0" width="5.8" height="5.8"/>
	<rect x="124.8" y="15.5" class="st0" width="5.8" height="5.8"/>
	<rect x="55.7" y="21.2" class="st0" width="5.8" height="5.8"/>
	<rect x="61.5" y="21.2" class="st1" width="5.8" height="5.8"/>
	<rect x="67.2" y="21.2" class="st1" width="5.8" height="5.8"/>
	<rect x="73" y="21.2" class="st2" width="5.8" height="5.8"/>
	<rect x="78.7" y="21.2" class="st3" width="5.8" height="5.8"/>
	<rect x="84.5" y="21.2" class="st3" width="5.8" height="5.8"/>
	<rect x="90.2" y="21.2" class="st3" width="5.8" height="5.8"/>
	<rect x="96" y="21.2" class="st3" width="5.8" height="5.8"/>
	<rect x="101.8" y="21.2" class="st3" width="5.8" height="5.8"/>
	<rect x="107.5" y="21.2" class="st3" width="5.8" height="5.8"/>
	<rect x="113.3" y="21.2" class="st1" width="5.8" height="5.8"/>
	<rect x="119" y="21.2" class="st1" width="5.8" height="5.8"/>
	<rect x="124.8" y="21.2" class="st1" width="5.8" height="5.8"/>
	<rect x="130.5" y="21.2" class="st0" width="5.8" height="5.8"/>
	<rect x="50" y="27" class="st0" width="5.8" height="5.8"/>
	<rect x="55.7" y="27" class="st2" width="5.8" height="5.8"/>
	<rect x="61.5" y="27" class="st3" width="5.8" height="5.8"/>
	<rect x="67.2" y="27" class="st3" width="5.8" height="5.8"/>
	<rect x="73" y="27" class="st4" width="5.8" height="5.8"/>
	<rect x="78.7" y="27" class="st5" width="5.8" height="5.8"/>
	<rect x="84.5" y="27" class="st5" width="5.8" height="5.8"/>
	<rect x="90.2" y="27" class="st6" width="5.8" height="5.8"/>
	<rect x="96" y="27" class="st6" width="5.8" height="5.8"/>
	<rect x="101.8" y="27" class="st6" width="5.8" height="5.8"/>
	<rect x="107.5" y="27" class="st7" width="5.8" height="5.8"/>
	<rect x="113.3" y="27" class="st3" width="5.8" height="5.8"/>
	<rect x="119" y="27" class="st3" width="5.8" height="5.8"/>
	<rect x="124.8" y="27" class="st3" width="5.8" height="5.8"/>
	<rect x="130.5" y="27" class="st1" width="5.8" height="5.8"/>
	<rect x="136.3" y="27" class="st0" width="5.8" height="5.8"/>
	<rect x="44.2" y="32.7" class="st0" width="5.8" height="5.8"/>
	<rect x="50" y="32.7" class="st2" width="5.8" height="5.8"/>
	<rect x="55.7" y="32.7" class="st3" width="5.8" height="5.8"/>
	<rect x="61.5" y="32.7" class="st8" width="5.8" height="5.8"/>
	<rect x="67.2" y="32.7" class="st8" width="5.8" height="5.8"/>
	<rect x="73" y="32.7" class="st9" width="5.8" height="5.8"/>
	<rect x="78.7" y="32.7" class="st5" width="5.8" height="5.8"/>
	<rect x="84.5" y="32.7" class="st6" width="5.8" height="5.8"/>
	<rect x="90.2" y="32.7" class="st6" width="5.8" height="5.8"/>
	<rect x="96" y="32.7" class="st6" width="5.8" height="5.8"/>
	<rect x="101.8" y="32.7" class="st6" width="5.8" height="5.8"/>
	<rect x="107.5" y="32.7" class="st6" width="5.8" height="5.8"/>
	<rect x="113.3" y="32.7" class="st7" width="5.8" height="5.8"/>
	<rect x="119" y="32.7" class="st10" width="5.8" height="5.8"/>
	<rect x="124.8" y="32.7" class="st10" width="5.8" height="5.8"/>
	<rect x="130.5" y="32.7" class="st3" width="5.8" height="5.8"/>
	<rect x="136.3" y="32.7" class="st1" width="5.8" height="5.8"/>
	<rect x="142" y="32.7" class="st0" width="5.8" height="5.8"/>
	<rect x="38.5" y="38.5" class="st0" width="5.8" height="5.8"/>
	<rect x="44.2" y="38.5" class="st2" width="5.8" height="5.8"/>
	<rect x="50" y="38.5" class="st4" width="5.8" height="5.8"/>
	<rect x="55.7" y="38.5" class="st11" width="5.8" height="5.8"/>
	<rect x="61.5" y="38.5" class="st9" width="5.8" height="5.8"/>
	<rect x="67.2" y="38.5" class="st12" width="5.8" height="5.8"/>
	<rect x="73" y="38.5" class="st13" width="5.8" height="5.8"/>
	<rect x="78.7" y="38.5" class="st6" width="5.8" height="5.8"/>
	<rect x="84.5" y="38.5" class="st6" width="5.8" height="5.8"/>
	<rect x="90.2" y="38.5" class="st14" width="5.8" height="5.8"/>
	<rect x="96" y="38.5" class="st6" width="5.8" height="5.8"/>
	<rect x="101.8" y="38.5" class="st14" width="5.8" height="5.8"/>
	<rect x="107.5" y="38.5" class="st6" width="5.8" height="5.8"/>
	<rect x="113.3" y="38.5" class="st6" width="5.8" height="5.8"/>
	<rect x="119" y="38.5" class="st7" width="5.8" height="5.8"/>
	<rect x="124.8" y="38.5" class="st5" width="5.8" height="5.8"/>
	<rect x="130.5" y="38.5" class="st10" width="5.8" height="5.8"/>
	<rect x="136.3" y="38.5" class="st3" width="5.8" height="5.8"/>
	<rect x="142" y="38.5" class="st1" width="5.8" height="5.8"/>
	<rect x="147.8" y="38.5" class="st0" width="5.8" height="5.8"/>
	<rect x="32.7" y="44.2" class="st0" width="5.8" height="5.8"/>
	<rect x="38.5" y="44.2" class="st2" width="5.8" height="5.8"/>
	<rect x="44.2" y="44.2" class="st3" width="5.8" height="5.8"/>
	<rect x="50" y="44.2" class="st8" width="5.8" height="5.8"/>
	<rect x="55.7" y="44.2" class="st15" width="5.8" height="5.8"/>
	<rect x="61.5" y="44.2" class="st12" width="5.8" height="5.8"/>
	<rect x="67.2" y="44.2" class="st16" width="5.8" height="5.8"/>
	<rect x="73" y="44.2" class="st5" width="5.8" height="5.8"/>
	<rect x="78.7" y="44.2" class="st6" width="5.8" height="5.8"/>
	<rect x="84.5" y="44.2" class="st6" width="5.8" height="5.8"/>
	<rect x="90.2" y="44.2" class="st6" width="5.8" height="5.8"/>
	<rect x="96" y="44.2" class="st14" width="5.8" height="5.8"/>
	<rect x="101.8" y="44.2" class="st6" width="5.8" height="5.8"/>
	<rect x="107.5" y="44.2" class="st6" width="5.8" height="5.8"/>
	<rect x="113.3" y="44.2" class="st6" width="5.8" height="5.8"/>
	<rect x="119" y="44.2" class="st17" width="5.8" height="5.8"/>
	<rect x="124.8" y="44.2" class="st5" width="5.8" height="5.8"/>
	<rect x="130.5" y="44.2" class="st18" width="5.8" height="5.8"/>
	<rect x="136.3" y="44.2" class="st10" width="5.8" height="5.8"/>
	<rect x="142" y="44.2" class="st3" width="5.8" height="5.8"/>
	<rect x="147.8" y="44.2" class="st1" width="5.8" height="5.8"/>
	<rect x="153.5" y="44.2" class="st0" width="5.8" height="5.8"/>
	<rect x="27" y="50" class="st0" width="5.8" height="5.8"/>
	<rect x="32.7" y="50" class="st1" width="5.8" height="5.8"/>
	<rect x="38.5" y="50" class="st3" width="5.8" height="5.8"/>
	<rect x="44.2" y="50" class="st8" width="5.8" height="5.8"/>
	<rect x="50" y="50" class="st19" width="5.8" height="5.8"/>
	<rect x="55.7" y="50" class="st19" width="5.8" height="5.8"/>
	<rect x="61.5" y="50" class="st20" width="5.8" height="5.8"/>
	<rect x="67.2" y="50" class="st20" width="5.8" height="5.8"/>
	<rect x="73" y="50" class="st16" width="5.8" height="5.8"/>
	<rect x="78.7" y="50" class="st6" width="5.8" height="5.8"/>
	<rect x="84.5" y="50" class="st6" width="5.8" height="5.8"/>
	<rect x="90.2" y="50" class="st14" width="5.8" height="5.8"/>
	<rect x="96" y="50" class="st6" width="5.8" height="5.8"/>
	<rect x="101.8" y="50" class="st14" width="5.8" height="5.8"/>
	<rect x="107.5" y="50" class="st6" width="5.8" height="5.8"/>
	<rect x="113.3" y="50" class="st6" width="5.8" height="5.8"/>
	<rect x="119" y="50" class="st7" width="5.8" height="5.8"/>
	<rect x="124.8" y="50" class="st18" width="5.8" height="5.8"/>
	<rect x="130.5" y="50" class="st5" width="5.8" height="5.8"/>
	<rect x="136.3" y="50" class="st5" width="5.8" height="5.8"/>
	<rect x="142" y="50" class="st10" width="5.8" height="5.8"/>
	<rect x="147.8" y="50" class="st3" width="5.8" height="5.8"/>
	<rect x="153.5" y="50" class="st1" width="5.8" height="5.8"/>
	<rect x="159.3" y="50" class="st0" width="5.8" height="5.8"/>
	<rect x="21.2" y="55.7" class="st0" width="5.8" height="5.8"/>
	<rect x="27" y="55.7" class="st1" width="5.8" height="5.8"/>
	<rect x="32.7" y="55.7" class="st3" width="5.8" height="5.8"/>
	<rect x="38.5" y="55.7" class="st9" width="5.8" height="5.8"/>
	<rect x="44.2" y="55.7" class="st12" width="5.8" height="5.8"/>
	<rect x="50" y="55.7" class="st19" width="5.8" height="5.8"/>
	<rect x="55.7" y="55.7" class="st21" width="5.8" height="5.8"/>
	<rect x="61.5" y="55.7" class="st19" width="5.8" height="5.8"/>
	<rect x="67.2" y="55.7" class="st20" width="5.8" height="5.8"/>
	<rect x="73" y="55.7" class="st16" width="5.8" height="5.8"/>
	<rect x="78.7" y="55.7" class="st5" width="5.8" height="5.8"/>
	<rect x="84.5" y="55.7" class="st6" width="5.8" height="5.8"/>
	<rect x="90.2" y="55.7" class="st6" width="5.8" height="5.8"/>
	<rect x="96" y="55.7" class="st6" width="5.8" height="5.8"/>
	<rect x="101.8" y="55.7" class="st6" width="5.8" height="5.8"/>
	<rect x="107.5" y="55.7" class="st6" width="5.8" height="5.8"/>
	<rect x="113.3" y="55.7" class="st7" width="5.8" height="5.8"/>
	<rect x="119" y="55.7" class="st18" width="5.8" height="5.8"/>
	<rect x="124.8" y="55.7" class="st7" width="5.8" height="5.8"/>
	<rect x="130.5" y="55.7" class="st7" width="5.8" height="5.8"/>
	<rect x="136.3" y="55.7" class="st17" width="5.8" height="5.8"/>
	<rect x="142" y="55.7" class="st5" width="5.8" height="5.8"/>
	<rect x="147.8" y="55.7" class="st10" width="5.8" height="5.8"/>
	<rect x="153.5" y="55.7" class="st3" width="5.8" height="5.8"/>
	<rect x="159.3" y="55.7" class="st1" width="5.8" height="5.8"/>
	<rect x="165" y="55.7" class="st0" width="5.8" height="5.8"/>
	<rect x="15.5" y="61.5" class="st0" width="5.8" height="5.8"/>
	<rect x="21.2" y="61.5" class="st22" width="5.8" height="5.8"/>
	<rect x="27" y="61.5" class="st4" width="5.8" height="5.8"/>
	<rect x="32.7" y="61.5" class="st11" width="5.8" height="5.8"/>
	<rect x="38.5" y="61.5" class="st12" width="5.8" height="5.8"/>
	<rect x="44.2" y="61.5" class="st13" width="5.8" height="5.8"/>
	<rect x="50" y="61.5" class="st12" width="5.8" height="5.8"/>
	<rect x="55.7" y="61.5" class="st19" width="5.8" height="5.8"/>
	<rect x="61.5" y="61.5" class="st21" width="5.8" height="5.8"/>
	<rect x="67.2" y="61.5" class="st20" width="5.8" height="5.8"/>
	<rect x="73" y="61.5" class="st20" width="5.8" height="5.8"/>
	<rect x="78.7" y="61.5" class="st16" width="5.8" height="5.8"/>
	<rect x="84.5" y="61.5" class="st5" width="5.8" height="5.8"/>
	<rect x="90.2" y="61.5" class="st6" width="5.8" height="5.8"/>
	<rect x="96" y="61.5" class="st6" width="5.8" height="5.8"/>
	<rect x="101.8" y="61.5" class="st6" width="5.8" height="5.8"/>
	<rect x="107.5" y="61.5" class="st7" width="5.8" height="5.8"/>
	<rect x="113.3" y="61.5" class="st5" width="5.8" height="5.8"/>
	<rect x="119" y="61.5" class="st6" width="5.8" height="5.8"/>
	<rect x="124.8" y="61.5" class="st6" width="5.8" height="5.8"/>
	<rect x="130.5" y="61.5" class="st6" width="5.8" height="5.8"/>
	<rect x="136.3" y="61.5" class="st7" width="5.8" height="5.8"/>
	<rect x="142" y="61.5" class="st5" width="5.8" height="5.8"/>
	<rect x="147.8" y="61.5" class="st17" width="5.8" height="5.8"/>
	<rect x="153.5" y="61.5" class="st10" width="5.8" height="5.8"/>
	<rect x="159.3" y="61.5" class="st3" width="5.8" height="5.8"/>
	<rect x="165" y="61.5" class="st1" width="5.8" height="5.8"/>
	<rect x="170.8" y="61.5" class="st0" width="5.8" height="5.8"/>
	<rect x="15.5" y="67.2" class="st0" width="5.8" height="5.8"/>
	<rect x="21.2" y="67.2" class="st1" width="5.8" height="5.8"/>
	<rect x="27" y="67.2" class="st3" width="5.8" height="5.8"/>
	<rect x="32.7" y="67.2" class="st8" width="5.8" height="5.8"/>
	<rect x="38.5" y="67.2" class="st15" width="5.8" height="5.8"/>
	<rect x="44.2" y="67.2" class="st12" width="5.8" height="5.8"/>
	<rect x="50" y="67.2" class="st13" width="5.8" height="5.8"/>
	<rect x="55.7" y="67.2" class="st19" width="5.8" height="5.8"/>
	<rect x="61.5" y="67.2" class="st23" width="5.8" height="5.8"/>
	<rect x="67.2" y="67.2" class="st19" width="5.8" height="5.8"/>
	<rect x="73" y="67.2" class="st24" width="5.8" height="5.8"/>
	<rect x="78.7" y="67.2" class="st15" width="5.8" height="5.8"/>
	<rect x="84.5" y="67.2" class="st5" width="5.8" height="5.8"/>
	<rect x="90.2" y="67.2" class="st7" width="5.8" height="5.8"/>
	<rect x="96" y="67.2" class="st7" width="5.8" height="5.8"/>
	<rect x="101.8" y="67.2" class="st7" width="5.8" height="5.8"/>
	<rect x="107.5" y="67.2" class="st5" width="5.8" height="5.8"/>
	<rect x="113.3" y="67.2" class="st6" width="5.8" height="5.8"/>
	<rect x="119" y="67.2" class="st6" width="5.8" height="5.8"/>
	<rect x="124.8" y="67.2" class="st6" width="5.8" height="5.8"/>
	<rect x="130.5" y="67.2" class="st6" width="5.8" height="5.8"/>
	<rect x="136.3" y="67.2" class="st6" width="5.8" height="5.8"/>
	<rect x="142" y="67.2" class="st18" width="5.8" height="5.8"/>
	<rect x="147.8" y="67.2" class="st5" width="5.8" height="5.8"/>
	<rect x="153.5" y="67.2" class="st10" width="5.8" height="5.8"/>
	<rect x="159.3" y="67.2" class="st3" width="5.8" height="5.8"/>
	<rect x="165" y="67.2" class="st1" width="5.8" height="5.8"/>
	<rect x="170.8" y="67.2" class="st0" width="5.8" height="5.8"/>
	<rect x="15.5" y="73" class="st0" width="5.8" height="5.8"/>
	<rect x="21.2" y="73" class="st1" width="5.8" height="5.8"/>
	<rect x="27" y="73" class="st21" width="5.8" height="5.8"/>
	<rect x="32.7" y="73" class="st21" width="5.8" height="5.8"/>
	<rect x="38.5" y="73" class="st12" width="5.8" height="5.8"/>
	<rect x="44.2" y="73" class="st15" width="5.8" height="5.8"/>
	<rect x="50" y="73" class="st15" width="5.8" height="5.8"/>
	<rect x="55.7" y="73" class="st12" width="5.8" height="5.8"/>
	<rect x="61.5" y="73" class="st19" width="5.8" height="5.8"/>
	<rect x="67.2" y="73" class="st23" width="5.8" height="5.8"/>
	<rect x="73" y="73" class="st24" width="5.8" height="5.8"/>
	<rect x="78.7" y="73" class="st21" width="5.8" height="5.8"/>
	<rect x="84.5" y="73" class="st25" width="5.8" height="5.8"/>
	<rect x="90.2" y="73" class="st26" width="5.8" height="5.8"/>
	<rect x="96" y="73" class="st27" width="5.8" height="5.8"/>
	<rect x="101.8" y="73" class="st0" width="5.8" height="5.8"/>
	<rect x="107.5" y="73" class="st6" width="5.8" height="5.8"/>
	<rect x="113.3" y="73" class="st6" width="5.8" height="5.8"/>
	<rect x="119" y="73" class="st14" width="5.8" height="5.8"/>
	<rect x="124.8" y="73" class="st6" width="5.8" height="5.8"/>
	<rect x="130.5" y="73" class="st14" width="5.8" height="5.8"/>
	<rect x="136.3" y="73" class="st6" width="5.8" height="5.8"/>
	<rect x="142" y="73" class="st6" width="5.8" height="5.8"/>
	<rect x="147.8" y="73" class="st7" width="5.8" height="5.8"/>
	<rect x="153.5" y="73" class="st10" width="5.8" height="5.8"/>
	<rect x="159.3" y="73" class="st3" width="5.8" height="5.8"/>
	<rect x="165" y="73" class="st1" width="5.8" height="5.8"/>
	<rect x="170.8" y="73" class="st0" width="5.8" height="5.8"/>
	<rect x="9.7" y="78.7" class="st0" width="5.8" height="5.8"/>
	<rect x="15.5" y="78.7" class="st22" width="5.8" height="5.8"/>
	<rect x="21.2" y="78.7" class="st4" width="5.8" height="5.8"/>
	<rect x="27" y="78.7" class="st28" width="5.8" height="5.8"/>
	<rect x="32.7" y="78.7" class="st28" width="5.8" height="5.8"/>
	<rect x="38.5" y="78.7" class="st21" width="5.8" height="5.8"/>
	<rect x="44.2" y="78.7" class="st21" width="5.8" height="5.8"/>
	<rect x="50" y="78.7" class="st28" width="5.8" height="5.8"/>
	<rect x="55.7" y="78.7" class="st15" width="5.8" height="5.8"/>
	<rect x="61.5" y="78.7" class="st19" width="5.8" height="5.8"/>
	<rect x="67.2" y="78.7" class="st23" width="5.8" height="5.8"/>
	<rect x="73" y="78.7" class="st19" width="5.8" height="5.8"/>
	<rect x="78.7" y="78.7" class="st25" width="5.8" height="5.8"/>
	<rect x="84.5" y="78.7" class="st26" width="5.8" height="5.8"/>
	<rect x="90.2" y="78.7" class="st27" width="5.8" height="5.8"/>
	<rect x="96" y="78.7" class="st27" width="5.8" height="5.8"/>
	<rect x="101.8" y="78.7" class="st27" width="5.8" height="5.8"/>
	<rect x="107.5" y="78.7" class="st6" width="5.8" height="5.8"/>
	<rect x="113.3" y="78.7" class="st6" width="5.8" height="5.8"/>
	<rect x="119" y="78.7" class="st6" width="5.8" height="5.8"/>
	<rect x="124.8" y="78.7" class="st14" width="5.8" height="5.8"/>
	<rect x="130.5" y="78.7" class="st6" width="5.8" height="5.8"/>
	<rect x="136.3" y="78.7" class="st6" width="5.8" height="5.8"/>
	<rect x="142" y="78.7" class="st6" width="5.8" height="5.8"/>
	<rect x="147.8" y="78.7" class="st7" width="5.8" height="5.8"/>
	<rect x="153.5" y="78.7" class="st5" width="5.8" height="5.8"/>
	<rect x="159.3" y="78.7" class="st10" width="5.8" height="5.8"/>
	<rect x="165" y="78.7" class="st3" width="5.8" height="5.8"/>
	<rect x="170.8" y="78.7" class="st1" width="5.8" height="5.8"/>
	<rect x="176.5" y="78.7" class="st0" width="5.8" height="5.8"/>
	<rect x="9.7" y="84.5" class="st0" width="5.8" height="5.8"/>
	<rect x="15.5" y="84.5" class="st22" width="5.8" height="5.8"/>
	<rect x="21.2" y="84.5" class="st3" width="5.8" height="5.8"/>
	<rect x="27" y="84.5" class="st19" width="5.8" height="5.8"/>
	<rect x="32.7" y="84.5" class="st15" width="5.8" height="5.8"/>
	<rect x="38.5" y="84.5" class="st28" width="5.8" height="5.8"/>
	<rect x="44.2" y="84.5" class="st28" width="5.8" height="5.8"/>
	<rect x="50" y="84.5" class="st21" width="5.8" height="5.8"/>
	<rect x="55.7" y="84.5" class="st23" width="5.8" height="5.8"/>
	<rect x="61.5" y="84.5" class="st28" width="5.8" height="5.8"/>
	<rect x="67.2" y="84.5" class="st19" width="5.8" height="5.8"/>
	<rect x="73" y="84.5" class="st23" width="5.8" height="5.8"/>
	<rect x="78.7" y="84.5" class="st26" width="5.8" height="5.8"/>
	<rect x="84.5" y="84.5" class="st27" width="5.8" height="5.8"/>
	<rect x="90.2" y="84.5" class="st27" width="5.8" height="5.8"/>
	<rect x="96" y="84.5" class="st27" width="5.8" height="5.8"/>
	<rect x="101.8" y="84.5" class="st29" width="5.8" height="5.8"/>
	<rect x="107.5" y="84.5" class="st6" width="5.8" height="5.8"/>
	<rect x="113.3" y="84.5" class="st6" width="5.8" height="5.8"/>
	<rect x="119" y="84.5" class="st14" width="5.8" height="5.8"/>
	<rect x="124.8" y="84.5" class="st6" width="5.8" height="5.8"/>
	<rect x="130.5" y="84.5" class="st14" width="5.8" height="5.8"/>
	<rect x="136.3" y="84.5" class="st6" width="5.8" height="5.8"/>
	<rect x="142" y="84.5" class="st6" width="5.8" height="5.8"/>
	<rect x="147.8" y="84.5" class="st7" width="5.8" height="5.8"/>
	<rect x="153.5" y="84.5" class="st30" width="5.8" height="5.8"/>
	<rect x="159.3" y="84.5" class="st10" width="5.8" height="5.8"/>
	<rect x="165" y="84.5" class="st3" width="5.8" height="5.8"/>
	<rect x="170.8" y="84.5" class="st2" width="5.8" height="5.8"/>
	<rect x="176.5" y="84.5" class="st0" width="5.8" height="5.8"/>
	<rect x="9.7" y="90.2" class="st0" width="5.8" height="5.8"/>
	<rect x="15.5" y="90.2" class="st1" width="5.8" height="5.8"/>
	<rect x="21.2" y="90.2" class="st3" width="5.8" height="5.8"/>
	<rect x="27" y="90.2" class="st11" width="5.8" height="5.8"/>
	<rect x="32.7" y="90.2" class="st21" width="5.8" height="5.8"/>
	<rect x="38.5" y="90.2" class="st19" width="5.8" height="5.8"/>
	<rect x="44.2" y="90.2" class="st19" width="5.8" height="5.8"/>
	<rect x="50" y="90.2" class="st15" width="5.8" height="5.8"/>
	<rect x="55.7" y="90.2" class="st15" width="5.8" height="5.8"/>
	<rect x="61.5" y="90.2" class="st23" width="5.8" height="5.8"/>
	<rect x="67.2" y="90.2" class="st27" width="5.8" height="5.8"/>
	<rect x="73" y="90.2" class="st27" width="5.8" height="5.8"/>
	<rect x="78.7" y="90.2" class="st27" width="5.8" height="5.8"/>
	<rect x="84.5" y="90.2" class="st26" width="5.8" height="5.8"/>
	<rect x="90.2" y="90.2" class="st27" width="5.8" height="5.8"/>
	<rect x="96" y="90.2" class="st27" width="5.8" height="5.8"/>
	<rect x="101.8" y="90.2" class="st27" width="5.8" height="5.8"/>
	<rect x="107.5" y="90.2" class="st27" width="5.8" height="5.8"/>
	<rect x="113.3" y="90.2" class="st6" width="5.8" height="5.8"/>
	<rect x="119" y="90.2" class="st6" width="5.8" height="5.8"/>
	<rect x="124.8" y="90.2" class="st6" width="5.8" height="5.8"/>
	<rect x="130.5" y="90.2" class="st6" width="5.8" height="5.8"/>
	<rect x="136.3" y="90.2" class="st6" width="5.8" height="5.8"/>
	<rect x="142" y="90.2" class="st7" width="5.8" height="5.8"/>
	<rect x="147.8" y="90.2" class="st30" width="5.8" height="5.8"/>
	<rect x="153.5" y="90.2" class="st23" width="5.8" height="5.8"/>
	<rect x="159.3" y="90.2" class="st10" width="5.8" height="5.8"/>
	<rect x="165" y="90.2" class="st3" width="5.8" height="5.8"/>
	<rect x="170.8" y="90.2" class="st2" width="5.8" height="5.8"/>
	<rect x="176.5" y="90.2" class="st0" width="5.8" height="5.8"/>
	<rect x="9.7" y="96" class="st0" width="5.8" height="5.8"/>
	<rect x="15.5" y="96" class="st1" width="5.8" height="5.8"/>
	<rect x="21.2" y="96" class="st3" width="5.8" height="5.8"/>
	<rect x="27" y="96" class="st8" width="5.8" height="5.8"/>
	<rect x="32.7" y="96" class="st9" width="5.8" height="5.8"/>
	<rect x="38.5" y="96" class="st21" width="5.8" height="5.8"/>
	<rect x="44.2" y="96" class="st21" width="5.8" height="5.8"/>
	<rect x="50" y="96" class="st21" width="5.8" height="5.8"/>
	<rect x="55.7" y="96" class="st16" width="5.8" height="5.8"/>
	<rect x="61.5" y="96" class="st27" width="5.8" height="5.8"/>
	<rect x="67.2" y="96" class="st27" width="5.8" height="5.8"/>
	<rect x="73" y="96" class="st27" width="5.8" height="5.8"/>
	<rect x="78.7" y="96" class="st0" width="5.8" height="5.8"/>
	<rect x="84.5" y="96" class="st26" width="5.8" height="5.8"/>
	<rect x="90.2" y="96" class="st27" width="5.8" height="5.8"/>
	<rect x="96" y="96" class="st27" width="5.8" height="5.8"/>
	<rect x="101.8" y="96" class="st27" width="5.8" height="5.8"/>
	<rect x="107.5" y="96" class="st27" width="5.8" height="5.8"/>
	<rect x="113.3" y="96" class="st5" width="5.8" height="5.8"/>
	<rect x="119" y="96" class="st6" width="5.8" height="5.8"/>
	<rect x="124.8" y="96" class="st6" width="5.8" height="5.8"/>
	<rect x="130.5" y="96" class="st6" width="5.8" height="5.8"/>
	<rect x="136.3" y="96" class="st7" width="5.8" height="5.8"/>
	<rect x="142" y="96" class="st23" width="5.8" height="5.8"/>
	<rect x="147.8" y="96" class="st30" width="5.8" height="5.8"/>
	<rect x="153.5" y="96" class="st30" width="5.8" height="5.8"/>
	<rect x="159.3" y="96" class="st10" width="5.8" height="5.8"/>
	<rect x="165" y="96" class="st3" width="5.8" height="5.8"/>
	<rect x="170.8" y="96" class="st1" width="5.8" height="5.8"/>
	<rect x="176.5" y="96" class="st0" width="5.8" height="5.8"/>
	<rect x="9.7" y="101.8" class="st0" width="5.8" height="5.8"/>
	<rect x="15.5" y="101.8" class="st1" width="5.8" height="5.8"/>
	<rect x="21.2" y="101.8" class="st3" width="5.8" height="5.8"/>
	<rect x="27" y="101.8" class="st8" width="5.8" height="5.8"/>
	<rect x="32.7" y="101.8" class="st24" width="5.8" height="5.8"/>
	<rect x="38.5" y="101.8" class="st9" width="5.8" height="5.8"/>
	<rect x="44.2" y="101.8" class="st24" width="5.8" height="5.8"/>
	<rect x="50" y="101.8" class="st14" width="5.8" height="5.8"/>
	<rect x="55.7" y="101.8" class="st23" width="5.8" height="5.8"/>
	<rect x="61.5" y="101.8" class="st27" width="5.8" height="5.8"/>
	<rect x="67.2" y="101.8" class="st27" width="5.8" height="5.8"/>
	<rect x="73" y="101.8" class="st29" width="5.8" height="5.8"/>
	<rect x="78.7" y="101.8" class="st26" width="5.8" height="5.8"/>
	<rect x="84.5" y="101.8" class="st27" width="5.8" height="5.8"/>
	<rect x="90.2" y="101.8" class="st26" width="5.8" height="5.8"/>
	<rect x="96" y="101.8" class="st27" width="5.8" height="5.8"/>
	<rect x="101.8" y="101.8" class="st26" width="5.8" height="5.8"/>
	<rect x="107.5" y="101.8" class="st5" width="5.8" height="5.8"/>
	<rect x="113.3" y="101.8" class="st30" width="5.8" height="5.8"/>
	<rect x="119" y="101.8" class="st7" width="5.8" height="5.8"/>
	<rect x="124.8" y="101.8" class="st28" width="5.8" height="5.8"/>
	<rect x="130.5" y="101.8" class="st28" width="5.8" height="5.8"/>
	<rect x="136.3" y="101.8" class="st25" width="5.8" height="5.8"/>
	<rect x="142" y="101.8" class="st30" width="5.8" height="5.8"/>
	<rect x="147.8" y="101.8" class="st23" width="5.8" height="5.8"/>
	<rect x="153.5" y="101.8" class="st30" width="5.8" height="5.8"/>
	<rect x="159.3" y="101.8" class="st10" width="5.8" height="5.8"/>
	<rect x="165" y="101.8" class="st3" width="5.8" height="5.8"/>
	<rect x="170.8" y="101.8" class="st1" width="5.8" height="5.8"/>
	<rect x="176.5" y="101.8" class="st0" width="5.8" height="5.8"/>
	<rect x="9.7" y="107.5" class="st0" width="5.8" height="5.8"/>
	<rect x="15.5" y="107.5" class="st2" width="5.8" height="5.8"/>
	<rect x="21.2" y="107.5" class="st4" width="5.8" height="5.8"/>
	<rect x="27" y="107.5" class="st8" width="5.8" height="5.8"/>
	<rect x="32.7" y="107.5" class="st24" width="5.8" height="5.8"/>
	<rect x="38.5" y="107.5" class="st24" width="5.8" height="5.8"/>
	<rect x="44.2" y="107.5" class="st14" width="5.8" height="5.8"/>
	<rect x="50" y="107.5" class="st14" width="5.8" height="5.8"/>
	<rect x="55.7" y="107.5" class="st14" width="5.8" height="5.8"/>
	<rect x="61.5" y="107.5" class="st23" width="5.8" height="5.8"/>
	<rect x="67.2" y="107.5" class="st27" width="5.8" height="5.8"/>
	<rect x="73" y="107.5" class="st26" width="5.8" height="5.8"/>
	<rect x="78.7" y="107.5" class="st27" width="5.8" height="5.8"/>
	<rect x="84.5" y="107.5" class="st27" width="5.8" height="5.8"/>
	<rect x="90.2" y="107.5" class="st27" width="5.8" height="5.8"/>
	<rect x="96" y="107.5" class="st27" width="5.8" height="5.8"/>
	<rect x="101.8" y="107.5" class="st27" width="5.8" height="5.8"/>
	<rect x="107.5" y="107.5" class="st25" width="5.8" height="5.8"/>
	<rect x="113.3" y="107.5" class="st25" width="5.8" height="5.8"/>
	<rect x="119" y="107.5" class="st5" width="5.8" height="5.8"/>
	<rect x="124.8" y="107.5" class="st31" width="5.8" height="5.8"/>
	<rect x="130.5" y="107.5" class="st31" width="5.8" height="5.8"/>
	<rect x="136.3" y="107.5" class="st28" width="5.8" height="5.8"/>
	<rect x="142" y="107.5" class="st25" width="5.8" height="5.8"/>
	<rect x="147.8" y="107.5" class="st30" width="5.8" height="5.8"/>
	<rect x="153.5" y="107.5" class="st23" width="5.8" height="5.8"/>
	<rect x="159.3" y="107.5" class="st10" width="5.8" height="5.8"/>
	<rect x="165" y="107.5" class="st3" width="5.8" height="5.8"/>
	<rect x="170.8" y="107.5" class="st1" width="5.8" height="5.8"/>
	<rect x="176.5" y="107.5" class="st0" width="5.8" height="5.8"/>
	<rect x="15.5" y="113.3" class="st0" width="5.8" height="5.8"/>
	<rect x="21.2" y="113.3" class="st2" width="5.8" height="5.8"/>
	<rect x="27" y="113.3" class="st4" width="5.8" height="5.8"/>
	<rect x="32.7" y="113.3" class="st8" width="5.8" height="5.8"/>
	<rect x="38.5" y="113.3" class="st14" width="5.8" height="5.8"/>
	<rect x="44.2" y="113.3" class="st14" width="5.8" height="5.8"/>
	<rect x="50" y="113.3" class="st14" width="5.8" height="5.8"/>
	<rect x="55.7" y="113.3" class="st32" width="5.8" height="5.8"/>
	<rect x="61.5" y="113.3" class="st14" width="5.8" height="5.8"/>
	<rect x="67.2" y="113.3" class="st23" width="5.8" height="5.8"/>
	<rect x="73" y="113.3" class="st26" width="5.8" height="5.8"/>
	<rect x="78.7" y="113.3" class="st27" width="5.8" height="5.8"/>
	<rect x="84.5" y="113.3" class="st27" width="5.8" height="5.8"/>
	<rect x="90.2" y="113.3" class="st29" width="5.8" height="5.8"/>
	<rect x="96" y="113.3" class="st27" width="5.8" height="5.8"/>
	<rect x="101.8" y="113.3" class="st27" width="5.8" height="5.8"/>
	<rect x="107.5" y="113.3" class="st25" width="5.8" height="5.8"/>
	<rect x="113.3" y="113.3" class="st28" width="5.8" height="5.8"/>
	<rect x="119" y="113.3" class="st28" width="5.8" height="5.8"/>
	<rect x="124.8" y="113.3" class="st33" width="5.8" height="5.8"/>
	<rect x="130.5" y="113.3" class="st31" width="5.8" height="5.8"/>
	<rect x="136.3" y="113.3" class="st31" width="5.8" height="5.8"/>
	<rect x="142" y="113.3" class="st28" width="5.8" height="5.8"/>
	<rect x="147.8" y="113.3" class="st30" width="5.8" height="5.8"/>
	<rect x="153.5" y="113.3" class="st10" width="5.8" height="5.8"/>
	<rect x="159.3" y="113.3" class="st3" width="5.8" height="5.8"/>
	<rect x="165" y="113.3" class="st1" width="5.8" height="5.8"/>
	<rect x="170.8" y="113.3" class="st0" width="5.8" height="5.8"/>
	<rect x="15.5" y="119" class="st0" width="5.8" height="5.8"/>
	<rect x="21.2" y="119" class="st2" width="5.8" height="5.8"/>
	<rect x="27" y="119" class="st3" width="5.8" height="5.8"/>
	<rect x="32.7" y="119" class="st8" width="5.8" height="5.8"/>
	<rect x="38.5" y="119" class="st14" width="5.8" height="5.8"/>
	<rect x="44.2" y="119" class="st14" width="5.8" height="5.8"/>
	<rect x="50" y="119" class="st32" width="5.8" height="5.8"/>
	<rect x="55.7" y="119" class="st14" width="5.8" height="5.8"/>
	<rect x="61.5" y="119" class="st14" width="5.8" height="5.8"/>
	<rect x="67.2" y="119" class="st14" width="5.8" height="5.8"/>
	<rect x="73" y="119" class="st23" width="5.8" height="5.8"/>
	<rect x="78.7" y="119" class="st27" width="5.8" height="5.8"/>
	<rect x="84.5" y="119" class="st27" width="5.8" height="5.8"/>
	<rect x="90.2" y="119" class="st27" width="5.8" height="5.8"/>
	<rect x="96" y="119" class="st27" width="5.8" height="5.8"/>
	<rect x="101.8" y="119" class="st0" width="5.8" height="5.8"/>
	<rect x="107.5" y="119" class="st25" width="5.8" height="5.8"/>
	<rect x="113.3" y="119" class="st31" width="5.8" height="5.8"/>
	<rect x="119" y="119" class="st31" width="5.8" height="5.8"/>
	<rect x="124.8" y="119" class="st28" width="5.8" height="5.8"/>
	<rect x="130.5" y="119" class="st33" width="5.8" height="5.8"/>
	<rect x="136.3" y="119" class="st31" width="5.8" height="5.8"/>
	<rect x="142" y="119" class="st31" width="5.8" height="5.8"/>
	<rect x="147.8" y="119" class="st28" width="5.8" height="5.8"/>
	<rect x="153.5" y="119" class="st10" width="5.8" height="5.8"/>
	<rect x="159.3" y="119" class="st3" width="5.8" height="5.8"/>
	<rect x="165" y="119" class="st1" width="5.8" height="5.8"/>
	<rect x="170.8" y="119" class="st0" width="5.8" height="5.8"/>
	<rect x="15.5" y="124.8" class="st0" width="5.8" height="5.8"/>
	<rect x="21.2" y="124.8" class="st2" width="5.8" height="5.8"/>
	<rect x="27" y="124.8" class="st3" width="5.8" height="5.8"/>
	<rect x="32.7" y="124.8" class="st11" width="5.8" height="5.8"/>
	<rect x="38.5" y="124.8" class="st34" width="5.8" height="5.8"/>
	<rect x="44.2" y="124.8" class="st32" width="5.8" height="5.8"/>
	<rect x="50" y="124.8" class="st14" width="5.8" height="5.8"/>
	<rect x="55.7" y="124.8" class="st14" width="5.8" height="5.8"/>
	<rect x="61.5" y="124.8" class="st14" width="5.8" height="5.8"/>
	<rect x="67.2" y="124.8" class="st32" width="5.8" height="5.8"/>
	<rect x="73" y="124.8" class="st14" width="5.8" height="5.8"/>
	<rect x="78.7" y="124.8" class="st23" width="5.8" height="5.8"/>
	<rect x="84.5" y="124.8" class="st27" width="5.8" height="5.8"/>
	<rect x="90.2" y="124.8" class="st27" width="5.8" height="5.8"/>
	<rect x="96" y="124.8" class="st0" width="5.8" height="5.8"/>
	<rect x="101.8" y="124.8" class="st28" width="5.8" height="5.8"/>
	<rect x="107.5" y="124.8" class="st28" width="5.8" height="5.8"/>
	<rect x="113.3" y="124.8" class="st33" width="5.8" height="5.8"/>
	<rect x="119" y="124.8" class="st31" width="5.8" height="5.8"/>
	<rect x="124.8" y="124.8" class="st31" width="5.8" height="5.8"/>
	<rect x="130.5" y="124.8" class="st28" width="5.8" height="5.8"/>
	<rect x="136.3" y="124.8" class="st33" width="5.8" height="5.8"/>
	<rect x="142" y="124.8" class="st31" width="5.8" height="5.8"/>
	<rect x="147.8" y="124.8" class="st35" width="5.8" height="5.8"/>
	<rect x="153.5" y="124.8" class="st10" width="5.8" height="5.8"/>
	<rect x="159.3" y="124.8" class="st3" width="5.8" height="5.8"/>
	<rect x="165" y="124.8" class="st2" width="5.8" height="5.8"/>
	<rect x="170.8" y="124.8" class="st0" width="5.8" height="5.8"/>
	<rect x="21.2" y="130.5" class="st0" width="5.8" height="5.8"/>
	<rect x="27" y="130.5" class="st2" width="5.8" height="5.8"/>
	<rect x="32.7" y="130.5" class="st4" width="5.8" height="5.8"/>
	<rect x="38.5" y="130.5" class="st8" width="5.8" height="5.8"/>
	<rect x="44.2" y="130.5" class="st36" width="5.8" height="5.8"/>
	<rect x="50" y="130.5" class="st14" width="5.8" height="5.8"/>
	<rect x="55.7" y="130.5" class="st14" width="5.8" height="5.8"/>
	<rect x="61.5" y="130.5" class="st32" width="5.8" height="5.8"/>
	<rect x="67.2" y="130.5" class="st14" width="5.8" height="5.8"/>
	<rect x="73" y="130.5" class="st14" width="5.8" height="5.8"/>
	<rect x="78.7" y="130.5" class="st14" width="5.8" height="5.8"/>
	<rect x="84.5" y="130.5" class="st23" width="5.8" height="5.8"/>
	<rect x="90.2" y="130.5" class="st25" width="5.8" height="5.8"/>
	<rect x="96" y="130.5" class="st25" width="5.8" height="5.8"/>
	<rect x="101.8" y="130.5" class="st31" width="5.8" height="5.8"/>
	<rect x="107.5" y="130.5" class="st31" width="5.8" height="5.8"/>
	<rect x="113.3" y="130.5" class="st28" width="5.8" height="5.8"/>
	<rect x="119" y="130.5" class="st33" width="5.8" height="5.8"/>
	<rect x="124.8" y="130.5" class="st31" width="5.8" height="5.8"/>
	<rect x="130.5" y="130.5" class="st31" width="5.8" height="5.8"/>
	<rect x="136.3" y="130.5" class="st28" width="5.8" height="5.8"/>
	<rect x="142" y="130.5" class="st37" width="5.8" height="5.8"/>
	<rect x="147.8" y="130.5" class="st10" width="5.8" height="5.8"/>
	<rect x="153.5" y="130.5" class="st3" width="5.8" height="5.8"/>
	<rect x="159.3" y="130.5" class="st1" width="5.8" height="5.8"/>
	<rect x="165" y="130.5" class="st0" width="5.8" height="5.8"/>
	<rect x="27" y="136.3" class="st0" width="5.8" height="5.8"/>
	<rect x="32.7" y="136.3" class="st1" width="5.8" height="5.8"/>
	<rect x="38.5" y="136.3" class="st3" width="5.8" height="5.8"/>
	<rect x="44.2" y="136.3" class="st8" width="5.8" height="5.8"/>
	<rect x="50" y="136.3" class="st34" width="5.8" height="5.8"/>
	<rect x="55.7" y="136.3" class="st32" width="5.8" height="5.8"/>
	<rect x="61.5" y="136.3" class="st14" width="5.8" height="5.8"/>
	<rect x="67.2" y="136.3" class="st14" width="5.8" height="5.8"/>
	<rect x="73" y="136.3" class="st14" width="5.8" height="5.8"/>
	<rect x="78.7" y="136.3" class="st32" width="5.8" height="5.8"/>
	<rect x="84.5" y="136.3" class="st32" width="5.8" height="5.8"/>
	<rect x="90.2" y="136.3" class="st23" width="5.8" height="5.8"/>
	<rect x="96" y="136.3" class="st33" width="5.8" height="5.8"/>
	<rect x="101.8" y="136.3" class="st33" width="5.8" height="5.8"/>
	<rect x="107.5" y="136.3" class="st31" width="5.8" height="5.8"/>
	<rect x="113.3" y="136.3" class="st31" width="5.8" height="5.8"/>
	<rect x="119" y="136.3" class="st28" width="5.8" height="5.8"/>
	<rect x="124.8" y="136.3" class="st33" width="5.8" height="5.8"/>
	<rect x="130.5" y="136.3" class="st31" width="5.8" height="5.8"/>
	<rect x="136.3" y="136.3" class="st35" width="5.8" height="5.8"/>
	<rect x="142" y="136.3" class="st10" width="5.8" height="5.8"/>
	<rect x="147.8" y="136.3" class="st3" width="5.8" height="5.8"/>
	<rect x="153.5" y="136.3" class="st2" width="5.8" height="5.8"/>
	<rect x="159.3" y="136.3" class="st0" width="5.8" height="5.8"/>
	<rect x="32.7" y="142" class="st0" width="5.8" height="5.8"/>
	<rect x="38.5" y="142" class="st1" width="5.8" height="5.8"/>
	<rect x="44.2" y="142" class="st3" width="5.8" height="5.8"/>
	<rect x="50" y="142" class="st8" width="5.8" height="5.8"/>
	<rect x="55.7" y="142" class="st36" width="5.8" height="5.8"/>
	<rect x="61.5" y="142" class="st14" width="5.8" height="5.8"/>
	<rect x="67.2" y="142" class="st14" width="5.8" height="5.8"/>
	<rect x="73" y="142" class="st32" width="5.8" height="5.8"/>
	<rect x="78.7" y="142" class="st32" width="5.8" height="5.8"/>
	<rect x="84.5" y="142" class="st32" width="5.8" height="5.8"/>
	<rect x="90.2" y="142" class="st32" width="5.8" height="5.8"/>
	<rect x="96" y="142" class="st23" width="5.8" height="5.8"/>
	<rect x="101.8" y="142" class="st33" width="5.8" height="5.8"/>
	<rect x="107.5" y="142" class="st33" width="5.8" height="5.8"/>
	<rect x="113.3" y="142" class="st31" width="5.8" height="5.8"/>
	<rect x="119" y="142" class="st31" width="5.8" height="5.8"/>
	<rect x="124.8" y="142" class="st28" width="5.8" height="5.8"/>
	<rect x="130.5" y="142" class="st37" width="5.8" height="5.8"/>
	<rect x="136.3" y="142" class="st10" width="5.8" height="5.8"/>
	<rect x="142" y="142" class="st3" width="5.8" height="5.8"/>
	<rect x="147.8" y="142" class="st2" width="5.8" height="5.8"/>
	<rect x="153.5" y="142" class="st0" width="5.8" height="5.8"/>
	<rect x="38.5" y="147.8" class="st0" width="5.8" height="5.8"/>
	<rect x="44.2" y="147.8" class="st1" width="5.8" height="5.8"/>
	<rect x="50" y="147.8" class="st3" width="5.8" height="5.8"/>
	<rect x="55.7" y="147.8" class="st11" width="5.8" height="5.8"/>
	<rect x="61.5" y="147.8" class="st34" width="5.8" height="5.8"/>
	<rect x="67.2" y="147.8" class="st36" width="5.8" height="5.8"/>
	<rect x="73" y="147.8" class="st32" width="5.8" height="5.8"/>
	<rect x="78.7" y="147.8" class="st32" width="5.8" height="5.8"/>
	<rect x="84.5" y="147.8" class="st32" width="5.8" height="5.8"/>
	<rect x="90.2" y="147.8" class="st32" width="5.8" height="5.8"/>
	<rect x="96" y="147.8" class="st32" width="5.8" height="5.8"/>
	<rect x="101.8" y="147.8" class="st33" width="5.8" height="5.8"/>
	<rect x="107.5" y="147.8" class="st33" width="5.8" height="5.8"/>
	<rect x="113.3" y="147.8" class="st37" width="5.8" height="5.8"/>
	<rect x="119" y="147.8" class="st31" width="5.8" height="5.8"/>
	<rect x="124.8" y="147.8" class="st35" width="5.8" height="5.8"/>
	<rect x="130.5" y="147.8" class="st10" width="5.8" height="5.8"/>
	<rect x="136.3" y="147.8" class="st3" width="5.8" height="5.8"/>
	<rect x="142" y="147.8" class="st22" width="5.8" height="5.8"/>
	<rect x="147.8" y="147.8" class="st0" width="5.8" height="5.8"/>
	<rect x="44.2" y="153.5" class="st0" width="5.8" height="5.8"/>
	<rect x="50" y="153.5" class="st2" width="5.8" height="5.8"/>
	<rect x="55.7" y="153.5" class="st3" width="5.8" height="5.8"/>
	<rect x="61.5" y="153.5" class="st8" width="5.8" height="5.8"/>
	<rect x="67.2" y="153.5" class="st8" width="5.8" height="5.8"/>
	<rect x="73" y="153.5" class="st11" width="5.8" height="5.8"/>
	<rect x="78.7" y="153.5" class="st36" width="5.8" height="5.8"/>
	<rect x="84.5" y="153.5" class="st36" width="5.8" height="5.8"/>
	<rect x="90.2" y="153.5" class="st36" width="5.8" height="5.8"/>
	<rect x="96" y="153.5" class="st30" width="5.8" height="5.8"/>
	<rect x="101.8" y="153.5" class="st30" width="5.8" height="5.8"/>
	<rect x="107.5" y="153.5" class="st37" width="5.8" height="5.8"/>
	<rect x="113.3" y="153.5" class="st10" width="5.8" height="5.8"/>
	<rect x="119" y="153.5" class="st10" width="5.8" height="5.8"/>
	<rect x="124.8" y="153.5" class="st10" width="5.8" height="5.8"/>
	<rect x="130.5" y="153.5" class="st3" width="5.8" height="5.8"/>
	<rect x="136.3" y="153.5" class="st1" width="5.8" height="5.8"/>
	<rect x="142" y="153.5" class="st0" width="5.8" height="5.8"/>
	<rect x="50" y="159.3" class="st0" width="5.8" height="5.8"/>
	<rect x="55.7" y="159.3" class="st2" width="5.8" height="5.8"/>
	<rect x="61.5" y="159.3" class="st3" width="5.8" height="5.8"/>
	<rect x="67.2" y="159.3" class="st3" width="5.8" height="5.8"/>
	<rect x="73" y="159.3" class="st3" width="5.8" height="5.8"/>
	<rect x="78.7" y="159.3" class="st11" width="5.8" height="5.8"/>
	<rect x="84.5" y="159.3" class="st11" width="5.8" height="5.8"/>
	<rect x="90.2" y="159.3" class="st10" width="5.8" height="5.8"/>
	<rect x="96" y="159.3" class="st10" width="5.8" height="5.8"/>
	<rect x="101.8" y="159.3" class="st10" width="5.8" height="5.8"/>
	<rect x="107.5" y="159.3" class="st10" width="5.8" height="5.8"/>
	<rect x="113.3" y="159.3" class="st3" width="5.8" height="5.8"/>
	<rect x="119" y="159.3" class="st3" width="5.8" height="5.8"/>
	<rect x="124.8" y="159.3" class="st3" width="5.8" height="5.8"/>
	<rect x="130.5" y="159.3" class="st1" width="5.8" height="5.8"/>
	<rect x="136.3" y="159.3" class="st0" width="5.8" height="5.8"/>
	<rect x="55.7" y="165" class="st0" width="5.8" height="5.8"/>
	<rect x="61.5" y="165" class="st1" width="5.8" height="5.8"/>
	<rect x="67.2" y="165" class="st1" width="5.8" height="5.8"/>
	<rect x="73" y="165" class="st22" width="5.8" height="5.8"/>
	<rect x="78.7" y="165" class="st3" width="5.8" height="5.8"/>
	<rect x="84.5" y="165" class="st3" width="5.8" height="5.8"/>
	<rect x="90.2" y="165" class="st3" width="5.8" height="5.8"/>
	<rect x="96" y="165" class="st3" width="5.8" height="5.8"/>
	<rect x="101.8" y="165" class="st3" width="5.8" height="5.8"/>
	<rect x="107.5" y="165" class="st3" width="5.8" height="5.8"/>
	<rect x="113.3" y="165" class="st2" width="5.8" height="5.8"/>
	<rect x="119" y="165" class="st2" width="5.8" height="5.8"/>
	<rect x="124.8" y="165" class="st1" width="5.8" height="5.8"/>
	<rect x="130.5" y="165" class="st0" width="5.8" height="5.8"/>
	<rect x="61.5" y="170.8" class="st0" width="5.8" height="5.8"/>
	<rect x="67.2" y="170.8" class="st0" width="5.8" height="5.8"/>
	<rect x="73" y="170.8" class="st0" width="5.8" height="5.8"/>
	<rect x="78.7" y="170.8" class="st1" width="5.8" height="5.8"/>
	<rect x="84.5" y="170.8" class="st22" width="5.8" height="5.8"/>
	<rect x="90.2" y="170.8" class="st22" width="5.8" height="5.8"/>
	<rect x="96" y="170.8" class="st2" width="5.8" height="5.8"/>
	<rect x="101.8" y="170.8" class="st2" width="5.8" height="5.8"/>
	<rect x="107.5" y="170.8" class="st2" width="5.8" height="5.8"/>
	<rect x="113.3" y="170.8" class="st0" width="5.8" height="5.8"/>
	<rect x="119" y="170.8" class="st0" width="5.8" height="5.8"/>
	<rect x="124.8" y="170.8" class="st0" width="5.8" height="5.8"/>
	<rect x="78.7" y="176.5" class="st0" width="5.8" height="5.8"/>
	<rect x="84.5" y="176.5" class="st0" width="5.8" height="5.8"/>
	<rect x="90.2" y="176.5" class="st0" width="5.8" height="5.8"/>
	<rect x="96" y="176.5" class="st0" width="5.8" height="5.8"/>
	<rect x="101.8" y="176.5" class="st0" width="5.8" height="5.8"/>
	<rect x="107.5" y="176.5" class="st0" width="5.8" height="5.8"/>
</g>
</svg>
