<?xml version="1.0" encoding="utf-8"?>
<!-- Generator: Adobe Illustrator 27.9.0, SVG Export Plug-In . SVG Version: 6.00 Build 0)  -->
<svg version="1.1" id="Layer_1" shape-rendering="crispEdges"
	 xmlns="http://www.w3.org/2000/svg" xmlns:xlink="http://www.w3.org/1999/xlink" x="0px" y="0px" viewBox="0 0 192 192"
	 style="enable-background:new 0 0 192 192;" xml:space="preserve">
<style type="text/css">
	.st0{fill:#FF9648;}
	.st1{fill:#EDE5B7;}
	.st2{fill:#3A81AF;}
	.st3{fill:#D3D15C;}
	.st4{fill:#B3534E;}
	.st5{fill:#EA9571;}
	.st6{fill:#E4895D;}
	.st7{fill:#D9E8EC;}
	.st8{fill:#D1584A;}
	.st9{fill:#E6A974;}
	.st10{fill:#B55D83;}
	.st11{fill:#D45D82;}
	.st12{fill:#C6E174;}
	.st13{fill:#ABCC5C;}
	.st14{fill:#F6BC8A;}
</style>
<g>
	<rect x="45.5" y="6" class="st0" width="6" height="6"/>
	<rect x="39.5" y="12" class="st0" width="6" height="6"/>
	<rect x="45.5" y="12" class="st1" width="6" height="6"/>
	<rect x="51.5" y="12" class="st0" width="6" height="6"/>
	<rect x="93.5" y="12" class="st0" width="6" height="6"/>
	<rect x="99.5" y="12" class="st0" width="6" height="6"/>
	<rect x="105.5" y="12" class="st0" width="6" height="6"/>
	<rect x="141.5" y="12" class="st0" width="6" height="6"/>
	<rect x="33.5" y="18" class="st0" width="6" height="6"/>
	<rect x="39.5" y="18" class="st1" width="6" height="6"/>
	<rect x="45.5" y="18" class="st0" width="6" height="6"/>
	<rect x="51.5" y="18" class="st1" width="6" height="6"/>
	<rect x="57.5" y="18" class="st0" width="6" height="6"/>
	<rect x="87.5" y="18" class="st0" width="6" height="6"/>
	<rect x="93.5" y="18" class="st2" width="6" height="6"/>
	<rect x="99.5" y="18" class="st3" width="6" height="6"/>
	<rect x="105.5" y="18" class="st2" width="6" height="6"/>
	<rect x="111.5" y="18" class="st0" width="6" height="6"/>
	<rect x="135.5" y="18" class="st0" width="6" height="6"/>
	<rect x="141.5" y="18" class="st1" width="6" height="6"/>
	<rect x="147.5" y="18" class="st0" width="6" height="6"/>
	<rect x="39.5" y="24" class="st0" width="6" height="6"/>
	<rect x="45.5" y="24" class="st1" width="6" height="6"/>
	<rect x="51.5" y="24" class="st0" width="6" height="6"/>
	<rect x="81.5" y="24" class="st0" width="6" height="6"/>
	<rect x="87.5" y="24" class="st4" width="6" height="6"/>
	<rect x="93.5" y="24" class="st3" width="6" height="6"/>
	<rect x="99.5" y="24" class="st2" width="6" height="6"/>
	<rect x="105.5" y="24" class="st3" width="6" height="6"/>
	<rect x="111.5" y="24" class="st4" width="6" height="6"/>
	<rect x="117.5" y="24" class="st0" width="6" height="6"/>
	<rect x="129.5" y="24" class="st0" width="6" height="6"/>
	<rect x="135.5" y="24" class="st1" width="6" height="6"/>
	<rect x="141.5" y="24" class="st0" width="6" height="6"/>
	<rect x="147.5" y="24" class="st1" width="6" height="6"/>
	<rect x="153.5" y="24" class="st0" width="6" height="6"/>
	<rect x="15.5" y="30" class="st0" width="6" height="6"/>
	<rect x="45.5" y="30" class="st0" width="6" height="6"/>
	<rect x="63.5" y="30" class="st0" width="6" height="6"/>
	<rect x="69.5" y="30" class="st0" width="6" height="6"/>
	<rect x="75.5" y="30" class="st0" width="6" height="6"/>
	<rect x="81.5" y="30" class="st4" width="6" height="6"/>
	<rect x="87.5" y="30" class="st5" width="6" height="6"/>
	<rect x="93.5" y="30" class="st2" width="6" height="6"/>
	<rect x="99.5" y="30" class="st3" width="6" height="6"/>
	<rect x="105.5" y="30" class="st2" width="6" height="6"/>
	<rect x="111.5" y="30" class="st6" width="6" height="6"/>
	<rect x="117.5" y="30" class="st4" width="6" height="6"/>
	<rect x="123.5" y="30" class="st0" width="6" height="6"/>
	<rect x="129.5" y="30" class="st0" width="6" height="6"/>
	<rect x="135.5" y="30" class="st0" width="6" height="6"/>
	<rect x="141.5" y="30" class="st1" width="6" height="6"/>
	<rect x="147.5" y="30" class="st0" width="6" height="6"/>
	<rect x="9.5" y="36" class="st0" width="6" height="6"/>
	<rect x="15.5" y="36" class="st1" width="6" height="6"/>
	<rect x="21.5" y="36" class="st0" width="6" height="6"/>
	<rect x="57.5" y="36" class="st0" width="6" height="6"/>
	<rect x="63.5" y="36" class="st2" width="6" height="6"/>
	<rect x="69.5" y="36" class="st3" width="6" height="6"/>
	<rect x="75.5" y="36" class="st2" width="6" height="6"/>
	<rect x="81.5" y="36" class="st4" width="6" height="6"/>
	<rect x="87.5" y="36" class="st5" width="6" height="6"/>
	<rect x="93.5" y="36" class="st7" width="6" height="6"/>
	<rect x="99.5" y="36" class="st7" width="6" height="6"/>
	<rect x="105.5" y="36" class="st7" width="6" height="6"/>
	<rect x="111.5" y="36" class="st6" width="6" height="6"/>
	<rect x="117.5" y="36" class="st4" width="6" height="6"/>
	<rect x="123.5" y="36" class="st2" width="6" height="6"/>
	<rect x="129.5" y="36" class="st3" width="6" height="6"/>
	<rect x="135.5" y="36" class="st0" width="6" height="6"/>
	<rect x="141.5" y="36" class="st0" width="6" height="6"/>
	<rect x="3.5" y="42" class="st0" width="6" height="6"/>
	<rect x="9.5" y="42" class="st1" width="6" height="6"/>
	<rect x="15.5" y="42" class="st0" width="6" height="6"/>
	<rect x="21.5" y="42" class="st1" width="6" height="6"/>
	<rect x="27.5" y="42" class="st0" width="6" height="6"/>
	<rect x="51.5" y="42" class="st0" width="6" height="6"/>
	<rect x="57.5" y="42" class="st8" width="6" height="6"/>
	<rect x="63.5" y="42" class="st3" width="6" height="6"/>
	<rect x="69.5" y="42" class="st2" width="6" height="6"/>
	<rect x="75.5" y="42" class="st3" width="6" height="6"/>
	<rect x="81.5" y="42" class="st4" width="6" height="6"/>
	<rect x="87.5" y="42" class="st9" width="6" height="6"/>
	<rect x="93.5" y="42" class="st9" width="6" height="6"/>
	<rect x="99.5" y="42" class="st9" width="6" height="6"/>
	<rect x="105.5" y="42" class="st9" width="6" height="6"/>
	<rect x="111.5" y="42" class="st6" width="6" height="6"/>
	<rect x="117.5" y="42" class="st4" width="6" height="6"/>
	<rect x="123.5" y="42" class="st3" width="6" height="6"/>
	<rect x="129.5" y="42" class="st2" width="6" height="6"/>
	<rect x="135.5" y="42" class="st8" width="6" height="6"/>
	<rect x="141.5" y="42" class="st0" width="6" height="6"/>
	<rect x="9.5" y="48" class="st0" width="6" height="6"/>
	<rect x="15.5" y="48" class="st1" width="6" height="6"/>
	<rect x="21.5" y="48" class="st0" width="6" height="6"/>
	<rect x="45.5" y="48" class="st0" width="6" height="6"/>
	<rect x="51.5" y="48" class="st8" width="6" height="6"/>
	<rect x="57.5" y="48" class="st5" width="6" height="6"/>
	<rect x="63.5" y="48" class="st2" width="6" height="6"/>
	<rect x="69.5" y="48" class="st3" width="6" height="6"/>
	<rect x="75.5" y="48" class="st2" width="6" height="6"/>
	<rect x="81.5" y="48" class="st4" width="6" height="6"/>
	<rect x="87.5" y="48" class="st9" width="6" height="6"/>
	<rect x="93.5" y="48" class="st9" width="6" height="6"/>
	<rect x="99.5" y="48" class="st9" width="6" height="6"/>
	<rect x="105.5" y="48" class="st9" width="6" height="6"/>
	<rect x="111.5" y="48" class="st6" width="6" height="6"/>
	<rect x="117.5" y="48" class="st4" width="6" height="6"/>
	<rect x="123.5" y="48" class="st2" width="6" height="6"/>
	<rect x="129.5" y="48" class="st3" width="6" height="6"/>
	<rect x="135.5" y="48" class="st6" width="6" height="6"/>
	<rect x="141.5" y="48" class="st8" width="6" height="6"/>
	<rect x="147.5" y="48" class="st0" width="6" height="6"/>
	<rect x="15.5" y="54" class="st0" width="6" height="6"/>
	<rect x="45.5" y="54" class="st0" width="6" height="6"/>
	<rect x="51.5" y="54" class="st8" width="6" height="6"/>
	<rect x="57.5" y="54" class="st5" width="6" height="6"/>
	<rect x="63.5" y="54" class="st7" width="6" height="6"/>
	<rect x="69.5" y="54" class="st7" width="6" height="6"/>
	<rect x="75.5" y="54" class="st7" width="6" height="6"/>
	<rect x="81.5" y="54" class="st4" width="6" height="6"/>
	<rect x="87.5" y="54" class="st9" width="6" height="6"/>
	<rect x="93.5" y="54" class="st9" width="6" height="6"/>
	<rect x="99.5" y="54" class="st9" width="6" height="6"/>
	<rect x="105.5" y="54" class="st9" width="6" height="6"/>
	<rect x="111.5" y="54" class="st6" width="6" height="6"/>
	<rect x="117.5" y="54" class="st10" width="6" height="6"/>
	<rect x="123.5" y="54" class="st7" width="6" height="6"/>
	<rect x="129.5" y="54" class="st7" width="6" height="6"/>
	<rect x="135.5" y="54" class="st6" width="6" height="6"/>
	<rect x="141.5" y="54" class="st8" width="6" height="6"/>
	<rect x="147.5" y="54" class="st0" width="6" height="6"/>
	<rect x="171.5" y="54" class="st0" width="6" height="6"/>
	<rect x="45.5" y="60" class="st0" width="6" height="6"/>
	<rect x="51.5" y="60" class="st8" width="6" height="6"/>
	<rect x="57.5" y="60" class="st9" width="6" height="6"/>
	<rect x="63.5" y="60" class="st9" width="6" height="6"/>
	<rect x="69.5" y="60" class="st9" width="6" height="6"/>
	<rect x="75.5" y="60" class="st6" width="6" height="6"/>
	<rect x="81.5" y="60" class="st10" width="6" height="6"/>
	<rect x="87.5" y="60" class="st9" width="6" height="6"/>
	<rect x="93.5" y="60" class="st9" width="6" height="6"/>
	<rect x="99.5" y="60" class="st9" width="6" height="6"/>
	<rect x="105.5" y="60" class="st9" width="6" height="6"/>
	<rect x="111.5" y="60" class="st6" width="6" height="6"/>
	<rect x="117.5" y="60" class="st10" width="6" height="6"/>
	<rect x="123.5" y="60" class="st9" width="6" height="6"/>
	<rect x="129.5" y="60" class="st9" width="6" height="6"/>
	<rect x="135.5" y="60" class="st6" width="6" height="6"/>
	<rect x="141.5" y="60" class="st8" width="6" height="6"/>
	<rect x="147.5" y="60" class="st0" width="6" height="6"/>
	<rect x="165.5" y="60" class="st0" width="6" height="6"/>
	<rect x="171.5" y="60" class="st1" width="6" height="6"/>
	<rect x="177.5" y="60" class="st0" width="6" height="6"/>
	<rect x="45.5" y="66" class="st0" width="6" height="6"/>
	<rect x="51.5" y="66" class="st8" width="6" height="6"/>
	<rect x="57.5" y="66" class="st9" width="6" height="6"/>
	<rect x="63.5" y="66" class="st9" width="6" height="6"/>
	<rect x="69.5" y="66" class="st9" width="6" height="6"/>
	<rect x="75.5" y="66" class="st6" width="6" height="6"/>
	<rect x="81.5" y="66" class="st10" width="6" height="6"/>
	<rect x="87.5" y="66" class="st9" width="6" height="6"/>
	<rect x="93.5" y="66" class="st9" width="6" height="6"/>
	<rect x="99.5" y="66" class="st9" width="6" height="6"/>
	<rect x="105.5" y="66" class="st9" width="6" height="6"/>
	<rect x="111.5" y="66" class="st6" width="6" height="6"/>
	<rect x="117.5" y="66" class="st10" width="6" height="6"/>
	<rect x="123.5" y="66" class="st9" width="6" height="6"/>
	<rect x="129.5" y="66" class="st9" width="6" height="6"/>
	<rect x="135.5" y="66" class="st6" width="6" height="6"/>
	<rect x="141.5" y="66" class="st8" width="6" height="6"/>
	<rect x="147.5" y="66" class="st0" width="6" height="6"/>
	<rect x="153.5" y="66" class="st0" width="6" height="6"/>
	<rect x="159.5" y="66" class="st0" width="6" height="6"/>
	<rect x="165.5" y="66" class="st1" width="6" height="6"/>
	<rect x="171.5" y="66" class="st0" width="6" height="6"/>
	<rect x="177.5" y="66" class="st1" width="6" height="6"/>
	<rect x="183.5" y="66" class="st0" width="6" height="6"/>
	<rect x="21.5" y="72" class="st0" width="6" height="6"/>
	<rect x="45.5" y="72" class="st0" width="6" height="6"/>
	<rect x="51.5" y="72" class="st8" width="6" height="6"/>
	<rect x="57.5" y="72" class="st9" width="6" height="6"/>
	<rect x="63.5" y="72" class="st9" width="6" height="6"/>
	<rect x="69.5" y="72" class="st9" width="6" height="6"/>
	<rect x="75.5" y="72" class="st6" width="6" height="6"/>
	<rect x="81.5" y="72" class="st10" width="6" height="6"/>
	<rect x="87.5" y="72" class="st9" width="6" height="6"/>
	<rect x="93.5" y="72" class="st9" width="6" height="6"/>
	<rect x="99.5" y="72" class="st9" width="6" height="6"/>
	<rect x="105.5" y="72" class="st9" width="6" height="6"/>
	<rect x="111.5" y="72" class="st6" width="6" height="6"/>
	<rect x="117.5" y="72" class="st11" width="6" height="6"/>
	<rect x="123.5" y="72" class="st9" width="6" height="6"/>
	<rect x="129.5" y="72" class="st9" width="6" height="6"/>
	<rect x="135.5" y="72" class="st6" width="6" height="6"/>
	<rect x="141.5" y="72" class="st8" width="6" height="6"/>
	<rect x="147.5" y="72" class="st2" width="6" height="6"/>
	<rect x="153.5" y="72" class="st3" width="6" height="6"/>
	<rect x="159.5" y="72" class="st0" width="6" height="6"/>
	<rect x="165.5" y="72" class="st0" width="6" height="6"/>
	<rect x="171.5" y="72" class="st1" width="6" height="6"/>
	<rect x="177.5" y="72" class="st0" width="6" height="6"/>
	<rect x="15.5" y="78" class="st0" width="6" height="6"/>
	<rect x="21.5" y="78" class="st1" width="6" height="6"/>
	<rect x="27.5" y="78" class="st0" width="6" height="6"/>
	<rect x="45.5" y="78" class="st0" width="6" height="6"/>
	<rect x="51.5" y="78" class="st10" width="6" height="6"/>
	<rect x="57.5" y="78" class="st9" width="6" height="6"/>
	<rect x="63.5" y="78" class="st9" width="6" height="6"/>
	<rect x="69.5" y="78" class="st9" width="6" height="6"/>
	<rect x="75.5" y="78" class="st6" width="6" height="6"/>
	<rect x="81.5" y="78" class="st10" width="6" height="6"/>
	<rect x="87.5" y="78" class="st9" width="6" height="6"/>
	<rect x="93.5" y="78" class="st6" width="6" height="6"/>
	<rect x="99.5" y="78" class="st6" width="6" height="6"/>
	<rect x="105.5" y="78" class="st6" width="6" height="6"/>
	<rect x="111.5" y="78" class="st6" width="6" height="6"/>
	<rect x="117.5" y="78" class="st11" width="6" height="6"/>
	<rect x="123.5" y="78" class="st9" width="6" height="6"/>
	<rect x="129.5" y="78" class="st9" width="6" height="6"/>
	<rect x="135.5" y="78" class="st6" width="6" height="6"/>
	<rect x="141.5" y="78" class="st8" width="6" height="6"/>
	<rect x="147.5" y="78" class="st3" width="6" height="6"/>
	<rect x="153.5" y="78" class="st2" width="6" height="6"/>
	<rect x="159.5" y="78" class="st8" width="6" height="6"/>
	<rect x="165.5" y="78" class="st0" width="6" height="6"/>
	<rect x="171.5" y="78" class="st0" width="6" height="6"/>
	<rect x="9.5" y="84" class="st0" width="6" height="6"/>
	<rect x="15.5" y="84" class="st1" width="6" height="6"/>
	<rect x="21.5" y="84" class="st0" width="6" height="6"/>
	<rect x="27.5" y="84" class="st1" width="6" height="6"/>
	<rect x="33.5" y="84" class="st0" width="6" height="6"/>
	<rect x="45.5" y="84" class="st0" width="6" height="6"/>
	<rect x="51.5" y="84" class="st10" width="6" height="6"/>
	<rect x="57.5" y="84" class="st9" width="6" height="6"/>
	<rect x="63.5" y="84" class="st6" width="6" height="6"/>
	<rect x="69.5" y="84" class="st6" width="6" height="6"/>
	<rect x="75.5" y="84" class="st6" width="6" height="6"/>
	<rect x="81.5" y="84" class="st11" width="6" height="6"/>
	<rect x="87.5" y="84" class="st9" width="6" height="6"/>
	<rect x="93.5" y="84" class="st9" width="6" height="6"/>
	<rect x="99.5" y="84" class="st9" width="6" height="6"/>
	<rect x="105.5" y="84" class="st9" width="6" height="6"/>
	<rect x="111.5" y="84" class="st6" width="6" height="6"/>
	<rect x="117.5" y="84" class="st11" width="6" height="6"/>
	<rect x="123.5" y="84" class="st9" width="6" height="6"/>
	<rect x="129.5" y="84" class="st6" width="6" height="6"/>
	<rect x="135.5" y="84" class="st6" width="6" height="6"/>
	<rect x="141.5" y="84" class="st10" width="6" height="6"/>
	<rect x="147.5" y="84" class="st2" width="6" height="6"/>
	<rect x="153.5" y="84" class="st3" width="6" height="6"/>
	<rect x="159.5" y="84" class="st6" width="6" height="6"/>
	<rect x="165.5" y="84" class="st8" width="6" height="6"/>
	<rect x="171.5" y="84" class="st0" width="6" height="6"/>
	<rect x="15.5" y="90" class="st0" width="6" height="6"/>
	<rect x="21.5" y="90" class="st1" width="6" height="6"/>
	<rect x="27.5" y="90" class="st0" width="6" height="6"/>
	<rect x="45.5" y="90" class="st0" width="6" height="6"/>
	<rect x="51.5" y="90" class="st10" width="6" height="6"/>
	<rect x="57.5" y="90" class="st9" width="6" height="6"/>
	<rect x="63.5" y="90" class="st9" width="6" height="6"/>
	<rect x="69.5" y="90" class="st9" width="6" height="6"/>
	<rect x="75.5" y="90" class="st6" width="6" height="6"/>
	<rect x="81.5" y="90" class="st11" width="6" height="6"/>
	<rect x="87.5" y="90" class="st9" width="6" height="6"/>
	<rect x="93.5" y="90" class="st9" width="6" height="6"/>
	<rect x="99.5" y="90" class="st6" width="6" height="6"/>
	<rect x="105.5" y="90" class="st6" width="6" height="6"/>
	<rect x="111.5" y="90" class="st6" width="6" height="6"/>
	<rect x="117.5" y="90" class="st11" width="6" height="6"/>
	<rect x="123.5" y="90" class="st9" width="6" height="6"/>
	<rect x="129.5" y="90" class="st9" width="6" height="6"/>
	<rect x="135.5" y="90" class="st6" width="6" height="6"/>
	<rect x="141.5" y="90" class="st10" width="6" height="6"/>
	<rect x="147.5" y="90" class="st7" width="6" height="6"/>
	<rect x="153.5" y="90" class="st7" width="6" height="6"/>
	<rect x="159.5" y="90" class="st6" width="6" height="6"/>
	<rect x="165.5" y="90" class="st8" width="6" height="6"/>
	<rect x="171.5" y="90" class="st0" width="6" height="6"/>
	<rect x="21.5" y="96" class="st0" width="6" height="6"/>
	<rect x="27.5" y="96" class="st0" width="6" height="6"/>
	<rect x="33.5" y="96" class="st0" width="6" height="6"/>
	<rect x="45.5" y="96" class="st0" width="6" height="6"/>
	<rect x="51.5" y="96" class="st10" width="6" height="6"/>
	<rect x="57.5" y="96" class="st9" width="6" height="6"/>
	<rect x="63.5" y="96" class="st9" width="6" height="6"/>
	<rect x="69.5" y="96" class="st6" width="6" height="6"/>
	<rect x="75.5" y="96" class="st6" width="6" height="6"/>
	<rect x="81.5" y="96" class="st11" width="6" height="6"/>
	<rect x="87.5" y="96" class="st9" width="6" height="6"/>
	<rect x="93.5" y="96" class="st9" width="6" height="6"/>
	<rect x="99.5" y="96" class="st9" width="6" height="6"/>
	<rect x="105.5" y="96" class="st9" width="6" height="6"/>
	<rect x="111.5" y="96" class="st6" width="6" height="6"/>
	<rect x="117.5" y="96" class="st11" width="6" height="6"/>
	<rect x="123.5" y="96" class="st9" width="6" height="6"/>
	<rect x="129.5" y="96" class="st6" width="6" height="6"/>
	<rect x="135.5" y="96" class="st6" width="6" height="6"/>
	<rect x="141.5" y="96" class="st10" width="6" height="6"/>
	<rect x="147.5" y="96" class="st9" width="6" height="6"/>
	<rect x="153.5" y="96" class="st9" width="6" height="6"/>
	<rect x="159.5" y="96" class="st6" width="6" height="6"/>
	<rect x="165.5" y="96" class="st8" width="6" height="6"/>
	<rect x="171.5" y="96" class="st0" width="6" height="6"/>
	<rect x="15.5" y="102" class="st0" width="6" height="6"/>
	<rect x="21.5" y="102" class="st2" width="6" height="6"/>
	<rect x="27.5" y="102" class="st3" width="6" height="6"/>
	<rect x="33.5" y="102" class="st2" width="6" height="6"/>
	<rect x="39.5" y="102" class="st0" width="6" height="6"/>
	<rect x="45.5" y="102" class="st0" width="6" height="6"/>
	<rect x="51.5" y="102" class="st11" width="6" height="6"/>
	<rect x="57.5" y="102" class="st9" width="6" height="6"/>
	<rect x="63.5" y="102" class="st9" width="6" height="6"/>
	<rect x="69.5" y="102" class="st9" width="6" height="6"/>
	<rect x="75.5" y="102" class="st6" width="6" height="6"/>
	<rect x="81.5" y="102" class="st11" width="6" height="6"/>
	<rect x="87.5" y="102" class="st9" width="6" height="6"/>
	<rect x="93.5" y="102" class="st9" width="6" height="6"/>
	<rect x="99.5" y="102" class="st9" width="6" height="6"/>
	<rect x="105.5" y="102" class="st9" width="6" height="6"/>
	<rect x="111.5" y="102" class="st6" width="6" height="6"/>
	<rect x="117.5" y="102" class="st11" width="6" height="6"/>
	<rect x="123.5" y="102" class="st9" width="6" height="6"/>
	<rect x="129.5" y="102" class="st9" width="6" height="6"/>
	<rect x="135.5" y="102" class="st6" width="6" height="6"/>
	<rect x="141.5" y="102" class="st11" width="6" height="6"/>
	<rect x="147.5" y="102" class="st9" width="6" height="6"/>
	<rect x="153.5" y="102" class="st9" width="6" height="6"/>
	<rect x="159.5" y="102" class="st6" width="6" height="6"/>
	<rect x="165.5" y="102" class="st8" width="6" height="6"/>
	<rect x="171.5" y="102" class="st0" width="6" height="6"/>
	<rect x="9.5" y="108" class="st0" width="6" height="6"/>
	<rect x="15.5" y="108" class="st4" width="6" height="6"/>
	<rect x="21.5" y="108" class="st3" width="6" height="6"/>
	<rect x="27.5" y="108" class="st2" width="6" height="6"/>
	<rect x="33.5" y="108" class="st3" width="6" height="6"/>
	<rect x="39.5" y="108" class="st4" width="6" height="6"/>
	<rect x="45.5" y="108" class="st0" width="6" height="6"/>
	<rect x="51.5" y="108" class="st11" width="6" height="6"/>
	<rect x="57.5" y="108" class="st9" width="6" height="6"/>
	<rect x="63.5" y="108" class="st9" width="6" height="6"/>
	<rect x="69.5" y="108" class="st9" width="6" height="6"/>
	<rect x="75.5" y="108" class="st6" width="6" height="6"/>
	<rect x="81.5" y="108" class="st11" width="6" height="6"/>
	<rect x="87.5" y="108" class="st9" width="6" height="6"/>
	<rect x="93.5" y="108" class="st9" width="6" height="6"/>
	<rect x="99.5" y="108" class="st9" width="6" height="6"/>
	<rect x="105.5" y="108" class="st9" width="6" height="6"/>
	<rect x="111.5" y="108" class="st6" width="6" height="6"/>
	<rect x="117.5" y="108" class="st11" width="6" height="6"/>
	<rect x="123.5" y="108" class="st9" width="6" height="6"/>
	<rect x="129.5" y="108" class="st9" width="6" height="6"/>
	<rect x="135.5" y="108" class="st6" width="6" height="6"/>
	<rect x="141.5" y="108" class="st11" width="6" height="6"/>
	<rect x="147.5" y="108" class="st9" width="6" height="6"/>
	<rect x="153.5" y="108" class="st6" width="6" height="6"/>
	<rect x="159.5" y="108" class="st6" width="6" height="6"/>
	<rect x="165.5" y="108" class="st10" width="6" height="6"/>
	<rect x="171.5" y="108" class="st0" width="6" height="6"/>
	<rect x="9.5" y="114" class="st0" width="6" height="6"/>
	<rect x="15.5" y="114" class="st4" width="6" height="6"/>
	<rect x="21.5" y="114" class="st2" width="6" height="6"/>
	<rect x="27.5" y="114" class="st3" width="6" height="6"/>
	<rect x="33.5" y="114" class="st2" width="6" height="6"/>
	<rect x="39.5" y="114" class="st5" width="6" height="6"/>
	<rect x="45.5" y="114" class="st4" width="6" height="6"/>
	<rect x="51.5" y="114" class="st11" width="6" height="6"/>
	<rect x="57.5" y="114" class="st9" width="6" height="6"/>
	<rect x="63.5" y="114" class="st9" width="6" height="6"/>
	<rect x="69.5" y="114" class="st9" width="6" height="6"/>
	<rect x="75.5" y="114" class="st6" width="6" height="6"/>
	<rect x="81.5" y="114" class="st11" width="6" height="6"/>
	<rect x="87.5" y="114" class="st9" width="6" height="6"/>
	<rect x="93.5" y="114" class="st9" width="6" height="6"/>
	<rect x="99.5" y="114" class="st9" width="6" height="6"/>
	<rect x="105.5" y="114" class="st9" width="6" height="6"/>
	<rect x="111.5" y="114" class="st6" width="6" height="6"/>
	<rect x="117.5" y="114" class="st11" width="6" height="6"/>
	<rect x="123.5" y="114" class="st9" width="6" height="6"/>
	<rect x="129.5" y="114" class="st9" width="6" height="6"/>
	<rect x="135.5" y="114" class="st6" width="6" height="6"/>
	<rect x="141.5" y="114" class="st11" width="6" height="6"/>
	<rect x="147.5" y="114" class="st9" width="6" height="6"/>
	<rect x="153.5" y="114" class="st9" width="6" height="6"/>
	<rect x="159.5" y="114" class="st6" width="6" height="6"/>
	<rect x="165.5" y="114" class="st10" width="6" height="6"/>
	<rect x="171.5" y="114" class="st0" width="6" height="6"/>
	<rect x="9.5" y="120" class="st0" width="6" height="6"/>
	<rect x="15.5" y="120" class="st4" width="6" height="6"/>
	<rect x="21.5" y="120" class="st7" width="6" height="6"/>
	<rect x="27.5" y="120" class="st7" width="6" height="6"/>
	<rect x="33.5" y="120" class="st7" width="6" height="6"/>
	<rect x="39.5" y="120" class="st5" width="6" height="6"/>
	<rect x="45.5" y="120" class="st6" width="6" height="6"/>
	<rect x="51.5" y="120" class="st11" width="6" height="6"/>
	<rect x="57.5" y="120" class="st9" width="6" height="6"/>
	<rect x="63.5" y="120" class="st9" width="6" height="6"/>
	<rect x="69.5" y="120" class="st9" width="6" height="6"/>
	<rect x="75.5" y="120" class="st6" width="6" height="6"/>
	<rect x="81.5" y="120" class="st11" width="6" height="6"/>
	<rect x="87.5" y="120" class="st9" width="6" height="6"/>
	<rect x="93.5" y="120" class="st9" width="6" height="6"/>
	<rect x="99.5" y="120" class="st9" width="6" height="6"/>
	<rect x="105.5" y="120" class="st9" width="6" height="6"/>
	<rect x="111.5" y="120" class="st6" width="6" height="6"/>
	<rect x="117.5" y="120" class="st11" width="6" height="6"/>
	<rect x="123.5" y="120" class="st9" width="6" height="6"/>
	<rect x="129.5" y="120" class="st9" width="6" height="6"/>
	<rect x="135.5" y="120" class="st6" width="6" height="6"/>
	<rect x="141.5" y="120" class="st11" width="6" height="6"/>
	<rect x="147.5" y="120" class="st9" width="6" height="6"/>
	<rect x="153.5" y="120" class="st9" width="6" height="6"/>
	<rect x="159.5" y="120" class="st6" width="6" height="6"/>
	<rect x="165.5" y="120" class="st10" width="6" height="6"/>
	<rect x="171.5" y="120" class="st0" width="6" height="6"/>
	<rect x="9.5" y="126" class="st0" width="6" height="6"/>
	<rect x="15.5" y="126" class="st4" width="6" height="6"/>
	<rect x="21.5" y="126" class="st6" width="6" height="6"/>
	<rect x="27.5" y="126" class="st9" width="6" height="6"/>
	<rect x="33.5" y="126" class="st9" width="6" height="6"/>
	<rect x="39.5" y="126" class="st9" width="6" height="6"/>
	<rect x="45.5" y="126" class="st6" width="6" height="6"/>
	<rect x="51.5" y="126" class="st10" width="6" height="6"/>
	<rect x="57.5" y="126" class="st9" width="6" height="6"/>
	<rect x="63.5" y="126" class="st9" width="6" height="6"/>
	<rect x="69.5" y="126" class="st9" width="6" height="6"/>
	<rect x="75.5" y="126" class="st6" width="6" height="6"/>
	<rect x="81.5" y="126" class="st11" width="6" height="6"/>
	<rect x="87.5" y="126" class="st9" width="6" height="6"/>
	<rect x="93.5" y="126" class="st9" width="6" height="6"/>
	<rect x="99.5" y="126" class="st9" width="6" height="6"/>
	<rect x="105.5" y="126" class="st9" width="6" height="6"/>
	<rect x="111.5" y="126" class="st6" width="6" height="6"/>
	<rect x="117.5" y="126" class="st11" width="6" height="6"/>
	<rect x="123.5" y="126" class="st9" width="6" height="6"/>
	<rect x="129.5" y="126" class="st9" width="6" height="6"/>
	<rect x="135.5" y="126" class="st6" width="6" height="6"/>
	<rect x="141.5" y="126" class="st11" width="6" height="6"/>
	<rect x="147.5" y="126" class="st9" width="6" height="6"/>
	<rect x="153.5" y="126" class="st9" width="6" height="6"/>
	<rect x="159.5" y="126" class="st6" width="6" height="6"/>
	<rect x="165.5" y="126" class="st10" width="6" height="6"/>
	<rect x="171.5" y="126" class="st0" width="6" height="6"/>
	<rect x="9.5" y="132" class="st0" width="6" height="6"/>
	<rect x="15.5" y="132" class="st10" width="6" height="6"/>
	<rect x="21.5" y="132" class="st6" width="6" height="6"/>
	<rect x="27.5" y="132" class="st9" width="6" height="6"/>
	<rect x="33.5" y="132" class="st9" width="6" height="6"/>
	<rect x="39.5" y="132" class="st9" width="6" height="6"/>
	<rect x="45.5" y="132" class="st6" width="6" height="6"/>
	<rect x="51.5" y="132" class="st10" width="6" height="6"/>
	<rect x="57.5" y="132" class="st9" width="6" height="6"/>
	<rect x="63.5" y="132" class="st9" width="6" height="6"/>
	<rect x="69.5" y="132" class="st6" width="6" height="6"/>
	<rect x="75.5" y="132" class="st6" width="6" height="6"/>
	<rect x="81.5" y="132" class="st11" width="6" height="6"/>
	<rect x="87.5" y="132" class="st9" width="6" height="6"/>
	<rect x="93.5" y="132" class="st9" width="6" height="6"/>
	<rect x="99.5" y="132" class="st9" width="6" height="6"/>
	<rect x="105.5" y="132" class="st9" width="6" height="6"/>
	<rect x="111.5" y="132" class="st6" width="6" height="6"/>
	<rect x="117.5" y="132" class="st11" width="6" height="6"/>
	<rect x="123.5" y="132" class="st9" width="6" height="6"/>
	<rect x="129.5" y="132" class="st9" width="6" height="6"/>
	<rect x="135.5" y="132" class="st6" width="6" height="6"/>
	<rect x="141.5" y="132" class="st11" width="6" height="6"/>
	<rect x="147.5" y="132" class="st9" width="6" height="6"/>
	<rect x="153.5" y="132" class="st9" width="6" height="6"/>
	<rect x="159.5" y="132" class="st6" width="6" height="6"/>
	<rect x="165.5" y="132" class="st10" width="6" height="6"/>
	<rect x="171.5" y="132" class="st0" width="6" height="6"/>
	<rect x="9.5" y="138" class="st0" width="6" height="6"/>
	<rect x="15.5" y="138" class="st11" width="6" height="6"/>
	<rect x="21.5" y="138" class="st6" width="6" height="6"/>
	<rect x="27.5" y="138" class="st9" width="6" height="6"/>
	<rect x="33.5" y="138" class="st9" width="6" height="6"/>
	<rect x="39.5" y="138" class="st9" width="6" height="6"/>
	<rect x="45.5" y="138" class="st6" width="6" height="6"/>
	<rect x="51.5" y="138" class="st11" width="6" height="6"/>
	<rect x="57.5" y="138" class="st9" width="6" height="6"/>
	<rect x="63.5" y="138" class="st9" width="6" height="6"/>
	<rect x="69.5" y="138" class="st6" width="6" height="6"/>
	<rect x="75.5" y="138" class="st6" width="6" height="6"/>
	<rect x="81.5" y="138" class="st11" width="6" height="6"/>
	<rect x="87.5" y="138" class="st9" width="6" height="6"/>
	<rect x="93.5" y="138" class="st9" width="6" height="6"/>
	<rect x="99.5" y="138" class="st9" width="6" height="6"/>
	<rect x="105.5" y="138" class="st6" width="6" height="6"/>
	<rect x="111.5" y="138" class="st6" width="6" height="6"/>
	<rect x="117.5" y="138" class="st11" width="6" height="6"/>
	<rect x="123.5" y="138" class="st9" width="6" height="6"/>
	<rect x="129.5" y="138" class="st9" width="6" height="6"/>
	<rect x="135.5" y="138" class="st6" width="6" height="6"/>
	<rect x="141.5" y="138" class="st11" width="6" height="6"/>
	<rect x="147.5" y="138" class="st9" width="6" height="6"/>
	<rect x="153.5" y="138" class="st9" width="6" height="6"/>
	<rect x="159.5" y="138" class="st6" width="6" height="6"/>
	<rect x="165.5" y="138" class="st10" width="6" height="6"/>
	<rect x="171.5" y="138" class="st0" width="6" height="6"/>
	<rect x="9.5" y="144" class="st0" width="6" height="6"/>
	<rect x="15.5" y="144" class="st11" width="6" height="6"/>
	<rect x="21.5" y="144" class="st6" width="6" height="6"/>
	<rect x="27.5" y="144" class="st9" width="6" height="6"/>
	<rect x="33.5" y="144" class="st9" width="6" height="6"/>
	<rect x="39.5" y="144" class="st9" width="6" height="6"/>
	<rect x="45.5" y="144" class="st6" width="6" height="6"/>
	<rect x="51.5" y="144" class="st11" width="6" height="6"/>
	<rect x="57.5" y="144" class="st9" width="6" height="6"/>
	<rect x="63.5" y="144" class="st9" width="6" height="6"/>
	<rect x="69.5" y="144" class="st6" width="6" height="6"/>
	<rect x="75.5" y="144" class="st6" width="6" height="6"/>
	<rect x="81.5" y="144" class="st11" width="6" height="6"/>
	<rect x="87.5" y="144" class="st9" width="6" height="6"/>
	<rect x="93.5" y="144" class="st9" width="6" height="6"/>
	<rect x="99.5" y="144" class="st9" width="6" height="6"/>
	<rect x="105.5" y="144" class="st6" width="6" height="6"/>
	<rect x="111.5" y="144" class="st6" width="6" height="6"/>
	<rect x="117.5" y="144" class="st11" width="6" height="6"/>
	<rect x="123.5" y="144" class="st3" width="6" height="6"/>
	<rect x="129.5" y="144" class="st12" width="6" height="6"/>
	<rect x="135.5" y="144" class="st12" width="6" height="6"/>
	<rect x="141.5" y="144" class="st13" width="6" height="6"/>
	<rect x="147.5" y="144" class="st9" width="6" height="6"/>
	<rect x="153.5" y="144" class="st9" width="6" height="6"/>
	<rect x="159.5" y="144" class="st6" width="6" height="6"/>
	<rect x="165.5" y="144" class="st11" width="6" height="6"/>
	<rect x="171.5" y="144" class="st0" width="6" height="6"/>
	<rect x="9.5" y="150" class="st0" width="6" height="6"/>
	<rect x="15.5" y="150" class="st10" width="6" height="6"/>
	<rect x="21.5" y="150" class="st6" width="6" height="6"/>
	<rect x="27.5" y="150" class="st6" width="6" height="6"/>
	<rect x="33.5" y="150" class="st9" width="6" height="6"/>
	<rect x="39.5" y="150" class="st9" width="6" height="6"/>
	<rect x="45.5" y="150" class="st6" width="6" height="6"/>
	<rect x="51.5" y="150" class="st10" width="6" height="6"/>
	<rect x="57.5" y="150" class="st9" width="6" height="6"/>
	<rect x="63.5" y="150" class="st9" width="6" height="6"/>
	<rect x="69.5" y="150" class="st11" width="6" height="6"/>
	<rect x="75.5" y="150" class="st11" width="6" height="6"/>
	<rect x="81.5" y="150" class="st6" width="6" height="6"/>
	<rect x="87.5" y="150" class="st11" width="6" height="6"/>
	<rect x="93.5" y="150" class="st9" width="6" height="6"/>
	<rect x="99.5" y="150" class="st9" width="6" height="6"/>
	<rect x="105.5" y="150" class="st11" width="6" height="6"/>
	<rect x="111.5" y="150" class="st11" width="6" height="6"/>
	<rect x="117.5" y="150" class="st6" width="6" height="6"/>
	<rect x="123.5" y="150" class="st11" width="6" height="6"/>
	<rect x="129.5" y="150" class="st9" width="6" height="6"/>
	<rect x="135.5" y="150" class="st11" width="6" height="6"/>
	<rect x="141.5" y="150" class="st6" width="6" height="6"/>
	<rect x="147.5" y="150" class="st9" width="6" height="6"/>
	<rect x="153.5" y="150" class="st9" width="6" height="6"/>
	<rect x="159.5" y="150" class="st6" width="6" height="6"/>
	<rect x="165.5" y="150" class="st11" width="6" height="6"/>
	<rect x="171.5" y="150" class="st0" width="6" height="6"/>
	<rect x="9.5" y="156" class="st0" width="6" height="6"/>
	<rect x="15.5" y="156" class="st10" width="6" height="6"/>
	<rect x="21.5" y="156" class="st6" width="6" height="6"/>
	<rect x="27.5" y="156" class="st9" width="6" height="6"/>
	<rect x="33.5" y="156" class="st9" width="6" height="6"/>
	<rect x="39.5" y="156" class="st9" width="6" height="6"/>
	<rect x="45.5" y="156" class="st10" width="6" height="6"/>
	<rect x="51.5" y="156" class="st11" width="6" height="6"/>
	<rect x="57.5" y="156" class="st9" width="6" height="6"/>
	<rect x="63.5" y="156" class="st9" width="6" height="6"/>
	<rect x="69.5" y="156" class="st9" width="6" height="6"/>
	<rect x="75.5" y="156" class="st14" width="6" height="6"/>
	<rect x="81.5" y="156" class="st6" width="6" height="6"/>
	<rect x="87.5" y="156" class="st9" width="6" height="6"/>
	<rect x="93.5" y="156" class="st9" width="6" height="6"/>
	<rect x="99.5" y="156" class="st14" width="6" height="6"/>
	<rect x="105.5" y="156" class="st6" width="6" height="6"/>
	<rect x="111.5" y="156" class="st9" width="6" height="6"/>
	<rect x="117.5" y="156" class="st9" width="6" height="6"/>
	<rect x="123.5" y="156" class="st9" width="6" height="6"/>
	<rect x="129.5" y="156" class="st14" width="6" height="6"/>
	<rect x="135.5" y="156" class="st6" width="6" height="6"/>
	<rect x="141.5" y="156" class="st9" width="6" height="6"/>
	<rect x="147.5" y="156" class="st11" width="6" height="6"/>
	<rect x="153.5" y="156" class="st11" width="6" height="6"/>
	<rect x="159.5" y="156" class="st6" width="6" height="6"/>
	<rect x="165.5" y="156" class="st11" width="6" height="6"/>
	<rect x="171.5" y="156" class="st0" width="6" height="6"/>
	<rect x="9.5" y="162" class="st0" width="6" height="6"/>
	<rect x="15.5" y="162" class="st10" width="6" height="6"/>
	<rect x="21.5" y="162" class="st6" width="6" height="6"/>
	<rect x="27.5" y="162" class="st9" width="6" height="6"/>
	<rect x="33.5" y="162" class="st9" width="6" height="6"/>
	<rect x="39.5" y="162" class="st9" width="6" height="6"/>
	<rect x="45.5" y="162" class="st9" width="6" height="6"/>
	<rect x="51.5" y="162" class="st10" width="6" height="6"/>
	<rect x="57.5" y="162" class="st9" width="6" height="6"/>
	<rect x="63.5" y="162" class="st9" width="6" height="6"/>
	<rect x="69.5" y="162" class="st9" width="6" height="6"/>
	<rect x="75.5" y="162" class="st14" width="6" height="6"/>
	<rect x="81.5" y="162" class="st6" width="6" height="6"/>
	<rect x="87.5" y="162" class="st9" width="6" height="6"/>
	<rect x="93.5" y="162" class="st9" width="6" height="6"/>
	<rect x="99.5" y="162" class="st14" width="6" height="6"/>
	<rect x="105.5" y="162" class="st6" width="6" height="6"/>
	<rect x="111.5" y="162" class="st9" width="6" height="6"/>
	<rect x="117.5" y="162" class="st9" width="6" height="6"/>
	<rect x="123.5" y="162" class="st9" width="6" height="6"/>
	<rect x="129.5" y="162" class="st14" width="6" height="6"/>
	<rect x="135.5" y="162" class="st6" width="6" height="6"/>
	<rect x="141.5" y="162" class="st9" width="6" height="6"/>
	<rect x="147.5" y="162" class="st9" width="6" height="6"/>
	<rect x="153.5" y="162" class="st9" width="6" height="6"/>
	<rect x="159.5" y="162" class="st6" width="6" height="6"/>
	<rect x="165.5" y="162" class="st11" width="6" height="6"/>
	<rect x="171.5" y="162" class="st0" width="6" height="6"/>
	<rect x="9.5" y="168" class="st0" width="6" height="6"/>
	<rect x="15.5" y="168" class="st10" width="6" height="6"/>
	<rect x="21.5" y="168" class="st6" width="6" height="6"/>
	<rect x="27.5" y="168" class="st9" width="6" height="6"/>
	<rect x="33.5" y="168" class="st9" width="6" height="6"/>
	<rect x="39.5" y="168" class="st9" width="6" height="6"/>
	<rect x="45.5" y="168" class="st9" width="6" height="6"/>
	<rect x="51.5" y="168" class="st9" width="6" height="6"/>
	<rect x="57.5" y="168" class="st9" width="6" height="6"/>
	<rect x="63.5" y="168" class="st9" width="6" height="6"/>
	<rect x="69.5" y="168" class="st9" width="6" height="6"/>
	<rect x="75.5" y="168" class="st9" width="6" height="6"/>
	<rect x="81.5" y="168" class="st9" width="6" height="6"/>
	<rect x="87.5" y="168" class="st9" width="6" height="6"/>
	<rect x="93.5" y="168" class="st9" width="6" height="6"/>
	<rect x="99.5" y="168" class="st9" width="6" height="6"/>
	<rect x="105.5" y="168" class="st9" width="6" height="6"/>
	<rect x="111.5" y="168" class="st9" width="6" height="6"/>
	<rect x="117.5" y="168" class="st9" width="6" height="6"/>
	<rect x="123.5" y="168" class="st9" width="6" height="6"/>
	<rect x="129.5" y="168" class="st9" width="6" height="6"/>
	<rect x="135.5" y="168" class="st9" width="6" height="6"/>
	<rect x="141.5" y="168" class="st9" width="6" height="6"/>
	<rect x="147.5" y="168" class="st9" width="6" height="6"/>
	<rect x="153.5" y="168" class="st9" width="6" height="6"/>
	<rect x="159.5" y="168" class="st6" width="6" height="6"/>
	<rect x="165.5" y="168" class="st11" width="6" height="6"/>
	<rect x="171.5" y="168" class="st0" width="6" height="6"/>
	<rect x="9.5" y="174" class="st0" width="6" height="6"/>
	<rect x="15.5" y="174" class="st11" width="6" height="6"/>
	<rect x="21.5" y="174" class="st6" width="6" height="6"/>
	<rect x="27.5" y="174" class="st9" width="6" height="6"/>
	<rect x="33.5" y="174" class="st9" width="6" height="6"/>
	<rect x="39.5" y="174" class="st9" width="6" height="6"/>
	<rect x="45.5" y="174" class="st9" width="6" height="6"/>
	<rect x="51.5" y="174" class="st9" width="6" height="6"/>
	<rect x="57.5" y="174" class="st9" width="6" height="6"/>
	<rect x="63.5" y="174" class="st9" width="6" height="6"/>
	<rect x="69.5" y="174" class="st9" width="6" height="6"/>
	<rect x="75.5" y="174" class="st9" width="6" height="6"/>
	<rect x="81.5" y="174" class="st9" width="6" height="6"/>
	<rect x="87.5" y="174" class="st9" width="6" height="6"/>
	<rect x="93.5" y="174" class="st9" width="6" height="6"/>
	<rect x="99.5" y="174" class="st9" width="6" height="6"/>
	<rect x="105.5" y="174" class="st9" width="6" height="6"/>
	<rect x="111.5" y="174" class="st9" width="6" height="6"/>
	<rect x="117.5" y="174" class="st9" width="6" height="6"/>
	<rect x="123.5" y="174" class="st9" width="6" height="6"/>
	<rect x="129.5" y="174" class="st9" width="6" height="6"/>
	<rect x="135.5" y="174" class="st9" width="6" height="6"/>
	<rect x="141.5" y="174" class="st9" width="6" height="6"/>
	<rect x="147.5" y="174" class="st9" width="6" height="6"/>
	<rect x="153.5" y="174" class="st9" width="6" height="6"/>
	<rect x="159.5" y="174" class="st6" width="6" height="6"/>
	<rect x="165.5" y="174" class="st11" width="6" height="6"/>
	<rect x="171.5" y="174" class="st0" width="6" height="6"/>
	<rect x="9.5" y="180" class="st0" width="6" height="6"/>
	<rect x="15.5" y="180" class="st11" width="6" height="6"/>
	<rect x="21.5" y="180" class="st6" width="6" height="6"/>
	<rect x="27.5" y="180" class="st9" width="6" height="6"/>
	<rect x="33.5" y="180" class="st9" width="6" height="6"/>
	<rect x="39.5" y="180" class="st9" width="6" height="6"/>
	<rect x="45.5" y="180" class="st9" width="6" height="6"/>
	<rect x="51.5" y="180" class="st9" width="6" height="6"/>
	<rect x="57.5" y="180" class="st9" width="6" height="6"/>
	<rect x="63.5" y="180" class="st9" width="6" height="6"/>
	<rect x="69.5" y="180" class="st9" width="6" height="6"/>
	<rect x="75.5" y="180" class="st9" width="6" height="6"/>
	<rect x="81.5" y="180" class="st9" width="6" height="6"/>
	<rect x="87.5" y="180" class="st9" width="6" height="6"/>
	<rect x="93.5" y="180" class="st9" width="6" height="6"/>
	<rect x="99.5" y="180" class="st9" width="6" height="6"/>
	<rect x="105.5" y="180" class="st9" width="6" height="6"/>
	<rect x="111.5" y="180" class="st9" width="6" height="6"/>
	<rect x="117.5" y="180" class="st9" width="6" height="6"/>
	<rect x="123.5" y="180" class="st9" width="6" height="6"/>
	<rect x="129.5" y="180" class="st9" width="6" height="6"/>
	<rect x="135.5" y="180" class="st9" width="6" height="6"/>
	<rect x="141.5" y="180" class="st9" width="6" height="6"/>
	<rect x="147.5" y="180" class="st9" width="6" height="6"/>
	<rect x="153.5" y="180" class="st9" width="6" height="6"/>
	<rect x="159.5" y="180" class="st6" width="6" height="6"/>
	<rect x="165.5" y="180" class="st11" width="6" height="6"/>
	<rect x="171.5" y="180" class="st0" width="6" height="6"/>
	<rect x="9.5" y="186" class="st0" width="6" height="6"/>
	<rect x="15.5" y="186" class="st11" width="6" height="6"/>
	<rect x="21.5" y="186" class="st6" width="6" height="6"/>
	<rect x="27.5" y="186" class="st9" width="6" height="6"/>
	<rect x="33.5" y="186" class="st9" width="6" height="6"/>
	<rect x="39.5" y="186" class="st9" width="6" height="6"/>
	<rect x="45.5" y="186" class="st9" width="6" height="6"/>
	<rect x="51.5" y="186" class="st9" width="6" height="6"/>
	<rect x="57.5" y="186" class="st9" width="6" height="6"/>
	<rect x="63.5" y="186" class="st9" width="6" height="6"/>
	<rect x="69.5" y="186" class="st9" width="6" height="6"/>
	<rect x="75.5" y="186" class="st9" width="6" height="6"/>
	<rect x="81.5" y="186" class="st9" width="6" height="6"/>
	<rect x="87.5" y="186" class="st9" width="6" height="6"/>
	<rect x="93.5" y="186" class="st9" width="6" height="6"/>
	<rect x="99.5" y="186" class="st9" width="6" height="6"/>
	<rect x="105.5" y="186" class="st9" width="6" height="6"/>
	<rect x="111.5" y="186" class="st9" width="6" height="6"/>
	<rect x="117.5" y="186" class="st9" width="6" height="6"/>
	<rect x="123.5" y="186" class="st9" width="6" height="6"/>
	<rect x="129.5" y="186" class="st9" width="6" height="6"/>
	<rect x="135.5" y="186" class="st9" width="6" height="6"/>
	<rect x="141.5" y="186" class="st9" width="6" height="6"/>
	<rect x="147.5" y="186" class="st9" width="6" height="6"/>
	<rect x="153.5" y="186" class="st9" width="6" height="6"/>
	<rect x="159.5" y="186" class="st6" width="6" height="6"/>
	<rect x="165.5" y="186" class="st11" width="6" height="6"/>
	<rect x="171.5" y="186" class="st0" width="6" height="6"/>
</g>
</svg>
