<?xml version="1.0" encoding="UTF-8"?><svg id="Layer_1" xmlns="http://www.w3.org/2000/svg" viewBox="0 0 500 430"><defs><style>.cls-1,.cls-2{stroke:#914938;stroke-miterlimit:10;stroke-width:2px;}.cls-1,.cls-3{fill:#914938;}.cls-4{fill:#f4ebd4;font-family:Roboto-Bold, Roboto;font-size:20.36px;font-weight:700;}.cls-2{fill:none;}.cls-3{stroke-width:0px;}</style></defs><path class="cls-3" d="m95.02,124.1c27,0,51.48-.36,70.92-4.32.36-9.36,2.16-54.36,2.16-64.8l35.64,3.24c-.36,3.96-3.6,6.12-9.72,6.84-1.44,15.48-2.16,33.48-2.88,50.76l14.76,5.04c-6.12,11.88-11.52,30.6-16.92,48.24,0,4.68-.36,9.72-.36,14.4,37.08-32.4,82.08-52.56,120.6-52.56,54.36,0,81,37.08,81,104.4,0,23.04-2.88,44.64-9.36,63.72,10.8,9.36,22.68,21.24,31.32,31.32l-16.56,21.24c-6.48-7.92-17.28-19.08-27-28.08-14.04,24.48-35.28,41.76-72,41.76-33.84,0-58.32-21.24-58.32-49.32,0-29.88,26.28-50.4,59.04-50.4,22.68,0,42.84,7.56,60.84,19.08,4.68-14.4,6.48-31.32,6.48-49.68,0-48.6-19.08-79.92-58.68-79.92-33.48,0-79.56,19.44-118.08,55.44,0,23.4-.36,138.6,0,164.52h-24.84c.36-31.68.72-108,1.08-152.64h-.36c-9,20.88-30.24,57.6-60.84,90.72l-15.12-22.32c32.04-32.4,58.32-73.8,76.32-118.08l1.08-28.44c-13.32,2.16-38.88,3.96-70.2,3.96v-24.12Zm256.32,182.16c-16.56-12.96-35.64-20.52-53.64-20.52-20.16,0-38.16,11.88-38.16,28.44,0,18.36,17.64,29.88,38.16,29.88,32.04,0,47.16-22.68,53.64-37.8Z"/><path class="cls-2" d="m95.02,110.1s35.11,3.37,62.38-2.68"/><path class="cls-2" d="m206.9,79.61s-7.76,151.21-5.07,171.86"/><path class="cls-2" d="m120.26,313.98s23.61-28.89,37.99-55.5"/><path class="cls-2" d="m326.53,171.54s33.51,20.76,23.46,97.16"/><polygon class="cls-1" points="201.26 245.06 206.01 245.09 203.61 250.94 201.21 256.78 198.86 250.91 196.51 245.04 201.26 245.06"/><polygon class="cls-1" points="148.46 109.09 147.65 104.41 153.83 105.75 160.01 107.09 154.64 110.43 149.27 113.77 148.46 109.09"/><polygon class="cls-1" points="152.9 267.21 148.73 264.94 153.61 260.92 158.5 256.91 157.79 263.19 157.08 269.47 152.9 267.21"/><polygon class="cls-1" points="351.02 259.5 355.73 260.13 352.6 265.62 349.47 271.12 347.89 265 346.31 258.87 351.02 259.5"/><circle class="cls-1" cx="233.9" cy="72.69" r="16.1"/><text class="cls-4" transform="translate(228.07 79.99)"><tspan x="0" y="0">1</tspan></text><circle class="cls-1" cx="111.12" cy="82.99" r="16.1"/><text class="cls-4" transform="translate(105.28 90.3)"><tspan x="0" y="0">2</tspan></text></svg>