<?xml version="1.0" encoding="UTF-8"?><svg id="Layer_1" xmlns="http://www.w3.org/2000/svg" viewBox="0 0 500 430"><defs><style>.cls-1,.cls-2{stroke:#914938;stroke-miterlimit:10;stroke-width:2px;}.cls-1,.cls-3{fill:#914938;}.cls-4{fill:#f4ebd4;font-family:Roboto-Bold, Roboto;font-size:20.36px;font-weight:700;}.cls-2{fill:none;}.cls-3{stroke-width:0px;}</style></defs><path class="cls-3" d="m163.6,76.8c-1.08,3.96-4.68,6.12-11.88,5.76-12.6,58.68-19.08,123.12-19.08,162,0,27,1.08,54.36,4.68,71.28,6.84-17.64,22.32-55.44,27.36-68.04l15.12,15.84c-14.76,36.36-25.56,56.88-30.6,73.08-1.8,6.12-2.88,11.88-2.88,16.92,0,3.96.72,7.56,1.8,11.16l-25.56,4.68c-11.52-34.2-15.84-75.96-15.84-123.84s7.56-113.04,19.08-175.32l37.8,6.48Zm229.32,263.16c-12.96.72-26.28,1.08-39.6,1.08-25.56,0-49.68-1.44-66.96-3.96-44.28-6.48-64.8-30.96-64.8-59.76,0-24.84,13.68-45.72,33.84-69.48l23.4,10.08c-18,18.72-30.6,36-30.6,56.52,0,41.76,61.2,41.76,98.64,41.76,15.12,0,31.32-.72,46.44-1.8l-.36,25.56ZM226.24,120c46.44-1.08,109.08-5.4,156.96-13.68l2.16,25.2c-44.64,7.56-117,12.24-158.4,13.32l-.72-24.84Z"/><path class="cls-2" d="m163.21,99.87s-17.8,93.78-15.26,128.89"/><path class="cls-2" d="m236.5,104.71s122.07-6.11,129.91-10.93"/><path class="cls-2" d="m276.41,236.25s-21.53,16.84-14.17,42.06c7.36,25.22,47.38,26.03,47.38,26.03"/><polygon class="cls-1" points="363.58 95.06 362.52 90.44 368.76 91.43 375.01 92.43 369.83 96.06 364.65 99.69 363.58 95.06"/><polygon class="cls-1" points="147.7 223.93 152.44 223.74 150.31 229.69 148.17 235.64 145.56 229.88 142.95 224.12 147.7 223.93"/><polygon class="cls-1" points="306.8 304.34 306.97 299.59 312.74 302.18 318.51 304.76 312.57 306.92 306.62 309.08 306.8 304.34"/><circle class="cls-1" cx="189.34" cy="99.87" r="16.1"/><text class="cls-4" transform="translate(183.51 107.17)"><tspan x="0" y="0">1</tspan></text><circle class="cls-1" cx="244.61" cy="76.62" r="16.1"/><text class="cls-4" transform="translate(238.77 83.92)"><tspan x="0" y="0">2</tspan></text><circle class="cls-1" cx="302.46" cy="228.01" r="16.1"/><text class="cls-4" transform="translate(296.62 235.32)"><tspan x="0" y="0">3</tspan></text></svg>