<?xml version="1.0" encoding="UTF-8"?><svg id="Layer_1" xmlns="http://www.w3.org/2000/svg" viewBox="0 0 500 430"><defs><style>.cls-1,.cls-2{stroke:#914938;stroke-miterlimit:10;stroke-width:2px;}.cls-1,.cls-3{fill:#914938;}.cls-4{fill:#f4ebd4;font-family:Roboto-Bold, Roboto;font-size:20.36px;font-weight:700;}.cls-2{fill:none;}.cls-3{stroke-width:0px;}</style></defs><path class="cls-3" d="m263.58,103.94c-1.44,3.24-4.32,5.76-9,5.76-12.96,111.96-50.4,209.52-110.16,209.52-30.24,0-57.6-30.24-57.6-87.12,0-86.4,67.32-158.76,162-158.76,104.04,0,149.04,65.88,149.04,136.08,0,85.68-49.68,127.08-136.8,147.24-3.24-5.76-9.36-15.48-15.12-21.96,82.8-15.84,125.28-56.16,125.28-124.2,0-59.4-38.16-113.4-122.4-113.4-3.6,0-7.56.36-10.8.72l25.56,6.12Zm-34.56-4.68c-72.72,9-117.72,69.12-117.72,132.12,0,38.52,16.56,62.64,33.84,62.64,43.56,0,74.88-96.12,83.88-194.76Z"/><path class="cls-2" d="m268.14,121.36s-12.13,86.95-24.11,102.57"/><path class="cls-2" d="m163.2,330.05s-7.64,6.14-26.17,3.84c-18.53-2.3-30.33-16.45-30.33-16.45"/><path class="cls-2" d="m402.79,154.82s24.02,59.44-.99,115.81"/><polygon class="cls-1" points="109.08 319.57 105.31 322.46 103.63 316.36 101.95 310.26 107.4 313.47 112.85 316.68 109.08 319.57"/><polygon class="cls-1" points="248.04 215.82 252.15 218.19 247.16 222.08 242.18 225.97 243.05 219.7 243.92 213.44 248.04 215.82"/><polygon class="cls-1" points="402.95 267.06 407.01 269.54 401.93 273.3 396.85 277.07 397.88 270.83 398.9 264.59 402.95 267.06"/><circle class="cls-1" cx="294.47" cy="133.73" r="16.1"/><text class="cls-4" transform="translate(288.63 141.04)"><tspan x="0" y="0">1</tspan></text></svg>