<?xml version="1.0" encoding="utf-8"?>
<!-- Generator: Adobe Illustrator 27.9.0, SVG Export Plug-In . SVG Version: 6.00 Build 0)  -->
<svg version="1.1" id="Layer_1" shape-rendering="crispEdges"
	 xmlns="http://www.w3.org/2000/svg" xmlns:xlink="http://www.w3.org/1999/xlink" x="0px" y="0px" viewBox="0 0 192 192"
	 style="enable-background:new 0 0 192 192;" xml:space="preserve">
<style type="text/css">
	.st0{fill:#C1B9E0;}
	.st1{fill:#AE5269;}
	.st2{fill:#8D506B;}
	.st3{fill:#EA9571;}
	.st4{fill:#E6C874;}
	.st5{fill:#CD694F;}
	.st6{fill:#E17557;}
	.st7{fill:#E4895D;}
	.st8{fill:#D1584A;}
	.st9{fill:#F1BAC7;}
	.st10{fill:#4A8E72;}
	.st11{fill:#ABCC5C;}
	.st12{fill:#1D8566;}
	.st13{fill:#4A9155;}
	.st14{fill:#D58858;}
	.st15{fill:#E6E4D8;}
	.st16{fill:#2A756F;}
	.st17{fill:#CF6F87;}
	.st18{fill:#B55D83;}
	.st19{fill:#ECC98B;}
	.st20{fill:#E7A55D;}
	.st21{fill:#EBAC8B;}
	.st22{fill:#D2C8B7;}
	.st23{fill:#D7D4D1;}
	.st24{fill:#8D5386;}
	.st25{fill:#EB97A7;}
</style>
<g>
	<rect x="147" class="st0" width="6" height="6"/>
	<rect x="153" class="st0" width="6" height="6"/>
	<rect x="135" y="6" class="st0" width="6" height="6"/>
	<rect x="141" y="6" class="st0" width="6" height="6"/>
	<rect x="147" y="6" class="st1" width="6" height="6"/>
	<rect x="153" y="6" class="st1" width="6" height="6"/>
	<rect x="159" y="6" class="st0" width="6" height="6"/>
	<rect x="165" y="6" class="st0" width="6" height="6"/>
	<rect x="123" y="12" class="st0" width="6" height="6"/>
	<rect x="129" y="12" class="st0" width="6" height="6"/>
	<rect x="135" y="12" class="st1" width="6" height="6"/>
	<rect x="141" y="12" class="st1" width="6" height="6"/>
	<rect x="147" y="12" class="st0" width="6" height="6"/>
	<rect x="153" y="12" class="st0" width="6" height="6"/>
	<rect x="159" y="12" class="st1" width="6" height="6"/>
	<rect x="165" y="12" class="st1" width="6" height="6"/>
	<rect x="171" y="12" class="st0" width="6" height="6"/>
	<rect x="111" y="18" class="st0" width="6" height="6"/>
	<rect x="117" y="18" class="st0" width="6" height="6"/>
	<rect x="123" y="18" class="st2" width="6" height="6"/>
	<rect x="129" y="18" class="st1" width="6" height="6"/>
	<rect x="135" y="18" class="st0" width="6" height="6"/>
	<rect x="141" y="18" class="st0" width="6" height="6"/>
	<rect x="147" y="18" class="st1" width="6" height="6"/>
	<rect x="153" y="18" class="st1" width="6" height="6"/>
	<rect x="159" y="18" class="st0" width="6" height="6"/>
	<rect x="165" y="18" class="st0" width="6" height="6"/>
	<rect x="99" y="24" class="st0" width="6" height="6"/>
	<rect x="105" y="24" class="st0" width="6" height="6"/>
	<rect x="111" y="24" class="st2" width="6" height="6"/>
	<rect x="117" y="24" class="st2" width="6" height="6"/>
	<rect x="123" y="24" class="st0" width="6" height="6"/>
	<rect x="129" y="24" class="st0" width="6" height="6"/>
	<rect x="135" y="24" class="st1" width="6" height="6"/>
	<rect x="141" y="24" class="st1" width="6" height="6"/>
	<rect x="147" y="24" class="st0" width="6" height="6"/>
	<rect x="153" y="24" class="st0" width="6" height="6"/>
	<rect x="87" y="30" class="st0" width="6" height="6"/>
	<rect x="93" y="30" class="st0" width="6" height="6"/>
	<rect x="99" y="30" class="st2" width="6" height="6"/>
	<rect x="105" y="30" class="st2" width="6" height="6"/>
	<rect x="111" y="30" class="st0" width="6" height="6"/>
	<rect x="117" y="30" class="st0" width="6" height="6"/>
	<rect x="123" y="30" class="st1" width="6" height="6"/>
	<rect x="129" y="30" class="st1" width="6" height="6"/>
	<rect x="135" y="30" class="st0" width="6" height="6"/>
	<rect x="141" y="30" class="st0" width="6" height="6"/>
	<rect x="75" y="36" class="st0" width="6" height="6"/>
	<rect x="81" y="36" class="st0" width="6" height="6"/>
	<rect x="87" y="36" class="st2" width="6" height="6"/>
	<rect x="93" y="36" class="st2" width="6" height="6"/>
	<rect x="99" y="36" class="st0" width="6" height="6"/>
	<rect x="105" y="36" class="st0" width="6" height="6"/>
	<rect x="111" y="36" class="st2" width="6" height="6"/>
	<rect x="117" y="36" class="st1" width="6" height="6"/>
	<rect x="123" y="36" class="st0" width="6" height="6"/>
	<rect x="129" y="36" class="st0" width="6" height="6"/>
	<rect x="69" y="42" class="st0" width="6" height="6"/>
	<rect x="75" y="42" class="st2" width="6" height="6"/>
	<rect x="81" y="42" class="st2" width="6" height="6"/>
	<rect x="87" y="42" class="st3" width="6" height="6"/>
	<rect x="93" y="42" class="st4" width="6" height="6"/>
	<rect x="99" y="42" class="st2" width="6" height="6"/>
	<rect x="105" y="42" class="st2" width="6" height="6"/>
	<rect x="111" y="42" class="st0" width="6" height="6"/>
	<rect x="117" y="42" class="st0" width="6" height="6"/>
	<rect x="63" y="48" class="st0" width="6" height="6"/>
	<rect x="69" y="48" class="st2" width="6" height="6"/>
	<rect x="75" y="48" class="st5" width="6" height="6"/>
	<rect x="81" y="48" class="st4" width="6" height="6"/>
	<rect x="87" y="48" class="st3" width="6" height="6"/>
	<rect x="93" y="48" class="st4" width="6" height="6"/>
	<rect x="99" y="48" class="st3" width="6" height="6"/>
	<rect x="105" y="48" class="st0" width="6" height="6"/>
	<rect x="69" y="54" class="st0" width="6" height="6"/>
	<rect x="75" y="54" class="st5" width="6" height="6"/>
	<rect x="81" y="54" class="st4" width="6" height="6"/>
	<rect x="87" y="54" class="st3" width="6" height="6"/>
	<rect x="93" y="54" class="st4" width="6" height="6"/>
	<rect x="99" y="54" class="st3" width="6" height="6"/>
	<rect x="105" y="54" class="st0" width="6" height="6"/>
	<rect x="63" y="60" class="st0" width="6" height="6"/>
	<rect x="69" y="60" class="st2" width="6" height="6"/>
	<rect x="75" y="60" class="st2" width="6" height="6"/>
	<rect x="81" y="60" class="st4" width="6" height="6"/>
	<rect x="87" y="60" class="st3" width="6" height="6"/>
	<rect x="93" y="60" class="st4" width="6" height="6"/>
	<rect x="99" y="60" class="st3" width="6" height="6"/>
	<rect x="105" y="60" class="st0" width="6" height="6"/>
	<rect x="69" y="66" class="st0" width="6" height="6"/>
	<rect x="75" y="66" class="st6" width="6" height="6"/>
	<rect x="81" y="66" class="st4" width="6" height="6"/>
	<rect x="87" y="66" class="st3" width="6" height="6"/>
	<rect x="93" y="66" class="st4" width="6" height="6"/>
	<rect x="99" y="66" class="st3" width="6" height="6"/>
	<rect x="105" y="66" class="st0" width="6" height="6"/>
	<rect x="69" y="72" class="st0" width="6" height="6"/>
	<rect x="75" y="72" class="st6" width="6" height="6"/>
	<rect x="81" y="72" class="st4" width="6" height="6"/>
	<rect x="87" y="72" class="st3" width="6" height="6"/>
	<rect x="93" y="72" class="st4" width="6" height="6"/>
	<rect x="99" y="72" class="st7" width="6" height="6"/>
	<rect x="105" y="72" class="st0" width="6" height="6"/>
	<rect x="69" y="78" class="st0" width="6" height="6"/>
	<rect x="75" y="78" class="st6" width="6" height="6"/>
	<rect x="81" y="78" class="st4" width="6" height="6"/>
	<rect x="87" y="78" class="st3" width="6" height="6"/>
	<rect x="93" y="78" class="st4" width="6" height="6"/>
	<rect x="99" y="78" class="st7" width="6" height="6"/>
	<rect x="105" y="78" class="st0" width="6" height="6"/>
	<rect x="63" y="84" class="st0" width="6" height="6"/>
	<rect x="69" y="84" class="st8" width="6" height="6"/>
	<rect x="75" y="84" class="st6" width="6" height="6"/>
	<rect x="81" y="84" class="st4" width="6" height="6"/>
	<rect x="87" y="84" class="st3" width="6" height="6"/>
	<rect x="93" y="84" class="st4" width="6" height="6"/>
	<rect x="99" y="84" class="st7" width="6" height="6"/>
	<rect x="105" y="84" class="st7" width="6" height="6"/>
	<rect x="111" y="84" class="st0" width="6" height="6"/>
	<rect x="123" y="84" class="st0" width="6" height="6"/>
	<rect x="39" y="90" class="st0" width="6" height="6"/>
	<rect x="45" y="90" class="st0" width="6" height="6"/>
	<rect x="51" y="90" class="st0" width="6" height="6"/>
	<rect x="57" y="90" class="st0" width="6" height="6"/>
	<rect x="63" y="90" class="st8" width="6" height="6"/>
	<rect x="69" y="90" class="st9" width="6" height="6"/>
	<rect x="75" y="90" class="st6" width="6" height="6"/>
	<rect x="81" y="90" class="st4" width="6" height="6"/>
	<rect x="87" y="90" class="st7" width="6" height="6"/>
	<rect x="93" y="90" class="st4" width="6" height="6"/>
	<rect x="99" y="90" class="st6" width="6" height="6"/>
	<rect x="105" y="90" class="st4" width="6" height="6"/>
	<rect x="111" y="90" class="st7" width="6" height="6"/>
	<rect x="117" y="90" class="st0" width="6" height="6"/>
	<rect x="123" y="90" class="st10" width="6" height="6"/>
	<rect x="129" y="90" class="st0" width="6" height="6"/>
	<rect x="135" y="90" class="st0" width="6" height="6"/>
	<rect x="33" y="96" class="st0" width="6" height="6"/>
	<rect x="39" y="96" class="st8" width="6" height="6"/>
	<rect x="45" y="96" class="st8" width="6" height="6"/>
	<rect x="51" y="96" class="st8" width="6" height="6"/>
	<rect x="57" y="96" class="st8" width="6" height="6"/>
	<rect x="63" y="96" class="st9" width="6" height="6"/>
	<rect x="69" y="96" class="st8" width="6" height="6"/>
	<rect x="75" y="96" class="st6" width="6" height="6"/>
	<rect x="81" y="96" class="st4" width="6" height="6"/>
	<rect x="87" y="96" class="st6" width="6" height="6"/>
	<rect x="93" y="96" class="st4" width="6" height="6"/>
	<rect x="99" y="96" class="st6" width="6" height="6"/>
	<rect x="105" y="96" class="st7" width="6" height="6"/>
	<rect x="111" y="96" class="st7" width="6" height="6"/>
	<rect x="117" y="96" class="st10" width="6" height="6"/>
	<rect x="123" y="96" class="st11" width="6" height="6"/>
	<rect x="129" y="96" class="st12" width="6" height="6"/>
	<rect x="135" y="96" class="st12" width="6" height="6"/>
	<rect x="141" y="96" class="st0" width="6" height="6"/>
	<rect x="27" y="102" class="st0" width="6" height="6"/>
	<rect x="33" y="102" class="st8" width="6" height="6"/>
	<rect x="39" y="102" class="st9" width="6" height="6"/>
	<rect x="45" y="102" class="st9" width="6" height="6"/>
	<rect x="51" y="102" class="st9" width="6" height="6"/>
	<rect x="57" y="102" class="st8" width="6" height="6"/>
	<rect x="63" y="102" class="st9" width="6" height="6"/>
	<rect x="69" y="102" class="st8" width="6" height="6"/>
	<rect x="75" y="102" class="st6" width="6" height="6"/>
	<rect x="81" y="102" class="st4" width="6" height="6"/>
	<rect x="87" y="102" class="st6" width="6" height="6"/>
	<rect x="93" y="102" class="st4" width="6" height="6"/>
	<rect x="99" y="102" class="st6" width="6" height="6"/>
	<rect x="105" y="102" class="st4" width="6" height="6"/>
	<rect x="111" y="102" class="st4" width="6" height="6"/>
	<rect x="117" y="102" class="st7" width="6" height="6"/>
	<rect x="123" y="102" class="st12" width="6" height="6"/>
	<rect x="129" y="102" class="st13" width="6" height="6"/>
	<rect x="135" y="102" class="st13" width="6" height="6"/>
	<rect x="141" y="102" class="st12" width="6" height="6"/>
	<rect x="147" y="102" class="st0" width="6" height="6"/>
	<rect x="21" y="108" class="st0" width="6" height="6"/>
	<rect x="27" y="108" class="st8" width="6" height="6"/>
	<rect x="33" y="108" class="st9" width="6" height="6"/>
	<rect x="39" y="108" class="st8" width="6" height="6"/>
	<rect x="45" y="108" class="st7" width="6" height="6"/>
	<rect x="51" y="108" class="st14" width="6" height="6"/>
	<rect x="57" y="108" class="st9" width="6" height="6"/>
	<rect x="63" y="108" class="st8" width="6" height="6"/>
	<rect x="69" y="108" class="st9" width="6" height="6"/>
	<rect x="75" y="108" class="st6" width="6" height="6"/>
	<rect x="81" y="108" class="st4" width="6" height="6"/>
	<rect x="87" y="108" class="st6" width="6" height="6"/>
	<rect x="93" y="108" class="st4" width="6" height="6"/>
	<rect x="99" y="108" class="st6" width="6" height="6"/>
	<rect x="105" y="108" class="st7" width="6" height="6"/>
	<rect x="111" y="108" class="st4" width="6" height="6"/>
	<rect x="117" y="108" class="st7" width="6" height="6"/>
	<rect x="123" y="108" class="st12" width="6" height="6"/>
	<rect x="129" y="108" class="st13" width="6" height="6"/>
	<rect x="135" y="108" class="st11" width="6" height="6"/>
	<rect x="141" y="108" class="st12" width="6" height="6"/>
	<rect x="147" y="108" class="st0" width="6" height="6"/>
	<rect x="21" y="114" class="st0" width="6" height="6"/>
	<rect x="27" y="114" class="st8" width="6" height="6"/>
	<rect x="33" y="114" class="st8" width="6" height="6"/>
	<rect x="39" y="114" class="st7" width="6" height="6"/>
	<rect x="45" y="114" class="st15" width="6" height="6"/>
	<rect x="51" y="114" class="st15" width="6" height="6"/>
	<rect x="57" y="114" class="st14" width="6" height="6"/>
	<rect x="63" y="114" class="st9" width="6" height="6"/>
	<rect x="69" y="114" class="st3" width="6" height="6"/>
	<rect x="75" y="114" class="st3" width="6" height="6"/>
	<rect x="81" y="114" class="st12" width="6" height="6"/>
	<rect x="87" y="114" class="st3" width="6" height="6"/>
	<rect x="93" y="114" class="st3" width="6" height="6"/>
	<rect x="99" y="114" class="st4" width="6" height="6"/>
	<rect x="105" y="114" class="st3" width="6" height="6"/>
	<rect x="111" y="114" class="st3" width="6" height="6"/>
	<rect x="117" y="114" class="st12" width="6" height="6"/>
	<rect x="123" y="114" class="st3" width="6" height="6"/>
	<rect x="129" y="114" class="st3" width="6" height="6"/>
	<rect x="135" y="114" class="st13" width="6" height="6"/>
	<rect x="141" y="114" class="st16" width="6" height="6"/>
	<rect x="147" y="114" class="st0" width="6" height="6"/>
	<rect x="15" y="120" class="st0" width="6" height="6"/>
	<rect x="21" y="120" class="st17" width="6" height="6"/>
	<rect x="27" y="120" class="st1" width="6" height="6"/>
	<rect x="33" y="120" class="st7" width="6" height="6"/>
	<rect x="39" y="120" class="st15" width="6" height="6"/>
	<rect x="45" y="120" class="st15" width="6" height="6"/>
	<rect x="51" y="120" class="st15" width="6" height="6"/>
	<rect x="57" y="120" class="st15" width="6" height="6"/>
	<rect x="63" y="120" class="st14" width="6" height="6"/>
	<rect x="69" y="120" class="st4" width="6" height="6"/>
	<rect x="75" y="120" class="st4" width="6" height="6"/>
	<rect x="81" y="120" class="st4" width="6" height="6"/>
	<rect x="87" y="120" class="st4" width="6" height="6"/>
	<rect x="93" y="120" class="st4" width="6" height="6"/>
	<rect x="99" y="120" class="st3" width="6" height="6"/>
	<rect x="105" y="120" class="st4" width="6" height="6"/>
	<rect x="111" y="120" class="st4" width="6" height="6"/>
	<rect x="117" y="120" class="st4" width="6" height="6"/>
	<rect x="123" y="120" class="st4" width="6" height="6"/>
	<rect x="129" y="120" class="st4" width="6" height="6"/>
	<rect x="135" y="120" class="st7" width="6" height="6"/>
	<rect x="141" y="120" class="st16" width="6" height="6"/>
	<rect x="147" y="120" class="st17" width="6" height="6"/>
	<rect x="153" y="120" class="st0" width="6" height="6"/>
	<rect x="15" y="126" class="st0" width="6" height="6"/>
	<rect x="21" y="126" class="st18" width="6" height="6"/>
	<rect x="27" y="126" class="st1" width="6" height="6"/>
	<rect x="33" y="126" class="st5" width="6" height="6"/>
	<rect x="39" y="126" class="st19" width="6" height="6"/>
	<rect x="45" y="126" class="st20" width="6" height="6"/>
	<rect x="51" y="126" class="st20" width="6" height="6"/>
	<rect x="57" y="126" class="st15" width="6" height="6"/>
	<rect x="63" y="126" class="st14" width="6" height="6"/>
	<rect x="69" y="126" class="st3" width="6" height="6"/>
	<rect x="75" y="126" class="st3" width="6" height="6"/>
	<rect x="81" y="126" class="st3" width="6" height="6"/>
	<rect x="87" y="126" class="st3" width="6" height="6"/>
	<rect x="93" y="126" class="st12" width="6" height="6"/>
	<rect x="99" y="126" class="st4" width="6" height="6"/>
	<rect x="105" y="126" class="st3" width="6" height="6"/>
	<rect x="111" y="126" class="st3" width="6" height="6"/>
	<rect x="117" y="126" class="st3" width="6" height="6"/>
	<rect x="123" y="126" class="st3" width="6" height="6"/>
	<rect x="129" y="126" class="st12" width="6" height="6"/>
	<rect x="135" y="126" class="st4" width="6" height="6"/>
	<rect x="141" y="126" class="st5" width="6" height="6"/>
	<rect x="147" y="126" class="st18" width="6" height="6"/>
	<rect x="153" y="126" class="st0" width="6" height="6"/>
	<rect x="15" y="132" class="st0" width="6" height="6"/>
	<rect x="21" y="132" class="st18" width="6" height="6"/>
	<rect x="27" y="132" class="st17" width="6" height="6"/>
	<rect x="33" y="132" class="st17" width="6" height="6"/>
	<rect x="39" y="132" class="st19" width="6" height="6"/>
	<rect x="45" y="132" class="st7" width="6" height="6"/>
	<rect x="51" y="132" class="st7" width="6" height="6"/>
	<rect x="57" y="132" class="st19" width="6" height="6"/>
	<rect x="63" y="132" class="st5" width="6" height="6"/>
	<rect x="69" y="132" class="st12" width="6" height="6"/>
	<rect x="75" y="132" class="st4" width="6" height="6"/>
	<rect x="81" y="132" class="st4" width="6" height="6"/>
	<rect x="87" y="132" class="st4" width="6" height="6"/>
	<rect x="93" y="132" class="st6" width="6" height="6"/>
	<rect x="99" y="132" class="st3" width="6" height="6"/>
	<rect x="105" y="132" class="st12" width="6" height="6"/>
	<rect x="111" y="132" class="st4" width="6" height="6"/>
	<rect x="117" y="132" class="st4" width="6" height="6"/>
	<rect x="123" y="132" class="st4" width="6" height="6"/>
	<rect x="129" y="132" class="st6" width="6" height="6"/>
	<rect x="135" y="132" class="st21" width="6" height="6"/>
	<rect x="141" y="132" class="st17" width="6" height="6"/>
	<rect x="147" y="132" class="st18" width="6" height="6"/>
	<rect x="153" y="132" class="st0" width="6" height="6"/>
	<rect x="15" y="138" class="st0" width="6" height="6"/>
	<rect x="21" y="138" class="st18" width="6" height="6"/>
	<rect x="27" y="138" class="st22" width="6" height="6"/>
	<rect x="33" y="138" class="st22" width="6" height="6"/>
	<rect x="39" y="138" class="st17" width="6" height="6"/>
	<rect x="45" y="138" class="st17" width="6" height="6"/>
	<rect x="51" y="138" class="st17" width="6" height="6"/>
	<rect x="57" y="138" class="st19" width="6" height="6"/>
	<rect x="63" y="138" class="st5" width="6" height="6"/>
	<rect x="69" y="138" class="st6" width="6" height="6"/>
	<rect x="75" y="138" class="st3" width="6" height="6"/>
	<rect x="81" y="138" class="st6" width="6" height="6"/>
	<rect x="87" y="138" class="st3" width="6" height="6"/>
	<rect x="93" y="138" class="st6" width="6" height="6"/>
	<rect x="99" y="138" class="st3" width="6" height="6"/>
	<rect x="105" y="138" class="st5" width="6" height="6"/>
	<rect x="111" y="138" class="st3" width="6" height="6"/>
	<rect x="117" y="138" class="st21" width="6" height="6"/>
	<rect x="123" y="138" class="st17" width="6" height="6"/>
	<rect x="129" y="138" class="st21" width="6" height="6"/>
	<rect x="135" y="138" class="st22" width="6" height="6"/>
	<rect x="141" y="138" class="st22" width="6" height="6"/>
	<rect x="147" y="138" class="st18" width="6" height="6"/>
	<rect x="153" y="138" class="st0" width="6" height="6"/>
	<rect x="21" y="144" class="st0" width="6" height="6"/>
	<rect x="27" y="144" class="st18" width="6" height="6"/>
	<rect x="33" y="144" class="st17" width="6" height="6"/>
	<rect x="39" y="144" class="st22" width="6" height="6"/>
	<rect x="45" y="144" class="st23" width="6" height="6"/>
	<rect x="51" y="144" class="st15" width="6" height="6"/>
	<rect x="57" y="144" class="st17" width="6" height="6"/>
	<rect x="63" y="144" class="st17" width="6" height="6"/>
	<rect x="69" y="144" class="st17" width="6" height="6"/>
	<rect x="75" y="144" class="st17" width="6" height="6"/>
	<rect x="81" y="144" class="st17" width="6" height="6"/>
	<rect x="87" y="144" class="st17" width="6" height="6"/>
	<rect x="93" y="144" class="st17" width="6" height="6"/>
	<rect x="99" y="144" class="st17" width="6" height="6"/>
	<rect x="105" y="144" class="st17" width="6" height="6"/>
	<rect x="111" y="144" class="st17" width="6" height="6"/>
	<rect x="117" y="144" class="st15" width="6" height="6"/>
	<rect x="123" y="144" class="st23" width="6" height="6"/>
	<rect x="129" y="144" class="st22" width="6" height="6"/>
	<rect x="135" y="144" class="st18" width="6" height="6"/>
	<rect x="141" y="144" class="st17" width="6" height="6"/>
	<rect x="147" y="144" class="st0" width="6" height="6"/>
	<rect x="21" y="150" class="st0" width="6" height="6"/>
	<rect x="27" y="150" class="st17" width="6" height="6"/>
	<rect x="33" y="150" class="st18" width="6" height="6"/>
	<rect x="39" y="150" class="st17" width="6" height="6"/>
	<rect x="45" y="150" class="st18" width="6" height="6"/>
	<rect x="51" y="150" class="st17" width="6" height="6"/>
	<rect x="57" y="150" class="st15" width="6" height="6"/>
	<rect x="63" y="150" class="st15" width="6" height="6"/>
	<rect x="69" y="150" class="st15" width="6" height="6"/>
	<rect x="75" y="150" class="st15" width="6" height="6"/>
	<rect x="81" y="150" class="st15" width="6" height="6"/>
	<rect x="87" y="150" class="st15" width="6" height="6"/>
	<rect x="93" y="150" class="st15" width="6" height="6"/>
	<rect x="99" y="150" class="st15" width="6" height="6"/>
	<rect x="105" y="150" class="st15" width="6" height="6"/>
	<rect x="111" y="150" class="st15" width="6" height="6"/>
	<rect x="117" y="150" class="st18" width="6" height="6"/>
	<rect x="123" y="150" class="st17" width="6" height="6"/>
	<rect x="129" y="150" class="st18" width="6" height="6"/>
	<rect x="135" y="150" class="st17" width="6" height="6"/>
	<rect x="141" y="150" class="st18" width="6" height="6"/>
	<rect x="147" y="150" class="st0" width="6" height="6"/>
	<rect x="27" y="156" class="st0" width="6" height="6"/>
	<rect x="33" y="156" class="st24" width="6" height="6"/>
	<rect x="39" y="156" class="st18" width="6" height="6"/>
	<rect x="45" y="156" class="st17" width="6" height="6"/>
	<rect x="51" y="156" class="st18" width="6" height="6"/>
	<rect x="57" y="156" class="st17" width="6" height="6"/>
	<rect x="63" y="156" class="st18" width="6" height="6"/>
	<rect x="69" y="156" class="st25" width="6" height="6"/>
	<rect x="75" y="156" class="st18" width="6" height="6"/>
	<rect x="81" y="156" class="st25" width="6" height="6"/>
	<rect x="87" y="156" class="st18" width="6" height="6"/>
	<rect x="93" y="156" class="st25" width="6" height="6"/>
	<rect x="99" y="156" class="st18" width="6" height="6"/>
	<rect x="105" y="156" class="st17" width="6" height="6"/>
	<rect x="111" y="156" class="st18" width="6" height="6"/>
	<rect x="117" y="156" class="st17" width="6" height="6"/>
	<rect x="123" y="156" class="st18" width="6" height="6"/>
	<rect x="129" y="156" class="st17" width="6" height="6"/>
	<rect x="135" y="156" class="st24" width="6" height="6"/>
	<rect x="141" y="156" class="st0" width="6" height="6"/>
	<rect x="33" y="162" class="st0" width="6" height="6"/>
	<rect x="39" y="162" class="st24" width="6" height="6"/>
	<rect x="45" y="162" class="st22" width="6" height="6"/>
	<rect x="51" y="162" class="st15" width="6" height="6"/>
	<rect x="57" y="162" class="st18" width="6" height="6"/>
	<rect x="63" y="162" class="st17" width="6" height="6"/>
	<rect x="69" y="162" class="st18" width="6" height="6"/>
	<rect x="75" y="162" class="st25" width="6" height="6"/>
	<rect x="81" y="162" class="st18" width="6" height="6"/>
	<rect x="87" y="162" class="st25" width="6" height="6"/>
	<rect x="93" y="162" class="st18" width="6" height="6"/>
	<rect x="99" y="162" class="st25" width="6" height="6"/>
	<rect x="105" y="162" class="st18" width="6" height="6"/>
	<rect x="111" y="162" class="st17" width="6" height="6"/>
	<rect x="117" y="162" class="st15" width="6" height="6"/>
	<rect x="123" y="162" class="st22" width="6" height="6"/>
	<rect x="129" y="162" class="st24" width="6" height="6"/>
	<rect x="135" y="162" class="st0" width="6" height="6"/>
	<rect x="39" y="168" class="st0" width="6" height="6"/>
	<rect x="45" y="168" class="st24" width="6" height="6"/>
	<rect x="51" y="168" class="st23" width="6" height="6"/>
	<rect x="57" y="168" class="st15" width="6" height="6"/>
	<rect x="63" y="168" class="st15" width="6" height="6"/>
	<rect x="69" y="168" class="st15" width="6" height="6"/>
	<rect x="75" y="168" class="st15" width="6" height="6"/>
	<rect x="81" y="168" class="st15" width="6" height="6"/>
	<rect x="87" y="168" class="st15" width="6" height="6"/>
	<rect x="93" y="168" class="st15" width="6" height="6"/>
	<rect x="99" y="168" class="st15" width="6" height="6"/>
	<rect x="105" y="168" class="st15" width="6" height="6"/>
	<rect x="111" y="168" class="st15" width="6" height="6"/>
	<rect x="117" y="168" class="st23" width="6" height="6"/>
	<rect x="123" y="168" class="st24" width="6" height="6"/>
	<rect x="129" y="168" class="st0" width="6" height="6"/>
	<rect x="45" y="174" class="st0" width="6" height="6"/>
	<rect x="51" y="174" class="st24" width="6" height="6"/>
	<rect x="57" y="174" class="st24" width="6" height="6"/>
	<rect x="63" y="174" class="st24" width="6" height="6"/>
	<rect x="69" y="174" class="st15" width="6" height="6"/>
	<rect x="75" y="174" class="st15" width="6" height="6"/>
	<rect x="81" y="174" class="st15" width="6" height="6"/>
	<rect x="87" y="174" class="st15" width="6" height="6"/>
	<rect x="93" y="174" class="st15" width="6" height="6"/>
	<rect x="99" y="174" class="st15" width="6" height="6"/>
	<rect x="105" y="174" class="st24" width="6" height="6"/>
	<rect x="111" y="174" class="st24" width="6" height="6"/>
	<rect x="117" y="174" class="st24" width="6" height="6"/>
	<rect x="123" y="174" class="st0" width="6" height="6"/>
	<rect x="51" y="180" class="st0" width="6" height="6"/>
	<rect x="57" y="180" class="st0" width="6" height="6"/>
	<rect x="63" y="180" class="st0" width="6" height="6"/>
	<rect x="69" y="180" class="st24" width="6" height="6"/>
	<rect x="75" y="180" class="st24" width="6" height="6"/>
	<rect x="81" y="180" class="st24" width="6" height="6"/>
	<rect x="87" y="180" class="st24" width="6" height="6"/>
	<rect x="93" y="180" class="st24" width="6" height="6"/>
	<rect x="99" y="180" class="st24" width="6" height="6"/>
	<rect x="105" y="180" class="st0" width="6" height="6"/>
	<rect x="111" y="180" class="st0" width="6" height="6"/>
	<rect x="117" y="180" class="st0" width="6" height="6"/>
	<rect x="69" y="186" class="st0" width="6" height="6"/>
	<rect x="75" y="186" class="st0" width="6" height="6"/>
	<rect x="81" y="186" class="st0" width="6" height="6"/>
	<rect x="87" y="186" class="st0" width="6" height="6"/>
	<rect x="93" y="186" class="st0" width="6" height="6"/>
	<rect x="99" y="186" class="st0" width="6" height="6"/>
</g>
</svg>
