<?xml version="1.0" encoding="utf-8"?>
<!-- Generator: Adobe Illustrator 27.9.0, SVG Export Plug-In . SVG Version: 6.00 Build 0)  -->
<svg version="1.1" id="Layer_1" shape-rendering="crispEdges"
	 xmlns="http://www.w3.org/2000/svg" xmlns:xlink="http://www.w3.org/1999/xlink" x="0px" y="0px" viewBox="0 0 192 192"
	 style="enable-background:new 0 0 192 192;" xml:space="preserve">
<style type="text/css">
	.st0{fill:#C1B9E0;}
	.st1{fill:#8D5386;}
	.st2{fill:#E17557;}
	.st3{fill:#EDE5B7;}
	.st4{fill:#E7A55D;}
	.st5{fill:#B55D83;}
	.st6{fill:#E2574A;}
	.st7{fill:#ECE7E8;}
	.st8{fill:#CEB8C8;}
	.st9{fill:#490C37;}
	.st10{fill:#5D1548;}
	.st11{fill:#330E30;}
</style>
<g>
	<rect x="80.2" y="30.7" class="st0" width="5.3" height="5.3"/>
	<rect x="85.5" y="30.7" class="st0" width="5.3" height="5.3"/>
	<rect x="90.7" y="30.7" class="st0" width="5.3" height="5.3"/>
	<rect x="96" y="30.7" class="st0" width="5.3" height="5.3"/>
	<rect x="101.3" y="30.7" class="st0" width="5.3" height="5.3"/>
	<rect x="106.5" y="30.7" class="st0" width="5.3" height="5.3"/>
	<rect x="111.8" y="30.7" class="st0" width="5.3" height="5.3"/>
	<rect x="69.7" y="35.9" class="st0" width="5.3" height="5.3"/>
	<rect x="74.9" y="35.9" class="st0" width="5.3" height="5.3"/>
	<rect x="80.2" y="35.9" class="st1" width="5.3" height="5.3"/>
	<rect x="85.5" y="35.9" class="st1" width="5.3" height="5.3"/>
	<rect x="90.7" y="35.9" class="st2" width="5.3" height="5.3"/>
	<rect x="96" y="35.9" class="st3" width="5.3" height="5.3"/>
	<rect x="101.3" y="35.9" class="st4" width="5.3" height="5.3"/>
	<rect x="106.5" y="35.9" class="st5" width="5.3" height="5.3"/>
	<rect x="111.8" y="35.9" class="st5" width="5.3" height="5.3"/>
	<rect x="117.1" y="35.9" class="st0" width="5.3" height="5.3"/>
	<rect x="122.3" y="35.9" class="st0" width="5.3" height="5.3"/>
	<rect x="64.4" y="41.2" class="st0" width="5.3" height="5.3"/>
	<rect x="69.7" y="41.2" class="st1" width="5.3" height="5.3"/>
	<rect x="74.9" y="41.2" class="st1" width="5.3" height="5.3"/>
	<rect x="80.2" y="41.2" class="st6" width="5.3" height="5.3"/>
	<rect x="85.5" y="41.2" class="st2" width="5.3" height="5.3"/>
	<rect x="90.7" y="41.2" class="st3" width="5.3" height="5.3"/>
	<rect x="96" y="41.2" class="st6" width="5.3" height="5.3"/>
	<rect x="101.3" y="41.2" class="st2" width="5.3" height="5.3"/>
	<rect x="106.5" y="41.2" class="st3" width="5.3" height="5.3"/>
	<rect x="111.8" y="41.2" class="st2" width="5.3" height="5.3"/>
	<rect x="117.1" y="41.2" class="st5" width="5.3" height="5.3"/>
	<rect x="122.3" y="41.2" class="st5" width="5.3" height="5.3"/>
	<rect x="127.6" y="41.2" class="st0" width="5.3" height="5.3"/>
	<rect x="59.1" y="46.5" class="st0" width="5.3" height="5.3"/>
	<rect x="64.4" y="46.5" class="st1" width="5.3" height="5.3"/>
	<rect x="69.7" y="46.5" class="st7" width="5.3" height="5.3"/>
	<rect x="74.9" y="46.5" class="st7" width="5.3" height="5.3"/>
	<rect x="80.2" y="46.5" class="st2" width="5.3" height="5.3"/>
	<rect x="85.5" y="46.5" class="st6" width="5.3" height="5.3"/>
	<rect x="90.7" y="46.5" class="st2" width="5.3" height="5.3"/>
	<rect x="96" y="46.5" class="st4" width="5.3" height="5.3"/>
	<rect x="101.3" y="46.5" class="st6" width="5.3" height="5.3"/>
	<rect x="106.5" y="46.5" class="st2" width="5.3" height="5.3"/>
	<rect x="111.8" y="46.5" class="st4" width="5.3" height="5.3"/>
	<rect x="117.1" y="46.5" class="st7" width="5.3" height="5.3"/>
	<rect x="122.3" y="46.5" class="st7" width="5.3" height="5.3"/>
	<rect x="127.6" y="46.5" class="st5" width="5.3" height="5.3"/>
	<rect x="132.9" y="46.5" class="st0" width="5.3" height="5.3"/>
	<rect x="53.9" y="51.7" class="st0" width="5.3" height="5.3"/>
	<rect x="59.1" y="51.7" class="st1" width="5.3" height="5.3"/>
	<rect x="64.4" y="51.7" class="st7" width="5.3" height="5.3"/>
	<rect x="69.7" y="51.7" class="st7" width="5.3" height="5.3"/>
	<rect x="74.9" y="51.7" class="st7" width="5.3" height="5.3"/>
	<rect x="80.2" y="51.7" class="st6" width="5.3" height="5.3"/>
	<rect x="85.5" y="51.7" class="st3" width="5.3" height="5.3"/>
	<rect x="90.7" y="51.7" class="st6" width="5.3" height="5.3"/>
	<rect x="96" y="51.7" class="st2" width="5.3" height="5.3"/>
	<rect x="101.3" y="51.7" class="st3" width="5.3" height="5.3"/>
	<rect x="106.5" y="51.7" class="st4" width="5.3" height="5.3"/>
	<rect x="111.8" y="51.7" class="st6" width="5.3" height="5.3"/>
	<rect x="117.1" y="51.7" class="st7" width="5.3" height="5.3"/>
	<rect x="122.3" y="51.7" class="st7" width="5.3" height="5.3"/>
	<rect x="127.6" y="51.7" class="st7" width="5.3" height="5.3"/>
	<rect x="132.9" y="51.7" class="st5" width="5.3" height="5.3"/>
	<rect x="138.1" y="51.7" class="st0" width="5.3" height="5.3"/>
	<rect x="53.9" y="57" class="st0" width="5.3" height="5.3"/>
	<rect x="59.1" y="57" class="st1" width="5.3" height="5.3"/>
	<rect x="64.4" y="57" class="st8" width="5.3" height="5.3"/>
	<rect x="69.7" y="57" class="st7" width="5.3" height="5.3"/>
	<rect x="74.9" y="57" class="st7" width="5.3" height="5.3"/>
	<rect x="80.2" y="57" class="st6" width="5.3" height="5.3"/>
	<rect x="85.5" y="57" class="st6" width="5.3" height="5.3"/>
	<rect x="90.7" y="57" class="st2" width="5.3" height="5.3"/>
	<rect x="96" y="57" class="st6" width="5.3" height="5.3"/>
	<rect x="101.3" y="57" class="st4" width="5.3" height="5.3"/>
	<rect x="106.5" y="57" class="st2" width="5.3" height="5.3"/>
	<rect x="111.8" y="57" class="st2" width="5.3" height="5.3"/>
	<rect x="117.1" y="57" class="st7" width="5.3" height="5.3"/>
	<rect x="122.3" y="57" class="st7" width="5.3" height="5.3"/>
	<rect x="127.6" y="57" class="st8" width="5.3" height="5.3"/>
	<rect x="132.9" y="57" class="st5" width="5.3" height="5.3"/>
	<rect x="138.1" y="57" class="st0" width="5.3" height="5.3"/>
	<rect x="43.3" y="62.3" class="st0" width="5.3" height="5.3"/>
	<rect x="48.6" y="62.3" class="st0" width="5.3" height="5.3"/>
	<rect x="53.9" y="62.3" class="st0" width="5.3" height="5.3"/>
	<rect x="59.1" y="62.3" class="st1" width="5.3" height="5.3"/>
	<rect x="64.4" y="62.3" class="st1" width="5.3" height="5.3"/>
	<rect x="69.7" y="62.3" class="st8" width="5.3" height="5.3"/>
	<rect x="74.9" y="62.3" class="st7" width="5.3" height="5.3"/>
	<rect x="80.2" y="62.3" class="st7" width="5.3" height="5.3"/>
	<rect x="85.5" y="62.3" class="st6" width="5.3" height="5.3"/>
	<rect x="90.7" y="62.3" class="st6" width="5.3" height="5.3"/>
	<rect x="96" y="62.3" class="st2" width="5.3" height="5.3"/>
	<rect x="101.3" y="62.3" class="st6" width="5.3" height="5.3"/>
	<rect x="106.5" y="62.3" class="st2" width="5.3" height="5.3"/>
	<rect x="111.8" y="62.3" class="st7" width="5.3" height="5.3"/>
	<rect x="117.1" y="62.3" class="st7" width="5.3" height="5.3"/>
	<rect x="122.3" y="62.3" class="st8" width="5.3" height="5.3"/>
	<rect x="127.6" y="62.3" class="st5" width="5.3" height="5.3"/>
	<rect x="132.9" y="62.3" class="st5" width="5.3" height="5.3"/>
	<rect x="138.1" y="62.3" class="st0" width="5.3" height="5.3"/>
	<rect x="32.8" y="67.5" class="st0" width="5.3" height="5.3"/>
	<rect x="38.1" y="67.5" class="st0" width="5.3" height="5.3"/>
	<rect x="43.3" y="67.5" class="st1" width="5.3" height="5.3"/>
	<rect x="48.6" y="67.5" class="st1" width="5.3" height="5.3"/>
	<rect x="53.9" y="67.5" class="st2" width="5.3" height="5.3"/>
	<rect x="59.1" y="67.5" class="st3" width="5.3" height="5.3"/>
	<rect x="64.4" y="67.5" class="st4" width="5.3" height="5.3"/>
	<rect x="69.7" y="67.5" class="st5" width="5.3" height="5.3"/>
	<rect x="74.9" y="67.5" class="st5" width="5.3" height="5.3"/>
	<rect x="80.2" y="67.5" class="st8" width="5.3" height="5.3"/>
	<rect x="85.5" y="67.5" class="st7" width="5.3" height="5.3"/>
	<rect x="90.7" y="67.5" class="st7" width="5.3" height="5.3"/>
	<rect x="96" y="67.5" class="st7" width="5.3" height="5.3"/>
	<rect x="101.3" y="67.5" class="st7" width="5.3" height="5.3"/>
	<rect x="106.5" y="67.5" class="st7" width="5.3" height="5.3"/>
	<rect x="111.8" y="67.5" class="st8" width="5.3" height="5.3"/>
	<rect x="117.1" y="67.5" class="st1" width="5.3" height="5.3"/>
	<rect x="122.3" y="67.5" class="st5" width="5.3" height="5.3"/>
	<rect x="127.6" y="67.5" class="st9" width="5.3" height="5.3"/>
	<rect x="132.9" y="67.5" class="st5" width="5.3" height="5.3"/>
	<rect x="138.1" y="67.5" class="st0" width="5.3" height="5.3"/>
	<rect x="27.5" y="72.8" class="st0" width="5.3" height="5.3"/>
	<rect x="32.8" y="72.8" class="st1" width="5.3" height="5.3"/>
	<rect x="38.1" y="72.8" class="st1" width="5.3" height="5.3"/>
	<rect x="43.3" y="72.8" class="st6" width="5.3" height="5.3"/>
	<rect x="48.6" y="72.8" class="st2" width="5.3" height="5.3"/>
	<rect x="53.9" y="72.8" class="st3" width="5.3" height="5.3"/>
	<rect x="59.1" y="72.8" class="st6" width="5.3" height="5.3"/>
	<rect x="64.4" y="72.8" class="st2" width="5.3" height="5.3"/>
	<rect x="69.7" y="72.8" class="st3" width="5.3" height="5.3"/>
	<rect x="74.9" y="72.8" class="st2" width="5.3" height="5.3"/>
	<rect x="80.2" y="72.8" class="st5" width="5.3" height="5.3"/>
	<rect x="85.5" y="72.8" class="st5" width="5.3" height="5.3"/>
	<rect x="90.7" y="72.8" class="st1" width="5.3" height="5.3"/>
	<rect x="96" y="72.8" class="st1" width="5.3" height="5.3"/>
	<rect x="101.3" y="72.8" class="st1" width="5.3" height="5.3"/>
	<rect x="106.5" y="72.8" class="st5" width="5.3" height="5.3"/>
	<rect x="111.8" y="72.8" class="st5" width="5.3" height="5.3"/>
	<rect x="117.1" y="72.8" class="st9" width="5.3" height="5.3"/>
	<rect x="122.3" y="72.8" class="st10" width="5.3" height="5.3"/>
	<rect x="127.6" y="72.8" class="st9" width="5.3" height="5.3"/>
	<rect x="132.9" y="72.8" class="st5" width="5.3" height="5.3"/>
	<rect x="138.1" y="72.8" class="st0" width="5.3" height="5.3"/>
	<rect x="22.3" y="78.1" class="st0" width="5.3" height="5.3"/>
	<rect x="27.5" y="78.1" class="st1" width="5.3" height="5.3"/>
	<rect x="32.8" y="78.1" class="st7" width="5.3" height="5.3"/>
	<rect x="38.1" y="78.1" class="st7" width="5.3" height="5.3"/>
	<rect x="43.3" y="78.1" class="st2" width="5.3" height="5.3"/>
	<rect x="48.6" y="78.1" class="st6" width="5.3" height="5.3"/>
	<rect x="53.9" y="78.1" class="st2" width="5.3" height="5.3"/>
	<rect x="59.1" y="78.1" class="st4" width="5.3" height="5.3"/>
	<rect x="64.4" y="78.1" class="st6" width="5.3" height="5.3"/>
	<rect x="69.7" y="78.1" class="st2" width="5.3" height="5.3"/>
	<rect x="74.9" y="78.1" class="st4" width="5.3" height="5.3"/>
	<rect x="80.2" y="78.1" class="st7" width="5.3" height="5.3"/>
	<rect x="85.5" y="78.1" class="st7" width="5.3" height="5.3"/>
	<rect x="90.7" y="78.1" class="st5" width="5.3" height="5.3"/>
	<rect x="96" y="78.1" class="st9" width="5.3" height="5.3"/>
	<rect x="101.3" y="78.1" class="st10" width="5.3" height="5.3"/>
	<rect x="106.5" y="78.1" class="st9" width="5.3" height="5.3"/>
	<rect x="111.8" y="78.1" class="st10" width="5.3" height="5.3"/>
	<rect x="117.1" y="78.1" class="st5" width="5.3" height="5.3"/>
	<rect x="122.3" y="78.1" class="st9" width="5.3" height="5.3"/>
	<rect x="127.6" y="78.1" class="st9" width="5.3" height="5.3"/>
	<rect x="132.9" y="78.1" class="st5" width="5.3" height="5.3"/>
	<rect x="138.1" y="78.1" class="st0" width="5.3" height="5.3"/>
	<rect x="143.4" y="78.1" class="st0" width="5.3" height="5.3"/>
	<rect x="17" y="83.3" class="st0" width="5.3" height="5.3"/>
	<rect x="22.3" y="83.3" class="st1" width="5.3" height="5.3"/>
	<rect x="27.5" y="83.3" class="st7" width="5.3" height="5.3"/>
	<rect x="32.8" y="83.3" class="st7" width="5.3" height="5.3"/>
	<rect x="38.1" y="83.3" class="st7" width="5.3" height="5.3"/>
	<rect x="43.3" y="83.3" class="st6" width="5.3" height="5.3"/>
	<rect x="48.6" y="83.3" class="st3" width="5.3" height="5.3"/>
	<rect x="53.9" y="83.3" class="st6" width="5.3" height="5.3"/>
	<rect x="59.1" y="83.3" class="st2" width="5.3" height="5.3"/>
	<rect x="64.4" y="83.3" class="st3" width="5.3" height="5.3"/>
	<rect x="69.7" y="83.3" class="st4" width="5.3" height="5.3"/>
	<rect x="74.9" y="83.3" class="st6" width="5.3" height="5.3"/>
	<rect x="80.2" y="83.3" class="st7" width="5.3" height="5.3"/>
	<rect x="85.5" y="83.3" class="st7" width="5.3" height="5.3"/>
	<rect x="90.7" y="83.3" class="st7" width="5.3" height="5.3"/>
	<rect x="96" y="83.3" class="st5" width="5.3" height="5.3"/>
	<rect x="101.3" y="83.3" class="st9" width="5.3" height="5.3"/>
	<rect x="106.5" y="83.3" class="st10" width="5.3" height="5.3"/>
	<rect x="111.8" y="83.3" class="st1" width="5.3" height="5.3"/>
	<rect x="117.1" y="83.3" class="st1" width="5.3" height="5.3"/>
	<rect x="122.3" y="83.3" class="st2" width="5.3" height="5.3"/>
	<rect x="127.6" y="83.3" class="st3" width="5.3" height="5.3"/>
	<rect x="132.9" y="83.3" class="st4" width="5.3" height="5.3"/>
	<rect x="138.1" y="83.3" class="st5" width="5.3" height="5.3"/>
	<rect x="143.4" y="83.3" class="st5" width="5.3" height="5.3"/>
	<rect x="148.7" y="83.3" class="st0" width="5.3" height="5.3"/>
	<rect x="153.9" y="83.3" class="st0" width="5.3" height="5.3"/>
	<rect x="17" y="88.6" class="st0" width="5.3" height="5.3"/>
	<rect x="22.3" y="88.6" class="st1" width="5.3" height="5.3"/>
	<rect x="27.5" y="88.6" class="st8" width="5.3" height="5.3"/>
	<rect x="32.8" y="88.6" class="st7" width="5.3" height="5.3"/>
	<rect x="38.1" y="88.6" class="st7" width="5.3" height="5.3"/>
	<rect x="43.3" y="88.6" class="st6" width="5.3" height="5.3"/>
	<rect x="48.6" y="88.6" class="st6" width="5.3" height="5.3"/>
	<rect x="53.9" y="88.6" class="st2" width="5.3" height="5.3"/>
	<rect x="59.1" y="88.6" class="st6" width="5.3" height="5.3"/>
	<rect x="64.4" y="88.6" class="st4" width="5.3" height="5.3"/>
	<rect x="69.7" y="88.6" class="st2" width="5.3" height="5.3"/>
	<rect x="74.9" y="88.6" class="st2" width="5.3" height="5.3"/>
	<rect x="80.2" y="88.6" class="st7" width="5.3" height="5.3"/>
	<rect x="85.5" y="88.6" class="st7" width="5.3" height="5.3"/>
	<rect x="90.7" y="88.6" class="st8" width="5.3" height="5.3"/>
	<rect x="96" y="88.6" class="st5" width="5.3" height="5.3"/>
	<rect x="101.3" y="88.6" class="st1" width="5.3" height="5.3"/>
	<rect x="106.5" y="88.6" class="st1" width="5.3" height="5.3"/>
	<rect x="111.8" y="88.6" class="st6" width="5.3" height="5.3"/>
	<rect x="117.1" y="88.6" class="st2" width="5.3" height="5.3"/>
	<rect x="122.3" y="88.6" class="st3" width="5.3" height="5.3"/>
	<rect x="127.6" y="88.6" class="st6" width="5.3" height="5.3"/>
	<rect x="132.9" y="88.6" class="st2" width="5.3" height="5.3"/>
	<rect x="138.1" y="88.6" class="st3" width="5.3" height="5.3"/>
	<rect x="143.4" y="88.6" class="st2" width="5.3" height="5.3"/>
	<rect x="148.7" y="88.6" class="st5" width="5.3" height="5.3"/>
	<rect x="153.9" y="88.6" class="st5" width="5.3" height="5.3"/>
	<rect x="159.2" y="88.6" class="st0" width="5.3" height="5.3"/>
	<rect x="17" y="93.9" class="st0" width="5.3" height="5.3"/>
	<rect x="22.3" y="93.9" class="st1" width="5.3" height="5.3"/>
	<rect x="27.5" y="93.9" class="st1" width="5.3" height="5.3"/>
	<rect x="32.8" y="93.9" class="st8" width="5.3" height="5.3"/>
	<rect x="38.1" y="93.9" class="st7" width="5.3" height="5.3"/>
	<rect x="43.3" y="93.9" class="st7" width="5.3" height="5.3"/>
	<rect x="48.6" y="93.9" class="st6" width="5.3" height="5.3"/>
	<rect x="53.9" y="93.9" class="st6" width="5.3" height="5.3"/>
	<rect x="59.1" y="93.9" class="st2" width="5.3" height="5.3"/>
	<rect x="64.4" y="93.9" class="st6" width="5.3" height="5.3"/>
	<rect x="69.7" y="93.9" class="st2" width="5.3" height="5.3"/>
	<rect x="74.9" y="93.9" class="st7" width="5.3" height="5.3"/>
	<rect x="80.2" y="93.9" class="st7" width="5.3" height="5.3"/>
	<rect x="85.5" y="93.9" class="st8" width="5.3" height="5.3"/>
	<rect x="90.7" y="93.9" class="st5" width="5.3" height="5.3"/>
	<rect x="96" y="93.9" class="st1" width="5.3" height="5.3"/>
	<rect x="101.3" y="93.9" class="st7" width="5.3" height="5.3"/>
	<rect x="106.5" y="93.9" class="st7" width="5.3" height="5.3"/>
	<rect x="111.8" y="93.9" class="st2" width="5.3" height="5.3"/>
	<rect x="117.1" y="93.9" class="st6" width="5.3" height="5.3"/>
	<rect x="122.3" y="93.9" class="st2" width="5.3" height="5.3"/>
	<rect x="127.6" y="93.9" class="st4" width="5.3" height="5.3"/>
	<rect x="132.9" y="93.9" class="st6" width="5.3" height="5.3"/>
	<rect x="138.1" y="93.9" class="st2" width="5.3" height="5.3"/>
	<rect x="143.4" y="93.9" class="st4" width="5.3" height="5.3"/>
	<rect x="148.7" y="93.9" class="st7" width="5.3" height="5.3"/>
	<rect x="153.9" y="93.9" class="st7" width="5.3" height="5.3"/>
	<rect x="159.2" y="93.9" class="st5" width="5.3" height="5.3"/>
	<rect x="164.5" y="93.9" class="st0" width="5.3" height="5.3"/>
	<rect x="17" y="99.1" class="st0" width="5.3" height="5.3"/>
	<rect x="22.3" y="99.1" class="st1" width="5.3" height="5.3"/>
	<rect x="27.5" y="99.1" class="st11" width="5.3" height="5.3"/>
	<rect x="32.8" y="99.1" class="st1" width="5.3" height="5.3"/>
	<rect x="38.1" y="99.1" class="st1" width="5.3" height="5.3"/>
	<rect x="43.3" y="99.1" class="st8" width="5.3" height="5.3"/>
	<rect x="48.6" y="99.1" class="st7" width="5.3" height="5.3"/>
	<rect x="53.9" y="99.1" class="st7" width="5.3" height="5.3"/>
	<rect x="59.1" y="99.1" class="st7" width="5.3" height="5.3"/>
	<rect x="64.4" y="99.1" class="st7" width="5.3" height="5.3"/>
	<rect x="69.7" y="99.1" class="st7" width="5.3" height="5.3"/>
	<rect x="74.9" y="99.1" class="st8" width="5.3" height="5.3"/>
	<rect x="80.2" y="99.1" class="st1" width="5.3" height="5.3"/>
	<rect x="85.5" y="99.1" class="st5" width="5.3" height="5.3"/>
	<rect x="90.7" y="99.1" class="st1" width="5.3" height="5.3"/>
	<rect x="96" y="99.1" class="st7" width="5.3" height="5.3"/>
	<rect x="101.3" y="99.1" class="st7" width="5.3" height="5.3"/>
	<rect x="106.5" y="99.1" class="st7" width="5.3" height="5.3"/>
	<rect x="111.8" y="99.1" class="st6" width="5.3" height="5.3"/>
	<rect x="117.1" y="99.1" class="st3" width="5.3" height="5.3"/>
	<rect x="122.3" y="99.1" class="st6" width="5.3" height="5.3"/>
	<rect x="127.6" y="99.1" class="st2" width="5.3" height="5.3"/>
	<rect x="132.9" y="99.1" class="st3" width="5.3" height="5.3"/>
	<rect x="138.1" y="99.1" class="st4" width="5.3" height="5.3"/>
	<rect x="143.4" y="99.1" class="st6" width="5.3" height="5.3"/>
	<rect x="148.7" y="99.1" class="st7" width="5.3" height="5.3"/>
	<rect x="153.9" y="99.1" class="st7" width="5.3" height="5.3"/>
	<rect x="159.2" y="99.1" class="st7" width="5.3" height="5.3"/>
	<rect x="164.5" y="99.1" class="st5" width="5.3" height="5.3"/>
	<rect x="169.7" y="99.1" class="st0" width="5.3" height="5.3"/>
	<rect x="17" y="104.4" class="st0" width="5.3" height="5.3"/>
	<rect x="22.3" y="104.4" class="st1" width="5.3" height="5.3"/>
	<rect x="27.5" y="104.4" class="st11" width="5.3" height="5.3"/>
	<rect x="32.8" y="104.4" class="st11" width="5.3" height="5.3"/>
	<rect x="38.1" y="104.4" class="st11" width="5.3" height="5.3"/>
	<rect x="43.3" y="104.4" class="st1" width="5.3" height="5.3"/>
	<rect x="48.6" y="104.4" class="st1" width="5.3" height="5.3"/>
	<rect x="53.9" y="104.4" class="st1" width="5.3" height="5.3"/>
	<rect x="59.1" y="104.4" class="st1" width="5.3" height="5.3"/>
	<rect x="64.4" y="104.4" class="st1" width="5.3" height="5.3"/>
	<rect x="69.7" y="104.4" class="st5" width="5.3" height="5.3"/>
	<rect x="74.9" y="104.4" class="st5" width="5.3" height="5.3"/>
	<rect x="80.2" y="104.4" class="st9" width="5.3" height="5.3"/>
	<rect x="85.5" y="104.4" class="st9" width="5.3" height="5.3"/>
	<rect x="90.7" y="104.4" class="st1" width="5.3" height="5.3"/>
	<rect x="96" y="104.4" class="st8" width="5.3" height="5.3"/>
	<rect x="101.3" y="104.4" class="st7" width="5.3" height="5.3"/>
	<rect x="106.5" y="104.4" class="st7" width="5.3" height="5.3"/>
	<rect x="111.8" y="104.4" class="st6" width="5.3" height="5.3"/>
	<rect x="117.1" y="104.4" class="st6" width="5.3" height="5.3"/>
	<rect x="122.3" y="104.4" class="st2" width="5.3" height="5.3"/>
	<rect x="127.6" y="104.4" class="st6" width="5.3" height="5.3"/>
	<rect x="132.9" y="104.4" class="st4" width="5.3" height="5.3"/>
	<rect x="138.1" y="104.4" class="st2" width="5.3" height="5.3"/>
	<rect x="143.4" y="104.4" class="st2" width="5.3" height="5.3"/>
	<rect x="148.7" y="104.4" class="st7" width="5.3" height="5.3"/>
	<rect x="153.9" y="104.4" class="st7" width="5.3" height="5.3"/>
	<rect x="159.2" y="104.4" class="st8" width="5.3" height="5.3"/>
	<rect x="164.5" y="104.4" class="st5" width="5.3" height="5.3"/>
	<rect x="169.7" y="104.4" class="st0" width="5.3" height="5.3"/>
	<rect x="17" y="109.7" class="st0" width="5.3" height="5.3"/>
	<rect x="22.3" y="109.7" class="st1" width="5.3" height="5.3"/>
	<rect x="27.5" y="109.7" class="st11" width="5.3" height="5.3"/>
	<rect x="32.8" y="109.7" class="st11" width="5.3" height="5.3"/>
	<rect x="38.1" y="109.7" class="st9" width="5.3" height="5.3"/>
	<rect x="43.3" y="109.7" class="st9" width="5.3" height="5.3"/>
	<rect x="48.6" y="109.7" class="st9" width="5.3" height="5.3"/>
	<rect x="53.9" y="109.7" class="st9" width="5.3" height="5.3"/>
	<rect x="59.1" y="109.7" class="st9" width="5.3" height="5.3"/>
	<rect x="64.4" y="109.7" class="st10" width="5.3" height="5.3"/>
	<rect x="69.7" y="109.7" class="st9" width="5.3" height="5.3"/>
	<rect x="74.9" y="109.7" class="st10" width="5.3" height="5.3"/>
	<rect x="80.2" y="109.7" class="st5" width="5.3" height="5.3"/>
	<rect x="85.5" y="109.7" class="st9" width="5.3" height="5.3"/>
	<rect x="90.7" y="109.7" class="st1" width="5.3" height="5.3"/>
	<rect x="96" y="109.7" class="st1" width="5.3" height="5.3"/>
	<rect x="101.3" y="109.7" class="st8" width="5.3" height="5.3"/>
	<rect x="106.5" y="109.7" class="st7" width="5.3" height="5.3"/>
	<rect x="111.8" y="109.7" class="st7" width="5.3" height="5.3"/>
	<rect x="117.1" y="109.7" class="st6" width="5.3" height="5.3"/>
	<rect x="122.3" y="109.7" class="st6" width="5.3" height="5.3"/>
	<rect x="127.6" y="109.7" class="st2" width="5.3" height="5.3"/>
	<rect x="132.9" y="109.7" class="st6" width="5.3" height="5.3"/>
	<rect x="138.1" y="109.7" class="st2" width="5.3" height="5.3"/>
	<rect x="143.4" y="109.7" class="st7" width="5.3" height="5.3"/>
	<rect x="148.7" y="109.7" class="st7" width="5.3" height="5.3"/>
	<rect x="153.9" y="109.7" class="st8" width="5.3" height="5.3"/>
	<rect x="159.2" y="109.7" class="st5" width="5.3" height="5.3"/>
	<rect x="164.5" y="109.7" class="st5" width="5.3" height="5.3"/>
	<rect x="169.7" y="109.7" class="st0" width="5.3" height="5.3"/>
	<rect x="17" y="114.9" class="st0" width="5.3" height="5.3"/>
	<rect x="22.3" y="114.9" class="st1" width="5.3" height="5.3"/>
	<rect x="27.5" y="114.9" class="st11" width="5.3" height="5.3"/>
	<rect x="32.8" y="114.9" class="st11" width="5.3" height="5.3"/>
	<rect x="38.1" y="114.9" class="st9" width="5.3" height="5.3"/>
	<rect x="43.3" y="114.9" class="st11" width="5.3" height="5.3"/>
	<rect x="48.6" y="114.9" class="st9" width="5.3" height="5.3"/>
	<rect x="53.9" y="114.9" class="st9" width="5.3" height="5.3"/>
	<rect x="59.1" y="114.9" class="st9" width="5.3" height="5.3"/>
	<rect x="64.4" y="114.9" class="st9" width="5.3" height="5.3"/>
	<rect x="69.7" y="114.9" class="st5" width="5.3" height="5.3"/>
	<rect x="74.9" y="114.9" class="st9" width="5.3" height="5.3"/>
	<rect x="80.2" y="114.9" class="st9" width="5.3" height="5.3"/>
	<rect x="85.5" y="114.9" class="st9" width="5.3" height="5.3"/>
	<rect x="90.7" y="114.9" class="st1" width="5.3" height="5.3"/>
	<rect x="96" y="114.9" class="st11" width="5.3" height="5.3"/>
	<rect x="101.3" y="114.9" class="st1" width="5.3" height="5.3"/>
	<rect x="106.5" y="114.9" class="st1" width="5.3" height="5.3"/>
	<rect x="111.8" y="114.9" class="st8" width="5.3" height="5.3"/>
	<rect x="117.1" y="114.9" class="st7" width="5.3" height="5.3"/>
	<rect x="122.3" y="114.9" class="st7" width="5.3" height="5.3"/>
	<rect x="127.6" y="114.9" class="st7" width="5.3" height="5.3"/>
	<rect x="132.9" y="114.9" class="st7" width="5.3" height="5.3"/>
	<rect x="138.1" y="114.9" class="st7" width="5.3" height="5.3"/>
	<rect x="143.4" y="114.9" class="st8" width="5.3" height="5.3"/>
	<rect x="148.7" y="114.9" class="st1" width="5.3" height="5.3"/>
	<rect x="153.9" y="114.9" class="st5" width="5.3" height="5.3"/>
	<rect x="159.2" y="114.9" class="st9" width="5.3" height="5.3"/>
	<rect x="164.5" y="114.9" class="st5" width="5.3" height="5.3"/>
	<rect x="169.7" y="114.9" class="st0" width="5.3" height="5.3"/>
	<rect x="17" y="120.2" class="st0" width="5.3" height="5.3"/>
	<rect x="22.3" y="120.2" class="st1" width="5.3" height="5.3"/>
	<rect x="27.5" y="120.2" class="st11" width="5.3" height="5.3"/>
	<rect x="32.8" y="120.2" class="st9" width="5.3" height="5.3"/>
	<rect x="38.1" y="120.2" class="st9" width="5.3" height="5.3"/>
	<rect x="43.3" y="120.2" class="st9" width="5.3" height="5.3"/>
	<rect x="48.6" y="120.2" class="st9" width="5.3" height="5.3"/>
	<rect x="53.9" y="120.2" class="st9" width="5.3" height="5.3"/>
	<rect x="59.1" y="120.2" class="st10" width="5.3" height="5.3"/>
	<rect x="64.4" y="120.2" class="st9" width="5.3" height="5.3"/>
	<rect x="69.7" y="120.2" class="st10" width="5.3" height="5.3"/>
	<rect x="74.9" y="120.2" class="st10" width="5.3" height="5.3"/>
	<rect x="80.2" y="120.2" class="st9" width="5.3" height="5.3"/>
	<rect x="85.5" y="120.2" class="st1" width="5.3" height="5.3"/>
	<rect x="90.7" y="120.2" class="st1" width="5.3" height="5.3"/>
	<rect x="96" y="120.2" class="st11" width="5.3" height="5.3"/>
	<rect x="101.3" y="120.2" class="st11" width="5.3" height="5.3"/>
	<rect x="106.5" y="120.2" class="st11" width="5.3" height="5.3"/>
	<rect x="111.8" y="120.2" class="st1" width="5.3" height="5.3"/>
	<rect x="117.1" y="120.2" class="st1" width="5.3" height="5.3"/>
	<rect x="122.3" y="120.2" class="st1" width="5.3" height="5.3"/>
	<rect x="127.6" y="120.2" class="st1" width="5.3" height="5.3"/>
	<rect x="132.9" y="120.2" class="st1" width="5.3" height="5.3"/>
	<rect x="138.1" y="120.2" class="st5" width="5.3" height="5.3"/>
	<rect x="143.4" y="120.2" class="st5" width="5.3" height="5.3"/>
	<rect x="148.7" y="120.2" class="st9" width="5.3" height="5.3"/>
	<rect x="153.9" y="120.2" class="st10" width="5.3" height="5.3"/>
	<rect x="159.2" y="120.2" class="st9" width="5.3" height="5.3"/>
	<rect x="164.5" y="120.2" class="st5" width="5.3" height="5.3"/>
	<rect x="169.7" y="120.2" class="st0" width="5.3" height="5.3"/>
	<rect x="17" y="125.5" class="st0" width="5.3" height="5.3"/>
	<rect x="22.3" y="125.5" class="st1" width="5.3" height="5.3"/>
	<rect x="27.5" y="125.5" class="st1" width="5.3" height="5.3"/>
	<rect x="32.8" y="125.5" class="st11" width="5.3" height="5.3"/>
	<rect x="38.1" y="125.5" class="st11" width="5.3" height="5.3"/>
	<rect x="43.3" y="125.5" class="st9" width="5.3" height="5.3"/>
	<rect x="48.6" y="125.5" class="st9" width="5.3" height="5.3"/>
	<rect x="53.9" y="125.5" class="st9" width="5.3" height="5.3"/>
	<rect x="59.1" y="125.5" class="st9" width="5.3" height="5.3"/>
	<rect x="64.4" y="125.5" class="st10" width="5.3" height="5.3"/>
	<rect x="69.7" y="125.5" class="st10" width="5.3" height="5.3"/>
	<rect x="74.9" y="125.5" class="st1" width="5.3" height="5.3"/>
	<rect x="80.2" y="125.5" class="st9" width="5.3" height="5.3"/>
	<rect x="85.5" y="125.5" class="st9" width="5.3" height="5.3"/>
	<rect x="90.7" y="125.5" class="st1" width="5.3" height="5.3"/>
	<rect x="96" y="125.5" class="st11" width="5.3" height="5.3"/>
	<rect x="101.3" y="125.5" class="st11" width="5.3" height="5.3"/>
	<rect x="106.5" y="125.5" class="st9" width="5.3" height="5.3"/>
	<rect x="111.8" y="125.5" class="st9" width="5.3" height="5.3"/>
	<rect x="117.1" y="125.5" class="st9" width="5.3" height="5.3"/>
	<rect x="122.3" y="125.5" class="st9" width="5.3" height="5.3"/>
	<rect x="127.6" y="125.5" class="st9" width="5.3" height="5.3"/>
	<rect x="132.9" y="125.5" class="st10" width="5.3" height="5.3"/>
	<rect x="138.1" y="125.5" class="st9" width="5.3" height="5.3"/>
	<rect x="143.4" y="125.5" class="st10" width="5.3" height="5.3"/>
	<rect x="148.7" y="125.5" class="st5" width="5.3" height="5.3"/>
	<rect x="153.9" y="125.5" class="st9" width="5.3" height="5.3"/>
	<rect x="159.2" y="125.5" class="st9" width="5.3" height="5.3"/>
	<rect x="164.5" y="125.5" class="st5" width="5.3" height="5.3"/>
	<rect x="169.7" y="125.5" class="st0" width="5.3" height="5.3"/>
	<rect x="22.3" y="130.7" class="st0" width="5.3" height="5.3"/>
	<rect x="27.5" y="130.7" class="st0" width="5.3" height="5.3"/>
	<rect x="32.8" y="130.7" class="st1" width="5.3" height="5.3"/>
	<rect x="38.1" y="130.7" class="st1" width="5.3" height="5.3"/>
	<rect x="43.3" y="130.7" class="st11" width="5.3" height="5.3"/>
	<rect x="48.6" y="130.7" class="st9" width="5.3" height="5.3"/>
	<rect x="53.9" y="130.7" class="st10" width="5.3" height="5.3"/>
	<rect x="59.1" y="130.7" class="st9" width="5.3" height="5.3"/>
	<rect x="64.4" y="130.7" class="st9" width="5.3" height="5.3"/>
	<rect x="69.7" y="130.7" class="st10" width="5.3" height="5.3"/>
	<rect x="74.9" y="130.7" class="st9" width="5.3" height="5.3"/>
	<rect x="80.2" y="130.7" class="st5" width="5.3" height="5.3"/>
	<rect x="85.5" y="130.7" class="st5" width="5.3" height="5.3"/>
	<rect x="90.7" y="130.7" class="st1" width="5.3" height="5.3"/>
	<rect x="96" y="130.7" class="st11" width="5.3" height="5.3"/>
	<rect x="101.3" y="130.7" class="st11" width="5.3" height="5.3"/>
	<rect x="106.5" y="130.7" class="st9" width="5.3" height="5.3"/>
	<rect x="111.8" y="130.7" class="st11" width="5.3" height="5.3"/>
	<rect x="117.1" y="130.7" class="st9" width="5.3" height="5.3"/>
	<rect x="122.3" y="130.7" class="st9" width="5.3" height="5.3"/>
	<rect x="127.6" y="130.7" class="st9" width="5.3" height="5.3"/>
	<rect x="132.9" y="130.7" class="st9" width="5.3" height="5.3"/>
	<rect x="138.1" y="130.7" class="st5" width="5.3" height="5.3"/>
	<rect x="143.4" y="130.7" class="st10" width="5.3" height="5.3"/>
	<rect x="148.7" y="130.7" class="st10" width="5.3" height="5.3"/>
	<rect x="153.9" y="130.7" class="st10" width="5.3" height="5.3"/>
	<rect x="159.2" y="130.7" class="st9" width="5.3" height="5.3"/>
	<rect x="164.5" y="130.7" class="st1" width="5.3" height="5.3"/>
	<rect x="169.7" y="130.7" class="st0" width="5.3" height="5.3"/>
	<rect x="32.8" y="136" class="st0" width="5.3" height="5.3"/>
	<rect x="38.1" y="136" class="st0" width="5.3" height="5.3"/>
	<rect x="43.3" y="136" class="st1" width="5.3" height="5.3"/>
	<rect x="48.6" y="136" class="st1" width="5.3" height="5.3"/>
	<rect x="53.9" y="136" class="st1" width="5.3" height="5.3"/>
	<rect x="59.1" y="136" class="st1" width="5.3" height="5.3"/>
	<rect x="64.4" y="136" class="st5" width="5.3" height="5.3"/>
	<rect x="69.7" y="136" class="st5" width="5.3" height="5.3"/>
	<rect x="74.9" y="136" class="st5" width="5.3" height="5.3"/>
	<rect x="80.2" y="136" class="st0" width="5.3" height="5.3"/>
	<rect x="85.5" y="136" class="st0" width="5.3" height="5.3"/>
	<rect x="90.7" y="136" class="st1" width="5.3" height="5.3"/>
	<rect x="96" y="136" class="st11" width="5.3" height="5.3"/>
	<rect x="101.3" y="136" class="st9" width="5.3" height="5.3"/>
	<rect x="106.5" y="136" class="st9" width="5.3" height="5.3"/>
	<rect x="111.8" y="136" class="st9" width="5.3" height="5.3"/>
	<rect x="117.1" y="136" class="st9" width="5.3" height="5.3"/>
	<rect x="122.3" y="136" class="st9" width="5.3" height="5.3"/>
	<rect x="127.6" y="136" class="st10" width="5.3" height="5.3"/>
	<rect x="132.9" y="136" class="st9" width="5.3" height="5.3"/>
	<rect x="138.1" y="136" class="st10" width="5.3" height="5.3"/>
	<rect x="143.4" y="136" class="st10" width="5.3" height="5.3"/>
	<rect x="148.7" y="136" class="st9" width="5.3" height="5.3"/>
	<rect x="153.9" y="136" class="st1" width="5.3" height="5.3"/>
	<rect x="159.2" y="136" class="st9" width="5.3" height="5.3"/>
	<rect x="164.5" y="136" class="st1" width="5.3" height="5.3"/>
	<rect x="169.7" y="136" class="st0" width="5.3" height="5.3"/>
	<rect x="43.3" y="141.3" class="st0" width="5.3" height="5.3"/>
	<rect x="48.6" y="141.3" class="st0" width="5.3" height="5.3"/>
	<rect x="53.9" y="141.3" class="st0" width="5.3" height="5.3"/>
	<rect x="59.1" y="141.3" class="st0" width="5.3" height="5.3"/>
	<rect x="64.4" y="141.3" class="st0" width="5.3" height="5.3"/>
	<rect x="69.7" y="141.3" class="st0" width="5.3" height="5.3"/>
	<rect x="74.9" y="141.3" class="st0" width="5.3" height="5.3"/>
	<rect x="85.5" y="141.3" class="st0" width="5.3" height="5.3"/>
	<rect x="90.7" y="141.3" class="st1" width="5.3" height="5.3"/>
	<rect x="96" y="141.3" class="st1" width="5.3" height="5.3"/>
	<rect x="101.3" y="141.3" class="st11" width="5.3" height="5.3"/>
	<rect x="106.5" y="141.3" class="st11" width="5.3" height="5.3"/>
	<rect x="111.8" y="141.3" class="st9" width="5.3" height="5.3"/>
	<rect x="117.1" y="141.3" class="st9" width="5.3" height="5.3"/>
	<rect x="122.3" y="141.3" class="st9" width="5.3" height="5.3"/>
	<rect x="127.6" y="141.3" class="st9" width="5.3" height="5.3"/>
	<rect x="132.9" y="141.3" class="st10" width="5.3" height="5.3"/>
	<rect x="138.1" y="141.3" class="st10" width="5.3" height="5.3"/>
	<rect x="143.4" y="141.3" class="st1" width="5.3" height="5.3"/>
	<rect x="148.7" y="141.3" class="st10" width="5.3" height="5.3"/>
	<rect x="153.9" y="141.3" class="st10" width="5.3" height="5.3"/>
	<rect x="159.2" y="141.3" class="st1" width="5.3" height="5.3"/>
	<rect x="164.5" y="141.3" class="st5" width="5.3" height="5.3"/>
	<rect x="169.7" y="141.3" class="st0" width="5.3" height="5.3"/>
	<rect x="90.7" y="146.5" class="st0" width="5.3" height="5.3"/>
	<rect x="96" y="146.5" class="st0" width="5.3" height="5.3"/>
	<rect x="101.3" y="146.5" class="st1" width="5.3" height="5.3"/>
	<rect x="106.5" y="146.5" class="st1" width="5.3" height="5.3"/>
	<rect x="111.8" y="146.5" class="st11" width="5.3" height="5.3"/>
	<rect x="117.1" y="146.5" class="st9" width="5.3" height="5.3"/>
	<rect x="122.3" y="146.5" class="st10" width="5.3" height="5.3"/>
	<rect x="127.6" y="146.5" class="st9" width="5.3" height="5.3"/>
	<rect x="132.9" y="146.5" class="st9" width="5.3" height="5.3"/>
	<rect x="138.1" y="146.5" class="st10" width="5.3" height="5.3"/>
	<rect x="143.4" y="146.5" class="st10" width="5.3" height="5.3"/>
	<rect x="148.7" y="146.5" class="st5" width="5.3" height="5.3"/>
	<rect x="153.9" y="146.5" class="st5" width="5.3" height="5.3"/>
	<rect x="159.2" y="146.5" class="st0" width="5.3" height="5.3"/>
	<rect x="164.5" y="146.5" class="st0" width="5.3" height="5.3"/>
	<rect x="101.3" y="151.8" class="st0" width="5.3" height="5.3"/>
	<rect x="106.5" y="151.8" class="st0" width="5.3" height="5.3"/>
	<rect x="111.8" y="151.8" class="st1" width="5.3" height="5.3"/>
	<rect x="117.1" y="151.8" class="st1" width="5.3" height="5.3"/>
	<rect x="122.3" y="151.8" class="st1" width="5.3" height="5.3"/>
	<rect x="127.6" y="151.8" class="st1" width="5.3" height="5.3"/>
	<rect x="132.9" y="151.8" class="st5" width="5.3" height="5.3"/>
	<rect x="138.1" y="151.8" class="st5" width="5.3" height="5.3"/>
	<rect x="143.4" y="151.8" class="st5" width="5.3" height="5.3"/>
	<rect x="148.7" y="151.8" class="st0" width="5.3" height="5.3"/>
	<rect x="153.9" y="151.8" class="st0" width="5.3" height="5.3"/>
	<rect x="111.8" y="157.1" class="st0" width="5.3" height="5.3"/>
	<rect x="117.1" y="157.1" class="st0" width="5.3" height="5.3"/>
	<rect x="122.3" y="157.1" class="st0" width="5.3" height="5.3"/>
	<rect x="127.6" y="157.1" class="st0" width="5.3" height="5.3"/>
	<rect x="132.9" y="157.1" class="st0" width="5.3" height="5.3"/>
	<rect x="138.1" y="157.1" class="st0" width="5.3" height="5.3"/>
	<rect x="143.4" y="157.1" class="st0" width="5.3" height="5.3"/>
</g>
</svg>
