<?xml version="1.0" encoding="utf-8"?>
<!-- Generator: Adobe Illustrator 27.9.0, SVG Export Plug-In . SVG Version: 6.00 Build 0)  -->
<svg version="1.1" id="Layer_1" shape-rendering="crispEdges"
	 xmlns="http://www.w3.org/2000/svg" xmlns:xlink="http://www.w3.org/1999/xlink" x="0px" y="0px" viewBox="0 0 192 192"
	 style="enable-background:new 0 0 192 192;" xml:space="preserve">
<style type="text/css">
	.st0{fill:#EB97A7;}
	.st1{fill:#733C81;}
	.st2{fill:#694F86;}
	.st3{fill:#B55D83;}
	.st4{fill:#D5D06E;}
	.st5{fill:#8D5386;}
	.st6{fill:#E7A55D;}
	.st7{fill:#E6C874;}
	.st8{fill:#ECC98B;}
	.st9{fill:#D58858;}
	.st10{fill:#CD694F;}
	.st11{fill:#E17557;}
	.st12{fill:#F1BAC7;}
	.st13{fill:#58B0B3;}
	.st14{fill:#B4E28E;}
	.st15{fill:#CF6F87;}
	.st16{fill:#E4895D;}
	.st17{fill:#21459C;}
	.st18{fill:#3154A9;}
	.st19{fill:#F2C7B6;}
	.st20{fill:#EEA8A0;}
	.st21{fill:#E75D81;}
	.st22{fill:#E2574A;}
	.st23{fill:#D1584A;}
	.st24{fill:#E87687;}
	.st25{fill:#8D506B;}
	.st26{fill:#AE5269;}
	.st27{fill:#4A8E72;}
	.st28{fill:#59CC6B;}
	.st29{fill:#C25144;}
</style>
<g>
	<rect x="39" y="9" class="st0" width="6" height="6"/>
	<rect x="45" y="9" class="st0" width="6" height="6"/>
	<rect x="51" y="9" class="st0" width="6" height="6"/>
	<rect x="57" y="9" class="st0" width="6" height="6"/>
	<rect x="63" y="9" class="st0" width="6" height="6"/>
	<rect x="69" y="9" class="st0" width="6" height="6"/>
	<rect x="75" y="9" class="st0" width="6" height="6"/>
	<rect x="81" y="9" class="st0" width="6" height="6"/>
	<rect x="87" y="9" class="st0" width="6" height="6"/>
	<rect x="93" y="9" class="st0" width="6" height="6"/>
	<rect x="99" y="9" class="st0" width="6" height="6"/>
	<rect x="105" y="9" class="st0" width="6" height="6"/>
	<rect x="111" y="9" class="st0" width="6" height="6"/>
	<rect x="117" y="9" class="st0" width="6" height="6"/>
	<rect x="123" y="9" class="st0" width="6" height="6"/>
	<rect x="129" y="9" class="st0" width="6" height="6"/>
	<rect x="135" y="9" class="st0" width="6" height="6"/>
	<rect x="141" y="9" class="st0" width="6" height="6"/>
	<rect x="147" y="9" class="st0" width="6" height="6"/>
	<rect x="153" y="9" class="st0" width="6" height="6"/>
	<rect x="159" y="9" class="st0" width="6" height="6"/>
	<rect x="165" y="9" class="st0" width="6" height="6"/>
	<rect x="33" y="15" class="st0" width="6" height="6"/>
	<rect x="39" y="15" class="st1" width="6" height="6"/>
	<rect x="45" y="15" class="st1" width="6" height="6"/>
	<rect x="51" y="15" class="st2" width="6" height="6"/>
	<rect x="57" y="15" class="st2" width="6" height="6"/>
	<rect x="63" y="15" class="st2" width="6" height="6"/>
	<rect x="69" y="15" class="st2" width="6" height="6"/>
	<rect x="75" y="15" class="st2" width="6" height="6"/>
	<rect x="81" y="15" class="st2" width="6" height="6"/>
	<rect x="87" y="15" class="st2" width="6" height="6"/>
	<rect x="93" y="15" class="st2" width="6" height="6"/>
	<rect x="99" y="15" class="st2" width="6" height="6"/>
	<rect x="105" y="15" class="st2" width="6" height="6"/>
	<rect x="111" y="15" class="st2" width="6" height="6"/>
	<rect x="117" y="15" class="st2" width="6" height="6"/>
	<rect x="123" y="15" class="st2" width="6" height="6"/>
	<rect x="129" y="15" class="st2" width="6" height="6"/>
	<rect x="135" y="15" class="st3" width="6" height="6"/>
	<rect x="141" y="15" class="st3" width="6" height="6"/>
	<rect x="147" y="15" class="st3" width="6" height="6"/>
	<rect x="153" y="15" class="st3" width="6" height="6"/>
	<rect x="159" y="15" class="st3" width="6" height="6"/>
	<rect x="165" y="15" class="st4" width="6" height="6"/>
	<rect x="171" y="15" class="st0" width="6" height="6"/>
	<rect x="27" y="21" class="st0" width="6" height="6"/>
	<rect x="33" y="21" class="st1" width="6" height="6"/>
	<rect x="39" y="21" class="st5" width="6" height="6"/>
	<rect x="45" y="21" class="st1" width="6" height="6"/>
	<rect x="51" y="21" class="st6" width="6" height="6"/>
	<rect x="57" y="21" class="st6" width="6" height="6"/>
	<rect x="63" y="21" class="st6" width="6" height="6"/>
	<rect x="69" y="21" class="st6" width="6" height="6"/>
	<rect x="75" y="21" class="st3" width="6" height="6"/>
	<rect x="81" y="21" class="st3" width="6" height="6"/>
	<rect x="87" y="21" class="st3" width="6" height="6"/>
	<rect x="93" y="21" class="st3" width="6" height="6"/>
	<rect x="99" y="21" class="st3" width="6" height="6"/>
	<rect x="105" y="21" class="st3" width="6" height="6"/>
	<rect x="111" y="21" class="st3" width="6" height="6"/>
	<rect x="117" y="21" class="st3" width="6" height="6"/>
	<rect x="123" y="21" class="st3" width="6" height="6"/>
	<rect x="129" y="21" class="st3" width="6" height="6"/>
	<rect x="135" y="21" class="st7" width="6" height="6"/>
	<rect x="141" y="21" class="st7" width="6" height="6"/>
	<rect x="147" y="21" class="st7" width="6" height="6"/>
	<rect x="153" y="21" class="st7" width="6" height="6"/>
	<rect x="159" y="21" class="st3" width="6" height="6"/>
	<rect x="165" y="21" class="st4" width="6" height="6"/>
	<rect x="171" y="21" class="st0" width="6" height="6"/>
	<rect x="21" y="27" class="st0" width="6" height="6"/>
	<rect x="27" y="27" class="st1" width="6" height="6"/>
	<rect x="33" y="27" class="st5" width="6" height="6"/>
	<rect x="39" y="27" class="st5" width="6" height="6"/>
	<rect x="45" y="27" class="st1" width="6" height="6"/>
	<rect x="51" y="27" class="st6" width="6" height="6"/>
	<rect x="57" y="27" class="st3" width="6" height="6"/>
	<rect x="63" y="27" class="st5" width="6" height="6"/>
	<rect x="69" y="27" class="st5" width="6" height="6"/>
	<rect x="75" y="27" class="st5" width="6" height="6"/>
	<rect x="81" y="27" class="st5" width="6" height="6"/>
	<rect x="87" y="27" class="st5" width="6" height="6"/>
	<rect x="93" y="27" class="st5" width="6" height="6"/>
	<rect x="99" y="27" class="st5" width="6" height="6"/>
	<rect x="105" y="27" class="st5" width="6" height="6"/>
	<rect x="111" y="27" class="st5" width="6" height="6"/>
	<rect x="117" y="27" class="st5" width="6" height="6"/>
	<rect x="123" y="27" class="st5" width="6" height="6"/>
	<rect x="129" y="27" class="st5" width="6" height="6"/>
	<rect x="135" y="27" class="st5" width="6" height="6"/>
	<rect x="141" y="27" class="st5" width="6" height="6"/>
	<rect x="147" y="27" class="st3" width="6" height="6"/>
	<rect x="153" y="27" class="st7" width="6" height="6"/>
	<rect x="159" y="27" class="st3" width="6" height="6"/>
	<rect x="165" y="27" class="st4" width="6" height="6"/>
	<rect x="171" y="27" class="st0" width="6" height="6"/>
	<rect x="21" y="33" class="st0" width="6" height="6"/>
	<rect x="27" y="33" class="st1" width="6" height="6"/>
	<rect x="33" y="33" class="st5" width="6" height="6"/>
	<rect x="39" y="33" class="st8" width="6" height="6"/>
	<rect x="45" y="33" class="st8" width="6" height="6"/>
	<rect x="51" y="33" class="st9" width="6" height="6"/>
	<rect x="57" y="33" class="st5" width="6" height="6"/>
	<rect x="63" y="33" class="st0" width="6" height="6"/>
	<rect x="69" y="33" class="st0" width="6" height="6"/>
	<rect x="75" y="33" class="st0" width="6" height="6"/>
	<rect x="81" y="33" class="st0" width="6" height="6"/>
	<rect x="87" y="33" class="st10" width="6" height="6"/>
	<rect x="93" y="33" class="st10" width="6" height="6"/>
	<rect x="99" y="33" class="st10" width="6" height="6"/>
	<rect x="105" y="33" class="st11" width="6" height="6"/>
	<rect x="111" y="33" class="st11" width="6" height="6"/>
	<rect x="117" y="33" class="st11" width="6" height="6"/>
	<rect x="123" y="33" class="st12" width="6" height="6"/>
	<rect x="129" y="33" class="st12" width="6" height="6"/>
	<rect x="135" y="33" class="st12" width="6" height="6"/>
	<rect x="141" y="33" class="st12" width="6" height="6"/>
	<rect x="147" y="33" class="st5" width="6" height="6"/>
	<rect x="153" y="33" class="st7" width="6" height="6"/>
	<rect x="159" y="33" class="st3" width="6" height="6"/>
	<rect x="165" y="33" class="st6" width="6" height="6"/>
	<rect x="171" y="33" class="st0" width="6" height="6"/>
	<rect x="21" y="39" class="st0" width="6" height="6"/>
	<rect x="27" y="39" class="st6" width="6" height="6"/>
	<rect x="33" y="39" class="st8" width="6" height="6"/>
	<rect x="39" y="39" class="st5" width="6" height="6"/>
	<rect x="45" y="39" class="st1" width="6" height="6"/>
	<rect x="51" y="39" class="st6" width="6" height="6"/>
	<rect x="57" y="39" class="st5" width="6" height="6"/>
	<rect x="63" y="39" class="st0" width="6" height="6"/>
	<rect x="69" y="39" class="st0" width="6" height="6"/>
	<rect x="75" y="39" class="st10" width="6" height="6"/>
	<rect x="81" y="39" class="st10" width="6" height="6"/>
	<rect x="87" y="39" class="st13" width="6" height="6"/>
	<rect x="93" y="39" class="st13" width="6" height="6"/>
	<rect x="99" y="39" class="st13" width="6" height="6"/>
	<rect x="105" y="39" class="st14" width="6" height="6"/>
	<rect x="111" y="39" class="st14" width="6" height="6"/>
	<rect x="117" y="39" class="st14" width="6" height="6"/>
	<rect x="123" y="39" class="st11" width="6" height="6"/>
	<rect x="129" y="39" class="st11" width="6" height="6"/>
	<rect x="135" y="39" class="st12" width="6" height="6"/>
	<rect x="141" y="39" class="st12" width="6" height="6"/>
	<rect x="147" y="39" class="st5" width="6" height="6"/>
	<rect x="153" y="39" class="st7" width="6" height="6"/>
	<rect x="159" y="39" class="st3" width="6" height="6"/>
	<rect x="165" y="39" class="st6" width="6" height="6"/>
	<rect x="171" y="39" class="st0" width="6" height="6"/>
	<rect x="15" y="45" class="st0" width="6" height="6"/>
	<rect x="21" y="45" class="st15" width="6" height="6"/>
	<rect x="27" y="45" class="st1" width="6" height="6"/>
	<rect x="33" y="45" class="st5" width="6" height="6"/>
	<rect x="39" y="45" class="st5" width="6" height="6"/>
	<rect x="45" y="45" class="st1" width="6" height="6"/>
	<rect x="51" y="45" class="st3" width="6" height="6"/>
	<rect x="57" y="45" class="st5" width="6" height="6"/>
	<rect x="63" y="45" class="st0" width="6" height="6"/>
	<rect x="69" y="45" class="st10" width="6" height="6"/>
	<rect x="75" y="45" class="st13" width="6" height="6"/>
	<rect x="81" y="45" class="st13" width="6" height="6"/>
	<rect x="87" y="45" class="st13" width="6" height="6"/>
	<rect x="93" y="45" class="st13" width="6" height="6"/>
	<rect x="99" y="45" class="st10" width="6" height="6"/>
	<rect x="105" y="45" class="st11" width="6" height="6"/>
	<rect x="111" y="45" class="st14" width="6" height="6"/>
	<rect x="117" y="45" class="st14" width="6" height="6"/>
	<rect x="123" y="45" class="st14" width="6" height="6"/>
	<rect x="129" y="45" class="st14" width="6" height="6"/>
	<rect x="135" y="45" class="st11" width="6" height="6"/>
	<rect x="141" y="45" class="st12" width="6" height="6"/>
	<rect x="147" y="45" class="st5" width="6" height="6"/>
	<rect x="153" y="45" class="st3" width="6" height="6"/>
	<rect x="159" y="45" class="st2" width="6" height="6"/>
	<rect x="165" y="45" class="st6" width="6" height="6"/>
	<rect x="171" y="45" class="st0" width="6" height="6"/>
	<rect x="15" y="51" class="st0" width="6" height="6"/>
	<rect x="21" y="51" class="st15" width="6" height="6"/>
	<rect x="27" y="51" class="st1" width="6" height="6"/>
	<rect x="33" y="51" class="st5" width="6" height="6"/>
	<rect x="39" y="51" class="st8" width="6" height="6"/>
	<rect x="45" y="51" class="st8" width="6" height="6"/>
	<rect x="51" y="51" class="st2" width="6" height="6"/>
	<rect x="57" y="51" class="st5" width="6" height="6"/>
	<rect x="63" y="51" class="st0" width="6" height="6"/>
	<rect x="69" y="51" class="st13" width="6" height="6"/>
	<rect x="75" y="51" class="st13" width="6" height="6"/>
	<rect x="81" y="51" class="st13" width="6" height="6"/>
	<rect x="87" y="51" class="st13" width="6" height="6"/>
	<rect x="93" y="51" class="st10" width="6" height="6"/>
	<rect x="99" y="51" class="st10" width="6" height="6"/>
	<rect x="105" y="51" class="st11" width="6" height="6"/>
	<rect x="111" y="51" class="st11" width="6" height="6"/>
	<rect x="117" y="51" class="st14" width="6" height="6"/>
	<rect x="123" y="51" class="st14" width="6" height="6"/>
	<rect x="129" y="51" class="st14" width="6" height="6"/>
	<rect x="135" y="51" class="st14" width="6" height="6"/>
	<rect x="141" y="51" class="st12" width="6" height="6"/>
	<rect x="147" y="51" class="st5" width="6" height="6"/>
	<rect x="153" y="51" class="st3" width="6" height="6"/>
	<rect x="159" y="51" class="st2" width="6" height="6"/>
	<rect x="165" y="51" class="st6" width="6" height="6"/>
	<rect x="171" y="51" class="st0" width="6" height="6"/>
	<rect x="21" y="57" class="st0" width="6" height="6"/>
	<rect x="27" y="57" class="st6" width="6" height="6"/>
	<rect x="33" y="57" class="st8" width="6" height="6"/>
	<rect x="39" y="57" class="st5" width="6" height="6"/>
	<rect x="45" y="57" class="st1" width="6" height="6"/>
	<rect x="51" y="57" class="st3" width="6" height="6"/>
	<rect x="57" y="57" class="st5" width="6" height="6"/>
	<rect x="63" y="57" class="st0" width="6" height="6"/>
	<rect x="69" y="57" class="st13" width="6" height="6"/>
	<rect x="75" y="57" class="st13" width="6" height="6"/>
	<rect x="81" y="57" class="st13" width="6" height="6"/>
	<rect x="87" y="57" class="st13" width="6" height="6"/>
	<rect x="93" y="57" class="st13" width="6" height="6"/>
	<rect x="99" y="57" class="st10" width="6" height="6"/>
	<rect x="105" y="57" class="st11" width="6" height="6"/>
	<rect x="111" y="57" class="st14" width="6" height="6"/>
	<rect x="117" y="57" class="st14" width="6" height="6"/>
	<rect x="123" y="57" class="st14" width="6" height="6"/>
	<rect x="129" y="57" class="st14" width="6" height="6"/>
	<rect x="135" y="57" class="st14" width="6" height="6"/>
	<rect x="141" y="57" class="st12" width="6" height="6"/>
	<rect x="147" y="57" class="st5" width="6" height="6"/>
	<rect x="153" y="57" class="st3" width="6" height="6"/>
	<rect x="159" y="57" class="st2" width="6" height="6"/>
	<rect x="165" y="57" class="st16" width="6" height="6"/>
	<rect x="171" y="57" class="st0" width="6" height="6"/>
	<rect x="15" y="63" class="st0" width="6" height="6"/>
	<rect x="21" y="63" class="st15" width="6" height="6"/>
	<rect x="27" y="63" class="st1" width="6" height="6"/>
	<rect x="33" y="63" class="st5" width="6" height="6"/>
	<rect x="39" y="63" class="st5" width="6" height="6"/>
	<rect x="45" y="63" class="st1" width="6" height="6"/>
	<rect x="51" y="63" class="st3" width="6" height="6"/>
	<rect x="57" y="63" class="st5" width="6" height="6"/>
	<rect x="63" y="63" class="st0" width="6" height="6"/>
	<rect x="69" y="63" class="st13" width="6" height="6"/>
	<rect x="75" y="63" class="st13" width="6" height="6"/>
	<rect x="81" y="63" class="st13" width="6" height="6"/>
	<rect x="87" y="63" class="st13" width="6" height="6"/>
	<rect x="93" y="63" class="st13" width="6" height="6"/>
	<rect x="99" y="63" class="st13" width="6" height="6"/>
	<rect x="105" y="63" class="st14" width="6" height="6"/>
	<rect x="111" y="63" class="st14" width="6" height="6"/>
	<rect x="117" y="63" class="st14" width="6" height="6"/>
	<rect x="123" y="63" class="st14" width="6" height="6"/>
	<rect x="129" y="63" class="st14" width="6" height="6"/>
	<rect x="135" y="63" class="st14" width="6" height="6"/>
	<rect x="141" y="63" class="st12" width="6" height="6"/>
	<rect x="147" y="63" class="st5" width="6" height="6"/>
	<rect x="153" y="63" class="st3" width="6" height="6"/>
	<rect x="159" y="63" class="st2" width="6" height="6"/>
	<rect x="165" y="63" class="st16" width="6" height="6"/>
	<rect x="171" y="63" class="st0" width="6" height="6"/>
	<rect x="15" y="69" class="st0" width="6" height="6"/>
	<rect x="21" y="69" class="st15" width="6" height="6"/>
	<rect x="27" y="69" class="st1" width="6" height="6"/>
	<rect x="33" y="69" class="st5" width="6" height="6"/>
	<rect x="39" y="69" class="st8" width="6" height="6"/>
	<rect x="45" y="69" class="st8" width="6" height="6"/>
	<rect x="51" y="69" class="st2" width="6" height="6"/>
	<rect x="57" y="69" class="st5" width="6" height="6"/>
	<rect x="63" y="69" class="st0" width="6" height="6"/>
	<rect x="69" y="69" class="st3" width="6" height="6"/>
	<rect x="75" y="69" class="st3" width="6" height="6"/>
	<rect x="81" y="69" class="st3" width="6" height="6"/>
	<rect x="87" y="69" class="st3" width="6" height="6"/>
	<rect x="93" y="69" class="st3" width="6" height="6"/>
	<rect x="99" y="69" class="st3" width="6" height="6"/>
	<rect x="105" y="69" class="st3" width="6" height="6"/>
	<rect x="111" y="69" class="st3" width="6" height="6"/>
	<rect x="117" y="69" class="st3" width="6" height="6"/>
	<rect x="123" y="69" class="st3" width="6" height="6"/>
	<rect x="129" y="69" class="st3" width="6" height="6"/>
	<rect x="135" y="69" class="st3" width="6" height="6"/>
	<rect x="141" y="69" class="st12" width="6" height="6"/>
	<rect x="147" y="69" class="st5" width="6" height="6"/>
	<rect x="153" y="69" class="st3" width="6" height="6"/>
	<rect x="159" y="69" class="st2" width="6" height="6"/>
	<rect x="165" y="69" class="st16" width="6" height="6"/>
	<rect x="171" y="69" class="st0" width="6" height="6"/>
	<rect x="21" y="75" class="st0" width="6" height="6"/>
	<rect x="27" y="75" class="st6" width="6" height="6"/>
	<rect x="33" y="75" class="st8" width="6" height="6"/>
	<rect x="39" y="75" class="st5" width="6" height="6"/>
	<rect x="45" y="75" class="st1" width="6" height="6"/>
	<rect x="51" y="75" class="st3" width="6" height="6"/>
	<rect x="57" y="75" class="st5" width="6" height="6"/>
	<rect x="63" y="75" class="st0" width="6" height="6"/>
	<rect x="69" y="75" class="st17" width="6" height="6"/>
	<rect x="75" y="75" class="st17" width="6" height="6"/>
	<rect x="81" y="75" class="st17" width="6" height="6"/>
	<rect x="87" y="75" class="st16" width="6" height="6"/>
	<rect x="93" y="75" class="st17" width="6" height="6"/>
	<rect x="99" y="75" class="st17" width="6" height="6"/>
	<rect x="105" y="75" class="st18" width="6" height="6"/>
	<rect x="111" y="75" class="st18" width="6" height="6"/>
	<rect x="117" y="75" class="st16" width="6" height="6"/>
	<rect x="123" y="75" class="st18" width="6" height="6"/>
	<rect x="129" y="75" class="st18" width="6" height="6"/>
	<rect x="135" y="75" class="st18" width="6" height="6"/>
	<rect x="141" y="75" class="st12" width="6" height="6"/>
	<rect x="147" y="75" class="st5" width="6" height="6"/>
	<rect x="153" y="75" class="st3" width="6" height="6"/>
	<rect x="159" y="75" class="st2" width="6" height="6"/>
	<rect x="165" y="75" class="st11" width="6" height="6"/>
	<rect x="171" y="75" class="st0" width="6" height="6"/>
	<rect x="15" y="81" class="st0" width="6" height="6"/>
	<rect x="21" y="81" class="st15" width="6" height="6"/>
	<rect x="27" y="81" class="st1" width="6" height="6"/>
	<rect x="33" y="81" class="st5" width="6" height="6"/>
	<rect x="39" y="81" class="st5" width="6" height="6"/>
	<rect x="45" y="81" class="st1" width="6" height="6"/>
	<rect x="51" y="81" class="st3" width="6" height="6"/>
	<rect x="57" y="81" class="st5" width="6" height="6"/>
	<rect x="63" y="81" class="st0" width="6" height="6"/>
	<rect x="69" y="81" class="st17" width="6" height="6"/>
	<rect x="75" y="81" class="st17" width="6" height="6"/>
	<rect x="81" y="81" class="st19" width="6" height="6"/>
	<rect x="87" y="81" class="st5" width="6" height="6"/>
	<rect x="93" y="81" class="st19" width="6" height="6"/>
	<rect x="99" y="81" class="st19" width="6" height="6"/>
	<rect x="105" y="81" class="st19" width="6" height="6"/>
	<rect x="111" y="81" class="st19" width="6" height="6"/>
	<rect x="117" y="81" class="st5" width="6" height="6"/>
	<rect x="123" y="81" class="st19" width="6" height="6"/>
	<rect x="129" y="81" class="st18" width="6" height="6"/>
	<rect x="135" y="81" class="st18" width="6" height="6"/>
	<rect x="141" y="81" class="st12" width="6" height="6"/>
	<rect x="147" y="81" class="st5" width="6" height="6"/>
	<rect x="153" y="81" class="st3" width="6" height="6"/>
	<rect x="159" y="81" class="st2" width="6" height="6"/>
	<rect x="165" y="81" class="st11" width="6" height="6"/>
	<rect x="171" y="81" class="st0" width="6" height="6"/>
	<rect x="15" y="87" class="st0" width="6" height="6"/>
	<rect x="21" y="87" class="st15" width="6" height="6"/>
	<rect x="27" y="87" class="st1" width="6" height="6"/>
	<rect x="33" y="87" class="st5" width="6" height="6"/>
	<rect x="39" y="87" class="st8" width="6" height="6"/>
	<rect x="45" y="87" class="st8" width="6" height="6"/>
	<rect x="51" y="87" class="st2" width="6" height="6"/>
	<rect x="57" y="87" class="st5" width="6" height="6"/>
	<rect x="63" y="87" class="st0" width="6" height="6"/>
	<rect x="69" y="87" class="st17" width="6" height="6"/>
	<rect x="75" y="87" class="st20" width="6" height="6"/>
	<rect x="81" y="87" class="st19" width="6" height="6"/>
	<rect x="87" y="87" class="st5" width="6" height="6"/>
	<rect x="93" y="87" class="st19" width="6" height="6"/>
	<rect x="99" y="87" class="st19" width="6" height="6"/>
	<rect x="105" y="87" class="st19" width="6" height="6"/>
	<rect x="111" y="87" class="st19" width="6" height="6"/>
	<rect x="117" y="87" class="st5" width="6" height="6"/>
	<rect x="123" y="87" class="st19" width="6" height="6"/>
	<rect x="129" y="87" class="st20" width="6" height="6"/>
	<rect x="135" y="87" class="st18" width="6" height="6"/>
	<rect x="141" y="87" class="st12" width="6" height="6"/>
	<rect x="147" y="87" class="st5" width="6" height="6"/>
	<rect x="153" y="87" class="st3" width="6" height="6"/>
	<rect x="159" y="87" class="st2" width="6" height="6"/>
	<rect x="165" y="87" class="st11" width="6" height="6"/>
	<rect x="171" y="87" class="st0" width="6" height="6"/>
	<rect x="21" y="93" class="st0" width="6" height="6"/>
	<rect x="27" y="93" class="st6" width="6" height="6"/>
	<rect x="33" y="93" class="st8" width="6" height="6"/>
	<rect x="39" y="93" class="st5" width="6" height="6"/>
	<rect x="45" y="93" class="st1" width="6" height="6"/>
	<rect x="51" y="93" class="st3" width="6" height="6"/>
	<rect x="57" y="93" class="st5" width="6" height="6"/>
	<rect x="63" y="93" class="st0" width="6" height="6"/>
	<rect x="69" y="93" class="st17" width="6" height="6"/>
	<rect x="75" y="93" class="st20" width="6" height="6"/>
	<rect x="81" y="93" class="st21" width="6" height="6"/>
	<rect x="87" y="93" class="st0" width="6" height="6"/>
	<rect x="93" y="93" class="st19" width="6" height="6"/>
	<rect x="99" y="93" class="st19" width="6" height="6"/>
	<rect x="105" y="93" class="st19" width="6" height="6"/>
	<rect x="111" y="93" class="st19" width="6" height="6"/>
	<rect x="117" y="93" class="st0" width="6" height="6"/>
	<rect x="123" y="93" class="st21" width="6" height="6"/>
	<rect x="129" y="93" class="st20" width="6" height="6"/>
	<rect x="135" y="93" class="st18" width="6" height="6"/>
	<rect x="141" y="93" class="st12" width="6" height="6"/>
	<rect x="147" y="93" class="st5" width="6" height="6"/>
	<rect x="153" y="93" class="st3" width="6" height="6"/>
	<rect x="159" y="93" class="st2" width="6" height="6"/>
	<rect x="165" y="93" class="st10" width="6" height="6"/>
	<rect x="171" y="93" class="st0" width="6" height="6"/>
	<rect x="15" y="99" class="st0" width="6" height="6"/>
	<rect x="21" y="99" class="st15" width="6" height="6"/>
	<rect x="27" y="99" class="st1" width="6" height="6"/>
	<rect x="33" y="99" class="st5" width="6" height="6"/>
	<rect x="39" y="99" class="st5" width="6" height="6"/>
	<rect x="45" y="99" class="st1" width="6" height="6"/>
	<rect x="51" y="99" class="st6" width="6" height="6"/>
	<rect x="57" y="99" class="st5" width="6" height="6"/>
	<rect x="63" y="99" class="st0" width="6" height="6"/>
	<rect x="69" y="99" class="st17" width="6" height="6"/>
	<rect x="75" y="99" class="st17" width="6" height="6"/>
	<rect x="81" y="99" class="st19" width="6" height="6"/>
	<rect x="87" y="99" class="st19" width="6" height="6"/>
	<rect x="93" y="99" class="st22" width="6" height="6"/>
	<rect x="99" y="99" class="st19" width="6" height="6"/>
	<rect x="105" y="99" class="st19" width="6" height="6"/>
	<rect x="111" y="99" class="st22" width="6" height="6"/>
	<rect x="117" y="99" class="st19" width="6" height="6"/>
	<rect x="123" y="99" class="st19" width="6" height="6"/>
	<rect x="129" y="99" class="st18" width="6" height="6"/>
	<rect x="135" y="99" class="st18" width="6" height="6"/>
	<rect x="141" y="99" class="st12" width="6" height="6"/>
	<rect x="147" y="99" class="st5" width="6" height="6"/>
	<rect x="153" y="99" class="st3" width="6" height="6"/>
	<rect x="159" y="99" class="st2" width="6" height="6"/>
	<rect x="165" y="99" class="st10" width="6" height="6"/>
	<rect x="171" y="99" class="st0" width="6" height="6"/>
	<rect x="15" y="105" class="st0" width="6" height="6"/>
	<rect x="21" y="105" class="st15" width="6" height="6"/>
	<rect x="27" y="105" class="st1" width="6" height="6"/>
	<rect x="33" y="105" class="st5" width="6" height="6"/>
	<rect x="39" y="105" class="st8" width="6" height="6"/>
	<rect x="45" y="105" class="st8" width="6" height="6"/>
	<rect x="51" y="105" class="st9" width="6" height="6"/>
	<rect x="57" y="105" class="st5" width="6" height="6"/>
	<rect x="63" y="105" class="st0" width="6" height="6"/>
	<rect x="69" y="105" class="st17" width="6" height="6"/>
	<rect x="75" y="105" class="st17" width="6" height="6"/>
	<rect x="81" y="105" class="st17" width="6" height="6"/>
	<rect x="87" y="105" class="st19" width="6" height="6"/>
	<rect x="93" y="105" class="st19" width="6" height="6"/>
	<rect x="99" y="105" class="st22" width="6" height="6"/>
	<rect x="105" y="105" class="st22" width="6" height="6"/>
	<rect x="111" y="105" class="st19" width="6" height="6"/>
	<rect x="117" y="105" class="st19" width="6" height="6"/>
	<rect x="123" y="105" class="st18" width="6" height="6"/>
	<rect x="129" y="105" class="st18" width="6" height="6"/>
	<rect x="135" y="105" class="st18" width="6" height="6"/>
	<rect x="141" y="105" class="st12" width="6" height="6"/>
	<rect x="147" y="105" class="st5" width="6" height="6"/>
	<rect x="153" y="105" class="st7" width="6" height="6"/>
	<rect x="159" y="105" class="st3" width="6" height="6"/>
	<rect x="165" y="105" class="st10" width="6" height="6"/>
	<rect x="171" y="105" class="st0" width="6" height="6"/>
	<rect x="21" y="111" class="st0" width="6" height="6"/>
	<rect x="27" y="111" class="st6" width="6" height="6"/>
	<rect x="33" y="111" class="st8" width="6" height="6"/>
	<rect x="39" y="111" class="st5" width="6" height="6"/>
	<rect x="45" y="111" class="st1" width="6" height="6"/>
	<rect x="51" y="111" class="st6" width="6" height="6"/>
	<rect x="57" y="111" class="st5" width="6" height="6"/>
	<rect x="63" y="111" class="st0" width="6" height="6"/>
	<rect x="69" y="111" class="st0" width="6" height="6"/>
	<rect x="75" y="111" class="st0" width="6" height="6"/>
	<rect x="81" y="111" class="st0" width="6" height="6"/>
	<rect x="87" y="111" class="st0" width="6" height="6"/>
	<rect x="93" y="111" class="st0" width="6" height="6"/>
	<rect x="99" y="111" class="st0" width="6" height="6"/>
	<rect x="105" y="111" class="st12" width="6" height="6"/>
	<rect x="111" y="111" class="st12" width="6" height="6"/>
	<rect x="117" y="111" class="st12" width="6" height="6"/>
	<rect x="123" y="111" class="st12" width="6" height="6"/>
	<rect x="129" y="111" class="st12" width="6" height="6"/>
	<rect x="135" y="111" class="st12" width="6" height="6"/>
	<rect x="141" y="111" class="st12" width="6" height="6"/>
	<rect x="147" y="111" class="st5" width="6" height="6"/>
	<rect x="153" y="111" class="st7" width="6" height="6"/>
	<rect x="159" y="111" class="st3" width="6" height="6"/>
	<rect x="165" y="111" class="st10" width="6" height="6"/>
	<rect x="171" y="111" class="st0" width="6" height="6"/>
	<rect x="15" y="117" class="st0" width="6" height="6"/>
	<rect x="21" y="117" class="st15" width="6" height="6"/>
	<rect x="27" y="117" class="st1" width="6" height="6"/>
	<rect x="33" y="117" class="st5" width="6" height="6"/>
	<rect x="39" y="117" class="st5" width="6" height="6"/>
	<rect x="45" y="117" class="st1" width="6" height="6"/>
	<rect x="51" y="117" class="st6" width="6" height="6"/>
	<rect x="57" y="117" class="st3" width="6" height="6"/>
	<rect x="63" y="117" class="st5" width="6" height="6"/>
	<rect x="69" y="117" class="st5" width="6" height="6"/>
	<rect x="75" y="117" class="st5" width="6" height="6"/>
	<rect x="81" y="117" class="st5" width="6" height="6"/>
	<rect x="87" y="117" class="st5" width="6" height="6"/>
	<rect x="93" y="117" class="st5" width="6" height="6"/>
	<rect x="99" y="117" class="st5" width="6" height="6"/>
	<rect x="105" y="117" class="st5" width="6" height="6"/>
	<rect x="111" y="117" class="st5" width="6" height="6"/>
	<rect x="117" y="117" class="st5" width="6" height="6"/>
	<rect x="123" y="117" class="st5" width="6" height="6"/>
	<rect x="129" y="117" class="st5" width="6" height="6"/>
	<rect x="135" y="117" class="st5" width="6" height="6"/>
	<rect x="141" y="117" class="st5" width="6" height="6"/>
	<rect x="147" y="117" class="st3" width="6" height="6"/>
	<rect x="153" y="117" class="st7" width="6" height="6"/>
	<rect x="159" y="117" class="st3" width="6" height="6"/>
	<rect x="165" y="117" class="st23" width="6" height="6"/>
	<rect x="171" y="117" class="st0" width="6" height="6"/>
	<rect x="15" y="123" class="st0" width="6" height="6"/>
	<rect x="21" y="123" class="st15" width="6" height="6"/>
	<rect x="27" y="123" class="st1" width="6" height="6"/>
	<rect x="33" y="123" class="st5" width="6" height="6"/>
	<rect x="39" y="123" class="st5" width="6" height="6"/>
	<rect x="45" y="123" class="st1" width="6" height="6"/>
	<rect x="51" y="123" class="st6" width="6" height="6"/>
	<rect x="57" y="123" class="st6" width="6" height="6"/>
	<rect x="63" y="123" class="st6" width="6" height="6"/>
	<rect x="69" y="123" class="st6" width="6" height="6"/>
	<rect x="75" y="123" class="st3" width="6" height="6"/>
	<rect x="81" y="123" class="st3" width="6" height="6"/>
	<rect x="87" y="123" class="st3" width="6" height="6"/>
	<rect x="93" y="123" class="st3" width="6" height="6"/>
	<rect x="99" y="123" class="st3" width="6" height="6"/>
	<rect x="105" y="123" class="st3" width="6" height="6"/>
	<rect x="111" y="123" class="st3" width="6" height="6"/>
	<rect x="117" y="123" class="st3" width="6" height="6"/>
	<rect x="123" y="123" class="st3" width="6" height="6"/>
	<rect x="129" y="123" class="st3" width="6" height="6"/>
	<rect x="135" y="123" class="st7" width="6" height="6"/>
	<rect x="141" y="123" class="st7" width="6" height="6"/>
	<rect x="147" y="123" class="st7" width="6" height="6"/>
	<rect x="153" y="123" class="st7" width="6" height="6"/>
	<rect x="159" y="123" class="st3" width="6" height="6"/>
	<rect x="165" y="123" class="st23" width="6" height="6"/>
	<rect x="171" y="123" class="st0" width="6" height="6"/>
	<rect x="21" y="129" class="st0" width="6" height="6"/>
	<rect x="27" y="129" class="st1" width="6" height="6"/>
	<rect x="33" y="129" class="st1" width="6" height="6"/>
	<rect x="39" y="129" class="st1" width="6" height="6"/>
	<rect x="45" y="129" class="st1" width="6" height="6"/>
	<rect x="51" y="129" class="st1" width="6" height="6"/>
	<rect x="57" y="129" class="st1" width="6" height="6"/>
	<rect x="63" y="129" class="st1" width="6" height="6"/>
	<rect x="69" y="129" class="st1" width="6" height="6"/>
	<rect x="75" y="129" class="st2" width="6" height="6"/>
	<rect x="81" y="129" class="st2" width="6" height="6"/>
	<rect x="87" y="129" class="st2" width="6" height="6"/>
	<rect x="93" y="129" class="st2" width="6" height="6"/>
	<rect x="99" y="129" class="st2" width="6" height="6"/>
	<rect x="105" y="129" class="st2" width="6" height="6"/>
	<rect x="111" y="129" class="st2" width="6" height="6"/>
	<rect x="117" y="129" class="st2" width="6" height="6"/>
	<rect x="123" y="129" class="st2" width="6" height="6"/>
	<rect x="129" y="129" class="st2" width="6" height="6"/>
	<rect x="135" y="129" class="st3" width="6" height="6"/>
	<rect x="141" y="129" class="st3" width="6" height="6"/>
	<rect x="147" y="129" class="st3" width="6" height="6"/>
	<rect x="153" y="129" class="st3" width="6" height="6"/>
	<rect x="159" y="129" class="st3" width="6" height="6"/>
	<rect x="165" y="129" class="st23" width="6" height="6"/>
	<rect x="171" y="129" class="st0" width="6" height="6"/>
	<rect x="21" y="135" class="st0" width="6" height="6"/>
	<rect x="27" y="135" class="st1" width="6" height="6"/>
	<rect x="33" y="135" class="st3" width="6" height="6"/>
	<rect x="39" y="135" class="st3" width="6" height="6"/>
	<rect x="45" y="135" class="st3" width="6" height="6"/>
	<rect x="51" y="135" class="st24" width="6" height="6"/>
	<rect x="57" y="135" class="st24" width="6" height="6"/>
	<rect x="63" y="135" class="st24" width="6" height="6"/>
	<rect x="69" y="135" class="st24" width="6" height="6"/>
	<rect x="75" y="135" class="st24" width="6" height="6"/>
	<rect x="81" y="135" class="st24" width="6" height="6"/>
	<rect x="87" y="135" class="st24" width="6" height="6"/>
	<rect x="93" y="135" class="st24" width="6" height="6"/>
	<rect x="99" y="135" class="st24" width="6" height="6"/>
	<rect x="105" y="135" class="st24" width="6" height="6"/>
	<rect x="111" y="135" class="st24" width="6" height="6"/>
	<rect x="117" y="135" class="st24" width="6" height="6"/>
	<rect x="123" y="135" class="st24" width="6" height="6"/>
	<rect x="129" y="135" class="st24" width="6" height="6"/>
	<rect x="135" y="135" class="st24" width="6" height="6"/>
	<rect x="141" y="135" class="st24" width="6" height="6"/>
	<rect x="147" y="135" class="st24" width="6" height="6"/>
	<rect x="153" y="135" class="st24" width="6" height="6"/>
	<rect x="159" y="135" class="st24" width="6" height="6"/>
	<rect x="165" y="135" class="st5" width="6" height="6"/>
	<rect x="171" y="135" class="st0" width="6" height="6"/>
	<rect x="21" y="141" class="st0" width="6" height="6"/>
	<rect x="27" y="141" class="st1" width="6" height="6"/>
	<rect x="33" y="141" class="st3" width="6" height="6"/>
	<rect x="39" y="141" class="st3" width="6" height="6"/>
	<rect x="45" y="141" class="st12" width="6" height="6"/>
	<rect x="51" y="141" class="st25" width="6" height="6"/>
	<rect x="57" y="141" class="st25" width="6" height="6"/>
	<rect x="63" y="141" class="st25" width="6" height="6"/>
	<rect x="69" y="141" class="st26" width="6" height="6"/>
	<rect x="75" y="141" class="st26" width="6" height="6"/>
	<rect x="81" y="141" class="st12" width="6" height="6"/>
	<rect x="87" y="141" class="st27" width="6" height="6"/>
	<rect x="93" y="141" class="st27" width="6" height="6"/>
	<rect x="99" y="141" class="st13" width="6" height="6"/>
	<rect x="105" y="141" class="st12" width="6" height="6"/>
	<rect x="111" y="141" class="st12" width="6" height="6"/>
	<rect x="117" y="141" class="st12" width="6" height="6"/>
	<rect x="123" y="141" class="st12" width="6" height="6"/>
	<rect x="129" y="141" class="st12" width="6" height="6"/>
	<rect x="135" y="141" class="st12" width="6" height="6"/>
	<rect x="141" y="141" class="st12" width="6" height="6"/>
	<rect x="147" y="141" class="st12" width="6" height="6"/>
	<rect x="153" y="141" class="st12" width="6" height="6"/>
	<rect x="159" y="141" class="st12" width="6" height="6"/>
	<rect x="165" y="141" class="st5" width="6" height="6"/>
	<rect x="171" y="141" class="st0" width="6" height="6"/>
	<rect x="21" y="147" class="st0" width="6" height="6"/>
	<rect x="27" y="147" class="st1" width="6" height="6"/>
	<rect x="33" y="147" class="st3" width="6" height="6"/>
	<rect x="39" y="147" class="st3" width="6" height="6"/>
	<rect x="45" y="147" class="st12" width="6" height="6"/>
	<rect x="51" y="147" class="st25" width="6" height="6"/>
	<rect x="57" y="147" class="st25" width="6" height="6"/>
	<rect x="63" y="147" class="st25" width="6" height="6"/>
	<rect x="69" y="147" class="st26" width="6" height="6"/>
	<rect x="75" y="147" class="st26" width="6" height="6"/>
	<rect x="81" y="147" class="st12" width="6" height="6"/>
	<rect x="87" y="147" class="st28" width="6" height="6"/>
	<rect x="93" y="147" class="st28" width="6" height="6"/>
	<rect x="99" y="147" class="st14" width="6" height="6"/>
	<rect x="105" y="147" class="st12" width="6" height="6"/>
	<rect x="111" y="147" class="st12" width="6" height="6"/>
	<rect x="117" y="147" class="st12" width="6" height="6"/>
	<rect x="123" y="147" class="st12" width="6" height="6"/>
	<rect x="129" y="147" class="st12" width="6" height="6"/>
	<rect x="135" y="147" class="st12" width="6" height="6"/>
	<rect x="141" y="147" class="st12" width="6" height="6"/>
	<rect x="147" y="147" class="st12" width="6" height="6"/>
	<rect x="153" y="147" class="st12" width="6" height="6"/>
	<rect x="159" y="147" class="st12" width="6" height="6"/>
	<rect x="165" y="147" class="st5" width="6" height="6"/>
	<rect x="171" y="147" class="st0" width="6" height="6"/>
	<rect x="21" y="153" class="st0" width="6" height="6"/>
	<rect x="27" y="153" class="st1" width="6" height="6"/>
	<rect x="33" y="153" class="st3" width="6" height="6"/>
	<rect x="39" y="153" class="st3" width="6" height="6"/>
	<rect x="45" y="153" class="st3" width="6" height="6"/>
	<rect x="51" y="153" class="st29" width="6" height="6"/>
	<rect x="57" y="153" class="st29" width="6" height="6"/>
	<rect x="63" y="153" class="st29" width="6" height="6"/>
	<rect x="69" y="153" class="st8" width="6" height="6"/>
	<rect x="75" y="153" class="st22" width="6" height="6"/>
	<rect x="81" y="153" class="st24" width="6" height="6"/>
	<rect x="87" y="153" class="st28" width="6" height="6"/>
	<rect x="93" y="153" class="st11" width="6" height="6"/>
	<rect x="99" y="153" class="st14" width="6" height="6"/>
	<rect x="105" y="153" class="st24" width="6" height="6"/>
	<rect x="111" y="153" class="st24" width="6" height="6"/>
	<rect x="117" y="153" class="st24" width="6" height="6"/>
	<rect x="123" y="153" class="st24" width="6" height="6"/>
	<rect x="129" y="153" class="st24" width="6" height="6"/>
	<rect x="135" y="153" class="st24" width="6" height="6"/>
	<rect x="141" y="153" class="st24" width="6" height="6"/>
	<rect x="147" y="153" class="st24" width="6" height="6"/>
	<rect x="153" y="153" class="st24" width="6" height="6"/>
	<rect x="159" y="153" class="st24" width="6" height="6"/>
	<rect x="165" y="153" class="st5" width="6" height="6"/>
	<rect x="171" y="153" class="st0" width="6" height="6"/>
	<rect x="27" y="159" class="st0" width="6" height="6"/>
	<rect x="33" y="159" class="st2" width="6" height="6"/>
	<rect x="39" y="159" class="st2" width="6" height="6"/>
	<rect x="45" y="159" class="st2" width="6" height="6"/>
	<rect x="51" y="159" class="st29" width="6" height="6"/>
	<rect x="57" y="159" class="st29" width="6" height="6"/>
	<rect x="63" y="159" class="st29" width="6" height="6"/>
	<rect x="69" y="159" class="st8" width="6" height="6"/>
	<rect x="75" y="159" class="st22" width="6" height="6"/>
	<rect x="81" y="159" class="st2" width="6" height="6"/>
	<rect x="87" y="159" class="st28" width="6" height="6"/>
	<rect x="93" y="159" class="st11" width="6" height="6"/>
	<rect x="99" y="159" class="st14" width="6" height="6"/>
	<rect x="105" y="159" class="st2" width="6" height="6"/>
	<rect x="111" y="159" class="st2" width="6" height="6"/>
	<rect x="117" y="159" class="st2" width="6" height="6"/>
	<rect x="123" y="159" class="st2" width="6" height="6"/>
	<rect x="129" y="159" class="st2" width="6" height="6"/>
	<rect x="135" y="159" class="st5" width="6" height="6"/>
	<rect x="141" y="159" class="st5" width="6" height="6"/>
	<rect x="147" y="159" class="st5" width="6" height="6"/>
	<rect x="153" y="159" class="st5" width="6" height="6"/>
	<rect x="159" y="159" class="st5" width="6" height="6"/>
	<rect x="165" y="159" class="st5" width="6" height="6"/>
	<rect x="171" y="159" class="st0" width="6" height="6"/>
	<rect x="33" y="165" class="st0" width="6" height="6"/>
	<rect x="39" y="165" class="st0" width="6" height="6"/>
	<rect x="45" y="165" class="st0" width="6" height="6"/>
	<rect x="51" y="165" class="st29" width="6" height="6"/>
	<rect x="57" y="165" class="st29" width="6" height="6"/>
	<rect x="63" y="165" class="st29" width="6" height="6"/>
	<rect x="69" y="165" class="st8" width="6" height="6"/>
	<rect x="75" y="165" class="st22" width="6" height="6"/>
	<rect x="81" y="165" class="st0" width="6" height="6"/>
	<rect x="87" y="165" class="st28" width="6" height="6"/>
	<rect x="93" y="165" class="st28" width="6" height="6"/>
	<rect x="99" y="165" class="st14" width="6" height="6"/>
	<rect x="105" y="165" class="st0" width="6" height="6"/>
	<rect x="111" y="165" class="st0" width="6" height="6"/>
	<rect x="117" y="165" class="st0" width="6" height="6"/>
	<rect x="123" y="165" class="st0" width="6" height="6"/>
	<rect x="129" y="165" class="st0" width="6" height="6"/>
	<rect x="135" y="165" class="st0" width="6" height="6"/>
	<rect x="141" y="165" class="st0" width="6" height="6"/>
	<rect x="147" y="165" class="st0" width="6" height="6"/>
	<rect x="153" y="165" class="st0" width="6" height="6"/>
	<rect x="159" y="165" class="st0" width="6" height="6"/>
	<rect x="165" y="165" class="st0" width="6" height="6"/>
	<rect x="45" y="171" class="st0" width="6" height="6"/>
	<rect x="51" y="171" class="st29" width="6" height="6"/>
	<rect x="57" y="171" class="st29" width="6" height="6"/>
	<rect x="63" y="171" class="st29" width="6" height="6"/>
	<rect x="69" y="171" class="st29" width="6" height="6"/>
	<rect x="75" y="171" class="st22" width="6" height="6"/>
	<rect x="81" y="171" class="st0" width="6" height="6"/>
	<rect x="87" y="171" class="st0" width="6" height="6"/>
	<rect x="93" y="171" class="st0" width="6" height="6"/>
	<rect x="99" y="171" class="st0" width="6" height="6"/>
	<rect x="51" y="177" class="st0" width="6" height="6"/>
	<rect x="57" y="177" class="st0" width="6" height="6"/>
	<rect x="63" y="177" class="st0" width="6" height="6"/>
	<rect x="69" y="177" class="st0" width="6" height="6"/>
	<rect x="75" y="177" class="st0" width="6" height="6"/>
</g>
</svg>
