<?xml version="1.0" encoding="UTF-8"?><svg id="Layer_1" xmlns="http://www.w3.org/2000/svg" viewBox="0 0 500 430"><defs><style>.cls-1,.cls-2{stroke:#914938;stroke-miterlimit:10;stroke-width:2px;}.cls-1,.cls-3{fill:#914938;}.cls-4{fill:#f4ebd4;font-family:Roboto-Bold, Roboto;font-size:20.36px;font-weight:700;}.cls-2{fill:none;}.cls-3{stroke-width:0px;}</style></defs><path class="cls-3" d="m165.71,86.66c0,4.32-5.76,6.48-9.36,7.92,2.88,26.64,7.92,56.88,14.4,84.24,24.12-17.28,54.36-30.96,84.96-37.44,4.68-23.76,9-55.08,11.88-82.44l34.92,6.48c-.36,3.6-4.32,5.76-10.44,6.12-2.88,21.6-7.92,50.76-10.8,66.24,8.28-1.08,16.2-1.8,23.76-1.8,59.04-.72,88.92,39.24,88.92,107.64,0,19.08-2.88,43.2-7.56,60.84,10.08,8.28,21.96,18.36,30.6,27l-14.76,22.68c-7.92-8.28-17.28-18-25.56-24.84-12.6,26.64-33.48,41.76-65.16,41.76-38.88,0-57.6-22.32-57.6-48.6,0-28.8,27.36-46.8,58.68-46.8,15.84,0,36,7.2,51.48,16.2,3.24-14.04,5.04-28.44,5.04-42.84,0-56.16-20.52-90.36-66.24-90-9,0-18,.72-27,2.88-13.68,56.88-29.52,91.08-55.08,132.48,5.04,6.48,10.44,11.88,16.2,15.84l-14.76,20.16c-5.76-4.32-11.52-10.08-16.56-16.2-19.44,24.12-39.24,39.24-65.16,39.24s-41.4-23.04-41.4-60.84,19.8-71.28,50.4-98.28c-8.28-33.12-15.12-70.2-20.16-106.56l36.36-1.08Zm25.92,208.8c-13.68-20.88-24.84-47.16-33.84-76.68-21.6,21.24-35.64,46.8-35.64,73.08,0,24.12,8.28,37.44,21.24,37.44s28.08-6.48,48.24-33.84Zm57.6-128.88c-26.28,6.48-52.56,19.08-72.72,35.28,7.56,27,17.28,51.84,29.52,71.28,19.08-31.32,34.2-65.16,43.2-106.56Zm62.28,182.88c16.92,0,36-6.12,46.8-35.28-15.12-10.44-32.76-17.64-47.52-17.64-21.24,0-36,11.16-36,25.56,0,17.64,13.68,27.36,36.72,27.36Z"/><path class="cls-2" d="m118.44,114.07s19.48,114.82,44.07,154.11"/><path class="cls-2" d="m301.06,104.57s-14.93,122.65-54.22,169.47"/><path class="cls-2" d="m402.31,197.68s13.09,34.76,2.54,84.75"/><path class="cls-2" d="m244.86,327.57s-15.02-47.52,45.21-60.08"/><polygon class="cls-1" points="158.29 260.54 162.46 258.27 163.18 264.55 163.9 270.83 159.01 266.82 154.12 262.82 158.29 260.54"/><polygon class="cls-1" points="250.88 269.18 254.6 272.12 249.11 275.25 243.61 278.37 245.38 272.3 247.15 266.23 250.88 269.18"/><polygon class="cls-1" points="286.11 268.18 285.39 263.48 291.55 264.95 297.7 266.41 292.26 269.64 286.82 272.87 286.11 268.18"/><polygon class="cls-1" points="405.63 277.17 410.28 278.15 406.76 283.4 403.24 288.65 402.11 282.43 400.99 276.2 405.63 277.17"/><circle class="cls-1" cx="99.11" cy="90.95" r="16.1"/><text class="cls-4" transform="translate(93.27 98.26)"><tspan x="0" y="0">1</tspan></text><circle class="cls-1" cx="328.82" cy="90.33" r="16.1"/><text class="cls-4" transform="translate(322.98 97.64)"><tspan x="0" y="0">2</tspan></text></svg>