<?xml version="1.0" encoding="UTF-8"?><svg id="Layer_1" xmlns="http://www.w3.org/2000/svg" viewBox="0 0 500 430"><defs><style>.cls-1,.cls-2{stroke:#914938;stroke-miterlimit:10;stroke-width:2px;}.cls-1,.cls-3{fill:#914938;}.cls-4{fill:#f4ebd4;font-family:Roboto-Bold, Roboto;font-size:20.36px;font-weight:700;}.cls-2{fill:none;}.cls-3{stroke-width:0px;}</style></defs><path class="cls-3" d="m282.55,129.82c-19.08,6.48-42.84,11.16-69.84,14.4,0,22.68-.36,47.88-.36,68.76,28.08-9.72,58.32-16.56,81.36-16.56,61.2,0,99.36,33.12,99.36,83.88,0,47.52-29.16,84.6-84.6,84.6-26.64,0-50.76-9.36-70.2-34.56,4.32-5.4,9.36-12.6,12.96-18.72,17.64,22.32,36.72,29.52,57.6,29.52,38.16,0,58.32-27.36,58.32-60.84s-25.56-62.28-73.8-61.92c-23.04.36-52.92,6.84-81,17.28,0,26.64.72,69.48.72,79.56,0,32.4-21.24,57.24-56.52,57.24-33.12,0-60.84-20.52-60.84-55.44,0-23.04,16.56-48.96,45-69.12,12.96-9,29.52-18.36,47.88-25.92v-75.96c-28.8,2.52-57.6,2.88-86.4,2.52l-.36-24.48c31.68.36,60.48,0,86.76-2.16V54.58l36.36,2.16c-.36,4.32-3.96,6.84-10.08,7.56-.72,14.04-1.08,35.28-1.44,55.44,24.12-2.88,46.08-7.92,64.8-15.12l4.32,25.2Zm-93.6,183.96c0-9.36-.36-38.88-.36-68.4-13.32,6.12-25.92,13.68-36.72,21.24-18.72,13.32-32.76,33.48-32.76,49.32,0,18.72,12.24,34.2,36.72,34.2,18.36,0,33.12-12.6,33.12-36v-.36Zm203.4-141.12c-18.36-18.36-52.92-39.24-82.08-51.84l12.6-21.24c30.96,13.32,65.52,33.84,85.32,51.84l-15.84,21.24Z"/><path class="cls-2" d="m100.75,110.8s104.26,7.94,176.4-19.44"/><path class="cls-2" d="m226.59,72.96s-2.35,105.87-2.42,116.75"/><path class="cls-2" d="m198.55,370.46s-31.9,31-82.36,6.86c-50.46-24.14-28.98-89.99-28.98-89.99"/><path class="cls-2" d="m328.45,87.67s69.84,33.37,85.32,51.84"/><polygon class="cls-1" points="276.44 91.76 274.88 87.27 281.19 87.59 287.51 87.91 282.75 92.08 278 96.25 276.44 91.76"/><polygon class="cls-1" points="224.17 185.1 228.92 185 226.67 190.91 224.42 196.82 221.92 191.01 219.42 185.2 224.17 185.1"/><polygon class="cls-1" points="86.08 291.24 81.54 289.86 85.51 284.95 89.49 280.03 90.06 286.33 90.63 292.63 86.08 291.24"/><polygon class="cls-1" points="409.91 135.8 413.15 132.33 415.81 138.07 418.46 143.81 412.56 141.54 406.66 139.27 409.91 135.8"/><circle class="cls-1" cx="117.43" cy="84.57" r="16.1"/><text class="cls-4" transform="translate(111.59 91.88)"><tspan x="0" y="0">1</tspan></text><circle class="cls-1" cx="251.02" cy="59.58" r="16.1"/><text class="cls-4" transform="translate(245.18 66.88)"><tspan x="0" y="0">2</tspan></text><circle class="cls-1" cx="355.01" cy="68.48" r="16.1"/><text class="cls-4" transform="translate(349.17 75.78)"><tspan x="0" y="0">3</tspan></text></svg>