<?xml version="1.0" encoding="utf-8"?>
<!-- Generator: Adobe Illustrator 27.9.0, SVG Export Plug-In . SVG Version: 6.00 Build 0)  -->
<svg version="1.1" id="Layer_1" shape-rendering="crispEdges"
	 xmlns="http://www.w3.org/2000/svg" xmlns:xlink="http://www.w3.org/1999/xlink" x="0px" y="0px" viewBox="0 0 192 192"
	 style="enable-background:new 0 0 192 192;" xml:space="preserve">
<style type="text/css">
	.st0{fill:#C1B9E0;}
	.st1{fill:#8D5386;}
	.st2{fill:#AE5269;}
	.st3{fill:#EA9571;}
	.st4{fill:#E0603D;}
	.st5{fill:#E6A974;}
	.st6{fill:#E4895D;}
	.st7{fill:#974056;}
	.st8{fill:#E17557;}
	.st9{fill:#EDE5B7;}
	.st10{fill:#4C6D56;}
	.st11{fill:#CF6F87;}
	.st12{fill:#ECE7E8;}
	.st13{fill:#1D8566;}
	.st14{fill:#8E3465;}
	.st15{fill:#534748;}
	.st16{fill:#733C81;}
	.st17{fill:#51344B;}
	.st18{fill:#C33C4A;}
	.st19{fill:#E25C72;}
	.st20{fill:#E7A55D;}
	.st21{fill:#E6C874;}
	.st22{fill:#8D506B;}
	.st23{fill:#824560;}
	.st24{fill:#E87687;}
	.st25{fill:#922D52;}
</style>
<g>
	<rect x="85.2" y="13" class="st0" width="5.4" height="5.4"/>
	<rect x="90.6" y="13" class="st0" width="5.4" height="5.4"/>
	<rect x="96" y="13" class="st0" width="5.4" height="5.4"/>
	<rect x="101.4" y="13" class="st0" width="5.4" height="5.4"/>
	<rect x="106.8" y="13" class="st0" width="5.4" height="5.4"/>
	<rect x="79.8" y="18.4" class="st0" width="5.4" height="5.4"/>
	<rect x="85.2" y="18.4" class="st1" width="5.4" height="5.4"/>
	<rect x="90.6" y="18.4" class="st1" width="5.4" height="5.4"/>
	<rect x="96" y="18.4" class="st2" width="5.4" height="5.4"/>
	<rect x="101.4" y="18.4" class="st2" width="5.4" height="5.4"/>
	<rect x="106.8" y="18.4" class="st1" width="5.4" height="5.4"/>
	<rect x="112.2" y="18.4" class="st0" width="5.4" height="5.4"/>
	<rect x="74.5" y="23.8" class="st0" width="5.4" height="5.4"/>
	<rect x="79.8" y="23.8" class="st1" width="5.4" height="5.4"/>
	<rect x="85.2" y="23.8" class="st3" width="5.4" height="5.4"/>
	<rect x="90.6" y="23.8" class="st4" width="5.4" height="5.4"/>
	<rect x="96" y="23.8" class="st4" width="5.4" height="5.4"/>
	<rect x="101.4" y="23.8" class="st4" width="5.4" height="5.4"/>
	<rect x="106.8" y="23.8" class="st4" width="5.4" height="5.4"/>
	<rect x="112.2" y="23.8" class="st2" width="5.4" height="5.4"/>
	<rect x="117.5" y="23.8" class="st0" width="5.4" height="5.4"/>
	<rect x="69.1" y="29.2" class="st0" width="5.4" height="5.4"/>
	<rect x="74.5" y="29.2" class="st1" width="5.4" height="5.4"/>
	<rect x="79.8" y="29.2" class="st4" width="5.4" height="5.4"/>
	<rect x="85.2" y="29.2" class="st4" width="5.4" height="5.4"/>
	<rect x="90.6" y="29.2" class="st4" width="5.4" height="5.4"/>
	<rect x="96" y="29.2" class="st4" width="5.4" height="5.4"/>
	<rect x="101.4" y="29.2" class="st4" width="5.4" height="5.4"/>
	<rect x="106.8" y="29.2" class="st3" width="5.4" height="5.4"/>
	<rect x="112.2" y="29.2" class="st4" width="5.4" height="5.4"/>
	<rect x="117.5" y="29.2" class="st1" width="5.4" height="5.4"/>
	<rect x="122.9" y="29.2" class="st0" width="5.4" height="5.4"/>
	<rect x="63.7" y="34.5" class="st0" width="5.4" height="5.4"/>
	<rect x="69.1" y="34.5" class="st1" width="5.4" height="5.4"/>
	<rect x="74.5" y="34.5" class="st4" width="5.4" height="5.4"/>
	<rect x="79.8" y="34.5" class="st3" width="5.4" height="5.4"/>
	<rect x="85.2" y="34.5" class="st3" width="5.4" height="5.4"/>
	<rect x="90.6" y="34.5" class="st4" width="5.4" height="5.4"/>
	<rect x="96" y="34.5" class="st4" width="5.4" height="5.4"/>
	<rect x="101.4" y="34.5" class="st4" width="5.4" height="5.4"/>
	<rect x="106.8" y="34.5" class="st4" width="5.4" height="5.4"/>
	<rect x="112.2" y="34.5" class="st4" width="5.4" height="5.4"/>
	<rect x="117.5" y="34.5" class="st4" width="5.4" height="5.4"/>
	<rect x="122.9" y="34.5" class="st2" width="5.4" height="5.4"/>
	<rect x="128.3" y="34.5" class="st0" width="5.4" height="5.4"/>
	<rect x="58.3" y="39.9" class="st0" width="5.4" height="5.4"/>
	<rect x="63.7" y="39.9" class="st2" width="5.4" height="5.4"/>
	<rect x="69.1" y="39.9" class="st4" width="5.4" height="5.4"/>
	<rect x="74.5" y="39.9" class="st4" width="5.4" height="5.4"/>
	<rect x="79.8" y="39.9" class="st3" width="5.4" height="5.4"/>
	<rect x="85.2" y="39.9" class="st3" width="5.4" height="5.4"/>
	<rect x="90.6" y="39.9" class="st4" width="5.4" height="5.4"/>
	<rect x="96" y="39.9" class="st4" width="5.4" height="5.4"/>
	<rect x="101.4" y="39.9" class="st4" width="5.4" height="5.4"/>
	<rect x="106.8" y="39.9" class="st4" width="5.4" height="5.4"/>
	<rect x="112.2" y="39.9" class="st3" width="5.4" height="5.4"/>
	<rect x="117.5" y="39.9" class="st3" width="5.4" height="5.4"/>
	<rect x="122.9" y="39.9" class="st4" width="5.4" height="5.4"/>
	<rect x="128.3" y="39.9" class="st2" width="5.4" height="5.4"/>
	<rect x="133.7" y="39.9" class="st0" width="5.4" height="5.4"/>
	<rect x="58.3" y="45.3" class="st0" width="5.4" height="5.4"/>
	<rect x="63.7" y="45.3" class="st1" width="5.4" height="5.4"/>
	<rect x="69.1" y="45.3" class="st4" width="5.4" height="5.4"/>
	<rect x="74.5" y="45.3" class="st4" width="5.4" height="5.4"/>
	<rect x="79.8" y="45.3" class="st4" width="5.4" height="5.4"/>
	<rect x="85.2" y="45.3" class="st4" width="5.4" height="5.4"/>
	<rect x="90.6" y="45.3" class="st4" width="5.4" height="5.4"/>
	<rect x="96" y="45.3" class="st4" width="5.4" height="5.4"/>
	<rect x="101.4" y="45.3" class="st4" width="5.4" height="5.4"/>
	<rect x="106.8" y="45.3" class="st4" width="5.4" height="5.4"/>
	<rect x="112.2" y="45.3" class="st3" width="5.4" height="5.4"/>
	<rect x="117.5" y="45.3" class="st3" width="5.4" height="5.4"/>
	<rect x="122.9" y="45.3" class="st4" width="5.4" height="5.4"/>
	<rect x="128.3" y="45.3" class="st1" width="5.4" height="5.4"/>
	<rect x="133.7" y="45.3" class="st0" width="5.4" height="5.4"/>
	<rect x="52.9" y="50.7" class="st0" width="5.4" height="5.4"/>
	<rect x="58.3" y="50.7" class="st1" width="5.4" height="5.4"/>
	<rect x="63.7" y="50.7" class="st4" width="5.4" height="5.4"/>
	<rect x="69.1" y="50.7" class="st4" width="5.4" height="5.4"/>
	<rect x="74.5" y="50.7" class="st4" width="5.4" height="5.4"/>
	<rect x="79.8" y="50.7" class="st4" width="5.4" height="5.4"/>
	<rect x="85.2" y="50.7" class="st4" width="5.4" height="5.4"/>
	<rect x="90.6" y="50.7" class="st4" width="5.4" height="5.4"/>
	<rect x="96" y="50.7" class="st4" width="5.4" height="5.4"/>
	<rect x="101.4" y="50.7" class="st3" width="5.4" height="5.4"/>
	<rect x="106.8" y="50.7" class="st4" width="5.4" height="5.4"/>
	<rect x="112.2" y="50.7" class="st4" width="5.4" height="5.4"/>
	<rect x="117.5" y="50.7" class="st4" width="5.4" height="5.4"/>
	<rect x="122.9" y="50.7" class="st4" width="5.4" height="5.4"/>
	<rect x="128.3" y="50.7" class="st4" width="5.4" height="5.4"/>
	<rect x="133.7" y="50.7" class="st2" width="5.4" height="5.4"/>
	<rect x="139.1" y="50.7" class="st0" width="5.4" height="5.4"/>
	<rect x="52.9" y="56.1" class="st0" width="5.4" height="5.4"/>
	<rect x="58.3" y="56.1" class="st1" width="5.4" height="5.4"/>
	<rect x="63.7" y="56.1" class="st4" width="5.4" height="5.4"/>
	<rect x="69.1" y="56.1" class="st5" width="5.4" height="5.4"/>
	<rect x="74.5" y="56.1" class="st5" width="5.4" height="5.4"/>
	<rect x="79.8" y="56.1" class="st5" width="5.4" height="5.4"/>
	<rect x="85.2" y="56.1" class="st4" width="5.4" height="5.4"/>
	<rect x="90.6" y="56.1" class="st4" width="5.4" height="5.4"/>
	<rect x="96" y="56.1" class="st4" width="5.4" height="5.4"/>
	<rect x="101.4" y="56.1" class="st4" width="5.4" height="5.4"/>
	<rect x="106.8" y="56.1" class="st4" width="5.4" height="5.4"/>
	<rect x="112.2" y="56.1" class="st5" width="5.4" height="5.4"/>
	<rect x="117.5" y="56.1" class="st5" width="5.4" height="5.4"/>
	<rect x="122.9" y="56.1" class="st5" width="5.4" height="5.4"/>
	<rect x="128.3" y="56.1" class="st4" width="5.4" height="5.4"/>
	<rect x="133.7" y="56.1" class="st2" width="5.4" height="5.4"/>
	<rect x="139.1" y="56.1" class="st0" width="5.4" height="5.4"/>
	<rect x="47.5" y="61.5" class="st0" width="5.4" height="5.4"/>
	<rect x="52.9" y="61.5" class="st2" width="5.4" height="5.4"/>
	<rect x="58.3" y="61.5" class="st3" width="5.4" height="5.4"/>
	<rect x="63.7" y="61.5" class="st6" width="5.4" height="5.4"/>
	<rect x="69.1" y="61.5" class="st2" width="5.4" height="5.4"/>
	<rect x="74.5" y="61.5" class="st7" width="5.4" height="5.4"/>
	<rect x="79.8" y="61.5" class="st7" width="5.4" height="5.4"/>
	<rect x="85.2" y="61.5" class="st6" width="5.4" height="5.4"/>
	<rect x="90.6" y="61.5" class="st4" width="5.4" height="5.4"/>
	<rect x="96" y="61.5" class="st4" width="5.4" height="5.4"/>
	<rect x="101.4" y="61.5" class="st4" width="5.4" height="5.4"/>
	<rect x="106.8" y="61.5" class="st6" width="5.4" height="5.4"/>
	<rect x="112.2" y="61.5" class="st7" width="5.4" height="5.4"/>
	<rect x="117.5" y="61.5" class="st7" width="5.4" height="5.4"/>
	<rect x="122.9" y="61.5" class="st2" width="5.4" height="5.4"/>
	<rect x="128.3" y="61.5" class="st6" width="5.4" height="5.4"/>
	<rect x="133.7" y="61.5" class="st3" width="5.4" height="5.4"/>
	<rect x="139.1" y="61.5" class="st2" width="5.4" height="5.4"/>
	<rect x="144.5" y="61.5" class="st0" width="5.4" height="5.4"/>
	<rect x="47.5" y="66.9" class="st0" width="5.4" height="5.4"/>
	<rect x="52.9" y="66.9" class="st2" width="5.4" height="5.4"/>
	<rect x="58.3" y="66.9" class="st8" width="5.4" height="5.4"/>
	<rect x="63.7" y="66.9" class="st2" width="5.4" height="5.4"/>
	<rect x="69.1" y="66.9" class="st9" width="5.4" height="5.4"/>
	<rect x="74.5" y="66.9" class="st10" width="5.4" height="5.4"/>
	<rect x="79.8" y="66.9" class="st10" width="5.4" height="5.4"/>
	<rect x="85.2" y="66.9" class="st7" width="5.4" height="5.4"/>
	<rect x="90.6" y="66.9" class="st8" width="5.4" height="5.4"/>
	<rect x="96" y="66.9" class="st4" width="5.4" height="5.4"/>
	<rect x="101.4" y="66.9" class="st8" width="5.4" height="5.4"/>
	<rect x="106.8" y="66.9" class="st7" width="5.4" height="5.4"/>
	<rect x="112.2" y="66.9" class="st10" width="5.4" height="5.4"/>
	<rect x="117.5" y="66.9" class="st10" width="5.4" height="5.4"/>
	<rect x="122.9" y="66.9" class="st9" width="5.4" height="5.4"/>
	<rect x="128.3" y="66.9" class="st2" width="5.4" height="5.4"/>
	<rect x="133.7" y="66.9" class="st8" width="5.4" height="5.4"/>
	<rect x="139.1" y="66.9" class="st1" width="5.4" height="5.4"/>
	<rect x="144.5" y="66.9" class="st0" width="5.4" height="5.4"/>
	<rect x="160.6" y="66.9" class="st0" width="5.4" height="5.4"/>
	<rect x="36.7" y="72.3" class="st0" width="5.4" height="5.4"/>
	<rect x="47.5" y="72.3" class="st0" width="5.4" height="5.4"/>
	<rect x="52.9" y="72.3" class="st1" width="5.4" height="5.4"/>
	<rect x="58.3" y="72.3" class="st11" width="5.4" height="5.4"/>
	<rect x="63.7" y="72.3" class="st9" width="5.4" height="5.4"/>
	<rect x="69.1" y="72.3" class="st10" width="5.4" height="5.4"/>
	<rect x="74.5" y="72.3" class="st12" width="5.4" height="5.4"/>
	<rect x="79.8" y="72.3" class="st13" width="5.4" height="5.4"/>
	<rect x="85.2" y="72.3" class="st13" width="5.4" height="5.4"/>
	<rect x="90.6" y="72.3" class="st7" width="5.4" height="5.4"/>
	<rect x="96" y="72.3" class="st8" width="5.4" height="5.4"/>
	<rect x="101.4" y="72.3" class="st7" width="5.4" height="5.4"/>
	<rect x="106.8" y="72.3" class="st13" width="5.4" height="5.4"/>
	<rect x="112.2" y="72.3" class="st13" width="5.4" height="5.4"/>
	<rect x="117.5" y="72.3" class="st12" width="5.4" height="5.4"/>
	<rect x="122.9" y="72.3" class="st10" width="5.4" height="5.4"/>
	<rect x="128.3" y="72.3" class="st9" width="5.4" height="5.4"/>
	<rect x="133.7" y="72.3" class="st11" width="5.4" height="5.4"/>
	<rect x="139.1" y="72.3" class="st2" width="5.4" height="5.4"/>
	<rect x="144.5" y="72.3" class="st0" width="5.4" height="5.4"/>
	<rect x="155.3" y="72.3" class="st0" width="5.4" height="5.4"/>
	<rect x="160.6" y="72.3" class="st14" width="5.4" height="5.4"/>
	<rect x="166" y="72.3" class="st0" width="5.4" height="5.4"/>
	<rect x="31.4" y="77.6" class="st0" width="5.4" height="5.4"/>
	<rect x="36.7" y="77.6" class="st14" width="5.4" height="5.4"/>
	<rect x="42.1" y="77.6" class="st0" width="5.4" height="5.4"/>
	<rect x="47.5" y="77.6" class="st0" width="5.4" height="5.4"/>
	<rect x="52.9" y="77.6" class="st1" width="5.4" height="5.4"/>
	<rect x="58.3" y="77.6" class="st11" width="5.4" height="5.4"/>
	<rect x="63.7" y="77.6" class="st9" width="5.4" height="5.4"/>
	<rect x="69.1" y="77.6" class="st10" width="5.4" height="5.4"/>
	<rect x="74.5" y="77.6" class="st13" width="5.4" height="5.4"/>
	<rect x="79.8" y="77.6" class="st15" width="5.4" height="5.4"/>
	<rect x="85.2" y="77.6" class="st15" width="5.4" height="5.4"/>
	<rect x="90.6" y="77.6" class="st2" width="5.4" height="5.4"/>
	<rect x="96" y="77.6" class="st8" width="5.4" height="5.4"/>
	<rect x="101.4" y="77.6" class="st2" width="5.4" height="5.4"/>
	<rect x="106.8" y="77.6" class="st15" width="5.4" height="5.4"/>
	<rect x="112.2" y="77.6" class="st15" width="5.4" height="5.4"/>
	<rect x="117.5" y="77.6" class="st13" width="5.4" height="5.4"/>
	<rect x="122.9" y="77.6" class="st10" width="5.4" height="5.4"/>
	<rect x="128.3" y="77.6" class="st9" width="5.4" height="5.4"/>
	<rect x="133.7" y="77.6" class="st11" width="5.4" height="5.4"/>
	<rect x="139.1" y="77.6" class="st1" width="5.4" height="5.4"/>
	<rect x="144.5" y="77.6" class="st0" width="5.4" height="5.4"/>
	<rect x="160.6" y="77.6" class="st0" width="5.4" height="5.4"/>
	<rect x="166" y="77.6" class="st16" width="5.4" height="5.4"/>
	<rect x="171.4" y="77.6" class="st0" width="5.4" height="5.4"/>
	<rect x="26" y="83" class="st0" width="5.4" height="5.4"/>
	<rect x="31.4" y="83" class="st16" width="5.4" height="5.4"/>
	<rect x="36.7" y="83" class="st0" width="5.4" height="5.4"/>
	<rect x="47.5" y="83" class="st0" width="5.4" height="5.4"/>
	<rect x="52.9" y="83" class="st1" width="5.4" height="5.4"/>
	<rect x="58.3" y="83" class="st11" width="5.4" height="5.4"/>
	<rect x="63.7" y="83" class="st9" width="5.4" height="5.4"/>
	<rect x="69.1" y="83" class="st10" width="5.4" height="5.4"/>
	<rect x="74.5" y="83" class="st13" width="5.4" height="5.4"/>
	<rect x="79.8" y="83" class="st15" width="5.4" height="5.4"/>
	<rect x="85.2" y="83" class="st17" width="5.4" height="5.4"/>
	<rect x="90.6" y="83" class="st2" width="5.4" height="5.4"/>
	<rect x="96" y="83" class="st8" width="5.4" height="5.4"/>
	<rect x="101.4" y="83" class="st2" width="5.4" height="5.4"/>
	<rect x="106.8" y="83" class="st17" width="5.4" height="5.4"/>
	<rect x="112.2" y="83" class="st15" width="5.4" height="5.4"/>
	<rect x="117.5" y="83" class="st13" width="5.4" height="5.4"/>
	<rect x="122.9" y="83" class="st10" width="5.4" height="5.4"/>
	<rect x="128.3" y="83" class="st9" width="5.4" height="5.4"/>
	<rect x="133.7" y="83" class="st11" width="5.4" height="5.4"/>
	<rect x="139.1" y="83" class="st1" width="5.4" height="5.4"/>
	<rect x="144.5" y="83" class="st0" width="5.4" height="5.4"/>
	<rect x="155.3" y="83" class="st0" width="5.4" height="5.4"/>
	<rect x="160.6" y="83" class="st1" width="5.4" height="5.4"/>
	<rect x="166" y="83" class="st16" width="5.4" height="5.4"/>
	<rect x="171.4" y="83" class="st0" width="5.4" height="5.4"/>
	<rect x="26" y="88.4" class="st0" width="5.4" height="5.4"/>
	<rect x="31.4" y="88.4" class="st16" width="5.4" height="5.4"/>
	<rect x="36.7" y="88.4" class="st1" width="5.4" height="5.4"/>
	<rect x="42.1" y="88.4" class="st0" width="5.4" height="5.4"/>
	<rect x="47.5" y="88.4" class="st0" width="5.4" height="5.4"/>
	<rect x="52.9" y="88.4" class="st1" width="5.4" height="5.4"/>
	<rect x="58.3" y="88.4" class="st4" width="5.4" height="5.4"/>
	<rect x="63.7" y="88.4" class="st2" width="5.4" height="5.4"/>
	<rect x="69.1" y="88.4" class="st9" width="5.4" height="5.4"/>
	<rect x="74.5" y="88.4" class="st10" width="5.4" height="5.4"/>
	<rect x="79.8" y="88.4" class="st10" width="5.4" height="5.4"/>
	<rect x="85.2" y="88.4" class="st2" width="5.4" height="5.4"/>
	<rect x="90.6" y="88.4" class="st8" width="5.4" height="5.4"/>
	<rect x="96" y="88.4" class="st8" width="5.4" height="5.4"/>
	<rect x="101.4" y="88.4" class="st8" width="5.4" height="5.4"/>
	<rect x="106.8" y="88.4" class="st2" width="5.4" height="5.4"/>
	<rect x="112.2" y="88.4" class="st10" width="5.4" height="5.4"/>
	<rect x="117.5" y="88.4" class="st10" width="5.4" height="5.4"/>
	<rect x="122.9" y="88.4" class="st9" width="5.4" height="5.4"/>
	<rect x="128.3" y="88.4" class="st2" width="5.4" height="5.4"/>
	<rect x="133.7" y="88.4" class="st4" width="5.4" height="5.4"/>
	<rect x="139.1" y="88.4" class="st1" width="5.4" height="5.4"/>
	<rect x="144.5" y="88.4" class="st0" width="5.4" height="5.4"/>
	<rect x="149.9" y="88.4" class="st0" width="5.4" height="5.4"/>
	<rect x="155.3" y="88.4" class="st1" width="5.4" height="5.4"/>
	<rect x="160.6" y="88.4" class="st4" width="5.4" height="5.4"/>
	<rect x="166" y="88.4" class="st1" width="5.4" height="5.4"/>
	<rect x="171.4" y="88.4" class="st0" width="5.4" height="5.4"/>
	<rect x="20.6" y="93.8" class="st0" width="5.4" height="5.4"/>
	<rect x="26" y="93.8" class="st7" width="5.4" height="5.4"/>
	<rect x="31.4" y="93.8" class="st1" width="5.4" height="5.4"/>
	<rect x="36.7" y="93.8" class="st4" width="5.4" height="5.4"/>
	<rect x="42.1" y="93.8" class="st1" width="5.4" height="5.4"/>
	<rect x="47.5" y="93.8" class="st0" width="5.4" height="5.4"/>
	<rect x="52.9" y="93.8" class="st0" width="5.4" height="5.4"/>
	<rect x="58.3" y="93.8" class="st2" width="5.4" height="5.4"/>
	<rect x="63.7" y="93.8" class="st6" width="5.4" height="5.4"/>
	<rect x="69.1" y="93.8" class="st2" width="5.4" height="5.4"/>
	<rect x="74.5" y="93.8" class="st2" width="5.4" height="5.4"/>
	<rect x="79.8" y="93.8" class="st18" width="5.4" height="5.4"/>
	<rect x="85.2" y="93.8" class="st19" width="5.4" height="5.4"/>
	<rect x="90.6" y="93.8" class="st8" width="5.4" height="5.4"/>
	<rect x="96" y="93.8" class="st8" width="5.4" height="5.4"/>
	<rect x="101.4" y="93.8" class="st8" width="5.4" height="5.4"/>
	<rect x="106.8" y="93.8" class="st19" width="5.4" height="5.4"/>
	<rect x="112.2" y="93.8" class="st18" width="5.4" height="5.4"/>
	<rect x="117.5" y="93.8" class="st2" width="5.4" height="5.4"/>
	<rect x="122.9" y="93.8" class="st2" width="5.4" height="5.4"/>
	<rect x="128.3" y="93.8" class="st6" width="5.4" height="5.4"/>
	<rect x="133.7" y="93.8" class="st2" width="5.4" height="5.4"/>
	<rect x="139.1" y="93.8" class="st4" width="5.4" height="5.4"/>
	<rect x="144.5" y="93.8" class="st1" width="5.4" height="5.4"/>
	<rect x="149.9" y="93.8" class="st2" width="5.4" height="5.4"/>
	<rect x="155.3" y="93.8" class="st4" width="5.4" height="5.4"/>
	<rect x="160.6" y="93.8" class="st2" width="5.4" height="5.4"/>
	<rect x="166" y="93.8" class="st20" width="5.4" height="5.4"/>
	<rect x="171.4" y="93.8" class="st0" width="5.4" height="5.4"/>
	<rect x="15.2" y="99.2" class="st0" width="5.4" height="5.4"/>
	<rect x="20.6" y="99.2" class="st7" width="5.4" height="5.4"/>
	<rect x="26" y="99.2" class="st0" width="5.4" height="5.4"/>
	<rect x="31.4" y="99.2" class="st1" width="5.4" height="5.4"/>
	<rect x="36.7" y="99.2" class="st4" width="5.4" height="5.4"/>
	<rect x="42.1" y="99.2" class="st4" width="5.4" height="5.4"/>
	<rect x="47.5" y="99.2" class="st1" width="5.4" height="5.4"/>
	<rect x="52.9" y="99.2" class="st2" width="5.4" height="5.4"/>
	<rect x="58.3" y="99.2" class="st1" width="5.4" height="5.4"/>
	<rect x="63.7" y="99.2" class="st4" width="5.4" height="5.4"/>
	<rect x="69.1" y="99.2" class="st8" width="5.4" height="5.4"/>
	<rect x="74.5" y="99.2" class="st8" width="5.4" height="5.4"/>
	<rect x="79.8" y="99.2" class="st8" width="5.4" height="5.4"/>
	<rect x="85.2" y="99.2" class="st8" width="5.4" height="5.4"/>
	<rect x="90.6" y="99.2" class="st2" width="5.4" height="5.4"/>
	<rect x="96" y="99.2" class="st21" width="5.4" height="5.4"/>
	<rect x="101.4" y="99.2" class="st2" width="5.4" height="5.4"/>
	<rect x="106.8" y="99.2" class="st8" width="5.4" height="5.4"/>
	<rect x="112.2" y="99.2" class="st8" width="5.4" height="5.4"/>
	<rect x="117.5" y="99.2" class="st8" width="5.4" height="5.4"/>
	<rect x="122.9" y="99.2" class="st8" width="5.4" height="5.4"/>
	<rect x="128.3" y="99.2" class="st4" width="5.4" height="5.4"/>
	<rect x="133.7" y="99.2" class="st1" width="5.4" height="5.4"/>
	<rect x="139.1" y="99.2" class="st4" width="5.4" height="5.4"/>
	<rect x="144.5" y="99.2" class="st4" width="5.4" height="5.4"/>
	<rect x="149.9" y="99.2" class="st4" width="5.4" height="5.4"/>
	<rect x="155.3" y="99.2" class="st2" width="5.4" height="5.4"/>
	<rect x="160.6" y="99.2" class="st14" width="5.4" height="5.4"/>
	<rect x="166" y="99.2" class="st1" width="5.4" height="5.4"/>
	<rect x="171.4" y="99.2" class="st0" width="5.4" height="5.4"/>
	<rect x="15.2" y="104.6" class="st0" width="5.4" height="5.4"/>
	<rect x="20.6" y="104.6" class="st2" width="5.4" height="5.4"/>
	<rect x="26" y="104.6" class="st0" width="5.4" height="5.4"/>
	<rect x="31.4" y="104.6" class="st20" width="5.4" height="5.4"/>
	<rect x="36.7" y="104.6" class="st2" width="5.4" height="5.4"/>
	<rect x="42.1" y="104.6" class="st4" width="5.4" height="5.4"/>
	<rect x="47.5" y="104.6" class="st4" width="5.4" height="5.4"/>
	<rect x="52.9" y="104.6" class="st4" width="5.4" height="5.4"/>
	<rect x="58.3" y="104.6" class="st4" width="5.4" height="5.4"/>
	<rect x="63.7" y="104.6" class="st1" width="5.4" height="5.4"/>
	<rect x="69.1" y="104.6" class="st4" width="5.4" height="5.4"/>
	<rect x="74.5" y="104.6" class="st4" width="5.4" height="5.4"/>
	<rect x="79.8" y="104.6" class="st8" width="5.4" height="5.4"/>
	<rect x="85.2" y="104.6" class="st8" width="5.4" height="5.4"/>
	<rect x="90.6" y="104.6" class="st8" width="5.4" height="5.4"/>
	<rect x="96" y="104.6" class="st2" width="5.4" height="5.4"/>
	<rect x="101.4" y="104.6" class="st8" width="5.4" height="5.4"/>
	<rect x="106.8" y="104.6" class="st8" width="5.4" height="5.4"/>
	<rect x="112.2" y="104.6" class="st8" width="5.4" height="5.4"/>
	<rect x="117.5" y="104.6" class="st4" width="5.4" height="5.4"/>
	<rect x="122.9" y="104.6" class="st4" width="5.4" height="5.4"/>
	<rect x="128.3" y="104.6" class="st1" width="5.4" height="5.4"/>
	<rect x="133.7" y="104.6" class="st4" width="5.4" height="5.4"/>
	<rect x="139.1" y="104.6" class="st4" width="5.4" height="5.4"/>
	<rect x="144.5" y="104.6" class="st4" width="5.4" height="5.4"/>
	<rect x="149.9" y="104.6" class="st4" width="5.4" height="5.4"/>
	<rect x="155.3" y="104.6" class="st1" width="5.4" height="5.4"/>
	<rect x="160.6" y="104.6" class="st20" width="5.4" height="5.4"/>
	<rect x="166" y="104.6" class="st16" width="5.4" height="5.4"/>
	<rect x="171.4" y="104.6" class="st16" width="5.4" height="5.4"/>
	<rect x="176.8" y="104.6" class="st0" width="5.4" height="5.4"/>
	<rect x="20.6" y="110" class="st0" width="5.4" height="5.4"/>
	<rect x="26" y="110" class="st2" width="5.4" height="5.4"/>
	<rect x="31.4" y="110" class="st7" width="5.4" height="5.4"/>
	<rect x="36.7" y="110" class="st22" width="5.4" height="5.4"/>
	<rect x="42.1" y="110" class="st1" width="5.4" height="5.4"/>
	<rect x="47.5" y="110" class="st3" width="5.4" height="5.4"/>
	<rect x="52.9" y="110" class="st4" width="5.4" height="5.4"/>
	<rect x="58.3" y="110" class="st4" width="5.4" height="5.4"/>
	<rect x="63.7" y="110" class="st4" width="5.4" height="5.4"/>
	<rect x="69.1" y="110" class="st2" width="5.4" height="5.4"/>
	<rect x="74.5" y="110" class="st4" width="5.4" height="5.4"/>
	<rect x="79.8" y="110" class="st4" width="5.4" height="5.4"/>
	<rect x="85.2" y="110" class="st4" width="5.4" height="5.4"/>
	<rect x="90.6" y="110" class="st8" width="5.4" height="5.4"/>
	<rect x="96" y="110" class="st8" width="5.4" height="5.4"/>
	<rect x="101.4" y="110" class="st8" width="5.4" height="5.4"/>
	<rect x="106.8" y="110" class="st4" width="5.4" height="5.4"/>
	<rect x="112.2" y="110" class="st4" width="5.4" height="5.4"/>
	<rect x="117.5" y="110" class="st4" width="5.4" height="5.4"/>
	<rect x="122.9" y="110" class="st2" width="5.4" height="5.4"/>
	<rect x="128.3" y="110" class="st4" width="5.4" height="5.4"/>
	<rect x="133.7" y="110" class="st1" width="5.4" height="5.4"/>
	<rect x="139.1" y="110" class="st2" width="5.4" height="5.4"/>
	<rect x="144.5" y="110" class="st1" width="5.4" height="5.4"/>
	<rect x="149.9" y="110" class="st1" width="5.4" height="5.4"/>
	<rect x="155.3" y="110" class="st23" width="5.4" height="5.4"/>
	<rect x="160.6" y="110" class="st1" width="5.4" height="5.4"/>
	<rect x="166" y="110" class="st4" width="5.4" height="5.4"/>
	<rect x="171.4" y="110" class="st1" width="5.4" height="5.4"/>
	<rect x="176.8" y="110" class="st0" width="5.4" height="5.4"/>
	<rect x="26" y="115.4" class="st0" width="5.4" height="5.4"/>
	<rect x="31.4" y="115.4" class="st7" width="5.4" height="5.4"/>
	<rect x="36.7" y="115.4" class="st7" width="5.4" height="5.4"/>
	<rect x="42.1" y="115.4" class="st20" width="5.4" height="5.4"/>
	<rect x="47.5" y="115.4" class="st2" width="5.4" height="5.4"/>
	<rect x="52.9" y="115.4" class="st1" width="5.4" height="5.4"/>
	<rect x="58.3" y="115.4" class="st1" width="5.4" height="5.4"/>
	<rect x="63.7" y="115.4" class="st2" width="5.4" height="5.4"/>
	<rect x="69.1" y="115.4" class="st4" width="5.4" height="5.4"/>
	<rect x="74.5" y="115.4" class="st4" width="5.4" height="5.4"/>
	<rect x="79.8" y="115.4" class="st2" width="5.4" height="5.4"/>
	<rect x="85.2" y="115.4" class="st4" width="5.4" height="5.4"/>
	<rect x="90.6" y="115.4" class="st2" width="5.4" height="5.4"/>
	<rect x="96" y="115.4" class="st4" width="5.4" height="5.4"/>
	<rect x="101.4" y="115.4" class="st4" width="5.4" height="5.4"/>
	<rect x="106.8" y="115.4" class="st4" width="5.4" height="5.4"/>
	<rect x="112.2" y="115.4" class="st2" width="5.4" height="5.4"/>
	<rect x="117.5" y="115.4" class="st4" width="5.4" height="5.4"/>
	<rect x="122.9" y="115.4" class="st4" width="5.4" height="5.4"/>
	<rect x="128.3" y="115.4" class="st4" width="5.4" height="5.4"/>
	<rect x="133.7" y="115.4" class="st2" width="5.4" height="5.4"/>
	<rect x="139.1" y="115.4" class="st20" width="5.4" height="5.4"/>
	<rect x="144.5" y="115.4" class="st23" width="5.4" height="5.4"/>
	<rect x="149.9" y="115.4" class="st20" width="5.4" height="5.4"/>
	<rect x="155.3" y="115.4" class="st2" width="5.4" height="5.4"/>
	<rect x="160.6" y="115.4" class="st2" width="5.4" height="5.4"/>
	<rect x="166" y="115.4" class="st4" width="5.4" height="5.4"/>
	<rect x="171.4" y="115.4" class="st1" width="5.4" height="5.4"/>
	<rect x="176.8" y="115.4" class="st0" width="5.4" height="5.4"/>
	<rect x="20.6" y="120.7" class="st0" width="5.4" height="5.4"/>
	<rect x="26" y="120.7" class="st14" width="5.4" height="5.4"/>
	<rect x="31.4" y="120.7" class="st24" width="5.4" height="5.4"/>
	<rect x="36.7" y="120.7" class="st25" width="5.4" height="5.4"/>
	<rect x="42.1" y="120.7" class="st25" width="5.4" height="5.4"/>
	<rect x="47.5" y="120.7" class="st23" width="5.4" height="5.4"/>
	<rect x="52.9" y="120.7" class="st20" width="5.4" height="5.4"/>
	<rect x="58.3" y="120.7" class="st23" width="5.4" height="5.4"/>
	<rect x="63.7" y="120.7" class="st1" width="5.4" height="5.4"/>
	<rect x="69.1" y="120.7" class="st4" width="5.4" height="5.4"/>
	<rect x="74.5" y="120.7" class="st4" width="5.4" height="5.4"/>
	<rect x="79.8" y="120.7" class="st4" width="5.4" height="5.4"/>
	<rect x="85.2" y="120.7" class="st11" width="5.4" height="5.4"/>
	<rect x="90.6" y="120.7" class="st4" width="5.4" height="5.4"/>
	<rect x="96" y="120.7" class="st4" width="5.4" height="5.4"/>
	<rect x="101.4" y="120.7" class="st4" width="5.4" height="5.4"/>
	<rect x="106.8" y="120.7" class="st2" width="5.4" height="5.4"/>
	<rect x="112.2" y="120.7" class="st23" width="5.4" height="5.4"/>
	<rect x="117.5" y="120.7" class="st2" width="5.4" height="5.4"/>
	<rect x="122.9" y="120.7" class="st4" width="5.4" height="5.4"/>
	<rect x="128.3" y="120.7" class="st3" width="5.4" height="5.4"/>
	<rect x="133.7" y="120.7" class="st4" width="5.4" height="5.4"/>
	<rect x="139.1" y="120.7" class="st2" width="5.4" height="5.4"/>
	<rect x="144.5" y="120.7" class="st2" width="5.4" height="5.4"/>
	<rect x="149.9" y="120.7" class="st2" width="5.4" height="5.4"/>
	<rect x="155.3" y="120.7" class="st2" width="5.4" height="5.4"/>
	<rect x="160.6" y="120.7" class="st4" width="5.4" height="5.4"/>
	<rect x="166" y="120.7" class="st4" width="5.4" height="5.4"/>
	<rect x="171.4" y="120.7" class="st2" width="5.4" height="5.4"/>
	<rect x="176.8" y="120.7" class="st0" width="5.4" height="5.4"/>
	<rect x="15.2" y="126.1" class="st0" width="5.4" height="5.4"/>
	<rect x="20.6" y="126.1" class="st16" width="5.4" height="5.4"/>
	<rect x="26" y="126.1" class="st1" width="5.4" height="5.4"/>
	<rect x="31.4" y="126.1" class="st0" width="5.4" height="5.4"/>
	<rect x="36.7" y="126.1" class="st25" width="5.4" height="5.4"/>
	<rect x="42.1" y="126.1" class="st24" width="5.4" height="5.4"/>
	<rect x="47.5" y="126.1" class="st25" width="5.4" height="5.4"/>
	<rect x="52.9" y="126.1" class="st25" width="5.4" height="5.4"/>
	<rect x="58.3" y="126.1" class="st25" width="5.4" height="5.4"/>
	<rect x="63.7" y="126.1" class="st2" width="5.4" height="5.4"/>
	<rect x="69.1" y="126.1" class="st4" width="5.4" height="5.4"/>
	<rect x="74.5" y="126.1" class="st4" width="5.4" height="5.4"/>
	<rect x="79.8" y="126.1" class="st4" width="5.4" height="5.4"/>
	<rect x="85.2" y="126.1" class="st2" width="5.4" height="5.4"/>
	<rect x="90.6" y="126.1" class="st4" width="5.4" height="5.4"/>
	<rect x="96" y="126.1" class="st4" width="5.4" height="5.4"/>
	<rect x="101.4" y="126.1" class="st4" width="5.4" height="5.4"/>
	<rect x="106.8" y="126.1" class="st2" width="5.4" height="5.4"/>
	<rect x="112.2" y="126.1" class="st20" width="5.4" height="5.4"/>
	<rect x="117.5" y="126.1" class="st1" width="5.4" height="5.4"/>
	<rect x="122.9" y="126.1" class="st4" width="5.4" height="5.4"/>
	<rect x="128.3" y="126.1" class="st4" width="5.4" height="5.4"/>
	<rect x="133.7" y="126.1" class="st4" width="5.4" height="5.4"/>
	<rect x="139.1" y="126.1" class="st4" width="5.4" height="5.4"/>
	<rect x="144.5" y="126.1" class="st4" width="5.4" height="5.4"/>
	<rect x="149.9" y="126.1" class="st4" width="5.4" height="5.4"/>
	<rect x="155.3" y="126.1" class="st4" width="5.4" height="5.4"/>
	<rect x="160.6" y="126.1" class="st4" width="5.4" height="5.4"/>
	<rect x="166" y="126.1" class="st2" width="5.4" height="5.4"/>
	<rect x="171.4" y="126.1" class="st20" width="5.4" height="5.4"/>
	<rect x="176.8" y="126.1" class="st0" width="5.4" height="5.4"/>
	<rect x="15.2" y="131.5" class="st0" width="5.4" height="5.4"/>
	<rect x="20.6" y="131.5" class="st16" width="5.4" height="5.4"/>
	<rect x="26" y="131.5" class="st4" width="5.4" height="5.4"/>
	<rect x="31.4" y="131.5" class="st1" width="5.4" height="5.4"/>
	<rect x="36.7" y="131.5" class="st0" width="5.4" height="5.4"/>
	<rect x="42.1" y="131.5" class="st0" width="5.4" height="5.4"/>
	<rect x="47.5" y="131.5" class="st25" width="5.4" height="5.4"/>
	<rect x="52.9" y="131.5" class="st24" width="5.4" height="5.4"/>
	<rect x="58.3" y="131.5" class="st2" width="5.4" height="5.4"/>
	<rect x="63.7" y="131.5" class="st4" width="5.4" height="5.4"/>
	<rect x="69.1" y="131.5" class="st3" width="5.4" height="5.4"/>
	<rect x="74.5" y="131.5" class="st4" width="5.4" height="5.4"/>
	<rect x="79.8" y="131.5" class="st4" width="5.4" height="5.4"/>
	<rect x="85.2" y="131.5" class="st1" width="5.4" height="5.4"/>
	<rect x="90.6" y="131.5" class="st4" width="5.4" height="5.4"/>
	<rect x="96" y="131.5" class="st4" width="5.4" height="5.4"/>
	<rect x="101.4" y="131.5" class="st3" width="5.4" height="5.4"/>
	<rect x="106.8" y="131.5" class="st2" width="5.4" height="5.4"/>
	<rect x="112.2" y="131.5" class="st23" width="5.4" height="5.4"/>
	<rect x="117.5" y="131.5" class="st20" width="5.4" height="5.4"/>
	<rect x="122.9" y="131.5" class="st1" width="5.4" height="5.4"/>
	<rect x="128.3" y="131.5" class="st1" width="5.4" height="5.4"/>
	<rect x="133.7" y="131.5" class="st4" width="5.4" height="5.4"/>
	<rect x="139.1" y="131.5" class="st4" width="5.4" height="5.4"/>
	<rect x="144.5" y="131.5" class="st3" width="5.4" height="5.4"/>
	<rect x="149.9" y="131.5" class="st3" width="5.4" height="5.4"/>
	<rect x="155.3" y="131.5" class="st3" width="5.4" height="5.4"/>
	<rect x="160.6" y="131.5" class="st1" width="5.4" height="5.4"/>
	<rect x="166" y="131.5" class="st22" width="5.4" height="5.4"/>
	<rect x="171.4" y="131.5" class="st0" width="5.4" height="5.4"/>
	<rect x="15.2" y="136.9" class="st0" width="5.4" height="5.4"/>
	<rect x="20.6" y="136.9" class="st1" width="5.4" height="5.4"/>
	<rect x="26" y="136.9" class="st4" width="5.4" height="5.4"/>
	<rect x="31.4" y="136.9" class="st4" width="5.4" height="5.4"/>
	<rect x="36.7" y="136.9" class="st1" width="5.4" height="5.4"/>
	<rect x="42.1" y="136.9" class="st1" width="5.4" height="5.4"/>
	<rect x="47.5" y="136.9" class="st1" width="5.4" height="5.4"/>
	<rect x="52.9" y="136.9" class="st2" width="5.4" height="5.4"/>
	<rect x="58.3" y="136.9" class="st4" width="5.4" height="5.4"/>
	<rect x="63.7" y="136.9" class="st4" width="5.4" height="5.4"/>
	<rect x="69.1" y="136.9" class="st4" width="5.4" height="5.4"/>
	<rect x="74.5" y="136.9" class="st4" width="5.4" height="5.4"/>
	<rect x="79.8" y="136.9" class="st2" width="5.4" height="5.4"/>
	<rect x="85.2" y="136.9" class="st4" width="5.4" height="5.4"/>
	<rect x="90.6" y="136.9" class="st4" width="5.4" height="5.4"/>
	<rect x="96" y="136.9" class="st4" width="5.4" height="5.4"/>
	<rect x="101.4" y="136.9" class="st2" width="5.4" height="5.4"/>
	<rect x="106.8" y="136.9" class="st20" width="5.4" height="5.4"/>
	<rect x="112.2" y="136.9" class="st25" width="5.4" height="5.4"/>
	<rect x="117.5" y="136.9" class="st25" width="5.4" height="5.4"/>
	<rect x="122.9" y="136.9" class="st23" width="5.4" height="5.4"/>
	<rect x="128.3" y="136.9" class="st20" width="5.4" height="5.4"/>
	<rect x="133.7" y="136.9" class="st2" width="5.4" height="5.4"/>
	<rect x="139.1" y="136.9" class="st2" width="5.4" height="5.4"/>
	<rect x="144.5" y="136.9" class="st1" width="5.4" height="5.4"/>
	<rect x="149.9" y="136.9" class="st1" width="5.4" height="5.4"/>
	<rect x="155.3" y="136.9" class="st1" width="5.4" height="5.4"/>
	<rect x="160.6" y="136.9" class="st20" width="5.4" height="5.4"/>
	<rect x="166" y="136.9" class="st0" width="5.4" height="5.4"/>
	<rect x="171.4" y="136.9" class="st7" width="5.4" height="5.4"/>
	<rect x="176.8" y="136.9" class="st0" width="5.4" height="5.4"/>
	<rect x="15.2" y="142.3" class="st0" width="5.4" height="5.4"/>
	<rect x="20.6" y="142.3" class="st22" width="5.4" height="5.4"/>
	<rect x="26" y="142.3" class="st2" width="5.4" height="5.4"/>
	<rect x="31.4" y="142.3" class="st4" width="5.4" height="5.4"/>
	<rect x="36.7" y="142.3" class="st4" width="5.4" height="5.4"/>
	<rect x="42.1" y="142.3" class="st4" width="5.4" height="5.4"/>
	<rect x="47.5" y="142.3" class="st4" width="5.4" height="5.4"/>
	<rect x="52.9" y="142.3" class="st4" width="5.4" height="5.4"/>
	<rect x="58.3" y="142.3" class="st4" width="5.4" height="5.4"/>
	<rect x="63.7" y="142.3" class="st4" width="5.4" height="5.4"/>
	<rect x="69.1" y="142.3" class="st4" width="5.4" height="5.4"/>
	<rect x="74.5" y="142.3" class="st2" width="5.4" height="5.4"/>
	<rect x="79.8" y="142.3" class="st23" width="5.4" height="5.4"/>
	<rect x="85.2" y="142.3" class="st2" width="5.4" height="5.4"/>
	<rect x="90.6" y="142.3" class="st4" width="5.4" height="5.4"/>
	<rect x="96" y="142.3" class="st4" width="5.4" height="5.4"/>
	<rect x="101.4" y="142.3" class="st2" width="5.4" height="5.4"/>
	<rect x="106.8" y="142.3" class="st23" width="5.4" height="5.4"/>
	<rect x="112.2" y="142.3" class="st24" width="5.4" height="5.4"/>
	<rect x="117.5" y="142.3" class="st25" width="5.4" height="5.4"/>
	<rect x="122.9" y="142.3" class="st25" width="5.4" height="5.4"/>
	<rect x="128.3" y="142.3" class="st25" width="5.4" height="5.4"/>
	<rect x="133.7" y="142.3" class="st22" width="5.4" height="5.4"/>
	<rect x="139.1" y="142.3" class="st20" width="5.4" height="5.4"/>
	<rect x="144.5" y="142.3" class="st22" width="5.4" height="5.4"/>
	<rect x="149.9" y="142.3" class="st20" width="5.4" height="5.4"/>
	<rect x="155.3" y="142.3" class="st22" width="5.4" height="5.4"/>
	<rect x="160.6" y="142.3" class="st7" width="5.4" height="5.4"/>
	<rect x="166" y="142.3" class="st2" width="5.4" height="5.4"/>
	<rect x="171.4" y="142.3" class="st0" width="5.4" height="5.4"/>
	<rect x="9.8" y="147.7" class="st0" width="5.4" height="5.4"/>
	<rect x="15.2" y="147.7" class="st7" width="5.4" height="5.4"/>
	<rect x="20.6" y="147.7" class="st0" width="5.4" height="5.4"/>
	<rect x="26" y="147.7" class="st20" width="5.4" height="5.4"/>
	<rect x="31.4" y="147.7" class="st2" width="5.4" height="5.4"/>
	<rect x="36.7" y="147.7" class="st2" width="5.4" height="5.4"/>
	<rect x="42.1" y="147.7" class="st6" width="5.4" height="5.4"/>
	<rect x="47.5" y="147.7" class="st4" width="5.4" height="5.4"/>
	<rect x="52.9" y="147.7" class="st4" width="5.4" height="5.4"/>
	<rect x="58.3" y="147.7" class="st4" width="5.4" height="5.4"/>
	<rect x="63.7" y="147.7" class="st2" width="5.4" height="5.4"/>
	<rect x="69.1" y="147.7" class="st1" width="5.4" height="5.4"/>
	<rect x="74.5" y="147.7" class="st20" width="5.4" height="5.4"/>
	<rect x="79.8" y="147.7" class="st25" width="5.4" height="5.4"/>
	<rect x="85.2" y="147.7" class="st1" width="5.4" height="5.4"/>
	<rect x="90.6" y="147.7" class="st4" width="5.4" height="5.4"/>
	<rect x="96" y="147.7" class="st4" width="5.4" height="5.4"/>
	<rect x="101.4" y="147.7" class="st2" width="5.4" height="5.4"/>
	<rect x="106.8" y="147.7" class="st20" width="5.4" height="5.4"/>
	<rect x="112.2" y="147.7" class="st2" width="5.4" height="5.4"/>
	<rect x="117.5" y="147.7" class="st20" width="5.4" height="5.4"/>
	<rect x="122.9" y="147.7" class="st16" width="5.4" height="5.4"/>
	<rect x="128.3" y="147.7" class="st25" width="5.4" height="5.4"/>
	<rect x="133.7" y="147.7" class="st25" width="5.4" height="5.4"/>
	<rect x="139.1" y="147.7" class="st7" width="5.4" height="5.4"/>
	<rect x="144.5" y="147.7" class="st7" width="5.4" height="5.4"/>
	<rect x="149.9" y="147.7" class="st24" width="5.4" height="5.4"/>
	<rect x="155.3" y="147.7" class="st7" width="5.4" height="5.4"/>
	<rect x="160.6" y="147.7" class="st0" width="5.4" height="5.4"/>
	<rect x="166" y="147.7" class="st0" width="5.4" height="5.4"/>
	<rect x="15.2" y="153.1" class="st0" width="5.4" height="5.4"/>
	<rect x="20.6" y="153.1" class="st2" width="5.4" height="5.4"/>
	<rect x="26" y="153.1" class="st7" width="5.4" height="5.4"/>
	<rect x="31.4" y="153.1" class="st20" width="5.4" height="5.4"/>
	<rect x="36.7" y="153.1" class="st22" width="5.4" height="5.4"/>
	<rect x="42.1" y="153.1" class="st2" width="5.4" height="5.4"/>
	<rect x="47.5" y="153.1" class="st2" width="5.4" height="5.4"/>
	<rect x="52.9" y="153.1" class="st1" width="5.4" height="5.4"/>
	<rect x="58.3" y="153.1" class="st1" width="5.4" height="5.4"/>
	<rect x="63.7" y="153.1" class="st20" width="5.4" height="5.4"/>
	<rect x="69.1" y="153.1" class="st23" width="5.4" height="5.4"/>
	<rect x="74.5" y="153.1" class="st25" width="5.4" height="5.4"/>
	<rect x="79.8" y="153.1" class="st25" width="5.4" height="5.4"/>
	<rect x="85.2" y="153.1" class="st0" width="5.4" height="5.4"/>
	<rect x="90.6" y="153.1" class="st1" width="5.4" height="5.4"/>
	<rect x="96" y="153.1" class="st4" width="5.4" height="5.4"/>
	<rect x="101.4" y="153.1" class="st4" width="5.4" height="5.4"/>
	<rect x="106.8" y="153.1" class="st2" width="5.4" height="5.4"/>
	<rect x="112.2" y="153.1" class="st23" width="5.4" height="5.4"/>
	<rect x="117.5" y="153.1" class="st2" width="5.4" height="5.4"/>
	<rect x="122.9" y="153.1" class="st4" width="5.4" height="5.4"/>
	<rect x="128.3" y="153.1" class="st16" width="5.4" height="5.4"/>
	<rect x="133.7" y="153.1" class="st7" width="5.4" height="5.4"/>
	<rect x="139.1" y="153.1" class="st24" width="5.4" height="5.4"/>
	<rect x="144.5" y="153.1" class="st7" width="5.4" height="5.4"/>
	<rect x="149.9" y="153.1" class="st0" width="5.4" height="5.4"/>
	<rect x="155.3" y="153.1" class="st0" width="5.4" height="5.4"/>
	<rect x="20.6" y="158.5" class="st0" width="5.4" height="5.4"/>
	<rect x="26" y="158.5" class="st0" width="5.4" height="5.4"/>
	<rect x="31.4" y="158.5" class="st24" width="5.4" height="5.4"/>
	<rect x="36.7" y="158.5" class="st7" width="5.4" height="5.4"/>
	<rect x="42.1" y="158.5" class="st20" width="5.4" height="5.4"/>
	<rect x="47.5" y="158.5" class="st22" width="5.4" height="5.4"/>
	<rect x="52.9" y="158.5" class="st20" width="5.4" height="5.4"/>
	<rect x="58.3" y="158.5" class="st23" width="5.4" height="5.4"/>
	<rect x="63.7" y="158.5" class="st25" width="5.4" height="5.4"/>
	<rect x="69.1" y="158.5" class="st25" width="5.4" height="5.4"/>
	<rect x="74.5" y="158.5" class="st24" width="5.4" height="5.4"/>
	<rect x="79.8" y="158.5" class="st0" width="5.4" height="5.4"/>
	<rect x="85.2" y="158.5" class="st0" width="5.4" height="5.4"/>
	<rect x="90.6" y="158.5" class="st1" width="5.4" height="5.4"/>
	<rect x="96" y="158.5" class="st4" width="5.4" height="5.4"/>
	<rect x="101.4" y="158.5" class="st4" width="5.4" height="5.4"/>
	<rect x="106.8" y="158.5" class="st3" width="5.4" height="5.4"/>
	<rect x="112.2" y="158.5" class="st2" width="5.4" height="5.4"/>
	<rect x="117.5" y="158.5" class="st4" width="5.4" height="5.4"/>
	<rect x="122.9" y="158.5" class="st4" width="5.4" height="5.4"/>
	<rect x="128.3" y="158.5" class="st1" width="5.4" height="5.4"/>
	<rect x="133.7" y="158.5" class="st0" width="5.4" height="5.4"/>
	<rect x="139.1" y="158.5" class="st0" width="5.4" height="5.4"/>
	<rect x="144.5" y="158.5" class="st0" width="5.4" height="5.4"/>
	<rect x="31.4" y="163.8" class="st0" width="5.4" height="5.4"/>
	<rect x="36.7" y="163.8" class="st0" width="5.4" height="5.4"/>
	<rect x="42.1" y="163.8" class="st7" width="5.4" height="5.4"/>
	<rect x="47.5" y="163.8" class="st24" width="5.4" height="5.4"/>
	<rect x="52.9" y="163.8" class="st7" width="5.4" height="5.4"/>
	<rect x="58.3" y="163.8" class="st24" width="5.4" height="5.4"/>
	<rect x="63.7" y="163.8" class="st7" width="5.4" height="5.4"/>
	<rect x="69.1" y="163.8" class="st24" width="5.4" height="5.4"/>
	<rect x="74.5" y="163.8" class="st0" width="5.4" height="5.4"/>
	<rect x="90.6" y="163.8" class="st0" width="5.4" height="5.4"/>
	<rect x="96" y="163.8" class="st1" width="5.4" height="5.4"/>
	<rect x="101.4" y="163.8" class="st4" width="5.4" height="5.4"/>
	<rect x="106.8" y="163.8" class="st4" width="5.4" height="5.4"/>
	<rect x="112.2" y="163.8" class="st4" width="5.4" height="5.4"/>
	<rect x="117.5" y="163.8" class="st4" width="5.4" height="5.4"/>
	<rect x="122.9" y="163.8" class="st1" width="5.4" height="5.4"/>
	<rect x="128.3" y="163.8" class="st0" width="5.4" height="5.4"/>
	<rect x="42.1" y="169.2" class="st0" width="5.4" height="5.4"/>
	<rect x="47.5" y="169.2" class="st0" width="5.4" height="5.4"/>
	<rect x="52.9" y="169.2" class="st0" width="5.4" height="5.4"/>
	<rect x="58.3" y="169.2" class="st0" width="5.4" height="5.4"/>
	<rect x="63.7" y="169.2" class="st0" width="5.4" height="5.4"/>
	<rect x="69.1" y="169.2" class="st0" width="5.4" height="5.4"/>
	<rect x="96" y="169.2" class="st0" width="5.4" height="5.4"/>
	<rect x="101.4" y="169.2" class="st2" width="5.4" height="5.4"/>
	<rect x="106.8" y="169.2" class="st1" width="5.4" height="5.4"/>
	<rect x="112.2" y="169.2" class="st1" width="5.4" height="5.4"/>
	<rect x="117.5" y="169.2" class="st1" width="5.4" height="5.4"/>
	<rect x="122.9" y="169.2" class="st0" width="5.4" height="5.4"/>
	<rect x="101.4" y="174.6" class="st0" width="5.4" height="5.4"/>
	<rect x="106.8" y="174.6" class="st0" width="5.4" height="5.4"/>
	<rect x="112.2" y="174.6" class="st0" width="5.4" height="5.4"/>
	<rect x="117.5" y="174.6" class="st0" width="5.4" height="5.4"/>
</g>
</svg>
