<?xml version="1.0" encoding="utf-8"?>
<!-- Generator: Adobe Illustrator 27.9.0, SVG Export Plug-In . SVG Version: 6.00 Build 0)  -->
<svg version="1.1" id="Layer_1" shape-rendering="crispEdges"
	 xmlns="http://www.w3.org/2000/svg" xmlns:xlink="http://www.w3.org/1999/xlink" x="0px" y="0px" viewBox="0 0 192 192"
	 style="enable-background:new 0 0 192 192;" xml:space="preserve">
<style type="text/css">
	.st0{fill:#C1B9E0;}
	.st1{fill:#3A81AF;}
	.st2{fill:#1D8566;}
	.st3{fill:#5BD45A;}
	.st4{fill:#2CA265;}
	.st5{fill:#309669;}
	.st6{fill:#58B0B3;}
	.st7{fill:#4973A9;}
	.st8{fill:#50B06E;}
	.st9{fill:#63E054;}
	.st10{fill:#1DA162;}
	.st11{fill:#B55D83;}
	.st12{fill:#D1584A;}
	.st13{fill:#E17557;}
	.st14{fill:#E4895D;}
	.st15{fill:#FFAC71;}
	.st16{fill:#FFD253;}
	.st17{fill:#EDE5B7;}
	.st18{fill:#B3534E;}
	.st19{fill:#934D52;}
</style>
<g>
	<rect x="32.4" y="15" class="st0" width="5.8" height="5.8"/>
	<rect x="38.1" y="15" class="st0" width="5.8" height="5.8"/>
	<rect x="43.9" y="15" class="st0" width="5.8" height="5.8"/>
	<rect x="49.7" y="15" class="st0" width="5.8" height="5.8"/>
	<rect x="55.5" y="15" class="st0" width="5.8" height="5.8"/>
	<rect x="26.6" y="20.8" class="st0" width="5.8" height="5.8"/>
	<rect x="32.4" y="20.8" class="st1" width="5.8" height="5.8"/>
	<rect x="38.1" y="20.8" class="st1" width="5.8" height="5.8"/>
	<rect x="43.9" y="20.8" class="st1" width="5.8" height="5.8"/>
	<rect x="49.7" y="20.8" class="st2" width="5.8" height="5.8"/>
	<rect x="55.5" y="20.8" class="st2" width="5.8" height="5.8"/>
	<rect x="61.3" y="20.8" class="st0" width="5.8" height="5.8"/>
	<rect x="67.1" y="20.8" class="st0" width="5.8" height="5.8"/>
	<rect x="72.9" y="20.8" class="st0" width="5.8" height="5.8"/>
	<rect x="78.6" y="20.8" class="st0" width="5.8" height="5.8"/>
	<rect x="84.4" y="20.8" class="st0" width="5.8" height="5.8"/>
	<rect x="90.2" y="20.8" class="st0" width="5.8" height="5.8"/>
	<rect x="26.6" y="26.6" class="st0" width="5.8" height="5.8"/>
	<rect x="32.4" y="26.6" class="st1" width="5.8" height="5.8"/>
	<rect x="38.1" y="26.6" class="st3" width="5.8" height="5.8"/>
	<rect x="43.9" y="26.6" class="st3" width="5.8" height="5.8"/>
	<rect x="49.7" y="26.6" class="st3" width="5.8" height="5.8"/>
	<rect x="55.5" y="26.6" class="st4" width="5.8" height="5.8"/>
	<rect x="61.3" y="26.6" class="st2" width="5.8" height="5.8"/>
	<rect x="67.1" y="26.6" class="st5" width="5.8" height="5.8"/>
	<rect x="72.9" y="26.6" class="st5" width="5.8" height="5.8"/>
	<rect x="78.6" y="26.6" class="st5" width="5.8" height="5.8"/>
	<rect x="84.4" y="26.6" class="st6" width="5.8" height="5.8"/>
	<rect x="90.2" y="26.6" class="st6" width="5.8" height="5.8"/>
	<rect x="96" y="26.6" class="st0" width="5.8" height="5.8"/>
	<rect x="32.4" y="32.4" class="st0" width="5.8" height="5.8"/>
	<rect x="38.1" y="32.4" class="st2" width="5.8" height="5.8"/>
	<rect x="43.9" y="32.4" class="st5" width="5.8" height="5.8"/>
	<rect x="49.7" y="32.4" class="st2" width="5.8" height="5.8"/>
	<rect x="55.5" y="32.4" class="st1" width="5.8" height="5.8"/>
	<rect x="61.3" y="32.4" class="st7" width="5.8" height="5.8"/>
	<rect x="67.1" y="32.4" class="st5" width="5.8" height="5.8"/>
	<rect x="72.9" y="32.4" class="st8" width="5.8" height="5.8"/>
	<rect x="78.6" y="32.4" class="st9" width="5.8" height="5.8"/>
	<rect x="84.4" y="32.4" class="st9" width="5.8" height="5.8"/>
	<rect x="90.2" y="32.4" class="st6" width="5.8" height="5.8"/>
	<rect x="96" y="32.4" class="st0" width="5.8" height="5.8"/>
	<rect x="38.1" y="38.1" class="st0" width="5.8" height="5.8"/>
	<rect x="43.9" y="38.1" class="st7" width="5.8" height="5.8"/>
	<rect x="49.7" y="38.1" class="st1" width="5.8" height="5.8"/>
	<rect x="55.5" y="38.1" class="st7" width="5.8" height="5.8"/>
	<rect x="61.3" y="38.1" class="st7" width="5.8" height="5.8"/>
	<rect x="67.1" y="38.1" class="st5" width="5.8" height="5.8"/>
	<rect x="72.9" y="38.1" class="st10" width="5.8" height="5.8"/>
	<rect x="78.6" y="38.1" class="st8" width="5.8" height="5.8"/>
	<rect x="84.4" y="38.1" class="st5" width="5.8" height="5.8"/>
	<rect x="90.2" y="38.1" class="st0" width="5.8" height="5.8"/>
	<rect x="96" y="38.1" class="st0" width="5.8" height="5.8"/>
	<rect x="32.4" y="43.9" class="st0" width="5.8" height="5.8"/>
	<rect x="38.1" y="43.9" class="st11" width="5.8" height="5.8"/>
	<rect x="43.9" y="43.9" class="st11" width="5.8" height="5.8"/>
	<rect x="49.7" y="43.9" class="st11" width="5.8" height="5.8"/>
	<rect x="55.5" y="43.9" class="st12" width="5.8" height="5.8"/>
	<rect x="61.3" y="43.9" class="st12" width="5.8" height="5.8"/>
	<rect x="67.1" y="43.9" class="st5" width="5.8" height="5.8"/>
	<rect x="72.9" y="43.9" class="st12" width="5.8" height="5.8"/>
	<rect x="78.6" y="43.9" class="st12" width="5.8" height="5.8"/>
	<rect x="84.4" y="43.9" class="st13" width="5.8" height="5.8"/>
	<rect x="90.2" y="43.9" class="st13" width="5.8" height="5.8"/>
	<rect x="96" y="43.9" class="st13" width="5.8" height="5.8"/>
	<rect x="101.8" y="43.9" class="st0" width="5.8" height="5.8"/>
	<rect x="26.6" y="49.7" class="st0" width="5.8" height="5.8"/>
	<rect x="32.4" y="49.7" class="st12" width="5.8" height="5.8"/>
	<rect x="38.1" y="49.7" class="st13" width="5.8" height="5.8"/>
	<rect x="43.9" y="49.7" class="st13" width="5.8" height="5.8"/>
	<rect x="49.7" y="49.7" class="st14" width="5.8" height="5.8"/>
	<rect x="55.5" y="49.7" class="st15" width="5.8" height="5.8"/>
	<rect x="61.3" y="49.7" class="st15" width="5.8" height="5.8"/>
	<rect x="67.1" y="49.7" class="st12" width="5.8" height="5.8"/>
	<rect x="72.9" y="49.7" class="st15" width="5.8" height="5.8"/>
	<rect x="78.6" y="49.7" class="st14" width="5.8" height="5.8"/>
	<rect x="84.4" y="49.7" class="st15" width="5.8" height="5.8"/>
	<rect x="90.2" y="49.7" class="st16" width="5.8" height="5.8"/>
	<rect x="96" y="49.7" class="st16" width="5.8" height="5.8"/>
	<rect x="101.8" y="49.7" class="st13" width="5.8" height="5.8"/>
	<rect x="107.6" y="49.7" class="st0" width="5.8" height="5.8"/>
	<rect x="20.8" y="55.5" class="st0" width="5.8" height="5.8"/>
	<rect x="26.6" y="55.5" class="st11" width="5.8" height="5.8"/>
	<rect x="32.4" y="55.5" class="st13" width="5.8" height="5.8"/>
	<rect x="38.1" y="55.5" class="st13" width="5.8" height="5.8"/>
	<rect x="43.9" y="55.5" class="st14" width="5.8" height="5.8"/>
	<rect x="49.7" y="55.5" class="st15" width="5.8" height="5.8"/>
	<rect x="55.5" y="55.5" class="st14" width="5.8" height="5.8"/>
	<rect x="61.3" y="55.5" class="st15" width="5.8" height="5.8"/>
	<rect x="67.1" y="55.5" class="st16" width="5.8" height="5.8"/>
	<rect x="72.9" y="55.5" class="st12" width="5.8" height="5.8"/>
	<rect x="78.6" y="55.5" class="st15" width="5.8" height="5.8"/>
	<rect x="84.4" y="55.5" class="st16" width="5.8" height="5.8"/>
	<rect x="90.2" y="55.5" class="st16" width="5.8" height="5.8"/>
	<rect x="96" y="55.5" class="st16" width="5.8" height="5.8"/>
	<rect x="101.8" y="55.5" class="st16" width="5.8" height="5.8"/>
	<rect x="107.6" y="55.5" class="st13" width="5.8" height="5.8"/>
	<rect x="113.4" y="55.5" class="st0" width="5.8" height="5.8"/>
	<rect x="15" y="61.3" class="st0" width="5.8" height="5.8"/>
	<rect x="20.8" y="61.3" class="st12" width="5.8" height="5.8"/>
	<rect x="26.6" y="61.3" class="st13" width="5.8" height="5.8"/>
	<rect x="32.4" y="61.3" class="st13" width="5.8" height="5.8"/>
	<rect x="38.1" y="61.3" class="st14" width="5.8" height="5.8"/>
	<rect x="43.9" y="61.3" class="st15" width="5.8" height="5.8"/>
	<rect x="49.7" y="61.3" class="st15" width="5.8" height="5.8"/>
	<rect x="55.5" y="61.3" class="st15" width="5.8" height="5.8"/>
	<rect x="61.3" y="61.3" class="st15" width="5.8" height="5.8"/>
	<rect x="67.1" y="61.3" class="st15" width="5.8" height="5.8"/>
	<rect x="72.9" y="61.3" class="st16" width="5.8" height="5.8"/>
	<rect x="78.6" y="61.3" class="st16" width="5.8" height="5.8"/>
	<rect x="84.4" y="61.3" class="st16" width="5.8" height="5.8"/>
	<rect x="90.2" y="61.3" class="st16" width="5.8" height="5.8"/>
	<rect x="96" y="61.3" class="st16" width="5.8" height="5.8"/>
	<rect x="101.8" y="61.3" class="st16" width="5.8" height="5.8"/>
	<rect x="107.6" y="61.3" class="st16" width="5.8" height="5.8"/>
	<rect x="113.4" y="61.3" class="st13" width="5.8" height="5.8"/>
	<rect x="119.1" y="61.3" class="st0" width="5.8" height="5.8"/>
	<rect x="15" y="67.1" class="st0" width="5.8" height="5.8"/>
	<rect x="20.8" y="67.1" class="st12" width="5.8" height="5.8"/>
	<rect x="26.6" y="67.1" class="st13" width="5.8" height="5.8"/>
	<rect x="32.4" y="67.1" class="st13" width="5.8" height="5.8"/>
	<rect x="38.1" y="67.1" class="st14" width="5.8" height="5.8"/>
	<rect x="43.9" y="67.1" class="st14" width="5.8" height="5.8"/>
	<rect x="49.7" y="67.1" class="st15" width="5.8" height="5.8"/>
	<rect x="55.5" y="67.1" class="st14" width="5.8" height="5.8"/>
	<rect x="61.3" y="67.1" class="st15" width="5.8" height="5.8"/>
	<rect x="67.1" y="67.1" class="st16" width="5.8" height="5.8"/>
	<rect x="72.9" y="67.1" class="st15" width="5.8" height="5.8"/>
	<rect x="78.6" y="67.1" class="st16" width="5.8" height="5.8"/>
	<rect x="84.4" y="67.1" class="st1" width="5.8" height="5.8"/>
	<rect x="90.2" y="67.1" class="st1" width="5.8" height="5.8"/>
	<rect x="96" y="67.1" class="st1" width="5.8" height="5.8"/>
	<rect x="101.8" y="67.1" class="st2" width="5.8" height="5.8"/>
	<rect x="107.6" y="67.1" class="st2" width="5.8" height="5.8"/>
	<rect x="113.4" y="67.1" class="st1" width="5.8" height="5.8"/>
	<rect x="119.1" y="67.1" class="st0" width="5.8" height="5.8"/>
	<rect x="124.9" y="67.1" class="st0" width="5.8" height="5.8"/>
	<rect x="130.7" y="67.1" class="st0" width="5.8" height="5.8"/>
	<rect x="136.5" y="67.1" class="st0" width="5.8" height="5.8"/>
	<rect x="142.3" y="67.1" class="st0" width="5.8" height="5.8"/>
	<rect x="15" y="72.9" class="st0" width="5.8" height="5.8"/>
	<rect x="20.8" y="72.9" class="st11" width="5.8" height="5.8"/>
	<rect x="26.6" y="72.9" class="st13" width="5.8" height="5.8"/>
	<rect x="32.4" y="72.9" class="st14" width="5.8" height="5.8"/>
	<rect x="38.1" y="72.9" class="st14" width="5.8" height="5.8"/>
	<rect x="43.9" y="72.9" class="st15" width="5.8" height="5.8"/>
	<rect x="49.7" y="72.9" class="st14" width="5.8" height="5.8"/>
	<rect x="55.5" y="72.9" class="st15" width="5.8" height="5.8"/>
	<rect x="61.3" y="72.9" class="st14" width="5.8" height="5.8"/>
	<rect x="67.1" y="72.9" class="st15" width="5.8" height="5.8"/>
	<rect x="72.9" y="72.9" class="st16" width="5.8" height="5.8"/>
	<rect x="78.6" y="72.9" class="st16" width="5.8" height="5.8"/>
	<rect x="84.4" y="72.9" class="st1" width="5.8" height="5.8"/>
	<rect x="90.2" y="72.9" class="st3" width="5.8" height="5.8"/>
	<rect x="96" y="72.9" class="st3" width="5.8" height="5.8"/>
	<rect x="101.8" y="72.9" class="st3" width="5.8" height="5.8"/>
	<rect x="107.6" y="72.9" class="st4" width="5.8" height="5.8"/>
	<rect x="113.4" y="72.9" class="st4" width="5.8" height="5.8"/>
	<rect x="119.1" y="72.9" class="st1" width="5.8" height="5.8"/>
	<rect x="124.9" y="72.9" class="st5" width="5.8" height="5.8"/>
	<rect x="130.7" y="72.9" class="st5" width="5.8" height="5.8"/>
	<rect x="136.5" y="72.9" class="st6" width="5.8" height="5.8"/>
	<rect x="142.3" y="72.9" class="st6" width="5.8" height="5.8"/>
	<rect x="148.1" y="72.9" class="st0" width="5.8" height="5.8"/>
	<rect x="15" y="78.6" class="st0" width="5.8" height="5.8"/>
	<rect x="20.8" y="78.6" class="st11" width="5.8" height="5.8"/>
	<rect x="26.6" y="78.6" class="st13" width="5.8" height="5.8"/>
	<rect x="32.4" y="78.6" class="st13" width="5.8" height="5.8"/>
	<rect x="38.1" y="78.6" class="st14" width="5.8" height="5.8"/>
	<rect x="43.9" y="78.6" class="st14" width="5.8" height="5.8"/>
	<rect x="49.7" y="78.6" class="st15" width="5.8" height="5.8"/>
	<rect x="55.5" y="78.6" class="st14" width="5.8" height="5.8"/>
	<rect x="61.3" y="78.6" class="st15" width="5.8" height="5.8"/>
	<rect x="67.1" y="78.6" class="st16" width="5.8" height="5.8"/>
	<rect x="72.9" y="78.6" class="st15" width="5.8" height="5.8"/>
	<rect x="78.6" y="78.6" class="st15" width="5.8" height="5.8"/>
	<rect x="84.4" y="78.6" class="st16" width="5.8" height="5.8"/>
	<rect x="90.2" y="78.6" class="st2" width="5.8" height="5.8"/>
	<rect x="96" y="78.6" class="st5" width="5.8" height="5.8"/>
	<rect x="101.8" y="78.6" class="st4" width="5.8" height="5.8"/>
	<rect x="107.6" y="78.6" class="st2" width="5.8" height="5.8"/>
	<rect x="113.4" y="78.6" class="st1" width="5.8" height="5.8"/>
	<rect x="119.1" y="78.6" class="st7" width="5.8" height="5.8"/>
	<rect x="124.9" y="78.6" class="st8" width="5.8" height="5.8"/>
	<rect x="130.7" y="78.6" class="st9" width="5.8" height="5.8"/>
	<rect x="136.5" y="78.6" class="st9" width="5.8" height="5.8"/>
	<rect x="142.3" y="78.6" class="st6" width="5.8" height="5.8"/>
	<rect x="148.1" y="78.6" class="st0" width="5.8" height="5.8"/>
	<rect x="15" y="84.4" class="st0" width="5.8" height="5.8"/>
	<rect x="20.8" y="84.4" class="st11" width="5.8" height="5.8"/>
	<rect x="26.6" y="84.4" class="st13" width="5.8" height="5.8"/>
	<rect x="32.4" y="84.4" class="st14" width="5.8" height="5.8"/>
	<rect x="38.1" y="84.4" class="st15" width="5.8" height="5.8"/>
	<rect x="43.9" y="84.4" class="st14" width="5.8" height="5.8"/>
	<rect x="49.7" y="84.4" class="st14" width="5.8" height="5.8"/>
	<rect x="55.5" y="84.4" class="st15" width="5.8" height="5.8"/>
	<rect x="61.3" y="84.4" class="st14" width="5.8" height="5.8"/>
	<rect x="67.1" y="84.4" class="st15" width="5.8" height="5.8"/>
	<rect x="72.9" y="84.4" class="st14" width="5.8" height="5.8"/>
	<rect x="78.6" y="84.4" class="st16" width="5.8" height="5.8"/>
	<rect x="84.4" y="84.4" class="st15" width="5.8" height="5.8"/>
	<rect x="90.2" y="84.4" class="st13" width="5.8" height="5.8"/>
	<rect x="96" y="84.4" class="st7" width="5.8" height="5.8"/>
	<rect x="101.8" y="84.4" class="st1" width="5.8" height="5.8"/>
	<rect x="107.6" y="84.4" class="st7" width="5.8" height="5.8"/>
	<rect x="113.4" y="84.4" class="st7" width="5.8" height="5.8"/>
	<rect x="119.1" y="84.4" class="st7" width="5.8" height="5.8"/>
	<rect x="124.9" y="84.4" class="st10" width="5.8" height="5.8"/>
	<rect x="130.7" y="84.4" class="st8" width="5.8" height="5.8"/>
	<rect x="136.5" y="84.4" class="st5" width="5.8" height="5.8"/>
	<rect x="142.3" y="84.4" class="st0" width="5.8" height="5.8"/>
	<rect x="148.1" y="84.4" class="st0" width="5.8" height="5.8"/>
	<rect x="15" y="90.2" class="st0" width="5.8" height="5.8"/>
	<rect x="20.8" y="90.2" class="st11" width="5.8" height="5.8"/>
	<rect x="26.6" y="90.2" class="st13" width="5.8" height="5.8"/>
	<rect x="32.4" y="90.2" class="st13" width="5.8" height="5.8"/>
	<rect x="38.1" y="90.2" class="st14" width="5.8" height="5.8"/>
	<rect x="43.9" y="90.2" class="st14" width="5.8" height="5.8"/>
	<rect x="49.7" y="90.2" class="st15" width="5.8" height="5.8"/>
	<rect x="55.5" y="90.2" class="st14" width="5.8" height="5.8"/>
	<rect x="61.3" y="90.2" class="st15" width="5.8" height="5.8"/>
	<rect x="67.1" y="90.2" class="st14" width="5.8" height="5.8"/>
	<rect x="72.9" y="90.2" class="st15" width="5.8" height="5.8"/>
	<rect x="78.6" y="90.2" class="st15" width="5.8" height="5.8"/>
	<rect x="84.4" y="90.2" class="st13" width="5.8" height="5.8"/>
	<rect x="90.2" y="90.2" class="st11" width="5.8" height="5.8"/>
	<rect x="96" y="90.2" class="st11" width="5.8" height="5.8"/>
	<rect x="101.8" y="90.2" class="st11" width="5.8" height="5.8"/>
	<rect x="107.6" y="90.2" class="st12" width="5.8" height="5.8"/>
	<rect x="113.4" y="90.2" class="st12" width="5.8" height="5.8"/>
	<rect x="119.1" y="90.2" class="st7" width="5.8" height="5.8"/>
	<rect x="124.9" y="90.2" class="st12" width="5.8" height="5.8"/>
	<rect x="130.7" y="90.2" class="st12" width="5.8" height="5.8"/>
	<rect x="136.5" y="90.2" class="st12" width="5.8" height="5.8"/>
	<rect x="142.3" y="90.2" class="st12" width="5.8" height="5.8"/>
	<rect x="148.1" y="90.2" class="st12" width="5.8" height="5.8"/>
	<rect x="153.9" y="90.2" class="st0" width="5.8" height="5.8"/>
	<rect x="20.8" y="96" class="st0" width="5.8" height="5.8"/>
	<rect x="26.6" y="96" class="st11" width="5.8" height="5.8"/>
	<rect x="32.4" y="96" class="st13" width="5.8" height="5.8"/>
	<rect x="38.1" y="96" class="st13" width="5.8" height="5.8"/>
	<rect x="43.9" y="96" class="st14" width="5.8" height="5.8"/>
	<rect x="49.7" y="96" class="st15" width="5.8" height="5.8"/>
	<rect x="55.5" y="96" class="st15" width="5.8" height="5.8"/>
	<rect x="61.3" y="96" class="st14" width="5.8" height="5.8"/>
	<rect x="67.1" y="96" class="st15" width="5.8" height="5.8"/>
	<rect x="72.9" y="96" class="st14" width="5.8" height="5.8"/>
	<rect x="78.6" y="96" class="st13" width="5.8" height="5.8"/>
	<rect x="84.4" y="96" class="st12" width="5.8" height="5.8"/>
	<rect x="90.2" y="96" class="st13" width="5.8" height="5.8"/>
	<rect x="96" y="96" class="st13" width="5.8" height="5.8"/>
	<rect x="101.8" y="96" class="st13" width="5.8" height="5.8"/>
	<rect x="107.6" y="96" class="st13" width="5.8" height="5.8"/>
	<rect x="113.4" y="96" class="st13" width="5.8" height="5.8"/>
	<rect x="119.1" y="96" class="st13" width="5.8" height="5.8"/>
	<rect x="124.9" y="96" class="st13" width="5.8" height="5.8"/>
	<rect x="130.7" y="96" class="st13" width="5.8" height="5.8"/>
	<rect x="136.5" y="96" class="st13" width="5.8" height="5.8"/>
	<rect x="142.3" y="96" class="st13" width="5.8" height="5.8"/>
	<rect x="148.1" y="96" class="st13" width="5.8" height="5.8"/>
	<rect x="153.9" y="96" class="st12" width="5.8" height="5.8"/>
	<rect x="159.6" y="96" class="st0" width="5.8" height="5.8"/>
	<rect x="26.6" y="101.8" class="st0" width="5.8" height="5.8"/>
	<rect x="32.4" y="101.8" class="st11" width="5.8" height="5.8"/>
	<rect x="38.1" y="101.8" class="st13" width="5.8" height="5.8"/>
	<rect x="43.9" y="101.8" class="st13" width="5.8" height="5.8"/>
	<rect x="49.7" y="101.8" class="st14" width="5.8" height="5.8"/>
	<rect x="55.5" y="101.8" class="st15" width="5.8" height="5.8"/>
	<rect x="61.3" y="101.8" class="st14" width="5.8" height="5.8"/>
	<rect x="67.1" y="101.8" class="st14" width="5.8" height="5.8"/>
	<rect x="72.9" y="101.8" class="st13" width="5.8" height="5.8"/>
	<rect x="78.6" y="101.8" class="st11" width="5.8" height="5.8"/>
	<rect x="84.4" y="101.8" class="st13" width="5.8" height="5.8"/>
	<rect x="90.2" y="101.8" class="st13" width="5.8" height="5.8"/>
	<rect x="96" y="101.8" class="st15" width="5.8" height="5.8"/>
	<rect x="101.8" y="101.8" class="st15" width="5.8" height="5.8"/>
	<rect x="107.6" y="101.8" class="st15" width="5.8" height="5.8"/>
	<rect x="113.4" y="101.8" class="st15" width="5.8" height="5.8"/>
	<rect x="119.1" y="101.8" class="st13" width="5.8" height="5.8"/>
	<rect x="124.9" y="101.8" class="st15" width="5.8" height="5.8"/>
	<rect x="130.7" y="101.8" class="st15" width="5.8" height="5.8"/>
	<rect x="136.5" y="101.8" class="st15" width="5.8" height="5.8"/>
	<rect x="142.3" y="101.8" class="st15" width="5.8" height="5.8"/>
	<rect x="148.1" y="101.8" class="st13" width="5.8" height="5.8"/>
	<rect x="153.9" y="101.8" class="st13" width="5.8" height="5.8"/>
	<rect x="159.6" y="101.8" class="st12" width="5.8" height="5.8"/>
	<rect x="165.4" y="101.8" class="st0" width="5.8" height="5.8"/>
	<rect x="32.4" y="107.6" class="st0" width="5.8" height="5.8"/>
	<rect x="38.1" y="107.6" class="st11" width="5.8" height="5.8"/>
	<rect x="43.9" y="107.6" class="st13" width="5.8" height="5.8"/>
	<rect x="49.7" y="107.6" class="st13" width="5.8" height="5.8"/>
	<rect x="55.5" y="107.6" class="st14" width="5.8" height="5.8"/>
	<rect x="61.3" y="107.6" class="st13" width="5.8" height="5.8"/>
	<rect x="67.1" y="107.6" class="st14" width="5.8" height="5.8"/>
	<rect x="72.9" y="107.6" class="st11" width="5.8" height="5.8"/>
	<rect x="78.6" y="107.6" class="st13" width="5.8" height="5.8"/>
	<rect x="84.4" y="107.6" class="st13" width="5.8" height="5.8"/>
	<rect x="90.2" y="107.6" class="st15" width="5.8" height="5.8"/>
	<rect x="96" y="107.6" class="st16" width="5.8" height="5.8"/>
	<rect x="101.8" y="107.6" class="st17" width="5.8" height="5.8"/>
	<rect x="107.6" y="107.6" class="st16" width="5.8" height="5.8"/>
	<rect x="113.4" y="107.6" class="st15" width="5.8" height="5.8"/>
	<rect x="119.1" y="107.6" class="st13" width="5.8" height="5.8"/>
	<rect x="124.9" y="107.6" class="st15" width="5.8" height="5.8"/>
	<rect x="130.7" y="107.6" class="st16" width="5.8" height="5.8"/>
	<rect x="136.5" y="107.6" class="st17" width="5.8" height="5.8"/>
	<rect x="142.3" y="107.6" class="st16" width="5.8" height="5.8"/>
	<rect x="148.1" y="107.6" class="st15" width="5.8" height="5.8"/>
	<rect x="153.9" y="107.6" class="st13" width="5.8" height="5.8"/>
	<rect x="159.6" y="107.6" class="st13" width="5.8" height="5.8"/>
	<rect x="165.4" y="107.6" class="st12" width="5.8" height="5.8"/>
	<rect x="171.2" y="107.6" class="st0" width="5.8" height="5.8"/>
	<rect x="38.1" y="113.4" class="st0" width="5.8" height="5.8"/>
	<rect x="43.9" y="113.4" class="st11" width="5.8" height="5.8"/>
	<rect x="49.7" y="113.4" class="st13" width="5.8" height="5.8"/>
	<rect x="55.5" y="113.4" class="st13" width="5.8" height="5.8"/>
	<rect x="61.3" y="113.4" class="st13" width="5.8" height="5.8"/>
	<rect x="67.1" y="113.4" class="st13" width="5.8" height="5.8"/>
	<rect x="72.9" y="113.4" class="st12" width="5.8" height="5.8"/>
	<rect x="78.6" y="113.4" class="st13" width="5.8" height="5.8"/>
	<rect x="84.4" y="113.4" class="st15" width="5.8" height="5.8"/>
	<rect x="90.2" y="113.4" class="st16" width="5.8" height="5.8"/>
	<rect x="96" y="113.4" class="st17" width="5.8" height="5.8"/>
	<rect x="101.8" y="113.4" class="st16" width="5.8" height="5.8"/>
	<rect x="107.6" y="113.4" class="st17" width="5.8" height="5.8"/>
	<rect x="113.4" y="113.4" class="st13" width="5.8" height="5.8"/>
	<rect x="119.1" y="113.4" class="st18" width="5.8" height="5.8"/>
	<rect x="124.9" y="113.4" class="st13" width="5.8" height="5.8"/>
	<rect x="130.7" y="113.4" class="st17" width="5.8" height="5.8"/>
	<rect x="136.5" y="113.4" class="st16" width="5.8" height="5.8"/>
	<rect x="142.3" y="113.4" class="st17" width="5.8" height="5.8"/>
	<rect x="148.1" y="113.4" class="st16" width="5.8" height="5.8"/>
	<rect x="153.9" y="113.4" class="st15" width="5.8" height="5.8"/>
	<rect x="159.6" y="113.4" class="st13" width="5.8" height="5.8"/>
	<rect x="165.4" y="113.4" class="st12" width="5.8" height="5.8"/>
	<rect x="171.2" y="113.4" class="st0" width="5.8" height="5.8"/>
	<rect x="43.9" y="119.1" class="st0" width="5.8" height="5.8"/>
	<rect x="49.7" y="119.1" class="st11" width="5.8" height="5.8"/>
	<rect x="55.5" y="119.1" class="st11" width="5.8" height="5.8"/>
	<rect x="61.3" y="119.1" class="st11" width="5.8" height="5.8"/>
	<rect x="67.1" y="119.1" class="st11" width="5.8" height="5.8"/>
	<rect x="72.9" y="119.1" class="st12" width="5.8" height="5.8"/>
	<rect x="78.6" y="119.1" class="st13" width="5.8" height="5.8"/>
	<rect x="84.4" y="119.1" class="st15" width="5.8" height="5.8"/>
	<rect x="90.2" y="119.1" class="st17" width="5.8" height="5.8"/>
	<rect x="96" y="119.1" class="st16" width="5.8" height="5.8"/>
	<rect x="101.8" y="119.1" class="st17" width="5.8" height="5.8"/>
	<rect x="107.6" y="119.1" class="st13" width="5.8" height="5.8"/>
	<rect x="113.4" y="119.1" class="st18" width="5.8" height="5.8"/>
	<rect x="119.1" y="119.1" class="st14" width="5.8" height="5.8"/>
	<rect x="124.9" y="119.1" class="st18" width="5.8" height="5.8"/>
	<rect x="130.7" y="119.1" class="st13" width="5.8" height="5.8"/>
	<rect x="136.5" y="119.1" class="st17" width="5.8" height="5.8"/>
	<rect x="142.3" y="119.1" class="st16" width="5.8" height="5.8"/>
	<rect x="148.1" y="119.1" class="st17" width="5.8" height="5.8"/>
	<rect x="153.9" y="119.1" class="st15" width="5.8" height="5.8"/>
	<rect x="159.6" y="119.1" class="st13" width="5.8" height="5.8"/>
	<rect x="165.4" y="119.1" class="st12" width="5.8" height="5.8"/>
	<rect x="171.2" y="119.1" class="st0" width="5.8" height="5.8"/>
	<rect x="49.7" y="124.9" class="st0" width="5.8" height="5.8"/>
	<rect x="55.5" y="124.9" class="st0" width="5.8" height="5.8"/>
	<rect x="61.3" y="124.9" class="st0" width="5.8" height="5.8"/>
	<rect x="67.1" y="124.9" class="st0" width="5.8" height="5.8"/>
	<rect x="72.9" y="124.9" class="st11" width="5.8" height="5.8"/>
	<rect x="78.6" y="124.9" class="st13" width="5.8" height="5.8"/>
	<rect x="84.4" y="124.9" class="st15" width="5.8" height="5.8"/>
	<rect x="90.2" y="124.9" class="st16" width="5.8" height="5.8"/>
	<rect x="96" y="124.9" class="st17" width="5.8" height="5.8"/>
	<rect x="101.8" y="124.9" class="st13" width="5.8" height="5.8"/>
	<rect x="107.6" y="124.9" class="st18" width="5.8" height="5.8"/>
	<rect x="113.4" y="124.9" class="st14" width="5.8" height="5.8"/>
	<rect x="119.1" y="124.9" class="st18" width="5.8" height="5.8"/>
	<rect x="124.9" y="124.9" class="st18" width="5.8" height="5.8"/>
	<rect x="130.7" y="124.9" class="st19" width="5.8" height="5.8"/>
	<rect x="136.5" y="124.9" class="st13" width="5.8" height="5.8"/>
	<rect x="142.3" y="124.9" class="st17" width="5.8" height="5.8"/>
	<rect x="148.1" y="124.9" class="st16" width="5.8" height="5.8"/>
	<rect x="153.9" y="124.9" class="st15" width="5.8" height="5.8"/>
	<rect x="159.6" y="124.9" class="st13" width="5.8" height="5.8"/>
	<rect x="165.4" y="124.9" class="st11" width="5.8" height="5.8"/>
	<rect x="171.2" y="124.9" class="st0" width="5.8" height="5.8"/>
	<rect x="67.1" y="130.7" class="st0" width="5.8" height="5.8"/>
	<rect x="72.9" y="130.7" class="st11" width="5.8" height="5.8"/>
	<rect x="78.6" y="130.7" class="st13" width="5.8" height="5.8"/>
	<rect x="84.4" y="130.7" class="st15" width="5.8" height="5.8"/>
	<rect x="90.2" y="130.7" class="st16" width="5.8" height="5.8"/>
	<rect x="96" y="130.7" class="st17" width="5.8" height="5.8"/>
	<rect x="101.8" y="130.7" class="st13" width="5.8" height="5.8"/>
	<rect x="107.6" y="130.7" class="st18" width="5.8" height="5.8"/>
	<rect x="113.4" y="130.7" class="st18" width="5.8" height="5.8"/>
	<rect x="119.1" y="130.7" class="st18" width="5.8" height="5.8"/>
	<rect x="124.9" y="130.7" class="st19" width="5.8" height="5.8"/>
	<rect x="130.7" y="130.7" class="st19" width="5.8" height="5.8"/>
	<rect x="136.5" y="130.7" class="st13" width="5.8" height="5.8"/>
	<rect x="142.3" y="130.7" class="st17" width="5.8" height="5.8"/>
	<rect x="148.1" y="130.7" class="st16" width="5.8" height="5.8"/>
	<rect x="153.9" y="130.7" class="st15" width="5.8" height="5.8"/>
	<rect x="159.6" y="130.7" class="st13" width="5.8" height="5.8"/>
	<rect x="165.4" y="130.7" class="st11" width="5.8" height="5.8"/>
	<rect x="171.2" y="130.7" class="st0" width="5.8" height="5.8"/>
	<rect x="67.1" y="136.5" class="st0" width="5.8" height="5.8"/>
	<rect x="72.9" y="136.5" class="st11" width="5.8" height="5.8"/>
	<rect x="78.6" y="136.5" class="st13" width="5.8" height="5.8"/>
	<rect x="84.4" y="136.5" class="st13" width="5.8" height="5.8"/>
	<rect x="90.2" y="136.5" class="st15" width="5.8" height="5.8"/>
	<rect x="96" y="136.5" class="st16" width="5.8" height="5.8"/>
	<rect x="101.8" y="136.5" class="st17" width="5.8" height="5.8"/>
	<rect x="107.6" y="136.5" class="st13" width="5.8" height="5.8"/>
	<rect x="113.4" y="136.5" class="st19" width="5.8" height="5.8"/>
	<rect x="119.1" y="136.5" class="st19" width="5.8" height="5.8"/>
	<rect x="124.9" y="136.5" class="st19" width="5.8" height="5.8"/>
	<rect x="130.7" y="136.5" class="st13" width="5.8" height="5.8"/>
	<rect x="136.5" y="136.5" class="st17" width="5.8" height="5.8"/>
	<rect x="142.3" y="136.5" class="st16" width="5.8" height="5.8"/>
	<rect x="148.1" y="136.5" class="st15" width="5.8" height="5.8"/>
	<rect x="153.9" y="136.5" class="st13" width="5.8" height="5.8"/>
	<rect x="159.6" y="136.5" class="st13" width="5.8" height="5.8"/>
	<rect x="165.4" y="136.5" class="st11" width="5.8" height="5.8"/>
	<rect x="171.2" y="136.5" class="st0" width="5.8" height="5.8"/>
	<rect x="72.9" y="142.3" class="st0" width="5.8" height="5.8"/>
	<rect x="78.6" y="142.3" class="st11" width="5.8" height="5.8"/>
	<rect x="84.4" y="142.3" class="st13" width="5.8" height="5.8"/>
	<rect x="90.2" y="142.3" class="st13" width="5.8" height="5.8"/>
	<rect x="96" y="142.3" class="st15" width="5.8" height="5.8"/>
	<rect x="101.8" y="142.3" class="st16" width="5.8" height="5.8"/>
	<rect x="107.6" y="142.3" class="st17" width="5.8" height="5.8"/>
	<rect x="113.4" y="142.3" class="st13" width="5.8" height="5.8"/>
	<rect x="119.1" y="142.3" class="st13" width="5.8" height="5.8"/>
	<rect x="124.9" y="142.3" class="st13" width="5.8" height="5.8"/>
	<rect x="130.7" y="142.3" class="st17" width="5.8" height="5.8"/>
	<rect x="136.5" y="142.3" class="st16" width="5.8" height="5.8"/>
	<rect x="142.3" y="142.3" class="st15" width="5.8" height="5.8"/>
	<rect x="148.1" y="142.3" class="st13" width="5.8" height="5.8"/>
	<rect x="153.9" y="142.3" class="st13" width="5.8" height="5.8"/>
	<rect x="159.6" y="142.3" class="st11" width="5.8" height="5.8"/>
	<rect x="165.4" y="142.3" class="st0" width="5.8" height="5.8"/>
	<rect x="78.6" y="148.1" class="st0" width="5.8" height="5.8"/>
	<rect x="84.4" y="148.1" class="st11" width="5.8" height="5.8"/>
	<rect x="90.2" y="148.1" class="st13" width="5.8" height="5.8"/>
	<rect x="96" y="148.1" class="st13" width="5.8" height="5.8"/>
	<rect x="101.8" y="148.1" class="st15" width="5.8" height="5.8"/>
	<rect x="107.6" y="148.1" class="st16" width="5.8" height="5.8"/>
	<rect x="113.4" y="148.1" class="st17" width="5.8" height="5.8"/>
	<rect x="119.1" y="148.1" class="st16" width="5.8" height="5.8"/>
	<rect x="124.9" y="148.1" class="st17" width="5.8" height="5.8"/>
	<rect x="130.7" y="148.1" class="st16" width="5.8" height="5.8"/>
	<rect x="136.5" y="148.1" class="st15" width="5.8" height="5.8"/>
	<rect x="142.3" y="148.1" class="st13" width="5.8" height="5.8"/>
	<rect x="148.1" y="148.1" class="st13" width="5.8" height="5.8"/>
	<rect x="153.9" y="148.1" class="st11" width="5.8" height="5.8"/>
	<rect x="159.6" y="148.1" class="st0" width="5.8" height="5.8"/>
	<rect x="84.4" y="153.9" class="st0" width="5.8" height="5.8"/>
	<rect x="90.2" y="153.9" class="st11" width="5.8" height="5.8"/>
	<rect x="96" y="153.9" class="st13" width="5.8" height="5.8"/>
	<rect x="101.8" y="153.9" class="st13" width="5.8" height="5.8"/>
	<rect x="107.6" y="153.9" class="st15" width="5.8" height="5.8"/>
	<rect x="113.4" y="153.9" class="st15" width="5.8" height="5.8"/>
	<rect x="119.1" y="153.9" class="st15" width="5.8" height="5.8"/>
	<rect x="124.9" y="153.9" class="st15" width="5.8" height="5.8"/>
	<rect x="130.7" y="153.9" class="st15" width="5.8" height="5.8"/>
	<rect x="136.5" y="153.9" class="st13" width="5.8" height="5.8"/>
	<rect x="142.3" y="153.9" class="st13" width="5.8" height="5.8"/>
	<rect x="148.1" y="153.9" class="st11" width="5.8" height="5.8"/>
	<rect x="153.9" y="153.9" class="st0" width="5.8" height="5.8"/>
	<rect x="90.2" y="159.6" class="st0" width="5.8" height="5.8"/>
	<rect x="96" y="159.6" class="st11" width="5.8" height="5.8"/>
	<rect x="101.8" y="159.6" class="st13" width="5.8" height="5.8"/>
	<rect x="107.6" y="159.6" class="st13" width="5.8" height="5.8"/>
	<rect x="113.4" y="159.6" class="st13" width="5.8" height="5.8"/>
	<rect x="119.1" y="159.6" class="st13" width="5.8" height="5.8"/>
	<rect x="124.9" y="159.6" class="st13" width="5.8" height="5.8"/>
	<rect x="130.7" y="159.6" class="st13" width="5.8" height="5.8"/>
	<rect x="136.5" y="159.6" class="st13" width="5.8" height="5.8"/>
	<rect x="142.3" y="159.6" class="st11" width="5.8" height="5.8"/>
	<rect x="148.1" y="159.6" class="st0" width="5.8" height="5.8"/>
	<rect x="96" y="165.4" class="st0" width="5.8" height="5.8"/>
	<rect x="101.8" y="165.4" class="st11" width="5.8" height="5.8"/>
	<rect x="107.6" y="165.4" class="st11" width="5.8" height="5.8"/>
	<rect x="113.4" y="165.4" class="st11" width="5.8" height="5.8"/>
	<rect x="119.1" y="165.4" class="st11" width="5.8" height="5.8"/>
	<rect x="124.9" y="165.4" class="st11" width="5.8" height="5.8"/>
	<rect x="130.7" y="165.4" class="st11" width="5.8" height="5.8"/>
	<rect x="136.5" y="165.4" class="st11" width="5.8" height="5.8"/>
	<rect x="142.3" y="165.4" class="st0" width="5.8" height="5.8"/>
	<rect x="101.8" y="171.2" class="st0" width="5.8" height="5.8"/>
	<rect x="107.6" y="171.2" class="st0" width="5.8" height="5.8"/>
	<rect x="113.4" y="171.2" class="st0" width="5.8" height="5.8"/>
	<rect x="119.1" y="171.2" class="st0" width="5.8" height="5.8"/>
	<rect x="124.9" y="171.2" class="st0" width="5.8" height="5.8"/>
	<rect x="130.7" y="171.2" class="st0" width="5.8" height="5.8"/>
	<rect x="136.5" y="171.2" class="st0" width="5.8" height="5.8"/>
</g>
</svg>
