<?xml version="1.0" encoding="utf-8"?>
<!-- Generator: Adobe Illustrator 27.9.0, SVG Export Plug-In . SVG Version: 6.00 Build 0)  -->
<svg version="1.1" id="Layer_1" shape-rendering="crispEdges"
	 xmlns="http://www.w3.org/2000/svg" xmlns:xlink="http://www.w3.org/1999/xlink" x="0px" y="0px" viewBox="0 0 192 192"
	 style="enable-background:new 0 0 192 192;" xml:space="preserve">
<style type="text/css">
	.st0{fill:#C1B9E0;}
	.st1{fill:#8D5386;}
	.st2{fill:#907389;}
	.st3{fill:#B55D83;}
	.st4{fill:#534748;}
	.st5{fill:#EDE5B7;}
	.st6{fill:#1D8566;}
	.st7{fill:#934D52;}
	.st8{fill:#4C6D56;}
	.st9{fill:#51344B;}
	.st10{fill:#D58858;}
	.st11{fill:#DBE7D7;}
	.st12{fill:#FFA509;}
	.st13{fill:#D2C8B7;}
	.st14{fill:#FFD163;}
	.st15{fill:#D098AA;}
	.st16{fill:#E99708;}
	.st17{fill:#ECE7E8;}
	.st18{fill:#B56851;}
	.st19{fill:#EB97A7;}
	.st20{fill:#D3D15C;}
	.st21{fill:#F1B5AE;}
	.st22{fill:#D8B05C;}
	.st23{fill:#E6C874;}
	.st24{fill:#DAAD73;}
</style>
<g>
	<rect x="60.8" y="29" class="st0" width="5.9" height="5.9"/>
	<rect x="66.6" y="29" class="st0" width="5.9" height="5.9"/>
	<rect x="72.5" y="29" class="st0" width="5.9" height="5.9"/>
	<rect x="78.4" y="29" class="st0" width="5.9" height="5.9"/>
	<rect x="84.3" y="29" class="st0" width="5.9" height="5.9"/>
	<rect x="49" y="34.9" class="st0" width="5.9" height="5.9"/>
	<rect x="54.9" y="34.9" class="st0" width="5.9" height="5.9"/>
	<rect x="60.8" y="34.9" class="st1" width="5.9" height="5.9"/>
	<rect x="66.6" y="34.9" class="st2" width="5.9" height="5.9"/>
	<rect x="72.5" y="34.9" class="st1" width="5.9" height="5.9"/>
	<rect x="78.4" y="34.9" class="st1" width="5.9" height="5.9"/>
	<rect x="84.3" y="34.9" class="st3" width="5.9" height="5.9"/>
	<rect x="90.1" y="34.9" class="st0" width="5.9" height="5.9"/>
	<rect x="113.6" y="34.9" class="st0" width="5.9" height="5.9"/>
	<rect x="119.5" y="34.9" class="st0" width="5.9" height="5.9"/>
	<rect x="125.4" y="34.9" class="st0" width="5.9" height="5.9"/>
	<rect x="43.2" y="40.7" class="st0" width="5.9" height="5.9"/>
	<rect x="49" y="40.7" class="st1" width="5.9" height="5.9"/>
	<rect x="54.9" y="40.7" class="st1" width="5.9" height="5.9"/>
	<rect x="60.8" y="40.7" class="st4" width="5.9" height="5.9"/>
	<rect x="66.6" y="40.7" class="st5" width="5.9" height="5.9"/>
	<rect x="72.5" y="40.7" class="st5" width="5.9" height="5.9"/>
	<rect x="78.4" y="40.7" class="st6" width="5.9" height="5.9"/>
	<rect x="84.3" y="40.7" class="st6" width="5.9" height="5.9"/>
	<rect x="90.1" y="40.7" class="st1" width="5.9" height="5.9"/>
	<rect x="96" y="40.7" class="st0" width="5.9" height="5.9"/>
	<rect x="101.9" y="40.7" class="st0" width="5.9" height="5.9"/>
	<rect x="107.7" y="40.7" class="st0" width="5.9" height="5.9"/>
	<rect x="113.6" y="40.7" class="st7" width="5.9" height="5.9"/>
	<rect x="119.5" y="40.7" class="st2" width="5.9" height="5.9"/>
	<rect x="125.4" y="40.7" class="st1" width="5.9" height="5.9"/>
	<rect x="131.2" y="40.7" class="st0" width="5.9" height="5.9"/>
	<rect x="25.6" y="46.6" class="st0" width="5.9" height="5.9"/>
	<rect x="31.4" y="46.6" class="st0" width="5.9" height="5.9"/>
	<rect x="37.3" y="46.6" class="st0" width="5.9" height="5.9"/>
	<rect x="43.2" y="46.6" class="st1" width="5.9" height="5.9"/>
	<rect x="49" y="46.6" class="st8" width="5.9" height="5.9"/>
	<rect x="54.9" y="46.6" class="st4" width="5.9" height="5.9"/>
	<rect x="60.8" y="46.6" class="st9" width="5.9" height="5.9"/>
	<rect x="66.6" y="46.6" class="st4" width="5.9" height="5.9"/>
	<rect x="72.5" y="46.6" class="st6" width="5.9" height="5.9"/>
	<rect x="78.4" y="46.6" class="st6" width="5.9" height="5.9"/>
	<rect x="84.3" y="46.6" class="st6" width="5.9" height="5.9"/>
	<rect x="90.1" y="46.6" class="st6" width="5.9" height="5.9"/>
	<rect x="96" y="46.6" class="st1" width="5.9" height="5.9"/>
	<rect x="101.9" y="46.6" class="st1" width="5.9" height="5.9"/>
	<rect x="107.7" y="46.6" class="st3" width="5.9" height="5.9"/>
	<rect x="113.6" y="46.6" class="st10" width="5.9" height="5.9"/>
	<rect x="119.5" y="46.6" class="st7" width="5.9" height="5.9"/>
	<rect x="125.4" y="46.6" class="st10" width="5.9" height="5.9"/>
	<rect x="131.2" y="46.6" class="st1" width="5.9" height="5.9"/>
	<rect x="137.1" y="46.6" class="st0" width="5.9" height="5.9"/>
	<rect x="19.7" y="52.5" class="st0" width="5.9" height="5.9"/>
	<rect x="25.6" y="52.5" class="st1" width="5.9" height="5.9"/>
	<rect x="31.4" y="52.5" class="st7" width="5.9" height="5.9"/>
	<rect x="37.3" y="52.5" class="st2" width="5.9" height="5.9"/>
	<rect x="43.2" y="52.5" class="st11" width="5.9" height="5.9"/>
	<rect x="49" y="52.5" class="st8" width="5.9" height="5.9"/>
	<rect x="54.9" y="52.5" class="st4" width="5.9" height="5.9"/>
	<rect x="60.8" y="52.5" class="st4" width="5.9" height="5.9"/>
	<rect x="66.6" y="52.5" class="st6" width="5.9" height="5.9"/>
	<rect x="72.5" y="52.5" class="st6" width="5.9" height="5.9"/>
	<rect x="78.4" y="52.5" class="st6" width="5.9" height="5.9"/>
	<rect x="84.3" y="52.5" class="st6" width="5.9" height="5.9"/>
	<rect x="90.1" y="52.5" class="st8" width="5.9" height="5.9"/>
	<rect x="96" y="52.5" class="st7" width="5.9" height="5.9"/>
	<rect x="101.9" y="52.5" class="st12" width="5.9" height="5.9"/>
	<rect x="107.7" y="52.5" class="st7" width="5.9" height="5.9"/>
	<rect x="113.6" y="52.5" class="st7" width="5.9" height="5.9"/>
	<rect x="119.5" y="52.5" class="st10" width="5.9" height="5.9"/>
	<rect x="125.4" y="52.5" class="st7" width="5.9" height="5.9"/>
	<rect x="131.2" y="52.5" class="st2" width="5.9" height="5.9"/>
	<rect x="137.1" y="52.5" class="st0" width="5.9" height="5.9"/>
	<rect x="13.8" y="58.3" class="st0" width="5.9" height="5.9"/>
	<rect x="19.7" y="58.3" class="st1" width="5.9" height="5.9"/>
	<rect x="25.6" y="58.3" class="st9" width="5.9" height="5.9"/>
	<rect x="31.4" y="58.3" class="st5" width="5.9" height="5.9"/>
	<rect x="37.3" y="58.3" class="st1" width="5.9" height="5.9"/>
	<rect x="43.2" y="58.3" class="st11" width="5.9" height="5.9"/>
	<rect x="49" y="58.3" class="st5" width="5.9" height="5.9"/>
	<rect x="54.9" y="58.3" class="st8" width="5.9" height="5.9"/>
	<rect x="60.8" y="58.3" class="st8" width="5.9" height="5.9"/>
	<rect x="66.6" y="58.3" class="st6" width="5.9" height="5.9"/>
	<rect x="72.5" y="58.3" class="st6" width="5.9" height="5.9"/>
	<rect x="78.4" y="58.3" class="st6" width="5.9" height="5.9"/>
	<rect x="84.3" y="58.3" class="st8" width="5.9" height="5.9"/>
	<rect x="90.1" y="58.3" class="st5" width="5.9" height="5.9"/>
	<rect x="96" y="58.3" class="st11" width="5.9" height="5.9"/>
	<rect x="101.9" y="58.3" class="st7" width="5.9" height="5.9"/>
	<rect x="107.7" y="58.3" class="st12" width="5.9" height="5.9"/>
	<rect x="113.6" y="58.3" class="st12" width="5.9" height="5.9"/>
	<rect x="119.5" y="58.3" class="st7" width="5.9" height="5.9"/>
	<rect x="125.4" y="58.3" class="st10" width="5.9" height="5.9"/>
	<rect x="131.2" y="58.3" class="st7" width="5.9" height="5.9"/>
	<rect x="137.1" y="58.3" class="st0" width="5.9" height="5.9"/>
	<rect x="7.9" y="64.2" class="st0" width="5.9" height="5.9"/>
	<rect x="13.8" y="64.2" class="st1" width="5.9" height="5.9"/>
	<rect x="19.7" y="64.2" class="st5" width="5.9" height="5.9"/>
	<rect x="25.6" y="64.2" class="st6" width="5.9" height="5.9"/>
	<rect x="31.4" y="64.2" class="st6" width="5.9" height="5.9"/>
	<rect x="37.3" y="64.2" class="st1" width="5.9" height="5.9"/>
	<rect x="43.2" y="64.2" class="st13" width="5.9" height="5.9"/>
	<rect x="49" y="64.2" class="st5" width="5.9" height="5.9"/>
	<rect x="54.9" y="64.2" class="st5" width="5.9" height="5.9"/>
	<rect x="60.8" y="64.2" class="st5" width="5.9" height="5.9"/>
	<rect x="66.6" y="64.2" class="st8" width="5.9" height="5.9"/>
	<rect x="72.5" y="64.2" class="st8" width="5.9" height="5.9"/>
	<rect x="78.4" y="64.2" class="st8" width="5.9" height="5.9"/>
	<rect x="84.3" y="64.2" class="st5" width="5.9" height="5.9"/>
	<rect x="90.1" y="64.2" class="st5" width="5.9" height="5.9"/>
	<rect x="96" y="64.2" class="st13" width="5.9" height="5.9"/>
	<rect x="101.9" y="64.2" class="st7" width="5.9" height="5.9"/>
	<rect x="107.7" y="64.2" class="st12" width="5.9" height="5.9"/>
	<rect x="113.6" y="64.2" class="st14" width="5.9" height="5.9"/>
	<rect x="119.5" y="64.2" class="st12" width="5.9" height="5.9"/>
	<rect x="125.4" y="64.2" class="st7" width="5.9" height="5.9"/>
	<rect x="131.2" y="64.2" class="st0" width="5.9" height="5.9"/>
	<rect x="7.9" y="70.1" class="st0" width="5.9" height="5.9"/>
	<rect x="13.8" y="70.1" class="st1" width="5.9" height="5.9"/>
	<rect x="19.7" y="70.1" class="st5" width="5.9" height="5.9"/>
	<rect x="25.6" y="70.1" class="st5" width="5.9" height="5.9"/>
	<rect x="31.4" y="70.1" class="st8" width="5.9" height="5.9"/>
	<rect x="37.3" y="70.1" class="st1" width="5.9" height="5.9"/>
	<rect x="43.2" y="70.1" class="st13" width="5.9" height="5.9"/>
	<rect x="49" y="70.1" class="st5" width="5.9" height="5.9"/>
	<rect x="54.9" y="70.1" class="st5" width="5.9" height="5.9"/>
	<rect x="60.8" y="70.1" class="st5" width="5.9" height="5.9"/>
	<rect x="66.6" y="70.1" class="st5" width="5.9" height="5.9"/>
	<rect x="72.5" y="70.1" class="st5" width="5.9" height="5.9"/>
	<rect x="78.4" y="70.1" class="st5" width="5.9" height="5.9"/>
	<rect x="84.3" y="70.1" class="st5" width="5.9" height="5.9"/>
	<rect x="90.1" y="70.1" class="st5" width="5.9" height="5.9"/>
	<rect x="96" y="70.1" class="st13" width="5.9" height="5.9"/>
	<rect x="101.9" y="70.1" class="st7" width="5.9" height="5.9"/>
	<rect x="107.7" y="70.1" class="st12" width="5.9" height="5.9"/>
	<rect x="113.6" y="70.1" class="st12" width="5.9" height="5.9"/>
	<rect x="119.5" y="70.1" class="st12" width="5.9" height="5.9"/>
	<rect x="125.4" y="70.1" class="st14" width="5.9" height="5.9"/>
	<rect x="131.2" y="70.1" class="st2" width="5.9" height="5.9"/>
	<rect x="137.1" y="70.1" class="st0" width="5.9" height="5.9"/>
	<rect x="7.9" y="76" class="st0" width="5.9" height="5.9"/>
	<rect x="13.8" y="76" class="st15" width="5.9" height="5.9"/>
	<rect x="19.7" y="76" class="st11" width="5.9" height="5.9"/>
	<rect x="25.6" y="76" class="st13" width="5.9" height="5.9"/>
	<rect x="31.4" y="76" class="st7" width="5.9" height="5.9"/>
	<rect x="37.3" y="76" class="st12" width="5.9" height="5.9"/>
	<rect x="43.2" y="76" class="st15" width="5.9" height="5.9"/>
	<rect x="49" y="76" class="st13" width="5.9" height="5.9"/>
	<rect x="54.9" y="76" class="st5" width="5.9" height="5.9"/>
	<rect x="60.8" y="76" class="st5" width="5.9" height="5.9"/>
	<rect x="66.6" y="76" class="st5" width="5.9" height="5.9"/>
	<rect x="72.5" y="76" class="st5" width="5.9" height="5.9"/>
	<rect x="78.4" y="76" class="st5" width="5.9" height="5.9"/>
	<rect x="84.3" y="76" class="st5" width="5.9" height="5.9"/>
	<rect x="90.1" y="76" class="st13" width="5.9" height="5.9"/>
	<rect x="96" y="76" class="st7" width="5.9" height="5.9"/>
	<rect x="101.9" y="76" class="st12" width="5.9" height="5.9"/>
	<rect x="107.7" y="76" class="st16" width="5.9" height="5.9"/>
	<rect x="113.6" y="76" class="st12" width="5.9" height="5.9"/>
	<rect x="119.5" y="76" class="st14" width="5.9" height="5.9"/>
	<rect x="125.4" y="76" class="st12" width="5.9" height="5.9"/>
	<rect x="131.2" y="76" class="st12" width="5.9" height="5.9"/>
	<rect x="137.1" y="76" class="st2" width="5.9" height="5.9"/>
	<rect x="143" y="76" class="st0" width="5.9" height="5.9"/>
	<rect x="166.4" y="76" class="st0" width="5.9" height="5.9"/>
	<rect x="7.9" y="81.8" class="st0" width="5.9" height="5.9"/>
	<rect x="13.8" y="81.8" class="st1" width="5.9" height="5.9"/>
	<rect x="19.7" y="81.8" class="st15" width="5.9" height="5.9"/>
	<rect x="25.6" y="81.8" class="st7" width="5.9" height="5.9"/>
	<rect x="31.4" y="81.8" class="st12" width="5.9" height="5.9"/>
	<rect x="37.3" y="81.8" class="st12" width="5.9" height="5.9"/>
	<rect x="43.2" y="81.8" class="st12" width="5.9" height="5.9"/>
	<rect x="49" y="81.8" class="st7" width="5.9" height="5.9"/>
	<rect x="54.9" y="81.8" class="st13" width="5.9" height="5.9"/>
	<rect x="60.8" y="81.8" class="st13" width="5.9" height="5.9"/>
	<rect x="66.6" y="81.8" class="st13" width="5.9" height="5.9"/>
	<rect x="72.5" y="81.8" class="st13" width="5.9" height="5.9"/>
	<rect x="78.4" y="81.8" class="st13" width="5.9" height="5.9"/>
	<rect x="84.3" y="81.8" class="st13" width="5.9" height="5.9"/>
	<rect x="90.1" y="81.8" class="st7" width="5.9" height="5.9"/>
	<rect x="96" y="81.8" class="st12" width="5.9" height="5.9"/>
	<rect x="101.9" y="81.8" class="st16" width="5.9" height="5.9"/>
	<rect x="107.7" y="81.8" class="st7" width="5.9" height="5.9"/>
	<rect x="113.6" y="81.8" class="st12" width="5.9" height="5.9"/>
	<rect x="119.5" y="81.8" class="st12" width="5.9" height="5.9"/>
	<rect x="125.4" y="81.8" class="st12" width="5.9" height="5.9"/>
	<rect x="131.2" y="81.8" class="st14" width="5.9" height="5.9"/>
	<rect x="137.1" y="81.8" class="st12" width="5.9" height="5.9"/>
	<rect x="143" y="81.8" class="st7" width="5.9" height="5.9"/>
	<rect x="148.8" y="81.8" class="st0" width="5.9" height="5.9"/>
	<rect x="160.6" y="81.8" class="st0" width="5.9" height="5.9"/>
	<rect x="166.4" y="81.8" class="st1" width="5.9" height="5.9"/>
	<rect x="172.3" y="81.8" class="st0" width="5.9" height="5.9"/>
	<rect x="13.8" y="87.7" class="st0" width="5.9" height="5.9"/>
	<rect x="19.7" y="87.7" class="st7" width="5.9" height="5.9"/>
	<rect x="25.6" y="87.7" class="st17" width="5.9" height="5.9"/>
	<rect x="31.4" y="87.7" class="st16" width="5.9" height="5.9"/>
	<rect x="37.3" y="87.7" class="st16" width="5.9" height="5.9"/>
	<rect x="43.2" y="87.7" class="st16" width="5.9" height="5.9"/>
	<rect x="49" y="87.7" class="st17" width="5.9" height="5.9"/>
	<rect x="54.9" y="87.7" class="st15" width="5.9" height="5.9"/>
	<rect x="60.8" y="87.7" class="st15" width="5.9" height="5.9"/>
	<rect x="66.6" y="87.7" class="st18" width="5.9" height="5.9"/>
	<rect x="72.5" y="87.7" class="st7" width="5.9" height="5.9"/>
	<rect x="78.4" y="87.7" class="st7" width="5.9" height="5.9"/>
	<rect x="84.3" y="87.7" class="st7" width="5.9" height="5.9"/>
	<rect x="90.1" y="87.7" class="st16" width="5.9" height="5.9"/>
	<rect x="96" y="87.7" class="st16" width="5.9" height="5.9"/>
	<rect x="101.9" y="87.7" class="st7" width="5.9" height="5.9"/>
	<rect x="107.7" y="87.7" class="st12" width="5.9" height="5.9"/>
	<rect x="113.6" y="87.7" class="st12" width="5.9" height="5.9"/>
	<rect x="119.5" y="87.7" class="st12" width="5.9" height="5.9"/>
	<rect x="125.4" y="87.7" class="st12" width="5.9" height="5.9"/>
	<rect x="131.2" y="87.7" class="st12" width="5.9" height="5.9"/>
	<rect x="137.1" y="87.7" class="st14" width="5.9" height="5.9"/>
	<rect x="143" y="87.7" class="st12" width="5.9" height="5.9"/>
	<rect x="148.8" y="87.7" class="st7" width="5.9" height="5.9"/>
	<rect x="154.7" y="87.7" class="st0" width="5.9" height="5.9"/>
	<rect x="160.6" y="87.7" class="st7" width="5.9" height="5.9"/>
	<rect x="166.4" y="87.7" class="st10" width="5.9" height="5.9"/>
	<rect x="172.3" y="87.7" class="st2" width="5.9" height="5.9"/>
	<rect x="178.2" y="87.7" class="st0" width="5.9" height="5.9"/>
	<rect x="13.8" y="93.6" class="st0" width="5.9" height="5.9"/>
	<rect x="19.7" y="93.6" class="st7" width="5.9" height="5.9"/>
	<rect x="25.6" y="93.6" class="st7" width="5.9" height="5.9"/>
	<rect x="31.4" y="93.6" class="st7" width="5.9" height="5.9"/>
	<rect x="37.3" y="93.6" class="st18" width="5.9" height="5.9"/>
	<rect x="43.2" y="93.6" class="st7" width="5.9" height="5.9"/>
	<rect x="49" y="93.6" class="st7" width="5.9" height="5.9"/>
	<rect x="54.9" y="93.6" class="st16" width="5.9" height="5.9"/>
	<rect x="60.8" y="93.6" class="st12" width="5.9" height="5.9"/>
	<rect x="66.6" y="93.6" class="st12" width="5.9" height="5.9"/>
	<rect x="72.5" y="93.6" class="st12" width="5.9" height="5.9"/>
	<rect x="78.4" y="93.6" class="st12" width="5.9" height="5.9"/>
	<rect x="84.3" y="93.6" class="st12" width="5.9" height="5.9"/>
	<rect x="90.1" y="93.6" class="st7" width="5.9" height="5.9"/>
	<rect x="96" y="93.6" class="st7" width="5.9" height="5.9"/>
	<rect x="101.9" y="93.6" class="st12" width="5.9" height="5.9"/>
	<rect x="107.7" y="93.6" class="st12" width="5.9" height="5.9"/>
	<rect x="113.6" y="93.6" class="st12" width="5.9" height="5.9"/>
	<rect x="119.5" y="93.6" class="st12" width="5.9" height="5.9"/>
	<rect x="125.4" y="93.6" class="st12" width="5.9" height="5.9"/>
	<rect x="131.2" y="93.6" class="st12" width="5.9" height="5.9"/>
	<rect x="137.1" y="93.6" class="st12" width="5.9" height="5.9"/>
	<rect x="143" y="93.6" class="st12" width="5.9" height="5.9"/>
	<rect x="148.8" y="93.6" class="st16" width="5.9" height="5.9"/>
	<rect x="154.7" y="93.6" class="st7" width="5.9" height="5.9"/>
	<rect x="160.6" y="93.6" class="st10" width="5.9" height="5.9"/>
	<rect x="166.4" y="93.6" class="st7" width="5.9" height="5.9"/>
	<rect x="172.3" y="93.6" class="st3" width="5.9" height="5.9"/>
	<rect x="178.2" y="93.6" class="st0" width="5.9" height="5.9"/>
	<rect x="13.8" y="99.4" class="st0" width="5.9" height="5.9"/>
	<rect x="19.7" y="99.4" class="st3" width="5.9" height="5.9"/>
	<rect x="25.6" y="99.4" class="st10" width="5.9" height="5.9"/>
	<rect x="31.4" y="99.4" class="st10" width="5.9" height="5.9"/>
	<rect x="37.3" y="99.4" class="st10" width="5.9" height="5.9"/>
	<rect x="43.2" y="99.4" class="st10" width="5.9" height="5.9"/>
	<rect x="49" y="99.4" class="st10" width="5.9" height="5.9"/>
	<rect x="54.9" y="99.4" class="st7" width="5.9" height="5.9"/>
	<rect x="60.8" y="99.4" class="st16" width="5.9" height="5.9"/>
	<rect x="66.6" y="99.4" class="st16" width="5.9" height="5.9"/>
	<rect x="72.5" y="99.4" class="st12" width="5.9" height="5.9"/>
	<rect x="78.4" y="99.4" class="st12" width="5.9" height="5.9"/>
	<rect x="84.3" y="99.4" class="st12" width="5.9" height="5.9"/>
	<rect x="90.1" y="99.4" class="st12" width="5.9" height="5.9"/>
	<rect x="96" y="99.4" class="st12" width="5.9" height="5.9"/>
	<rect x="101.9" y="99.4" class="st12" width="5.9" height="5.9"/>
	<rect x="107.7" y="99.4" class="st7" width="5.9" height="5.9"/>
	<rect x="113.6" y="99.4" class="st7" width="5.9" height="5.9"/>
	<rect x="119.5" y="99.4" class="st12" width="5.9" height="5.9"/>
	<rect x="125.4" y="99.4" class="st12" width="5.9" height="5.9"/>
	<rect x="131.2" y="99.4" class="st12" width="5.9" height="5.9"/>
	<rect x="137.1" y="99.4" class="st16" width="5.9" height="5.9"/>
	<rect x="143" y="99.4" class="st16" width="5.9" height="5.9"/>
	<rect x="148.8" y="99.4" class="st7" width="5.9" height="5.9"/>
	<rect x="154.7" y="99.4" class="st10" width="5.9" height="5.9"/>
	<rect x="160.6" y="99.4" class="st7" width="5.9" height="5.9"/>
	<rect x="166.4" y="99.4" class="st10" width="5.9" height="5.9"/>
	<rect x="172.3" y="99.4" class="st1" width="5.9" height="5.9"/>
	<rect x="178.2" y="99.4" class="st0" width="5.9" height="5.9"/>
	<rect x="13.8" y="105.3" class="st0" width="5.9" height="5.9"/>
	<rect x="19.7" y="105.3" class="st3" width="5.9" height="5.9"/>
	<rect x="25.6" y="105.3" class="st19" width="5.9" height="5.9"/>
	<rect x="31.4" y="105.3" class="st20" width="5.9" height="5.9"/>
	<rect x="37.3" y="105.3" class="st21" width="5.9" height="5.9"/>
	<rect x="43.2" y="105.3" class="st20" width="5.9" height="5.9"/>
	<rect x="49" y="105.3" class="st20" width="5.9" height="5.9"/>
	<rect x="54.9" y="105.3" class="st20" width="5.9" height="5.9"/>
	<rect x="60.8" y="105.3" class="st7" width="5.9" height="5.9"/>
	<rect x="66.6" y="105.3" class="st18" width="5.9" height="5.9"/>
	<rect x="72.5" y="105.3" class="st16" width="5.9" height="5.9"/>
	<rect x="78.4" y="105.3" class="st16" width="5.9" height="5.9"/>
	<rect x="84.3" y="105.3" class="st12" width="5.9" height="5.9"/>
	<rect x="90.1" y="105.3" class="st12" width="5.9" height="5.9"/>
	<rect x="96" y="105.3" class="st18" width="5.9" height="5.9"/>
	<rect x="101.9" y="105.3" class="st10" width="5.9" height="5.9"/>
	<rect x="107.7" y="105.3" class="st10" width="5.9" height="5.9"/>
	<rect x="113.6" y="105.3" class="st7" width="5.9" height="5.9"/>
	<rect x="119.5" y="105.3" class="st7" width="5.9" height="5.9"/>
	<rect x="125.4" y="105.3" class="st7" width="5.9" height="5.9"/>
	<rect x="131.2" y="105.3" class="st16" width="5.9" height="5.9"/>
	<rect x="137.1" y="105.3" class="st7" width="5.9" height="5.9"/>
	<rect x="143" y="105.3" class="st7" width="5.9" height="5.9"/>
	<rect x="148.8" y="105.3" class="st22" width="5.9" height="5.9"/>
	<rect x="154.7" y="105.3" class="st7" width="5.9" height="5.9"/>
	<rect x="160.6" y="105.3" class="st10" width="5.9" height="5.9"/>
	<rect x="166.4" y="105.3" class="st7" width="5.9" height="5.9"/>
	<rect x="172.3" y="105.3" class="st3" width="5.9" height="5.9"/>
	<rect x="178.2" y="105.3" class="st0" width="5.9" height="5.9"/>
	<rect x="19.7" y="111.2" class="st0" width="5.9" height="5.9"/>
	<rect x="25.6" y="111.2" class="st3" width="5.9" height="5.9"/>
	<rect x="31.4" y="111.2" class="st21" width="5.9" height="5.9"/>
	<rect x="37.3" y="111.2" class="st20" width="5.9" height="5.9"/>
	<rect x="43.2" y="111.2" class="st20" width="5.9" height="5.9"/>
	<rect x="49" y="111.2" class="st21" width="5.9" height="5.9"/>
	<rect x="54.9" y="111.2" class="st20" width="5.9" height="5.9"/>
	<rect x="60.8" y="111.2" class="st20" width="5.9" height="5.9"/>
	<rect x="66.6" y="111.2" class="st20" width="5.9" height="5.9"/>
	<rect x="72.5" y="111.2" class="st7" width="5.9" height="5.9"/>
	<rect x="78.4" y="111.2" class="st7" width="5.9" height="5.9"/>
	<rect x="84.3" y="111.2" class="st16" width="5.9" height="5.9"/>
	<rect x="90.1" y="111.2" class="st16" width="5.9" height="5.9"/>
	<rect x="96" y="111.2" class="st18" width="5.9" height="5.9"/>
	<rect x="101.9" y="111.2" class="st10" width="5.9" height="5.9"/>
	<rect x="107.7" y="111.2" class="st7" width="5.9" height="5.9"/>
	<rect x="113.6" y="111.2" class="st10" width="5.9" height="5.9"/>
	<rect x="119.5" y="111.2" class="st10" width="5.9" height="5.9"/>
	<rect x="125.4" y="111.2" class="st7" width="5.9" height="5.9"/>
	<rect x="131.2" y="111.2" class="st7" width="5.9" height="5.9"/>
	<rect x="137.1" y="111.2" class="st23" width="5.9" height="5.9"/>
	<rect x="143" y="111.2" class="st22" width="5.9" height="5.9"/>
	<rect x="148.8" y="111.2" class="st3" width="5.9" height="5.9"/>
	<rect x="154.7" y="111.2" class="st0" width="5.9" height="5.9"/>
	<rect x="160.6" y="111.2" class="st7" width="5.9" height="5.9"/>
	<rect x="166.4" y="111.2" class="st10" width="5.9" height="5.9"/>
	<rect x="172.3" y="111.2" class="st2" width="5.9" height="5.9"/>
	<rect x="178.2" y="111.2" class="st0" width="5.9" height="5.9"/>
	<rect x="19.7" y="117" class="st0" width="5.9" height="5.9"/>
	<rect x="25.6" y="117" class="st3" width="5.9" height="5.9"/>
	<rect x="31.4" y="117" class="st19" width="5.9" height="5.9"/>
	<rect x="37.3" y="117" class="st20" width="5.9" height="5.9"/>
	<rect x="43.2" y="117" class="st21" width="5.9" height="5.9"/>
	<rect x="49" y="117" class="st20" width="5.9" height="5.9"/>
	<rect x="54.9" y="117" class="st20" width="5.9" height="5.9"/>
	<rect x="60.8" y="117" class="st24" width="5.9" height="5.9"/>
	<rect x="66.6" y="117" class="st20" width="5.9" height="5.9"/>
	<rect x="72.5" y="117" class="st20" width="5.9" height="5.9"/>
	<rect x="78.4" y="117" class="st20" width="5.9" height="5.9"/>
	<rect x="84.3" y="117" class="st7" width="5.9" height="5.9"/>
	<rect x="90.1" y="117" class="st7" width="5.9" height="5.9"/>
	<rect x="96" y="117" class="st7" width="5.9" height="5.9"/>
	<rect x="101.9" y="117" class="st10" width="5.9" height="5.9"/>
	<rect x="107.7" y="117" class="st10" width="5.9" height="5.9"/>
	<rect x="113.6" y="117" class="st7" width="5.9" height="5.9"/>
	<rect x="119.5" y="117" class="st10" width="5.9" height="5.9"/>
	<rect x="125.4" y="117" class="st7" width="5.9" height="5.9"/>
	<rect x="131.2" y="117" class="st23" width="5.9" height="5.9"/>
	<rect x="137.1" y="117" class="st22" width="5.9" height="5.9"/>
	<rect x="143" y="117" class="st3" width="5.9" height="5.9"/>
	<rect x="148.8" y="117" class="st0" width="5.9" height="5.9"/>
	<rect x="160.6" y="117" class="st0" width="5.9" height="5.9"/>
	<rect x="166.4" y="117" class="st1" width="5.9" height="5.9"/>
	<rect x="172.3" y="117" class="st0" width="5.9" height="5.9"/>
	<rect x="25.6" y="122.9" class="st0" width="5.9" height="5.9"/>
	<rect x="31.4" y="122.9" class="st7" width="5.9" height="5.9"/>
	<rect x="37.3" y="122.9" class="st19" width="5.9" height="5.9"/>
	<rect x="43.2" y="122.9" class="st20" width="5.9" height="5.9"/>
	<rect x="49" y="122.9" class="st21" width="5.9" height="5.9"/>
	<rect x="54.9" y="122.9" class="st20" width="5.9" height="5.9"/>
	<rect x="60.8" y="122.9" class="st20" width="5.9" height="5.9"/>
	<rect x="66.6" y="122.9" class="st20" width="5.9" height="5.9"/>
	<rect x="72.5" y="122.9" class="st20" width="5.9" height="5.9"/>
	<rect x="78.4" y="122.9" class="st20" width="5.9" height="5.9"/>
	<rect x="84.3" y="122.9" class="st20" width="5.9" height="5.9"/>
	<rect x="90.1" y="122.9" class="st20" width="5.9" height="5.9"/>
	<rect x="96" y="122.9" class="st7" width="5.9" height="5.9"/>
	<rect x="101.9" y="122.9" class="st7" width="5.9" height="5.9"/>
	<rect x="107.7" y="122.9" class="st10" width="5.9" height="5.9"/>
	<rect x="113.6" y="122.9" class="st10" width="5.9" height="5.9"/>
	<rect x="119.5" y="122.9" class="st7" width="5.9" height="5.9"/>
	<rect x="125.4" y="122.9" class="st3" width="5.9" height="5.9"/>
	<rect x="131.2" y="122.9" class="st22" width="5.9" height="5.9"/>
	<rect x="137.1" y="122.9" class="st7" width="5.9" height="5.9"/>
	<rect x="143" y="122.9" class="st0" width="5.9" height="5.9"/>
	<rect x="166.4" y="122.9" class="st0" width="5.9" height="5.9"/>
	<rect x="31.4" y="128.8" class="st0" width="5.9" height="5.9"/>
	<rect x="37.3" y="128.8" class="st3" width="5.9" height="5.9"/>
	<rect x="43.2" y="128.8" class="st21" width="5.9" height="5.9"/>
	<rect x="49" y="128.8" class="st20" width="5.9" height="5.9"/>
	<rect x="54.9" y="128.8" class="st21" width="5.9" height="5.9"/>
	<rect x="60.8" y="128.8" class="st20" width="5.9" height="5.9"/>
	<rect x="66.6" y="128.8" class="st24" width="5.9" height="5.9"/>
	<rect x="72.5" y="128.8" class="st20" width="5.9" height="5.9"/>
	<rect x="78.4" y="128.8" class="st20" width="5.9" height="5.9"/>
	<rect x="84.3" y="128.8" class="st20" width="5.9" height="5.9"/>
	<rect x="90.1" y="128.8" class="st24" width="5.9" height="5.9"/>
	<rect x="96" y="128.8" class="st20" width="5.9" height="5.9"/>
	<rect x="101.9" y="128.8" class="st20" width="5.9" height="5.9"/>
	<rect x="107.7" y="128.8" class="st7" width="5.9" height="5.9"/>
	<rect x="113.6" y="128.8" class="st7" width="5.9" height="5.9"/>
	<rect x="119.5" y="128.8" class="st3" width="5.9" height="5.9"/>
	<rect x="125.4" y="128.8" class="st22" width="5.9" height="5.9"/>
	<rect x="131.2" y="128.8" class="st3" width="5.9" height="5.9"/>
	<rect x="137.1" y="128.8" class="st0" width="5.9" height="5.9"/>
	<rect x="37.3" y="134.7" class="st0" width="5.9" height="5.9"/>
	<rect x="43.2" y="134.7" class="st3" width="5.9" height="5.9"/>
	<rect x="49" y="134.7" class="st19" width="5.9" height="5.9"/>
	<rect x="54.9" y="134.7" class="st20" width="5.9" height="5.9"/>
	<rect x="60.8" y="134.7" class="st24" width="5.9" height="5.9"/>
	<rect x="66.6" y="134.7" class="st20" width="5.9" height="5.9"/>
	<rect x="72.5" y="134.7" class="st20" width="5.9" height="5.9"/>
	<rect x="78.4" y="134.7" class="st24" width="5.9" height="5.9"/>
	<rect x="84.3" y="134.7" class="st20" width="5.9" height="5.9"/>
	<rect x="90.1" y="134.7" class="st20" width="5.9" height="5.9"/>
	<rect x="96" y="134.7" class="st24" width="5.9" height="5.9"/>
	<rect x="101.9" y="134.7" class="st20" width="5.9" height="5.9"/>
	<rect x="107.7" y="134.7" class="st23" width="5.9" height="5.9"/>
	<rect x="113.6" y="134.7" class="st23" width="5.9" height="5.9"/>
	<rect x="119.5" y="134.7" class="st22" width="5.9" height="5.9"/>
	<rect x="125.4" y="134.7" class="st3" width="5.9" height="5.9"/>
	<rect x="131.2" y="134.7" class="st0" width="5.9" height="5.9"/>
	<rect x="43.2" y="140.5" class="st0" width="5.9" height="5.9"/>
	<rect x="49" y="140.5" class="st7" width="5.9" height="5.9"/>
	<rect x="54.9" y="140.5" class="st19" width="5.9" height="5.9"/>
	<rect x="60.8" y="140.5" class="st19" width="5.9" height="5.9"/>
	<rect x="66.6" y="140.5" class="st21" width="5.9" height="5.9"/>
	<rect x="72.5" y="140.5" class="st20" width="5.9" height="5.9"/>
	<rect x="78.4" y="140.5" class="st20" width="5.9" height="5.9"/>
	<rect x="84.3" y="140.5" class="st24" width="5.9" height="5.9"/>
	<rect x="90.1" y="140.5" class="st23" width="5.9" height="5.9"/>
	<rect x="96" y="140.5" class="st23" width="5.9" height="5.9"/>
	<rect x="101.9" y="140.5" class="st19" width="5.9" height="5.9"/>
	<rect x="107.7" y="140.5" class="st22" width="5.9" height="5.9"/>
	<rect x="113.6" y="140.5" class="st22" width="5.9" height="5.9"/>
	<rect x="119.5" y="140.5" class="st3" width="5.9" height="5.9"/>
	<rect x="125.4" y="140.5" class="st0" width="5.9" height="5.9"/>
	<rect x="49" y="146.4" class="st0" width="5.9" height="5.9"/>
	<rect x="54.9" y="146.4" class="st7" width="5.9" height="5.9"/>
	<rect x="60.8" y="146.4" class="st3" width="5.9" height="5.9"/>
	<rect x="66.6" y="146.4" class="st3" width="5.9" height="5.9"/>
	<rect x="72.5" y="146.4" class="st19" width="5.9" height="5.9"/>
	<rect x="78.4" y="146.4" class="st21" width="5.9" height="5.9"/>
	<rect x="84.3" y="146.4" class="st22" width="5.9" height="5.9"/>
	<rect x="90.1" y="146.4" class="st19" width="5.9" height="5.9"/>
	<rect x="96" y="146.4" class="st19" width="5.9" height="5.9"/>
	<rect x="101.9" y="146.4" class="st3" width="5.9" height="5.9"/>
	<rect x="107.7" y="146.4" class="st3" width="5.9" height="5.9"/>
	<rect x="113.6" y="146.4" class="st7" width="5.9" height="5.9"/>
	<rect x="119.5" y="146.4" class="st0" width="5.9" height="5.9"/>
	<rect x="54.9" y="152.3" class="st0" width="5.9" height="5.9"/>
	<rect x="60.8" y="152.3" class="st0" width="5.9" height="5.9"/>
	<rect x="66.6" y="152.3" class="st0" width="5.9" height="5.9"/>
	<rect x="72.5" y="152.3" class="st7" width="5.9" height="5.9"/>
	<rect x="78.4" y="152.3" class="st3" width="5.9" height="5.9"/>
	<rect x="84.3" y="152.3" class="st3" width="5.9" height="5.9"/>
	<rect x="90.1" y="152.3" class="st7" width="5.9" height="5.9"/>
	<rect x="96" y="152.3" class="st7" width="5.9" height="5.9"/>
	<rect x="101.9" y="152.3" class="st0" width="5.9" height="5.9"/>
	<rect x="107.7" y="152.3" class="st0" width="5.9" height="5.9"/>
	<rect x="113.6" y="152.3" class="st0" width="5.9" height="5.9"/>
	<rect x="72.5" y="158.1" class="st0" width="5.9" height="5.9"/>
	<rect x="78.4" y="158.1" class="st0" width="5.9" height="5.9"/>
	<rect x="84.3" y="158.1" class="st0" width="5.9" height="5.9"/>
	<rect x="90.1" y="158.1" class="st0" width="5.9" height="5.9"/>
	<rect x="96" y="158.1" class="st0" width="5.9" height="5.9"/>
</g>
</svg>
