<?xml version="1.0" encoding="UTF-8"?><svg id="Layer_1" xmlns="http://www.w3.org/2000/svg" viewBox="0 0 500 430"><defs><style>.cls-1,.cls-2{stroke:#914938;stroke-miterlimit:10;stroke-width:2px;}.cls-1,.cls-3{fill:#914938;}.cls-4{fill:#f4ebd4;font-family:Roboto-Bold, Roboto;font-size:20.36px;font-weight:700;}.cls-2{fill:none;}.cls-3{stroke-width:0px;}</style></defs><path class="cls-3" d="m185.07,144.83c-1.44,3.6-4.32,5.4-9.36,6.12-2.88,53.28-9.72,98.64-14.76,106.2h.36c35.28-26.28,90.36-44.28,132.48-44.28,55.44,0,90,28.44,89.28,78.84-1.08,66.24-55.8,95.76-195.12,101.52-1.8-6.84-5.04-16.92-9-23.76,125.64-5.4,176.04-25.92,177.12-77.4.36-34.56-23.76-55.44-65.88-55.44-66.6,0-126.72,39.96-136.8,57.6l-24.48-11.88c7.2-6.84,19.8-71.28,20.52-141.84l35.64,4.32Zm6.12-69.84c48.96,5.76,104.4,16.92,139.68,31.68l-9,24.84c-37.08-15.84-90.72-26.28-138.24-32.76l7.56-23.76Z"/><path class="cls-2" d="m201.53,60.99s85.33,10.83,122.62,28.26"/><path class="cls-2" d="m135.12,153.97s-3.85,81.44-13.97,111.9"/><path class="cls-2" d="m353.95,214.9s58.05,17.06,40.53,96.14"/><polygon class="cls-1" points="318.53 86.86 320.73 82.65 324.82 87.47 328.92 92.28 322.62 91.68 316.33 91.07 318.53 86.86"/><polygon class="cls-1" points="123.09 258.09 127.49 259.86 123.1 264.41 118.71 268.96 118.69 262.64 118.68 256.31 123.09 258.09"/><polygon class="cls-1" points="395.46 306.64 400 308.05 395.99 312.94 391.99 317.83 391.45 311.53 390.92 305.23 395.46 306.64"/><circle class="cls-1" cx="173.03" cy="52.87" r="16.1"/><text class="cls-4" transform="translate(167.19 60.17)"><tspan x="0" y="0">1</tspan></text><circle class="cls-1" cx="116.1" cy="134.35" r="16.1"/><text class="cls-4" transform="translate(110.26 141.66)"><tspan x="0" y="0">2</tspan></text></svg>