<?xml version="1.0" encoding="UTF-8"?><svg xmlns="http://www.w3.org/2000/svg" viewBox="0 0 192 192"><defs><style>.cls-1{fill:#5cabe1;}.cls-1,.cls-2,.cls-3,.cls-4,.cls-5,.cls-6,.cls-7,.cls-8,.cls-9,.cls-10,.cls-11,.cls-12,.cls-13,.cls-14,.cls-15,.cls-16{stroke-width:0px;}.cls-2{fill:#d45d82;}.cls-3{fill:#d0d7e6;}.cls-4{fill:#afb5ca;}.cls-5{fill:#da7fa0;}.cls-6{fill:#b8d3e5;}.cls-7{fill:#8d5386;}.cls-8{fill:#b55d83;}.cls-9{fill:#733c81;}.cls-10{fill:#ece7e8;}.cls-11{fill:#e87687;}.cls-12{fill:#efdce5;}.cls-13{fill:#ecd9d3;}.cls-14{fill:#f1bac7;}.cls-15{fill:#e7a55d;}.cls-16{fill:#eb97a7;}</style></defs><g id="Layer_1" shape-rendering="crispEdges"><rect class="cls-1" x="42.82" y="13.27" width="5.91" height="5.91"/><rect class="cls-1" x="48.73" y="13.27" width="5.91" height="5.91"/><rect class="cls-1" x="137.36" y="13.27" width="5.91" height="5.91"/><rect class="cls-1" x="143.27" y="13.27" width="5.91" height="5.91"/><rect class="cls-1" x="36.91" y="19.18" width="5.91" height="5.91"/><rect class="cls-9" x="42.82" y="19.18" width="5.91" height="5.91"/><rect class="cls-7" x="48.73" y="19.18" width="5.91" height="5.91"/><rect class="cls-1" x="54.64" y="19.18" width="5.91" height="5.91"/><rect class="cls-1" x="131.45" y="19.18" width="5.91" height="5.91"/><rect class="cls-7" x="137.36" y="19.18" width="5.91" height="5.91"/><rect class="cls-9" x="143.27" y="19.18" width="5.91" height="5.91"/><rect class="cls-1" x="149.18" y="19.18" width="5.91" height="5.91"/><rect class="cls-1" x="31" y="25.09" width="5.91" height="5.91"/><rect class="cls-9" x="36.91" y="25.09" width="5.91" height="5.91"/><rect class="cls-10" x="42.82" y="25.09" width="5.91" height="5.91"/><rect class="cls-10" x="48.73" y="25.09" width="5.91" height="5.91"/><rect class="cls-7" x="54.64" y="25.09" width="5.91" height="5.91"/><rect class="cls-1" x="60.55" y="25.09" width="5.91" height="5.91"/><rect class="cls-1" x="125.55" y="25.09" width="5.91" height="5.91"/><rect class="cls-7" x="131.45" y="25.09" width="5.91" height="5.91"/><rect class="cls-10" x="137.36" y="25.09" width="5.91" height="5.91"/><rect class="cls-10" x="143.27" y="25.09" width="5.91" height="5.91"/><rect class="cls-9" x="149.18" y="25.09" width="5.91" height="5.91"/><rect class="cls-1" x="155.09" y="25.09" width="5.91" height="5.91"/><rect class="cls-1" x="31" y="31" width="5.91" height="5.91"/><rect class="cls-7" x="36.91" y="31" width="5.91" height="5.91"/><rect class="cls-10" x="42.82" y="31" width="5.91" height="5.91"/><rect class="cls-10" x="48.73" y="31" width="5.91" height="5.91"/><rect class="cls-10" x="54.64" y="31" width="5.91" height="5.91"/><rect class="cls-7" x="60.55" y="31" width="5.91" height="5.91"/><rect class="cls-1" x="66.45" y="31" width="5.91" height="5.91"/><rect class="cls-1" x="119.64" y="31" width="5.91" height="5.91"/><rect class="cls-7" x="125.55" y="31" width="5.91" height="5.91"/><rect class="cls-10" x="131.45" y="31" width="5.91" height="5.91"/><rect class="cls-10" x="137.36" y="31" width="5.91" height="5.91"/><rect class="cls-10" x="143.27" y="31" width="5.91" height="5.91"/><rect class="cls-7" x="149.18" y="31" width="5.91" height="5.91"/><rect class="cls-1" x="155.09" y="31" width="5.91" height="5.91"/><rect class="cls-1" x="31" y="36.91" width="5.91" height="5.91"/><rect class="cls-9" x="36.91" y="36.91" width="5.91" height="5.91"/><rect class="cls-11" x="42.82" y="36.91" width="5.91" height="5.91"/><rect class="cls-10" x="48.73" y="36.91" width="5.91" height="5.91"/><rect class="cls-10" x="54.64" y="36.91" width="5.91" height="5.91"/><rect class="cls-10" x="60.55" y="36.91" width="5.91" height="5.91"/><rect class="cls-7" x="66.45" y="36.91" width="5.91" height="5.91"/><rect class="cls-1" x="72.36" y="36.91" width="5.91" height="5.91"/><rect class="cls-1" x="113.73" y="36.91" width="5.91" height="5.91"/><rect class="cls-7" x="119.64" y="36.91" width="5.91" height="5.91"/><rect class="cls-10" x="125.55" y="36.91" width="5.91" height="5.91"/><rect class="cls-10" x="131.45" y="36.91" width="5.91" height="5.91"/><rect class="cls-10" x="137.36" y="36.91" width="5.91" height="5.91"/><rect class="cls-11" x="143.27" y="36.91" width="5.91" height="5.91"/><rect class="cls-2" x="149.18" y="36.91" width="5.91" height="5.91"/><rect class="cls-1" x="155.09" y="36.91" width="5.91" height="5.91"/><rect class="cls-1" x="31" y="42.82" width="5.91" height="5.91"/><rect class="cls-2" x="36.91" y="42.82" width="5.91" height="5.91"/><rect class="cls-16" x="42.82" y="42.82" width="5.91" height="5.91"/><rect class="cls-11" x="48.73" y="42.82" width="5.91" height="5.91"/><rect class="cls-10" x="54.64" y="42.82" width="5.91" height="5.91"/><rect class="cls-10" x="60.55" y="42.82" width="5.91" height="5.91"/><rect class="cls-2" x="66.45" y="42.82" width="5.91" height="5.91"/><rect class="cls-1" x="72.36" y="42.82" width="5.91" height="5.91"/><rect class="cls-1" x="113.73" y="42.82" width="5.91" height="5.91"/><rect class="cls-2" x="119.64" y="42.82" width="5.91" height="5.91"/><rect class="cls-10" x="125.55" y="42.82" width="5.91" height="5.91"/><rect class="cls-10" x="131.45" y="42.82" width="5.91" height="5.91"/><rect class="cls-11" x="137.36" y="42.82" width="5.91" height="5.91"/><rect class="cls-16" x="143.27" y="42.82" width="5.91" height="5.91"/><rect class="cls-2" x="149.18" y="42.82" width="5.91" height="5.91"/><rect class="cls-1" x="155.09" y="42.82" width="5.91" height="5.91"/><rect class="cls-1" x="31" y="48.73" width="5.91" height="5.91"/><rect class="cls-8" x="36.91" y="48.73" width="5.91" height="5.91"/><rect class="cls-16" x="42.82" y="48.73" width="5.91" height="5.91"/><rect class="cls-16" x="48.73" y="48.73" width="5.91" height="5.91"/><rect class="cls-11" x="54.64" y="48.73" width="5.91" height="5.91"/><rect class="cls-10" x="60.55" y="48.73" width="5.91" height="5.91"/><rect class="cls-13" x="66.45" y="48.73" width="5.91" height="5.91"/><rect class="cls-2" x="72.36" y="48.73" width="5.91" height="5.91"/><rect class="cls-1" x="78.27" y="48.73" width="5.91" height="5.91"/><rect class="cls-1" x="107.82" y="48.73" width="5.91" height="5.91"/><rect class="cls-2" x="113.73" y="48.73" width="5.91" height="5.91"/><rect class="cls-13" x="119.64" y="48.73" width="5.91" height="5.91"/><rect class="cls-10" x="125.55" y="48.73" width="5.91" height="5.91"/><rect class="cls-11" x="131.45" y="48.73" width="5.91" height="5.91"/><rect class="cls-16" x="137.36" y="48.73" width="5.91" height="5.91"/><rect class="cls-16" x="143.27" y="48.73" width="5.91" height="5.91"/><rect class="cls-8" x="149.18" y="48.73" width="5.91" height="5.91"/><rect class="cls-1" x="155.09" y="48.73" width="5.91" height="5.91"/><rect class="cls-1" x="31" y="54.64" width="5.91" height="5.91"/><rect class="cls-7" x="36.91" y="54.64" width="5.91" height="5.91"/><rect class="cls-16" x="42.82" y="54.64" width="5.91" height="5.91"/><rect class="cls-16" x="48.73" y="54.64" width="5.91" height="5.91"/><rect class="cls-5" x="54.64" y="54.64" width="5.91" height="5.91"/><rect class="cls-10" x="60.55" y="54.64" width="5.91" height="5.91"/><rect class="cls-13" x="66.45" y="54.64" width="5.91" height="5.91"/><rect class="cls-2" x="72.36" y="54.64" width="5.91" height="5.91"/><rect class="cls-1" x="78.27" y="54.64" width="5.91" height="5.91"/><rect class="cls-1" x="107.82" y="54.64" width="5.91" height="5.91"/><rect class="cls-2" x="113.73" y="54.64" width="5.91" height="5.91"/><rect class="cls-13" x="119.64" y="54.64" width="5.91" height="5.91"/><rect class="cls-10" x="125.55" y="54.64" width="5.91" height="5.91"/><rect class="cls-5" x="131.45" y="54.64" width="5.91" height="5.91"/><rect class="cls-16" x="137.36" y="54.64" width="5.91" height="5.91"/><rect class="cls-16" x="143.27" y="54.64" width="5.91" height="5.91"/><rect class="cls-7" x="149.18" y="54.64" width="5.91" height="5.91"/><rect class="cls-1" x="155.09" y="54.64" width="5.91" height="5.91"/><rect class="cls-1" x="36.91" y="60.55" width="5.91" height="5.91"/><rect class="cls-7" x="42.82" y="60.55" width="5.91" height="5.91"/><rect class="cls-16" x="48.73" y="60.55" width="5.91" height="5.91"/><rect class="cls-5" x="54.64" y="60.55" width="5.91" height="5.91"/><rect class="cls-13" x="60.55" y="60.55" width="5.91" height="5.91"/><rect class="cls-13" x="66.45" y="60.55" width="5.91" height="5.91"/><rect class="cls-8" x="72.36" y="60.55" width="5.91" height="5.91"/><rect class="cls-1" x="78.27" y="60.55" width="5.91" height="5.91"/><rect class="cls-1" x="107.82" y="60.55" width="5.91" height="5.91"/><rect class="cls-8" x="113.73" y="60.55" width="5.91" height="5.91"/><rect class="cls-13" x="119.64" y="60.55" width="5.91" height="5.91"/><rect class="cls-13" x="125.55" y="60.55" width="5.91" height="5.91"/><rect class="cls-5" x="131.45" y="60.55" width="5.91" height="5.91"/><rect class="cls-16" x="137.36" y="60.55" width="5.91" height="5.91"/><rect class="cls-7" x="143.27" y="60.55" width="5.91" height="5.91"/><rect class="cls-1" x="149.18" y="60.55" width="5.91" height="5.91"/><rect class="cls-1" x="36.91" y="66.45" width="5.91" height="5.91"/><rect class="cls-7" x="42.82" y="66.45" width="5.91" height="5.91"/><rect class="cls-16" x="48.73" y="66.45" width="5.91" height="5.91"/><rect class="cls-16" x="54.64" y="66.45" width="5.91" height="5.91"/><rect class="cls-11" x="60.55" y="66.45" width="5.91" height="5.91"/><rect class="cls-13" x="66.45" y="66.45" width="5.91" height="5.91"/><rect class="cls-13" x="72.36" y="66.45" width="5.91" height="5.91"/><rect class="cls-8" x="78.27" y="66.45" width="5.91" height="5.91"/><rect class="cls-1" x="84.18" y="66.45" width="5.91" height="5.91"/><rect class="cls-1" x="101.91" y="66.45" width="5.91" height="5.91"/><rect class="cls-8" x="107.82" y="66.45" width="5.91" height="5.91"/><rect class="cls-13" x="113.73" y="66.45" width="5.91" height="5.91"/><rect class="cls-13" x="119.64" y="66.45" width="5.91" height="5.91"/><rect class="cls-11" x="125.55" y="66.45" width="5.91" height="5.91"/><rect class="cls-16" x="131.45" y="66.45" width="5.91" height="5.91"/><rect class="cls-16" x="137.36" y="66.45" width="5.91" height="5.91"/><rect class="cls-7" x="143.27" y="66.45" width="5.91" height="5.91"/><rect class="cls-1" x="149.18" y="66.45" width="5.91" height="5.91"/><rect class="cls-1" x="36.91" y="72.36" width="5.91" height="5.91"/><rect class="cls-8" x="42.82" y="72.36" width="5.91" height="5.91"/><rect class="cls-15" x="48.73" y="72.36" width="5.91" height="5.91"/><rect class="cls-16" x="54.64" y="72.36" width="5.91" height="5.91"/><rect class="cls-11" x="60.55" y="72.36" width="5.91" height="5.91"/><rect class="cls-13" x="66.45" y="72.36" width="5.91" height="5.91"/><rect class="cls-13" x="72.36" y="72.36" width="5.91" height="5.91"/><rect class="cls-8" x="78.27" y="72.36" width="5.91" height="5.91"/><rect class="cls-1" x="84.18" y="72.36" width="5.91" height="5.91"/><rect class="cls-1" x="101.91" y="72.36" width="5.91" height="5.91"/><rect class="cls-8" x="107.82" y="72.36" width="5.91" height="5.91"/><rect class="cls-13" x="113.73" y="72.36" width="5.91" height="5.91"/><rect class="cls-13" x="119.64" y="72.36" width="5.91" height="5.91"/><rect class="cls-11" x="125.55" y="72.36" width="5.91" height="5.91"/><rect class="cls-16" x="131.45" y="72.36" width="5.91" height="5.91"/><rect class="cls-15" x="137.36" y="72.36" width="5.91" height="5.91"/><rect class="cls-8" x="143.27" y="72.36" width="5.91" height="5.91"/><rect class="cls-1" x="149.18" y="72.36" width="5.91" height="5.91"/><rect class="cls-1" x="42.82" y="78.27" width="5.91" height="5.91"/><rect class="cls-9" x="48.73" y="78.27" width="5.91" height="5.91"/><rect class="cls-15" x="54.64" y="78.27" width="5.91" height="5.91"/><rect class="cls-5" x="60.55" y="78.27" width="5.91" height="5.91"/><rect class="cls-15" x="66.45" y="78.27" width="5.91" height="5.91"/><rect class="cls-13" x="72.36" y="78.27" width="5.91" height="5.91"/><rect class="cls-8" x="78.27" y="78.27" width="5.91" height="5.91"/><rect class="cls-1" x="84.18" y="78.27" width="5.91" height="5.91"/><rect class="cls-1" x="90.09" y="78.27" width="5.91" height="5.91"/><rect class="cls-1" x="96" y="78.27" width="5.91" height="5.91"/><rect class="cls-1" x="101.91" y="78.27" width="5.91" height="5.91"/><rect class="cls-8" x="107.82" y="78.27" width="5.91" height="5.91"/><rect class="cls-13" x="113.73" y="78.27" width="5.91" height="5.91"/><rect class="cls-15" x="119.64" y="78.27" width="5.91" height="5.91"/><rect class="cls-5" x="125.55" y="78.27" width="5.91" height="5.91"/><rect class="cls-5" x="131.45" y="78.27" width="5.91" height="5.91"/><rect class="cls-9" x="137.36" y="78.27" width="5.91" height="5.91"/><rect class="cls-1" x="143.27" y="78.27" width="5.91" height="5.91"/><rect class="cls-1" x="48.73" y="84.18" width="5.91" height="5.91"/><rect class="cls-7" x="54.64" y="84.18" width="5.91" height="5.91"/><rect class="cls-15" x="60.55" y="84.18" width="5.91" height="5.91"/><rect class="cls-15" x="66.45" y="84.18" width="5.91" height="5.91"/><rect class="cls-13" x="72.36" y="84.18" width="5.91" height="5.91"/><rect class="cls-13" x="78.27" y="84.18" width="5.91" height="5.91"/><rect class="cls-8" x="84.18" y="84.18" width="5.91" height="5.91"/><rect class="cls-8" x="90.09" y="84.18" width="5.91" height="5.91"/><rect class="cls-8" x="96" y="84.18" width="5.91" height="5.91"/><rect class="cls-8" x="101.91" y="84.18" width="5.91" height="5.91"/><rect class="cls-13" x="107.82" y="84.18" width="5.91" height="5.91"/><rect class="cls-13" x="113.73" y="84.18" width="5.91" height="5.91"/><rect class="cls-15" x="119.64" y="84.18" width="5.91" height="5.91"/><rect class="cls-15" x="125.55" y="84.18" width="5.91" height="5.91"/><rect class="cls-7" x="131.45" y="84.18" width="5.91" height="5.91"/><rect class="cls-1" x="137.36" y="84.18" width="5.91" height="5.91"/><rect class="cls-1" x="54.64" y="90.09" width="5.91" height="5.91"/><rect class="cls-9" x="60.55" y="90.09" width="5.91" height="5.91"/><rect class="cls-15" x="66.45" y="90.09" width="5.91" height="5.91"/><rect class="cls-13" x="72.36" y="90.09" width="5.91" height="5.91"/><rect class="cls-13" x="78.27" y="90.09" width="5.91" height="5.91"/><rect class="cls-10" x="84.18" y="90.09" width="5.91" height="5.91"/><rect class="cls-10" x="90.09" y="90.09" width="5.91" height="5.91"/><rect class="cls-10" x="96" y="90.09" width="5.91" height="5.91"/><rect class="cls-10" x="101.91" y="90.09" width="5.91" height="5.91"/><rect class="cls-13" x="107.82" y="90.09" width="5.91" height="5.91"/><rect class="cls-13" x="113.73" y="90.09" width="5.91" height="5.91"/><rect class="cls-15" x="119.64" y="90.09" width="5.91" height="5.91"/><rect class="cls-9" x="125.55" y="90.09" width="5.91" height="5.91"/><rect class="cls-1" x="131.45" y="90.09" width="5.91" height="5.91"/><rect class="cls-1" x="60.55" y="96" width="5.91" height="5.91"/><rect class="cls-7" x="66.45" y="96" width="5.91" height="5.91"/><rect class="cls-13" x="72.36" y="96" width="5.91" height="5.91"/><rect class="cls-10" x="78.27" y="96" width="5.91" height="5.91"/><rect class="cls-10" x="84.18" y="96" width="5.91" height="5.91"/><rect class="cls-10" x="90.09" y="96" width="5.91" height="5.91"/><rect class="cls-10" x="96" y="96" width="5.91" height="5.91"/><rect class="cls-10" x="101.91" y="96" width="5.91" height="5.91"/><rect class="cls-10" x="107.82" y="96" width="5.91" height="5.91"/><rect class="cls-13" x="113.73" y="96" width="5.91" height="5.91"/><rect class="cls-7" x="119.64" y="96" width="5.91" height="5.91"/><rect class="cls-1" x="125.55" y="96" width="5.91" height="5.91"/><rect class="cls-1" x="60.55" y="101.91" width="5.91" height="5.91"/><rect class="cls-8" x="66.45" y="101.91" width="5.91" height="5.91"/><rect class="cls-10" x="72.36" y="101.91" width="5.91" height="5.91"/><rect class="cls-10" x="78.27" y="101.91" width="5.91" height="5.91"/><rect class="cls-10" x="84.18" y="101.91" width="5.91" height="5.91"/><rect class="cls-10" x="90.09" y="101.91" width="5.91" height="5.91"/><rect class="cls-10" x="96" y="101.91" width="5.91" height="5.91"/><rect class="cls-10" x="101.91" y="101.91" width="5.91" height="5.91"/><rect class="cls-10" x="107.82" y="101.91" width="5.91" height="5.91"/><rect class="cls-10" x="113.73" y="101.91" width="5.91" height="5.91"/><rect class="cls-8" x="119.64" y="101.91" width="5.91" height="5.91"/><rect class="cls-1" x="125.55" y="101.91" width="5.91" height="5.91"/><rect class="cls-1" x="54.64" y="107.82" width="5.91" height="5.91"/><rect class="cls-9" x="60.55" y="107.82" width="5.91" height="5.91"/><rect class="cls-4" x="66.45" y="107.82" width="5.91" height="5.91"/><rect class="cls-10" x="72.36" y="107.82" width="5.91" height="5.91"/><rect class="cls-10" x="78.27" y="107.82" width="5.91" height="5.91"/><rect class="cls-10" x="84.18" y="107.82" width="5.91" height="5.91"/><rect class="cls-10" x="90.09" y="107.82" width="5.91" height="5.91"/><rect class="cls-10" x="96" y="107.82" width="5.91" height="5.91"/><rect class="cls-10" x="101.91" y="107.82" width="5.91" height="5.91"/><rect class="cls-10" x="107.82" y="107.82" width="5.91" height="5.91"/><rect class="cls-10" x="113.73" y="107.82" width="5.91" height="5.91"/><rect class="cls-3" x="119.64" y="107.82" width="5.91" height="5.91"/><rect class="cls-9" x="125.55" y="107.82" width="5.91" height="5.91"/><rect class="cls-1" x="131.45" y="107.82" width="5.91" height="5.91"/><rect class="cls-1" x="48.73" y="113.73" width="5.91" height="5.91"/><rect class="cls-9" x="54.64" y="113.73" width="5.91" height="5.91"/><rect class="cls-4" x="60.55" y="113.73" width="5.91" height="5.91"/><rect class="cls-3" x="66.45" y="113.73" width="5.91" height="5.91"/><rect class="cls-14" x="72.36" y="113.73" width="5.91" height="5.91"/><rect class="cls-14" x="78.27" y="113.73" width="5.91" height="5.91"/><rect class="cls-10" x="84.18" y="113.73" width="5.91" height="5.91"/><rect class="cls-10" x="90.09" y="113.73" width="5.91" height="5.91"/><rect class="cls-10" x="96" y="113.73" width="5.91" height="5.91"/><rect class="cls-10" x="101.91" y="113.73" width="5.91" height="5.91"/><rect class="cls-14" x="107.82" y="113.73" width="5.91" height="5.91"/><rect class="cls-14" x="113.73" y="113.73" width="5.91" height="5.91"/><rect class="cls-3" x="119.64" y="113.73" width="5.91" height="5.91"/><rect class="cls-3" x="125.55" y="113.73" width="5.91" height="5.91"/><rect class="cls-9" x="131.45" y="113.73" width="5.91" height="5.91"/><rect class="cls-1" x="137.36" y="113.73" width="5.91" height="5.91"/><rect class="cls-1" x="48.73" y="119.64" width="5.91" height="5.91"/><rect class="cls-7" x="54.64" y="119.64" width="5.91" height="5.91"/><rect class="cls-4" x="60.55" y="119.64" width="5.91" height="5.91"/><rect class="cls-14" x="66.45" y="119.64" width="5.91" height="5.91"/><rect class="cls-10" x="72.36" y="119.64" width="5.91" height="5.91"/><rect class="cls-9" x="78.27" y="119.64" width="5.91" height="5.91"/><rect class="cls-10" x="84.18" y="119.64" width="5.91" height="5.91"/><rect class="cls-10" x="90.09" y="119.64" width="5.91" height="5.91"/><rect class="cls-10" x="96" y="119.64" width="5.91" height="5.91"/><rect class="cls-10" x="101.91" y="119.64" width="5.91" height="5.91"/><rect class="cls-9" x="107.82" y="119.64" width="5.91" height="5.91"/><rect class="cls-10" x="113.73" y="119.64" width="5.91" height="5.91"/><rect class="cls-14" x="119.64" y="119.64" width="5.91" height="5.91"/><rect class="cls-3" x="125.55" y="119.64" width="5.91" height="5.91"/><rect class="cls-7" x="131.45" y="119.64" width="5.91" height="5.91"/><rect class="cls-1" x="137.36" y="119.64" width="5.91" height="5.91"/><rect class="cls-1" x="48.73" y="125.55" width="5.91" height="5.91"/><rect class="cls-9" x="54.64" y="125.55" width="5.91" height="5.91"/><rect class="cls-4" x="60.55" y="125.55" width="5.91" height="5.91"/><rect class="cls-14" x="66.45" y="125.55" width="5.91" height="5.91"/><rect class="cls-9" x="72.36" y="125.55" width="5.91" height="5.91"/><rect class="cls-9" x="78.27" y="125.55" width="5.91" height="5.91"/><rect class="cls-10" x="84.18" y="125.55" width="5.91" height="5.91"/><rect class="cls-10" x="90.09" y="125.55" width="5.91" height="5.91"/><rect class="cls-10" x="96" y="125.55" width="5.91" height="5.91"/><rect class="cls-10" x="101.91" y="125.55" width="5.91" height="5.91"/><rect class="cls-9" x="107.82" y="125.55" width="5.91" height="5.91"/><rect class="cls-9" x="113.73" y="125.55" width="5.91" height="5.91"/><rect class="cls-14" x="119.64" y="125.55" width="5.91" height="5.91"/><rect class="cls-3" x="125.55" y="125.55" width="5.91" height="5.91"/><rect class="cls-7" x="131.45" y="125.55" width="5.91" height="5.91"/><rect class="cls-1" x="137.36" y="125.55" width="5.91" height="5.91"/><rect class="cls-1" x="42.82" y="131.45" width="5.91" height="5.91"/><rect class="cls-9" x="48.73" y="131.45" width="5.91" height="5.91"/><rect class="cls-4" x="54.64" y="131.45" width="5.91" height="5.91"/><rect class="cls-3" x="60.55" y="131.45" width="5.91" height="5.91"/><rect class="cls-10" x="66.45" y="131.45" width="5.91" height="5.91"/><rect class="cls-10" x="72.36" y="131.45" width="5.91" height="5.91"/><rect class="cls-10" x="78.27" y="131.45" width="5.91" height="5.91"/><rect class="cls-13" x="84.18" y="131.45" width="5.91" height="5.91"/><rect class="cls-10" x="90.09" y="131.45" width="5.91" height="5.91"/><rect class="cls-10" x="96" y="131.45" width="5.91" height="5.91"/><rect class="cls-13" x="101.91" y="131.45" width="5.91" height="5.91"/><rect class="cls-10" x="107.82" y="131.45" width="5.91" height="5.91"/><rect class="cls-10" x="113.73" y="131.45" width="5.91" height="5.91"/><rect class="cls-10" x="119.64" y="131.45" width="5.91" height="5.91"/><rect class="cls-3" x="125.55" y="131.45" width="5.91" height="5.91"/><rect class="cls-4" x="131.45" y="131.45" width="5.91" height="5.91"/><rect class="cls-9" x="137.36" y="131.45" width="5.91" height="5.91"/><rect class="cls-1" x="143.27" y="131.45" width="5.91" height="5.91"/><rect class="cls-1" x="42.82" y="137.36" width="5.91" height="5.91"/><rect class="cls-7" x="48.73" y="137.36" width="5.91" height="5.91"/><rect class="cls-4" x="54.64" y="137.36" width="5.91" height="5.91"/><rect class="cls-3" x="60.55" y="137.36" width="5.91" height="5.91"/><rect class="cls-16" x="66.45" y="137.36" width="5.91" height="5.91"/><rect class="cls-14" x="72.36" y="137.36" width="5.91" height="5.91"/><rect class="cls-10" x="78.27" y="137.36" width="5.91" height="5.91"/><rect class="cls-10" x="84.18" y="137.36" width="5.91" height="5.91"/><rect class="cls-10" x="90.09" y="137.36" width="5.91" height="5.91"/><rect class="cls-10" x="96" y="137.36" width="5.91" height="5.91"/><rect class="cls-10" x="101.91" y="137.36" width="5.91" height="5.91"/><rect class="cls-10" x="107.82" y="137.36" width="5.91" height="5.91"/><rect class="cls-14" x="113.73" y="137.36" width="5.91" height="5.91"/><rect class="cls-16" x="119.64" y="137.36" width="5.91" height="5.91"/><rect class="cls-3" x="125.55" y="137.36" width="5.91" height="5.91"/><rect class="cls-4" x="131.45" y="137.36" width="5.91" height="5.91"/><rect class="cls-7" x="137.36" y="137.36" width="5.91" height="5.91"/><rect class="cls-1" x="143.27" y="137.36" width="5.91" height="5.91"/><rect class="cls-1" x="42.82" y="143.27" width="5.91" height="5.91"/><rect class="cls-9" x="48.73" y="143.27" width="5.91" height="5.91"/><rect class="cls-4" x="54.64" y="143.27" width="5.91" height="5.91"/><rect class="cls-4" x="60.55" y="143.27" width="5.91" height="5.91"/><rect class="cls-12" x="66.45" y="143.27" width="5.91" height="5.91"/><rect class="cls-12" x="72.36" y="143.27" width="5.91" height="5.91"/><rect class="cls-10" x="78.27" y="143.27" width="5.91" height="5.91"/><rect class="cls-11" x="84.18" y="143.27" width="5.91" height="5.91"/><rect class="cls-11" x="90.09" y="143.27" width="5.91" height="5.91"/><rect class="cls-16" x="96" y="143.27" width="5.91" height="5.91"/><rect class="cls-16" x="101.91" y="143.27" width="5.91" height="5.91"/><rect class="cls-10" x="107.82" y="143.27" width="5.91" height="5.91"/><rect class="cls-12" x="113.73" y="143.27" width="5.91" height="5.91"/><rect class="cls-12" x="119.64" y="143.27" width="5.91" height="5.91"/><rect class="cls-3" x="125.55" y="143.27" width="5.91" height="5.91"/><rect class="cls-4" x="131.45" y="143.27" width="5.91" height="5.91"/><rect class="cls-7" x="137.36" y="143.27" width="5.91" height="5.91"/><rect class="cls-1" x="143.27" y="143.27" width="5.91" height="5.91"/><rect class="cls-1" x="48.73" y="149.18" width="5.91" height="5.91"/><rect class="cls-9" x="54.64" y="149.18" width="5.91" height="5.91"/><rect class="cls-4" x="60.55" y="149.18" width="5.91" height="5.91"/><rect class="cls-4" x="66.45" y="149.18" width="5.91" height="5.91"/><rect class="cls-3" x="72.36" y="149.18" width="5.91" height="5.91"/><rect class="cls-10" x="78.27" y="149.18" width="5.91" height="5.91"/><rect class="cls-4" x="84.18" y="149.18" width="5.91" height="5.91"/><rect class="cls-11" x="90.09" y="149.18" width="5.91" height="5.91"/><rect class="cls-16" x="96" y="149.18" width="5.91" height="5.91"/><rect class="cls-3" x="101.91" y="149.18" width="5.91" height="5.91"/><rect class="cls-10" x="107.82" y="149.18" width="5.91" height="5.91"/><rect class="cls-3" x="113.73" y="149.18" width="5.91" height="5.91"/><rect class="cls-3" x="119.64" y="149.18" width="5.91" height="5.91"/><rect class="cls-4" x="125.55" y="149.18" width="5.91" height="5.91"/><rect class="cls-9" x="131.45" y="149.18" width="5.91" height="5.91"/><rect class="cls-1" x="137.36" y="149.18" width="5.91" height="5.91"/><rect class="cls-1" x="54.64" y="155.09" width="5.91" height="5.91"/><rect class="cls-9" x="60.55" y="155.09" width="5.91" height="5.91"/><rect class="cls-4" x="66.45" y="155.09" width="5.91" height="5.91"/><rect class="cls-4" x="72.36" y="155.09" width="5.91" height="5.91"/><rect class="cls-4" x="78.27" y="155.09" width="5.91" height="5.91"/><rect class="cls-4" x="84.18" y="155.09" width="5.91" height="5.91"/><rect class="cls-4" x="90.09" y="155.09" width="5.91" height="5.91"/><rect class="cls-3" x="96" y="155.09" width="5.91" height="5.91"/><rect class="cls-3" x="101.91" y="155.09" width="5.91" height="5.91"/><rect class="cls-3" x="107.82" y="155.09" width="5.91" height="5.91"/><rect class="cls-4" x="113.73" y="155.09" width="5.91" height="5.91"/><rect class="cls-4" x="119.64" y="155.09" width="5.91" height="5.91"/><rect class="cls-9" x="125.55" y="155.09" width="5.91" height="5.91"/><rect class="cls-1" x="131.45" y="155.09" width="5.91" height="5.91"/><rect class="cls-1" x="60.55" y="161" width="5.91" height="5.91"/><rect class="cls-9" x="66.45" y="161" width="5.91" height="5.91"/><rect class="cls-9" x="72.36" y="161" width="5.91" height="5.91"/><rect class="cls-9" x="78.27" y="161" width="5.91" height="5.91"/><rect class="cls-4" x="84.18" y="161" width="5.91" height="5.91"/><rect class="cls-4" x="90.09" y="161" width="5.91" height="5.91"/><rect class="cls-3" x="96" y="161" width="5.91" height="5.91"/><rect class="cls-3" x="101.91" y="161" width="5.91" height="5.91"/><rect class="cls-7" x="107.82" y="161" width="5.91" height="5.91"/><rect class="cls-7" x="113.73" y="161" width="5.91" height="5.91"/><rect class="cls-7" x="119.64" y="161" width="5.91" height="5.91"/><rect class="cls-1" x="125.55" y="161" width="5.91" height="5.91"/><rect class="cls-1" x="66.45" y="166.91" width="5.91" height="5.91"/><rect class="cls-1" x="72.36" y="166.91" width="5.91" height="5.91"/><rect class="cls-1" x="78.27" y="166.91" width="5.91" height="5.91"/><rect class="cls-9" x="84.18" y="166.91" width="5.91" height="5.91"/><rect class="cls-6" x="90.09" y="166.91" width="5.91" height="5.91"/><rect class="cls-10" x="96" y="166.91" width="5.91" height="5.91"/><rect class="cls-7" x="101.91" y="166.91" width="5.91" height="5.91"/><rect class="cls-1" x="107.82" y="166.91" width="5.91" height="5.91"/><rect class="cls-1" x="113.73" y="166.91" width="5.91" height="5.91"/><rect class="cls-1" x="119.64" y="166.91" width="5.91" height="5.91"/><rect class="cls-1" x="84.18" y="172.82" width="5.91" height="5.91"/><rect class="cls-1" x="90.09" y="172.82" width="5.91" height="5.91"/><rect class="cls-1" x="96" y="172.82" width="5.91" height="5.91"/><rect class="cls-1" x="101.91" y="172.82" width="5.91" height="5.91"/></g></svg>