<?xml version="1.0" encoding="UTF-8"?><svg id="Layer_1" xmlns="http://www.w3.org/2000/svg" viewBox="0 0 500 430"><defs><style>.cls-1,.cls-2{stroke:#914938;stroke-miterlimit:10;stroke-width:2px;}.cls-1,.cls-3{fill:#914938;}.cls-4{fill:#f4ebd4;font-family:Roboto-Bold, Roboto;font-size:20.36px;font-weight:700;}.cls-2{fill:none;}.cls-3{stroke-width:0px;}</style></defs><path class="cls-3" d="m106.32,131.81c29.16,0,55.8-2.52,67.68-5.4.72-21.6,1.08-33.48,2.52-66.24l37.08,2.88c-.72,3.96-3.96,6.48-10.08,7.2-1.44,15.84-2.88,38.16-3.6,51.48l11.16,4.32c-8.64,17.28-12.24,38.52-14.4,51.48,39.6-37.08,83.52-63.36,113.4-63.36,33.84,0,50.76,23.76,50.76,65.52,0,4.68-.36,9.36-.72,14.04-2.52,31.68-6.12,76.68-6.12,105.48,0,21.6,2.52,33.12,17.64,33.12,10.8,0,32.4-10.8,47.88-24.12.72,7.2,3.6,21.96,5.04,27.36-18.36,13.32-39.96,23.4-56.52,23.4-30.24,0-40.32-18-40.32-55.44,0-18.72,6.48-117.72,6.48-118.08,0-31.32-10.8-45.36-28.44-45.36-27,0-72.36,29.16-109.8,68.76,0,52.2,0,116.28.36,165.24h-25.2c.36-20.88,0-123.48.36-146.52-12.6,25.2-37.08,57.96-65.52,86.76l-12.96-22.68c29.88-28.08,63.36-71.64,79.2-108.72,0-10.44.36-20.16.72-31.68-12.6,2.88-38.88,5.76-66.24,6.12l-.36-25.56Z"/><path class="cls-2" d="m216.6,81.15s-6.65,135.68-6.64,154.24"/><path class="cls-2" d="m117.2,117.7s35.24-1.37,46.02-3.33"/><path class="cls-2" d="m125.55,310.39s32.69-39.05,36.4-44.39"/><path class="cls-2" d="m278.7,157.12s39.23-15.97,41.58,29.91"/><polygon class="cls-1" points="155.18 115.38 154.66 110.66 160.74 112.37 166.83 114.09 161.27 117.1 155.7 120.1 155.18 115.38"/><polygon class="cls-1" points="209.81 232.66 214.54 233 211.75 238.68 208.95 244.35 207.01 238.33 205.07 232.31 209.81 232.66"/><polygon class="cls-1" points="156.89 272.55 153.11 269.67 158.56 266.45 164.01 263.24 162.33 269.34 160.66 275.44 156.89 272.55"/><polygon class="cls-1" points="320.08 182.8 324.82 182.43 322.91 188.46 321 194.48 318.17 188.83 315.35 183.17 320.08 182.8"/><circle class="cls-1" cx="245.02" cy="72" r="16.1"/><text class="cls-4" transform="translate(239.18 79.31)"><tspan x="0" y="0">1</tspan></text><circle class="cls-1" cx="91.53" cy="106.89" r="16.1"/><text class="cls-4" transform="translate(85.7 114.19)"><tspan x="0" y="0">2</tspan></text></svg>