<?xml version="1.0" encoding="UTF-8"?><svg id="Layer_1" xmlns="http://www.w3.org/2000/svg" viewBox="0 0 500 430"><defs><style>.cls-1,.cls-2{stroke:#914938;stroke-miterlimit:10;stroke-width:2px;}.cls-1,.cls-3{fill:#914938;}.cls-4{fill:#f4ebd4;font-family:Roboto-Bold, Roboto;font-size:20.36px;font-weight:700;}.cls-2{fill:none;}.cls-3{stroke-width:0px;}</style></defs><path class="cls-3" d="m152.75,268.86c-6.84-19.44-10.08-47.52-10.44-67.68,0-33.84,3.6-73.08,12.24-118.8l36,6.12c-1.44,4.68-5.76,5.76-10.44,6.12-7.2,29.88-12.24,75.6-12.24,104.76,0,7.92.36,14.4,1.08,19.44,7.2-17.64,20.52-42.12,28.08-55.8,3.24,4.68,10.44,12.24,14.04,15.84-26.64,47.88-34.56,61.56-34.56,76.68,0,2.88.36,5.76,1.08,9l-24.84,4.32Zm192.96-195.84c-.36,4.32-3.24,6.12-9.36,7.92,2.52,31.32,6.12,83.52,6.12,124.92-.36,69.48-25.56,132.12-133.92,177.12-3.96-5.76-12.6-15.48-18-20.88,98.28-37.44,124.56-96.84,124.56-155.88,0-44.28-4.32-96.48-8.28-135l38.88,1.8Z"/><path class="cls-2" d="m136.73,92.13s-8,57.22-9.42,103.05"/><path class="cls-2" d="m351.96,88.77s4.76,67.1,5.13,92.1"/><polygon class="cls-1" points="127.77 187.88 132.51 188.15 129.81 193.87 127.11 199.59 125.07 193.6 123.03 187.62 127.77 187.88"/><polygon class="cls-1" points="357.22 175.29 361.97 175.2 359.71 181.11 357.45 187.01 354.96 181.2 352.47 175.39 357.22 175.29"/><circle class="cls-1" cx="127.77" cy="63.11" r="16.1"/><text class="cls-4" transform="translate(121.93 70.42)"><tspan x="0" y="0">1</tspan></text><circle class="cls-1" cx="372.23" cy="65.34" r="16.1"/><text class="cls-4" transform="translate(366.39 72.65)"><tspan x="0" y="0">2</tspan></text></svg>