<?xml version="1.0" encoding="UTF-8"?><svg id="Layer_1" xmlns="http://www.w3.org/2000/svg" viewBox="0 0 500 430"><defs><style>.cls-1,.cls-2{stroke:#914938;stroke-miterlimit:10;stroke-width:2px;}.cls-1,.cls-3{fill:#914938;}.cls-4{fill:#f4ebd4;font-family:Roboto-Bold, Roboto;font-size:20.36px;font-weight:700;}.cls-2{fill:none;}.cls-3{stroke-width:0px;}</style></defs><path class="cls-3" d="m308.36,76.65l21.24,23.4c-2.52,2.16-5.76,2.88-10.44,3.24-33.48,28.8-101.16,96.84-123.84,120.24h.36c30.96-17.28,66.6-25.56,94.68-25.56,55.8,0,94.32,29.16,94.32,83.88,0,67.32-65.52,94.68-181.8,100.44-1.44-6.84-5.4-18.36-8.64-24.12,107.64-4.68,163.8-24.84,163.8-75.6,0-41.04-29.16-61.56-74.52-61.56s-100.8,23.76-129.6,50.4c-7.56,6.84-19.8,20.16-29.16,31.32l-18-17.64c32.76-37.8,134.28-139.68,173.88-179.28-17.28,1.8-91.8,6.48-128.16,8.64-.72,2.16-4.32,4.68-7.2,5.4l-3.6-30.24c45.36,0,152.28-6.84,161.28-10.08l5.4-2.88Z"/><path class="cls-2" d="m162.62,75.27s105.64-4.86,122.99-7.3"/><line class="cls-2" x1="105.12" y1="265.59" x2="151.62" y2="216.41"/><path class="cls-2" d="m374.93,218.62s37.18,29.53,19.05,88.79"/><polygon class="cls-1" points="280.77 68.36 280.39 63.62 286.42 65.52 292.45 67.41 286.8 70.25 281.15 73.09 280.77 68.36"/><polygon class="cls-1" points="108.66 262.16 112.13 265.41 106.39 268.07 100.66 270.72 102.93 264.82 105.2 258.92 108.66 262.16"/><polygon class="cls-1" points="394.98 304.23 399.34 306.11 394.84 310.55 390.34 314.99 390.48 308.66 390.62 302.34 394.98 304.23"/><circle class="cls-1" cx="135.52" cy="63.8" r="16.1"/><text class="cls-4" transform="translate(129.68 71.11)"><tspan x="0" y="0">1</tspan></text></svg>