<?xml version="1.0" encoding="UTF-8"?><svg id="Layer_1" xmlns="http://www.w3.org/2000/svg" viewBox="0 0 500 430"><defs><style>.cls-1,.cls-2{stroke:#914938;stroke-miterlimit:10;stroke-width:2px;}.cls-1,.cls-3{fill:#914938;}.cls-4{fill:#f4ebd4;font-family:Roboto-Bold, Roboto;font-size:20.36px;font-weight:700;}.cls-2{fill:none;}.cls-3{stroke-width:0px;}</style></defs><path class="cls-3" d="m201.61,217.43c23.76-12.24,60.84-20.88,89.28-20.88,57.24,0,93.24,33.48,93.24,86.4,0,65.16-57.24,101.16-129.6,101.16-46.8,0-78.84-18.72-78.84-50.4,0-26.64,26.28-48.24,59.04-48.24,40.68,0,68.04,32.4,73.44,65.16,28.8-10.8,49.68-33.84,49.68-67.32,0-38.88-28.8-63.72-74.16-63.72-54,0-106.92,24.12-130.68,47.16-10.8,10.08-24.84,25.2-34.56,36.36l-18.36-18.36c32.4-33.84,135.36-132.12,184.32-177.84-20.88,2.88-92.88,5.76-133.92,7.2-1.08,2.52-4.68,4.68-7.56,5.4l-2.88-30.6c48.6-.36,141.48-3.96,167.76-7.92l5.4-2.52,19.08,23.4c-1.8,1.44-5.04,2.88-8.64,3.24-25.56,20.88-93.96,84.96-122.04,111.96v.36Zm49.68,144c10.8,0,23.4-1.44,32.76-3.6-3.96-27.72-24.48-51.12-51.12-51.12-18.72,0-35.28,10.08-35.28,26.64,0,21.96,29.88,28.08,53.64,28.08Z"/><path class="cls-2" d="m163.53,72.54s102.39-1.23,125.53-5.65"/><line class="cls-2" x1="171.81" y1="195.13" x2="106.44" y2="259.15"/><path class="cls-2" d="m371.06,214.35s46.65,28.89,21.31,101.69"/><path class="cls-2" d="m191,286.25s22.79-26.9,70.7-10.57"/><polygon class="cls-1" points="282 67.79 281.47 63.07 287.56 64.78 293.65 66.5 288.08 69.5 282.52 72.51 282 67.79"/><polygon class="cls-1" points="110.38 255.79 113.48 259.39 107.49 261.42 101.5 263.44 104.39 257.82 107.28 252.19 110.38 255.79"/><polygon class="cls-1" points="255.49 273.79 257.46 269.47 261.81 274.06 266.16 278.65 259.84 278.38 253.52 278.12 255.49 273.79"/><polygon class="cls-1" points="393.48 312.84 397.73 314.95 393 319.14 388.27 323.33 388.75 317.03 389.23 310.72 393.48 312.84"/><circle class="cls-1" cx="136.6" cy="61.98" r="16.1"/><text class="cls-4" transform="translate(130.76 69.29)"><tspan x="0" y="0">1</tspan></text></svg>