<?xml version="1.0" encoding="UTF-8"?><svg id="Layer_1" xmlns="http://www.w3.org/2000/svg" viewBox="0 0 500 430"><defs><style>.cls-1,.cls-2{stroke:#914938;stroke-miterlimit:10;stroke-width:2px;}.cls-1,.cls-3{fill:#914938;}.cls-4{fill:#f4ebd4;font-family:Roboto-Bold, Roboto;font-size:20.36px;font-weight:700;}.cls-2{fill:none;}.cls-3{stroke-width:0px;}</style></defs><path class="cls-3" d="m398.62,131.61c-32.76,9.36-76.68,15.84-119.88,19.8,14.04,48.96,29.16,78.12,68.04,95.04l-17.64,21.96c-16.56-12.6-33.48-22.32-80.28-24.84l-4.32-21.24c17.64,1.44,30.96,3.6,39.96,5.4-12.6-15.12-22.32-38.16-32.04-74.52-16.2,1.44-38.16,2.16-59.76,2.16-23.4,0-61.56-.36-84.6-1.08v-24.48c21.6,1.08,52.2,1.08,84.96,1.08,18.36,0,39.24-.36,53.64-1.8-4.32-19.44-8.28-46.08-12.6-73.8l38.52.72c-.36,4.32-3.6,6.84-9.36,8.28,2.16,20.52,5.76,43.2,9.72,63,41.4-3.6,88.2-11.16,119.88-21.24l5.76,25.56Zm-64.44,236.88c-17.28.72-35.64,1.08-66.96,1.08-75.24,0-128.52-23.04-128.52-71.28,0-20.52,12.6-41.4,32.4-60.48l19.44,15.48c-16.2,12.96-25.92,30.6-25.92,44.28,0,35.64,46.08,47.16,103.32,47.16,31.32,0,49.68-.72,68.04-1.8l-1.8,25.56Z"/><path class="cls-2" d="m125.63,115.43s98.06,9.83,210.36-11.23"/><path class="cls-2" d="m278.19,72.46s13.57,83.39,22.93,105.01"/><path class="cls-2" d="m157.1,237.81s-39.24,36.29-29.09,79.98c9.03,38.87,62.18,54.89,66.32,55.52"/><circle class="cls-1" cx="138.7" cy="87.55" r="16.1"/><text class="cls-4" transform="translate(132.87 94.86)"><tspan x="0" y="0">1</tspan></text><circle class="cls-1" cx="306.3" cy="68.72" r="16.1"/><text class="cls-4" transform="translate(300.46 76.03)"><tspan x="0" y="0">2</tspan></text><circle class="cls-1" cx="117.47" cy="239.05" r="16.1"/><text class="cls-4" transform="translate(111.63 246.35)"><tspan x="0" y="0">3</tspan></text><polygon class="cls-1" points="333.96 104.2 332.95 99.56 339.18 100.63 345.42 101.7 340.2 105.27 334.98 108.84 333.96 104.2"/><polygon class="cls-1" points="298.92 171.62 303.45 170.17 302.97 176.48 302.5 182.79 298.45 177.93 294.4 173.08 298.92 171.62"/><polygon class="cls-1" points="192.11 372.79 193.38 368.22 198.4 372.07 203.41 375.92 197.13 376.64 190.85 377.37 192.11 372.79"/></svg>