<?xml version="1.0" encoding="UTF-8"?><svg id="Layer_1" xmlns="http://www.w3.org/2000/svg" viewBox="0 0 500 430"><defs><style>.cls-1,.cls-2{stroke:#914938;stroke-miterlimit:10;stroke-width:2px;}.cls-1,.cls-3{fill:#914938;}.cls-4{fill:#f4ebd4;font-family:Roboto-Bold, Roboto;font-size:20.36px;font-weight:700;}.cls-2{fill:none;}.cls-3{stroke-width:0px;}</style></defs><path class="cls-3" d="m335.86,63.98c0,3.6-2.52,5.4-7.92,6.84,1.44,25.2,2.52,54.72,3.24,81.72,28.44-4.68,55.8-9,77.04-12.24l2.16,25.2c-21.6,2.16-49.68,6.12-78.84,10.8.36,33.12-.36,62.28-3.96,79.92-4.32,21.24-19.8,33.48-40.32,33.48-14.76,0-35.64-5.04-55.44-15.84,1.8-5.4,3.24-14.4,4.32-21.24,20.16,10.8,38.52,14.04,47.16,14.04,21.6,0,24.84-21.24,23.04-86.76-41.4,6.84-84.6,14.04-117.36,19.8.72,34.2,1.44,66.96,2.88,87.12,4.32,54.72,31.32,57.96,83.16,57.96,29.52,0,68.4-1.8,94.32-5.4l.72,24.48c-25.56,2.88-61.92,3.96-92.16,3.96-55.8,0-104.76-1.44-110.88-78.84-1.8-20.16-2.52-51.48-3.24-84.96-22.32,3.96-51.84,9.72-70.2,13.32l-3.96-24.12c19.08-2.88,48.96-8.28,73.8-12.24-.36-31.32-.72-65.16-.72-92.52l35.64,3.24c-.36,3.96-3.24,6.12-9,6.84-.36,21.96-.36,50.76,0,77.76l116.64-19.44c-1.08-30.6-2.52-65.52-4.68-94.68l34.56,1.8Z"/><line class="cls-2" x1="102.96" y1="175.27" x2="253.38" y2="151.95"/><line class="cls-2" x1="342.79" y1="87.12" x2="344.68" y2="135.18"/><line class="cls-2" x1="203.07" y1="135.18" x2="203.93" y2="240.84"/><circle class="cls-1" cx="106.88" cy="145.77" r="16.1"/><text class="cls-4" transform="translate(101.04 153.07)"><tspan x="0" y="0">1</tspan></text><circle class="cls-1" cx="370.35" cy="87.12" r="16.1"/><text class="cls-4" transform="translate(364.51 94.43)"><tspan x="0" y="0">2</tspan></text><circle class="cls-1" cx="228.17" cy="124.67" r="16.1"/><text class="cls-4" transform="translate(222.34 131.98)"><tspan x="0" y="0">3</tspan></text><polygon class="cls-1" points="203.93 238.53 208.68 238.49 206.35 244.37 204.01 250.25 201.6 244.41 199.18 238.56 203.93 238.53"/><polygon class="cls-1" points="344.68 129.71 349.42 129.48 347.33 135.45 345.25 141.42 342.59 135.68 339.93 129.94 344.68 129.71"/><polygon class="cls-1" points="250.68 152.33 250 147.62 256.14 149.14 262.28 150.66 256.81 153.84 251.35 157.03 250.68 152.33"/></svg>