<?xml version="1.0" encoding="UTF-8"?><svg id="Layer_1" xmlns="http://www.w3.org/2000/svg" viewBox="0 0 500 430"><defs><style>.cls-1,.cls-2{stroke:#914938;stroke-miterlimit:10;stroke-width:2px;}.cls-1,.cls-3{fill:#914938;}.cls-4{fill:#f4ebd4;font-family:Roboto-Bold, Roboto;font-size:20.36px;font-weight:700;}.cls-2{fill:none;}.cls-3{stroke-width:0px;}</style></defs><path class="cls-3" d="m199.14,73.36c-.72,4.32-3.96,6.84-11.16,7.92-2.88,41.76-6.48,137.16-6.48,190.44s26.64,79.56,72,79.56,88.56-21.96,129.6-68.4c3.6,5.76,11.88,17.28,16.2,21.24-42.12,47.88-93.24,73.08-146.16,73.08-65.52,0-99-37.8-99-105.84,0-45.36,3.24-156.96,5.76-201.24l39.24,3.24Z"/><line class="cls-2" x1="144.9" y1="76.12" x2="139.14" y2="225.26"/><circle class="cls-1" cx="116.8" cy="68.89" r="16.1"/><text class="cls-4" transform="translate(110.96 76.2)"><tspan x="0" y="0">1</tspan></text><polygon class="cls-1" points="139.14 221.63 143.88 221.75 141.37 227.55 138.85 233.35 136.62 227.43 134.39 221.52 139.14 221.63"/></svg>