<?xml version="1.0" encoding="utf-8"?>
<!-- Generator: Adobe Illustrator 27.9.0, SVG Export Plug-In . SVG Version: 6.00 Build 0)  -->
<svg version="1.1" id="Layer_1" shape-rendering="crispEdges"
	 xmlns="http://www.w3.org/2000/svg" xmlns:xlink="http://www.w3.org/1999/xlink" x="0px" y="0px" viewBox="0 0 192 192"
	 style="enable-background:new 0 0 192 192;" xml:space="preserve">
<style type="text/css">
	.st0{fill:#50B06E;}
	.st1{fill:#C33C4A;}
	.st2{fill:#B55D83;}
	.st3{fill:#AA3963;}
	.st4{fill:#E0603D;}
	.st5{fill:#8D5386;}
	.st6{fill:#733C81;}
	.st7{fill:#847AA4;}
	.st8{fill:#35933B;}
	.st9{fill:#EDE5B7;}
	.st10{fill:#F2C7B6;}
	.st11{fill:#EBAC8B;}
	.st12{fill:#6C9BC9;}
	.st13{fill:#EB97A7;}
	.st14{fill:#D45D82;}
	.st15{fill:#E4895D;}
	.st16{fill:#AE5269;}
	.st17{fill:#E6A974;}
	.st18{fill:#E6C874;}
	.st19{fill:#922D52;}
	.st20{fill:#D1584A;}
	.st21{fill:#E7A55D;}
</style>
<g>
	<rect x="44.9" y="11.8" class="st0" width="5.7" height="5.7"/>
	<rect x="50.6" y="11.8" class="st0" width="5.7" height="5.7"/>
	<rect x="67.6" y="11.8" class="st0" width="5.7" height="5.7"/>
	<rect x="73.3" y="11.8" class="st0" width="5.7" height="5.7"/>
	<rect x="113" y="11.8" class="st0" width="5.7" height="5.7"/>
	<rect x="118.7" y="11.8" class="st0" width="5.7" height="5.7"/>
	<rect x="135.8" y="11.8" class="st0" width="5.7" height="5.7"/>
	<rect x="141.4" y="11.8" class="st0" width="5.7" height="5.7"/>
	<rect x="39.2" y="17.5" class="st0" width="5.7" height="5.7"/>
	<rect x="44.9" y="17.5" class="st1" width="5.7" height="5.7"/>
	<rect x="50.6" y="17.5" class="st1" width="5.7" height="5.7"/>
	<rect x="56.2" y="17.5" class="st0" width="5.7" height="5.7"/>
	<rect x="61.9" y="17.5" class="st0" width="5.7" height="5.7"/>
	<rect x="67.6" y="17.5" class="st1" width="5.7" height="5.7"/>
	<rect x="73.3" y="17.5" class="st1" width="5.7" height="5.7"/>
	<rect x="79" y="17.5" class="st0" width="5.7" height="5.7"/>
	<rect x="107.4" y="17.5" class="st0" width="5.7" height="5.7"/>
	<rect x="113" y="17.5" class="st1" width="5.7" height="5.7"/>
	<rect x="118.7" y="17.5" class="st1" width="5.7" height="5.7"/>
	<rect x="124.4" y="17.5" class="st0" width="5.7" height="5.7"/>
	<rect x="130.1" y="17.5" class="st0" width="5.7" height="5.7"/>
	<rect x="135.8" y="17.5" class="st1" width="5.7" height="5.7"/>
	<rect x="141.4" y="17.5" class="st1" width="5.7" height="5.7"/>
	<rect x="147.1" y="17.5" class="st0" width="5.7" height="5.7"/>
	<rect x="44.9" y="23.2" class="st0" width="5.7" height="5.7"/>
	<rect x="50.6" y="23.2" class="st0" width="5.7" height="5.7"/>
	<rect x="56.2" y="23.2" class="st1" width="5.7" height="5.7"/>
	<rect x="61.9" y="23.2" class="st1" width="5.7" height="5.7"/>
	<rect x="67.6" y="23.2" class="st0" width="5.7" height="5.7"/>
	<rect x="73.3" y="23.2" class="st0" width="5.7" height="5.7"/>
	<rect x="113" y="23.2" class="st0" width="5.7" height="5.7"/>
	<rect x="118.7" y="23.2" class="st0" width="5.7" height="5.7"/>
	<rect x="124.4" y="23.2" class="st1" width="5.7" height="5.7"/>
	<rect x="130.1" y="23.2" class="st1" width="5.7" height="5.7"/>
	<rect x="135.8" y="23.2" class="st0" width="5.7" height="5.7"/>
	<rect x="141.4" y="23.2" class="st0" width="5.7" height="5.7"/>
	<rect x="39.2" y="28.9" class="st0" width="5.7" height="5.7"/>
	<rect x="44.9" y="28.9" class="st2" width="5.7" height="5.7"/>
	<rect x="50.6" y="28.9" class="st3" width="5.7" height="5.7"/>
	<rect x="56.2" y="28.9" class="st4" width="5.7" height="5.7"/>
	<rect x="61.9" y="28.9" class="st4" width="5.7" height="5.7"/>
	<rect x="67.6" y="28.9" class="st3" width="5.7" height="5.7"/>
	<rect x="73.3" y="28.9" class="st2" width="5.7" height="5.7"/>
	<rect x="79" y="28.9" class="st0" width="5.7" height="5.7"/>
	<rect x="107.4" y="28.9" class="st0" width="5.7" height="5.7"/>
	<rect x="113" y="28.9" class="st2" width="5.7" height="5.7"/>
	<rect x="118.7" y="28.9" class="st3" width="5.7" height="5.7"/>
	<rect x="124.4" y="28.9" class="st4" width="5.7" height="5.7"/>
	<rect x="130.1" y="28.9" class="st4" width="5.7" height="5.7"/>
	<rect x="135.8" y="28.9" class="st3" width="5.7" height="5.7"/>
	<rect x="141.4" y="28.9" class="st2" width="5.7" height="5.7"/>
	<rect x="147.1" y="28.9" class="st0" width="5.7" height="5.7"/>
	<rect x="33.5" y="34.5" class="st0" width="5.7" height="5.7"/>
	<rect x="39.2" y="34.5" class="st2" width="5.7" height="5.7"/>
	<rect x="44.9" y="34.5" class="st5" width="5.7" height="5.7"/>
	<rect x="50.6" y="34.5" class="st5" width="5.7" height="5.7"/>
	<rect x="56.2" y="34.5" class="st5" width="5.7" height="5.7"/>
	<rect x="61.9" y="34.5" class="st5" width="5.7" height="5.7"/>
	<rect x="67.6" y="34.5" class="st5" width="5.7" height="5.7"/>
	<rect x="73.3" y="34.5" class="st5" width="5.7" height="5.7"/>
	<rect x="79" y="34.5" class="st2" width="5.7" height="5.7"/>
	<rect x="84.6" y="34.5" class="st0" width="5.7" height="5.7"/>
	<rect x="101.7" y="34.5" class="st0" width="5.7" height="5.7"/>
	<rect x="107.4" y="34.5" class="st2" width="5.7" height="5.7"/>
	<rect x="113" y="34.5" class="st5" width="5.7" height="5.7"/>
	<rect x="118.7" y="34.5" class="st5" width="5.7" height="5.7"/>
	<rect x="124.4" y="34.5" class="st5" width="5.7" height="5.7"/>
	<rect x="130.1" y="34.5" class="st5" width="5.7" height="5.7"/>
	<rect x="135.8" y="34.5" class="st5" width="5.7" height="5.7"/>
	<rect x="141.4" y="34.5" class="st5" width="5.7" height="5.7"/>
	<rect x="147.1" y="34.5" class="st2" width="5.7" height="5.7"/>
	<rect x="152.8" y="34.5" class="st0" width="5.7" height="5.7"/>
	<rect x="27.9" y="40.2" class="st0" width="5.7" height="5.7"/>
	<rect x="33.5" y="40.2" class="st2" width="5.7" height="5.7"/>
	<rect x="39.2" y="40.2" class="st5" width="5.7" height="5.7"/>
	<rect x="44.9" y="40.2" class="st6" width="5.7" height="5.7"/>
	<rect x="50.6" y="40.2" class="st7" width="5.7" height="5.7"/>
	<rect x="56.2" y="40.2" class="st7" width="5.7" height="5.7"/>
	<rect x="61.9" y="40.2" class="st7" width="5.7" height="5.7"/>
	<rect x="67.6" y="40.2" class="st7" width="5.7" height="5.7"/>
	<rect x="73.3" y="40.2" class="st6" width="5.7" height="5.7"/>
	<rect x="79" y="40.2" class="st5" width="5.7" height="5.7"/>
	<rect x="84.6" y="40.2" class="st2" width="5.7" height="5.7"/>
	<rect x="90.3" y="40.2" class="st0" width="5.7" height="5.7"/>
	<rect x="96" y="40.2" class="st0" width="5.7" height="5.7"/>
	<rect x="101.7" y="40.2" class="st2" width="5.7" height="5.7"/>
	<rect x="107.4" y="40.2" class="st5" width="5.7" height="5.7"/>
	<rect x="113" y="40.2" class="st6" width="5.7" height="5.7"/>
	<rect x="118.7" y="40.2" class="st7" width="5.7" height="5.7"/>
	<rect x="124.4" y="40.2" class="st7" width="5.7" height="5.7"/>
	<rect x="130.1" y="40.2" class="st7" width="5.7" height="5.7"/>
	<rect x="135.8" y="40.2" class="st7" width="5.7" height="5.7"/>
	<rect x="141.4" y="40.2" class="st6" width="5.7" height="5.7"/>
	<rect x="147.1" y="40.2" class="st5" width="5.7" height="5.7"/>
	<rect x="152.8" y="40.2" class="st2" width="5.7" height="5.7"/>
	<rect x="158.5" y="40.2" class="st0" width="5.7" height="5.7"/>
	<rect x="22.2" y="45.9" class="st0" width="5.7" height="5.7"/>
	<rect x="27.9" y="45.9" class="st2" width="5.7" height="5.7"/>
	<rect x="33.5" y="45.9" class="st5" width="5.7" height="5.7"/>
	<rect x="39.2" y="45.9" class="st6" width="5.7" height="5.7"/>
	<rect x="44.9" y="45.9" class="st6" width="5.7" height="5.7"/>
	<rect x="50.6" y="45.9" class="st6" width="5.7" height="5.7"/>
	<rect x="56.2" y="45.9" class="st6" width="5.7" height="5.7"/>
	<rect x="61.9" y="45.9" class="st6" width="5.7" height="5.7"/>
	<rect x="67.6" y="45.9" class="st6" width="5.7" height="5.7"/>
	<rect x="73.3" y="45.9" class="st6" width="5.7" height="5.7"/>
	<rect x="79" y="45.9" class="st6" width="5.7" height="5.7"/>
	<rect x="84.6" y="45.9" class="st2" width="5.7" height="5.7"/>
	<rect x="90.3" y="45.9" class="st0" width="5.7" height="5.7"/>
	<rect x="96" y="45.9" class="st0" width="5.7" height="5.7"/>
	<rect x="101.7" y="45.9" class="st2" width="5.7" height="5.7"/>
	<rect x="107.4" y="45.9" class="st6" width="5.7" height="5.7"/>
	<rect x="113" y="45.9" class="st6" width="5.7" height="5.7"/>
	<rect x="118.7" y="45.9" class="st6" width="5.7" height="5.7"/>
	<rect x="124.4" y="45.9" class="st6" width="5.7" height="5.7"/>
	<rect x="130.1" y="45.9" class="st6" width="5.7" height="5.7"/>
	<rect x="135.8" y="45.9" class="st6" width="5.7" height="5.7"/>
	<rect x="141.4" y="45.9" class="st6" width="5.7" height="5.7"/>
	<rect x="147.1" y="45.9" class="st6" width="5.7" height="5.7"/>
	<rect x="152.8" y="45.9" class="st5" width="5.7" height="5.7"/>
	<rect x="158.5" y="45.9" class="st2" width="5.7" height="5.7"/>
	<rect x="164.1" y="45.9" class="st0" width="5.7" height="5.7"/>
	<rect x="22.2" y="51.6" class="st0" width="5.7" height="5.7"/>
	<rect x="27.9" y="51.6" class="st2" width="5.7" height="5.7"/>
	<rect x="33.5" y="51.6" class="st6" width="5.7" height="5.7"/>
	<rect x="39.2" y="51.6" class="st6" width="5.7" height="5.7"/>
	<rect x="44.9" y="51.6" class="st6" width="5.7" height="5.7"/>
	<rect x="50.6" y="51.6" class="st6" width="5.7" height="5.7"/>
	<rect x="56.2" y="51.6" class="st6" width="5.7" height="5.7"/>
	<rect x="61.9" y="51.6" class="st6" width="5.7" height="5.7"/>
	<rect x="67.6" y="51.6" class="st6" width="5.7" height="5.7"/>
	<rect x="73.3" y="51.6" class="st6" width="5.7" height="5.7"/>
	<rect x="79" y="51.6" class="st6" width="5.7" height="5.7"/>
	<rect x="84.6" y="51.6" class="st6" width="5.7" height="5.7"/>
	<rect x="90.3" y="51.6" class="st2" width="5.7" height="5.7"/>
	<rect x="96" y="51.6" class="st2" width="5.7" height="5.7"/>
	<rect x="101.7" y="51.6" class="st6" width="5.7" height="5.7"/>
	<rect x="107.4" y="51.6" class="st6" width="5.7" height="5.7"/>
	<rect x="113" y="51.6" class="st6" width="5.7" height="5.7"/>
	<rect x="118.7" y="51.6" class="st6" width="5.7" height="5.7"/>
	<rect x="124.4" y="51.6" class="st6" width="5.7" height="5.7"/>
	<rect x="130.1" y="51.6" class="st6" width="5.7" height="5.7"/>
	<rect x="135.8" y="51.6" class="st6" width="5.7" height="5.7"/>
	<rect x="141.4" y="51.6" class="st6" width="5.7" height="5.7"/>
	<rect x="147.1" y="51.6" class="st6" width="5.7" height="5.7"/>
	<rect x="152.8" y="51.6" class="st6" width="5.7" height="5.7"/>
	<rect x="158.5" y="51.6" class="st2" width="5.7" height="5.7"/>
	<rect x="164.1" y="51.6" class="st0" width="5.7" height="5.7"/>
	<rect x="16.5" y="57.2" class="st0" width="5.7" height="5.7"/>
	<rect x="22.2" y="57.2" class="st2" width="5.7" height="5.7"/>
	<rect x="27.9" y="57.2" class="st6" width="5.7" height="5.7"/>
	<rect x="33.5" y="57.2" class="st6" width="5.7" height="5.7"/>
	<rect x="39.2" y="57.2" class="st6" width="5.7" height="5.7"/>
	<rect x="44.9" y="57.2" class="st6" width="5.7" height="5.7"/>
	<rect x="50.6" y="57.2" class="st6" width="5.7" height="5.7"/>
	<rect x="56.2" y="57.2" class="st6" width="5.7" height="5.7"/>
	<rect x="61.9" y="57.2" class="st6" width="5.7" height="5.7"/>
	<rect x="67.6" y="57.2" class="st6" width="5.7" height="5.7"/>
	<rect x="73.3" y="57.2" class="st6" width="5.7" height="5.7"/>
	<rect x="79" y="57.2" class="st6" width="5.7" height="5.7"/>
	<rect x="84.6" y="57.2" class="st6" width="5.7" height="5.7"/>
	<rect x="90.3" y="57.2" class="st6" width="5.7" height="5.7"/>
	<rect x="96" y="57.2" class="st6" width="5.7" height="5.7"/>
	<rect x="101.7" y="57.2" class="st6" width="5.7" height="5.7"/>
	<rect x="107.4" y="57.2" class="st6" width="5.7" height="5.7"/>
	<rect x="113" y="57.2" class="st6" width="5.7" height="5.7"/>
	<rect x="118.7" y="57.2" class="st6" width="5.7" height="5.7"/>
	<rect x="124.4" y="57.2" class="st6" width="5.7" height="5.7"/>
	<rect x="130.1" y="57.2" class="st6" width="5.7" height="5.7"/>
	<rect x="135.8" y="57.2" class="st6" width="5.7" height="5.7"/>
	<rect x="141.4" y="57.2" class="st6" width="5.7" height="5.7"/>
	<rect x="147.1" y="57.2" class="st6" width="5.7" height="5.7"/>
	<rect x="152.8" y="57.2" class="st6" width="5.7" height="5.7"/>
	<rect x="158.5" y="57.2" class="st6" width="5.7" height="5.7"/>
	<rect x="164.1" y="57.2" class="st2" width="5.7" height="5.7"/>
	<rect x="169.8" y="57.2" class="st0" width="5.7" height="5.7"/>
	<rect x="16.5" y="62.9" class="st0" width="5.7" height="5.7"/>
	<rect x="22.2" y="62.9" class="st2" width="5.7" height="5.7"/>
	<rect x="27.9" y="62.9" class="st6" width="5.7" height="5.7"/>
	<rect x="33.5" y="62.9" class="st6" width="5.7" height="5.7"/>
	<rect x="39.2" y="62.9" class="st6" width="5.7" height="5.7"/>
	<rect x="44.9" y="62.9" class="st8" width="5.7" height="5.7"/>
	<rect x="50.6" y="62.9" class="st9" width="5.7" height="5.7"/>
	<rect x="56.2" y="62.9" class="st9" width="5.7" height="5.7"/>
	<rect x="61.9" y="62.9" class="st9" width="5.7" height="5.7"/>
	<rect x="67.6" y="62.9" class="st9" width="5.7" height="5.7"/>
	<rect x="73.3" y="62.9" class="st8" width="5.7" height="5.7"/>
	<rect x="79" y="62.9" class="st9" width="5.7" height="5.7"/>
	<rect x="84.6" y="62.9" class="st10" width="5.7" height="5.7"/>
	<rect x="90.3" y="62.9" class="st11" width="5.7" height="5.7"/>
	<rect x="96" y="62.9" class="st2" width="5.7" height="5.7"/>
	<rect x="101.7" y="62.9" class="st10" width="5.7" height="5.7"/>
	<rect x="107.4" y="62.9" class="st9" width="5.7" height="5.7"/>
	<rect x="113" y="62.9" class="st12" width="5.7" height="5.7"/>
	<rect x="118.7" y="62.9" class="st9" width="5.7" height="5.7"/>
	<rect x="124.4" y="62.9" class="st9" width="5.7" height="5.7"/>
	<rect x="130.1" y="62.9" class="st9" width="5.7" height="5.7"/>
	<rect x="135.8" y="62.9" class="st9" width="5.7" height="5.7"/>
	<rect x="141.4" y="62.9" class="st12" width="5.7" height="5.7"/>
	<rect x="147.1" y="62.9" class="st6" width="5.7" height="5.7"/>
	<rect x="152.8" y="62.9" class="st6" width="5.7" height="5.7"/>
	<rect x="158.5" y="62.9" class="st6" width="5.7" height="5.7"/>
	<rect x="164.1" y="62.9" class="st2" width="5.7" height="5.7"/>
	<rect x="169.8" y="62.9" class="st0" width="5.7" height="5.7"/>
	<rect x="16.5" y="68.6" class="st0" width="5.7" height="5.7"/>
	<rect x="22.2" y="68.6" class="st2" width="5.7" height="5.7"/>
	<rect x="27.9" y="68.6" class="st6" width="5.7" height="5.7"/>
	<rect x="33.5" y="68.6" class="st6" width="5.7" height="5.7"/>
	<rect x="39.2" y="68.6" class="st6" width="5.7" height="5.7"/>
	<rect x="44.9" y="68.6" class="st5" width="5.7" height="5.7"/>
	<rect x="50.6" y="68.6" class="st5" width="5.7" height="5.7"/>
	<rect x="56.2" y="68.6" class="st9" width="5.7" height="5.7"/>
	<rect x="61.9" y="68.6" class="st9" width="5.7" height="5.7"/>
	<rect x="67.6" y="68.6" class="st5" width="5.7" height="5.7"/>
	<rect x="73.3" y="68.6" class="st5" width="5.7" height="5.7"/>
	<rect x="79" y="68.6" class="st6" width="5.7" height="5.7"/>
	<rect x="84.6" y="68.6" class="st13" width="5.7" height="5.7"/>
	<rect x="90.3" y="68.6" class="st13" width="5.7" height="5.7"/>
	<rect x="96" y="68.6" class="st13" width="5.7" height="5.7"/>
	<rect x="101.7" y="68.6" class="st13" width="5.7" height="5.7"/>
	<rect x="107.4" y="68.6" class="st6" width="5.7" height="5.7"/>
	<rect x="113" y="68.6" class="st5" width="5.7" height="5.7"/>
	<rect x="118.7" y="68.6" class="st5" width="5.7" height="5.7"/>
	<rect x="124.4" y="68.6" class="st9" width="5.7" height="5.7"/>
	<rect x="130.1" y="68.6" class="st9" width="5.7" height="5.7"/>
	<rect x="135.8" y="68.6" class="st5" width="5.7" height="5.7"/>
	<rect x="141.4" y="68.6" class="st5" width="5.7" height="5.7"/>
	<rect x="147.1" y="68.6" class="st6" width="5.7" height="5.7"/>
	<rect x="152.8" y="68.6" class="st6" width="5.7" height="5.7"/>
	<rect x="158.5" y="68.6" class="st6" width="5.7" height="5.7"/>
	<rect x="164.1" y="68.6" class="st2" width="5.7" height="5.7"/>
	<rect x="169.8" y="68.6" class="st0" width="5.7" height="5.7"/>
	<rect x="16.5" y="74.3" class="st0" width="5.7" height="5.7"/>
	<rect x="22.2" y="74.3" class="st2" width="5.7" height="5.7"/>
	<rect x="27.9" y="74.3" class="st6" width="5.7" height="5.7"/>
	<rect x="33.5" y="74.3" class="st6" width="5.7" height="5.7"/>
	<rect x="39.2" y="74.3" class="st6" width="5.7" height="5.7"/>
	<rect x="44.9" y="74.3" class="st9" width="5.7" height="5.7"/>
	<rect x="50.6" y="74.3" class="st9" width="5.7" height="5.7"/>
	<rect x="56.2" y="74.3" class="st9" width="5.7" height="5.7"/>
	<rect x="61.9" y="74.3" class="st9" width="5.7" height="5.7"/>
	<rect x="67.6" y="74.3" class="st9" width="5.7" height="5.7"/>
	<rect x="73.3" y="74.3" class="st9" width="5.7" height="5.7"/>
	<rect x="79" y="74.3" class="st9" width="5.7" height="5.7"/>
	<rect x="84.6" y="74.3" class="st10" width="5.7" height="5.7"/>
	<rect x="90.3" y="74.3" class="st11" width="5.7" height="5.7"/>
	<rect x="96" y="74.3" class="st2" width="5.7" height="5.7"/>
	<rect x="101.7" y="74.3" class="st10" width="5.7" height="5.7"/>
	<rect x="107.4" y="74.3" class="st9" width="5.7" height="5.7"/>
	<rect x="113" y="74.3" class="st9" width="5.7" height="5.7"/>
	<rect x="118.7" y="74.3" class="st9" width="5.7" height="5.7"/>
	<rect x="124.4" y="74.3" class="st9" width="5.7" height="5.7"/>
	<rect x="130.1" y="74.3" class="st9" width="5.7" height="5.7"/>
	<rect x="135.8" y="74.3" class="st9" width="5.7" height="5.7"/>
	<rect x="141.4" y="74.3" class="st9" width="5.7" height="5.7"/>
	<rect x="147.1" y="74.3" class="st6" width="5.7" height="5.7"/>
	<rect x="152.8" y="74.3" class="st6" width="5.7" height="5.7"/>
	<rect x="158.5" y="74.3" class="st6" width="5.7" height="5.7"/>
	<rect x="164.1" y="74.3" class="st2" width="5.7" height="5.7"/>
	<rect x="169.8" y="74.3" class="st0" width="5.7" height="5.7"/>
	<rect x="22.2" y="80" class="st0" width="5.7" height="5.7"/>
	<rect x="27.9" y="80" class="st2" width="5.7" height="5.7"/>
	<rect x="33.5" y="80" class="st6" width="5.7" height="5.7"/>
	<rect x="39.2" y="80" class="st14" width="5.7" height="5.7"/>
	<rect x="44.9" y="80" class="st13" width="5.7" height="5.7"/>
	<rect x="50.6" y="80" class="st9" width="5.7" height="5.7"/>
	<rect x="56.2" y="80" class="st9" width="5.7" height="5.7"/>
	<rect x="61.9" y="80" class="st9" width="5.7" height="5.7"/>
	<rect x="67.6" y="80" class="st9" width="5.7" height="5.7"/>
	<rect x="73.3" y="80" class="st13" width="5.7" height="5.7"/>
	<rect x="79" y="80" class="st14" width="5.7" height="5.7"/>
	<rect x="84.6" y="80" class="st6" width="5.7" height="5.7"/>
	<rect x="90.3" y="80" class="st2" width="5.7" height="5.7"/>
	<rect x="96" y="80" class="st2" width="5.7" height="5.7"/>
	<rect x="101.7" y="80" class="st6" width="5.7" height="5.7"/>
	<rect x="107.4" y="80" class="st14" width="5.7" height="5.7"/>
	<rect x="113" y="80" class="st13" width="5.7" height="5.7"/>
	<rect x="118.7" y="80" class="st9" width="5.7" height="5.7"/>
	<rect x="124.4" y="80" class="st9" width="5.7" height="5.7"/>
	<rect x="130.1" y="80" class="st9" width="5.7" height="5.7"/>
	<rect x="135.8" y="80" class="st9" width="5.7" height="5.7"/>
	<rect x="141.4" y="80" class="st13" width="5.7" height="5.7"/>
	<rect x="147.1" y="80" class="st14" width="5.7" height="5.7"/>
	<rect x="152.8" y="80" class="st6" width="5.7" height="5.7"/>
	<rect x="158.5" y="80" class="st2" width="5.7" height="5.7"/>
	<rect x="164.1" y="80" class="st0" width="5.7" height="5.7"/>
	<rect x="27.9" y="85.6" class="st0" width="5.7" height="5.7"/>
	<rect x="33.5" y="85.6" class="st3" width="5.7" height="5.7"/>
	<rect x="39.2" y="85.6" class="st15" width="5.7" height="5.7"/>
	<rect x="44.9" y="85.6" class="st4" width="5.7" height="5.7"/>
	<rect x="50.6" y="85.6" class="st15" width="5.7" height="5.7"/>
	<rect x="56.2" y="85.6" class="st15" width="5.7" height="5.7"/>
	<rect x="61.9" y="85.6" class="st15" width="5.7" height="5.7"/>
	<rect x="67.6" y="85.6" class="st15" width="5.7" height="5.7"/>
	<rect x="73.3" y="85.6" class="st4" width="5.7" height="5.7"/>
	<rect x="79" y="85.6" class="st15" width="5.7" height="5.7"/>
	<rect x="84.6" y="85.6" class="st3" width="5.7" height="5.7"/>
	<rect x="90.3" y="85.6" class="st0" width="5.7" height="5.7"/>
	<rect x="96" y="85.6" class="st0" width="5.7" height="5.7"/>
	<rect x="101.7" y="85.6" class="st3" width="5.7" height="5.7"/>
	<rect x="107.4" y="85.6" class="st15" width="5.7" height="5.7"/>
	<rect x="113" y="85.6" class="st4" width="5.7" height="5.7"/>
	<rect x="118.7" y="85.6" class="st15" width="5.7" height="5.7"/>
	<rect x="124.4" y="85.6" class="st15" width="5.7" height="5.7"/>
	<rect x="130.1" y="85.6" class="st15" width="5.7" height="5.7"/>
	<rect x="135.8" y="85.6" class="st15" width="5.7" height="5.7"/>
	<rect x="141.4" y="85.6" class="st4" width="5.7" height="5.7"/>
	<rect x="147.1" y="85.6" class="st15" width="5.7" height="5.7"/>
	<rect x="152.8" y="85.6" class="st3" width="5.7" height="5.7"/>
	<rect x="158.5" y="85.6" class="st0" width="5.7" height="5.7"/>
	<rect x="22.2" y="91.3" class="st0" width="5.7" height="5.7"/>
	<rect x="27.9" y="91.3" class="st3" width="5.7" height="5.7"/>
	<rect x="33.5" y="91.3" class="st15" width="5.7" height="5.7"/>
	<rect x="39.2" y="91.3" class="st4" width="5.7" height="5.7"/>
	<rect x="44.9" y="91.3" class="st4" width="5.7" height="5.7"/>
	<rect x="50.6" y="91.3" class="st4" width="5.7" height="5.7"/>
	<rect x="56.2" y="91.3" class="st4" width="5.7" height="5.7"/>
	<rect x="61.9" y="91.3" class="st4" width="5.7" height="5.7"/>
	<rect x="67.6" y="91.3" class="st4" width="5.7" height="5.7"/>
	<rect x="73.3" y="91.3" class="st4" width="5.7" height="5.7"/>
	<rect x="79" y="91.3" class="st4" width="5.7" height="5.7"/>
	<rect x="84.6" y="91.3" class="st15" width="5.7" height="5.7"/>
	<rect x="90.3" y="91.3" class="st3" width="5.7" height="5.7"/>
	<rect x="96" y="91.3" class="st3" width="5.7" height="5.7"/>
	<rect x="101.7" y="91.3" class="st15" width="5.7" height="5.7"/>
	<rect x="107.4" y="91.3" class="st4" width="5.7" height="5.7"/>
	<rect x="113" y="91.3" class="st4" width="5.7" height="5.7"/>
	<rect x="118.7" y="91.3" class="st4" width="5.7" height="5.7"/>
	<rect x="124.4" y="91.3" class="st4" width="5.7" height="5.7"/>
	<rect x="130.1" y="91.3" class="st4" width="5.7" height="5.7"/>
	<rect x="135.8" y="91.3" class="st4" width="5.7" height="5.7"/>
	<rect x="141.4" y="91.3" class="st4" width="5.7" height="5.7"/>
	<rect x="147.1" y="91.3" class="st4" width="5.7" height="5.7"/>
	<rect x="152.8" y="91.3" class="st15" width="5.7" height="5.7"/>
	<rect x="158.5" y="91.3" class="st3" width="5.7" height="5.7"/>
	<rect x="164.1" y="91.3" class="st0" width="5.7" height="5.7"/>
	<rect x="22.2" y="97" class="st0" width="5.7" height="5.7"/>
	<rect x="27.9" y="97" class="st3" width="5.7" height="5.7"/>
	<rect x="33.5" y="97" class="st15" width="5.7" height="5.7"/>
	<rect x="39.2" y="97" class="st4" width="5.7" height="5.7"/>
	<rect x="44.9" y="97" class="st4" width="5.7" height="5.7"/>
	<rect x="50.6" y="97" class="st4" width="5.7" height="5.7"/>
	<rect x="56.2" y="97" class="st4" width="5.7" height="5.7"/>
	<rect x="61.9" y="97" class="st4" width="5.7" height="5.7"/>
	<rect x="67.6" y="97" class="st4" width="5.7" height="5.7"/>
	<rect x="73.3" y="97" class="st4" width="5.7" height="5.7"/>
	<rect x="79" y="97" class="st4" width="5.7" height="5.7"/>
	<rect x="84.6" y="97" class="st15" width="5.7" height="5.7"/>
	<rect x="90.3" y="97" class="st3" width="5.7" height="5.7"/>
	<rect x="96" y="97" class="st3" width="5.7" height="5.7"/>
	<rect x="101.7" y="97" class="st15" width="5.7" height="5.7"/>
	<rect x="107.4" y="97" class="st4" width="5.7" height="5.7"/>
	<rect x="113" y="97" class="st4" width="5.7" height="5.7"/>
	<rect x="118.7" y="97" class="st4" width="5.7" height="5.7"/>
	<rect x="124.4" y="97" class="st4" width="5.7" height="5.7"/>
	<rect x="130.1" y="97" class="st4" width="5.7" height="5.7"/>
	<rect x="135.8" y="97" class="st4" width="5.7" height="5.7"/>
	<rect x="141.4" y="97" class="st4" width="5.7" height="5.7"/>
	<rect x="147.1" y="97" class="st4" width="5.7" height="5.7"/>
	<rect x="152.8" y="97" class="st15" width="5.7" height="5.7"/>
	<rect x="158.5" y="97" class="st3" width="5.7" height="5.7"/>
	<rect x="164.1" y="97" class="st0" width="5.7" height="5.7"/>
	<rect x="16.5" y="102.7" class="st0" width="5.7" height="5.7"/>
	<rect x="22.2" y="102.7" class="st3" width="5.7" height="5.7"/>
	<rect x="27.9" y="102.7" class="st15" width="5.7" height="5.7"/>
	<rect x="33.5" y="102.7" class="st4" width="5.7" height="5.7"/>
	<rect x="39.2" y="102.7" class="st3" width="5.7" height="5.7"/>
	<rect x="44.9" y="102.7" class="st3" width="5.7" height="5.7"/>
	<rect x="50.6" y="102.7" class="st3" width="5.7" height="5.7"/>
	<rect x="56.2" y="102.7" class="st4" width="5.7" height="5.7"/>
	<rect x="61.9" y="102.7" class="st4" width="5.7" height="5.7"/>
	<rect x="67.6" y="102.7" class="st3" width="5.7" height="5.7"/>
	<rect x="73.3" y="102.7" class="st3" width="5.7" height="5.7"/>
	<rect x="79" y="102.7" class="st3" width="5.7" height="5.7"/>
	<rect x="84.6" y="102.7" class="st1" width="5.7" height="5.7"/>
	<rect x="90.3" y="102.7" class="st15" width="5.7" height="5.7"/>
	<rect x="96" y="102.7" class="st15" width="5.7" height="5.7"/>
	<rect x="101.7" y="102.7" class="st1" width="5.7" height="5.7"/>
	<rect x="107.4" y="102.7" class="st3" width="5.7" height="5.7"/>
	<rect x="113" y="102.7" class="st3" width="5.7" height="5.7"/>
	<rect x="118.7" y="102.7" class="st3" width="5.7" height="5.7"/>
	<rect x="124.4" y="102.7" class="st4" width="5.7" height="5.7"/>
	<rect x="130.1" y="102.7" class="st4" width="5.7" height="5.7"/>
	<rect x="135.8" y="102.7" class="st3" width="5.7" height="5.7"/>
	<rect x="141.4" y="102.7" class="st3" width="5.7" height="5.7"/>
	<rect x="147.1" y="102.7" class="st3" width="5.7" height="5.7"/>
	<rect x="152.8" y="102.7" class="st4" width="5.7" height="5.7"/>
	<rect x="158.5" y="102.7" class="st15" width="5.7" height="5.7"/>
	<rect x="164.1" y="102.7" class="st3" width="5.7" height="5.7"/>
	<rect x="169.8" y="102.7" class="st0" width="5.7" height="5.7"/>
	<rect x="16.5" y="108.4" class="st0" width="5.7" height="5.7"/>
	<rect x="22.2" y="108.4" class="st16" width="5.7" height="5.7"/>
	<rect x="27.9" y="108.4" class="st15" width="5.7" height="5.7"/>
	<rect x="33.5" y="108.4" class="st3" width="5.7" height="5.7"/>
	<rect x="39.2" y="108.4" class="st17" width="5.7" height="5.7"/>
	<rect x="44.9" y="108.4" class="st17" width="5.7" height="5.7"/>
	<rect x="50.6" y="108.4" class="st17" width="5.7" height="5.7"/>
	<rect x="56.2" y="108.4" class="st3" width="5.7" height="5.7"/>
	<rect x="61.9" y="108.4" class="st3" width="5.7" height="5.7"/>
	<rect x="67.6" y="108.4" class="st17" width="5.7" height="5.7"/>
	<rect x="73.3" y="108.4" class="st17" width="5.7" height="5.7"/>
	<rect x="79" y="108.4" class="st18" width="5.7" height="5.7"/>
	<rect x="84.6" y="108.4" class="st3" width="5.7" height="5.7"/>
	<rect x="90.3" y="108.4" class="st1" width="5.7" height="5.7"/>
	<rect x="96" y="108.4" class="st1" width="5.7" height="5.7"/>
	<rect x="101.7" y="108.4" class="st3" width="5.7" height="5.7"/>
	<rect x="107.4" y="108.4" class="st17" width="5.7" height="5.7"/>
	<rect x="113" y="108.4" class="st17" width="5.7" height="5.7"/>
	<rect x="118.7" y="108.4" class="st17" width="5.7" height="5.7"/>
	<rect x="124.4" y="108.4" class="st3" width="5.7" height="5.7"/>
	<rect x="130.1" y="108.4" class="st3" width="5.7" height="5.7"/>
	<rect x="135.8" y="108.4" class="st17" width="5.7" height="5.7"/>
	<rect x="141.4" y="108.4" class="st17" width="5.7" height="5.7"/>
	<rect x="147.1" y="108.4" class="st18" width="5.7" height="5.7"/>
	<rect x="152.8" y="108.4" class="st3" width="5.7" height="5.7"/>
	<rect x="158.5" y="108.4" class="st15" width="5.7" height="5.7"/>
	<rect x="164.1" y="108.4" class="st16" width="5.7" height="5.7"/>
	<rect x="169.8" y="108.4" class="st0" width="5.7" height="5.7"/>
	<rect x="16.5" y="114" class="st0" width="5.7" height="5.7"/>
	<rect x="22.2" y="114" class="st16" width="5.7" height="5.7"/>
	<rect x="27.9" y="114" class="st15" width="5.7" height="5.7"/>
	<rect x="33.5" y="114" class="st15" width="5.7" height="5.7"/>
	<rect x="39.2" y="114" class="st15" width="5.7" height="5.7"/>
	<rect x="44.9" y="114" class="st15" width="5.7" height="5.7"/>
	<rect x="50.6" y="114" class="st15" width="5.7" height="5.7"/>
	<rect x="56.2" y="114" class="st17" width="5.7" height="5.7"/>
	<rect x="61.9" y="114" class="st3" width="5.7" height="5.7"/>
	<rect x="67.6" y="114" class="st15" width="5.7" height="5.7"/>
	<rect x="73.3" y="114" class="st18" width="5.7" height="5.7"/>
	<rect x="79" y="114" class="st4" width="5.7" height="5.7"/>
	<rect x="84.6" y="114" class="st18" width="5.7" height="5.7"/>
	<rect x="90.3" y="114" class="st15" width="5.7" height="5.7"/>
	<rect x="96" y="114" class="st15" width="5.7" height="5.7"/>
	<rect x="101.7" y="114" class="st1" width="5.7" height="5.7"/>
	<rect x="107.4" y="114" class="st15" width="5.7" height="5.7"/>
	<rect x="113" y="114" class="st15" width="5.7" height="5.7"/>
	<rect x="118.7" y="114" class="st15" width="5.7" height="5.7"/>
	<rect x="124.4" y="114" class="st17" width="5.7" height="5.7"/>
	<rect x="130.1" y="114" class="st3" width="5.7" height="5.7"/>
	<rect x="135.8" y="114" class="st15" width="5.7" height="5.7"/>
	<rect x="141.4" y="114" class="st18" width="5.7" height="5.7"/>
	<rect x="147.1" y="114" class="st4" width="5.7" height="5.7"/>
	<rect x="152.8" y="114" class="st18" width="5.7" height="5.7"/>
	<rect x="158.5" y="114" class="st15" width="5.7" height="5.7"/>
	<rect x="164.1" y="114" class="st16" width="5.7" height="5.7"/>
	<rect x="169.8" y="114" class="st0" width="5.7" height="5.7"/>
	<rect x="16.5" y="119.7" class="st0" width="5.7" height="5.7"/>
	<rect x="22.2" y="119.7" class="st1" width="5.7" height="5.7"/>
	<rect x="27.9" y="119.7" class="st15" width="5.7" height="5.7"/>
	<rect x="33.5" y="119.7" class="st15" width="5.7" height="5.7"/>
	<rect x="39.2" y="119.7" class="st15" width="5.7" height="5.7"/>
	<rect x="44.9" y="119.7" class="st18" width="5.7" height="5.7"/>
	<rect x="50.6" y="119.7" class="st15" width="5.7" height="5.7"/>
	<rect x="56.2" y="119.7" class="st1" width="5.7" height="5.7"/>
	<rect x="61.9" y="119.7" class="st17" width="5.7" height="5.7"/>
	<rect x="67.6" y="119.7" class="st15" width="5.7" height="5.7"/>
	<rect x="73.3" y="119.7" class="st15" width="5.7" height="5.7"/>
	<rect x="79" y="119.7" class="st18" width="5.7" height="5.7"/>
	<rect x="84.6" y="119.7" class="st15" width="5.7" height="5.7"/>
	<rect x="90.3" y="119.7" class="st1" width="5.7" height="5.7"/>
	<rect x="96" y="119.7" class="st1" width="5.7" height="5.7"/>
	<rect x="101.7" y="119.7" class="st15" width="5.7" height="5.7"/>
	<rect x="107.4" y="119.7" class="st15" width="5.7" height="5.7"/>
	<rect x="113" y="119.7" class="st18" width="5.7" height="5.7"/>
	<rect x="118.7" y="119.7" class="st15" width="5.7" height="5.7"/>
	<rect x="124.4" y="119.7" class="st1" width="5.7" height="5.7"/>
	<rect x="130.1" y="119.7" class="st17" width="5.7" height="5.7"/>
	<rect x="135.8" y="119.7" class="st15" width="5.7" height="5.7"/>
	<rect x="141.4" y="119.7" class="st15" width="5.7" height="5.7"/>
	<rect x="147.1" y="119.7" class="st18" width="5.7" height="5.7"/>
	<rect x="152.8" y="119.7" class="st15" width="5.7" height="5.7"/>
	<rect x="158.5" y="119.7" class="st15" width="5.7" height="5.7"/>
	<rect x="164.1" y="119.7" class="st1" width="5.7" height="5.7"/>
	<rect x="169.8" y="119.7" class="st0" width="5.7" height="5.7"/>
	<rect x="16.5" y="125.4" class="st0" width="5.7" height="5.7"/>
	<rect x="22.2" y="125.4" class="st1" width="5.7" height="5.7"/>
	<rect x="27.9" y="125.4" class="st15" width="5.7" height="5.7"/>
	<rect x="33.5" y="125.4" class="st15" width="5.7" height="5.7"/>
	<rect x="39.2" y="125.4" class="st18" width="5.7" height="5.7"/>
	<rect x="44.9" y="125.4" class="st4" width="5.7" height="5.7"/>
	<rect x="50.6" y="125.4" class="st18" width="5.7" height="5.7"/>
	<rect x="56.2" y="125.4" class="st17" width="5.7" height="5.7"/>
	<rect x="61.9" y="125.4" class="st1" width="5.7" height="5.7"/>
	<rect x="67.6" y="125.4" class="st15" width="5.7" height="5.7"/>
	<rect x="73.3" y="125.4" class="st15" width="5.7" height="5.7"/>
	<rect x="79" y="125.4" class="st15" width="5.7" height="5.7"/>
	<rect x="84.6" y="125.4" class="st1" width="5.7" height="5.7"/>
	<rect x="90.3" y="125.4" class="st15" width="5.7" height="5.7"/>
	<rect x="96" y="125.4" class="st15" width="5.7" height="5.7"/>
	<rect x="101.7" y="125.4" class="st1" width="5.7" height="5.7"/>
	<rect x="107.4" y="125.4" class="st18" width="5.7" height="5.7"/>
	<rect x="113" y="125.4" class="st4" width="5.7" height="5.7"/>
	<rect x="118.7" y="125.4" class="st18" width="5.7" height="5.7"/>
	<rect x="124.4" y="125.4" class="st17" width="5.7" height="5.7"/>
	<rect x="130.1" y="125.4" class="st1" width="5.7" height="5.7"/>
	<rect x="135.8" y="125.4" class="st15" width="5.7" height="5.7"/>
	<rect x="141.4" y="125.4" class="st15" width="5.7" height="5.7"/>
	<rect x="147.1" y="125.4" class="st15" width="5.7" height="5.7"/>
	<rect x="152.8" y="125.4" class="st15" width="5.7" height="5.7"/>
	<rect x="158.5" y="125.4" class="st15" width="5.7" height="5.7"/>
	<rect x="164.1" y="125.4" class="st1" width="5.7" height="5.7"/>
	<rect x="169.8" y="125.4" class="st0" width="5.7" height="5.7"/>
	<rect x="16.5" y="131.1" class="st0" width="5.7" height="5.7"/>
	<rect x="22.2" y="131.1" class="st1" width="5.7" height="5.7"/>
	<rect x="27.9" y="131.1" class="st15" width="5.7" height="5.7"/>
	<rect x="33.5" y="131.1" class="st15" width="5.7" height="5.7"/>
	<rect x="39.2" y="131.1" class="st15" width="5.7" height="5.7"/>
	<rect x="44.9" y="131.1" class="st18" width="5.7" height="5.7"/>
	<rect x="50.6" y="131.1" class="st15" width="5.7" height="5.7"/>
	<rect x="56.2" y="131.1" class="st1" width="5.7" height="5.7"/>
	<rect x="61.9" y="131.1" class="st1" width="5.7" height="5.7"/>
	<rect x="67.6" y="131.1" class="st15" width="5.7" height="5.7"/>
	<rect x="73.3" y="131.1" class="st15" width="5.7" height="5.7"/>
	<rect x="79" y="131.1" class="st15" width="5.7" height="5.7"/>
	<rect x="84.6" y="131.1" class="st15" width="5.7" height="5.7"/>
	<rect x="90.3" y="131.1" class="st1" width="5.7" height="5.7"/>
	<rect x="96" y="131.1" class="st1" width="5.7" height="5.7"/>
	<rect x="101.7" y="131.1" class="st15" width="5.7" height="5.7"/>
	<rect x="107.4" y="131.1" class="st15" width="5.7" height="5.7"/>
	<rect x="113" y="131.1" class="st18" width="5.7" height="5.7"/>
	<rect x="118.7" y="131.1" class="st15" width="5.7" height="5.7"/>
	<rect x="124.4" y="131.1" class="st1" width="5.7" height="5.7"/>
	<rect x="130.1" y="131.1" class="st1" width="5.7" height="5.7"/>
	<rect x="135.8" y="131.1" class="st15" width="5.7" height="5.7"/>
	<rect x="141.4" y="131.1" class="st15" width="5.7" height="5.7"/>
	<rect x="147.1" y="131.1" class="st15" width="5.7" height="5.7"/>
	<rect x="152.8" y="131.1" class="st15" width="5.7" height="5.7"/>
	<rect x="158.5" y="131.1" class="st15" width="5.7" height="5.7"/>
	<rect x="164.1" y="131.1" class="st1" width="5.7" height="5.7"/>
	<rect x="169.8" y="131.1" class="st0" width="5.7" height="5.7"/>
	<rect x="16.5" y="136.8" class="st0" width="5.7" height="5.7"/>
	<rect x="22.2" y="136.8" class="st1" width="5.7" height="5.7"/>
	<rect x="27.9" y="136.8" class="st15" width="5.7" height="5.7"/>
	<rect x="33.5" y="136.8" class="st1" width="5.7" height="5.7"/>
	<rect x="39.2" y="136.8" class="st15" width="5.7" height="5.7"/>
	<rect x="44.9" y="136.8" class="st15" width="5.7" height="5.7"/>
	<rect x="50.6" y="136.8" class="st1" width="5.7" height="5.7"/>
	<rect x="56.2" y="136.8" class="st19" width="5.7" height="5.7"/>
	<rect x="61.9" y="136.8" class="st19" width="5.7" height="5.7"/>
	<rect x="67.6" y="136.8" class="st1" width="5.7" height="5.7"/>
	<rect x="73.3" y="136.8" class="st15" width="5.7" height="5.7"/>
	<rect x="79" y="136.8" class="st15" width="5.7" height="5.7"/>
	<rect x="84.6" y="136.8" class="st1" width="5.7" height="5.7"/>
	<rect x="90.3" y="136.8" class="st15" width="5.7" height="5.7"/>
	<rect x="96" y="136.8" class="st15" width="5.7" height="5.7"/>
	<rect x="101.7" y="136.8" class="st1" width="5.7" height="5.7"/>
	<rect x="107.4" y="136.8" class="st15" width="5.7" height="5.7"/>
	<rect x="113" y="136.8" class="st15" width="5.7" height="5.7"/>
	<rect x="118.7" y="136.8" class="st1" width="5.7" height="5.7"/>
	<rect x="124.4" y="136.8" class="st19" width="5.7" height="5.7"/>
	<rect x="130.1" y="136.8" class="st19" width="5.7" height="5.7"/>
	<rect x="135.8" y="136.8" class="st1" width="5.7" height="5.7"/>
	<rect x="141.4" y="136.8" class="st15" width="5.7" height="5.7"/>
	<rect x="147.1" y="136.8" class="st15" width="5.7" height="5.7"/>
	<rect x="152.8" y="136.8" class="st1" width="5.7" height="5.7"/>
	<rect x="158.5" y="136.8" class="st15" width="5.7" height="5.7"/>
	<rect x="164.1" y="136.8" class="st1" width="5.7" height="5.7"/>
	<rect x="169.8" y="136.8" class="st0" width="5.7" height="5.7"/>
	<rect x="16.5" y="142.4" class="st0" width="5.7" height="5.7"/>
	<rect x="22.2" y="142.4" class="st20" width="5.7" height="5.7"/>
	<rect x="27.9" y="142.4" class="st15" width="5.7" height="5.7"/>
	<rect x="33.5" y="142.4" class="st4" width="5.7" height="5.7"/>
	<rect x="39.2" y="142.4" class="st1" width="5.7" height="5.7"/>
	<rect x="44.9" y="142.4" class="st1" width="5.7" height="5.7"/>
	<rect x="50.6" y="142.4" class="st4" width="5.7" height="5.7"/>
	<rect x="56.2" y="142.4" class="st4" width="5.7" height="5.7"/>
	<rect x="61.9" y="142.4" class="st4" width="5.7" height="5.7"/>
	<rect x="67.6" y="142.4" class="st4" width="5.7" height="5.7"/>
	<rect x="73.3" y="142.4" class="st1" width="5.7" height="5.7"/>
	<rect x="79" y="142.4" class="st1" width="5.7" height="5.7"/>
	<rect x="84.6" y="142.4" class="st4" width="5.7" height="5.7"/>
	<rect x="90.3" y="142.4" class="st1" width="5.7" height="5.7"/>
	<rect x="96" y="142.4" class="st1" width="5.7" height="5.7"/>
	<rect x="101.7" y="142.4" class="st4" width="5.7" height="5.7"/>
	<rect x="107.4" y="142.4" class="st1" width="5.7" height="5.7"/>
	<rect x="113" y="142.4" class="st1" width="5.7" height="5.7"/>
	<rect x="118.7" y="142.4" class="st4" width="5.7" height="5.7"/>
	<rect x="124.4" y="142.4" class="st4" width="5.7" height="5.7"/>
	<rect x="130.1" y="142.4" class="st4" width="5.7" height="5.7"/>
	<rect x="135.8" y="142.4" class="st4" width="5.7" height="5.7"/>
	<rect x="141.4" y="142.4" class="st1" width="5.7" height="5.7"/>
	<rect x="147.1" y="142.4" class="st1" width="5.7" height="5.7"/>
	<rect x="152.8" y="142.4" class="st4" width="5.7" height="5.7"/>
	<rect x="158.5" y="142.4" class="st15" width="5.7" height="5.7"/>
	<rect x="164.1" y="142.4" class="st20" width="5.7" height="5.7"/>
	<rect x="169.8" y="142.4" class="st0" width="5.7" height="5.7"/>
	<rect x="22.2" y="148.1" class="st0" width="5.7" height="5.7"/>
	<rect x="27.9" y="148.1" class="st20" width="5.7" height="5.7"/>
	<rect x="33.5" y="148.1" class="st15" width="5.7" height="5.7"/>
	<rect x="39.2" y="148.1" class="st4" width="5.7" height="5.7"/>
	<rect x="44.9" y="148.1" class="st4" width="5.7" height="5.7"/>
	<rect x="50.6" y="148.1" class="st4" width="5.7" height="5.7"/>
	<rect x="56.2" y="148.1" class="st4" width="5.7" height="5.7"/>
	<rect x="61.9" y="148.1" class="st4" width="5.7" height="5.7"/>
	<rect x="67.6" y="148.1" class="st4" width="5.7" height="5.7"/>
	<rect x="73.3" y="148.1" class="st21" width="5.7" height="5.7"/>
	<rect x="79" y="148.1" class="st4" width="5.7" height="5.7"/>
	<rect x="84.6" y="148.1" class="st15" width="5.7" height="5.7"/>
	<rect x="90.3" y="148.1" class="st20" width="5.7" height="5.7"/>
	<rect x="96" y="148.1" class="st20" width="5.7" height="5.7"/>
	<rect x="101.7" y="148.1" class="st15" width="5.7" height="5.7"/>
	<rect x="107.4" y="148.1" class="st4" width="5.7" height="5.7"/>
	<rect x="113" y="148.1" class="st4" width="5.7" height="5.7"/>
	<rect x="118.7" y="148.1" class="st4" width="5.7" height="5.7"/>
	<rect x="124.4" y="148.1" class="st4" width="5.7" height="5.7"/>
	<rect x="130.1" y="148.1" class="st4" width="5.7" height="5.7"/>
	<rect x="135.8" y="148.1" class="st4" width="5.7" height="5.7"/>
	<rect x="141.4" y="148.1" class="st21" width="5.7" height="5.7"/>
	<rect x="147.1" y="148.1" class="st4" width="5.7" height="5.7"/>
	<rect x="152.8" y="148.1" class="st15" width="5.7" height="5.7"/>
	<rect x="158.5" y="148.1" class="st20" width="5.7" height="5.7"/>
	<rect x="164.1" y="148.1" class="st0" width="5.7" height="5.7"/>
	<rect x="27.9" y="153.8" class="st0" width="5.7" height="5.7"/>
	<rect x="33.5" y="153.8" class="st1" width="5.7" height="5.7"/>
	<rect x="39.2" y="153.8" class="st15" width="5.7" height="5.7"/>
	<rect x="44.9" y="153.8" class="st4" width="5.7" height="5.7"/>
	<rect x="50.6" y="153.8" class="st21" width="5.7" height="5.7"/>
	<rect x="56.2" y="153.8" class="st4" width="5.7" height="5.7"/>
	<rect x="61.9" y="153.8" class="st4" width="5.7" height="5.7"/>
	<rect x="67.6" y="153.8" class="st21" width="5.7" height="5.7"/>
	<rect x="73.3" y="153.8" class="st4" width="5.7" height="5.7"/>
	<rect x="79" y="153.8" class="st21" width="5.7" height="5.7"/>
	<rect x="84.6" y="153.8" class="st1" width="5.7" height="5.7"/>
	<rect x="90.3" y="153.8" class="st0" width="5.7" height="5.7"/>
	<rect x="96" y="153.8" class="st0" width="5.7" height="5.7"/>
	<rect x="101.7" y="153.8" class="st1" width="5.7" height="5.7"/>
	<rect x="107.4" y="153.8" class="st15" width="5.7" height="5.7"/>
	<rect x="113" y="153.8" class="st4" width="5.7" height="5.7"/>
	<rect x="118.7" y="153.8" class="st21" width="5.7" height="5.7"/>
	<rect x="124.4" y="153.8" class="st4" width="5.7" height="5.7"/>
	<rect x="130.1" y="153.8" class="st4" width="5.7" height="5.7"/>
	<rect x="135.8" y="153.8" class="st21" width="5.7" height="5.7"/>
	<rect x="141.4" y="153.8" class="st4" width="5.7" height="5.7"/>
	<rect x="147.1" y="153.8" class="st21" width="5.7" height="5.7"/>
	<rect x="152.8" y="153.8" class="st1" width="5.7" height="5.7"/>
	<rect x="158.5" y="153.8" class="st0" width="5.7" height="5.7"/>
	<rect x="33.5" y="159.5" class="st0" width="5.7" height="5.7"/>
	<rect x="39.2" y="159.5" class="st1" width="5.7" height="5.7"/>
	<rect x="44.9" y="159.5" class="st21" width="5.7" height="5.7"/>
	<rect x="50.6" y="159.5" class="st4" width="5.7" height="5.7"/>
	<rect x="56.2" y="159.5" class="st21" width="5.7" height="5.7"/>
	<rect x="61.9" y="159.5" class="st4" width="5.7" height="5.7"/>
	<rect x="67.6" y="159.5" class="st4" width="5.7" height="5.7"/>
	<rect x="73.3" y="159.5" class="st21" width="5.7" height="5.7"/>
	<rect x="79" y="159.5" class="st1" width="5.7" height="5.7"/>
	<rect x="84.6" y="159.5" class="st0" width="5.7" height="5.7"/>
	<rect x="101.7" y="159.5" class="st0" width="5.7" height="5.7"/>
	<rect x="107.4" y="159.5" class="st1" width="5.7" height="5.7"/>
	<rect x="113" y="159.5" class="st21" width="5.7" height="5.7"/>
	<rect x="118.7" y="159.5" class="st4" width="5.7" height="5.7"/>
	<rect x="124.4" y="159.5" class="st21" width="5.7" height="5.7"/>
	<rect x="130.1" y="159.5" class="st4" width="5.7" height="5.7"/>
	<rect x="135.8" y="159.5" class="st4" width="5.7" height="5.7"/>
	<rect x="141.4" y="159.5" class="st21" width="5.7" height="5.7"/>
	<rect x="147.1" y="159.5" class="st1" width="5.7" height="5.7"/>
	<rect x="152.8" y="159.5" class="st0" width="5.7" height="5.7"/>
	<rect x="33.5" y="165.1" class="st0" width="5.7" height="5.7"/>
	<rect x="39.2" y="165.1" class="st3" width="5.7" height="5.7"/>
	<rect x="44.9" y="165.1" class="st15" width="5.7" height="5.7"/>
	<rect x="50.6" y="165.1" class="st21" width="5.7" height="5.7"/>
	<rect x="56.2" y="165.1" class="st4" width="5.7" height="5.7"/>
	<rect x="61.9" y="165.1" class="st4" width="5.7" height="5.7"/>
	<rect x="67.6" y="165.1" class="st4" width="5.7" height="5.7"/>
	<rect x="73.3" y="165.1" class="st15" width="5.7" height="5.7"/>
	<rect x="79" y="165.1" class="st3" width="5.7" height="5.7"/>
	<rect x="84.6" y="165.1" class="st0" width="5.7" height="5.7"/>
	<rect x="101.7" y="165.1" class="st0" width="5.7" height="5.7"/>
	<rect x="107.4" y="165.1" class="st3" width="5.7" height="5.7"/>
	<rect x="113" y="165.1" class="st15" width="5.7" height="5.7"/>
	<rect x="118.7" y="165.1" class="st21" width="5.7" height="5.7"/>
	<rect x="124.4" y="165.1" class="st4" width="5.7" height="5.7"/>
	<rect x="130.1" y="165.1" class="st4" width="5.7" height="5.7"/>
	<rect x="135.8" y="165.1" class="st4" width="5.7" height="5.7"/>
	<rect x="141.4" y="165.1" class="st15" width="5.7" height="5.7"/>
	<rect x="147.1" y="165.1" class="st3" width="5.7" height="5.7"/>
	<rect x="152.8" y="165.1" class="st0" width="5.7" height="5.7"/>
	<rect x="33.5" y="170.8" class="st0" width="5.7" height="5.7"/>
	<rect x="39.2" y="170.8" class="st3" width="5.7" height="5.7"/>
	<rect x="44.9" y="170.8" class="st3" width="5.7" height="5.7"/>
	<rect x="50.6" y="170.8" class="st3" width="5.7" height="5.7"/>
	<rect x="56.2" y="170.8" class="st3" width="5.7" height="5.7"/>
	<rect x="61.9" y="170.8" class="st3" width="5.7" height="5.7"/>
	<rect x="67.6" y="170.8" class="st3" width="5.7" height="5.7"/>
	<rect x="73.3" y="170.8" class="st3" width="5.7" height="5.7"/>
	<rect x="79" y="170.8" class="st3" width="5.7" height="5.7"/>
	<rect x="84.6" y="170.8" class="st0" width="5.7" height="5.7"/>
	<rect x="101.7" y="170.8" class="st0" width="5.7" height="5.7"/>
	<rect x="107.4" y="170.8" class="st3" width="5.7" height="5.7"/>
	<rect x="113" y="170.8" class="st3" width="5.7" height="5.7"/>
	<rect x="118.7" y="170.8" class="st3" width="5.7" height="5.7"/>
	<rect x="124.4" y="170.8" class="st3" width="5.7" height="5.7"/>
	<rect x="130.1" y="170.8" class="st3" width="5.7" height="5.7"/>
	<rect x="135.8" y="170.8" class="st3" width="5.7" height="5.7"/>
	<rect x="141.4" y="170.8" class="st3" width="5.7" height="5.7"/>
	<rect x="147.1" y="170.8" class="st3" width="5.7" height="5.7"/>
	<rect x="152.8" y="170.8" class="st0" width="5.7" height="5.7"/>
	<rect x="39.2" y="176.5" class="st0" width="5.7" height="5.7"/>
	<rect x="44.9" y="176.5" class="st0" width="5.7" height="5.7"/>
	<rect x="50.6" y="176.5" class="st0" width="5.7" height="5.7"/>
	<rect x="56.2" y="176.5" class="st0" width="5.7" height="5.7"/>
	<rect x="61.9" y="176.5" class="st0" width="5.7" height="5.7"/>
	<rect x="67.6" y="176.5" class="st0" width="5.7" height="5.7"/>
	<rect x="73.3" y="176.5" class="st0" width="5.7" height="5.7"/>
	<rect x="79" y="176.5" class="st0" width="5.7" height="5.7"/>
	<rect x="107.4" y="176.5" class="st0" width="5.7" height="5.7"/>
	<rect x="113" y="176.5" class="st0" width="5.7" height="5.7"/>
	<rect x="118.7" y="176.5" class="st0" width="5.7" height="5.7"/>
	<rect x="124.4" y="176.5" class="st0" width="5.7" height="5.7"/>
	<rect x="130.1" y="176.5" class="st0" width="5.7" height="5.7"/>
	<rect x="135.8" y="176.5" class="st0" width="5.7" height="5.7"/>
	<rect x="141.4" y="176.5" class="st0" width="5.7" height="5.7"/>
	<rect x="147.1" y="176.5" class="st0" width="5.7" height="5.7"/>
</g>
</svg>
