<?xml version="1.0" encoding="utf-8"?>
<!-- Generator: Adobe Illustrator 27.9.0, SVG Export Plug-In . SVG Version: 6.00 Build 0)  -->
<svg version="1.1" id="Layer_1" shape-rendering="crispEdges"
	 xmlns="http://www.w3.org/2000/svg" xmlns:xlink="http://www.w3.org/1999/xlink" x="0px" y="0px" viewBox="0 0 192 192"
	 style="enable-background:new 0 0 192 192;" xml:space="preserve">
<style type="text/css">
	.st0{fill:#C1B9E0;}
	.st1{fill:#ECE7E8;}
	.st2{fill:#E87687;}
	.st3{fill:#ECC98B;}
	.st4{fill:#EB97A7;}
	.st5{fill:#EFDCE5;}
	.st6{fill:#EDE5B7;}
	.st7{fill:#B55D83;}
	.st8{fill:#C4AFCA;}
	.st9{fill:#E75D81;}
	.st10{fill:#A39EC6;}
	.st11{fill:#DA7FA0;}
</style>
<g>
	<rect x="90.4" y="13" class="st0" width="5.6" height="5.6"/>
	<rect x="96" y="13" class="st0" width="5.6" height="5.6"/>
	<rect x="84.8" y="18.6" class="st0" width="5.6" height="5.6"/>
	<rect x="90.4" y="18.6" class="st1" width="5.6" height="5.6"/>
	<rect x="96" y="18.6" class="st1" width="5.6" height="5.6"/>
	<rect x="101.6" y="18.6" class="st0" width="5.6" height="5.6"/>
	<rect x="84.8" y="24.2" class="st0" width="5.6" height="5.6"/>
	<rect x="90.4" y="24.2" class="st0" width="5.6" height="5.6"/>
	<rect x="96" y="24.2" class="st0" width="5.6" height="5.6"/>
	<rect x="101.6" y="24.2" class="st0" width="5.6" height="5.6"/>
	<rect x="79.2" y="29.8" class="st0" width="5.6" height="5.6"/>
	<rect x="84.8" y="29.8" class="st1" width="5.6" height="5.6"/>
	<rect x="90.4" y="29.8" class="st0" width="5.6" height="5.6"/>
	<rect x="96" y="29.8" class="st0" width="5.6" height="5.6"/>
	<rect x="101.6" y="29.8" class="st1" width="5.6" height="5.6"/>
	<rect x="107.2" y="29.8" class="st0" width="5.6" height="5.6"/>
	<rect x="45.6" y="35.4" class="st0" width="5.6" height="5.6"/>
	<rect x="56.8" y="35.4" class="st0" width="5.6" height="5.6"/>
	<rect x="79.2" y="35.4" class="st0" width="5.6" height="5.6"/>
	<rect x="84.8" y="35.4" class="st2" width="5.6" height="5.6"/>
	<rect x="90.4" y="35.4" class="st0" width="5.6" height="5.6"/>
	<rect x="96" y="35.4" class="st0" width="5.6" height="5.6"/>
	<rect x="101.6" y="35.4" class="st2" width="5.6" height="5.6"/>
	<rect x="107.2" y="35.4" class="st0" width="5.6" height="5.6"/>
	<rect x="129.6" y="35.4" class="st0" width="5.6" height="5.6"/>
	<rect x="140.8" y="35.4" class="st0" width="5.6" height="5.6"/>
	<rect x="40" y="41" class="st0" width="5.6" height="5.6"/>
	<rect x="45.6" y="41" class="st3" width="5.6" height="5.6"/>
	<rect x="51.2" y="41" class="st0" width="5.6" height="5.6"/>
	<rect x="56.8" y="41" class="st1" width="5.6" height="5.6"/>
	<rect x="62.4" y="41" class="st0" width="5.6" height="5.6"/>
	<rect x="84.8" y="41" class="st0" width="5.6" height="5.6"/>
	<rect x="90.4" y="41" class="st2" width="5.6" height="5.6"/>
	<rect x="96" y="41" class="st2" width="5.6" height="5.6"/>
	<rect x="101.6" y="41" class="st0" width="5.6" height="5.6"/>
	<rect x="124" y="41" class="st0" width="5.6" height="5.6"/>
	<rect x="129.6" y="41" class="st1" width="5.6" height="5.6"/>
	<rect x="135.2" y="41" class="st0" width="5.6" height="5.6"/>
	<rect x="140.8" y="41" class="st3" width="5.6" height="5.6"/>
	<rect x="146.4" y="41" class="st0" width="5.6" height="5.6"/>
	<rect x="34.4" y="46.6" class="st0" width="5.6" height="5.6"/>
	<rect x="40" y="46.6" class="st3" width="5.6" height="5.6"/>
	<rect x="45.6" y="46.6" class="st3" width="5.6" height="5.6"/>
	<rect x="51.2" y="46.6" class="st0" width="5.6" height="5.6"/>
	<rect x="56.8" y="46.6" class="st0" width="5.6" height="5.6"/>
	<rect x="62.4" y="46.6" class="st4" width="5.6" height="5.6"/>
	<rect x="68" y="46.6" class="st0" width="5.6" height="5.6"/>
	<rect x="79.2" y="46.6" class="st0" width="5.6" height="5.6"/>
	<rect x="84.8" y="46.6" class="st2" width="5.6" height="5.6"/>
	<rect x="90.4" y="46.6" class="st0" width="5.6" height="5.6"/>
	<rect x="96" y="46.6" class="st0" width="5.6" height="5.6"/>
	<rect x="101.6" y="46.6" class="st2" width="5.6" height="5.6"/>
	<rect x="107.2" y="46.6" class="st0" width="5.6" height="5.6"/>
	<rect x="118.4" y="46.6" class="st0" width="5.6" height="5.6"/>
	<rect x="124" y="46.6" class="st4" width="5.6" height="5.6"/>
	<rect x="129.6" y="46.6" class="st0" width="5.6" height="5.6"/>
	<rect x="135.2" y="46.6" class="st0" width="5.6" height="5.6"/>
	<rect x="140.8" y="46.6" class="st3" width="5.6" height="5.6"/>
	<rect x="146.4" y="46.6" class="st3" width="5.6" height="5.6"/>
	<rect x="152" y="46.6" class="st0" width="5.6" height="5.6"/>
	<rect x="40" y="52.2" class="st0" width="5.6" height="5.6"/>
	<rect x="45.6" y="52.2" class="st0" width="5.6" height="5.6"/>
	<rect x="51.2" y="52.2" class="st1" width="5.6" height="5.6"/>
	<rect x="56.8" y="52.2" class="st0" width="5.6" height="5.6"/>
	<rect x="62.4" y="52.2" class="st0" width="5.6" height="5.6"/>
	<rect x="68" y="52.2" class="st5" width="5.6" height="5.6"/>
	<rect x="73.6" y="52.2" class="st0" width="5.6" height="5.6"/>
	<rect x="79.2" y="52.2" class="st0" width="5.6" height="5.6"/>
	<rect x="84.8" y="52.2" class="st4" width="5.6" height="5.6"/>
	<rect x="90.4" y="52.2" class="st0" width="5.6" height="5.6"/>
	<rect x="96" y="52.2" class="st0" width="5.6" height="5.6"/>
	<rect x="101.6" y="52.2" class="st4" width="5.6" height="5.6"/>
	<rect x="107.2" y="52.2" class="st0" width="5.6" height="5.6"/>
	<rect x="112.8" y="52.2" class="st0" width="5.6" height="5.6"/>
	<rect x="118.4" y="52.2" class="st5" width="5.6" height="5.6"/>
	<rect x="124" y="52.2" class="st0" width="5.6" height="5.6"/>
	<rect x="129.6" y="52.2" class="st0" width="5.6" height="5.6"/>
	<rect x="135.2" y="52.2" class="st1" width="5.6" height="5.6"/>
	<rect x="140.8" y="52.2" class="st0" width="5.6" height="5.6"/>
	<rect x="146.4" y="52.2" class="st0" width="5.6" height="5.6"/>
	<rect x="34.4" y="57.8" class="st0" width="5.6" height="5.6"/>
	<rect x="40" y="57.8" class="st1" width="5.6" height="5.6"/>
	<rect x="45.6" y="57.8" class="st0" width="5.6" height="5.6"/>
	<rect x="51.2" y="57.8" class="st0" width="5.6" height="5.6"/>
	<rect x="56.8" y="57.8" class="st1" width="5.6" height="5.6"/>
	<rect x="62.4" y="57.8" class="st0" width="5.6" height="5.6"/>
	<rect x="68" y="57.8" class="st2" width="5.6" height="5.6"/>
	<rect x="73.6" y="57.8" class="st0" width="5.6" height="5.6"/>
	<rect x="79.2" y="57.8" class="st0" width="5.6" height="5.6"/>
	<rect x="84.8" y="57.8" class="st0" width="5.6" height="5.6"/>
	<rect x="90.4" y="57.8" class="st6" width="5.6" height="5.6"/>
	<rect x="96" y="57.8" class="st6" width="5.6" height="5.6"/>
	<rect x="101.6" y="57.8" class="st0" width="5.6" height="5.6"/>
	<rect x="107.2" y="57.8" class="st0" width="5.6" height="5.6"/>
	<rect x="112.8" y="57.8" class="st0" width="5.6" height="5.6"/>
	<rect x="118.4" y="57.8" class="st2" width="5.6" height="5.6"/>
	<rect x="124" y="57.8" class="st0" width="5.6" height="5.6"/>
	<rect x="129.6" y="57.8" class="st1" width="5.6" height="5.6"/>
	<rect x="135.2" y="57.8" class="st0" width="5.6" height="5.6"/>
	<rect x="140.8" y="57.8" class="st0" width="5.6" height="5.6"/>
	<rect x="146.4" y="57.8" class="st1" width="5.6" height="5.6"/>
	<rect x="152" y="57.8" class="st0" width="5.6" height="5.6"/>
	<rect x="40" y="63.4" class="st0" width="5.6" height="5.6"/>
	<rect x="45.6" y="63.4" class="st4" width="5.6" height="5.6"/>
	<rect x="51.2" y="63.4" class="st0" width="5.6" height="5.6"/>
	<rect x="56.8" y="63.4" class="st0" width="5.6" height="5.6"/>
	<rect x="62.4" y="63.4" class="st6" width="5.6" height="5.6"/>
	<rect x="68" y="63.4" class="st6" width="5.6" height="5.6"/>
	<rect x="73.6" y="63.4" class="st0" width="5.6" height="5.6"/>
	<rect x="79.2" y="63.4" class="st2" width="5.6" height="5.6"/>
	<rect x="84.8" y="63.4" class="st0" width="5.6" height="5.6"/>
	<rect x="90.4" y="63.4" class="st0" width="5.6" height="5.6"/>
	<rect x="96" y="63.4" class="st0" width="5.6" height="5.6"/>
	<rect x="101.6" y="63.4" class="st0" width="5.6" height="5.6"/>
	<rect x="107.2" y="63.4" class="st2" width="5.6" height="5.6"/>
	<rect x="112.8" y="63.4" class="st0" width="5.6" height="5.6"/>
	<rect x="118.4" y="63.4" class="st6" width="5.6" height="5.6"/>
	<rect x="124" y="63.4" class="st6" width="5.6" height="5.6"/>
	<rect x="129.6" y="63.4" class="st0" width="5.6" height="5.6"/>
	<rect x="135.2" y="63.4" class="st0" width="5.6" height="5.6"/>
	<rect x="140.8" y="63.4" class="st4" width="5.6" height="5.6"/>
	<rect x="146.4" y="63.4" class="st0" width="5.6" height="5.6"/>
	<rect x="45.6" y="69" class="st0" width="5.6" height="5.6"/>
	<rect x="51.2" y="69" class="st5" width="5.6" height="5.6"/>
	<rect x="56.8" y="69" class="st2" width="5.6" height="5.6"/>
	<rect x="62.4" y="69" class="st6" width="5.6" height="5.6"/>
	<rect x="68" y="69" class="st7" width="5.6" height="5.6"/>
	<rect x="73.6" y="69" class="st1" width="5.6" height="5.6"/>
	<rect x="79.2" y="69" class="st7" width="5.6" height="5.6"/>
	<rect x="84.8" y="69" class="st8" width="5.6" height="5.6"/>
	<rect x="90.4" y="69" class="st7" width="5.6" height="5.6"/>
	<rect x="96" y="69" class="st7" width="5.6" height="5.6"/>
	<rect x="101.6" y="69" class="st8" width="5.6" height="5.6"/>
	<rect x="107.2" y="69" class="st7" width="5.6" height="5.6"/>
	<rect x="112.8" y="69" class="st1" width="5.6" height="5.6"/>
	<rect x="118.4" y="69" class="st7" width="5.6" height="5.6"/>
	<rect x="124" y="69" class="st6" width="5.6" height="5.6"/>
	<rect x="129.6" y="69" class="st2" width="5.6" height="5.6"/>
	<rect x="135.2" y="69" class="st5" width="5.6" height="5.6"/>
	<rect x="140.8" y="69" class="st0" width="5.6" height="5.6"/>
	<rect x="51.2" y="74.6" class="st0" width="5.6" height="5.6"/>
	<rect x="56.8" y="74.6" class="st0" width="5.6" height="5.6"/>
	<rect x="62.4" y="74.6" class="st0" width="5.6" height="5.6"/>
	<rect x="68" y="74.6" class="st1" width="5.6" height="5.6"/>
	<rect x="73.6" y="74.6" class="st9" width="5.6" height="5.6"/>
	<rect x="79.2" y="74.6" class="st3" width="5.6" height="5.6"/>
	<rect x="84.8" y="74.6" class="st10" width="5.6" height="5.6"/>
	<rect x="90.4" y="74.6" class="st1" width="5.6" height="5.6"/>
	<rect x="96" y="74.6" class="st1" width="5.6" height="5.6"/>
	<rect x="101.6" y="74.6" class="st10" width="5.6" height="5.6"/>
	<rect x="107.2" y="74.6" class="st3" width="5.6" height="5.6"/>
	<rect x="112.8" y="74.6" class="st9" width="5.6" height="5.6"/>
	<rect x="118.4" y="74.6" class="st1" width="5.6" height="5.6"/>
	<rect x="124" y="74.6" class="st0" width="5.6" height="5.6"/>
	<rect x="129.6" y="74.6" class="st0" width="5.6" height="5.6"/>
	<rect x="135.2" y="74.6" class="st0" width="5.6" height="5.6"/>
	<rect x="28.8" y="80.2" class="st0" width="5.6" height="5.6"/>
	<rect x="34.4" y="80.2" class="st0" width="5.6" height="5.6"/>
	<rect x="45.6" y="80.2" class="st0" width="5.6" height="5.6"/>
	<rect x="51.2" y="80.2" class="st0" width="5.6" height="5.6"/>
	<rect x="56.8" y="80.2" class="st0" width="5.6" height="5.6"/>
	<rect x="62.4" y="80.2" class="st2" width="5.6" height="5.6"/>
	<rect x="68" y="80.2" class="st7" width="5.6" height="5.6"/>
	<rect x="73.6" y="80.2" class="st3" width="5.6" height="5.6"/>
	<rect x="79.2" y="80.2" class="st3" width="5.6" height="5.6"/>
	<rect x="84.8" y="80.2" class="st11" width="5.6" height="5.6"/>
	<rect x="90.4" y="80.2" class="st7" width="5.6" height="5.6"/>
	<rect x="96" y="80.2" class="st7" width="5.6" height="5.6"/>
	<rect x="101.6" y="80.2" class="st11" width="5.6" height="5.6"/>
	<rect x="107.2" y="80.2" class="st3" width="5.6" height="5.6"/>
	<rect x="112.8" y="80.2" class="st3" width="5.6" height="5.6"/>
	<rect x="118.4" y="80.2" class="st7" width="5.6" height="5.6"/>
	<rect x="124" y="80.2" class="st2" width="5.6" height="5.6"/>
	<rect x="129.6" y="80.2" class="st0" width="5.6" height="5.6"/>
	<rect x="135.2" y="80.2" class="st0" width="5.6" height="5.6"/>
	<rect x="140.8" y="80.2" class="st0" width="5.6" height="5.6"/>
	<rect x="152" y="80.2" class="st0" width="5.6" height="5.6"/>
	<rect x="157.6" y="80.2" class="st0" width="5.6" height="5.6"/>
	<rect x="17.6" y="85.8" class="st0" width="5.6" height="5.6"/>
	<rect x="23.2" y="85.8" class="st0" width="5.6" height="5.6"/>
	<rect x="28.8" y="85.8" class="st1" width="5.6" height="5.6"/>
	<rect x="34.4" y="85.8" class="st2" width="5.6" height="5.6"/>
	<rect x="40" y="85.8" class="st0" width="5.6" height="5.6"/>
	<rect x="45.6" y="85.8" class="st2" width="5.6" height="5.6"/>
	<rect x="51.2" y="85.8" class="st4" width="5.6" height="5.6"/>
	<rect x="56.8" y="85.8" class="st0" width="5.6" height="5.6"/>
	<rect x="62.4" y="85.8" class="st0" width="5.6" height="5.6"/>
	<rect x="68" y="85.8" class="st8" width="5.6" height="5.6"/>
	<rect x="73.6" y="85.8" class="st10" width="5.6" height="5.6"/>
	<rect x="79.2" y="85.8" class="st11" width="5.6" height="5.6"/>
	<rect x="84.8" y="85.8" class="st7" width="5.6" height="5.6"/>
	<rect x="90.4" y="85.8" class="st3" width="5.6" height="5.6"/>
	<rect x="96" y="85.8" class="st3" width="5.6" height="5.6"/>
	<rect x="101.6" y="85.8" class="st7" width="5.6" height="5.6"/>
	<rect x="107.2" y="85.8" class="st11" width="5.6" height="5.6"/>
	<rect x="112.8" y="85.8" class="st10" width="5.6" height="5.6"/>
	<rect x="118.4" y="85.8" class="st8" width="5.6" height="5.6"/>
	<rect x="124" y="85.8" class="st0" width="5.6" height="5.6"/>
	<rect x="129.6" y="85.8" class="st0" width="5.6" height="5.6"/>
	<rect x="135.2" y="85.8" class="st4" width="5.6" height="5.6"/>
	<rect x="140.8" y="85.8" class="st2" width="5.6" height="5.6"/>
	<rect x="146.4" y="85.8" class="st0" width="5.6" height="5.6"/>
	<rect x="152" y="85.8" class="st2" width="5.6" height="5.6"/>
	<rect x="157.6" y="85.8" class="st1" width="5.6" height="5.6"/>
	<rect x="163.2" y="85.8" class="st0" width="5.6" height="5.6"/>
	<rect x="168.8" y="85.8" class="st0" width="5.6" height="5.6"/>
	<rect x="12" y="91.4" class="st0" width="5.6" height="5.6"/>
	<rect x="17.6" y="91.4" class="st1" width="5.6" height="5.6"/>
	<rect x="23.2" y="91.4" class="st0" width="5.6" height="5.6"/>
	<rect x="28.8" y="91.4" class="st0" width="5.6" height="5.6"/>
	<rect x="34.4" y="91.4" class="st0" width="5.6" height="5.6"/>
	<rect x="40" y="91.4" class="st2" width="5.6" height="5.6"/>
	<rect x="45.6" y="91.4" class="st0" width="5.6" height="5.6"/>
	<rect x="51.2" y="91.4" class="st0" width="5.6" height="5.6"/>
	<rect x="56.8" y="91.4" class="st6" width="5.6" height="5.6"/>
	<rect x="62.4" y="91.4" class="st8" width="5.6" height="5.6"/>
	<rect x="68" y="91.4" class="st7" width="5.6" height="5.6"/>
	<rect x="73.6" y="91.4" class="st1" width="5.6" height="5.6"/>
	<rect x="79.2" y="91.4" class="st7" width="5.6" height="5.6"/>
	<rect x="84.8" y="91.4" class="st3" width="5.6" height="5.6"/>
	<rect x="90.4" y="91.4" class="st1" width="5.6" height="5.6"/>
	<rect x="96" y="91.4" class="st1" width="5.6" height="5.6"/>
	<rect x="101.6" y="91.4" class="st3" width="5.6" height="5.6"/>
	<rect x="107.2" y="91.4" class="st7" width="5.6" height="5.6"/>
	<rect x="112.8" y="91.4" class="st1" width="5.6" height="5.6"/>
	<rect x="118.4" y="91.4" class="st7" width="5.6" height="5.6"/>
	<rect x="124" y="91.4" class="st0" width="5.6" height="5.6"/>
	<rect x="129.6" y="91.4" class="st6" width="5.6" height="5.6"/>
	<rect x="135.2" y="91.4" class="st0" width="5.6" height="5.6"/>
	<rect x="140.8" y="91.4" class="st0" width="5.6" height="5.6"/>
	<rect x="146.4" y="91.4" class="st2" width="5.6" height="5.6"/>
	<rect x="152" y="91.4" class="st0" width="5.6" height="5.6"/>
	<rect x="157.6" y="91.4" class="st0" width="5.6" height="5.6"/>
	<rect x="163.2" y="91.4" class="st0" width="5.6" height="5.6"/>
	<rect x="168.8" y="91.4" class="st1" width="5.6" height="5.6"/>
	<rect x="174.4" y="91.4" class="st0" width="5.6" height="5.6"/>
	<rect x="12" y="97" class="st0" width="5.6" height="5.6"/>
	<rect x="17.6" y="97" class="st1" width="5.6" height="5.6"/>
	<rect x="23.2" y="97" class="st0" width="5.6" height="5.6"/>
	<rect x="28.8" y="97" class="st0" width="5.6" height="5.6"/>
	<rect x="34.4" y="97" class="st0" width="5.6" height="5.6"/>
	<rect x="40" y="97" class="st2" width="5.6" height="5.6"/>
	<rect x="45.6" y="97" class="st0" width="5.6" height="5.6"/>
	<rect x="51.2" y="97" class="st0" width="5.6" height="5.6"/>
	<rect x="56.8" y="97" class="st6" width="5.6" height="5.6"/>
	<rect x="62.4" y="97" class="st0" width="5.6" height="5.6"/>
	<rect x="68" y="97" class="st7" width="5.6" height="5.6"/>
	<rect x="73.6" y="97" class="st1" width="5.6" height="5.6"/>
	<rect x="79.2" y="97" class="st7" width="5.6" height="5.6"/>
	<rect x="84.8" y="97" class="st3" width="5.6" height="5.6"/>
	<rect x="90.4" y="97" class="st1" width="5.6" height="5.6"/>
	<rect x="96" y="97" class="st1" width="5.6" height="5.6"/>
	<rect x="101.6" y="97" class="st3" width="5.6" height="5.6"/>
	<rect x="107.2" y="97" class="st7" width="5.6" height="5.6"/>
	<rect x="112.8" y="97" class="st1" width="5.6" height="5.6"/>
	<rect x="118.4" y="97" class="st7" width="5.6" height="5.6"/>
	<rect x="124" y="97" class="st0" width="5.6" height="5.6"/>
	<rect x="129.6" y="97" class="st6" width="5.6" height="5.6"/>
	<rect x="135.2" y="97" class="st0" width="5.6" height="5.6"/>
	<rect x="140.8" y="97" class="st0" width="5.6" height="5.6"/>
	<rect x="146.4" y="97" class="st2" width="5.6" height="5.6"/>
	<rect x="152" y="97" class="st0" width="5.6" height="5.6"/>
	<rect x="157.6" y="97" class="st0" width="5.6" height="5.6"/>
	<rect x="163.2" y="97" class="st0" width="5.6" height="5.6"/>
	<rect x="168.8" y="97" class="st1" width="5.6" height="5.6"/>
	<rect x="174.4" y="97" class="st0" width="5.6" height="5.6"/>
	<rect x="17.6" y="102.6" class="st0" width="5.6" height="5.6"/>
	<rect x="23.2" y="102.6" class="st0" width="5.6" height="5.6"/>
	<rect x="28.8" y="102.6" class="st1" width="5.6" height="5.6"/>
	<rect x="34.4" y="102.6" class="st2" width="5.6" height="5.6"/>
	<rect x="40" y="102.6" class="st0" width="5.6" height="5.6"/>
	<rect x="45.6" y="102.6" class="st2" width="5.6" height="5.6"/>
	<rect x="51.2" y="102.6" class="st4" width="5.6" height="5.6"/>
	<rect x="56.8" y="102.6" class="st0" width="5.6" height="5.6"/>
	<rect x="62.4" y="102.6" class="st0" width="5.6" height="5.6"/>
	<rect x="68" y="102.6" class="st8" width="5.6" height="5.6"/>
	<rect x="73.6" y="102.6" class="st10" width="5.6" height="5.6"/>
	<rect x="79.2" y="102.6" class="st11" width="5.6" height="5.6"/>
	<rect x="84.8" y="102.6" class="st7" width="5.6" height="5.6"/>
	<rect x="90.4" y="102.6" class="st3" width="5.6" height="5.6"/>
	<rect x="96" y="102.6" class="st3" width="5.6" height="5.6"/>
	<rect x="101.6" y="102.6" class="st7" width="5.6" height="5.6"/>
	<rect x="107.2" y="102.6" class="st11" width="5.6" height="5.6"/>
	<rect x="112.8" y="102.6" class="st10" width="5.6" height="5.6"/>
	<rect x="118.4" y="102.6" class="st8" width="5.6" height="5.6"/>
	<rect x="124" y="102.6" class="st0" width="5.6" height="5.6"/>
	<rect x="129.6" y="102.6" class="st0" width="5.6" height="5.6"/>
	<rect x="135.2" y="102.6" class="st4" width="5.6" height="5.6"/>
	<rect x="140.8" y="102.6" class="st2" width="5.6" height="5.6"/>
	<rect x="146.4" y="102.6" class="st0" width="5.6" height="5.6"/>
	<rect x="152" y="102.6" class="st2" width="5.6" height="5.6"/>
	<rect x="157.6" y="102.6" class="st1" width="5.6" height="5.6"/>
	<rect x="163.2" y="102.6" class="st0" width="5.6" height="5.6"/>
	<rect x="168.8" y="102.6" class="st0" width="5.6" height="5.6"/>
	<rect x="28.8" y="108.2" class="st0" width="5.6" height="5.6"/>
	<rect x="34.4" y="108.2" class="st0" width="5.6" height="5.6"/>
	<rect x="45.6" y="108.2" class="st0" width="5.6" height="5.6"/>
	<rect x="51.2" y="108.2" class="st0" width="5.6" height="5.6"/>
	<rect x="56.8" y="108.2" class="st0" width="5.6" height="5.6"/>
	<rect x="62.4" y="108.2" class="st2" width="5.6" height="5.6"/>
	<rect x="68" y="108.2" class="st7" width="5.6" height="5.6"/>
	<rect x="73.6" y="108.2" class="st3" width="5.6" height="5.6"/>
	<rect x="79.2" y="108.2" class="st3" width="5.6" height="5.6"/>
	<rect x="84.8" y="108.2" class="st11" width="5.6" height="5.6"/>
	<rect x="90.4" y="108.2" class="st7" width="5.6" height="5.6"/>
	<rect x="96" y="108.2" class="st7" width="5.6" height="5.6"/>
	<rect x="101.6" y="108.2" class="st11" width="5.6" height="5.6"/>
	<rect x="107.2" y="108.2" class="st3" width="5.6" height="5.6"/>
	<rect x="112.8" y="108.2" class="st3" width="5.6" height="5.6"/>
	<rect x="118.4" y="108.2" class="st7" width="5.6" height="5.6"/>
	<rect x="124" y="108.2" class="st2" width="5.6" height="5.6"/>
	<rect x="129.6" y="108.2" class="st0" width="5.6" height="5.6"/>
	<rect x="135.2" y="108.2" class="st0" width="5.6" height="5.6"/>
	<rect x="140.8" y="108.2" class="st0" width="5.6" height="5.6"/>
	<rect x="152" y="108.2" class="st0" width="5.6" height="5.6"/>
	<rect x="157.6" y="108.2" class="st0" width="5.6" height="5.6"/>
	<rect x="51.2" y="113.8" class="st0" width="5.6" height="5.6"/>
	<rect x="56.8" y="113.8" class="st0" width="5.6" height="5.6"/>
	<rect x="62.4" y="113.8" class="st0" width="5.6" height="5.6"/>
	<rect x="68" y="113.8" class="st1" width="5.6" height="5.6"/>
	<rect x="73.6" y="113.8" class="st9" width="5.6" height="5.6"/>
	<rect x="79.2" y="113.8" class="st3" width="5.6" height="5.6"/>
	<rect x="84.8" y="113.8" class="st10" width="5.6" height="5.6"/>
	<rect x="90.4" y="113.8" class="st1" width="5.6" height="5.6"/>
	<rect x="96" y="113.8" class="st1" width="5.6" height="5.6"/>
	<rect x="101.6" y="113.8" class="st10" width="5.6" height="5.6"/>
	<rect x="107.2" y="113.8" class="st3" width="5.6" height="5.6"/>
	<rect x="112.8" y="113.8" class="st9" width="5.6" height="5.6"/>
	<rect x="118.4" y="113.8" class="st1" width="5.6" height="5.6"/>
	<rect x="124" y="113.8" class="st0" width="5.6" height="5.6"/>
	<rect x="129.6" y="113.8" class="st0" width="5.6" height="5.6"/>
	<rect x="135.2" y="113.8" class="st0" width="5.6" height="5.6"/>
	<rect x="45.6" y="119.4" class="st0" width="5.6" height="5.6"/>
	<rect x="51.2" y="119.4" class="st5" width="5.6" height="5.6"/>
	<rect x="56.8" y="119.4" class="st2" width="5.6" height="5.6"/>
	<rect x="62.4" y="119.4" class="st6" width="5.6" height="5.6"/>
	<rect x="68" y="119.4" class="st7" width="5.6" height="5.6"/>
	<rect x="73.6" y="119.4" class="st1" width="5.6" height="5.6"/>
	<rect x="79.2" y="119.4" class="st7" width="5.6" height="5.6"/>
	<rect x="84.8" y="119.4" class="st8" width="5.6" height="5.6"/>
	<rect x="90.4" y="119.4" class="st7" width="5.6" height="5.6"/>
	<rect x="96" y="119.4" class="st7" width="5.6" height="5.6"/>
	<rect x="101.6" y="119.4" class="st8" width="5.6" height="5.6"/>
	<rect x="107.2" y="119.4" class="st7" width="5.6" height="5.6"/>
	<rect x="112.8" y="119.4" class="st1" width="5.6" height="5.6"/>
	<rect x="118.4" y="119.4" class="st7" width="5.6" height="5.6"/>
	<rect x="124" y="119.4" class="st6" width="5.6" height="5.6"/>
	<rect x="129.6" y="119.4" class="st2" width="5.6" height="5.6"/>
	<rect x="135.2" y="119.4" class="st5" width="5.6" height="5.6"/>
	<rect x="140.8" y="119.4" class="st0" width="5.6" height="5.6"/>
	<rect x="40" y="125" class="st0" width="5.6" height="5.6"/>
	<rect x="45.6" y="125" class="st4" width="5.6" height="5.6"/>
	<rect x="51.2" y="125" class="st0" width="5.6" height="5.6"/>
	<rect x="56.8" y="125" class="st0" width="5.6" height="5.6"/>
	<rect x="62.4" y="125" class="st6" width="5.6" height="5.6"/>
	<rect x="68" y="125" class="st6" width="5.6" height="5.6"/>
	<rect x="73.6" y="125" class="st0" width="5.6" height="5.6"/>
	<rect x="79.2" y="125" class="st2" width="5.6" height="5.6"/>
	<rect x="84.8" y="125" class="st0" width="5.6" height="5.6"/>
	<rect x="90.4" y="125" class="st0" width="5.6" height="5.6"/>
	<rect x="96" y="125" class="st0" width="5.6" height="5.6"/>
	<rect x="101.6" y="125" class="st0" width="5.6" height="5.6"/>
	<rect x="107.2" y="125" class="st2" width="5.6" height="5.6"/>
	<rect x="112.8" y="125" class="st0" width="5.6" height="5.6"/>
	<rect x="118.4" y="125" class="st6" width="5.6" height="5.6"/>
	<rect x="124" y="125" class="st6" width="5.6" height="5.6"/>
	<rect x="129.6" y="125" class="st0" width="5.6" height="5.6"/>
	<rect x="135.2" y="125" class="st0" width="5.6" height="5.6"/>
	<rect x="140.8" y="125" class="st4" width="5.6" height="5.6"/>
	<rect x="146.4" y="125" class="st0" width="5.6" height="5.6"/>
	<rect x="34.4" y="130.6" class="st0" width="5.6" height="5.6"/>
	<rect x="40" y="130.6" class="st1" width="5.6" height="5.6"/>
	<rect x="45.6" y="130.6" class="st0" width="5.6" height="5.6"/>
	<rect x="51.2" y="130.6" class="st0" width="5.6" height="5.6"/>
	<rect x="56.8" y="130.6" class="st1" width="5.6" height="5.6"/>
	<rect x="62.4" y="130.6" class="st0" width="5.6" height="5.6"/>
	<rect x="68" y="130.6" class="st2" width="5.6" height="5.6"/>
	<rect x="73.6" y="130.6" class="st0" width="5.6" height="5.6"/>
	<rect x="84.8" y="130.6" class="st0" width="5.6" height="5.6"/>
	<rect x="90.4" y="130.6" class="st6" width="5.6" height="5.6"/>
	<rect x="96" y="130.6" class="st6" width="5.6" height="5.6"/>
	<rect x="101.6" y="130.6" class="st0" width="5.6" height="5.6"/>
	<rect x="107.2" y="130.6" class="st0" width="5.6" height="5.6"/>
	<rect x="112.8" y="130.6" class="st0" width="5.6" height="5.6"/>
	<rect x="118.4" y="130.6" class="st2" width="5.6" height="5.6"/>
	<rect x="124" y="130.6" class="st0" width="5.6" height="5.6"/>
	<rect x="129.6" y="130.6" class="st1" width="5.6" height="5.6"/>
	<rect x="135.2" y="130.6" class="st0" width="5.6" height="5.6"/>
	<rect x="140.8" y="130.6" class="st0" width="5.6" height="5.6"/>
	<rect x="146.4" y="130.6" class="st1" width="5.6" height="5.6"/>
	<rect x="152" y="130.6" class="st0" width="5.6" height="5.6"/>
	<rect x="40" y="136.2" class="st0" width="5.6" height="5.6"/>
	<rect x="45.6" y="136.2" class="st0" width="5.6" height="5.6"/>
	<rect x="51.2" y="136.2" class="st1" width="5.6" height="5.6"/>
	<rect x="56.8" y="136.2" class="st0" width="5.6" height="5.6"/>
	<rect x="62.4" y="136.2" class="st0" width="5.6" height="5.6"/>
	<rect x="68" y="136.2" class="st5" width="5.6" height="5.6"/>
	<rect x="73.6" y="136.2" class="st0" width="5.6" height="5.6"/>
	<rect x="79.2" y="136.2" class="st0" width="5.6" height="5.6"/>
	<rect x="84.8" y="136.2" class="st4" width="5.6" height="5.6"/>
	<rect x="90.4" y="136.2" class="st0" width="5.6" height="5.6"/>
	<rect x="96" y="136.2" class="st0" width="5.6" height="5.6"/>
	<rect x="101.6" y="136.2" class="st4" width="5.6" height="5.6"/>
	<rect x="107.2" y="136.2" class="st0" width="5.6" height="5.6"/>
	<rect x="112.8" y="136.2" class="st0" width="5.6" height="5.6"/>
	<rect x="118.4" y="136.2" class="st5" width="5.6" height="5.6"/>
	<rect x="124" y="136.2" class="st0" width="5.6" height="5.6"/>
	<rect x="129.6" y="136.2" class="st0" width="5.6" height="5.6"/>
	<rect x="135.2" y="136.2" class="st1" width="5.6" height="5.6"/>
	<rect x="140.8" y="136.2" class="st0" width="5.6" height="5.6"/>
	<rect x="146.4" y="136.2" class="st0" width="5.6" height="5.6"/>
	<rect x="34.4" y="141.8" class="st0" width="5.6" height="5.6"/>
	<rect x="40" y="141.8" class="st3" width="5.6" height="5.6"/>
	<rect x="45.6" y="141.8" class="st3" width="5.6" height="5.6"/>
	<rect x="51.2" y="141.8" class="st0" width="5.6" height="5.6"/>
	<rect x="56.8" y="141.8" class="st0" width="5.6" height="5.6"/>
	<rect x="62.4" y="141.8" class="st4" width="5.6" height="5.6"/>
	<rect x="68" y="141.8" class="st0" width="5.6" height="5.6"/>
	<rect x="79.2" y="141.8" class="st0" width="5.6" height="5.6"/>
	<rect x="84.8" y="141.8" class="st2" width="5.6" height="5.6"/>
	<rect x="90.4" y="141.8" class="st0" width="5.6" height="5.6"/>
	<rect x="96" y="141.8" class="st0" width="5.6" height="5.6"/>
	<rect x="101.6" y="141.8" class="st2" width="5.6" height="5.6"/>
	<rect x="107.2" y="141.8" class="st0" width="5.6" height="5.6"/>
	<rect x="118.4" y="141.8" class="st0" width="5.6" height="5.6"/>
	<rect x="124" y="141.8" class="st4" width="5.6" height="5.6"/>
	<rect x="129.6" y="141.8" class="st0" width="5.6" height="5.6"/>
	<rect x="135.2" y="141.8" class="st0" width="5.6" height="5.6"/>
	<rect x="140.8" y="141.8" class="st3" width="5.6" height="5.6"/>
	<rect x="146.4" y="141.8" class="st3" width="5.6" height="5.6"/>
	<rect x="152" y="141.8" class="st0" width="5.6" height="5.6"/>
	<rect x="40" y="147.4" class="st0" width="5.6" height="5.6"/>
	<rect x="45.6" y="147.4" class="st3" width="5.6" height="5.6"/>
	<rect x="51.2" y="147.4" class="st0" width="5.6" height="5.6"/>
	<rect x="56.8" y="147.4" class="st1" width="5.6" height="5.6"/>
	<rect x="62.4" y="147.4" class="st0" width="5.6" height="5.6"/>
	<rect x="84.8" y="147.4" class="st0" width="5.6" height="5.6"/>
	<rect x="90.4" y="147.4" class="st2" width="5.6" height="5.6"/>
	<rect x="96" y="147.4" class="st2" width="5.6" height="5.6"/>
	<rect x="101.6" y="147.4" class="st0" width="5.6" height="5.6"/>
	<rect x="124" y="147.4" class="st0" width="5.6" height="5.6"/>
	<rect x="129.6" y="147.4" class="st1" width="5.6" height="5.6"/>
	<rect x="135.2" y="147.4" class="st0" width="5.6" height="5.6"/>
	<rect x="140.8" y="147.4" class="st3" width="5.6" height="5.6"/>
	<rect x="146.4" y="147.4" class="st0" width="5.6" height="5.6"/>
	<rect x="45.6" y="153" class="st0" width="5.6" height="5.6"/>
	<rect x="56.8" y="153" class="st0" width="5.6" height="5.6"/>
	<rect x="79.2" y="153" class="st0" width="5.6" height="5.6"/>
	<rect x="84.8" y="153" class="st2" width="5.6" height="5.6"/>
	<rect x="90.4" y="153" class="st0" width="5.6" height="5.6"/>
	<rect x="96" y="153" class="st0" width="5.6" height="5.6"/>
	<rect x="101.6" y="153" class="st2" width="5.6" height="5.6"/>
	<rect x="107.2" y="153" class="st0" width="5.6" height="5.6"/>
	<rect x="129.6" y="153" class="st0" width="5.6" height="5.6"/>
	<rect x="140.8" y="153" class="st0" width="5.6" height="5.6"/>
	<rect x="79.2" y="158.6" class="st0" width="5.6" height="5.6"/>
	<rect x="84.8" y="158.6" class="st1" width="5.6" height="5.6"/>
	<rect x="90.4" y="158.6" class="st0" width="5.6" height="5.6"/>
	<rect x="96" y="158.6" class="st0" width="5.6" height="5.6"/>
	<rect x="101.6" y="158.6" class="st1" width="5.6" height="5.6"/>
	<rect x="107.2" y="158.6" class="st0" width="5.6" height="5.6"/>
	<rect x="84.8" y="164.2" class="st0" width="5.6" height="5.6"/>
	<rect x="90.4" y="164.2" class="st0" width="5.6" height="5.6"/>
	<rect x="96" y="164.2" class="st0" width="5.6" height="5.6"/>
	<rect x="101.6" y="164.2" class="st0" width="5.6" height="5.6"/>
	<rect x="84.8" y="169.8" class="st0" width="5.6" height="5.6"/>
	<rect x="90.4" y="169.8" class="st1" width="5.6" height="5.6"/>
	<rect x="96" y="169.8" class="st1" width="5.6" height="5.6"/>
	<rect x="101.6" y="169.8" class="st0" width="5.6" height="5.6"/>
	<rect x="90.4" y="175.4" class="st0" width="5.6" height="5.6"/>
	<rect x="96" y="175.4" class="st0" width="5.6" height="5.6"/>
</g>
</svg>
