<?xml version="1.0" encoding="UTF-8"?><svg id="Layer_1" xmlns="http://www.w3.org/2000/svg" viewBox="0 0 500 430"><defs><style>.cls-1,.cls-2{stroke:#914938;stroke-miterlimit:10;stroke-width:2px;}.cls-1,.cls-3{fill:#914938;}.cls-4{fill:#f4ebd4;font-family:Roboto-Bold, Roboto;font-size:20.36px;font-weight:700;}.cls-2{fill:none;}.cls-3{stroke-width:0px;}</style></defs><path class="cls-3" d="m147.04,88.9c66.96,0,151.2-6.84,176.04-15.12l8.64,22.68c-3.96,1.08-9.36,5.76-16.92,12.24-36.36,30.24-88.92,68.04-131.76,97.56,50.04-10.44,152.28-25.92,219.6-24.84v25.56c-5.04-.36-10.8-.36-16.2-.36-19.44,0-39.96,1.44-55.08,5.4-30.96,8.64-105.84,52.92-105.84,102.24,0,22.32,13.68,29.88,18.72,32.4,16.2,9,55.44,15.48,89.28,17.64l-7.92,25.2c-87.12-6.84-127.08-27-127.08-73.08s50.4-85.68,85.68-104.4c-61.56,6.48-122.4,19.08-182.16,34.56l-4.68-24.48c20.88-4.32,35.64-9.36,47.16-16.2,27-15.84,106.56-74.16,136.44-102.6-22.32,3.6-67.32,7.2-87.84,8.28-10.44.72-24.84,1.08-34.2,1.8-1.44,1.8-5.76,4.32-9.36,4.32l-2.52-28.8Z"/><path class="cls-2" d="m167.09,74.71s84.76,1.08,139.93-11.11"/><path class="cls-2" d="m106.02,263.83s40.19-15.07,87.49-24.28"/><path class="cls-2" d="m340.62,224.11s-92.59,35.16-95.94,78.69,53.15,40,53.15,40"/><circle class="cls-1" cx="148.33" cy="56.59" r="16.1"/><text class="cls-4" transform="translate(142.49 63.9)"><tspan x="0" y="0">1</tspan></text><polygon class="cls-1" points="304.41 64.06 303.32 59.44 309.57 60.41 315.82 61.39 310.66 65.04 305.49 68.69 304.41 64.06"/><polygon class="cls-1" points="191.07 239.91 190.21 235.24 196.41 236.52 202.6 237.8 197.26 241.2 191.92 244.59 191.07 239.91"/><polygon class="cls-1" points="294.67 342.87 294.38 338.13 300.37 340.15 306.37 342.16 300.66 344.89 294.96 347.62 294.67 342.87"/></svg>