<?xml version="1.0" encoding="utf-8"?>
<!-- Generator: Adobe Illustrator 27.9.0, SVG Export Plug-In . SVG Version: 6.00 Build 0)  -->
<svg version="1.1" id="Layer_1" shape-rendering="crispEdges"
	 xmlns="http://www.w3.org/2000/svg" xmlns:xlink="http://www.w3.org/1999/xlink" x="0px" y="0px" viewBox="0 0 192 192"
	 style="enable-background:new 0 0 192 192;" xml:space="preserve">
<style type="text/css">
	.st0{fill:#C1B9E0;}
	.st1{fill:#AE5269;}
	.st2{fill:#E6C874;}
	.st3{fill:#B3534E;}
	.st4{fill:#EDE5B7;}
	.st5{fill:#E7A55D;}
	.st6{fill:#8D506B;}
	.st7{fill:#4A8E72;}
	.st8{fill:#3A81AF;}
	.st9{fill:#E4895D;}
	.st10{fill:#8ACC8D;}
	.st11{fill:#B4E28E;}
	.st12{fill:#97C0E0;}
	.st13{fill:#BDE1EB;}
	.st14{fill:#1D8566;}
	.st15{fill:#5EC58B;}
	.st16{fill:#4973A9;}
	.st17{fill:#86B0E7;}
	.st18{fill:#C75D40;}
	.st19{fill:#934D52;}
	.st20{fill:#E17557;}
	.st21{fill:#CD694F;}
	.st22{fill:#ECC98B;}
	.st23{fill:#F2B572;}
	.st24{fill:#864247;}
</style>
<g>
	<rect x="30" y="33" class="st0" width="6" height="6"/>
	<rect x="36" y="33" class="st0" width="6" height="6"/>
	<rect x="42" y="33" class="st0" width="6" height="6"/>
	<rect x="48" y="33" class="st0" width="6" height="6"/>
	<rect x="54" y="33" class="st0" width="6" height="6"/>
	<rect x="66" y="33" class="st0" width="6" height="6"/>
	<rect x="72" y="33" class="st0" width="6" height="6"/>
	<rect x="84" y="33" class="st0" width="6" height="6"/>
	<rect x="90" y="33" class="st0" width="6" height="6"/>
	<rect x="96" y="33" class="st0" width="6" height="6"/>
	<rect x="102" y="33" class="st0" width="6" height="6"/>
	<rect x="114" y="33" class="st0" width="6" height="6"/>
	<rect x="120" y="33" class="st0" width="6" height="6"/>
	<rect x="132" y="33" class="st0" width="6" height="6"/>
	<rect x="138" y="33" class="st0" width="6" height="6"/>
	<rect x="144" y="33" class="st0" width="6" height="6"/>
	<rect x="150" y="33" class="st0" width="6" height="6"/>
	<rect x="156" y="33" class="st0" width="6" height="6"/>
	<rect x="24" y="39" class="st0" width="6" height="6"/>
	<rect x="30" y="39" class="st1" width="6" height="6"/>
	<rect x="36" y="39" class="st1" width="6" height="6"/>
	<rect x="42" y="39" class="st1" width="6" height="6"/>
	<rect x="48" y="39" class="st1" width="6" height="6"/>
	<rect x="54" y="39" class="st1" width="6" height="6"/>
	<rect x="60" y="39" class="st0" width="6" height="6"/>
	<rect x="66" y="39" class="st1" width="6" height="6"/>
	<rect x="72" y="39" class="st1" width="6" height="6"/>
	<rect x="78" y="39" class="st0" width="6" height="6"/>
	<rect x="84" y="39" class="st1" width="6" height="6"/>
	<rect x="90" y="39" class="st1" width="6" height="6"/>
	<rect x="96" y="39" class="st1" width="6" height="6"/>
	<rect x="102" y="39" class="st1" width="6" height="6"/>
	<rect x="108" y="39" class="st0" width="6" height="6"/>
	<rect x="114" y="39" class="st1" width="6" height="6"/>
	<rect x="120" y="39" class="st1" width="6" height="6"/>
	<rect x="126" y="39" class="st0" width="6" height="6"/>
	<rect x="132" y="39" class="st1" width="6" height="6"/>
	<rect x="138" y="39" class="st1" width="6" height="6"/>
	<rect x="144" y="39" class="st1" width="6" height="6"/>
	<rect x="150" y="39" class="st1" width="6" height="6"/>
	<rect x="156" y="39" class="st1" width="6" height="6"/>
	<rect x="162" y="39" class="st0" width="6" height="6"/>
	<rect x="18" y="45" class="st0" width="6" height="6"/>
	<rect x="24" y="45" class="st1" width="6" height="6"/>
	<rect x="30" y="45" class="st2" width="6" height="6"/>
	<rect x="36" y="45" class="st3" width="6" height="6"/>
	<rect x="42" y="45" class="st2" width="6" height="6"/>
	<rect x="48" y="45" class="st4" width="6" height="6"/>
	<rect x="54" y="45" class="st4" width="6" height="6"/>
	<rect x="60" y="45" class="st3" width="6" height="6"/>
	<rect x="66" y="45" class="st2" width="6" height="6"/>
	<rect x="72" y="45" class="st4" width="6" height="6"/>
	<rect x="78" y="45" class="st3" width="6" height="6"/>
	<rect x="84" y="45" class="st2" width="6" height="6"/>
	<rect x="90" y="45" class="st2" width="6" height="6"/>
	<rect x="96" y="45" class="st4" width="6" height="6"/>
	<rect x="102" y="45" class="st4" width="6" height="6"/>
	<rect x="108" y="45" class="st3" width="6" height="6"/>
	<rect x="114" y="45" class="st2" width="6" height="6"/>
	<rect x="120" y="45" class="st4" width="6" height="6"/>
	<rect x="126" y="45" class="st3" width="6" height="6"/>
	<rect x="132" y="45" class="st2" width="6" height="6"/>
	<rect x="138" y="45" class="st4" width="6" height="6"/>
	<rect x="144" y="45" class="st4" width="6" height="6"/>
	<rect x="150" y="45" class="st3" width="6" height="6"/>
	<rect x="156" y="45" class="st2" width="6" height="6"/>
	<rect x="162" y="45" class="st1" width="6" height="6"/>
	<rect x="168" y="45" class="st0" width="6" height="6"/>
	<rect x="12" y="51" class="st0" width="6" height="6"/>
	<rect x="18" y="51" class="st1" width="6" height="6"/>
	<rect x="24" y="51" class="st5" width="6" height="6"/>
	<rect x="30" y="51" class="st5" width="6" height="6"/>
	<rect x="36" y="51" class="st3" width="6" height="6"/>
	<rect x="42" y="51" class="st5" width="6" height="6"/>
	<rect x="48" y="51" class="st5" width="6" height="6"/>
	<rect x="54" y="51" class="st5" width="6" height="6"/>
	<rect x="60" y="51" class="st3" width="6" height="6"/>
	<rect x="66" y="51" class="st5" width="6" height="6"/>
	<rect x="72" y="51" class="st5" width="6" height="6"/>
	<rect x="78" y="51" class="st3" width="6" height="6"/>
	<rect x="84" y="51" class="st5" width="6" height="6"/>
	<rect x="90" y="51" class="st5" width="6" height="6"/>
	<rect x="96" y="51" class="st5" width="6" height="6"/>
	<rect x="102" y="51" class="st5" width="6" height="6"/>
	<rect x="108" y="51" class="st3" width="6" height="6"/>
	<rect x="114" y="51" class="st5" width="6" height="6"/>
	<rect x="120" y="51" class="st5" width="6" height="6"/>
	<rect x="126" y="51" class="st3" width="6" height="6"/>
	<rect x="132" y="51" class="st5" width="6" height="6"/>
	<rect x="138" y="51" class="st5" width="6" height="6"/>
	<rect x="144" y="51" class="st5" width="6" height="6"/>
	<rect x="150" y="51" class="st3" width="6" height="6"/>
	<rect x="156" y="51" class="st5" width="6" height="6"/>
	<rect x="162" y="51" class="st5" width="6" height="6"/>
	<rect x="168" y="51" class="st1" width="6" height="6"/>
	<rect x="174" y="51" class="st0" width="6" height="6"/>
	<rect x="12" y="57" class="st0" width="6" height="6"/>
	<rect x="18" y="57" class="st6" width="6" height="6"/>
	<rect x="24" y="57" class="st6" width="6" height="6"/>
	<rect x="30" y="57" class="st5" width="6" height="6"/>
	<rect x="36" y="57" class="st3" width="6" height="6"/>
	<rect x="42" y="57" class="st5" width="6" height="6"/>
	<rect x="48" y="57" class="st5" width="6" height="6"/>
	<rect x="54" y="57" class="st7" width="6" height="6"/>
	<rect x="60" y="57" class="st7" width="6" height="6"/>
	<rect x="66" y="57" class="st7" width="6" height="6"/>
	<rect x="72" y="57" class="st7" width="6" height="6"/>
	<rect x="78" y="57" class="st3" width="6" height="6"/>
	<rect x="84" y="57" class="st5" width="6" height="6"/>
	<rect x="90" y="57" class="st5" width="6" height="6"/>
	<rect x="96" y="57" class="st5" width="6" height="6"/>
	<rect x="102" y="57" class="st5" width="6" height="6"/>
	<rect x="108" y="57" class="st3" width="6" height="6"/>
	<rect x="114" y="57" class="st8" width="6" height="6"/>
	<rect x="120" y="57" class="st8" width="6" height="6"/>
	<rect x="126" y="57" class="st8" width="6" height="6"/>
	<rect x="132" y="57" class="st8" width="6" height="6"/>
	<rect x="138" y="57" class="st5" width="6" height="6"/>
	<rect x="144" y="57" class="st5" width="6" height="6"/>
	<rect x="150" y="57" class="st3" width="6" height="6"/>
	<rect x="156" y="57" class="st5" width="6" height="6"/>
	<rect x="162" y="57" class="st6" width="6" height="6"/>
	<rect x="168" y="57" class="st6" width="6" height="6"/>
	<rect x="174" y="57" class="st0" width="6" height="6"/>
	<rect x="18" y="63" class="st0" width="6" height="6"/>
	<rect x="24" y="63" class="st6" width="6" height="6"/>
	<rect x="30" y="63" class="st9" width="6" height="6"/>
	<rect x="36" y="63" class="st2" width="6" height="6"/>
	<rect x="42" y="63" class="st9" width="6" height="6"/>
	<rect x="48" y="63" class="st7" width="6" height="6"/>
	<rect x="54" y="63" class="st10" width="6" height="6"/>
	<rect x="60" y="63" class="st10" width="6" height="6"/>
	<rect x="66" y="63" class="st11" width="6" height="6"/>
	<rect x="72" y="63" class="st11" width="6" height="6"/>
	<rect x="78" y="63" class="st7" width="6" height="6"/>
	<rect x="84" y="63" class="st9" width="6" height="6"/>
	<rect x="90" y="63" class="st9" width="6" height="6"/>
	<rect x="96" y="63" class="st9" width="6" height="6"/>
	<rect x="102" y="63" class="st9" width="6" height="6"/>
	<rect x="108" y="63" class="st8" width="6" height="6"/>
	<rect x="114" y="63" class="st12" width="6" height="6"/>
	<rect x="120" y="63" class="st12" width="6" height="6"/>
	<rect x="126" y="63" class="st13" width="6" height="6"/>
	<rect x="132" y="63" class="st13" width="6" height="6"/>
	<rect x="138" y="63" class="st8" width="6" height="6"/>
	<rect x="144" y="63" class="st9" width="6" height="6"/>
	<rect x="150" y="63" class="st2" width="6" height="6"/>
	<rect x="156" y="63" class="st9" width="6" height="6"/>
	<rect x="162" y="63" class="st6" width="6" height="6"/>
	<rect x="168" y="63" class="st0" width="6" height="6"/>
	<rect x="18" y="69" class="st0" width="6" height="6"/>
	<rect x="24" y="69" class="st6" width="6" height="6"/>
	<rect x="30" y="69" class="st3" width="6" height="6"/>
	<rect x="36" y="69" class="st5" width="6" height="6"/>
	<rect x="42" y="69" class="st14" width="6" height="6"/>
	<rect x="48" y="69" class="st15" width="6" height="6"/>
	<rect x="54" y="69" class="st7" width="6" height="6"/>
	<rect x="60" y="69" class="st10" width="6" height="6"/>
	<rect x="66" y="69" class="st11" width="6" height="6"/>
	<rect x="72" y="69" class="st7" width="6" height="6"/>
	<rect x="78" y="69" class="st11" width="6" height="6"/>
	<rect x="84" y="69" class="st7" width="6" height="6"/>
	<rect x="90" y="69" class="st3" width="6" height="6"/>
	<rect x="96" y="69" class="st3" width="6" height="6"/>
	<rect x="102" y="69" class="st16" width="6" height="6"/>
	<rect x="108" y="69" class="st17" width="6" height="6"/>
	<rect x="114" y="69" class="st8" width="6" height="6"/>
	<rect x="120" y="69" class="st12" width="6" height="6"/>
	<rect x="126" y="69" class="st13" width="6" height="6"/>
	<rect x="132" y="69" class="st8" width="6" height="6"/>
	<rect x="138" y="69" class="st13" width="6" height="6"/>
	<rect x="144" y="69" class="st8" width="6" height="6"/>
	<rect x="150" y="69" class="st5" width="6" height="6"/>
	<rect x="156" y="69" class="st3" width="6" height="6"/>
	<rect x="162" y="69" class="st6" width="6" height="6"/>
	<rect x="168" y="69" class="st0" width="6" height="6"/>
	<rect x="18" y="75" class="st0" width="6" height="6"/>
	<rect x="24" y="75" class="st3" width="6" height="6"/>
	<rect x="30" y="75" class="st9" width="6" height="6"/>
	<rect x="36" y="75" class="st5" width="6" height="6"/>
	<rect x="42" y="75" class="st14" width="6" height="6"/>
	<rect x="48" y="75" class="st15" width="6" height="6"/>
	<rect x="54" y="75" class="st15" width="6" height="6"/>
	<rect x="60" y="75" class="st7" width="6" height="6"/>
	<rect x="66" y="75" class="st7" width="6" height="6"/>
	<rect x="72" y="75" class="st11" width="6" height="6"/>
	<rect x="78" y="75" class="st11" width="6" height="6"/>
	<rect x="84" y="75" class="st7" width="6" height="6"/>
	<rect x="90" y="75" class="st5" width="6" height="6"/>
	<rect x="96" y="75" class="st5" width="6" height="6"/>
	<rect x="102" y="75" class="st16" width="6" height="6"/>
	<rect x="108" y="75" class="st17" width="6" height="6"/>
	<rect x="114" y="75" class="st17" width="6" height="6"/>
	<rect x="120" y="75" class="st8" width="6" height="6"/>
	<rect x="126" y="75" class="st8" width="6" height="6"/>
	<rect x="132" y="75" class="st13" width="6" height="6"/>
	<rect x="138" y="75" class="st13" width="6" height="6"/>
	<rect x="144" y="75" class="st8" width="6" height="6"/>
	<rect x="150" y="75" class="st5" width="6" height="6"/>
	<rect x="156" y="75" class="st9" width="6" height="6"/>
	<rect x="162" y="75" class="st3" width="6" height="6"/>
	<rect x="168" y="75" class="st0" width="6" height="6"/>
	<rect x="6" y="81" class="st0" width="6" height="6"/>
	<rect x="12" y="81" class="st0" width="6" height="6"/>
	<rect x="18" y="81" class="st3" width="6" height="6"/>
	<rect x="24" y="81" class="st18" width="6" height="6"/>
	<rect x="30" y="81" class="st19" width="6" height="6"/>
	<rect x="36" y="81" class="st3" width="6" height="6"/>
	<rect x="42" y="81" class="st14" width="6" height="6"/>
	<rect x="48" y="81" class="st15" width="6" height="6"/>
	<rect x="54" y="81" class="st15" width="6" height="6"/>
	<rect x="60" y="81" class="st7" width="6" height="6"/>
	<rect x="66" y="81" class="st7" width="6" height="6"/>
	<rect x="72" y="81" class="st10" width="6" height="6"/>
	<rect x="78" y="81" class="st10" width="6" height="6"/>
	<rect x="84" y="81" class="st7" width="6" height="6"/>
	<rect x="90" y="81" class="st5" width="6" height="6"/>
	<rect x="96" y="81" class="st5" width="6" height="6"/>
	<rect x="102" y="81" class="st16" width="6" height="6"/>
	<rect x="108" y="81" class="st17" width="6" height="6"/>
	<rect x="114" y="81" class="st17" width="6" height="6"/>
	<rect x="120" y="81" class="st8" width="6" height="6"/>
	<rect x="126" y="81" class="st8" width="6" height="6"/>
	<rect x="132" y="81" class="st12" width="6" height="6"/>
	<rect x="138" y="81" class="st12" width="6" height="6"/>
	<rect x="144" y="81" class="st8" width="6" height="6"/>
	<rect x="150" y="81" class="st3" width="6" height="6"/>
	<rect x="156" y="81" class="st19" width="6" height="6"/>
	<rect x="162" y="81" class="st18" width="6" height="6"/>
	<rect x="168" y="81" class="st3" width="6" height="6"/>
	<rect x="174" y="81" class="st0" width="6" height="6"/>
	<rect x="180" y="81" class="st0" width="6" height="6"/>
	<rect y="87" class="st0" width="6" height="6"/>
	<rect x="6" y="87" class="st3" width="6" height="6"/>
	<rect x="12" y="87" class="st3" width="6" height="6"/>
	<rect x="18" y="87" class="st20" width="6" height="6"/>
	<rect x="24" y="87" class="st20" width="6" height="6"/>
	<rect x="30" y="87" class="st18" width="6" height="6"/>
	<rect x="36" y="87" class="st19" width="6" height="6"/>
	<rect x="42" y="87" class="st14" width="6" height="6"/>
	<rect x="48" y="87" class="st15" width="6" height="6"/>
	<rect x="54" y="87" class="st14" width="6" height="6"/>
	<rect x="60" y="87" class="st15" width="6" height="6"/>
	<rect x="66" y="87" class="st15" width="6" height="6"/>
	<rect x="72" y="87" class="st7" width="6" height="6"/>
	<rect x="78" y="87" class="st10" width="6" height="6"/>
	<rect x="84" y="87" class="st7" width="6" height="6"/>
	<rect x="90" y="87" class="st5" width="6" height="6"/>
	<rect x="96" y="87" class="st5" width="6" height="6"/>
	<rect x="102" y="87" class="st16" width="6" height="6"/>
	<rect x="108" y="87" class="st17" width="6" height="6"/>
	<rect x="114" y="87" class="st16" width="6" height="6"/>
	<rect x="120" y="87" class="st17" width="6" height="6"/>
	<rect x="126" y="87" class="st17" width="6" height="6"/>
	<rect x="132" y="87" class="st8" width="6" height="6"/>
	<rect x="138" y="87" class="st12" width="6" height="6"/>
	<rect x="144" y="87" class="st8" width="6" height="6"/>
	<rect x="150" y="87" class="st19" width="6" height="6"/>
	<rect x="156" y="87" class="st18" width="6" height="6"/>
	<rect x="162" y="87" class="st20" width="6" height="6"/>
	<rect x="168" y="87" class="st20" width="6" height="6"/>
	<rect x="174" y="87" class="st3" width="6" height="6"/>
	<rect x="180" y="87" class="st3" width="6" height="6"/>
	<rect x="186" y="87" class="st0" width="6" height="6"/>
	<rect y="93" class="st18" width="6" height="6"/>
	<rect x="6" y="93" class="st9" width="6" height="6"/>
	<rect x="12" y="93" class="st3" width="6" height="6"/>
	<rect x="18" y="93" class="st20" width="6" height="6"/>
	<rect x="24" y="93" class="st20" width="6" height="6"/>
	<rect x="30" y="93" class="st18" width="6" height="6"/>
	<rect x="36" y="93" class="st19" width="6" height="6"/>
	<rect x="42" y="93" class="st3" width="6" height="6"/>
	<rect x="48" y="93" class="st14" width="6" height="6"/>
	<rect x="54" y="93" class="st15" width="6" height="6"/>
	<rect x="60" y="93" class="st15" width="6" height="6"/>
	<rect x="66" y="93" class="st15" width="6" height="6"/>
	<rect x="72" y="93" class="st15" width="6" height="6"/>
	<rect x="78" y="93" class="st7" width="6" height="6"/>
	<rect x="84" y="93" class="st21" width="6" height="6"/>
	<rect x="90" y="93" class="st21" width="6" height="6"/>
	<rect x="96" y="93" class="st21" width="6" height="6"/>
	<rect x="102" y="93" class="st21" width="6" height="6"/>
	<rect x="108" y="93" class="st16" width="6" height="6"/>
	<rect x="114" y="93" class="st17" width="6" height="6"/>
	<rect x="120" y="93" class="st17" width="6" height="6"/>
	<rect x="126" y="93" class="st17" width="6" height="6"/>
	<rect x="132" y="93" class="st17" width="6" height="6"/>
	<rect x="138" y="93" class="st8" width="6" height="6"/>
	<rect x="144" y="93" class="st3" width="6" height="6"/>
	<rect x="150" y="93" class="st19" width="6" height="6"/>
	<rect x="156" y="93" class="st18" width="6" height="6"/>
	<rect x="162" y="93" class="st20" width="6" height="6"/>
	<rect x="168" y="93" class="st20" width="6" height="6"/>
	<rect x="174" y="93" class="st3" width="6" height="6"/>
	<rect x="180" y="93" class="st9" width="6" height="6"/>
	<rect x="186" y="93" class="st18" width="6" height="6"/>
	<rect y="99" class="st6" width="6" height="6"/>
	<rect x="6" y="99" class="st22" width="6" height="6"/>
	<rect x="12" y="99" class="st3" width="6" height="6"/>
	<rect x="18" y="99" class="st20" width="6" height="6"/>
	<rect x="24" y="99" class="st18" width="6" height="6"/>
	<rect x="30" y="99" class="st1" width="6" height="6"/>
	<rect x="36" y="99" class="st23" width="6" height="6"/>
	<rect x="42" y="99" class="st23" width="6" height="6"/>
	<rect x="48" y="99" class="st23" width="6" height="6"/>
	<rect x="54" y="99" class="st14" width="6" height="6"/>
	<rect x="60" y="99" class="st14" width="6" height="6"/>
	<rect x="66" y="99" class="st14" width="6" height="6"/>
	<rect x="72" y="99" class="st14" width="6" height="6"/>
	<rect x="78" y="99" class="st23" width="6" height="6"/>
	<rect x="84" y="99" class="st23" width="6" height="6"/>
	<rect x="90" y="99" class="st23" width="6" height="6"/>
	<rect x="96" y="99" class="st23" width="6" height="6"/>
	<rect x="102" y="99" class="st23" width="6" height="6"/>
	<rect x="108" y="99" class="st23" width="6" height="6"/>
	<rect x="114" y="99" class="st16" width="6" height="6"/>
	<rect x="120" y="99" class="st16" width="6" height="6"/>
	<rect x="126" y="99" class="st16" width="6" height="6"/>
	<rect x="132" y="99" class="st16" width="6" height="6"/>
	<rect x="138" y="99" class="st23" width="6" height="6"/>
	<rect x="144" y="99" class="st23" width="6" height="6"/>
	<rect x="150" y="99" class="st23" width="6" height="6"/>
	<rect x="156" y="99" class="st1" width="6" height="6"/>
	<rect x="162" y="99" class="st18" width="6" height="6"/>
	<rect x="168" y="99" class="st20" width="6" height="6"/>
	<rect x="174" y="99" class="st3" width="6" height="6"/>
	<rect x="180" y="99" class="st22" width="6" height="6"/>
	<rect x="186" y="99" class="st6" width="6" height="6"/>
	<rect y="105" class="st6" width="6" height="6"/>
	<rect x="6" y="105" class="st2" width="6" height="6"/>
	<rect x="12" y="105" class="st3" width="6" height="6"/>
	<rect x="18" y="105" class="st18" width="6" height="6"/>
	<rect x="24" y="105" class="st1" width="6" height="6"/>
	<rect x="30" y="105" class="st23" width="6" height="6"/>
	<rect x="36" y="105" class="st23" width="6" height="6"/>
	<rect x="42" y="105" class="st23" width="6" height="6"/>
	<rect x="48" y="105" class="st23" width="6" height="6"/>
	<rect x="54" y="105" class="st23" width="6" height="6"/>
	<rect x="60" y="105" class="st23" width="6" height="6"/>
	<rect x="66" y="105" class="st23" width="6" height="6"/>
	<rect x="72" y="105" class="st23" width="6" height="6"/>
	<rect x="78" y="105" class="st23" width="6" height="6"/>
	<rect x="84" y="105" class="st23" width="6" height="6"/>
	<rect x="90" y="105" class="st23" width="6" height="6"/>
	<rect x="96" y="105" class="st23" width="6" height="6"/>
	<rect x="102" y="105" class="st23" width="6" height="6"/>
	<rect x="108" y="105" class="st23" width="6" height="6"/>
	<rect x="114" y="105" class="st23" width="6" height="6"/>
	<rect x="120" y="105" class="st23" width="6" height="6"/>
	<rect x="126" y="105" class="st23" width="6" height="6"/>
	<rect x="132" y="105" class="st23" width="6" height="6"/>
	<rect x="138" y="105" class="st23" width="6" height="6"/>
	<rect x="144" y="105" class="st23" width="6" height="6"/>
	<rect x="150" y="105" class="st23" width="6" height="6"/>
	<rect x="156" y="105" class="st23" width="6" height="6"/>
	<rect x="162" y="105" class="st1" width="6" height="6"/>
	<rect x="168" y="105" class="st18" width="6" height="6"/>
	<rect x="174" y="105" class="st3" width="6" height="6"/>
	<rect x="180" y="105" class="st2" width="6" height="6"/>
	<rect x="186" y="105" class="st6" width="6" height="6"/>
	<rect y="111" class="st0" width="6" height="6"/>
	<rect x="6" y="111" class="st6" width="6" height="6"/>
	<rect x="12" y="111" class="st9" width="6" height="6"/>
	<rect x="18" y="111" class="st1" width="6" height="6"/>
	<rect x="24" y="111" class="st23" width="6" height="6"/>
	<rect x="30" y="111" class="st23" width="6" height="6"/>
	<rect x="36" y="111" class="st23" width="6" height="6"/>
	<rect x="42" y="111" class="st23" width="6" height="6"/>
	<rect x="48" y="111" class="st23" width="6" height="6"/>
	<rect x="54" y="111" class="st23" width="6" height="6"/>
	<rect x="60" y="111" class="st23" width="6" height="6"/>
	<rect x="66" y="111" class="st23" width="6" height="6"/>
	<rect x="72" y="111" class="st23" width="6" height="6"/>
	<rect x="78" y="111" class="st23" width="6" height="6"/>
	<rect x="84" y="111" class="st23" width="6" height="6"/>
	<rect x="90" y="111" class="st23" width="6" height="6"/>
	<rect x="96" y="111" class="st23" width="6" height="6"/>
	<rect x="102" y="111" class="st23" width="6" height="6"/>
	<rect x="108" y="111" class="st23" width="6" height="6"/>
	<rect x="114" y="111" class="st23" width="6" height="6"/>
	<rect x="120" y="111" class="st23" width="6" height="6"/>
	<rect x="126" y="111" class="st23" width="6" height="6"/>
	<rect x="132" y="111" class="st23" width="6" height="6"/>
	<rect x="138" y="111" class="st23" width="6" height="6"/>
	<rect x="144" y="111" class="st23" width="6" height="6"/>
	<rect x="150" y="111" class="st23" width="6" height="6"/>
	<rect x="156" y="111" class="st23" width="6" height="6"/>
	<rect x="162" y="111" class="st23" width="6" height="6"/>
	<rect x="168" y="111" class="st1" width="6" height="6"/>
	<rect x="174" y="111" class="st9" width="6" height="6"/>
	<rect x="180" y="111" class="st6" width="6" height="6"/>
	<rect x="186" y="111" class="st0" width="6" height="6"/>
	<rect y="117" class="st0" width="6" height="6"/>
	<rect x="6" y="117" class="st6" width="6" height="6"/>
	<rect x="12" y="117" class="st9" width="6" height="6"/>
	<rect x="18" y="117" class="st1" width="6" height="6"/>
	<rect x="24" y="117" class="st1" width="6" height="6"/>
	<rect x="30" y="117" class="st1" width="6" height="6"/>
	<rect x="36" y="117" class="st1" width="6" height="6"/>
	<rect x="42" y="117" class="st1" width="6" height="6"/>
	<rect x="48" y="117" class="st1" width="6" height="6"/>
	<rect x="54" y="117" class="st1" width="6" height="6"/>
	<rect x="60" y="117" class="st1" width="6" height="6"/>
	<rect x="66" y="117" class="st1" width="6" height="6"/>
	<rect x="72" y="117" class="st1" width="6" height="6"/>
	<rect x="78" y="117" class="st1" width="6" height="6"/>
	<rect x="84" y="117" class="st1" width="6" height="6"/>
	<rect x="90" y="117" class="st1" width="6" height="6"/>
	<rect x="96" y="117" class="st1" width="6" height="6"/>
	<rect x="102" y="117" class="st1" width="6" height="6"/>
	<rect x="108" y="117" class="st1" width="6" height="6"/>
	<rect x="114" y="117" class="st1" width="6" height="6"/>
	<rect x="120" y="117" class="st1" width="6" height="6"/>
	<rect x="126" y="117" class="st1" width="6" height="6"/>
	<rect x="132" y="117" class="st1" width="6" height="6"/>
	<rect x="138" y="117" class="st1" width="6" height="6"/>
	<rect x="144" y="117" class="st1" width="6" height="6"/>
	<rect x="150" y="117" class="st1" width="6" height="6"/>
	<rect x="156" y="117" class="st1" width="6" height="6"/>
	<rect x="162" y="117" class="st1" width="6" height="6"/>
	<rect x="168" y="117" class="st1" width="6" height="6"/>
	<rect x="174" y="117" class="st9" width="6" height="6"/>
	<rect x="180" y="117" class="st6" width="6" height="6"/>
	<rect x="186" y="117" class="st0" width="6" height="6"/>
	<rect y="123" class="st0" width="6" height="6"/>
	<rect x="6" y="123" class="st24" width="6" height="6"/>
	<rect x="12" y="123" class="st9" width="6" height="6"/>
	<rect x="18" y="123" class="st1" width="6" height="6"/>
	<rect x="24" y="123" class="st20" width="6" height="6"/>
	<rect x="30" y="123" class="st20" width="6" height="6"/>
	<rect x="36" y="123" class="st20" width="6" height="6"/>
	<rect x="42" y="123" class="st20" width="6" height="6"/>
	<rect x="48" y="123" class="st20" width="6" height="6"/>
	<rect x="54" y="123" class="st20" width="6" height="6"/>
	<rect x="60" y="123" class="st20" width="6" height="6"/>
	<rect x="66" y="123" class="st20" width="6" height="6"/>
	<rect x="72" y="123" class="st20" width="6" height="6"/>
	<rect x="78" y="123" class="st20" width="6" height="6"/>
	<rect x="84" y="123" class="st20" width="6" height="6"/>
	<rect x="90" y="123" class="st20" width="6" height="6"/>
	<rect x="96" y="123" class="st20" width="6" height="6"/>
	<rect x="102" y="123" class="st20" width="6" height="6"/>
	<rect x="108" y="123" class="st20" width="6" height="6"/>
	<rect x="114" y="123" class="st20" width="6" height="6"/>
	<rect x="120" y="123" class="st20" width="6" height="6"/>
	<rect x="126" y="123" class="st20" width="6" height="6"/>
	<rect x="132" y="123" class="st20" width="6" height="6"/>
	<rect x="138" y="123" class="st20" width="6" height="6"/>
	<rect x="144" y="123" class="st20" width="6" height="6"/>
	<rect x="150" y="123" class="st20" width="6" height="6"/>
	<rect x="156" y="123" class="st20" width="6" height="6"/>
	<rect x="162" y="123" class="st20" width="6" height="6"/>
	<rect x="168" y="123" class="st1" width="6" height="6"/>
	<rect x="174" y="123" class="st9" width="6" height="6"/>
	<rect x="180" y="123" class="st24" width="6" height="6"/>
	<rect x="186" y="123" class="st0" width="6" height="6"/>
	<rect y="129" class="st0" width="6" height="6"/>
	<rect x="6" y="129" class="st24" width="6" height="6"/>
	<rect x="12" y="129" class="st9" width="6" height="6"/>
	<rect x="18" y="129" class="st9" width="6" height="6"/>
	<rect x="24" y="129" class="st1" width="6" height="6"/>
	<rect x="30" y="129" class="st1" width="6" height="6"/>
	<rect x="36" y="129" class="st1" width="6" height="6"/>
	<rect x="42" y="129" class="st1" width="6" height="6"/>
	<rect x="48" y="129" class="st1" width="6" height="6"/>
	<rect x="54" y="129" class="st1" width="6" height="6"/>
	<rect x="60" y="129" class="st1" width="6" height="6"/>
	<rect x="66" y="129" class="st1" width="6" height="6"/>
	<rect x="72" y="129" class="st1" width="6" height="6"/>
	<rect x="78" y="129" class="st1" width="6" height="6"/>
	<rect x="84" y="129" class="st1" width="6" height="6"/>
	<rect x="90" y="129" class="st1" width="6" height="6"/>
	<rect x="96" y="129" class="st1" width="6" height="6"/>
	<rect x="102" y="129" class="st1" width="6" height="6"/>
	<rect x="108" y="129" class="st1" width="6" height="6"/>
	<rect x="114" y="129" class="st1" width="6" height="6"/>
	<rect x="120" y="129" class="st1" width="6" height="6"/>
	<rect x="126" y="129" class="st1" width="6" height="6"/>
	<rect x="132" y="129" class="st1" width="6" height="6"/>
	<rect x="138" y="129" class="st1" width="6" height="6"/>
	<rect x="144" y="129" class="st1" width="6" height="6"/>
	<rect x="150" y="129" class="st1" width="6" height="6"/>
	<rect x="156" y="129" class="st1" width="6" height="6"/>
	<rect x="162" y="129" class="st1" width="6" height="6"/>
	<rect x="168" y="129" class="st9" width="6" height="6"/>
	<rect x="174" y="129" class="st9" width="6" height="6"/>
	<rect x="180" y="129" class="st24" width="6" height="6"/>
	<rect x="186" y="129" class="st0" width="6" height="6"/>
	<rect x="6" y="135" class="st0" width="6" height="6"/>
	<rect x="12" y="135" class="st24" width="6" height="6"/>
	<rect x="18" y="135" class="st9" width="6" height="6"/>
	<rect x="24" y="135" class="st9" width="6" height="6"/>
	<rect x="30" y="135" class="st9" width="6" height="6"/>
	<rect x="36" y="135" class="st9" width="6" height="6"/>
	<rect x="42" y="135" class="st9" width="6" height="6"/>
	<rect x="48" y="135" class="st9" width="6" height="6"/>
	<rect x="54" y="135" class="st9" width="6" height="6"/>
	<rect x="60" y="135" class="st9" width="6" height="6"/>
	<rect x="66" y="135" class="st9" width="6" height="6"/>
	<rect x="72" y="135" class="st9" width="6" height="6"/>
	<rect x="78" y="135" class="st9" width="6" height="6"/>
	<rect x="84" y="135" class="st9" width="6" height="6"/>
	<rect x="90" y="135" class="st9" width="6" height="6"/>
	<rect x="96" y="135" class="st9" width="6" height="6"/>
	<rect x="102" y="135" class="st9" width="6" height="6"/>
	<rect x="108" y="135" class="st9" width="6" height="6"/>
	<rect x="114" y="135" class="st9" width="6" height="6"/>
	<rect x="120" y="135" class="st9" width="6" height="6"/>
	<rect x="126" y="135" class="st9" width="6" height="6"/>
	<rect x="132" y="135" class="st9" width="6" height="6"/>
	<rect x="138" y="135" class="st9" width="6" height="6"/>
	<rect x="144" y="135" class="st9" width="6" height="6"/>
	<rect x="150" y="135" class="st9" width="6" height="6"/>
	<rect x="156" y="135" class="st9" width="6" height="6"/>
	<rect x="162" y="135" class="st9" width="6" height="6"/>
	<rect x="168" y="135" class="st9" width="6" height="6"/>
	<rect x="174" y="135" class="st24" width="6" height="6"/>
	<rect x="180" y="135" class="st0" width="6" height="6"/>
	<rect x="12" y="141" class="st0" width="6" height="6"/>
	<rect x="18" y="141" class="st24" width="6" height="6"/>
	<rect x="24" y="141" class="st24" width="6" height="6"/>
	<rect x="30" y="141" class="st24" width="6" height="6"/>
	<rect x="36" y="141" class="st24" width="6" height="6"/>
	<rect x="42" y="141" class="st24" width="6" height="6"/>
	<rect x="48" y="141" class="st19" width="6" height="6"/>
	<rect x="54" y="141" class="st19" width="6" height="6"/>
	<rect x="60" y="141" class="st19" width="6" height="6"/>
	<rect x="66" y="141" class="st19" width="6" height="6"/>
	<rect x="72" y="141" class="st19" width="6" height="6"/>
	<rect x="78" y="141" class="st19" width="6" height="6"/>
	<rect x="84" y="141" class="st19" width="6" height="6"/>
	<rect x="90" y="141" class="st19" width="6" height="6"/>
	<rect x="96" y="141" class="st19" width="6" height="6"/>
	<rect x="102" y="141" class="st19" width="6" height="6"/>
	<rect x="108" y="141" class="st19" width="6" height="6"/>
	<rect x="114" y="141" class="st19" width="6" height="6"/>
	<rect x="120" y="141" class="st19" width="6" height="6"/>
	<rect x="126" y="141" class="st19" width="6" height="6"/>
	<rect x="132" y="141" class="st19" width="6" height="6"/>
	<rect x="138" y="141" class="st19" width="6" height="6"/>
	<rect x="144" y="141" class="st24" width="6" height="6"/>
	<rect x="150" y="141" class="st24" width="6" height="6"/>
	<rect x="156" y="141" class="st24" width="6" height="6"/>
	<rect x="162" y="141" class="st24" width="6" height="6"/>
	<rect x="168" y="141" class="st24" width="6" height="6"/>
	<rect x="174" y="141" class="st0" width="6" height="6"/>
	<rect x="12" y="147" class="st0" width="6" height="6"/>
	<rect x="18" y="147" class="st24" width="6" height="6"/>
	<rect x="24" y="147" class="st24" width="6" height="6"/>
	<rect x="30" y="147" class="st24" width="6" height="6"/>
	<rect x="36" y="147" class="st0" width="6" height="6"/>
	<rect x="42" y="147" class="st0" width="6" height="6"/>
	<rect x="48" y="147" class="st0" width="6" height="6"/>
	<rect x="54" y="147" class="st0" width="6" height="6"/>
	<rect x="60" y="147" class="st0" width="6" height="6"/>
	<rect x="66" y="147" class="st0" width="6" height="6"/>
	<rect x="72" y="147" class="st0" width="6" height="6"/>
	<rect x="78" y="147" class="st0" width="6" height="6"/>
	<rect x="84" y="147" class="st0" width="6" height="6"/>
	<rect x="90" y="147" class="st0" width="6" height="6"/>
	<rect x="96" y="147" class="st0" width="6" height="6"/>
	<rect x="102" y="147" class="st0" width="6" height="6"/>
	<rect x="108" y="147" class="st0" width="6" height="6"/>
	<rect x="114" y="147" class="st0" width="6" height="6"/>
	<rect x="120" y="147" class="st0" width="6" height="6"/>
	<rect x="126" y="147" class="st0" width="6" height="6"/>
	<rect x="132" y="147" class="st0" width="6" height="6"/>
	<rect x="138" y="147" class="st0" width="6" height="6"/>
	<rect x="144" y="147" class="st0" width="6" height="6"/>
	<rect x="150" y="147" class="st0" width="6" height="6"/>
	<rect x="156" y="147" class="st24" width="6" height="6"/>
	<rect x="162" y="147" class="st24" width="6" height="6"/>
	<rect x="168" y="147" class="st24" width="6" height="6"/>
	<rect x="174" y="147" class="st0" width="6" height="6"/>
	<rect x="18" y="153" class="st0" width="6" height="6"/>
	<rect x="24" y="153" class="st0" width="6" height="6"/>
	<rect x="30" y="153" class="st0" width="6" height="6"/>
	<rect x="156" y="153" class="st0" width="6" height="6"/>
	<rect x="162" y="153" class="st0" width="6" height="6"/>
	<rect x="168" y="153" class="st0" width="6" height="6"/>
</g>
</svg>
