<?xml version="1.0" encoding="utf-8"?>
<!-- Generator: Adobe Illustrator 27.9.0, SVG Export Plug-In . SVG Version: 6.00 Build 0)  -->
<svg version="1.1" id="Layer_1" shape-rendering="crispEdges"
	 xmlns="http://www.w3.org/2000/svg" xmlns:xlink="http://www.w3.org/1999/xlink" x="0px" y="0px" viewBox="0 0 192 192"
	 style="enable-background:new 0 0 192 192;" xml:space="preserve">
<style type="text/css">
	.st0{fill:#C1B9E0;}
	.st1{fill:#AA3963;}
	.st2{fill:#BE4E30;}
	.st3{fill:#EA9571;}
	.st4{fill:#E87687;}
	.st5{fill:#E0603D;}
	.st6{fill:#6C1A14;}
	.st7{fill:#932936;}
	.st8{fill:#8E3465;}
	.st9{fill:#4C0618;}
	.st10{fill:#ECC98B;}
	.st11{fill:#EDE5B7;}
	.st12{fill:#AE5269;}
	.st13{fill:#E7A55D;}
	.st14{fill:#E5DCA7;}
	.st15{fill:#D3D08C;}
	.st16{fill:#CEB1B1;}
	.st17{fill:#914938;}
</style>
<g>
	<rect x="51" y="30" class="st0" width="6" height="6"/>
	<rect x="57" y="30" class="st0" width="6" height="6"/>
	<rect x="63" y="30" class="st0" width="6" height="6"/>
	<rect x="69" y="30" class="st0" width="6" height="6"/>
	<rect x="45" y="36" class="st0" width="6" height="6"/>
	<rect x="51" y="36" class="st1" width="6" height="6"/>
	<rect x="57" y="36" class="st2" width="6" height="6"/>
	<rect x="63" y="36" class="st1" width="6" height="6"/>
	<rect x="69" y="36" class="st1" width="6" height="6"/>
	<rect x="75" y="36" class="st0" width="6" height="6"/>
	<rect x="81" y="36" class="st0" width="6" height="6"/>
	<rect x="39" y="42" class="st0" width="6" height="6"/>
	<rect x="45" y="42" class="st1" width="6" height="6"/>
	<rect x="51" y="42" class="st3" width="6" height="6"/>
	<rect x="57" y="42" class="st4" width="6" height="6"/>
	<rect x="63" y="42" class="st5" width="6" height="6"/>
	<rect x="69" y="42" class="st5" width="6" height="6"/>
	<rect x="75" y="42" class="st1" width="6" height="6"/>
	<rect x="81" y="42" class="st2" width="6" height="6"/>
	<rect x="87" y="42" class="st0" width="6" height="6"/>
	<rect x="33" y="48" class="st0" width="6" height="6"/>
	<rect x="39" y="48" class="st2" width="6" height="6"/>
	<rect x="45" y="48" class="st6" width="6" height="6"/>
	<rect x="51" y="48" class="st6" width="6" height="6"/>
	<rect x="57" y="48" class="st6" width="6" height="6"/>
	<rect x="63" y="48" class="st7" width="6" height="6"/>
	<rect x="69" y="48" class="st4" width="6" height="6"/>
	<rect x="75" y="48" class="st5" width="6" height="6"/>
	<rect x="81" y="48" class="st5" width="6" height="6"/>
	<rect x="87" y="48" class="st1" width="6" height="6"/>
	<rect x="93" y="48" class="st0" width="6" height="6"/>
	<rect x="33" y="54" class="st0" width="6" height="6"/>
	<rect x="39" y="54" class="st8" width="6" height="6"/>
	<rect x="45" y="54" class="st6" width="6" height="6"/>
	<rect x="51" y="54" class="st6" width="6" height="6"/>
	<rect x="57" y="54" class="st9" width="6" height="6"/>
	<rect x="63" y="54" class="st9" width="6" height="6"/>
	<rect x="69" y="54" class="st7" width="6" height="6"/>
	<rect x="75" y="54" class="st4" width="6" height="6"/>
	<rect x="81" y="54" class="st5" width="6" height="6"/>
	<rect x="87" y="54" class="st5" width="6" height="6"/>
	<rect x="93" y="54" class="st1" width="6" height="6"/>
	<rect x="99" y="54" class="st0" width="6" height="6"/>
	<rect x="27" y="60" class="st0" width="6" height="6"/>
	<rect x="33" y="60" class="st8" width="6" height="6"/>
	<rect x="39" y="60" class="st10" width="6" height="6"/>
	<rect x="45" y="60" class="st6" width="6" height="6"/>
	<rect x="51" y="60" class="st6" width="6" height="6"/>
	<rect x="57" y="60" class="st11" width="6" height="6"/>
	<rect x="63" y="60" class="st9" width="6" height="6"/>
	<rect x="69" y="60" class="st6" width="6" height="6"/>
	<rect x="75" y="60" class="st10" width="6" height="6"/>
	<rect x="81" y="60" class="st4" width="6" height="6"/>
	<rect x="87" y="60" class="st4" width="6" height="6"/>
	<rect x="93" y="60" class="st11" width="6" height="6"/>
	<rect x="99" y="60" class="st12" width="6" height="6"/>
	<rect x="105" y="60" class="st0" width="6" height="6"/>
	<rect x="21" y="66" class="st0" width="6" height="6"/>
	<rect x="27" y="66" class="st8" width="6" height="6"/>
	<rect x="33" y="66" class="st13" width="6" height="6"/>
	<rect x="39" y="66" class="st13" width="6" height="6"/>
	<rect x="45" y="66" class="st7" width="6" height="6"/>
	<rect x="51" y="66" class="st6" width="6" height="6"/>
	<rect x="57" y="66" class="st7" width="6" height="6"/>
	<rect x="63" y="66" class="st7" width="6" height="6"/>
	<rect x="69" y="66" class="st10" width="6" height="6"/>
	<rect x="75" y="66" class="st6" width="6" height="6"/>
	<rect x="81" y="66" class="st4" width="6" height="6"/>
	<rect x="87" y="66" class="st11" width="6" height="6"/>
	<rect x="93" y="66" class="st13" width="6" height="6"/>
	<rect x="99" y="66" class="st4" width="6" height="6"/>
	<rect x="105" y="66" class="st12" width="6" height="6"/>
	<rect x="111" y="66" class="st0" width="6" height="6"/>
	<rect x="27" y="72" class="st0" width="6" height="6"/>
	<rect x="33" y="72" class="st8" width="6" height="6"/>
	<rect x="39" y="72" class="st8" width="6" height="6"/>
	<rect x="45" y="72" class="st13" width="6" height="6"/>
	<rect x="51" y="72" class="st6" width="6" height="6"/>
	<rect x="57" y="72" class="st6" width="6" height="6"/>
	<rect x="63" y="72" class="st6" width="6" height="6"/>
	<rect x="69" y="72" class="st6" width="6" height="6"/>
	<rect x="75" y="72" class="st7" width="6" height="6"/>
	<rect x="81" y="72" class="st11" width="6" height="6"/>
	<rect x="87" y="72" class="st13" width="6" height="6"/>
	<rect x="93" y="72" class="st4" width="6" height="6"/>
	<rect x="99" y="72" class="st12" width="6" height="6"/>
	<rect x="105" y="72" class="st4" width="6" height="6"/>
	<rect x="111" y="72" class="st12" width="6" height="6"/>
	<rect x="117" y="72" class="st0" width="6" height="6"/>
	<rect x="33" y="78" class="st0" width="6" height="6"/>
	<rect x="39" y="78" class="st6" width="6" height="6"/>
	<rect x="45" y="78" class="st6" width="6" height="6"/>
	<rect x="51" y="78" class="st6" width="6" height="6"/>
	<rect x="57" y="78" class="st6" width="6" height="6"/>
	<rect x="63" y="78" class="st6" width="6" height="6"/>
	<rect x="69" y="78" class="st7" width="6" height="6"/>
	<rect x="75" y="78" class="st11" width="6" height="6"/>
	<rect x="81" y="78" class="st13" width="6" height="6"/>
	<rect x="87" y="78" class="st12" width="6" height="6"/>
	<rect x="93" y="78" class="st12" width="6" height="6"/>
	<rect x="99" y="78" class="st13" width="6" height="6"/>
	<rect x="105" y="78" class="st10" width="6" height="6"/>
	<rect x="111" y="78" class="st8" width="6" height="6"/>
	<rect x="117" y="78" class="st12" width="6" height="6"/>
	<rect x="123" y="78" class="st0" width="6" height="6"/>
	<rect x="33" y="84" class="st0" width="6" height="6"/>
	<rect x="39" y="84" class="st6" width="6" height="6"/>
	<rect x="45" y="84" class="st6" width="6" height="6"/>
	<rect x="51" y="84" class="st6" width="6" height="6"/>
	<rect x="57" y="84" class="st7" width="6" height="6"/>
	<rect x="63" y="84" class="st7" width="6" height="6"/>
	<rect x="69" y="84" class="st10" width="6" height="6"/>
	<rect x="75" y="84" class="st11" width="6" height="6"/>
	<rect x="81" y="84" class="st12" width="6" height="6"/>
	<rect x="87" y="84" class="st4" width="6" height="6"/>
	<rect x="93" y="84" class="st13" width="6" height="6"/>
	<rect x="99" y="84" class="st10" width="6" height="6"/>
	<rect x="105" y="84" class="st12" width="6" height="6"/>
	<rect x="111" y="84" class="st12" width="6" height="6"/>
	<rect x="117" y="84" class="st10" width="6" height="6"/>
	<rect x="123" y="84" class="st12" width="6" height="6"/>
	<rect x="129" y="84" class="st0" width="6" height="6"/>
	<rect x="33" y="90" class="st0" width="6" height="6"/>
	<rect x="39" y="90" class="st6" width="6" height="6"/>
	<rect x="45" y="90" class="st6" width="6" height="6"/>
	<rect x="51" y="90" class="st7" width="6" height="6"/>
	<rect x="57" y="90" class="st10" width="6" height="6"/>
	<rect x="63" y="90" class="st10" width="6" height="6"/>
	<rect x="69" y="90" class="st11" width="6" height="6"/>
	<rect x="75" y="90" class="st11" width="6" height="6"/>
	<rect x="81" y="90" class="st13" width="6" height="6"/>
	<rect x="87" y="90" class="st12" width="6" height="6"/>
	<rect x="93" y="90" class="st12" width="6" height="6"/>
	<rect x="99" y="90" class="st12" width="6" height="6"/>
	<rect x="105" y="90" class="st8" width="6" height="6"/>
	<rect x="111" y="90" class="st10" width="6" height="6"/>
	<rect x="117" y="90" class="st12" width="6" height="6"/>
	<rect x="123" y="90" class="st13" width="6" height="6"/>
	<rect x="129" y="90" class="st8" width="6" height="6"/>
	<rect x="135" y="90" class="st0" width="6" height="6"/>
	<rect x="33" y="96" class="st0" width="6" height="6"/>
	<rect x="39" y="96" class="st12" width="6" height="6"/>
	<rect x="45" y="96" class="st10" width="6" height="6"/>
	<rect x="51" y="96" class="st10" width="6" height="6"/>
	<rect x="57" y="96" class="st11" width="6" height="6"/>
	<rect x="63" y="96" class="st11" width="6" height="6"/>
	<rect x="69" y="96" class="st11" width="6" height="6"/>
	<rect x="75" y="96" class="st11" width="6" height="6"/>
	<rect x="81" y="96" class="st11" width="6" height="6"/>
	<rect x="87" y="96" class="st13" width="6" height="6"/>
	<rect x="93" y="96" class="st8" width="6" height="6"/>
	<rect x="99" y="96" class="st8" width="6" height="6"/>
	<rect x="105" y="96" class="st10" width="6" height="6"/>
	<rect x="111" y="96" class="st12" width="6" height="6"/>
	<rect x="117" y="96" class="st13" width="6" height="6"/>
	<rect x="123" y="96" class="st12" width="6" height="6"/>
	<rect x="129" y="96" class="st13" width="6" height="6"/>
	<rect x="135" y="96" class="st8" width="6" height="6"/>
	<rect x="141" y="96" class="st0" width="6" height="6"/>
	<rect x="33" y="102" class="st0" width="6" height="6"/>
	<rect x="39" y="102" class="st12" width="6" height="6"/>
	<rect x="45" y="102" class="st10" width="6" height="6"/>
	<rect x="51" y="102" class="st11" width="6" height="6"/>
	<rect x="57" y="102" class="st11" width="6" height="6"/>
	<rect x="63" y="102" class="st11" width="6" height="6"/>
	<rect x="69" y="102" class="st11" width="6" height="6"/>
	<rect x="75" y="102" class="st11" width="6" height="6"/>
	<rect x="81" y="102" class="st11" width="6" height="6"/>
	<rect x="87" y="102" class="st11" width="6" height="6"/>
	<rect x="93" y="102" class="st13" width="6" height="6"/>
	<rect x="99" y="102" class="st12" width="6" height="6"/>
	<rect x="105" y="102" class="st12" width="6" height="6"/>
	<rect x="111" y="102" class="st13" width="6" height="6"/>
	<rect x="117" y="102" class="st12" width="6" height="6"/>
	<rect x="123" y="102" class="st8" width="6" height="6"/>
	<rect x="129" y="102" class="st12" width="6" height="6"/>
	<rect x="135" y="102" class="st13" width="6" height="6"/>
	<rect x="141" y="102" class="st8" width="6" height="6"/>
	<rect x="147" y="102" class="st0" width="6" height="6"/>
	<rect x="33" y="108" class="st0" width="6" height="6"/>
	<rect x="39" y="108" class="st12" width="6" height="6"/>
	<rect x="45" y="108" class="st10" width="6" height="6"/>
	<rect x="51" y="108" class="st11" width="6" height="6"/>
	<rect x="57" y="108" class="st11" width="6" height="6"/>
	<rect x="63" y="108" class="st11" width="6" height="6"/>
	<rect x="69" y="108" class="st11" width="6" height="6"/>
	<rect x="75" y="108" class="st11" width="6" height="6"/>
	<rect x="81" y="108" class="st11" width="6" height="6"/>
	<rect x="87" y="108" class="st11" width="6" height="6"/>
	<rect x="93" y="108" class="st11" width="6" height="6"/>
	<rect x="99" y="108" class="st13" width="6" height="6"/>
	<rect x="105" y="108" class="st8" width="6" height="6"/>
	<rect x="111" y="108" class="st8" width="6" height="6"/>
	<rect x="117" y="108" class="st13" width="6" height="6"/>
	<rect x="123" y="108" class="st12" width="6" height="6"/>
	<rect x="129" y="108" class="st8" width="6" height="6"/>
	<rect x="135" y="108" class="st12" width="6" height="6"/>
	<rect x="141" y="108" class="st8" width="6" height="6"/>
	<rect x="147" y="108" class="st0" width="6" height="6"/>
	<rect x="33" y="114" class="st0" width="6" height="6"/>
	<rect x="39" y="114" class="st12" width="6" height="6"/>
	<rect x="45" y="114" class="st10" width="6" height="6"/>
	<rect x="51" y="114" class="st11" width="6" height="6"/>
	<rect x="57" y="114" class="st10" width="6" height="6"/>
	<rect x="63" y="114" class="st11" width="6" height="6"/>
	<rect x="69" y="114" class="st11" width="6" height="6"/>
	<rect x="75" y="114" class="st11" width="6" height="6"/>
	<rect x="81" y="114" class="st11" width="6" height="6"/>
	<rect x="87" y="114" class="st11" width="6" height="6"/>
	<rect x="93" y="114" class="st11" width="6" height="6"/>
	<rect x="99" y="114" class="st11" width="6" height="6"/>
	<rect x="105" y="114" class="st11" width="6" height="6"/>
	<rect x="111" y="114" class="st11" width="6" height="6"/>
	<rect x="117" y="114" class="st8" width="6" height="6"/>
	<rect x="123" y="114" class="st8" width="6" height="6"/>
	<rect x="129" y="114" class="st8" width="6" height="6"/>
	<rect x="135" y="114" class="st8" width="6" height="6"/>
	<rect x="141" y="114" class="st1" width="6" height="6"/>
	<rect x="147" y="114" class="st9" width="6" height="6"/>
	<rect x="153" y="114" class="st0" width="6" height="6"/>
	<rect x="39" y="120" class="st0" width="6" height="6"/>
	<rect x="45" y="120" class="st12" width="6" height="6"/>
	<rect x="51" y="120" class="st10" width="6" height="6"/>
	<rect x="57" y="120" class="st11" width="6" height="6"/>
	<rect x="63" y="120" class="st11" width="6" height="6"/>
	<rect x="69" y="120" class="st11" width="6" height="6"/>
	<rect x="75" y="120" class="st11" width="6" height="6"/>
	<rect x="81" y="120" class="st11" width="6" height="6"/>
	<rect x="87" y="120" class="st11" width="6" height="6"/>
	<rect x="93" y="120" class="st11" width="6" height="6"/>
	<rect x="99" y="120" class="st11" width="6" height="6"/>
	<rect x="105" y="120" class="st11" width="6" height="6"/>
	<rect x="111" y="120" class="st11" width="6" height="6"/>
	<rect x="117" y="120" class="st14" width="6" height="6"/>
	<rect x="123" y="120" class="st15" width="6" height="6"/>
	<rect x="129" y="120" class="st16" width="6" height="6"/>
	<rect x="135" y="120" class="st9" width="6" height="6"/>
	<rect x="141" y="120" class="st9" width="6" height="6"/>
	<rect x="147" y="120" class="st9" width="6" height="6"/>
	<rect x="153" y="120" class="st6" width="6" height="6"/>
	<rect x="159" y="120" class="st0" width="6" height="6"/>
	<rect x="39" y="126" class="st0" width="6" height="6"/>
	<rect x="45" y="126" class="st4" width="6" height="6"/>
	<rect x="51" y="126" class="st10" width="6" height="6"/>
	<rect x="57" y="126" class="st11" width="6" height="6"/>
	<rect x="63" y="126" class="st10" width="6" height="6"/>
	<rect x="69" y="126" class="st11" width="6" height="6"/>
	<rect x="75" y="126" class="st11" width="6" height="6"/>
	<rect x="81" y="126" class="st11" width="6" height="6"/>
	<rect x="87" y="126" class="st11" width="6" height="6"/>
	<rect x="93" y="126" class="st11" width="6" height="6"/>
	<rect x="99" y="126" class="st11" width="6" height="6"/>
	<rect x="105" y="126" class="st11" width="6" height="6"/>
	<rect x="111" y="126" class="st14" width="6" height="6"/>
	<rect x="117" y="126" class="st14" width="6" height="6"/>
	<rect x="123" y="126" class="st16" width="6" height="6"/>
	<rect x="129" y="126" class="st16" width="6" height="6"/>
	<rect x="135" y="126" class="st12" width="6" height="6"/>
	<rect x="141" y="126" class="st12" width="6" height="6"/>
	<rect x="147" y="126" class="st6" width="6" height="6"/>
	<rect x="153" y="126" class="st9" width="6" height="6"/>
	<rect x="159" y="126" class="st0" width="6" height="6"/>
	<rect x="45" y="132" class="st0" width="6" height="6"/>
	<rect x="51" y="132" class="st12" width="6" height="6"/>
	<rect x="57" y="132" class="st11" width="6" height="6"/>
	<rect x="63" y="132" class="st11" width="6" height="6"/>
	<rect x="69" y="132" class="st11" width="6" height="6"/>
	<rect x="75" y="132" class="st10" width="6" height="6"/>
	<rect x="81" y="132" class="st11" width="6" height="6"/>
	<rect x="87" y="132" class="st11" width="6" height="6"/>
	<rect x="93" y="132" class="st11" width="6" height="6"/>
	<rect x="99" y="132" class="st11" width="6" height="6"/>
	<rect x="105" y="132" class="st14" width="6" height="6"/>
	<rect x="111" y="132" class="st14" width="6" height="6"/>
	<rect x="117" y="132" class="st16" width="6" height="6"/>
	<rect x="123" y="132" class="st12" width="6" height="6"/>
	<rect x="129" y="132" class="st12" width="6" height="6"/>
	<rect x="135" y="132" class="st0" width="6" height="6"/>
	<rect x="141" y="132" class="st0" width="6" height="6"/>
	<rect x="147" y="132" class="st12" width="6" height="6"/>
	<rect x="153" y="132" class="st12" width="6" height="6"/>
	<rect x="159" y="132" class="st6" width="6" height="6"/>
	<rect x="165" y="132" class="st0" width="6" height="6"/>
	<rect x="51" y="138" class="st0" width="6" height="6"/>
	<rect x="57" y="138" class="st4" width="6" height="6"/>
	<rect x="63" y="138" class="st11" width="6" height="6"/>
	<rect x="69" y="138" class="st11" width="6" height="6"/>
	<rect x="75" y="138" class="st11" width="6" height="6"/>
	<rect x="81" y="138" class="st11" width="6" height="6"/>
	<rect x="87" y="138" class="st11" width="6" height="6"/>
	<rect x="93" y="138" class="st14" width="6" height="6"/>
	<rect x="99" y="138" class="st14" width="6" height="6"/>
	<rect x="105" y="138" class="st16" width="6" height="6"/>
	<rect x="111" y="138" class="st16" width="6" height="6"/>
	<rect x="117" y="138" class="st12" width="6" height="6"/>
	<rect x="123" y="138" class="st0" width="6" height="6"/>
	<rect x="129" y="138" class="st0" width="6" height="6"/>
	<rect x="147" y="138" class="st0" width="6" height="6"/>
	<rect x="153" y="138" class="st0" width="6" height="6"/>
	<rect x="159" y="138" class="st0" width="6" height="6"/>
	<rect x="165" y="138" class="st12" width="6" height="6"/>
	<rect x="171" y="138" class="st0" width="6" height="6"/>
	<rect x="57" y="144" class="st0" width="6" height="6"/>
	<rect x="63" y="144" class="st4" width="6" height="6"/>
	<rect x="69" y="144" class="st12" width="6" height="6"/>
	<rect x="75" y="144" class="st14" width="6" height="6"/>
	<rect x="81" y="144" class="st16" width="6" height="6"/>
	<rect x="87" y="144" class="st14" width="6" height="6"/>
	<rect x="93" y="144" class="st16" width="6" height="6"/>
	<rect x="99" y="144" class="st16" width="6" height="6"/>
	<rect x="105" y="144" class="st12" width="6" height="6"/>
	<rect x="111" y="144" class="st12" width="6" height="6"/>
	<rect x="117" y="144" class="st0" width="6" height="6"/>
	<rect x="165" y="144" class="st0" width="6" height="6"/>
	<rect x="51" y="150" class="st0" width="6" height="6"/>
	<rect x="57" y="150" class="st17" width="6" height="6"/>
	<rect x="63" y="150" class="st7" width="6" height="6"/>
	<rect x="69" y="150" class="st7" width="6" height="6"/>
	<rect x="75" y="150" class="st4" width="6" height="6"/>
	<rect x="81" y="150" class="st4" width="6" height="6"/>
	<rect x="87" y="150" class="st12" width="6" height="6"/>
	<rect x="93" y="150" class="st12" width="6" height="6"/>
	<rect x="99" y="150" class="st12" width="6" height="6"/>
	<rect x="105" y="150" class="st0" width="6" height="6"/>
	<rect x="111" y="150" class="st0" width="6" height="6"/>
	<rect x="57" y="156" class="st0" width="6" height="6"/>
	<rect x="63" y="156" class="st0" width="6" height="6"/>
	<rect x="69" y="156" class="st0" width="6" height="6"/>
	<rect x="75" y="156" class="st0" width="6" height="6"/>
	<rect x="81" y="156" class="st0" width="6" height="6"/>
	<rect x="87" y="156" class="st0" width="6" height="6"/>
	<rect x="93" y="156" class="st0" width="6" height="6"/>
	<rect x="99" y="156" class="st0" width="6" height="6"/>
</g>
</svg>
