<?xml version="1.0" encoding="utf-8"?>
<!-- Generator: Adobe Illustrator 27.9.0, SVG Export Plug-In . SVG Version: 6.00 Build 0)  -->
<svg version="1.1" id="Layer_1" shape-rendering="crispEdges"
	 xmlns="http://www.w3.org/2000/svg" xmlns:xlink="http://www.w3.org/1999/xlink" x="0px" y="0px" viewBox="0 0 192 192"
	 style="enable-background:new 0 0 192 192;" xml:space="preserve">
<style type="text/css">
	.st0{fill:#EB97A7;}
	.st1{fill:#C73D62;}
	.st2{fill:#EECC11;}
	.st3{fill:#FF7E36;}
	.st4{fill:#B55D83;}
	.st5{fill:#E17557;}
	.st6{fill:#A61C39;}
	.st7{fill:#EEAD11;}
	.st8{fill:#EDE5B7;}
	.st9{fill:#E2574A;}
	.st10{fill:#C1313E;}
</style>
<g>
	<rect x="78" class="st0" width="6" height="6"/>
	<rect x="84" class="st1" width="6" height="6"/>
	<rect x="90" class="st2" width="6" height="6"/>
	<rect x="96" class="st1" width="6" height="6"/>
	<rect x="102" class="st0" width="6" height="6"/>
	<rect x="174" class="st0" width="6" height="6"/>
	<rect x="180" class="st1" width="6" height="6"/>
	<rect x="186" class="st2" width="6" height="6"/>
	<rect x="12" y="6" class="st0" width="6" height="6"/>
	<rect x="18" y="6" class="st0" width="6" height="6"/>
	<rect x="24" y="6" class="st0" width="6" height="6"/>
	<rect x="78" y="6" class="st0" width="6" height="6"/>
	<rect x="84" y="6" class="st3" width="6" height="6"/>
	<rect x="90" y="6" class="st4" width="6" height="6"/>
	<rect x="96" y="6" class="st5" width="6" height="6"/>
	<rect x="102" y="6" class="st0" width="6" height="6"/>
	<rect x="174" y="6" class="st0" width="6" height="6"/>
	<rect x="180" y="6" class="st5" width="6" height="6"/>
	<rect x="186" y="6" class="st1" width="6" height="6"/>
	<rect x="6" y="12" class="st0" width="6" height="6"/>
	<rect x="12" y="12" class="st3" width="6" height="6"/>
	<rect x="18" y="12" class="st4" width="6" height="6"/>
	<rect x="24" y="12" class="st3" width="6" height="6"/>
	<rect x="30" y="12" class="st0" width="6" height="6"/>
	<rect x="84" y="12" class="st0" width="6" height="6"/>
	<rect x="90" y="12" class="st0" width="6" height="6"/>
	<rect x="96" y="12" class="st0" width="6" height="6"/>
	<rect x="132" y="12" class="st0" width="6" height="6"/>
	<rect x="138" y="12" class="st0" width="6" height="6"/>
	<rect x="144" y="12" class="st0" width="6" height="6"/>
	<rect x="180" y="12" class="st0" width="6" height="6"/>
	<rect x="186" y="12" class="st0" width="6" height="6"/>
	<rect x="6" y="18" class="st0" width="6" height="6"/>
	<rect x="12" y="18" class="st4" width="6" height="6"/>
	<rect x="18" y="18" class="st2" width="6" height="6"/>
	<rect x="24" y="18" class="st1" width="6" height="6"/>
	<rect x="30" y="18" class="st0" width="6" height="6"/>
	<rect x="126" y="18" class="st0" width="6" height="6"/>
	<rect x="132" y="18" class="st5" width="6" height="6"/>
	<rect x="138" y="18" class="st4" width="6" height="6"/>
	<rect x="144" y="18" class="st5" width="6" height="6"/>
	<rect x="150" y="18" class="st0" width="6" height="6"/>
	<rect x="6" y="24" class="st0" width="6" height="6"/>
	<rect x="12" y="24" class="st3" width="6" height="6"/>
	<rect x="18" y="24" class="st4" width="6" height="6"/>
	<rect x="24" y="24" class="st3" width="6" height="6"/>
	<rect x="30" y="24" class="st0" width="6" height="6"/>
	<rect x="84" y="24" class="st0" width="6" height="6"/>
	<rect x="90" y="24" class="st0" width="6" height="6"/>
	<rect x="96" y="24" class="st0" width="6" height="6"/>
	<rect x="126" y="24" class="st0" width="6" height="6"/>
	<rect x="132" y="24" class="st4" width="6" height="6"/>
	<rect x="138" y="24" class="st2" width="6" height="6"/>
	<rect x="144" y="24" class="st1" width="6" height="6"/>
	<rect x="150" y="24" class="st0" width="6" height="6"/>
	<rect x="12" y="30" class="st0" width="6" height="6"/>
	<rect x="18" y="30" class="st0" width="6" height="6"/>
	<rect x="24" y="30" class="st0" width="6" height="6"/>
	<rect x="78" y="30" class="st0" width="6" height="6"/>
	<rect x="84" y="30" class="st6" width="6" height="6"/>
	<rect x="90" y="30" class="st6" width="6" height="6"/>
	<rect x="96" y="30" class="st6" width="6" height="6"/>
	<rect x="102" y="30" class="st0" width="6" height="6"/>
	<rect x="126" y="30" class="st0" width="6" height="6"/>
	<rect x="132" y="30" class="st5" width="6" height="6"/>
	<rect x="138" y="30" class="st1" width="6" height="6"/>
	<rect x="144" y="30" class="st5" width="6" height="6"/>
	<rect x="150" y="30" class="st0" width="6" height="6"/>
	<rect x="42" y="36" class="st0" width="6" height="6"/>
	<rect x="72" y="36" class="st0" width="6" height="6"/>
	<rect x="78" y="36" class="st6" width="6" height="6"/>
	<rect x="84" y="36" class="st2" width="6" height="6"/>
	<rect x="90" y="36" class="st7" width="6" height="6"/>
	<rect x="96" y="36" class="st7" width="6" height="6"/>
	<rect x="102" y="36" class="st6" width="6" height="6"/>
	<rect x="108" y="36" class="st0" width="6" height="6"/>
	<rect x="132" y="36" class="st0" width="6" height="6"/>
	<rect x="138" y="36" class="st0" width="6" height="6"/>
	<rect x="144" y="36" class="st0" width="6" height="6"/>
	<rect x="174" y="36" class="st0" width="6" height="6"/>
	<rect x="36" y="42" class="st0" width="6" height="6"/>
	<rect x="42" y="42" class="st4" width="6" height="6"/>
	<rect x="48" y="42" class="st0" width="6" height="6"/>
	<rect x="72" y="42" class="st0" width="6" height="6"/>
	<rect x="78" y="42" class="st6" width="6" height="6"/>
	<rect x="84" y="42" class="st2" width="6" height="6"/>
	<rect x="90" y="42" class="st8" width="6" height="6"/>
	<rect x="96" y="42" class="st7" width="6" height="6"/>
	<rect x="102" y="42" class="st6" width="6" height="6"/>
	<rect x="108" y="42" class="st0" width="6" height="6"/>
	<rect x="168" y="42" class="st0" width="6" height="6"/>
	<rect x="174" y="42" class="st1" width="6" height="6"/>
	<rect x="180" y="42" class="st0" width="6" height="6"/>
	<rect x="30" y="48" class="st0" width="6" height="6"/>
	<rect x="36" y="48" class="st4" width="6" height="6"/>
	<rect x="42" y="48" class="st2" width="6" height="6"/>
	<rect x="48" y="48" class="st1" width="6" height="6"/>
	<rect x="54" y="48" class="st0" width="6" height="6"/>
	<rect x="66" y="48" class="st0" width="6" height="6"/>
	<rect x="72" y="48" class="st6" width="6" height="6"/>
	<rect x="78" y="48" class="st2" width="6" height="6"/>
	<rect x="84" y="48" class="st2" width="6" height="6"/>
	<rect x="90" y="48" class="st8" width="6" height="6"/>
	<rect x="96" y="48" class="st7" width="6" height="6"/>
	<rect x="102" y="48" class="st9" width="6" height="6"/>
	<rect x="108" y="48" class="st6" width="6" height="6"/>
	<rect x="114" y="48" class="st0" width="6" height="6"/>
	<rect x="162" y="48" class="st0" width="6" height="6"/>
	<rect x="168" y="48" class="st1" width="6" height="6"/>
	<rect x="174" y="48" class="st2" width="6" height="6"/>
	<rect x="180" y="48" class="st1" width="6" height="6"/>
	<rect x="186" y="48" class="st0" width="6" height="6"/>
	<rect y="54" class="st0" width="6" height="6"/>
	<rect x="36" y="54" class="st0" width="6" height="6"/>
	<rect x="42" y="54" class="st1" width="6" height="6"/>
	<rect x="48" y="54" class="st0" width="6" height="6"/>
	<rect x="66" y="54" class="st0" width="6" height="6"/>
	<rect x="72" y="54" class="st10" width="6" height="6"/>
	<rect x="78" y="54" class="st2" width="6" height="6"/>
	<rect x="84" y="54" class="st2" width="6" height="6"/>
	<rect x="90" y="54" class="st8" width="6" height="6"/>
	<rect x="96" y="54" class="st7" width="6" height="6"/>
	<rect x="102" y="54" class="st3" width="6" height="6"/>
	<rect x="108" y="54" class="st10" width="6" height="6"/>
	<rect x="114" y="54" class="st0" width="6" height="6"/>
	<rect x="168" y="54" class="st0" width="6" height="6"/>
	<rect x="174" y="54" class="st1" width="6" height="6"/>
	<rect x="180" y="54" class="st0" width="6" height="6"/>
	<rect y="60" class="st4" width="6" height="6"/>
	<rect x="6" y="60" class="st0" width="6" height="6"/>
	<rect x="42" y="60" class="st0" width="6" height="6"/>
	<rect x="60" y="60" class="st0" width="6" height="6"/>
	<rect x="66" y="60" class="st10" width="6" height="6"/>
	<rect x="72" y="60" class="st2" width="6" height="6"/>
	<rect x="78" y="60" class="st2" width="6" height="6"/>
	<rect x="84" y="60" class="st2" width="6" height="6"/>
	<rect x="90" y="60" class="st8" width="6" height="6"/>
	<rect x="96" y="60" class="st7" width="6" height="6"/>
	<rect x="102" y="60" class="st7" width="6" height="6"/>
	<rect x="108" y="60" class="st9" width="6" height="6"/>
	<rect x="114" y="60" class="st10" width="6" height="6"/>
	<rect x="120" y="60" class="st0" width="6" height="6"/>
	<rect x="174" y="60" class="st0" width="6" height="6"/>
	<rect y="66" class="st2" width="6" height="6"/>
	<rect x="6" y="66" class="st1" width="6" height="6"/>
	<rect x="12" y="66" class="st0" width="6" height="6"/>
	<rect x="24" y="66" class="st0" width="6" height="6"/>
	<rect x="30" y="66" class="st0" width="6" height="6"/>
	<rect x="36" y="66" class="st0" width="6" height="6"/>
	<rect x="42" y="66" class="st0" width="6" height="6"/>
	<rect x="48" y="66" class="st0" width="6" height="6"/>
	<rect x="54" y="66" class="st0" width="6" height="6"/>
	<rect x="60" y="66" class="st0" width="6" height="6"/>
	<rect x="66" y="66" class="st10" width="6" height="6"/>
	<rect x="72" y="66" class="st2" width="6" height="6"/>
	<rect x="78" y="66" class="st8" width="6" height="6"/>
	<rect x="84" y="66" class="st2" width="6" height="6"/>
	<rect x="90" y="66" class="st2" width="6" height="6"/>
	<rect x="96" y="66" class="st7" width="6" height="6"/>
	<rect x="102" y="66" class="st7" width="6" height="6"/>
	<rect x="108" y="66" class="st3" width="6" height="6"/>
	<rect x="114" y="66" class="st10" width="6" height="6"/>
	<rect x="120" y="66" class="st0" width="6" height="6"/>
	<rect x="126" y="66" class="st0" width="6" height="6"/>
	<rect x="132" y="66" class="st0" width="6" height="6"/>
	<rect x="138" y="66" class="st0" width="6" height="6"/>
	<rect x="144" y="66" class="st0" width="6" height="6"/>
	<rect x="150" y="66" class="st0" width="6" height="6"/>
	<rect x="156" y="66" class="st0" width="6" height="6"/>
	<rect y="72" class="st1" width="6" height="6"/>
	<rect x="6" y="72" class="st0" width="6" height="6"/>
	<rect x="18" y="72" class="st0" width="6" height="6"/>
	<rect x="24" y="72" class="st6" width="6" height="6"/>
	<rect x="30" y="72" class="st6" width="6" height="6"/>
	<rect x="36" y="72" class="st6" width="6" height="6"/>
	<rect x="42" y="72" class="st10" width="6" height="6"/>
	<rect x="48" y="72" class="st10" width="6" height="6"/>
	<rect x="54" y="72" class="st10" width="6" height="6"/>
	<rect x="60" y="72" class="st10" width="6" height="6"/>
	<rect x="66" y="72" class="st7" width="6" height="6"/>
	<rect x="72" y="72" class="st2" width="6" height="6"/>
	<rect x="78" y="72" class="st8" width="6" height="6"/>
	<rect x="84" y="72" class="st2" width="6" height="6"/>
	<rect x="90" y="72" class="st8" width="6" height="6"/>
	<rect x="96" y="72" class="st7" width="6" height="6"/>
	<rect x="102" y="72" class="st7" width="6" height="6"/>
	<rect x="108" y="72" class="st3" width="6" height="6"/>
	<rect x="114" y="72" class="st9" width="6" height="6"/>
	<rect x="120" y="72" class="st10" width="6" height="6"/>
	<rect x="126" y="72" class="st10" width="6" height="6"/>
	<rect x="132" y="72" class="st10" width="6" height="6"/>
	<rect x="138" y="72" class="st10" width="6" height="6"/>
	<rect x="144" y="72" class="st6" width="6" height="6"/>
	<rect x="150" y="72" class="st6" width="6" height="6"/>
	<rect x="156" y="72" class="st6" width="6" height="6"/>
	<rect x="162" y="72" class="st0" width="6" height="6"/>
	<rect y="78" class="st0" width="6" height="6"/>
	<rect x="12" y="78" class="st0" width="6" height="6"/>
	<rect x="18" y="78" class="st6" width="6" height="6"/>
	<rect x="24" y="78" class="st2" width="6" height="6"/>
	<rect x="30" y="78" class="st2" width="6" height="6"/>
	<rect x="36" y="78" class="st2" width="6" height="6"/>
	<rect x="42" y="78" class="st2" width="6" height="6"/>
	<rect x="48" y="78" class="st2" width="6" height="6"/>
	<rect x="54" y="78" class="st2" width="6" height="6"/>
	<rect x="60" y="78" class="st7" width="6" height="6"/>
	<rect x="66" y="78" class="st7" width="6" height="6"/>
	<rect x="72" y="78" class="st2" width="6" height="6"/>
	<rect x="78" y="78" class="st2" width="6" height="6"/>
	<rect x="84" y="78" class="st2" width="6" height="6"/>
	<rect x="90" y="78" class="st2" width="6" height="6"/>
	<rect x="96" y="78" class="st7" width="6" height="6"/>
	<rect x="102" y="78" class="st7" width="6" height="6"/>
	<rect x="108" y="78" class="st2" width="6" height="6"/>
	<rect x="114" y="78" class="st3" width="6" height="6"/>
	<rect x="120" y="78" class="st3" width="6" height="6"/>
	<rect x="126" y="78" class="st3" width="6" height="6"/>
	<rect x="132" y="78" class="st2" width="6" height="6"/>
	<rect x="138" y="78" class="st2" width="6" height="6"/>
	<rect x="144" y="78" class="st2" width="6" height="6"/>
	<rect x="150" y="78" class="st2" width="6" height="6"/>
	<rect x="156" y="78" class="st9" width="6" height="6"/>
	<rect x="162" y="78" class="st6" width="6" height="6"/>
	<rect x="168" y="78" class="st0" width="6" height="6"/>
	<rect x="12" y="84" class="st0" width="6" height="6"/>
	<rect x="18" y="84" class="st6" width="6" height="6"/>
	<rect x="24" y="84" class="st9" width="6" height="6"/>
	<rect x="30" y="84" class="st8" width="6" height="6"/>
	<rect x="36" y="84" class="st8" width="6" height="6"/>
	<rect x="42" y="84" class="st2" width="6" height="6"/>
	<rect x="48" y="84" class="st2" width="6" height="6"/>
	<rect x="54" y="84" class="st2" width="6" height="6"/>
	<rect x="60" y="84" class="st2" width="6" height="6"/>
	<rect x="66" y="84" class="st2" width="6" height="6"/>
	<rect x="72" y="84" class="st7" width="6" height="6"/>
	<rect x="78" y="84" class="st2" width="6" height="6"/>
	<rect x="84" y="84" class="st2" width="6" height="6"/>
	<rect x="90" y="84" class="st8" width="6" height="6"/>
	<rect x="96" y="84" class="st7" width="6" height="6"/>
	<rect x="102" y="84" class="st7" width="6" height="6"/>
	<rect x="108" y="84" class="st7" width="6" height="6"/>
	<rect x="114" y="84" class="st3" width="6" height="6"/>
	<rect x="120" y="84" class="st2" width="6" height="6"/>
	<rect x="126" y="84" class="st2" width="6" height="6"/>
	<rect x="132" y="84" class="st2" width="6" height="6"/>
	<rect x="138" y="84" class="st2" width="6" height="6"/>
	<rect x="144" y="84" class="st8" width="6" height="6"/>
	<rect x="150" y="84" class="st8" width="6" height="6"/>
	<rect x="156" y="84" class="st3" width="6" height="6"/>
	<rect x="162" y="84" class="st6" width="6" height="6"/>
	<rect x="168" y="84" class="st0" width="6" height="6"/>
	<rect x="18" y="90" class="st0" width="6" height="6"/>
	<rect x="24" y="90" class="st6" width="6" height="6"/>
	<rect x="30" y="90" class="st9" width="6" height="6"/>
	<rect x="36" y="90" class="st3" width="6" height="6"/>
	<rect x="42" y="90" class="st8" width="6" height="6"/>
	<rect x="48" y="90" class="st8" width="6" height="6"/>
	<rect x="54" y="90" class="st8" width="6" height="6"/>
	<rect x="60" y="90" class="st2" width="6" height="6"/>
	<rect x="66" y="90" class="st2" width="6" height="6"/>
	<rect x="72" y="90" class="st2" width="6" height="6"/>
	<rect x="78" y="90" class="st2" width="6" height="6"/>
	<rect x="84" y="90" class="st2" width="6" height="6"/>
	<rect x="90" y="90" class="st8" width="6" height="6"/>
	<rect x="96" y="90" class="st7" width="6" height="6"/>
	<rect x="102" y="90" class="st7" width="6" height="6"/>
	<rect x="108" y="90" class="st2" width="6" height="6"/>
	<rect x="114" y="90" class="st2" width="6" height="6"/>
	<rect x="120" y="90" class="st2" width="6" height="6"/>
	<rect x="126" y="90" class="st8" width="6" height="6"/>
	<rect x="132" y="90" class="st8" width="6" height="6"/>
	<rect x="138" y="90" class="st8" width="6" height="6"/>
	<rect x="144" y="90" class="st7" width="6" height="6"/>
	<rect x="150" y="90" class="st7" width="6" height="6"/>
	<rect x="156" y="90" class="st6" width="6" height="6"/>
	<rect x="162" y="90" class="st0" width="6" height="6"/>
	<rect x="24" y="96" class="st0" width="6" height="6"/>
	<rect x="30" y="96" class="st6" width="6" height="6"/>
	<rect x="36" y="96" class="st9" width="6" height="6"/>
	<rect x="42" y="96" class="st3" width="6" height="6"/>
	<rect x="48" y="96" class="st7" width="6" height="6"/>
	<rect x="54" y="96" class="st7" width="6" height="6"/>
	<rect x="60" y="96" class="st8" width="6" height="6"/>
	<rect x="66" y="96" class="st8" width="6" height="6"/>
	<rect x="72" y="96" class="st2" width="6" height="6"/>
	<rect x="78" y="96" class="st2" width="6" height="6"/>
	<rect x="84" y="96" class="st2" width="6" height="6"/>
	<rect x="90" y="96" class="st8" width="6" height="6"/>
	<rect x="96" y="96" class="st7" width="6" height="6"/>
	<rect x="102" y="96" class="st2" width="6" height="6"/>
	<rect x="108" y="96" class="st2" width="6" height="6"/>
	<rect x="114" y="96" class="st8" width="6" height="6"/>
	<rect x="120" y="96" class="st8" width="6" height="6"/>
	<rect x="126" y="96" class="st7" width="6" height="6"/>
	<rect x="132" y="96" class="st7" width="6" height="6"/>
	<rect x="138" y="96" class="st7" width="6" height="6"/>
	<rect x="144" y="96" class="st3" width="6" height="6"/>
	<rect x="150" y="96" class="st6" width="6" height="6"/>
	<rect x="156" y="96" class="st0" width="6" height="6"/>
	<rect x="180" y="96" class="st0" width="6" height="6"/>
	<rect x="186" y="96" class="st0" width="6" height="6"/>
	<rect y="102" class="st0" width="6" height="6"/>
	<rect x="6" y="102" class="st0" width="6" height="6"/>
	<rect x="30" y="102" class="st0" width="6" height="6"/>
	<rect x="36" y="102" class="st10" width="6" height="6"/>
	<rect x="42" y="102" class="st9" width="6" height="6"/>
	<rect x="48" y="102" class="st7" width="6" height="6"/>
	<rect x="54" y="102" class="st7" width="6" height="6"/>
	<rect x="60" y="102" class="st7" width="6" height="6"/>
	<rect x="66" y="102" class="st7" width="6" height="6"/>
	<rect x="72" y="102" class="st7" width="6" height="6"/>
	<rect x="78" y="102" class="st8" width="6" height="6"/>
	<rect x="84" y="102" class="st2" width="6" height="6"/>
	<rect x="90" y="102" class="st2" width="6" height="6"/>
	<rect x="96" y="102" class="st8" width="6" height="6"/>
	<rect x="102" y="102" class="st8" width="6" height="6"/>
	<rect x="108" y="102" class="st8" width="6" height="6"/>
	<rect x="114" y="102" class="st7" width="6" height="6"/>
	<rect x="120" y="102" class="st7" width="6" height="6"/>
	<rect x="126" y="102" class="st3" width="6" height="6"/>
	<rect x="132" y="102" class="st3" width="6" height="6"/>
	<rect x="138" y="102" class="st3" width="6" height="6"/>
	<rect x="144" y="102" class="st10" width="6" height="6"/>
	<rect x="150" y="102" class="st0" width="6" height="6"/>
	<rect x="174" y="102" class="st0" width="6" height="6"/>
	<rect x="180" y="102" class="st5" width="6" height="6"/>
	<rect x="186" y="102" class="st1" width="6" height="6"/>
	<rect y="108" class="st4" width="6" height="6"/>
	<rect x="6" y="108" class="st3" width="6" height="6"/>
	<rect x="12" y="108" class="st0" width="6" height="6"/>
	<rect x="36" y="108" class="st0" width="6" height="6"/>
	<rect x="42" y="108" class="st10" width="6" height="6"/>
	<rect x="48" y="108" class="st3" width="6" height="6"/>
	<rect x="54" y="108" class="st7" width="6" height="6"/>
	<rect x="60" y="108" class="st7" width="6" height="6"/>
	<rect x="66" y="108" class="st7" width="6" height="6"/>
	<rect x="72" y="108" class="st7" width="6" height="6"/>
	<rect x="78" y="108" class="st7" width="6" height="6"/>
	<rect x="84" y="108" class="st2" width="6" height="6"/>
	<rect x="90" y="108" class="st8" width="6" height="6"/>
	<rect x="96" y="108" class="st2" width="6" height="6"/>
	<rect x="102" y="108" class="st7" width="6" height="6"/>
	<rect x="108" y="108" class="st7" width="6" height="6"/>
	<rect x="114" y="108" class="st7" width="6" height="6"/>
	<rect x="120" y="108" class="st3" width="6" height="6"/>
	<rect x="126" y="108" class="st3" width="6" height="6"/>
	<rect x="132" y="108" class="st3" width="6" height="6"/>
	<rect x="138" y="108" class="st10" width="6" height="6"/>
	<rect x="144" y="108" class="st0" width="6" height="6"/>
	<rect x="174" y="108" class="st0" width="6" height="6"/>
	<rect x="180" y="108" class="st1" width="6" height="6"/>
	<rect x="186" y="108" class="st2" width="6" height="6"/>
	<rect y="114" class="st2" width="6" height="6"/>
	<rect x="6" y="114" class="st1" width="6" height="6"/>
	<rect x="12" y="114" class="st0" width="6" height="6"/>
	<rect x="36" y="114" class="st0" width="6" height="6"/>
	<rect x="42" y="114" class="st10" width="6" height="6"/>
	<rect x="48" y="114" class="st9" width="6" height="6"/>
	<rect x="54" y="114" class="st7" width="6" height="6"/>
	<rect x="60" y="114" class="st7" width="6" height="6"/>
	<rect x="66" y="114" class="st7" width="6" height="6"/>
	<rect x="72" y="114" class="st7" width="6" height="6"/>
	<rect x="78" y="114" class="st2" width="6" height="6"/>
	<rect x="84" y="114" class="st7" width="6" height="6"/>
	<rect x="90" y="114" class="st7" width="6" height="6"/>
	<rect x="96" y="114" class="st7" width="6" height="6"/>
	<rect x="102" y="114" class="st2" width="6" height="6"/>
	<rect x="108" y="114" class="st7" width="6" height="6"/>
	<rect x="114" y="114" class="st7" width="6" height="6"/>
	<rect x="120" y="114" class="st3" width="6" height="6"/>
	<rect x="126" y="114" class="st3" width="6" height="6"/>
	<rect x="132" y="114" class="st9" width="6" height="6"/>
	<rect x="138" y="114" class="st10" width="6" height="6"/>
	<rect x="144" y="114" class="st0" width="6" height="6"/>
	<rect x="174" y="114" class="st0" width="6" height="6"/>
	<rect x="180" y="114" class="st5" width="6" height="6"/>
	<rect x="186" y="114" class="st1" width="6" height="6"/>
	<rect y="120" class="st4" width="6" height="6"/>
	<rect x="6" y="120" class="st3" width="6" height="6"/>
	<rect x="12" y="120" class="st0" width="6" height="6"/>
	<rect x="36" y="120" class="st0" width="6" height="6"/>
	<rect x="42" y="120" class="st10" width="6" height="6"/>
	<rect x="48" y="120" class="st9" width="6" height="6"/>
	<rect x="54" y="120" class="st7" width="6" height="6"/>
	<rect x="60" y="120" class="st7" width="6" height="6"/>
	<rect x="66" y="120" class="st7" width="6" height="6"/>
	<rect x="72" y="120" class="st2" width="6" height="6"/>
	<rect x="78" y="120" class="st7" width="6" height="6"/>
	<rect x="84" y="120" class="st7" width="6" height="6"/>
	<rect x="90" y="120" class="st3" width="6" height="6"/>
	<rect x="96" y="120" class="st7" width="6" height="6"/>
	<rect x="102" y="120" class="st7" width="6" height="6"/>
	<rect x="108" y="120" class="st2" width="6" height="6"/>
	<rect x="114" y="120" class="st7" width="6" height="6"/>
	<rect x="120" y="120" class="st3" width="6" height="6"/>
	<rect x="126" y="120" class="st3" width="6" height="6"/>
	<rect x="132" y="120" class="st9" width="6" height="6"/>
	<rect x="138" y="120" class="st10" width="6" height="6"/>
	<rect x="144" y="120" class="st0" width="6" height="6"/>
	<rect x="180" y="120" class="st0" width="6" height="6"/>
	<rect x="186" y="120" class="st0" width="6" height="6"/>
	<rect y="126" class="st0" width="6" height="6"/>
	<rect x="6" y="126" class="st0" width="6" height="6"/>
	<rect x="36" y="126" class="st0" width="6" height="6"/>
	<rect x="42" y="126" class="st10" width="6" height="6"/>
	<rect x="48" y="126" class="st3" width="6" height="6"/>
	<rect x="54" y="126" class="st7" width="6" height="6"/>
	<rect x="60" y="126" class="st7" width="6" height="6"/>
	<rect x="66" y="126" class="st2" width="6" height="6"/>
	<rect x="72" y="126" class="st7" width="6" height="6"/>
	<rect x="78" y="126" class="st7" width="6" height="6"/>
	<rect x="84" y="126" class="st3" width="6" height="6"/>
	<rect x="90" y="126" class="st3" width="6" height="6"/>
	<rect x="96" y="126" class="st3" width="6" height="6"/>
	<rect x="102" y="126" class="st7" width="6" height="6"/>
	<rect x="108" y="126" class="st7" width="6" height="6"/>
	<rect x="114" y="126" class="st2" width="6" height="6"/>
	<rect x="120" y="126" class="st7" width="6" height="6"/>
	<rect x="126" y="126" class="st3" width="6" height="6"/>
	<rect x="132" y="126" class="st9" width="6" height="6"/>
	<rect x="138" y="126" class="st10" width="6" height="6"/>
	<rect x="144" y="126" class="st0" width="6" height="6"/>
	<rect x="36" y="132" class="st0" width="6" height="6"/>
	<rect x="42" y="132" class="st10" width="6" height="6"/>
	<rect x="48" y="132" class="st3" width="6" height="6"/>
	<rect x="54" y="132" class="st7" width="6" height="6"/>
	<rect x="60" y="132" class="st2" width="6" height="6"/>
	<rect x="66" y="132" class="st7" width="6" height="6"/>
	<rect x="72" y="132" class="st7" width="6" height="6"/>
	<rect x="78" y="132" class="st3" width="6" height="6"/>
	<rect x="84" y="132" class="st3" width="6" height="6"/>
	<rect x="90" y="132" class="st9" width="6" height="6"/>
	<rect x="96" y="132" class="st3" width="6" height="6"/>
	<rect x="102" y="132" class="st3" width="6" height="6"/>
	<rect x="108" y="132" class="st7" width="6" height="6"/>
	<rect x="114" y="132" class="st7" width="6" height="6"/>
	<rect x="120" y="132" class="st2" width="6" height="6"/>
	<rect x="126" y="132" class="st7" width="6" height="6"/>
	<rect x="132" y="132" class="st3" width="6" height="6"/>
	<rect x="138" y="132" class="st10" width="6" height="6"/>
	<rect x="144" y="132" class="st0" width="6" height="6"/>
	<rect x="30" y="138" class="st0" width="6" height="6"/>
	<rect x="36" y="138" class="st10" width="6" height="6"/>
	<rect x="42" y="138" class="st3" width="6" height="6"/>
	<rect x="48" y="138" class="st7" width="6" height="6"/>
	<rect x="54" y="138" class="st2" width="6" height="6"/>
	<rect x="60" y="138" class="st7" width="6" height="6"/>
	<rect x="66" y="138" class="st7" width="6" height="6"/>
	<rect x="72" y="138" class="st3" width="6" height="6"/>
	<rect x="78" y="138" class="st9" width="6" height="6"/>
	<rect x="84" y="138" class="st10" width="6" height="6"/>
	<rect x="90" y="138" class="st10" width="6" height="6"/>
	<rect x="96" y="138" class="st10" width="6" height="6"/>
	<rect x="102" y="138" class="st9" width="6" height="6"/>
	<rect x="108" y="138" class="st3" width="6" height="6"/>
	<rect x="114" y="138" class="st7" width="6" height="6"/>
	<rect x="120" y="138" class="st7" width="6" height="6"/>
	<rect x="126" y="138" class="st2" width="6" height="6"/>
	<rect x="132" y="138" class="st7" width="6" height="6"/>
	<rect x="138" y="138" class="st3" width="6" height="6"/>
	<rect x="144" y="138" class="st10" width="6" height="6"/>
	<rect x="150" y="138" class="st0" width="6" height="6"/>
	<rect x="168" y="138" class="st0" width="6" height="6"/>
	<rect x="30" y="144" class="st0" width="6" height="6"/>
	<rect x="36" y="144" class="st10" width="6" height="6"/>
	<rect x="42" y="144" class="st3" width="6" height="6"/>
	<rect x="48" y="144" class="st2" width="6" height="6"/>
	<rect x="54" y="144" class="st7" width="6" height="6"/>
	<rect x="60" y="144" class="st7" width="6" height="6"/>
	<rect x="66" y="144" class="st9" width="6" height="6"/>
	<rect x="72" y="144" class="st9" width="6" height="6"/>
	<rect x="78" y="144" class="st10" width="6" height="6"/>
	<rect x="84" y="144" class="st0" width="6" height="6"/>
	<rect x="90" y="144" class="st0" width="6" height="6"/>
	<rect x="96" y="144" class="st0" width="6" height="6"/>
	<rect x="102" y="144" class="st10" width="6" height="6"/>
	<rect x="108" y="144" class="st9" width="6" height="6"/>
	<rect x="114" y="144" class="st3" width="6" height="6"/>
	<rect x="120" y="144" class="st7" width="6" height="6"/>
	<rect x="126" y="144" class="st7" width="6" height="6"/>
	<rect x="132" y="144" class="st2" width="6" height="6"/>
	<rect x="138" y="144" class="st3" width="6" height="6"/>
	<rect x="144" y="144" class="st10" width="6" height="6"/>
	<rect x="150" y="144" class="st0" width="6" height="6"/>
	<rect x="162" y="144" class="st0" width="6" height="6"/>
	<rect x="168" y="144" class="st1" width="6" height="6"/>
	<rect x="174" y="144" class="st0" width="6" height="6"/>
	<rect x="30" y="150" class="st0" width="6" height="6"/>
	<rect x="36" y="150" class="st6" width="6" height="6"/>
	<rect x="42" y="150" class="st7" width="6" height="6"/>
	<rect x="48" y="150" class="st7" width="6" height="6"/>
	<rect x="54" y="150" class="st9" width="6" height="6"/>
	<rect x="60" y="150" class="st9" width="6" height="6"/>
	<rect x="66" y="150" class="st6" width="6" height="6"/>
	<rect x="72" y="150" class="st10" width="6" height="6"/>
	<rect x="78" y="150" class="st0" width="6" height="6"/>
	<rect x="102" y="150" class="st0" width="6" height="6"/>
	<rect x="108" y="150" class="st10" width="6" height="6"/>
	<rect x="114" y="150" class="st6" width="6" height="6"/>
	<rect x="120" y="150" class="st3" width="6" height="6"/>
	<rect x="126" y="150" class="st7" width="6" height="6"/>
	<rect x="132" y="150" class="st7" width="6" height="6"/>
	<rect x="138" y="150" class="st7" width="6" height="6"/>
	<rect x="144" y="150" class="st6" width="6" height="6"/>
	<rect x="150" y="150" class="st0" width="6" height="6"/>
	<rect x="156" y="150" class="st0" width="6" height="6"/>
	<rect x="162" y="150" class="st1" width="6" height="6"/>
	<rect x="168" y="150" class="st2" width="6" height="6"/>
	<rect x="174" y="150" class="st1" width="6" height="6"/>
	<rect x="180" y="150" class="st0" width="6" height="6"/>
	<rect x="30" y="156" class="st0" width="6" height="6"/>
	<rect x="36" y="156" class="st6" width="6" height="6"/>
	<rect x="42" y="156" class="st7" width="6" height="6"/>
	<rect x="48" y="156" class="st9" width="6" height="6"/>
	<rect x="54" y="156" class="st6" width="6" height="6"/>
	<rect x="60" y="156" class="st6" width="6" height="6"/>
	<rect x="66" y="156" class="st0" width="6" height="6"/>
	<rect x="72" y="156" class="st0" width="6" height="6"/>
	<rect x="90" y="156" class="st0" width="6" height="6"/>
	<rect x="96" y="156" class="st0" width="6" height="6"/>
	<rect x="102" y="156" class="st0" width="6" height="6"/>
	<rect x="108" y="156" class="st0" width="6" height="6"/>
	<rect x="114" y="156" class="st0" width="6" height="6"/>
	<rect x="120" y="156" class="st6" width="6" height="6"/>
	<rect x="126" y="156" class="st6" width="6" height="6"/>
	<rect x="132" y="156" class="st7" width="6" height="6"/>
	<rect x="138" y="156" class="st7" width="6" height="6"/>
	<rect x="144" y="156" class="st6" width="6" height="6"/>
	<rect x="150" y="156" class="st0" width="6" height="6"/>
	<rect x="162" y="156" class="st0" width="6" height="6"/>
	<rect x="168" y="156" class="st1" width="6" height="6"/>
	<rect x="174" y="156" class="st0" width="6" height="6"/>
	<rect x="12" y="162" class="st0" width="6" height="6"/>
	<rect x="18" y="162" class="st0" width="6" height="6"/>
	<rect x="24" y="162" class="st0" width="6" height="6"/>
	<rect x="36" y="162" class="st0" width="6" height="6"/>
	<rect x="42" y="162" class="st6" width="6" height="6"/>
	<rect x="48" y="162" class="st6" width="6" height="6"/>
	<rect x="54" y="162" class="st0" width="6" height="6"/>
	<rect x="60" y="162" class="st0" width="6" height="6"/>
	<rect x="84" y="162" class="st0" width="6" height="6"/>
	<rect x="90" y="162" class="st3" width="6" height="6"/>
	<rect x="96" y="162" class="st1" width="6" height="6"/>
	<rect x="102" y="162" class="st5" width="6" height="6"/>
	<rect x="108" y="162" class="st0" width="6" height="6"/>
	<rect x="120" y="162" class="st0" width="6" height="6"/>
	<rect x="126" y="162" class="st0" width="6" height="6"/>
	<rect x="132" y="162" class="st6" width="6" height="6"/>
	<rect x="138" y="162" class="st6" width="6" height="6"/>
	<rect x="144" y="162" class="st0" width="6" height="6"/>
	<rect x="168" y="162" class="st0" width="6" height="6"/>
	<rect x="6" y="168" class="st0" width="6" height="6"/>
	<rect x="12" y="168" class="st5" width="6" height="6"/>
	<rect x="18" y="168" class="st1" width="6" height="6"/>
	<rect x="24" y="168" class="st3" width="6" height="6"/>
	<rect x="30" y="168" class="st0" width="6" height="6"/>
	<rect x="42" y="168" class="st0" width="6" height="6"/>
	<rect x="48" y="168" class="st0" width="6" height="6"/>
	<rect x="84" y="168" class="st0" width="6" height="6"/>
	<rect x="90" y="168" class="st1" width="6" height="6"/>
	<rect x="96" y="168" class="st2" width="6" height="6"/>
	<rect x="102" y="168" class="st1" width="6" height="6"/>
	<rect x="108" y="168" class="st0" width="6" height="6"/>
	<rect x="132" y="168" class="st0" width="6" height="6"/>
	<rect x="138" y="168" class="st0" width="6" height="6"/>
	<rect x="6" y="174" class="st0" width="6" height="6"/>
	<rect x="12" y="174" class="st4" width="6" height="6"/>
	<rect x="18" y="174" class="st2" width="6" height="6"/>
	<rect x="24" y="174" class="st1" width="6" height="6"/>
	<rect x="30" y="174" class="st0" width="6" height="6"/>
	<rect x="84" y="174" class="st0" width="6" height="6"/>
	<rect x="90" y="174" class="st5" width="6" height="6"/>
	<rect x="96" y="174" class="st1" width="6" height="6"/>
	<rect x="102" y="174" class="st5" width="6" height="6"/>
	<rect x="108" y="174" class="st0" width="6" height="6"/>
	<rect x="144" y="174" class="st0" width="6" height="6"/>
	<rect x="150" y="174" class="st0" width="6" height="6"/>
	<rect x="156" y="174" class="st0" width="6" height="6"/>
	<rect x="6" y="180" class="st0" width="6" height="6"/>
	<rect x="12" y="180" class="st5" width="6" height="6"/>
	<rect x="18" y="180" class="st4" width="6" height="6"/>
	<rect x="24" y="180" class="st3" width="6" height="6"/>
	<rect x="30" y="180" class="st0" width="6" height="6"/>
	<rect x="90" y="180" class="st0" width="6" height="6"/>
	<rect x="96" y="180" class="st0" width="6" height="6"/>
	<rect x="102" y="180" class="st0" width="6" height="6"/>
	<rect x="138" y="180" class="st0" width="6" height="6"/>
	<rect x="144" y="180" class="st5" width="6" height="6"/>
	<rect x="150" y="180" class="st4" width="6" height="6"/>
	<rect x="156" y="180" class="st5" width="6" height="6"/>
	<rect x="162" y="180" class="st0" width="6" height="6"/>
	<rect x="12" y="186" class="st0" width="6" height="6"/>
	<rect x="18" y="186" class="st0" width="6" height="6"/>
	<rect x="24" y="186" class="st0" width="6" height="6"/>
	<rect x="138" y="186" class="st0" width="6" height="6"/>
	<rect x="144" y="186" class="st1" width="6" height="6"/>
	<rect x="150" y="186" class="st2" width="6" height="6"/>
	<rect x="156" y="186" class="st1" width="6" height="6"/>
	<rect x="162" y="186" class="st0" width="6" height="6"/>
</g>
</svg>
