<?xml version="1.0" encoding="UTF-8"?><svg id="Layer_1" xmlns="http://www.w3.org/2000/svg" viewBox="0 0 500 430"><defs><style>.cls-1,.cls-2{stroke:#914938;stroke-miterlimit:10;stroke-width:2px;}.cls-1,.cls-3{fill:#914938;}.cls-4{fill:#f4ebd4;font-family:Roboto-Bold, Roboto;font-size:20.36px;font-weight:700;}.cls-2{fill:none;}.cls-3{stroke-width:0px;}</style></defs><path class="cls-3" d="m260.98,106.28c-.36-7.92-1.44-47.16-2.16-56.16l37.08,1.44c-.36,2.88-2.88,6.48-9.36,7.56,0,4.32,0,8.64.72,46.44,44.28-1.44,90.72-2.52,117.72-2.88v24.84c-30.6-.72-74.16,0-117,1.44.72,28.08,1.44,54,2.52,73.8,3.6,11.88,4.32,22.68,4.32,37.8,0,11.52-1.08,24.84-3.6,34.92-9.36,42.12-40.32,79.2-103.68,104.4-4.68-6.12-12.6-15.12-18.36-20.52,55.08-19.8,84.6-49.68,93.6-83.88h-.36c-7.56,10.8-20.88,19.08-37.08,19.08-32.04,0-60.48-26.28-60.48-63-.36-38.16,30.6-67.32,64.8-67.32,12.96,0,26.28,4.68,33.48,11.16,0-6.12-.72-30.24-1.44-45.72-37.44.72-151.2,4.68-165.96,5.4l-.72-23.76,82.08-2.16,83.88-2.88Zm6.84,126.36c0-14.04,0-46.8-36.72-46.8-24.84.36-42.48,19.44-42.84,45.72,0,25.2,19.08,41.76,39.96,41.76,25.56,0,39.6-19.8,39.6-40.68Z"/><line class="cls-2" x1="132.27" y1="96.34" x2="241.85" y2="92.94"/><line class="cls-2" x1="300.66" y1="74.04" x2="303.25" y2="175.33"/><path class="cls-2" d="m194.89,302.28s-46.05-14.23-46.88-66.98,40.25-76.19,40.25-76.19"/><circle class="cls-1" cx="138.89" cy="66.84" r="16.1"/><text class="cls-4" transform="translate(133.05 74.15)"><tspan x="0" y="0">1</tspan></text><circle class="cls-1" cx="328.01" cy="74.54" r="16.1"/><text class="cls-4" transform="translate(322.17 81.85)"><tspan x="0" y="0">2</tspan></text><polygon class="cls-1" points="303.25 173.13 308 173.05 305.72 178.95 303.43 184.85 300.97 179.02 298.5 173.2 303.25 173.13"/><polygon class="cls-1" points="239.67 92.94 239.67 88.19 245.53 90.56 251.39 92.94 245.53 95.31 239.67 97.69 239.67 92.94"/><polygon class="cls-1" points="186.62 159.97 184.26 155.84 190.53 155 196.79 154.15 192.88 159.12 188.97 164.09 186.62 159.97"/></svg>