<?xml version="1.0" encoding="UTF-8"?><svg id="Layer_1" xmlns="http://www.w3.org/2000/svg" viewBox="0 0 500 430"><defs><style>.cls-1,.cls-2{stroke:#914938;stroke-miterlimit:10;stroke-width:2px;}.cls-1,.cls-3{fill:#914938;}.cls-4{fill:#f4ebd4;font-family:Roboto-Bold, Roboto;font-size:20.36px;font-weight:700;}.cls-2{fill:none;}.cls-3{stroke-width:0px;}</style></defs><path class="cls-3" d="m304.05,124.1c-30.6,10.8-71.28,17.64-110.52,20.52-15.12,82.44-37.08,164.52-65.88,225l-25.92-9.72c29.52-57.96,51.12-132.48,65.16-214.2-7.2.36-55.44.72-66.24.36l-.36-24.48c5.76.36,13.32.36,21.6.36,3.24,0,39.24,0,48.6-.36,3.6-23.04,7.2-48.24,9.36-70.2l37.08,3.6c-.36,3.96-5.4,6.84-10.44,7.2-2.16,15.84-5.76,35.28-9,57.24,35.28-3.24,70.92-9.36,100.8-20.16l5.76,24.84Zm95.76,239.76c-10.8.36-21.96.72-33.12.72-33.84,0-65.88-2.52-85.32-7.92-25.56-7.2-40.32-25.92-39.96-49.68.36-15.84,7.2-33.84,22.32-52.2l21.6,9.36c-12.6,14.76-18.72,28.8-18.72,39.96,0,28.44,27.36,35.64,92.88,35.64,13.32,0,27-.36,40.32-1.44v25.56Zm-140.4-173.52c37.08-11.88,88.2-19.44,130.68-18.36v24.48c-40.68-1.08-87.84,4.68-124.56,16.2l-6.12-22.32Z"/><path class="cls-2" d="m121.89,107.94s78.25,5.32,156.35-16.34"/><path class="cls-2" d="m219.61,68.31s-18.75,120.44-31.85,167.29"/><path class="cls-2" d="m273.89,172.1s47.84-13.37,98.07-14.23"/><path class="cls-2" d="m229.94,286.5s-15.34,35.21,6.11,62.36c21.45,27.15,73.15,30.29,73.15,30.29"/><circle class="cls-1" cx="116.29" cy="80.09" r="16.1"/><text class="cls-4" transform="translate(110.45 87.4)"><tspan x="0" y="0">1</tspan></text><circle class="cls-1" cx="246.95" cy="62.2" r="16.1"/><text class="cls-4" transform="translate(241.11 69.51)"><tspan x="0" y="0">2</tspan></text><circle class="cls-1" cx="248.95" cy="164.99" r="16.1"/><text class="cls-4" transform="translate(243.11 172.29)"><tspan x="0" y="0">3</tspan></text><circle class="cls-1" cx="229.85" cy="258.31" r="16.1"/><text class="cls-4" transform="translate(224.01 265.61)"><tspan x="0" y="0">4</tspan></text><polygon class="cls-1" points="274.01 92.62 272.76 88.04 279.04 88.78 285.32 89.52 280.29 93.36 275.27 97.2 274.01 92.62"/><polygon class="cls-1" points="368.77 157.87 368.77 153.12 374.63 155.5 380.49 157.87 374.63 160.25 368.77 162.62 368.77 157.87"/><polygon class="cls-1" points="306.86 379.15 307.03 374.4 312.8 376.98 318.58 379.57 312.63 381.73 306.69 383.9 306.86 379.15"/><polygon class="cls-1" points="188.59 233.28 193.13 234.69 189.12 239.58 185.11 244.47 184.58 238.17 184.06 231.87 188.59 233.28"/></svg>