<?xml version="1.0" encoding="UTF-8"?><svg id="Layer_1" xmlns="http://www.w3.org/2000/svg" viewBox="0 0 500 430"><defs><style>.cls-1,.cls-2{stroke:#914938;stroke-miterlimit:10;stroke-width:2px;}.cls-1,.cls-3{fill:#914938;}.cls-4{fill:#f4ebd4;font-family:Roboto-Bold, Roboto;font-size:20.36px;font-weight:700;}.cls-2{fill:none;}.cls-3{stroke-width:0px;}</style></defs><path class="cls-3" d="m109.59,103.16c27-1.08,248.76-16.92,295.56-17.28l.36,27c-4.68-.36-9-.36-13.32-.36-20.88,0-38.52,3.6-61.56,18.36-54,32.4-106.2,90.36-106.2,136.8,0,50.4,35.28,80.28,124.56,91.8l-11.88,25.2c-102.24-14.76-140.4-52.92-140.4-117,0-50.76,50.04-112.32,115.92-153.72-38.16,2.52-145.8,10.8-192.24,15.12-1.08,2.88-5.04,5.4-7.92,5.76l-2.88-31.68Z"/><line class="cls-2" x1="123.33" y1="87.42" x2="230.48" y2="80.51"/><path class="cls-2" d="m310.02,163.98s-65.04,53.25-68.65,99.39c-3.82,48.84,35.43,60.79,36.32,60.23"/><circle class="cls-1" cx="110.59" cy="61.41" r="16.1"/><text class="cls-4" transform="translate(104.75 68.72)"><tspan x="0" y="0">1</tspan></text><polygon class="cls-1" points="226.04 80.51 225.7 75.77 231.72 77.72 237.73 79.68 232.05 82.46 226.37 85.24 226.04 80.51"/><polygon class="cls-1" points="271.08 321.06 272.93 316.68 277.41 321.15 281.88 325.62 275.56 325.52 269.24 325.43 271.08 321.06"/></svg>