<?xml version="1.0" encoding="UTF-8"?><svg id="Layer_1" xmlns="http://www.w3.org/2000/svg" viewBox="0 0 500 430"><defs><style>.cls-1,.cls-2{stroke:#914938;stroke-miterlimit:10;stroke-width:2px;}.cls-1,.cls-3{fill:#914938;}.cls-4{fill:#f4ebd4;font-family:Roboto-Bold, Roboto;font-size:20.36px;font-weight:700;}.cls-2{fill:none;}.cls-3{stroke-width:0px;}</style></defs><path class="cls-3" d="m361.91,180.16c-.72.36-1.8.36-2.88.36-2.52,0-5.4-.72-7.56-2.16-106.92,31.32-203.76,78.48-203.4,126.72,0,34.56,38.16,46.44,96.48,46.44s102.24-4.32,127.44-8.28l2.16,26.28c-33.12,4.32-86.76,6.48-128.88,6.48-71.28,0-123.12-16.56-123.48-69.48-.36-38.52,38.16-72.36,94.68-101.52-12.24-21.96-16.56-63.72-16.56-145.08l39.6,3.24c-.36,4.68-3.96,7.56-11.16,8.64-.36,63,1.8,102.24,11.88,121.68,33.84-15.84,72.72-30.24,112.32-43.2l9.36,29.88Z"/><path class="cls-2" d="m243.32,79.69s-.14,65.95,3.81,84.6"/><path class="cls-2" d="m338.59,198.23s-92.43,29.17-99.13,37.54"/><circle class="cls-1" cx="269.93" cy="70.09" r="16.1"/><text class="cls-4" transform="translate(264.09 77.4)"><tspan x="0" y="0">1</tspan></text><circle class="cls-1" cx="362.11" cy="214.33" r="16.1"/><text class="cls-4" transform="translate(356.27 221.63)"><tspan x="0" y="0">2</tspan></text><polygon class="cls-1" points="246.06 156.53 250.73 155.65 249.48 161.85 248.23 168.05 244.81 162.73 241.39 157.41 246.06 156.53"/><polygon class="cls-1" points="241.56 234.36 238.83 230.47 235.39 235.77 231.95 241.08 238.12 239.66 244.28 238.25 241.56 234.36"/></svg>