<?xml version="1.0" encoding="utf-8"?>
<!-- Generator: Adobe Illustrator 27.9.0, SVG Export Plug-In . SVG Version: 6.00 Build 0)  -->
<svg version="1.1" id="Layer_1" shape-rendering="crispEdges"
	 xmlns="http://www.w3.org/2000/svg" xmlns:xlink="http://www.w3.org/1999/xlink" x="0px" y="0px" viewBox="0 0 192 192"
	 style="enable-background:new 0 0 192 192;" xml:space="preserve">
<style type="text/css">
	.st0{fill:#50B06E;}
	.st1{fill:#1D8566;}
	.st2{fill:#E6E4D8;}
	.st3{fill:#2CA265;}
	.st4{fill:#FFF7CC;}
	.st5{fill:#4A8E72;}
	.st6{fill:#1E8C54;}
	.st7{fill:#EEAD11;}
	.st8{fill:#B56851;}
	.st9{fill:#FF7E36;}
	.st10{fill:#FF975D;}
	.st11{fill:#534748;}
	.st12{fill:#63E054;}
	.st13{fill:#CD694F;}
	.st14{fill:#AE865B;}
	.st15{fill:#E6A974;}
	.st16{fill:#B6B33A;}
	.st17{fill:#E6C874;}
	.st18{fill:#E4895D;}
	.st19{fill:#D5D06E;}
	.st20{fill:#EEE29D;}
	.st21{fill:#E0603D;}
	.st22{fill:#934D52;}
	.st23{fill:#B3534E;}
</style>
<g>
	<rect x="73.7" y="21.4" class="st0" width="5.6" height="5.6"/>
	<rect x="79.3" y="21.4" class="st0" width="5.6" height="5.6"/>
	<rect x="68.2" y="26.9" class="st0" width="5.6" height="5.6"/>
	<rect x="73.7" y="26.9" class="st1" width="5.6" height="5.6"/>
	<rect x="79.3" y="26.9" class="st1" width="5.6" height="5.6"/>
	<rect x="84.9" y="26.9" class="st0" width="5.6" height="5.6"/>
	<rect x="90.4" y="26.9" class="st0" width="5.6" height="5.6"/>
	<rect x="62.6" y="32.5" class="st0" width="5.6" height="5.6"/>
	<rect x="68.2" y="32.5" class="st1" width="5.6" height="5.6"/>
	<rect x="73.7" y="32.5" class="st2" width="5.6" height="5.6"/>
	<rect x="79.3" y="32.5" class="st2" width="5.6" height="5.6"/>
	<rect x="84.9" y="32.5" class="st1" width="5.6" height="5.6"/>
	<rect x="90.4" y="32.5" class="st1" width="5.6" height="5.6"/>
	<rect x="96" y="32.5" class="st0" width="5.6" height="5.6"/>
	<rect x="101.6" y="32.5" class="st0" width="5.6" height="5.6"/>
	<rect x="57" y="38" class="st0" width="5.6" height="5.6"/>
	<rect x="62.6" y="38" class="st3" width="5.6" height="5.6"/>
	<rect x="68.2" y="38" class="st4" width="5.6" height="5.6"/>
	<rect x="73.7" y="38" class="st4" width="5.6" height="5.6"/>
	<rect x="79.3" y="38" class="st4" width="5.6" height="5.6"/>
	<rect x="84.9" y="38" class="st2" width="5.6" height="5.6"/>
	<rect x="90.4" y="38" class="st2" width="5.6" height="5.6"/>
	<rect x="96" y="38" class="st5" width="5.6" height="5.6"/>
	<rect x="101.6" y="38" class="st1" width="5.6" height="5.6"/>
	<rect x="107.1" y="38" class="st0" width="5.6" height="5.6"/>
	<rect x="112.7" y="38" class="st0" width="5.6" height="5.6"/>
	<rect x="51.5" y="43.6" class="st0" width="5.6" height="5.6"/>
	<rect x="57" y="43.6" class="st1" width="5.6" height="5.6"/>
	<rect x="62.6" y="43.6" class="st4" width="5.6" height="5.6"/>
	<rect x="68.2" y="43.6" class="st4" width="5.6" height="5.6"/>
	<rect x="73.7" y="43.6" class="st4" width="5.6" height="5.6"/>
	<rect x="79.3" y="43.6" class="st4" width="5.6" height="5.6"/>
	<rect x="84.9" y="43.6" class="st4" width="5.6" height="5.6"/>
	<rect x="90.4" y="43.6" class="st4" width="5.6" height="5.6"/>
	<rect x="96" y="43.6" class="st4" width="5.6" height="5.6"/>
	<rect x="101.6" y="43.6" class="st2" width="5.6" height="5.6"/>
	<rect x="107.1" y="43.6" class="st1" width="5.6" height="5.6"/>
	<rect x="112.7" y="43.6" class="st5" width="5.6" height="5.6"/>
	<rect x="118.3" y="43.6" class="st0" width="5.6" height="5.6"/>
	<rect x="123.8" y="43.6" class="st0" width="5.6" height="5.6"/>
	<rect x="45.9" y="49.2" class="st0" width="5.6" height="5.6"/>
	<rect x="51.5" y="49.2" class="st1" width="5.6" height="5.6"/>
	<rect x="57" y="49.2" class="st4" width="5.6" height="5.6"/>
	<rect x="62.6" y="49.2" class="st4" width="5.6" height="5.6"/>
	<rect x="68.2" y="49.2" class="st4" width="5.6" height="5.6"/>
	<rect x="73.7" y="49.2" class="st4" width="5.6" height="5.6"/>
	<rect x="79.3" y="49.2" class="st6" width="5.6" height="5.6"/>
	<rect x="84.9" y="49.2" class="st7" width="5.6" height="5.6"/>
	<rect x="90.4" y="49.2" class="st8" width="5.6" height="5.6"/>
	<rect x="96" y="49.2" class="st7" width="5.6" height="5.6"/>
	<rect x="101.6" y="49.2" class="st9" width="5.6" height="5.6"/>
	<rect x="107.1" y="49.2" class="st2" width="5.6" height="5.6"/>
	<rect x="112.7" y="49.2" class="st2" width="5.6" height="5.6"/>
	<rect x="118.3" y="49.2" class="st5" width="5.6" height="5.6"/>
	<rect x="123.8" y="49.2" class="st5" width="5.6" height="5.6"/>
	<rect x="129.4" y="49.2" class="st0" width="5.6" height="5.6"/>
	<rect x="135" y="49.2" class="st0" width="5.6" height="5.6"/>
	<rect x="40.3" y="54.8" class="st0" width="5.6" height="5.6"/>
	<rect x="45.9" y="54.8" class="st3" width="5.6" height="5.6"/>
	<rect x="51.5" y="54.8" class="st4" width="5.6" height="5.6"/>
	<rect x="57" y="54.8" class="st4" width="5.6" height="5.6"/>
	<rect x="62.6" y="54.8" class="st4" width="5.6" height="5.6"/>
	<rect x="68.2" y="54.8" class="st4" width="5.6" height="5.6"/>
	<rect x="73.7" y="54.8" class="st6" width="5.6" height="5.6"/>
	<rect x="79.3" y="54.8" class="st10" width="5.6" height="5.6"/>
	<rect x="84.9" y="54.8" class="st6" width="5.6" height="5.6"/>
	<rect x="90.4" y="54.8" class="st11" width="5.6" height="5.6"/>
	<rect x="96" y="54.8" class="st9" width="5.6" height="5.6"/>
	<rect x="101.6" y="54.8" class="st7" width="5.6" height="5.6"/>
	<rect x="107.1" y="54.8" class="st9" width="5.6" height="5.6"/>
	<rect x="112.7" y="54.8" class="st4" width="5.6" height="5.6"/>
	<rect x="118.3" y="54.8" class="st2" width="5.6" height="5.6"/>
	<rect x="123.8" y="54.8" class="st2" width="5.6" height="5.6"/>
	<rect x="129.4" y="54.8" class="st3" width="5.6" height="5.6"/>
	<rect x="135" y="54.8" class="st5" width="5.6" height="5.6"/>
	<rect x="140.5" y="54.8" class="st0" width="5.6" height="5.6"/>
	<rect x="146.1" y="54.8" class="st0" width="5.6" height="5.6"/>
	<rect x="34.8" y="60.3" class="st0" width="5.6" height="5.6"/>
	<rect x="40.3" y="60.3" class="st1" width="5.6" height="5.6"/>
	<rect x="45.9" y="60.3" class="st4" width="5.6" height="5.6"/>
	<rect x="51.5" y="60.3" class="st4" width="5.6" height="5.6"/>
	<rect x="57" y="60.3" class="st4" width="5.6" height="5.6"/>
	<rect x="62.6" y="60.3" class="st4" width="5.6" height="5.6"/>
	<rect x="68.2" y="60.3" class="st0" width="5.6" height="5.6"/>
	<rect x="73.7" y="60.3" class="st10" width="5.6" height="5.6"/>
	<rect x="79.3" y="60.3" class="st12" width="5.6" height="5.6"/>
	<rect x="84.9" y="60.3" class="st11" width="5.6" height="5.6"/>
	<rect x="90.4" y="60.3" class="st9" width="5.6" height="5.6"/>
	<rect x="96" y="60.3" class="st12" width="5.6" height="5.6"/>
	<rect x="101.6" y="60.3" class="st9" width="5.6" height="5.6"/>
	<rect x="107.1" y="60.3" class="st6" width="5.6" height="5.6"/>
	<rect x="112.7" y="60.3" class="st9" width="5.6" height="5.6"/>
	<rect x="118.3" y="60.3" class="st4" width="5.6" height="5.6"/>
	<rect x="123.8" y="60.3" class="st4" width="5.6" height="5.6"/>
	<rect x="129.4" y="60.3" class="st4" width="5.6" height="5.6"/>
	<rect x="135" y="60.3" class="st2" width="5.6" height="5.6"/>
	<rect x="140.5" y="60.3" class="st5" width="5.6" height="5.6"/>
	<rect x="146.1" y="60.3" class="st5" width="5.6" height="5.6"/>
	<rect x="151.7" y="60.3" class="st0" width="5.6" height="5.6"/>
	<rect x="29.2" y="65.9" class="st0" width="5.6" height="5.6"/>
	<rect x="34.8" y="65.9" class="st1" width="5.6" height="5.6"/>
	<rect x="40.3" y="65.9" class="st4" width="5.6" height="5.6"/>
	<rect x="45.9" y="65.9" class="st4" width="5.6" height="5.6"/>
	<rect x="51.5" y="65.9" class="st4" width="5.6" height="5.6"/>
	<rect x="57" y="65.9" class="st4" width="5.6" height="5.6"/>
	<rect x="62.6" y="65.9" class="st4" width="5.6" height="5.6"/>
	<rect x="68.2" y="65.9" class="st8" width="5.6" height="5.6"/>
	<rect x="73.7" y="65.9" class="st0" width="5.6" height="5.6"/>
	<rect x="79.3" y="65.9" class="st7" width="5.6" height="5.6"/>
	<rect x="84.9" y="65.9" class="st0" width="5.6" height="5.6"/>
	<rect x="90.4" y="65.9" class="st6" width="5.6" height="5.6"/>
	<rect x="96" y="65.9" class="st9" width="5.6" height="5.6"/>
	<rect x="101.6" y="65.9" class="st6" width="5.6" height="5.6"/>
	<rect x="107.1" y="65.9" class="st9" width="5.6" height="5.6"/>
	<rect x="112.7" y="65.9" class="st6" width="5.6" height="5.6"/>
	<rect x="118.3" y="65.9" class="st7" width="5.6" height="5.6"/>
	<rect x="123.8" y="65.9" class="st4" width="5.6" height="5.6"/>
	<rect x="129.4" y="65.9" class="st4" width="5.6" height="5.6"/>
	<rect x="135" y="65.9" class="st4" width="5.6" height="5.6"/>
	<rect x="140.5" y="65.9" class="st4" width="5.6" height="5.6"/>
	<rect x="146.1" y="65.9" class="st2" width="5.6" height="5.6"/>
	<rect x="151.7" y="65.9" class="st5" width="5.6" height="5.6"/>
	<rect x="157.2" y="65.9" class="st0" width="5.6" height="5.6"/>
	<rect x="23.6" y="71.4" class="st0" width="5.6" height="5.6"/>
	<rect x="29.2" y="71.4" class="st1" width="5.6" height="5.6"/>
	<rect x="34.8" y="71.4" class="st4" width="5.6" height="5.6"/>
	<rect x="40.3" y="71.4" class="st4" width="5.6" height="5.6"/>
	<rect x="45.9" y="71.4" class="st4" width="5.6" height="5.6"/>
	<rect x="51.5" y="71.4" class="st4" width="5.6" height="5.6"/>
	<rect x="57" y="71.4" class="st4" width="5.6" height="5.6"/>
	<rect x="62.6" y="71.4" class="st8" width="5.6" height="5.6"/>
	<rect x="68.2" y="71.4" class="st6" width="5.6" height="5.6"/>
	<rect x="73.7" y="71.4" class="st11" width="5.6" height="5.6"/>
	<rect x="79.3" y="71.4" class="st12" width="5.6" height="5.6"/>
	<rect x="84.9" y="71.4" class="st11" width="5.6" height="5.6"/>
	<rect x="90.4" y="71.4" class="st9" width="5.6" height="5.6"/>
	<rect x="96" y="71.4" class="st12" width="5.6" height="5.6"/>
	<rect x="101.6" y="71.4" class="st9" width="5.6" height="5.6"/>
	<rect x="107.1" y="71.4" class="st0" width="5.6" height="5.6"/>
	<rect x="112.7" y="71.4" class="st11" width="5.6" height="5.6"/>
	<rect x="118.3" y="71.4" class="st9" width="5.6" height="5.6"/>
	<rect x="123.8" y="71.4" class="st13" width="5.6" height="5.6"/>
	<rect x="129.4" y="71.4" class="st4" width="5.6" height="5.6"/>
	<rect x="135" y="71.4" class="st4" width="5.6" height="5.6"/>
	<rect x="140.5" y="71.4" class="st4" width="5.6" height="5.6"/>
	<rect x="146.1" y="71.4" class="st14" width="5.6" height="5.6"/>
	<rect x="151.7" y="71.4" class="st5" width="5.6" height="5.6"/>
	<rect x="157.2" y="71.4" class="st0" width="5.6" height="5.6"/>
	<rect x="23.6" y="77" class="st0" width="5.6" height="5.6"/>
	<rect x="29.2" y="77" class="st1" width="5.6" height="5.6"/>
	<rect x="34.8" y="77" class="st15" width="5.6" height="5.6"/>
	<rect x="40.3" y="77" class="st15" width="5.6" height="5.6"/>
	<rect x="45.9" y="77" class="st4" width="5.6" height="5.6"/>
	<rect x="51.5" y="77" class="st4" width="5.6" height="5.6"/>
	<rect x="57" y="77" class="st4" width="5.6" height="5.6"/>
	<rect x="62.6" y="77" class="st4" width="5.6" height="5.6"/>
	<rect x="68.2" y="77" class="st8" width="5.6" height="5.6"/>
	<rect x="73.7" y="77" class="st6" width="5.6" height="5.6"/>
	<rect x="79.3" y="77" class="st8" width="5.6" height="5.6"/>
	<rect x="84.9" y="77" class="st0" width="5.6" height="5.6"/>
	<rect x="90.4" y="77" class="st0" width="5.6" height="5.6"/>
	<rect x="96" y="77" class="st11" width="5.6" height="5.6"/>
	<rect x="101.6" y="77" class="st12" width="5.6" height="5.6"/>
	<rect x="107.1" y="77" class="st9" width="5.6" height="5.6"/>
	<rect x="112.7" y="77" class="st0" width="5.6" height="5.6"/>
	<rect x="118.3" y="77" class="st13" width="5.6" height="5.6"/>
	<rect x="123.8" y="77" class="st13" width="5.6" height="5.6"/>
	<rect x="129.4" y="77" class="st13" width="5.6" height="5.6"/>
	<rect x="135" y="77" class="st4" width="5.6" height="5.6"/>
	<rect x="140.5" y="77" class="st14" width="5.6" height="5.6"/>
	<rect x="146.1" y="77" class="st16" width="5.6" height="5.6"/>
	<rect x="151.7" y="77" class="st1" width="5.6" height="5.6"/>
	<rect x="157.2" y="77" class="st0" width="5.6" height="5.6"/>
	<rect x="23.6" y="82.6" class="st0" width="5.6" height="5.6"/>
	<rect x="29.2" y="82.6" class="st1" width="5.6" height="5.6"/>
	<rect x="34.8" y="82.6" class="st17" width="5.6" height="5.6"/>
	<rect x="40.3" y="82.6" class="st17" width="5.6" height="5.6"/>
	<rect x="45.9" y="82.6" class="st15" width="5.6" height="5.6"/>
	<rect x="51.5" y="82.6" class="st15" width="5.6" height="5.6"/>
	<rect x="57" y="82.6" class="st4" width="5.6" height="5.6"/>
	<rect x="62.6" y="82.6" class="st13" width="5.6" height="5.6"/>
	<rect x="68.2" y="82.6" class="st18" width="5.6" height="5.6"/>
	<rect x="73.7" y="82.6" class="st9" width="5.6" height="5.6"/>
	<rect x="79.3" y="82.6" class="st7" width="5.6" height="5.6"/>
	<rect x="84.9" y="82.6" class="st8" width="5.6" height="5.6"/>
	<rect x="90.4" y="82.6" class="st8" width="5.6" height="5.6"/>
	<rect x="96" y="82.6" class="st0" width="5.6" height="5.6"/>
	<rect x="101.6" y="82.6" class="st9" width="5.6" height="5.6"/>
	<rect x="107.1" y="82.6" class="st11" width="5.6" height="5.6"/>
	<rect x="112.7" y="82.6" class="st13" width="5.6" height="5.6"/>
	<rect x="118.3" y="82.6" class="st7" width="5.6" height="5.6"/>
	<rect x="123.8" y="82.6" class="st8" width="5.6" height="5.6"/>
	<rect x="129.4" y="82.6" class="st9" width="5.6" height="5.6"/>
	<rect x="135" y="82.6" class="st14" width="5.6" height="5.6"/>
	<rect x="140.5" y="82.6" class="st16" width="5.6" height="5.6"/>
	<rect x="146.1" y="82.6" class="st19" width="5.6" height="5.6"/>
	<rect x="151.7" y="82.6" class="st1" width="5.6" height="5.6"/>
	<rect x="157.2" y="82.6" class="st0" width="5.6" height="5.6"/>
	<rect x="23.6" y="88.2" class="st0" width="5.6" height="5.6"/>
	<rect x="29.2" y="88.2" class="st1" width="5.6" height="5.6"/>
	<rect x="34.8" y="88.2" class="st17" width="5.6" height="5.6"/>
	<rect x="40.3" y="88.2" class="st20" width="5.6" height="5.6"/>
	<rect x="45.9" y="88.2" class="st20" width="5.6" height="5.6"/>
	<rect x="51.5" y="88.2" class="st17" width="5.6" height="5.6"/>
	<rect x="57" y="88.2" class="st15" width="5.6" height="5.6"/>
	<rect x="62.6" y="88.2" class="st18" width="5.6" height="5.6"/>
	<rect x="68.2" y="88.2" class="st13" width="5.6" height="5.6"/>
	<rect x="73.7" y="88.2" class="st13" width="5.6" height="5.6"/>
	<rect x="79.3" y="88.2" class="st10" width="5.6" height="5.6"/>
	<rect x="84.9" y="88.2" class="st9" width="5.6" height="5.6"/>
	<rect x="90.4" y="88.2" class="st6" width="5.6" height="5.6"/>
	<rect x="96" y="88.2" class="st9" width="5.6" height="5.6"/>
	<rect x="101.6" y="88.2" class="st6" width="5.6" height="5.6"/>
	<rect x="107.1" y="88.2" class="st4" width="5.6" height="5.6"/>
	<rect x="112.7" y="88.2" class="st13" width="5.6" height="5.6"/>
	<rect x="118.3" y="88.2" class="st9" width="5.6" height="5.6"/>
	<rect x="123.8" y="88.2" class="st7" width="5.6" height="5.6"/>
	<rect x="129.4" y="88.2" class="st18" width="5.6" height="5.6"/>
	<rect x="135" y="88.2" class="st16" width="5.6" height="5.6"/>
	<rect x="140.5" y="88.2" class="st19" width="5.6" height="5.6"/>
	<rect x="146.1" y="88.2" class="st19" width="5.6" height="5.6"/>
	<rect x="151.7" y="88.2" class="st16" width="5.6" height="5.6"/>
	<rect x="157.2" y="88.2" class="st13" width="5.6" height="5.6"/>
	<rect x="162.8" y="88.2" class="st0" width="5.6" height="5.6"/>
	<rect x="18.1" y="93.7" class="st0" width="5.6" height="5.6"/>
	<rect x="23.6" y="93.7" class="st21" width="5.6" height="5.6"/>
	<rect x="29.2" y="93.7" class="st10" width="5.6" height="5.6"/>
	<rect x="34.8" y="93.7" class="st17" width="5.6" height="5.6"/>
	<rect x="40.3" y="93.7" class="st20" width="5.6" height="5.6"/>
	<rect x="45.9" y="93.7" class="st20" width="5.6" height="5.6"/>
	<rect x="51.5" y="93.7" class="st20" width="5.6" height="5.6"/>
	<rect x="57" y="93.7" class="st20" width="5.6" height="5.6"/>
	<rect x="62.6" y="93.7" class="st8" width="5.6" height="5.6"/>
	<rect x="68.2" y="93.7" class="st15" width="5.6" height="5.6"/>
	<rect x="73.7" y="93.7" class="st18" width="5.6" height="5.6"/>
	<rect x="79.3" y="93.7" class="st13" width="5.6" height="5.6"/>
	<rect x="84.9" y="93.7" class="st4" width="5.6" height="5.6"/>
	<rect x="90.4" y="93.7" class="st4" width="5.6" height="5.6"/>
	<rect x="96" y="93.7" class="st4" width="5.6" height="5.6"/>
	<rect x="101.6" y="93.7" class="st4" width="5.6" height="5.6"/>
	<rect x="107.1" y="93.7" class="st4" width="5.6" height="5.6"/>
	<rect x="112.7" y="93.7" class="st4" width="5.6" height="5.6"/>
	<rect x="118.3" y="93.7" class="st13" width="5.6" height="5.6"/>
	<rect x="123.8" y="93.7" class="st9" width="5.6" height="5.6"/>
	<rect x="129.4" y="93.7" class="st18" width="5.6" height="5.6"/>
	<rect x="135" y="93.7" class="st19" width="5.6" height="5.6"/>
	<rect x="140.5" y="93.7" class="st19" width="5.6" height="5.6"/>
	<rect x="146.1" y="93.7" class="st19" width="5.6" height="5.6"/>
	<rect x="151.7" y="93.7" class="st16" width="5.6" height="5.6"/>
	<rect x="157.2" y="93.7" class="st22" width="5.6" height="5.6"/>
	<rect x="162.8" y="93.7" class="st13" width="5.6" height="5.6"/>
	<rect x="168.4" y="93.7" class="st0" width="5.6" height="5.6"/>
	<rect x="18.1" y="99.3" class="st0" width="5.6" height="5.6"/>
	<rect x="23.6" y="99.3" class="st21" width="5.6" height="5.6"/>
	<rect x="29.2" y="99.3" class="st10" width="5.6" height="5.6"/>
	<rect x="34.8" y="99.3" class="st17" width="5.6" height="5.6"/>
	<rect x="40.3" y="99.3" class="st20" width="5.6" height="5.6"/>
	<rect x="45.9" y="99.3" class="st20" width="5.6" height="5.6"/>
	<rect x="51.5" y="99.3" class="st20" width="5.6" height="5.6"/>
	<rect x="57" y="99.3" class="st20" width="5.6" height="5.6"/>
	<rect x="62.6" y="99.3" class="st10" width="5.6" height="5.6"/>
	<rect x="68.2" y="99.3" class="st10" width="5.6" height="5.6"/>
	<rect x="73.7" y="99.3" class="st9" width="5.6" height="5.6"/>
	<rect x="79.3" y="99.3" class="st15" width="5.6" height="5.6"/>
	<rect x="84.9" y="99.3" class="st15" width="5.6" height="5.6"/>
	<rect x="90.4" y="99.3" class="st4" width="5.6" height="5.6"/>
	<rect x="96" y="99.3" class="st4" width="5.6" height="5.6"/>
	<rect x="101.6" y="99.3" class="st4" width="5.6" height="5.6"/>
	<rect x="107.1" y="99.3" class="st4" width="5.6" height="5.6"/>
	<rect x="112.7" y="99.3" class="st4" width="5.6" height="5.6"/>
	<rect x="118.3" y="99.3" class="st14" width="5.6" height="5.6"/>
	<rect x="123.8" y="99.3" class="st18" width="5.6" height="5.6"/>
	<rect x="129.4" y="99.3" class="st18" width="5.6" height="5.6"/>
	<rect x="135" y="99.3" class="st19" width="5.6" height="5.6"/>
	<rect x="140.5" y="99.3" class="st19" width="5.6" height="5.6"/>
	<rect x="146.1" y="99.3" class="st19" width="5.6" height="5.6"/>
	<rect x="151.7" y="99.3" class="st16" width="5.6" height="5.6"/>
	<rect x="157.2" y="99.3" class="st22" width="5.6" height="5.6"/>
	<rect x="162.8" y="99.3" class="st13" width="5.6" height="5.6"/>
	<rect x="168.4" y="99.3" class="st0" width="5.6" height="5.6"/>
	<rect x="12.5" y="104.8" class="st0" width="5.6" height="5.6"/>
	<rect x="18.1" y="104.8" class="st13" width="5.6" height="5.6"/>
	<rect x="23.6" y="104.8" class="st23" width="5.6" height="5.6"/>
	<rect x="29.2" y="104.8" class="st21" width="5.6" height="5.6"/>
	<rect x="34.8" y="104.8" class="st17" width="5.6" height="5.6"/>
	<rect x="40.3" y="104.8" class="st20" width="5.6" height="5.6"/>
	<rect x="45.9" y="104.8" class="st20" width="5.6" height="5.6"/>
	<rect x="51.5" y="104.8" class="st20" width="5.6" height="5.6"/>
	<rect x="57" y="104.8" class="st20" width="5.6" height="5.6"/>
	<rect x="62.6" y="104.8" class="st10" width="5.6" height="5.6"/>
	<rect x="68.2" y="104.8" class="st10" width="5.6" height="5.6"/>
	<rect x="73.7" y="104.8" class="st7" width="5.6" height="5.6"/>
	<rect x="79.3" y="104.8" class="st17" width="5.6" height="5.6"/>
	<rect x="84.9" y="104.8" class="st17" width="5.6" height="5.6"/>
	<rect x="90.4" y="104.8" class="st15" width="5.6" height="5.6"/>
	<rect x="96" y="104.8" class="st15" width="5.6" height="5.6"/>
	<rect x="101.6" y="104.8" class="st4" width="5.6" height="5.6"/>
	<rect x="107.1" y="104.8" class="st4" width="5.6" height="5.6"/>
	<rect x="112.7" y="104.8" class="st14" width="5.6" height="5.6"/>
	<rect x="118.3" y="104.8" class="st16" width="5.6" height="5.6"/>
	<rect x="123.8" y="104.8" class="st13" width="5.6" height="5.6"/>
	<rect x="129.4" y="104.8" class="st18" width="5.6" height="5.6"/>
	<rect x="135" y="104.8" class="st19" width="5.6" height="5.6"/>
	<rect x="140.5" y="104.8" class="st19" width="5.6" height="5.6"/>
	<rect x="146.1" y="104.8" class="st19" width="5.6" height="5.6"/>
	<rect x="151.7" y="104.8" class="st16" width="5.6" height="5.6"/>
	<rect x="157.2" y="104.8" class="st23" width="5.6" height="5.6"/>
	<rect x="162.8" y="104.8" class="st23" width="5.6" height="5.6"/>
	<rect x="168.4" y="104.8" class="st13" width="5.6" height="5.6"/>
	<rect x="173.9" y="104.8" class="st0" width="5.6" height="5.6"/>
	<rect x="12.5" y="110.4" class="st0" width="5.6" height="5.6"/>
	<rect x="18.1" y="110.4" class="st21" width="5.6" height="5.6"/>
	<rect x="23.6" y="110.4" class="st8" width="5.6" height="5.6"/>
	<rect x="29.2" y="110.4" class="st23" width="5.6" height="5.6"/>
	<rect x="34.8" y="110.4" class="st10" width="5.6" height="5.6"/>
	<rect x="40.3" y="110.4" class="st10" width="5.6" height="5.6"/>
	<rect x="45.9" y="110.4" class="st20" width="5.6" height="5.6"/>
	<rect x="51.5" y="110.4" class="st20" width="5.6" height="5.6"/>
	<rect x="57" y="110.4" class="st20" width="5.6" height="5.6"/>
	<rect x="62.6" y="110.4" class="st10" width="5.6" height="5.6"/>
	<rect x="68.2" y="110.4" class="st10" width="5.6" height="5.6"/>
	<rect x="73.7" y="110.4" class="st10" width="5.6" height="5.6"/>
	<rect x="79.3" y="110.4" class="st20" width="5.6" height="5.6"/>
	<rect x="84.9" y="110.4" class="st20" width="5.6" height="5.6"/>
	<rect x="90.4" y="110.4" class="st17" width="5.6" height="5.6"/>
	<rect x="96" y="110.4" class="st17" width="5.6" height="5.6"/>
	<rect x="101.6" y="110.4" class="st15" width="5.6" height="5.6"/>
	<rect x="107.1" y="110.4" class="st14" width="5.6" height="5.6"/>
	<rect x="112.7" y="110.4" class="st16" width="5.6" height="5.6"/>
	<rect x="118.3" y="110.4" class="st19" width="5.6" height="5.6"/>
	<rect x="123.8" y="110.4" class="st9" width="5.6" height="5.6"/>
	<rect x="129.4" y="110.4" class="st18" width="5.6" height="5.6"/>
	<rect x="135" y="110.4" class="st19" width="5.6" height="5.6"/>
	<rect x="140.5" y="110.4" class="st19" width="5.6" height="5.6"/>
	<rect x="146.1" y="110.4" class="st16" width="5.6" height="5.6"/>
	<rect x="151.7" y="110.4" class="st22" width="5.6" height="5.6"/>
	<rect x="157.2" y="110.4" class="st23" width="5.6" height="5.6"/>
	<rect x="162.8" y="110.4" class="st23" width="5.6" height="5.6"/>
	<rect x="168.4" y="110.4" class="st13" width="5.6" height="5.6"/>
	<rect x="173.9" y="110.4" class="st0" width="5.6" height="5.6"/>
	<rect x="12.5" y="116" class="st0" width="5.6" height="5.6"/>
	<rect x="18.1" y="116" class="st21" width="5.6" height="5.6"/>
	<rect x="23.6" y="116" class="st8" width="5.6" height="5.6"/>
	<rect x="29.2" y="116" class="st8" width="5.6" height="5.6"/>
	<rect x="34.8" y="116" class="st23" width="5.6" height="5.6"/>
	<rect x="40.3" y="116" class="st23" width="5.6" height="5.6"/>
	<rect x="45.9" y="116" class="st10" width="5.6" height="5.6"/>
	<rect x="51.5" y="116" class="st10" width="5.6" height="5.6"/>
	<rect x="57" y="116" class="st20" width="5.6" height="5.6"/>
	<rect x="62.6" y="116" class="st8" width="5.6" height="5.6"/>
	<rect x="68.2" y="116" class="st10" width="5.6" height="5.6"/>
	<rect x="73.7" y="116" class="st10" width="5.6" height="5.6"/>
	<rect x="79.3" y="116" class="st20" width="5.6" height="5.6"/>
	<rect x="84.9" y="116" class="st20" width="5.6" height="5.6"/>
	<rect x="90.4" y="116" class="st20" width="5.6" height="5.6"/>
	<rect x="96" y="116" class="st20" width="5.6" height="5.6"/>
	<rect x="101.6" y="116" class="st17" width="5.6" height="5.6"/>
	<rect x="107.1" y="116" class="st16" width="5.6" height="5.6"/>
	<rect x="112.7" y="116" class="st19" width="5.6" height="5.6"/>
	<rect x="118.3" y="116" class="st19" width="5.6" height="5.6"/>
	<rect x="123.8" y="116" class="st8" width="5.6" height="5.6"/>
	<rect x="129.4" y="116" class="st18" width="5.6" height="5.6"/>
	<rect x="135" y="116" class="st19" width="5.6" height="5.6"/>
	<rect x="140.5" y="116" class="st16" width="5.6" height="5.6"/>
	<rect x="146.1" y="116" class="st22" width="5.6" height="5.6"/>
	<rect x="151.7" y="116" class="st23" width="5.6" height="5.6"/>
	<rect x="157.2" y="116" class="st23" width="5.6" height="5.6"/>
	<rect x="162.8" y="116" class="st23" width="5.6" height="5.6"/>
	<rect x="168.4" y="116" class="st13" width="5.6" height="5.6"/>
	<rect x="173.9" y="116" class="st0" width="5.6" height="5.6"/>
	<rect x="18.1" y="121.6" class="st0" width="5.6" height="5.6"/>
	<rect x="23.6" y="121.6" class="st21" width="5.6" height="5.6"/>
	<rect x="29.2" y="121.6" class="st8" width="5.6" height="5.6"/>
	<rect x="34.8" y="121.6" class="st8" width="5.6" height="5.6"/>
	<rect x="40.3" y="121.6" class="st8" width="5.6" height="5.6"/>
	<rect x="45.9" y="121.6" class="st23" width="5.6" height="5.6"/>
	<rect x="51.5" y="121.6" class="st23" width="5.6" height="5.6"/>
	<rect x="57" y="121.6" class="st10" width="5.6" height="5.6"/>
	<rect x="62.6" y="121.6" class="st8" width="5.6" height="5.6"/>
	<rect x="68.2" y="121.6" class="st10" width="5.6" height="5.6"/>
	<rect x="73.7" y="121.6" class="st7" width="5.6" height="5.6"/>
	<rect x="79.3" y="121.6" class="st20" width="5.6" height="5.6"/>
	<rect x="84.9" y="121.6" class="st20" width="5.6" height="5.6"/>
	<rect x="90.4" y="121.6" class="st20" width="5.6" height="5.6"/>
	<rect x="96" y="121.6" class="st20" width="5.6" height="5.6"/>
	<rect x="101.6" y="121.6" class="st20" width="5.6" height="5.6"/>
	<rect x="107.1" y="121.6" class="st16" width="5.6" height="5.6"/>
	<rect x="112.7" y="121.6" class="st19" width="5.6" height="5.6"/>
	<rect x="118.3" y="121.6" class="st19" width="5.6" height="5.6"/>
	<rect x="123.8" y="121.6" class="st18" width="5.6" height="5.6"/>
	<rect x="129.4" y="121.6" class="st9" width="5.6" height="5.6"/>
	<rect x="135" y="121.6" class="st16" width="5.6" height="5.6"/>
	<rect x="140.5" y="121.6" class="st22" width="5.6" height="5.6"/>
	<rect x="146.1" y="121.6" class="st23" width="5.6" height="5.6"/>
	<rect x="151.7" y="121.6" class="st23" width="5.6" height="5.6"/>
	<rect x="157.2" y="121.6" class="st23" width="5.6" height="5.6"/>
	<rect x="162.8" y="121.6" class="st13" width="5.6" height="5.6"/>
	<rect x="168.4" y="121.6" class="st0" width="5.6" height="5.6"/>
	<rect x="18.1" y="127.1" class="st0" width="5.6" height="5.6"/>
	<rect x="23.6" y="127.1" class="st21" width="5.6" height="5.6"/>
	<rect x="29.2" y="127.1" class="st8" width="5.6" height="5.6"/>
	<rect x="34.8" y="127.1" class="st8" width="5.6" height="5.6"/>
	<rect x="40.3" y="127.1" class="st8" width="5.6" height="5.6"/>
	<rect x="45.9" y="127.1" class="st8" width="5.6" height="5.6"/>
	<rect x="51.5" y="127.1" class="st8" width="5.6" height="5.6"/>
	<rect x="57" y="127.1" class="st23" width="5.6" height="5.6"/>
	<rect x="62.6" y="127.1" class="st23" width="5.6" height="5.6"/>
	<rect x="68.2" y="127.1" class="st8" width="5.6" height="5.6"/>
	<rect x="73.7" y="127.1" class="st10" width="5.6" height="5.6"/>
	<rect x="79.3" y="127.1" class="st20" width="5.6" height="5.6"/>
	<rect x="84.9" y="127.1" class="st20" width="5.6" height="5.6"/>
	<rect x="90.4" y="127.1" class="st20" width="5.6" height="5.6"/>
	<rect x="96" y="127.1" class="st20" width="5.6" height="5.6"/>
	<rect x="101.6" y="127.1" class="st20" width="5.6" height="5.6"/>
	<rect x="107.1" y="127.1" class="st16" width="5.6" height="5.6"/>
	<rect x="112.7" y="127.1" class="st19" width="5.6" height="5.6"/>
	<rect x="118.3" y="127.1" class="st19" width="5.6" height="5.6"/>
	<rect x="123.8" y="127.1" class="st8" width="5.6" height="5.6"/>
	<rect x="129.4" y="127.1" class="st9" width="5.6" height="5.6"/>
	<rect x="135" y="127.1" class="st22" width="5.6" height="5.6"/>
	<rect x="140.5" y="127.1" class="st23" width="5.6" height="5.6"/>
	<rect x="146.1" y="127.1" class="st23" width="5.6" height="5.6"/>
	<rect x="151.7" y="127.1" class="st23" width="5.6" height="5.6"/>
	<rect x="157.2" y="127.1" class="st23" width="5.6" height="5.6"/>
	<rect x="162.8" y="127.1" class="st13" width="5.6" height="5.6"/>
	<rect x="168.4" y="127.1" class="st0" width="5.6" height="5.6"/>
	<rect x="18.1" y="132.7" class="st0" width="5.6" height="5.6"/>
	<rect x="23.6" y="132.7" class="st13" width="5.6" height="5.6"/>
	<rect x="29.2" y="132.7" class="st8" width="5.6" height="5.6"/>
	<rect x="34.8" y="132.7" class="st8" width="5.6" height="5.6"/>
	<rect x="40.3" y="132.7" class="st8" width="5.6" height="5.6"/>
	<rect x="45.9" y="132.7" class="st8" width="5.6" height="5.6"/>
	<rect x="51.5" y="132.7" class="st8" width="5.6" height="5.6"/>
	<rect x="57" y="132.7" class="st8" width="5.6" height="5.6"/>
	<rect x="62.6" y="132.7" class="st8" width="5.6" height="5.6"/>
	<rect x="68.2" y="132.7" class="st23" width="5.6" height="5.6"/>
	<rect x="73.7" y="132.7" class="st23" width="5.6" height="5.6"/>
	<rect x="79.3" y="132.7" class="st10" width="5.6" height="5.6"/>
	<rect x="84.9" y="132.7" class="st10" width="5.6" height="5.6"/>
	<rect x="90.4" y="132.7" class="st20" width="5.6" height="5.6"/>
	<rect x="96" y="132.7" class="st20" width="5.6" height="5.6"/>
	<rect x="101.6" y="132.7" class="st20" width="5.6" height="5.6"/>
	<rect x="107.1" y="132.7" class="st16" width="5.6" height="5.6"/>
	<rect x="112.7" y="132.7" class="st19" width="5.6" height="5.6"/>
	<rect x="118.3" y="132.7" class="st19" width="5.6" height="5.6"/>
	<rect x="123.8" y="132.7" class="st8" width="5.6" height="5.6"/>
	<rect x="129.4" y="132.7" class="st22" width="5.6" height="5.6"/>
	<rect x="135" y="132.7" class="st23" width="5.6" height="5.6"/>
	<rect x="140.5" y="132.7" class="st23" width="5.6" height="5.6"/>
	<rect x="146.1" y="132.7" class="st23" width="5.6" height="5.6"/>
	<rect x="151.7" y="132.7" class="st23" width="5.6" height="5.6"/>
	<rect x="157.2" y="132.7" class="st23" width="5.6" height="5.6"/>
	<rect x="162.8" y="132.7" class="st13" width="5.6" height="5.6"/>
	<rect x="168.4" y="132.7" class="st0" width="5.6" height="5.6"/>
	<rect x="23.6" y="138.2" class="st0" width="5.6" height="5.6"/>
	<rect x="29.2" y="138.2" class="st21" width="5.6" height="5.6"/>
	<rect x="34.8" y="138.2" class="st13" width="5.6" height="5.6"/>
	<rect x="40.3" y="138.2" class="st8" width="5.6" height="5.6"/>
	<rect x="45.9" y="138.2" class="st8" width="5.6" height="5.6"/>
	<rect x="51.5" y="138.2" class="st8" width="5.6" height="5.6"/>
	<rect x="57" y="138.2" class="st8" width="5.6" height="5.6"/>
	<rect x="62.6" y="138.2" class="st8" width="5.6" height="5.6"/>
	<rect x="68.2" y="138.2" class="st8" width="5.6" height="5.6"/>
	<rect x="73.7" y="138.2" class="st8" width="5.6" height="5.6"/>
	<rect x="79.3" y="138.2" class="st23" width="5.6" height="5.6"/>
	<rect x="84.9" y="138.2" class="st23" width="5.6" height="5.6"/>
	<rect x="90.4" y="138.2" class="st10" width="5.6" height="5.6"/>
	<rect x="96" y="138.2" class="st10" width="5.6" height="5.6"/>
	<rect x="101.6" y="138.2" class="st20" width="5.6" height="5.6"/>
	<rect x="107.1" y="138.2" class="st16" width="5.6" height="5.6"/>
	<rect x="112.7" y="138.2" class="st19" width="5.6" height="5.6"/>
	<rect x="118.3" y="138.2" class="st16" width="5.6" height="5.6"/>
	<rect x="123.8" y="138.2" class="st22" width="5.6" height="5.6"/>
	<rect x="129.4" y="138.2" class="st23" width="5.6" height="5.6"/>
	<rect x="135" y="138.2" class="st23" width="5.6" height="5.6"/>
	<rect x="140.5" y="138.2" class="st23" width="5.6" height="5.6"/>
	<rect x="146.1" y="138.2" class="st23" width="5.6" height="5.6"/>
	<rect x="151.7" y="138.2" class="st13" width="5.6" height="5.6"/>
	<rect x="157.2" y="138.2" class="st13" width="5.6" height="5.6"/>
	<rect x="162.8" y="138.2" class="st0" width="5.6" height="5.6"/>
	<rect x="29.2" y="143.8" class="st0" width="5.6" height="5.6"/>
	<rect x="34.8" y="143.8" class="st0" width="5.6" height="5.6"/>
	<rect x="40.3" y="143.8" class="st21" width="5.6" height="5.6"/>
	<rect x="45.9" y="143.8" class="st21" width="5.6" height="5.6"/>
	<rect x="51.5" y="143.8" class="st8" width="5.6" height="5.6"/>
	<rect x="57" y="143.8" class="st8" width="5.6" height="5.6"/>
	<rect x="62.6" y="143.8" class="st8" width="5.6" height="5.6"/>
	<rect x="68.2" y="143.8" class="st8" width="5.6" height="5.6"/>
	<rect x="73.7" y="143.8" class="st8" width="5.6" height="5.6"/>
	<rect x="79.3" y="143.8" class="st8" width="5.6" height="5.6"/>
	<rect x="84.9" y="143.8" class="st8" width="5.6" height="5.6"/>
	<rect x="90.4" y="143.8" class="st23" width="5.6" height="5.6"/>
	<rect x="96" y="143.8" class="st23" width="5.6" height="5.6"/>
	<rect x="101.6" y="143.8" class="st10" width="5.6" height="5.6"/>
	<rect x="107.1" y="143.8" class="st16" width="5.6" height="5.6"/>
	<rect x="112.7" y="143.8" class="st16" width="5.6" height="5.6"/>
	<rect x="118.3" y="143.8" class="st22" width="5.6" height="5.6"/>
	<rect x="123.8" y="143.8" class="st23" width="5.6" height="5.6"/>
	<rect x="129.4" y="143.8" class="st23" width="5.6" height="5.6"/>
	<rect x="135" y="143.8" class="st23" width="5.6" height="5.6"/>
	<rect x="140.5" y="143.8" class="st13" width="5.6" height="5.6"/>
	<rect x="146.1" y="143.8" class="st13" width="5.6" height="5.6"/>
	<rect x="151.7" y="143.8" class="st0" width="5.6" height="5.6"/>
	<rect x="157.2" y="143.8" class="st0" width="5.6" height="5.6"/>
	<rect x="40.3" y="149.4" class="st0" width="5.6" height="5.6"/>
	<rect x="45.9" y="149.4" class="st0" width="5.6" height="5.6"/>
	<rect x="51.5" y="149.4" class="st21" width="5.6" height="5.6"/>
	<rect x="57" y="149.4" class="st8" width="5.6" height="5.6"/>
	<rect x="62.6" y="149.4" class="st8" width="5.6" height="5.6"/>
	<rect x="68.2" y="149.4" class="st8" width="5.6" height="5.6"/>
	<rect x="73.7" y="149.4" class="st8" width="5.6" height="5.6"/>
	<rect x="79.3" y="149.4" class="st8" width="5.6" height="5.6"/>
	<rect x="84.9" y="149.4" class="st8" width="5.6" height="5.6"/>
	<rect x="90.4" y="149.4" class="st8" width="5.6" height="5.6"/>
	<rect x="96" y="149.4" class="st8" width="5.6" height="5.6"/>
	<rect x="101.6" y="149.4" class="st23" width="5.6" height="5.6"/>
	<rect x="107.1" y="149.4" class="st23" width="5.6" height="5.6"/>
	<rect x="112.7" y="149.4" class="st23" width="5.6" height="5.6"/>
	<rect x="118.3" y="149.4" class="st23" width="5.6" height="5.6"/>
	<rect x="123.8" y="149.4" class="st23" width="5.6" height="5.6"/>
	<rect x="129.4" y="149.4" class="st8" width="5.6" height="5.6"/>
	<rect x="135" y="149.4" class="st13" width="5.6" height="5.6"/>
	<rect x="140.5" y="149.4" class="st0" width="5.6" height="5.6"/>
	<rect x="146.1" y="149.4" class="st0" width="5.6" height="5.6"/>
	<rect x="51.5" y="154.9" class="st0" width="5.6" height="5.6"/>
	<rect x="57" y="154.9" class="st21" width="5.6" height="5.6"/>
	<rect x="62.6" y="154.9" class="st13" width="5.6" height="5.6"/>
	<rect x="68.2" y="154.9" class="st8" width="5.6" height="5.6"/>
	<rect x="73.7" y="154.9" class="st8" width="5.6" height="5.6"/>
	<rect x="79.3" y="154.9" class="st8" width="5.6" height="5.6"/>
	<rect x="84.9" y="154.9" class="st8" width="5.6" height="5.6"/>
	<rect x="90.4" y="154.9" class="st8" width="5.6" height="5.6"/>
	<rect x="96" y="154.9" class="st8" width="5.6" height="5.6"/>
	<rect x="101.6" y="154.9" class="st8" width="5.6" height="5.6"/>
	<rect x="107.1" y="154.9" class="st8" width="5.6" height="5.6"/>
	<rect x="112.7" y="154.9" class="st8" width="5.6" height="5.6"/>
	<rect x="118.3" y="154.9" class="st8" width="5.6" height="5.6"/>
	<rect x="123.8" y="154.9" class="st13" width="5.6" height="5.6"/>
	<rect x="129.4" y="154.9" class="st13" width="5.6" height="5.6"/>
	<rect x="135" y="154.9" class="st0" width="5.6" height="5.6"/>
	<rect x="57" y="160.5" class="st0" width="5.6" height="5.6"/>
	<rect x="62.6" y="160.5" class="st0" width="5.6" height="5.6"/>
	<rect x="68.2" y="160.5" class="st21" width="5.6" height="5.6"/>
	<rect x="73.7" y="160.5" class="st21" width="5.6" height="5.6"/>
	<rect x="79.3" y="160.5" class="st21" width="5.6" height="5.6"/>
	<rect x="84.9" y="160.5" class="st21" width="5.6" height="5.6"/>
	<rect x="90.4" y="160.5" class="st21" width="5.6" height="5.6"/>
	<rect x="96" y="160.5" class="st13" width="5.6" height="5.6"/>
	<rect x="101.6" y="160.5" class="st13" width="5.6" height="5.6"/>
	<rect x="107.1" y="160.5" class="st13" width="5.6" height="5.6"/>
	<rect x="112.7" y="160.5" class="st13" width="5.6" height="5.6"/>
	<rect x="118.3" y="160.5" class="st13" width="5.6" height="5.6"/>
	<rect x="123.8" y="160.5" class="st0" width="5.6" height="5.6"/>
	<rect x="129.4" y="160.5" class="st0" width="5.6" height="5.6"/>
	<rect x="68.2" y="166.1" class="st0" width="5.6" height="5.6"/>
	<rect x="73.7" y="166.1" class="st0" width="5.6" height="5.6"/>
	<rect x="79.3" y="166.1" class="st0" width="5.6" height="5.6"/>
	<rect x="84.9" y="166.1" class="st0" width="5.6" height="5.6"/>
	<rect x="90.4" y="166.1" class="st0" width="5.6" height="5.6"/>
	<rect x="96" y="166.1" class="st0" width="5.6" height="5.6"/>
	<rect x="101.6" y="166.1" class="st0" width="5.6" height="5.6"/>
	<rect x="107.1" y="166.1" class="st0" width="5.6" height="5.6"/>
	<rect x="112.7" y="166.1" class="st0" width="5.6" height="5.6"/>
	<rect x="118.3" y="166.1" class="st0" width="5.6" height="5.6"/>
</g>
</svg>
