<?xml version="1.0" encoding="UTF-8"?><svg id="Layer_1" xmlns="http://www.w3.org/2000/svg" viewBox="0 0 500 430"><defs><style>.cls-1,.cls-2{stroke:#914938;stroke-miterlimit:10;stroke-width:2px;}.cls-1,.cls-3{fill:#914938;}.cls-4{fill:#f4ebd4;font-family:Roboto-Bold, Roboto;font-size:20.36px;font-weight:700;}.cls-2{fill:none;}.cls-3{stroke-width:0px;}</style></defs><path class="cls-3" d="m97.67,148.83c8.28-1.8,20.16-5.04,37.08-10.44,63.72-20.52,120.6-34.56,160.2-34.56,60.48,0,111.96,29.88,111.96,105.48,0,89.28-88.2,123.84-209.88,136.08-1.08-5.4-5.76-18-9.36-24.48,111.24-10.44,191.16-40.68,191.16-110.16,0-56.52-38.88-81-86.4-81-51.48,0-144,29.88-176.76,43.92,0,3.6-3.24,7.2-6.48,8.28l-11.52-33.12Z"/><line class="cls-2" x1="119.76" y1="128" x2="197.19" y2="104.94"/><circle class="cls-1" cx="109.18" cy="100.71" r="16.1"/><text class="cls-4" transform="translate(103.34 108.02)"><tspan x="0" y="0">1</tspan></text><polygon class="cls-1" points="194.08 105.79 192.67 101.25 198.97 101.78 205.27 102.3 200.39 106.31 195.5 110.32 194.08 105.79"/></svg>