<?xml version="1.0" encoding="UTF-8"?>
<svg xmlns="http://www.w3.org/2000/svg" version="1.1" viewBox="0 0 192 192">
  <!-- Generator: Adobe Illustrator 29.6.1, SVG Export Plug-In . SVG Version: 2.1.1 Build 9)  -->
  <defs>
    <style>
      .st0 {
        fill: #e36c74;
      }

      .st1 {
        fill: #1f649b;
      }

      .st2 {
        fill: #8d5386;
      }

      .st3 {
        fill: #c73d62;
      }

      .st4 {
        fill: #71afe3;
      }

      .st5 {
        fill: #330e30;
      }

      .st6 {
        fill: #bde1eb;
      }

      .st7 {
        fill: #733c81;
      }

      .st8 {
        fill: #fff;
      }

      .st9 {
        fill: #eb97a7;
      }

      .st10 {
        fill: #5d1548;
      }

      .st11 {
        fill: #283c82;
      }

      .st12 {
        fill: #490c37;
      }

      .st13 {
        fill: #ed9392;
      }

      .st14 {
        fill: #435ba3;
      }
    </style>
  </defs>
  <g id="Layer_1" shape-rendering="crispEdges">
    <g>
      <rect class="st9" x="30" y="12" width="6" height="6"/>
      <rect class="st9" x="36" y="12" width="6" height="6"/>
      <rect class="st9" x="42" y="12" width="6" height="6"/>
      <rect class="st9" x="48" y="12" width="6" height="6"/>
      <rect class="st9" x="54" y="12" width="6" height="6"/>
      <rect class="st9" x="60" y="12" width="6" height="6"/>
      <rect class="st9" x="66" y="12" width="6" height="6"/>
      <rect class="st9" x="102" y="12" width="6" height="6"/>
      <rect class="st9" x="108" y="12" width="6" height="6"/>
      <rect class="st9" x="114" y="12" width="6" height="6"/>
      <rect class="st9" x="120" y="12" width="6" height="6"/>
      <rect class="st9" x="126" y="12" width="6" height="6"/>
      <rect class="st9" y="18" width="6" height="6"/>
      <rect class="st9" x="24" y="18" width="6" height="6"/>
      <rect class="st2" x="30" y="18" width="6" height="6"/>
      <rect class="st2" x="36" y="18" width="6" height="6"/>
      <rect class="st2" x="42" y="18" width="6" height="6"/>
      <rect class="st2" x="48" y="18" width="6" height="6"/>
      <rect class="st2" x="54" y="18" width="6" height="6"/>
      <rect class="st2" x="60" y="18" width="6" height="6"/>
      <rect class="st2" x="66" y="18" width="6" height="6"/>
      <rect class="st9" x="72" y="18" width="6" height="6"/>
      <rect class="st9" x="96" y="18" width="6" height="6"/>
      <rect class="st11" x="102" y="18" width="6" height="6"/>
      <rect class="st11" x="108" y="18" width="6" height="6"/>
      <rect class="st11" x="114" y="18" width="6" height="6"/>
      <rect class="st11" x="120" y="18" width="6" height="6"/>
      <rect class="st11" x="126" y="18" width="6" height="6"/>
      <rect class="st9" x="132" y="18" width="6" height="6"/>
      <rect class="st11" y="24" width="6" height="6"/>
      <rect class="st9" x="6" y="24" width="6" height="6"/>
      <rect class="st9" x="18" y="24" width="6" height="6"/>
      <rect class="st2" x="24" y="24" width="6" height="6"/>
      <rect class="st8" x="30" y="24" width="6" height="6"/>
      <rect class="st8" x="36" y="24" width="6" height="6"/>
      <rect class="st8" x="42" y="24" width="6" height="6"/>
      <rect class="st2" x="48" y="24" width="6" height="6"/>
      <rect class="st10" x="54" y="24" width="6" height="6"/>
      <rect class="st10" x="60" y="24" width="6" height="6"/>
      <rect class="st10" x="66" y="24" width="6" height="6"/>
      <rect class="st2" x="72" y="24" width="6" height="6"/>
      <rect class="st9" x="78" y="24" width="6" height="6"/>
      <rect class="st9" x="90" y="24" width="6" height="6"/>
      <rect class="st11" x="96" y="24" width="6" height="6"/>
      <rect class="st13" x="102" y="24" width="6" height="6"/>
      <rect class="st0" x="108" y="24" width="6" height="6"/>
      <rect class="st13" x="114" y="24" width="6" height="6"/>
      <rect class="st11" x="120" y="24" width="6" height="6"/>
      <rect class="st14" x="126" y="24" width="6" height="6"/>
      <rect class="st11" x="132" y="24" width="6" height="6"/>
      <rect class="st9" x="138" y="24" width="6" height="6"/>
      <rect class="st9" x="144" y="24" width="6" height="6"/>
      <rect class="st9" x="180" y="24" width="6" height="6"/>
      <rect class="st11" y="30" width="6" height="6"/>
      <rect class="st9" x="6" y="30" width="6" height="6"/>
      <rect class="st9" x="18" y="30" width="6" height="6"/>
      <rect class="st2" x="24" y="30" width="6" height="6"/>
      <rect class="st8" x="30" y="30" width="6" height="6"/>
      <rect class="st8" x="36" y="30" width="6" height="6"/>
      <rect class="st8" x="42" y="30" width="6" height="6"/>
      <rect class="st2" x="48" y="30" width="6" height="6"/>
      <rect class="st10" x="54" y="30" width="6" height="6"/>
      <rect class="st12" x="60" y="30" width="6" height="6"/>
      <rect class="st10" x="66" y="30" width="6" height="6"/>
      <rect class="st2" x="72" y="30" width="6" height="6"/>
      <rect class="st9" x="78" y="30" width="6" height="6"/>
      <rect class="st9" x="90" y="30" width="6" height="6"/>
      <rect class="st11" x="96" y="30" width="6" height="6"/>
      <rect class="st0" x="102" y="30" width="6" height="6"/>
      <rect class="st13" x="108" y="30" width="6" height="6"/>
      <rect class="st0" x="114" y="30" width="6" height="6"/>
      <rect class="st11" x="120" y="30" width="6" height="6"/>
      <rect class="st14" x="126" y="30" width="6" height="6"/>
      <rect class="st14" x="132" y="30" width="6" height="6"/>
      <rect class="st11" x="138" y="30" width="6" height="6"/>
      <rect class="st11" x="144" y="30" width="6" height="6"/>
      <rect class="st9" x="150" y="30" width="6" height="6"/>
      <rect class="st9" x="174" y="30" width="6" height="6"/>
      <rect class="st11" x="180" y="30" width="6" height="6"/>
      <rect class="st9" x="186" y="30" width="6" height="6"/>
      <rect class="st14" y="36" width="6" height="6"/>
      <rect class="st11" x="6" y="36" width="6" height="6"/>
      <rect class="st9" x="12" y="36" width="6" height="6"/>
      <rect class="st7" x="18" y="36" width="6" height="6"/>
      <rect class="st8" x="24" y="36" width="6" height="6"/>
      <rect class="st8" x="30" y="36" width="6" height="6"/>
      <rect class="st3" x="36" y="36" width="6" height="6"/>
      <rect class="st8" x="42" y="36" width="6" height="6"/>
      <rect class="st8" x="48" y="36" width="6" height="6"/>
      <rect class="st7" x="54" y="36" width="6" height="6"/>
      <rect class="st10" x="60" y="36" width="6" height="6"/>
      <rect class="st12" x="66" y="36" width="6" height="6"/>
      <rect class="st10" x="72" y="36" width="6" height="6"/>
      <rect class="st7" x="78" y="36" width="6" height="6"/>
      <rect class="st9" x="84" y="36" width="6" height="6"/>
      <rect class="st11" x="90" y="36" width="6" height="6"/>
      <rect class="st13" x="96" y="36" width="6" height="6"/>
      <rect class="st0" x="102" y="36" width="6" height="6"/>
      <rect class="st13" x="108" y="36" width="6" height="6"/>
      <rect class="st0" x="114" y="36" width="6" height="6"/>
      <rect class="st13" x="120" y="36" width="6" height="6"/>
      <rect class="st11" x="126" y="36" width="6" height="6"/>
      <rect class="st14" x="132" y="36" width="6" height="6"/>
      <rect class="st14" x="138" y="36" width="6" height="6"/>
      <rect class="st14" x="144" y="36" width="6" height="6"/>
      <rect class="st11" x="150" y="36" width="6" height="6"/>
      <rect class="st9" x="156" y="36" width="6" height="6"/>
      <rect class="st9" x="168" y="36" width="6" height="6"/>
      <rect class="st11" x="174" y="36" width="6" height="6"/>
      <rect class="st11" x="180" y="36" width="6" height="6"/>
      <rect class="st9" x="186" y="36" width="6" height="6"/>
      <rect class="st14" y="42" width="6" height="6"/>
      <rect class="st11" x="6" y="42" width="6" height="6"/>
      <rect class="st9" x="12" y="42" width="6" height="6"/>
      <rect class="st7" x="18" y="42" width="6" height="6"/>
      <rect class="st8" x="24" y="42" width="6" height="6"/>
      <rect class="st0" x="30" y="42" width="6" height="6"/>
      <rect class="st0" x="36" y="42" width="6" height="6"/>
      <rect class="st3" x="42" y="42" width="6" height="6"/>
      <rect class="st8" x="48" y="42" width="6" height="6"/>
      <rect class="st7" x="54" y="42" width="6" height="6"/>
      <rect class="st12" x="60" y="42" width="6" height="6"/>
      <rect class="st10" x="66" y="42" width="6" height="6"/>
      <rect class="st12" x="72" y="42" width="6" height="6"/>
      <rect class="st7" x="78" y="42" width="6" height="6"/>
      <rect class="st9" x="84" y="42" width="6" height="6"/>
      <rect class="st11" x="90" y="42" width="6" height="6"/>
      <rect class="st0" x="96" y="42" width="6" height="6"/>
      <rect class="st13" x="102" y="42" width="6" height="6"/>
      <rect class="st0" x="108" y="42" width="6" height="6"/>
      <rect class="st13" x="114" y="42" width="6" height="6"/>
      <rect class="st0" x="120" y="42" width="6" height="6"/>
      <rect class="st11" x="126" y="42" width="6" height="6"/>
      <rect class="st4" x="132" y="42" width="6" height="6"/>
      <rect class="st4" x="138" y="42" width="6" height="6"/>
      <rect class="st14" x="144" y="42" width="6" height="6"/>
      <rect class="st14" x="150" y="42" width="6" height="6"/>
      <rect class="st11" x="156" y="42" width="6" height="6"/>
      <rect class="st9" x="162" y="42" width="6" height="6"/>
      <rect class="st11" x="168" y="42" width="6" height="6"/>
      <rect class="st14" x="174" y="42" width="6" height="6"/>
      <rect class="st11" x="180" y="42" width="6" height="6"/>
      <rect class="st9" x="186" y="42" width="6" height="6"/>
      <rect class="st4" y="48" width="6" height="6"/>
      <rect class="st11" x="6" y="48" width="6" height="6"/>
      <rect class="st9" x="12" y="48" width="6" height="6"/>
      <rect class="st7" x="18" y="48" width="6" height="6"/>
      <rect class="st8" x="24" y="48" width="6" height="6"/>
      <rect class="st0" x="30" y="48" width="6" height="6"/>
      <rect class="st0" x="36" y="48" width="6" height="6"/>
      <rect class="st3" x="42" y="48" width="6" height="6"/>
      <rect class="st8" x="48" y="48" width="6" height="6"/>
      <rect class="st7" x="54" y="48" width="6" height="6"/>
      <rect class="st12" x="60" y="48" width="6" height="6"/>
      <rect class="st12" x="66" y="48" width="6" height="6"/>
      <rect class="st12" x="72" y="48" width="6" height="6"/>
      <rect class="st7" x="78" y="48" width="6" height="6"/>
      <rect class="st9" x="84" y="48" width="6" height="6"/>
      <rect class="st11" x="90" y="48" width="6" height="6"/>
      <rect class="st0" x="96" y="48" width="6" height="6"/>
      <rect class="st13" x="102" y="48" width="6" height="6"/>
      <rect class="st8" x="108" y="48" width="6" height="6"/>
      <rect class="st13" x="114" y="48" width="6" height="6"/>
      <rect class="st0" x="120" y="48" width="6" height="6"/>
      <rect class="st11" x="126" y="48" width="6" height="6"/>
      <rect class="st4" x="132" y="48" width="6" height="6"/>
      <rect class="st4" x="138" y="48" width="6" height="6"/>
      <rect class="st4" x="144" y="48" width="6" height="6"/>
      <rect class="st4" x="150" y="48" width="6" height="6"/>
      <rect class="st4" x="156" y="48" width="6" height="6"/>
      <rect class="st11" x="162" y="48" width="6" height="6"/>
      <rect class="st14" x="168" y="48" width="6" height="6"/>
      <rect class="st11" x="174" y="48" width="6" height="6"/>
      <rect class="st9" x="180" y="48" width="6" height="6"/>
      <rect class="st4" y="54" width="6" height="6"/>
      <rect class="st11" x="6" y="54" width="6" height="6"/>
      <rect class="st9" x="12" y="54" width="6" height="6"/>
      <rect class="st7" x="18" y="54" width="6" height="6"/>
      <rect class="st8" x="24" y="54" width="6" height="6"/>
      <rect class="st0" x="30" y="54" width="6" height="6"/>
      <rect class="st0" x="36" y="54" width="6" height="6"/>
      <rect class="st3" x="42" y="54" width="6" height="6"/>
      <rect class="st8" x="48" y="54" width="6" height="6"/>
      <rect class="st7" x="54" y="54" width="6" height="6"/>
      <rect class="st5" x="60" y="54" width="6" height="6"/>
      <rect class="st12" x="66" y="54" width="6" height="6"/>
      <rect class="st5" x="72" y="54" width="6" height="6"/>
      <rect class="st7" x="78" y="54" width="6" height="6"/>
      <rect class="st9" x="84" y="54" width="6" height="6"/>
      <rect class="st11" x="90" y="54" width="6" height="6"/>
      <rect class="st13" x="96" y="54" width="6" height="6"/>
      <rect class="st0" x="102" y="54" width="6" height="6"/>
      <rect class="st8" x="108" y="54" width="6" height="6"/>
      <rect class="st0" x="114" y="54" width="6" height="6"/>
      <rect class="st13" x="120" y="54" width="6" height="6"/>
      <rect class="st11" x="126" y="54" width="6" height="6"/>
      <rect class="st6" x="132" y="54" width="6" height="6"/>
      <rect class="st6" x="138" y="54" width="6" height="6"/>
      <rect class="st6" x="144" y="54" width="6" height="6"/>
      <rect class="st6" x="150" y="54" width="6" height="6"/>
      <rect class="st6" x="156" y="54" width="6" height="6"/>
      <rect class="st1" x="162" y="54" width="6" height="6"/>
      <rect class="st4" x="168" y="54" width="6" height="6"/>
      <rect class="st1" x="174" y="54" width="6" height="6"/>
      <rect class="st9" x="180" y="54" width="6" height="6"/>
      <rect class="st6" y="60" width="6" height="6"/>
      <rect class="st1" x="6" y="60" width="6" height="6"/>
      <rect class="st9" x="12" y="60" width="6" height="6"/>
      <rect class="st7" x="18" y="60" width="6" height="6"/>
      <rect class="st8" x="24" y="60" width="6" height="6"/>
      <rect class="st0" x="30" y="60" width="6" height="6"/>
      <rect class="st0" x="36" y="60" width="6" height="6"/>
      <rect class="st3" x="42" y="60" width="6" height="6"/>
      <rect class="st8" x="48" y="60" width="6" height="6"/>
      <rect class="st7" x="54" y="60" width="6" height="6"/>
      <rect class="st12" x="60" y="60" width="6" height="6"/>
      <rect class="st5" x="66" y="60" width="6" height="6"/>
      <rect class="st12" x="72" y="60" width="6" height="6"/>
      <rect class="st7" x="78" y="60" width="6" height="6"/>
      <rect class="st9" x="84" y="60" width="6" height="6"/>
      <rect class="st1" x="90" y="60" width="6" height="6"/>
      <rect class="st0" x="96" y="60" width="6" height="6"/>
      <rect class="st13" x="102" y="60" width="6" height="6"/>
      <rect class="st0" x="108" y="60" width="6" height="6"/>
      <rect class="st13" x="114" y="60" width="6" height="6"/>
      <rect class="st0" x="120" y="60" width="6" height="6"/>
      <rect class="st1" x="126" y="60" width="6" height="6"/>
      <rect class="st6" x="132" y="60" width="6" height="6"/>
      <rect class="st6" x="138" y="60" width="6" height="6"/>
      <rect class="st4" x="144" y="60" width="6" height="6"/>
      <rect class="st6" x="150" y="60" width="6" height="6"/>
      <rect class="st1" x="156" y="60" width="6" height="6"/>
      <rect class="st9" x="162" y="60" width="6" height="6"/>
      <rect class="st1" x="168" y="60" width="6" height="6"/>
      <rect class="st4" x="174" y="60" width="6" height="6"/>
      <rect class="st1" x="180" y="60" width="6" height="6"/>
      <rect class="st9" x="186" y="60" width="6" height="6"/>
      <rect class="st6" y="66" width="6" height="6"/>
      <rect class="st1" x="6" y="66" width="6" height="6"/>
      <rect class="st9" x="12" y="66" width="6" height="6"/>
      <rect class="st7" x="18" y="66" width="6" height="6"/>
      <rect class="st8" x="24" y="66" width="6" height="6"/>
      <rect class="st8" x="30" y="66" width="6" height="6"/>
      <rect class="st3" x="36" y="66" width="6" height="6"/>
      <rect class="st8" x="42" y="66" width="6" height="6"/>
      <rect class="st8" x="48" y="66" width="6" height="6"/>
      <rect class="st7" x="54" y="66" width="6" height="6"/>
      <rect class="st5" x="60" y="66" width="6" height="6"/>
      <rect class="st12" x="66" y="66" width="6" height="6"/>
      <rect class="st5" x="72" y="66" width="6" height="6"/>
      <rect class="st7" x="78" y="66" width="6" height="6"/>
      <rect class="st9" x="84" y="66" width="6" height="6"/>
      <rect class="st1" x="90" y="66" width="6" height="6"/>
      <rect class="st13" x="96" y="66" width="6" height="6"/>
      <rect class="st0" x="102" y="66" width="6" height="6"/>
      <rect class="st0" x="108" y="66" width="6" height="6"/>
      <rect class="st0" x="114" y="66" width="6" height="6"/>
      <rect class="st13" x="120" y="66" width="6" height="6"/>
      <rect class="st1" x="126" y="66" width="6" height="6"/>
      <rect class="st4" x="132" y="66" width="6" height="6"/>
      <rect class="st6" x="138" y="66" width="6" height="6"/>
      <rect class="st6" x="144" y="66" width="6" height="6"/>
      <rect class="st1" x="150" y="66" width="6" height="6"/>
      <rect class="st9" x="156" y="66" width="6" height="6"/>
      <rect class="st9" x="168" y="66" width="6" height="6"/>
      <rect class="st1" x="174" y="66" width="6" height="6"/>
      <rect class="st1" x="180" y="66" width="6" height="6"/>
      <rect class="st9" x="186" y="66" width="6" height="6"/>
      <rect class="st1" y="72" width="6" height="6"/>
      <rect class="st9" x="6" y="72" width="6" height="6"/>
      <rect class="st9" x="18" y="72" width="6" height="6"/>
      <rect class="st7" x="24" y="72" width="6" height="6"/>
      <rect class="st8" x="30" y="72" width="6" height="6"/>
      <rect class="st8" x="36" y="72" width="6" height="6"/>
      <rect class="st8" x="42" y="72" width="6" height="6"/>
      <rect class="st7" x="48" y="72" width="6" height="6"/>
      <rect class="st5" x="54" y="72" width="6" height="6"/>
      <rect class="st5" x="60" y="72" width="6" height="6"/>
      <rect class="st5" x="66" y="72" width="6" height="6"/>
      <rect class="st7" x="72" y="72" width="6" height="6"/>
      <rect class="st9" x="78" y="72" width="6" height="6"/>
      <rect class="st9" x="90" y="72" width="6" height="6"/>
      <rect class="st1" x="96" y="72" width="6" height="6"/>
      <rect class="st13" x="102" y="72" width="6" height="6"/>
      <rect class="st0" x="108" y="72" width="6" height="6"/>
      <rect class="st13" x="114" y="72" width="6" height="6"/>
      <rect class="st1" x="120" y="72" width="6" height="6"/>
      <rect class="st6" x="126" y="72" width="6" height="6"/>
      <rect class="st6" x="132" y="72" width="6" height="6"/>
      <rect class="st1" x="138" y="72" width="6" height="6"/>
      <rect class="st1" x="144" y="72" width="6" height="6"/>
      <rect class="st9" x="150" y="72" width="6" height="6"/>
      <rect class="st9" x="174" y="72" width="6" height="6"/>
      <rect class="st1" x="180" y="72" width="6" height="6"/>
      <rect class="st9" x="186" y="72" width="6" height="6"/>
      <rect class="st1" y="78" width="6" height="6"/>
      <rect class="st9" x="6" y="78" width="6" height="6"/>
      <rect class="st9" x="18" y="78" width="6" height="6"/>
      <rect class="st7" x="24" y="78" width="6" height="6"/>
      <rect class="st8" x="30" y="78" width="6" height="6"/>
      <rect class="st8" x="36" y="78" width="6" height="6"/>
      <rect class="st8" x="42" y="78" width="6" height="6"/>
      <rect class="st7" x="48" y="78" width="6" height="6"/>
      <rect class="st5" x="54" y="78" width="6" height="6"/>
      <rect class="st5" x="60" y="78" width="6" height="6"/>
      <rect class="st5" x="66" y="78" width="6" height="6"/>
      <rect class="st7" x="72" y="78" width="6" height="6"/>
      <rect class="st9" x="78" y="78" width="6" height="6"/>
      <rect class="st9" x="90" y="78" width="6" height="6"/>
      <rect class="st1" x="96" y="78" width="6" height="6"/>
      <rect class="st0" x="102" y="78" width="6" height="6"/>
      <rect class="st13" x="108" y="78" width="6" height="6"/>
      <rect class="st0" x="114" y="78" width="6" height="6"/>
      <rect class="st1" x="120" y="78" width="6" height="6"/>
      <rect class="st4" x="126" y="78" width="6" height="6"/>
      <rect class="st1" x="132" y="78" width="6" height="6"/>
      <rect class="st9" x="138" y="78" width="6" height="6"/>
      <rect class="st9" x="144" y="78" width="6" height="6"/>
      <rect class="st9" x="180" y="78" width="6" height="6"/>
      <rect class="st9" y="84" width="6" height="6"/>
      <rect class="st9" x="24" y="84" width="6" height="6"/>
      <rect class="st7" x="30" y="84" width="6" height="6"/>
      <rect class="st7" x="36" y="84" width="6" height="6"/>
      <rect class="st7" x="42" y="84" width="6" height="6"/>
      <rect class="st7" x="48" y="84" width="6" height="6"/>
      <rect class="st7" x="54" y="84" width="6" height="6"/>
      <rect class="st7" x="60" y="84" width="6" height="6"/>
      <rect class="st7" x="66" y="84" width="6" height="6"/>
      <rect class="st9" x="72" y="84" width="6" height="6"/>
      <rect class="st9" x="96" y="84" width="6" height="6"/>
      <rect class="st1" x="102" y="84" width="6" height="6"/>
      <rect class="st1" x="108" y="84" width="6" height="6"/>
      <rect class="st1" x="114" y="84" width="6" height="6"/>
      <rect class="st1" x="120" y="84" width="6" height="6"/>
      <rect class="st1" x="126" y="84" width="6" height="6"/>
      <rect class="st9" x="132" y="84" width="6" height="6"/>
      <rect class="st9" x="30" y="90" width="6" height="6"/>
      <rect class="st9" x="36" y="90" width="6" height="6"/>
      <rect class="st9" x="42" y="90" width="6" height="6"/>
      <rect class="st9" x="48" y="90" width="6" height="6"/>
      <rect class="st9" x="54" y="90" width="6" height="6"/>
      <rect class="st9" x="60" y="90" width="6" height="6"/>
      <rect class="st9" x="66" y="90" width="6" height="6"/>
      <rect class="st9" x="102" y="90" width="6" height="6"/>
      <rect class="st9" x="108" y="90" width="6" height="6"/>
      <rect class="st9" x="114" y="90" width="6" height="6"/>
      <rect class="st9" x="120" y="90" width="6" height="6"/>
      <rect class="st9" x="126" y="90" width="6" height="6"/>
      <rect class="st9" x="48" y="96" width="6" height="6"/>
      <rect class="st9" x="54" y="96" width="6" height="6"/>
      <rect class="st9" x="60" y="96" width="6" height="6"/>
      <rect class="st9" x="66" y="96" width="6" height="6"/>
      <rect class="st9" x="102" y="96" width="6" height="6"/>
      <rect class="st9" x="108" y="96" width="6" height="6"/>
      <rect class="st9" x="114" y="96" width="6" height="6"/>
      <rect class="st9" x="120" y="96" width="6" height="6"/>
      <rect class="st9" x="126" y="96" width="6" height="6"/>
      <rect class="st9" x="132" y="96" width="6" height="6"/>
      <rect class="st9" x="138" y="96" width="6" height="6"/>
      <rect class="st9" x="174" y="96" width="6" height="6"/>
      <rect class="st9" x="180" y="96" width="6" height="6"/>
      <rect class="st9" x="186" y="96" width="6" height="6"/>
      <rect class="st9" x="36" y="102" width="6" height="6"/>
      <rect class="st9" x="42" y="102" width="6" height="6"/>
      <rect class="st11" x="48" y="102" width="6" height="6"/>
      <rect class="st11" x="54" y="102" width="6" height="6"/>
      <rect class="st11" x="60" y="102" width="6" height="6"/>
      <rect class="st11" x="66" y="102" width="6" height="6"/>
      <rect class="st9" x="72" y="102" width="6" height="6"/>
      <rect class="st9" x="96" y="102" width="6" height="6"/>
      <rect class="st2" x="102" y="102" width="6" height="6"/>
      <rect class="st2" x="108" y="102" width="6" height="6"/>
      <rect class="st2" x="114" y="102" width="6" height="6"/>
      <rect class="st2" x="120" y="102" width="6" height="6"/>
      <rect class="st2" x="126" y="102" width="6" height="6"/>
      <rect class="st2" x="132" y="102" width="6" height="6"/>
      <rect class="st2" x="138" y="102" width="6" height="6"/>
      <rect class="st9" x="144" y="102" width="6" height="6"/>
      <rect class="st9" x="168" y="102" width="6" height="6"/>
      <rect class="st11" x="174" y="102" width="6" height="6"/>
      <rect class="st11" x="180" y="102" width="6" height="6"/>
      <rect class="st11" x="186" y="102" width="6" height="6"/>
      <rect class="st9" x="30" y="108" width="6" height="6"/>
      <rect class="st11" x="36" y="108" width="6" height="6"/>
      <rect class="st11" x="42" y="108" width="6" height="6"/>
      <rect class="st14" x="48" y="108" width="6" height="6"/>
      <rect class="st14" x="54" y="108" width="6" height="6"/>
      <rect class="st14" x="60" y="108" width="6" height="6"/>
      <rect class="st14" x="66" y="108" width="6" height="6"/>
      <rect class="st11" x="72" y="108" width="6" height="6"/>
      <rect class="st9" x="78" y="108" width="6" height="6"/>
      <rect class="st9" x="90" y="108" width="6" height="6"/>
      <rect class="st2" x="96" y="108" width="6" height="6"/>
      <rect class="st8" x="102" y="108" width="6" height="6"/>
      <rect class="st8" x="108" y="108" width="6" height="6"/>
      <rect class="st8" x="114" y="108" width="6" height="6"/>
      <rect class="st2" x="120" y="108" width="6" height="6"/>
      <rect class="st10" x="126" y="108" width="6" height="6"/>
      <rect class="st10" x="132" y="108" width="6" height="6"/>
      <rect class="st10" x="138" y="108" width="6" height="6"/>
      <rect class="st2" x="144" y="108" width="6" height="6"/>
      <rect class="st9" x="150" y="108" width="6" height="6"/>
      <rect class="st9" x="162" y="108" width="6" height="6"/>
      <rect class="st11" x="168" y="108" width="6" height="6"/>
      <rect class="st13" x="174" y="108" width="6" height="6"/>
      <rect class="st0" x="180" y="108" width="6" height="6"/>
      <rect class="st13" x="186" y="108" width="6" height="6"/>
      <rect class="st9" x="24" y="114" width="6" height="6"/>
      <rect class="st11" x="30" y="114" width="6" height="6"/>
      <rect class="st14" x="36" y="114" width="6" height="6"/>
      <rect class="st14" x="42" y="114" width="6" height="6"/>
      <rect class="st14" x="48" y="114" width="6" height="6"/>
      <rect class="st14" x="54" y="114" width="6" height="6"/>
      <rect class="st14" x="60" y="114" width="6" height="6"/>
      <rect class="st14" x="66" y="114" width="6" height="6"/>
      <rect class="st11" x="72" y="114" width="6" height="6"/>
      <rect class="st9" x="78" y="114" width="6" height="6"/>
      <rect class="st9" x="90" y="114" width="6" height="6"/>
      <rect class="st2" x="96" y="114" width="6" height="6"/>
      <rect class="st8" x="102" y="114" width="6" height="6"/>
      <rect class="st8" x="108" y="114" width="6" height="6"/>
      <rect class="st8" x="114" y="114" width="6" height="6"/>
      <rect class="st2" x="120" y="114" width="6" height="6"/>
      <rect class="st10" x="126" y="114" width="6" height="6"/>
      <rect class="st12" x="132" y="114" width="6" height="6"/>
      <rect class="st10" x="138" y="114" width="6" height="6"/>
      <rect class="st2" x="144" y="114" width="6" height="6"/>
      <rect class="st9" x="150" y="114" width="6" height="6"/>
      <rect class="st9" x="162" y="114" width="6" height="6"/>
      <rect class="st11" x="168" y="114" width="6" height="6"/>
      <rect class="st0" x="174" y="114" width="6" height="6"/>
      <rect class="st13" x="180" y="114" width="6" height="6"/>
      <rect class="st0" x="186" y="114" width="6" height="6"/>
      <rect class="st9" x="18" y="120" width="6" height="6"/>
      <rect class="st11" x="24" y="120" width="6" height="6"/>
      <rect class="st14" x="30" y="120" width="6" height="6"/>
      <rect class="st8" x="36" y="120" width="6" height="6"/>
      <rect class="st14" x="42" y="120" width="6" height="6"/>
      <rect class="st14" x="48" y="120" width="6" height="6"/>
      <rect class="st14" x="54" y="120" width="6" height="6"/>
      <rect class="st14" x="60" y="120" width="6" height="6"/>
      <rect class="st14" x="66" y="120" width="6" height="6"/>
      <rect class="st14" x="72" y="120" width="6" height="6"/>
      <rect class="st11" x="78" y="120" width="6" height="6"/>
      <rect class="st9" x="84" y="120" width="6" height="6"/>
      <rect class="st7" x="90" y="120" width="6" height="6"/>
      <rect class="st8" x="96" y="120" width="6" height="6"/>
      <rect class="st8" x="102" y="120" width="6" height="6"/>
      <rect class="st3" x="108" y="120" width="6" height="6"/>
      <rect class="st8" x="114" y="120" width="6" height="6"/>
      <rect class="st8" x="120" y="120" width="6" height="6"/>
      <rect class="st7" x="126" y="120" width="6" height="6"/>
      <rect class="st10" x="132" y="120" width="6" height="6"/>
      <rect class="st12" x="138" y="120" width="6" height="6"/>
      <rect class="st10" x="144" y="120" width="6" height="6"/>
      <rect class="st7" x="150" y="120" width="6" height="6"/>
      <rect class="st9" x="156" y="120" width="6" height="6"/>
      <rect class="st11" x="162" y="120" width="6" height="6"/>
      <rect class="st13" x="168" y="120" width="6" height="6"/>
      <rect class="st0" x="174" y="120" width="6" height="6"/>
      <rect class="st13" x="180" y="120" width="6" height="6"/>
      <rect class="st0" x="186" y="120" width="6" height="6"/>
      <rect class="st9" x="12" y="126" width="6" height="6"/>
      <rect class="st11" x="18" y="126" width="6" height="6"/>
      <rect class="st6" x="24" y="126" width="6" height="6"/>
      <rect class="st6" x="30" y="126" width="6" height="6"/>
      <rect class="st11" x="36" y="126" width="6" height="6"/>
      <rect class="st6" x="42" y="126" width="6" height="6"/>
      <rect class="st14" x="48" y="126" width="6" height="6"/>
      <rect class="st14" x="54" y="126" width="6" height="6"/>
      <rect class="st14" x="60" y="126" width="6" height="6"/>
      <rect class="st14" x="66" y="126" width="6" height="6"/>
      <rect class="st14" x="72" y="126" width="6" height="6"/>
      <rect class="st11" x="78" y="126" width="6" height="6"/>
      <rect class="st9" x="84" y="126" width="6" height="6"/>
      <rect class="st7" x="90" y="126" width="6" height="6"/>
      <rect class="st8" x="96" y="126" width="6" height="6"/>
      <rect class="st0" x="102" y="126" width="6" height="6"/>
      <rect class="st0" x="108" y="126" width="6" height="6"/>
      <rect class="st3" x="114" y="126" width="6" height="6"/>
      <rect class="st8" x="120" y="126" width="6" height="6"/>
      <rect class="st7" x="126" y="126" width="6" height="6"/>
      <rect class="st12" x="132" y="126" width="6" height="6"/>
      <rect class="st10" x="138" y="126" width="6" height="6"/>
      <rect class="st12" x="144" y="126" width="6" height="6"/>
      <rect class="st7" x="150" y="126" width="6" height="6"/>
      <rect class="st9" x="156" y="126" width="6" height="6"/>
      <rect class="st11" x="162" y="126" width="6" height="6"/>
      <rect class="st0" x="168" y="126" width="6" height="6"/>
      <rect class="st13" x="174" y="126" width="6" height="6"/>
      <rect class="st0" x="180" y="126" width="6" height="6"/>
      <rect class="st13" x="186" y="126" width="6" height="6"/>
      <rect class="st9" x="6" y="132" width="6" height="6"/>
      <rect class="st11" x="12" y="132" width="6" height="6"/>
      <rect class="st6" x="18" y="132" width="6" height="6"/>
      <rect class="st6" x="24" y="132" width="6" height="6"/>
      <rect class="st6" x="30" y="132" width="6" height="6"/>
      <rect class="st6" x="36" y="132" width="6" height="6"/>
      <rect class="st6" x="42" y="132" width="6" height="6"/>
      <rect class="st4" x="48" y="132" width="6" height="6"/>
      <rect class="st4" x="54" y="132" width="6" height="6"/>
      <rect class="st4" x="60" y="132" width="6" height="6"/>
      <rect class="st4" x="66" y="132" width="6" height="6"/>
      <rect class="st4" x="72" y="132" width="6" height="6"/>
      <rect class="st11" x="78" y="132" width="6" height="6"/>
      <rect class="st9" x="84" y="132" width="6" height="6"/>
      <rect class="st7" x="90" y="132" width="6" height="6"/>
      <rect class="st8" x="96" y="132" width="6" height="6"/>
      <rect class="st0" x="102" y="132" width="6" height="6"/>
      <rect class="st0" x="108" y="132" width="6" height="6"/>
      <rect class="st3" x="114" y="132" width="6" height="6"/>
      <rect class="st8" x="120" y="132" width="6" height="6"/>
      <rect class="st7" x="126" y="132" width="6" height="6"/>
      <rect class="st12" x="132" y="132" width="6" height="6"/>
      <rect class="st12" x="138" y="132" width="6" height="6"/>
      <rect class="st12" x="144" y="132" width="6" height="6"/>
      <rect class="st7" x="150" y="132" width="6" height="6"/>
      <rect class="st9" x="156" y="132" width="6" height="6"/>
      <rect class="st11" x="162" y="132" width="6" height="6"/>
      <rect class="st0" x="168" y="132" width="6" height="6"/>
      <rect class="st13" x="174" y="132" width="6" height="6"/>
      <rect class="st8" x="180" y="132" width="6" height="6"/>
      <rect class="st13" x="186" y="132" width="6" height="6"/>
      <rect class="st9" x="6" y="138" width="6" height="6"/>
      <rect class="st11" x="12" y="138" width="6" height="6"/>
      <rect class="st11" x="18" y="138" width="6" height="6"/>
      <rect class="st11" x="24" y="138" width="6" height="6"/>
      <rect class="st11" x="30" y="138" width="6" height="6"/>
      <rect class="st6" x="36" y="138" width="6" height="6"/>
      <rect class="st6" x="42" y="138" width="6" height="6"/>
      <rect class="st6" x="48" y="138" width="6" height="6"/>
      <rect class="st4" x="54" y="138" width="6" height="6"/>
      <rect class="st4" x="60" y="138" width="6" height="6"/>
      <rect class="st4" x="66" y="138" width="6" height="6"/>
      <rect class="st4" x="72" y="138" width="6" height="6"/>
      <rect class="st11" x="78" y="138" width="6" height="6"/>
      <rect class="st9" x="84" y="138" width="6" height="6"/>
      <rect class="st7" x="90" y="138" width="6" height="6"/>
      <rect class="st8" x="96" y="138" width="6" height="6"/>
      <rect class="st0" x="102" y="138" width="6" height="6"/>
      <rect class="st0" x="108" y="138" width="6" height="6"/>
      <rect class="st3" x="114" y="138" width="6" height="6"/>
      <rect class="st8" x="120" y="138" width="6" height="6"/>
      <rect class="st7" x="126" y="138" width="6" height="6"/>
      <rect class="st5" x="132" y="138" width="6" height="6"/>
      <rect class="st12" x="138" y="138" width="6" height="6"/>
      <rect class="st5" x="144" y="138" width="6" height="6"/>
      <rect class="st7" x="150" y="138" width="6" height="6"/>
      <rect class="st9" x="156" y="138" width="6" height="6"/>
      <rect class="st11" x="162" y="138" width="6" height="6"/>
      <rect class="st13" x="168" y="138" width="6" height="6"/>
      <rect class="st0" x="174" y="138" width="6" height="6"/>
      <rect class="st8" x="180" y="138" width="6" height="6"/>
      <rect class="st0" x="186" y="138" width="6" height="6"/>
      <rect class="st9" x="12" y="144" width="6" height="6"/>
      <rect class="st1" x="18" y="144" width="6" height="6"/>
      <rect class="st6" x="24" y="144" width="6" height="6"/>
      <rect class="st6" x="30" y="144" width="6" height="6"/>
      <rect class="st6" x="36" y="144" width="6" height="6"/>
      <rect class="st6" x="42" y="144" width="6" height="6"/>
      <rect class="st6" x="48" y="144" width="6" height="6"/>
      <rect class="st6" x="54" y="144" width="6" height="6"/>
      <rect class="st6" x="60" y="144" width="6" height="6"/>
      <rect class="st6" x="66" y="144" width="6" height="6"/>
      <rect class="st6" x="72" y="144" width="6" height="6"/>
      <rect class="st1" x="78" y="144" width="6" height="6"/>
      <rect class="st9" x="84" y="144" width="6" height="6"/>
      <rect class="st7" x="90" y="144" width="6" height="6"/>
      <rect class="st8" x="96" y="144" width="6" height="6"/>
      <rect class="st0" x="102" y="144" width="6" height="6"/>
      <rect class="st0" x="108" y="144" width="6" height="6"/>
      <rect class="st3" x="114" y="144" width="6" height="6"/>
      <rect class="st8" x="120" y="144" width="6" height="6"/>
      <rect class="st7" x="126" y="144" width="6" height="6"/>
      <rect class="st12" x="132" y="144" width="6" height="6"/>
      <rect class="st5" x="138" y="144" width="6" height="6"/>
      <rect class="st12" x="144" y="144" width="6" height="6"/>
      <rect class="st7" x="150" y="144" width="6" height="6"/>
      <rect class="st9" x="156" y="144" width="6" height="6"/>
      <rect class="st1" x="162" y="144" width="6" height="6"/>
      <rect class="st0" x="168" y="144" width="6" height="6"/>
      <rect class="st13" x="174" y="144" width="6" height="6"/>
      <rect class="st0" x="180" y="144" width="6" height="6"/>
      <rect class="st13" x="186" y="144" width="6" height="6"/>
      <rect class="st9" x="18" y="150" width="6" height="6"/>
      <rect class="st1" x="24" y="150" width="6" height="6"/>
      <rect class="st6" x="30" y="150" width="6" height="6"/>
      <rect class="st6" x="36" y="150" width="6" height="6"/>
      <rect class="st4" x="42" y="150" width="6" height="6"/>
      <rect class="st6" x="48" y="150" width="6" height="6"/>
      <rect class="st4" x="54" y="150" width="6" height="6"/>
      <rect class="st4" x="60" y="150" width="6" height="6"/>
      <rect class="st4" x="66" y="150" width="6" height="6"/>
      <rect class="st4" x="72" y="150" width="6" height="6"/>
      <rect class="st1" x="78" y="150" width="6" height="6"/>
      <rect class="st9" x="84" y="150" width="6" height="6"/>
      <rect class="st7" x="90" y="150" width="6" height="6"/>
      <rect class="st8" x="96" y="150" width="6" height="6"/>
      <rect class="st8" x="102" y="150" width="6" height="6"/>
      <rect class="st3" x="108" y="150" width="6" height="6"/>
      <rect class="st8" x="114" y="150" width="6" height="6"/>
      <rect class="st8" x="120" y="150" width="6" height="6"/>
      <rect class="st7" x="126" y="150" width="6" height="6"/>
      <rect class="st5" x="132" y="150" width="6" height="6"/>
      <rect class="st12" x="138" y="150" width="6" height="6"/>
      <rect class="st5" x="144" y="150" width="6" height="6"/>
      <rect class="st7" x="150" y="150" width="6" height="6"/>
      <rect class="st9" x="156" y="150" width="6" height="6"/>
      <rect class="st1" x="162" y="150" width="6" height="6"/>
      <rect class="st13" x="168" y="150" width="6" height="6"/>
      <rect class="st0" x="174" y="150" width="6" height="6"/>
      <rect class="st0" x="180" y="150" width="6" height="6"/>
      <rect class="st0" x="186" y="150" width="6" height="6"/>
      <rect class="st9" x="24" y="156" width="6" height="6"/>
      <rect class="st1" x="30" y="156" width="6" height="6"/>
      <rect class="st6" x="36" y="156" width="6" height="6"/>
      <rect class="st6" x="42" y="156" width="6" height="6"/>
      <rect class="st6" x="48" y="156" width="6" height="6"/>
      <rect class="st6" x="54" y="156" width="6" height="6"/>
      <rect class="st6" x="60" y="156" width="6" height="6"/>
      <rect class="st6" x="66" y="156" width="6" height="6"/>
      <rect class="st1" x="72" y="156" width="6" height="6"/>
      <rect class="st9" x="78" y="156" width="6" height="6"/>
      <rect class="st9" x="90" y="156" width="6" height="6"/>
      <rect class="st7" x="96" y="156" width="6" height="6"/>
      <rect class="st8" x="102" y="156" width="6" height="6"/>
      <rect class="st8" x="108" y="156" width="6" height="6"/>
      <rect class="st8" x="114" y="156" width="6" height="6"/>
      <rect class="st7" x="120" y="156" width="6" height="6"/>
      <rect class="st5" x="126" y="156" width="6" height="6"/>
      <rect class="st5" x="132" y="156" width="6" height="6"/>
      <rect class="st5" x="138" y="156" width="6" height="6"/>
      <rect class="st7" x="144" y="156" width="6" height="6"/>
      <rect class="st9" x="150" y="156" width="6" height="6"/>
      <rect class="st9" x="162" y="156" width="6" height="6"/>
      <rect class="st1" x="168" y="156" width="6" height="6"/>
      <rect class="st13" x="174" y="156" width="6" height="6"/>
      <rect class="st0" x="180" y="156" width="6" height="6"/>
      <rect class="st13" x="186" y="156" width="6" height="6"/>
      <rect class="st9" x="30" y="162" width="6" height="6"/>
      <rect class="st1" x="36" y="162" width="6" height="6"/>
      <rect class="st1" x="42" y="162" width="6" height="6"/>
      <rect class="st6" x="48" y="162" width="6" height="6"/>
      <rect class="st4" x="54" y="162" width="6" height="6"/>
      <rect class="st4" x="60" y="162" width="6" height="6"/>
      <rect class="st4" x="66" y="162" width="6" height="6"/>
      <rect class="st1" x="72" y="162" width="6" height="6"/>
      <rect class="st9" x="78" y="162" width="6" height="6"/>
      <rect class="st9" x="90" y="162" width="6" height="6"/>
      <rect class="st7" x="96" y="162" width="6" height="6"/>
      <rect class="st8" x="102" y="162" width="6" height="6"/>
      <rect class="st8" x="108" y="162" width="6" height="6"/>
      <rect class="st8" x="114" y="162" width="6" height="6"/>
      <rect class="st7" x="120" y="162" width="6" height="6"/>
      <rect class="st5" x="126" y="162" width="6" height="6"/>
      <rect class="st5" x="132" y="162" width="6" height="6"/>
      <rect class="st5" x="138" y="162" width="6" height="6"/>
      <rect class="st7" x="144" y="162" width="6" height="6"/>
      <rect class="st9" x="150" y="162" width="6" height="6"/>
      <rect class="st9" x="162" y="162" width="6" height="6"/>
      <rect class="st1" x="168" y="162" width="6" height="6"/>
      <rect class="st0" x="174" y="162" width="6" height="6"/>
      <rect class="st13" x="180" y="162" width="6" height="6"/>
      <rect class="st0" x="186" y="162" width="6" height="6"/>
      <rect class="st9" x="36" y="168" width="6" height="6"/>
      <rect class="st9" x="42" y="168" width="6" height="6"/>
      <rect class="st1" x="48" y="168" width="6" height="6"/>
      <rect class="st1" x="54" y="168" width="6" height="6"/>
      <rect class="st1" x="60" y="168" width="6" height="6"/>
      <rect class="st1" x="66" y="168" width="6" height="6"/>
      <rect class="st9" x="72" y="168" width="6" height="6"/>
      <rect class="st9" x="96" y="168" width="6" height="6"/>
      <rect class="st7" x="102" y="168" width="6" height="6"/>
      <rect class="st7" x="108" y="168" width="6" height="6"/>
      <rect class="st7" x="114" y="168" width="6" height="6"/>
      <rect class="st7" x="120" y="168" width="6" height="6"/>
      <rect class="st7" x="126" y="168" width="6" height="6"/>
      <rect class="st7" x="132" y="168" width="6" height="6"/>
      <rect class="st7" x="138" y="168" width="6" height="6"/>
      <rect class="st9" x="144" y="168" width="6" height="6"/>
      <rect class="st9" x="168" y="168" width="6" height="6"/>
      <rect class="st1" x="174" y="168" width="6" height="6"/>
      <rect class="st1" x="180" y="168" width="6" height="6"/>
      <rect class="st1" x="186" y="168" width="6" height="6"/>
      <rect class="st9" x="48" y="174" width="6" height="6"/>
      <rect class="st9" x="54" y="174" width="6" height="6"/>
      <rect class="st9" x="60" y="174" width="6" height="6"/>
      <rect class="st9" x="66" y="174" width="6" height="6"/>
      <rect class="st9" x="102" y="174" width="6" height="6"/>
      <rect class="st9" x="108" y="174" width="6" height="6"/>
      <rect class="st9" x="114" y="174" width="6" height="6"/>
      <rect class="st9" x="120" y="174" width="6" height="6"/>
      <rect class="st9" x="126" y="174" width="6" height="6"/>
      <rect class="st9" x="132" y="174" width="6" height="6"/>
      <rect class="st9" x="138" y="174" width="6" height="6"/>
      <rect class="st9" x="174" y="174" width="6" height="6"/>
      <rect class="st9" x="180" y="174" width="6" height="6"/>
      <rect class="st9" x="186" y="174" width="6" height="6"/>
    </g>
  </g>
</svg>