<?xml version="1.0" encoding="UTF-8"?><svg id="Layer_1" xmlns="http://www.w3.org/2000/svg" viewBox="0 0 500 430"><defs><style>.cls-1,.cls-2{stroke:#914938;stroke-miterlimit:10;stroke-width:2px;}.cls-1,.cls-3{fill:#914938;}.cls-4{fill:#f4ebd4;font-family:Roboto-Bold, Roboto;font-size:20.36px;font-weight:700;}.cls-2{fill:none;}.cls-3{stroke-width:0px;}</style></defs><path class="cls-3" d="m137.23,194.05c54-14.76,122.04-29.52,149.04-29.52,54,0,85.68,28.8,85.68,82.08v2.88c-.72,65.52-52.2,113.4-155.52,141.12-3.24-6.12-10.8-15.84-16.2-21.96,92.16-21.96,144.36-65.16,144.36-119.88,0-34.56-16.56-59.4-59.4-59.4-28.8,0-86.04,12.96-130.32,28.44.36,2.88-3.24,6.48-6.84,8.28l-10.8-32.04Zm50.4-124.56c49.32,4.32,106.2,14.76,144.72,28.08l-7.56,25.2c-38.16-12.96-96.48-24.84-143.28-28.8l6.12-24.48Z"/><path class="cls-2" d="m187.62,55.49s61.74,3.89,127.97,22.79"/><circle class="cls-1" cx="155.43" cy="55.49" r="16.1"/><text class="cls-4" transform="translate(149.59 62.79)"><tspan x="0" y="0">1</tspan></text><polygon class="cls-1" points="313.24 77.67 314.69 73.14 319.55 77.18 324.41 81.22 318.11 81.71 311.8 82.19 313.24 77.67"/><path class="cls-2" d="m137.23,178.05s96.6-27.8,160.23-29.52"/><circle class="cls-1" cx="144.15" cy="146.06" r="16.1"/><text class="cls-4" transform="translate(138.31 153.36)"><tspan x="0" y="0">2</tspan></text><polygon class="cls-1" points="294.8 148.53 294.7 143.78 300.61 146.03 306.52 148.28 300.71 150.78 294.9 153.28 294.8 148.53"/></svg>