<?xml version="1.0" encoding="UTF-8"?>
<svg xmlns="http://www.w3.org/2000/svg" version="1.1" viewBox="0 0 192 192">
  <!-- Generator: Adobe Illustrator 29.6.1, SVG Export Plug-In . SVG Version: 2.1.1 Build 9)  -->
  <defs>
    <style>
      .st0 {
        fill: #fff4b2;
      }

      .st1 {
        fill: #6c7aa7;
      }

      .st2 {
        fill: #8d5386;
      }

      .st3 {
        fill: #89251e;
      }

      .st4 {
        fill: #e0603d;
      }

      .st5 {
        fill: #694f86;
      }

      .st6 {
        fill: #e2574a;
      }

      .st7 {
        fill: #97c0e0;
      }

      .st8 {
        fill: #ede5b7;
      }

      .st9 {
        fill: #b5e273;
      }

      .st10 {
        fill: #bde1eb;
      }

      .st11 {
        fill: #59cc6b;
      }

      .st12 {
        fill: #3a81af;
      }

      .st13 {
        fill: #fff;
      }

      .st14 {
        fill: #e6c874;
      }

      .st15 {
        fill: #eb97a7;
      }

      .st16 {
        fill: #5cabe1;
      }

      .st17 {
        fill: #5d1548;
      }

      .st18 {
        fill: #ea9571;
      }

      .st19 {
        fill: #1e8c54;
      }
    </style>
  </defs>
  <g id="Layer_1" shape-rendering="crispEdges">
    <g>
      <rect class="st15" x="84" y="9.5" width="6" height="6"/>
      <rect class="st15" x="90" y="9.5" width="6" height="6"/>
      <rect class="st15" x="96" y="9.5" width="6" height="6"/>
      <rect class="st15" x="102" y="9.5" width="6" height="6"/>
      <rect class="st15" x="72" y="15.5" width="6" height="6"/>
      <rect class="st15" x="78" y="15.5" width="6" height="6"/>
      <rect class="st12" x="84" y="15.5" width="6" height="6"/>
      <rect class="st12" x="90" y="15.5" width="6" height="6"/>
      <rect class="st12" x="96" y="15.5" width="6" height="6"/>
      <rect class="st12" x="102" y="15.5" width="6" height="6"/>
      <rect class="st15" x="108" y="15.5" width="6" height="6"/>
      <rect class="st15" x="114" y="15.5" width="6" height="6"/>
      <rect class="st15" x="60" y="21.5" width="6" height="6"/>
      <rect class="st15" x="66" y="21.5" width="6" height="6"/>
      <rect class="st12" x="72" y="21.5" width="6" height="6"/>
      <rect class="st12" x="78" y="21.5" width="6" height="6"/>
      <rect class="st9" x="84" y="21.5" width="6" height="6"/>
      <rect class="st9" x="90" y="21.5" width="6" height="6"/>
      <rect class="st9" x="96" y="21.5" width="6" height="6"/>
      <rect class="st9" x="102" y="21.5" width="6" height="6"/>
      <rect class="st12" x="108" y="21.5" width="6" height="6"/>
      <rect class="st12" x="114" y="21.5" width="6" height="6"/>
      <rect class="st15" x="120" y="21.5" width="6" height="6"/>
      <rect class="st15" x="126" y="21.5" width="6" height="6"/>
      <rect class="st15" x="54" y="27.5" width="6" height="6"/>
      <rect class="st12" x="60" y="27.5" width="6" height="6"/>
      <rect class="st12" x="66" y="27.5" width="6" height="6"/>
      <rect class="st9" x="72" y="27.5" width="6" height="6"/>
      <rect class="st11" x="78" y="27.5" width="6" height="6"/>
      <rect class="st11" x="84" y="27.5" width="6" height="6"/>
      <rect class="st11" x="90" y="27.5" width="6" height="6"/>
      <rect class="st11" x="96" y="27.5" width="6" height="6"/>
      <rect class="st11" x="102" y="27.5" width="6" height="6"/>
      <rect class="st11" x="108" y="27.5" width="6" height="6"/>
      <rect class="st9" x="114" y="27.5" width="6" height="6"/>
      <rect class="st12" x="120" y="27.5" width="6" height="6"/>
      <rect class="st12" x="126" y="27.5" width="6" height="6"/>
      <rect class="st15" x="132" y="27.5" width="6" height="6"/>
      <rect class="st15" x="48" y="33.5" width="6" height="6"/>
      <rect class="st12" x="54" y="33.5" width="6" height="6"/>
      <rect class="st9" x="60" y="33.5" width="6" height="6"/>
      <rect class="st9" x="66" y="33.5" width="6" height="6"/>
      <rect class="st11" x="72" y="33.5" width="6" height="6"/>
      <rect class="st19" x="78" y="33.5" width="6" height="6"/>
      <rect class="st11" x="84" y="33.5" width="6" height="6"/>
      <rect class="st11" x="90" y="33.5" width="6" height="6"/>
      <rect class="st11" x="96" y="33.5" width="6" height="6"/>
      <rect class="st11" x="102" y="33.5" width="6" height="6"/>
      <rect class="st19" x="108" y="33.5" width="6" height="6"/>
      <rect class="st11" x="114" y="33.5" width="6" height="6"/>
      <rect class="st9" x="120" y="33.5" width="6" height="6"/>
      <rect class="st9" x="126" y="33.5" width="6" height="6"/>
      <rect class="st12" x="132" y="33.5" width="6" height="6"/>
      <rect class="st15" x="138" y="33.5" width="6" height="6"/>
      <rect class="st15" x="48" y="39.5" width="6" height="6"/>
      <rect class="st12" x="54" y="39.5" width="6" height="6"/>
      <rect class="st9" x="60" y="39.5" width="6" height="6"/>
      <rect class="st11" x="66" y="39.5" width="6" height="6"/>
      <rect class="st11" x="72" y="39.5" width="6" height="6"/>
      <rect class="st11" x="78" y="39.5" width="6" height="6"/>
      <rect class="st19" x="84" y="39.5" width="6" height="6"/>
      <rect class="st19" x="90" y="39.5" width="6" height="6"/>
      <rect class="st19" x="96" y="39.5" width="6" height="6"/>
      <rect class="st19" x="102" y="39.5" width="6" height="6"/>
      <rect class="st11" x="108" y="39.5" width="6" height="6"/>
      <rect class="st11" x="114" y="39.5" width="6" height="6"/>
      <rect class="st11" x="120" y="39.5" width="6" height="6"/>
      <rect class="st9" x="126" y="39.5" width="6" height="6"/>
      <rect class="st12" x="132" y="39.5" width="6" height="6"/>
      <rect class="st15" x="138" y="39.5" width="6" height="6"/>
      <rect class="st15" x="36" y="45.5" width="6" height="6"/>
      <rect class="st15" x="42" y="45.5" width="6" height="6"/>
      <rect class="st5" x="48" y="45.5" width="6" height="6"/>
      <rect class="st17" x="54" y="45.5" width="6" height="6"/>
      <rect class="st9" x="60" y="45.5" width="6" height="6"/>
      <rect class="st11" x="66" y="45.5" width="6" height="6"/>
      <rect class="st11" x="72" y="45.5" width="6" height="6"/>
      <rect class="st19" x="78" y="45.5" width="6" height="6"/>
      <rect class="st13" x="84" y="45.5" width="6" height="6"/>
      <rect class="st19" x="90" y="45.5" width="6" height="6"/>
      <rect class="st19" x="96" y="45.5" width="6" height="6"/>
      <rect class="st13" x="102" y="45.5" width="6" height="6"/>
      <rect class="st19" x="108" y="45.5" width="6" height="6"/>
      <rect class="st11" x="114" y="45.5" width="6" height="6"/>
      <rect class="st11" x="120" y="45.5" width="6" height="6"/>
      <rect class="st9" x="126" y="45.5" width="6" height="6"/>
      <rect class="st17" x="132" y="45.5" width="6" height="6"/>
      <rect class="st5" x="138" y="45.5" width="6" height="6"/>
      <rect class="st15" x="144" y="45.5" width="6" height="6"/>
      <rect class="st15" x="150" y="45.5" width="6" height="6"/>
      <rect class="st15" x="24" y="51.5" width="6" height="6"/>
      <rect class="st15" x="30" y="51.5" width="6" height="6"/>
      <rect class="st17" x="36" y="51.5" width="6" height="6"/>
      <rect class="st17" x="42" y="51.5" width="6" height="6"/>
      <rect class="st17" x="48" y="51.5" width="6" height="6"/>
      <rect class="st12" x="54" y="51.5" width="6" height="6"/>
      <rect class="st9" x="60" y="51.5" width="6" height="6"/>
      <rect class="st11" x="66" y="51.5" width="6" height="6"/>
      <rect class="st11" x="72" y="51.5" width="6" height="6"/>
      <rect class="st19" x="78" y="51.5" width="6" height="6"/>
      <rect class="st19" x="84" y="51.5" width="6" height="6"/>
      <rect class="st19" x="90" y="51.5" width="6" height="6"/>
      <rect class="st19" x="96" y="51.5" width="6" height="6"/>
      <rect class="st19" x="102" y="51.5" width="6" height="6"/>
      <rect class="st19" x="108" y="51.5" width="6" height="6"/>
      <rect class="st11" x="114" y="51.5" width="6" height="6"/>
      <rect class="st11" x="120" y="51.5" width="6" height="6"/>
      <rect class="st9" x="126" y="51.5" width="6" height="6"/>
      <rect class="st1" x="132" y="51.5" width="6" height="6"/>
      <rect class="st17" x="138" y="51.5" width="6" height="6"/>
      <rect class="st17" x="144" y="51.5" width="6" height="6"/>
      <rect class="st17" x="150" y="51.5" width="6" height="6"/>
      <rect class="st15" x="156" y="51.5" width="6" height="6"/>
      <rect class="st15" x="162" y="51.5" width="6" height="6"/>
      <rect class="st15" x="18" y="57.5" width="6" height="6"/>
      <rect class="st17" x="24" y="57.5" width="6" height="6"/>
      <rect class="st17" x="30" y="57.5" width="6" height="6"/>
      <rect class="st7" x="36" y="57.5" width="6" height="6"/>
      <rect class="st7" x="42" y="57.5" width="6" height="6"/>
      <rect class="st7" x="48" y="57.5" width="6" height="6"/>
      <rect class="st10" x="54" y="57.5" width="6" height="6"/>
      <rect class="st2" x="60" y="57.5" width="6" height="6"/>
      <rect class="st12" x="66" y="57.5" width="6" height="6"/>
      <rect class="st9" x="72" y="57.5" width="6" height="6"/>
      <rect class="st9" x="78" y="57.5" width="6" height="6"/>
      <rect class="st9" x="84" y="57.5" width="6" height="6"/>
      <rect class="st9" x="90" y="57.5" width="6" height="6"/>
      <rect class="st9" x="96" y="57.5" width="6" height="6"/>
      <rect class="st9" x="102" y="57.5" width="6" height="6"/>
      <rect class="st9" x="108" y="57.5" width="6" height="6"/>
      <rect class="st9" x="114" y="57.5" width="6" height="6"/>
      <rect class="st12" x="120" y="57.5" width="6" height="6"/>
      <rect class="st2" x="126" y="57.5" width="6" height="6"/>
      <rect class="st10" x="132" y="57.5" width="6" height="6"/>
      <rect class="st7" x="138" y="57.5" width="6" height="6"/>
      <rect class="st7" x="144" y="57.5" width="6" height="6"/>
      <rect class="st7" x="150" y="57.5" width="6" height="6"/>
      <rect class="st17" x="156" y="57.5" width="6" height="6"/>
      <rect class="st17" x="162" y="57.5" width="6" height="6"/>
      <rect class="st15" x="168" y="57.5" width="6" height="6"/>
      <rect class="st15" x="12" y="63.5" width="6" height="6"/>
      <rect class="st17" x="18" y="63.5" width="6" height="6"/>
      <rect class="st8" x="24" y="63.5" width="6" height="6"/>
      <rect class="st7" x="30" y="63.5" width="6" height="6"/>
      <rect class="st7" x="36" y="63.5" width="6" height="6"/>
      <rect class="st10" x="42" y="63.5" width="6" height="6"/>
      <rect class="st10" x="48" y="63.5" width="6" height="6"/>
      <rect class="st2" x="54" y="63.5" width="6" height="6"/>
      <rect class="st10" x="60" y="63.5" width="6" height="6"/>
      <rect class="st10" x="66" y="63.5" width="6" height="6"/>
      <rect class="st12" x="72" y="63.5" width="6" height="6"/>
      <rect class="st12" x="78" y="63.5" width="6" height="6"/>
      <rect class="st12" x="84" y="63.5" width="6" height="6"/>
      <rect class="st12" x="90" y="63.5" width="6" height="6"/>
      <rect class="st16" x="96" y="63.5" width="6" height="6"/>
      <rect class="st16" x="102" y="63.5" width="6" height="6"/>
      <rect class="st12" x="108" y="63.5" width="6" height="6"/>
      <rect class="st12" x="114" y="63.5" width="6" height="6"/>
      <rect class="st10" x="120" y="63.5" width="6" height="6"/>
      <rect class="st10" x="126" y="63.5" width="6" height="6"/>
      <rect class="st2" x="132" y="63.5" width="6" height="6"/>
      <rect class="st10" x="138" y="63.5" width="6" height="6"/>
      <rect class="st10" x="144" y="63.5" width="6" height="6"/>
      <rect class="st7" x="150" y="63.5" width="6" height="6"/>
      <rect class="st7" x="156" y="63.5" width="6" height="6"/>
      <rect class="st8" x="162" y="63.5" width="6" height="6"/>
      <rect class="st17" x="168" y="63.5" width="6" height="6"/>
      <rect class="st15" x="174" y="63.5" width="6" height="6"/>
      <rect class="st15" x="12" y="69.5" width="6" height="6"/>
      <rect class="st17" x="18" y="69.5" width="6" height="6"/>
      <rect class="st4" x="24" y="69.5" width="6" height="6"/>
      <rect class="st7" x="30" y="69.5" width="6" height="6"/>
      <rect class="st10" x="36" y="69.5" width="6" height="6"/>
      <rect class="st2" x="42" y="69.5" width="6" height="6"/>
      <rect class="st2" x="48" y="69.5" width="6" height="6"/>
      <rect class="st10" x="54" y="69.5" width="6" height="6"/>
      <rect class="st10" x="60" y="69.5" width="6" height="6"/>
      <rect class="st10" x="66" y="69.5" width="6" height="6"/>
      <rect class="st2" x="72" y="69.5" width="6" height="6"/>
      <rect class="st10" x="78" y="69.5" width="6" height="6"/>
      <rect class="st10" x="84" y="69.5" width="6" height="6"/>
      <rect class="st2" x="90" y="69.5" width="6" height="6"/>
      <rect class="st10" x="96" y="69.5" width="6" height="6"/>
      <rect class="st10" x="102" y="69.5" width="6" height="6"/>
      <rect class="st10" x="108" y="69.5" width="6" height="6"/>
      <rect class="st2" x="114" y="69.5" width="6" height="6"/>
      <rect class="st10" x="120" y="69.5" width="6" height="6"/>
      <rect class="st10" x="126" y="69.5" width="6" height="6"/>
      <rect class="st10" x="132" y="69.5" width="6" height="6"/>
      <rect class="st2" x="138" y="69.5" width="6" height="6"/>
      <rect class="st2" x="144" y="69.5" width="6" height="6"/>
      <rect class="st10" x="150" y="69.5" width="6" height="6"/>
      <rect class="st7" x="156" y="69.5" width="6" height="6"/>
      <rect class="st4" x="162" y="69.5" width="6" height="6"/>
      <rect class="st17" x="168" y="69.5" width="6" height="6"/>
      <rect class="st15" x="174" y="69.5" width="6" height="6"/>
      <rect class="st15" x="6" y="75.5" width="6" height="6"/>
      <rect class="st17" x="12" y="75.5" width="6" height="6"/>
      <rect class="st7" x="18" y="75.5" width="6" height="6"/>
      <rect class="st7" x="24" y="75.5" width="6" height="6"/>
      <rect class="st2" x="30" y="75.5" width="6" height="6"/>
      <rect class="st2" x="36" y="75.5" width="6" height="6"/>
      <rect class="st0" x="42" y="75.5" width="6" height="6"/>
      <rect class="st0" x="48" y="75.5" width="6" height="6"/>
      <rect class="st10" x="54" y="75.5" width="6" height="6"/>
      <rect class="st10" x="60" y="75.5" width="6" height="6"/>
      <rect class="st2" x="66" y="75.5" width="6" height="6"/>
      <rect class="st10" x="72" y="75.5" width="6" height="6"/>
      <rect class="st10" x="78" y="75.5" width="6" height="6"/>
      <rect class="st10" x="84" y="75.5" width="6" height="6"/>
      <rect class="st10" x="90" y="75.5" width="6" height="6"/>
      <rect class="st2" x="96" y="75.5" width="6" height="6"/>
      <rect class="st10" x="102" y="75.5" width="6" height="6"/>
      <rect class="st10" x="108" y="75.5" width="6" height="6"/>
      <rect class="st10" x="114" y="75.5" width="6" height="6"/>
      <rect class="st2" x="120" y="75.5" width="6" height="6"/>
      <rect class="st10" x="126" y="75.5" width="6" height="6"/>
      <rect class="st10" x="132" y="75.5" width="6" height="6"/>
      <rect class="st0" x="138" y="75.5" width="6" height="6"/>
      <rect class="st0" x="144" y="75.5" width="6" height="6"/>
      <rect class="st2" x="150" y="75.5" width="6" height="6"/>
      <rect class="st2" x="156" y="75.5" width="6" height="6"/>
      <rect class="st7" x="162" y="75.5" width="6" height="6"/>
      <rect class="st7" x="168" y="75.5" width="6" height="6"/>
      <rect class="st17" x="174" y="75.5" width="6" height="6"/>
      <rect class="st15" x="180" y="75.5" width="6" height="6"/>
      <rect class="st15" x="6" y="81.5" width="6" height="6"/>
      <rect class="st17" x="12" y="81.5" width="6" height="6"/>
      <rect class="st2" x="18" y="81.5" width="6" height="6"/>
      <rect class="st2" x="24" y="81.5" width="6" height="6"/>
      <rect class="st7" x="30" y="81.5" width="6" height="6"/>
      <rect class="st10" x="36" y="81.5" width="6" height="6"/>
      <rect class="st4" x="42" y="81.5" width="6" height="6"/>
      <rect class="st4" x="48" y="81.5" width="6" height="6"/>
      <rect class="st10" x="54" y="81.5" width="6" height="6"/>
      <rect class="st2" x="60" y="81.5" width="6" height="6"/>
      <rect class="st10" x="66" y="81.5" width="6" height="6"/>
      <rect class="st0" x="72" y="81.5" width="6" height="6"/>
      <rect class="st0" x="78" y="81.5" width="6" height="6"/>
      <rect class="st10" x="84" y="81.5" width="6" height="6"/>
      <rect class="st2" x="90" y="81.5" width="6" height="6"/>
      <rect class="st10" x="96" y="81.5" width="6" height="6"/>
      <rect class="st10" x="102" y="81.5" width="6" height="6"/>
      <rect class="st0" x="108" y="81.5" width="6" height="6"/>
      <rect class="st0" x="114" y="81.5" width="6" height="6"/>
      <rect class="st10" x="120" y="81.5" width="6" height="6"/>
      <rect class="st2" x="126" y="81.5" width="6" height="6"/>
      <rect class="st10" x="132" y="81.5" width="6" height="6"/>
      <rect class="st4" x="138" y="81.5" width="6" height="6"/>
      <rect class="st4" x="144" y="81.5" width="6" height="6"/>
      <rect class="st10" x="150" y="81.5" width="6" height="6"/>
      <rect class="st7" x="156" y="81.5" width="6" height="6"/>
      <rect class="st2" x="162" y="81.5" width="6" height="6"/>
      <rect class="st2" x="168" y="81.5" width="6" height="6"/>
      <rect class="st17" x="174" y="81.5" width="6" height="6"/>
      <rect class="st15" x="180" y="81.5" width="6" height="6"/>
      <rect class="st15" x="12" y="87.5" width="6" height="6"/>
      <rect class="st17" x="18" y="87.5" width="6" height="6"/>
      <rect class="st2" x="24" y="87.5" width="6" height="6"/>
      <rect class="st2" x="30" y="87.5" width="6" height="6"/>
      <rect class="st7" x="36" y="87.5" width="6" height="6"/>
      <rect class="st7" x="42" y="87.5" width="6" height="6"/>
      <rect class="st7" x="48" y="87.5" width="6" height="6"/>
      <rect class="st2" x="54" y="87.5" width="6" height="6"/>
      <rect class="st10" x="60" y="87.5" width="6" height="6"/>
      <rect class="st10" x="66" y="87.5" width="6" height="6"/>
      <rect class="st4" x="72" y="87.5" width="6" height="6"/>
      <rect class="st4" x="78" y="87.5" width="6" height="6"/>
      <rect class="st10" x="84" y="87.5" width="6" height="6"/>
      <rect class="st10" x="90" y="87.5" width="6" height="6"/>
      <rect class="st2" x="96" y="87.5" width="6" height="6"/>
      <rect class="st10" x="102" y="87.5" width="6" height="6"/>
      <rect class="st4" x="108" y="87.5" width="6" height="6"/>
      <rect class="st4" x="114" y="87.5" width="6" height="6"/>
      <rect class="st10" x="120" y="87.5" width="6" height="6"/>
      <rect class="st10" x="126" y="87.5" width="6" height="6"/>
      <rect class="st2" x="132" y="87.5" width="6" height="6"/>
      <rect class="st7" x="138" y="87.5" width="6" height="6"/>
      <rect class="st7" x="144" y="87.5" width="6" height="6"/>
      <rect class="st7" x="150" y="87.5" width="6" height="6"/>
      <rect class="st2" x="156" y="87.5" width="6" height="6"/>
      <rect class="st2" x="162" y="87.5" width="6" height="6"/>
      <rect class="st17" x="168" y="87.5" width="6" height="6"/>
      <rect class="st15" x="174" y="87.5" width="6" height="6"/>
      <rect class="st15" x="12" y="93.5" width="6" height="6"/>
      <rect class="st17" x="18" y="93.5" width="6" height="6"/>
      <rect class="st2" x="24" y="93.5" width="6" height="6"/>
      <rect class="st2" x="30" y="93.5" width="6" height="6"/>
      <rect class="st2" x="36" y="93.5" width="6" height="6"/>
      <rect class="st2" x="42" y="93.5" width="6" height="6"/>
      <rect class="st2" x="48" y="93.5" width="6" height="6"/>
      <rect class="st7" x="54" y="93.5" width="6" height="6"/>
      <rect class="st7" x="60" y="93.5" width="6" height="6"/>
      <rect class="st10" x="66" y="93.5" width="6" height="6"/>
      <rect class="st10" x="72" y="93.5" width="6" height="6"/>
      <rect class="st10" x="78" y="93.5" width="6" height="6"/>
      <rect class="st10" x="84" y="93.5" width="6" height="6"/>
      <rect class="st2" x="90" y="93.5" width="6" height="6"/>
      <rect class="st10" x="96" y="93.5" width="6" height="6"/>
      <rect class="st10" x="102" y="93.5" width="6" height="6"/>
      <rect class="st10" x="108" y="93.5" width="6" height="6"/>
      <rect class="st10" x="114" y="93.5" width="6" height="6"/>
      <rect class="st10" x="120" y="93.5" width="6" height="6"/>
      <rect class="st7" x="126" y="93.5" width="6" height="6"/>
      <rect class="st7" x="132" y="93.5" width="6" height="6"/>
      <rect class="st2" x="138" y="93.5" width="6" height="6"/>
      <rect class="st2" x="144" y="93.5" width="6" height="6"/>
      <rect class="st2" x="150" y="93.5" width="6" height="6"/>
      <rect class="st2" x="156" y="93.5" width="6" height="6"/>
      <rect class="st2" x="162" y="93.5" width="6" height="6"/>
      <rect class="st17" x="168" y="93.5" width="6" height="6"/>
      <rect class="st15" x="174" y="93.5" width="6" height="6"/>
      <rect class="st15" x="18" y="99.5" width="6" height="6"/>
      <rect class="st17" x="24" y="99.5" width="6" height="6"/>
      <rect class="st17" x="30" y="99.5" width="6" height="6"/>
      <rect class="st2" x="36" y="99.5" width="6" height="6"/>
      <rect class="st2" x="42" y="99.5" width="6" height="6"/>
      <rect class="st2" x="48" y="99.5" width="6" height="6"/>
      <rect class="st2" x="54" y="99.5" width="6" height="6"/>
      <rect class="st2" x="60" y="99.5" width="6" height="6"/>
      <rect class="st7" x="66" y="99.5" width="6" height="6"/>
      <rect class="st7" x="72" y="99.5" width="6" height="6"/>
      <rect class="st7" x="78" y="99.5" width="6" height="6"/>
      <rect class="st7" x="84" y="99.5" width="6" height="6"/>
      <rect class="st7" x="90" y="99.5" width="6" height="6"/>
      <rect class="st2" x="96" y="99.5" width="6" height="6"/>
      <rect class="st7" x="102" y="99.5" width="6" height="6"/>
      <rect class="st7" x="108" y="99.5" width="6" height="6"/>
      <rect class="st7" x="114" y="99.5" width="6" height="6"/>
      <rect class="st7" x="120" y="99.5" width="6" height="6"/>
      <rect class="st2" x="126" y="99.5" width="6" height="6"/>
      <rect class="st2" x="132" y="99.5" width="6" height="6"/>
      <rect class="st2" x="138" y="99.5" width="6" height="6"/>
      <rect class="st2" x="144" y="99.5" width="6" height="6"/>
      <rect class="st2" x="150" y="99.5" width="6" height="6"/>
      <rect class="st17" x="156" y="99.5" width="6" height="6"/>
      <rect class="st17" x="162" y="99.5" width="6" height="6"/>
      <rect class="st15" x="168" y="99.5" width="6" height="6"/>
      <rect class="st15" x="24" y="105.5" width="6" height="6"/>
      <rect class="st15" x="30" y="105.5" width="6" height="6"/>
      <rect class="st17" x="36" y="105.5" width="6" height="6"/>
      <rect class="st17" x="42" y="105.5" width="6" height="6"/>
      <rect class="st2" x="48" y="105.5" width="6" height="6"/>
      <rect class="st2" x="54" y="105.5" width="6" height="6"/>
      <rect class="st2" x="60" y="105.5" width="6" height="6"/>
      <rect class="st2" x="66" y="105.5" width="6" height="6"/>
      <rect class="st2" x="72" y="105.5" width="6" height="6"/>
      <rect class="st2" x="78" y="105.5" width="6" height="6"/>
      <rect class="st2" x="84" y="105.5" width="6" height="6"/>
      <rect class="st2" x="90" y="105.5" width="6" height="6"/>
      <rect class="st2" x="96" y="105.5" width="6" height="6"/>
      <rect class="st2" x="102" y="105.5" width="6" height="6"/>
      <rect class="st2" x="108" y="105.5" width="6" height="6"/>
      <rect class="st2" x="114" y="105.5" width="6" height="6"/>
      <rect class="st2" x="120" y="105.5" width="6" height="6"/>
      <rect class="st2" x="126" y="105.5" width="6" height="6"/>
      <rect class="st2" x="132" y="105.5" width="6" height="6"/>
      <rect class="st2" x="138" y="105.5" width="6" height="6"/>
      <rect class="st17" x="144" y="105.5" width="6" height="6"/>
      <rect class="st17" x="150" y="105.5" width="6" height="6"/>
      <rect class="st15" x="156" y="105.5" width="6" height="6"/>
      <rect class="st15" x="162" y="105.5" width="6" height="6"/>
      <rect class="st15" x="36" y="111.5" width="6" height="6"/>
      <rect class="st15" x="42" y="111.5" width="6" height="6"/>
      <rect class="st17" x="48" y="111.5" width="6" height="6"/>
      <rect class="st17" x="54" y="111.5" width="6" height="6"/>
      <rect class="st17" x="60" y="111.5" width="6" height="6"/>
      <rect class="st2" x="66" y="111.5" width="6" height="6"/>
      <rect class="st2" x="72" y="111.5" width="6" height="6"/>
      <rect class="st2" x="78" y="111.5" width="6" height="6"/>
      <rect class="st2" x="84" y="111.5" width="6" height="6"/>
      <rect class="st2" x="90" y="111.5" width="6" height="6"/>
      <rect class="st2" x="96" y="111.5" width="6" height="6"/>
      <rect class="st2" x="102" y="111.5" width="6" height="6"/>
      <rect class="st2" x="108" y="111.5" width="6" height="6"/>
      <rect class="st2" x="114" y="111.5" width="6" height="6"/>
      <rect class="st2" x="120" y="111.5" width="6" height="6"/>
      <rect class="st17" x="126" y="111.5" width="6" height="6"/>
      <rect class="st17" x="132" y="111.5" width="6" height="6"/>
      <rect class="st17" x="138" y="111.5" width="6" height="6"/>
      <rect class="st15" x="144" y="111.5" width="6" height="6"/>
      <rect class="st15" x="150" y="111.5" width="6" height="6"/>
      <rect class="st15" x="48" y="117.5" width="6" height="6"/>
      <rect class="st15" x="54" y="117.5" width="6" height="6"/>
      <rect class="st15" x="60" y="117.5" width="6" height="6"/>
      <rect class="st17" x="66" y="117.5" width="6" height="6"/>
      <rect class="st17" x="72" y="117.5" width="6" height="6"/>
      <rect class="st17" x="78" y="117.5" width="6" height="6"/>
      <rect class="st17" x="84" y="117.5" width="6" height="6"/>
      <rect class="st17" x="90" y="117.5" width="6" height="6"/>
      <rect class="st17" x="96" y="117.5" width="6" height="6"/>
      <rect class="st17" x="102" y="117.5" width="6" height="6"/>
      <rect class="st17" x="108" y="117.5" width="6" height="6"/>
      <rect class="st17" x="114" y="117.5" width="6" height="6"/>
      <rect class="st17" x="120" y="117.5" width="6" height="6"/>
      <rect class="st15" x="126" y="117.5" width="6" height="6"/>
      <rect class="st15" x="132" y="117.5" width="6" height="6"/>
      <rect class="st15" x="138" y="117.5" width="6" height="6"/>
      <rect class="st15" x="66" y="123.5" width="6" height="6"/>
      <rect class="st15" x="72" y="123.5" width="6" height="6"/>
      <rect class="st15" x="78" y="123.5" width="6" height="6"/>
      <rect class="st15" x="84" y="123.5" width="6" height="6"/>
      <rect class="st15" x="90" y="123.5" width="6" height="6"/>
      <rect class="st15" x="96" y="123.5" width="6" height="6"/>
      <rect class="st15" x="102" y="123.5" width="6" height="6"/>
      <rect class="st15" x="108" y="123.5" width="6" height="6"/>
      <rect class="st15" x="114" y="123.5" width="6" height="6"/>
      <rect class="st15" x="120" y="123.5" width="6" height="6"/>
      <rect class="st15" x="78" y="129.5" width="6" height="6"/>
      <rect class="st3" x="84" y="129.5" width="6" height="6"/>
      <rect class="st3" x="90" y="129.5" width="6" height="6"/>
      <rect class="st3" x="96" y="129.5" width="6" height="6"/>
      <rect class="st3" x="102" y="129.5" width="6" height="6"/>
      <rect class="st15" x="108" y="129.5" width="6" height="6"/>
      <rect class="st15" x="72" y="135.5" width="6" height="6"/>
      <rect class="st3" x="78" y="135.5" width="6" height="6"/>
      <rect class="st6" x="84" y="135.5" width="6" height="6"/>
      <rect class="st6" x="90" y="135.5" width="6" height="6"/>
      <rect class="st6" x="96" y="135.5" width="6" height="6"/>
      <rect class="st6" x="102" y="135.5" width="6" height="6"/>
      <rect class="st3" x="108" y="135.5" width="6" height="6"/>
      <rect class="st15" x="114" y="135.5" width="6" height="6"/>
      <rect class="st15" x="66" y="141.5" width="6" height="6"/>
      <rect class="st3" x="72" y="141.5" width="6" height="6"/>
      <rect class="st6" x="78" y="141.5" width="6" height="6"/>
      <rect class="st6" x="84" y="141.5" width="6" height="6"/>
      <rect class="st6" x="90" y="141.5" width="6" height="6"/>
      <rect class="st6" x="96" y="141.5" width="6" height="6"/>
      <rect class="st6" x="102" y="141.5" width="6" height="6"/>
      <rect class="st6" x="108" y="141.5" width="6" height="6"/>
      <rect class="st3" x="114" y="141.5" width="6" height="6"/>
      <rect class="st15" x="120" y="141.5" width="6" height="6"/>
      <rect class="st15" x="66" y="147.5" width="6" height="6"/>
      <rect class="st3" x="72" y="147.5" width="6" height="6"/>
      <rect class="st18" x="78" y="147.5" width="6" height="6"/>
      <rect class="st6" x="84" y="147.5" width="6" height="6"/>
      <rect class="st6" x="90" y="147.5" width="6" height="6"/>
      <rect class="st6" x="96" y="147.5" width="6" height="6"/>
      <rect class="st6" x="102" y="147.5" width="6" height="6"/>
      <rect class="st18" x="108" y="147.5" width="6" height="6"/>
      <rect class="st3" x="114" y="147.5" width="6" height="6"/>
      <rect class="st15" x="120" y="147.5" width="6" height="6"/>
      <rect class="st15" x="66" y="153.5" width="6" height="6"/>
      <rect class="st3" x="72" y="153.5" width="6" height="6"/>
      <rect class="st14" x="78" y="153.5" width="6" height="6"/>
      <rect class="st18" x="84" y="153.5" width="6" height="6"/>
      <rect class="st6" x="90" y="153.5" width="6" height="6"/>
      <rect class="st6" x="96" y="153.5" width="6" height="6"/>
      <rect class="st18" x="102" y="153.5" width="6" height="6"/>
      <rect class="st14" x="108" y="153.5" width="6" height="6"/>
      <rect class="st3" x="114" y="153.5" width="6" height="6"/>
      <rect class="st15" x="120" y="153.5" width="6" height="6"/>
      <rect class="st15" x="72" y="159.5" width="6" height="6"/>
      <rect class="st3" x="78" y="159.5" width="6" height="6"/>
      <rect class="st14" x="84" y="159.5" width="6" height="6"/>
      <rect class="st18" x="90" y="159.5" width="6" height="6"/>
      <rect class="st18" x="96" y="159.5" width="6" height="6"/>
      <rect class="st14" x="102" y="159.5" width="6" height="6"/>
      <rect class="st3" x="108" y="159.5" width="6" height="6"/>
      <rect class="st15" x="114" y="159.5" width="6" height="6"/>
      <rect class="st15" x="78" y="165.5" width="6" height="6"/>
      <rect class="st3" x="84" y="165.5" width="6" height="6"/>
      <rect class="st14" x="90" y="165.5" width="6" height="6"/>
      <rect class="st14" x="96" y="165.5" width="6" height="6"/>
      <rect class="st3" x="102" y="165.5" width="6" height="6"/>
      <rect class="st15" x="108" y="165.5" width="6" height="6"/>
      <rect class="st15" x="84" y="171.5" width="6" height="6"/>
      <rect class="st3" x="90" y="171.5" width="6" height="6"/>
      <rect class="st3" x="96" y="171.5" width="6" height="6"/>
      <rect class="st15" x="102" y="171.5" width="6" height="6"/>
      <rect class="st15" x="90" y="177.5" width="6" height="6"/>
      <rect class="st15" x="96" y="177.5" width="6" height="6"/>
    </g>
  </g>
</svg>