<?xml version="1.0" encoding="utf-8"?>
<!-- Generator: Adobe Illustrator 27.9.0, SVG Export Plug-In . SVG Version: 6.00 Build 0)  -->
<svg version="1.1" id="Layer_1" shape-rendering="crispEdges"
	 xmlns="http://www.w3.org/2000/svg" xmlns:xlink="http://www.w3.org/1999/xlink" x="0px" y="0px" viewBox="0 0 192 192"
	 style="enable-background:new 0 0 192 192;" xml:space="preserve">
<style type="text/css">
	.st0{fill:#EECC11;}
	.st1{fill:#E0603D;}
	.st2{fill:#E6C874;}
	.st3{fill:#E4895D;}
	.st4{fill:#E7A55D;}
	.st5{fill:#C1313E;}
	.st6{fill:#E3543C;}
</style>
<g>
	<rect x="70.6" y="30.1" class="st0" width="6.4" height="6.4"/>
	<rect x="76.9" y="30.1" class="st0" width="6.4" height="6.4"/>
	<rect x="83.3" y="30.1" class="st0" width="6.4" height="6.4"/>
	<rect x="89.6" y="30.1" class="st0" width="6.4" height="6.4"/>
	<rect x="96" y="30.1" class="st0" width="6.4" height="6.4"/>
	<rect x="102.4" y="30.1" class="st0" width="6.4" height="6.4"/>
	<rect x="108.7" y="30.1" class="st0" width="6.4" height="6.4"/>
	<rect x="115.1" y="30.1" class="st0" width="6.4" height="6.4"/>
	<rect x="64.2" y="36.4" class="st0" width="6.4" height="6.4"/>
	<rect x="70.6" y="36.4" class="st1" width="6.4" height="6.4"/>
	<rect x="76.9" y="36.4" class="st1" width="6.4" height="6.4"/>
	<rect x="83.3" y="36.4" class="st1" width="6.4" height="6.4"/>
	<rect x="89.6" y="36.4" class="st1" width="6.4" height="6.4"/>
	<rect x="96" y="36.4" class="st1" width="6.4" height="6.4"/>
	<rect x="102.4" y="36.4" class="st1" width="6.4" height="6.4"/>
	<rect x="108.7" y="36.4" class="st1" width="6.4" height="6.4"/>
	<rect x="115.1" y="36.4" class="st1" width="6.4" height="6.4"/>
	<rect x="121.4" y="36.4" class="st0" width="6.4" height="6.4"/>
	<rect x="57.9" y="42.8" class="st0" width="6.4" height="6.4"/>
	<rect x="64.2" y="42.8" class="st1" width="6.4" height="6.4"/>
	<rect x="70.6" y="42.8" class="st2" width="6.4" height="6.4"/>
	<rect x="76.9" y="42.8" class="st2" width="6.4" height="6.4"/>
	<rect x="83.3" y="42.8" class="st2" width="6.4" height="6.4"/>
	<rect x="89.6" y="42.8" class="st2" width="6.4" height="6.4"/>
	<rect x="96" y="42.8" class="st2" width="6.4" height="6.4"/>
	<rect x="102.4" y="42.8" class="st2" width="6.4" height="6.4"/>
	<rect x="108.7" y="42.8" class="st2" width="6.4" height="6.4"/>
	<rect x="115.1" y="42.8" class="st2" width="6.4" height="6.4"/>
	<rect x="121.4" y="42.8" class="st1" width="6.4" height="6.4"/>
	<rect x="127.8" y="42.8" class="st0" width="6.4" height="6.4"/>
	<rect x="51.5" y="49.1" class="st0" width="6.4" height="6.4"/>
	<rect x="57.9" y="49.1" class="st1" width="6.4" height="6.4"/>
	<rect x="64.2" y="49.1" class="st2" width="6.4" height="6.4"/>
	<rect x="70.6" y="49.1" class="st3" width="6.4" height="6.4"/>
	<rect x="76.9" y="49.1" class="st3" width="6.4" height="6.4"/>
	<rect x="83.3" y="49.1" class="st3" width="6.4" height="6.4"/>
	<rect x="89.6" y="49.1" class="st3" width="6.4" height="6.4"/>
	<rect x="96" y="49.1" class="st3" width="6.4" height="6.4"/>
	<rect x="102.4" y="49.1" class="st3" width="6.4" height="6.4"/>
	<rect x="108.7" y="49.1" class="st3" width="6.4" height="6.4"/>
	<rect x="115.1" y="49.1" class="st2" width="6.4" height="6.4"/>
	<rect x="121.4" y="49.1" class="st2" width="6.4" height="6.4"/>
	<rect x="127.8" y="49.1" class="st1" width="6.4" height="6.4"/>
	<rect x="134.1" y="49.1" class="st0" width="6.4" height="6.4"/>
	<rect x="51.5" y="55.5" class="st0" width="6.4" height="6.4"/>
	<rect x="57.9" y="55.5" class="st1" width="6.4" height="6.4"/>
	<rect x="64.2" y="55.5" class="st4" width="6.4" height="6.4"/>
	<rect x="70.6" y="55.5" class="st3" width="6.4" height="6.4"/>
	<rect x="76.9" y="55.5" class="st3" width="6.4" height="6.4"/>
	<rect x="83.3" y="55.5" class="st3" width="6.4" height="6.4"/>
	<rect x="89.6" y="55.5" class="st3" width="6.4" height="6.4"/>
	<rect x="96" y="55.5" class="st3" width="6.4" height="6.4"/>
	<rect x="102.4" y="55.5" class="st3" width="6.4" height="6.4"/>
	<rect x="108.7" y="55.5" class="st3" width="6.4" height="6.4"/>
	<rect x="115.1" y="55.5" class="st3" width="6.4" height="6.4"/>
	<rect x="121.4" y="55.5" class="st2" width="6.4" height="6.4"/>
	<rect x="127.8" y="55.5" class="st1" width="6.4" height="6.4"/>
	<rect x="134.1" y="55.5" class="st0" width="6.4" height="6.4"/>
	<rect x="51.5" y="61.9" class="st0" width="6.4" height="6.4"/>
	<rect x="57.9" y="61.9" class="st5" width="6.4" height="6.4"/>
	<rect x="64.2" y="61.9" class="st4" width="6.4" height="6.4"/>
	<rect x="70.6" y="61.9" class="st3" width="6.4" height="6.4"/>
	<rect x="76.9" y="61.9" class="st3" width="6.4" height="6.4"/>
	<rect x="83.3" y="61.9" class="st1" width="6.4" height="6.4"/>
	<rect x="89.6" y="61.9" class="st1" width="6.4" height="6.4"/>
	<rect x="96" y="61.9" class="st1" width="6.4" height="6.4"/>
	<rect x="102.4" y="61.9" class="st1" width="6.4" height="6.4"/>
	<rect x="108.7" y="61.9" class="st3" width="6.4" height="6.4"/>
	<rect x="115.1" y="61.9" class="st3" width="6.4" height="6.4"/>
	<rect x="121.4" y="61.9" class="st4" width="6.4" height="6.4"/>
	<rect x="127.8" y="61.9" class="st6" width="6.4" height="6.4"/>
	<rect x="134.1" y="61.9" class="st0" width="6.4" height="6.4"/>
	<rect x="51.5" y="68.2" class="st0" width="6.4" height="6.4"/>
	<rect x="57.9" y="68.2" class="st5" width="6.4" height="6.4"/>
	<rect x="64.2" y="68.2" class="st4" width="6.4" height="6.4"/>
	<rect x="70.6" y="68.2" class="st3" width="6.4" height="6.4"/>
	<rect x="76.9" y="68.2" class="st3" width="6.4" height="6.4"/>
	<rect x="83.3" y="68.2" class="st5" width="6.4" height="6.4"/>
	<rect x="89.6" y="68.2" class="st0" width="6.4" height="6.4"/>
	<rect x="96" y="68.2" class="st0" width="6.4" height="6.4"/>
	<rect x="102.4" y="68.2" class="st1" width="6.4" height="6.4"/>
	<rect x="108.7" y="68.2" class="st3" width="6.4" height="6.4"/>
	<rect x="115.1" y="68.2" class="st3" width="6.4" height="6.4"/>
	<rect x="121.4" y="68.2" class="st4" width="6.4" height="6.4"/>
	<rect x="127.8" y="68.2" class="st6" width="6.4" height="6.4"/>
	<rect x="134.1" y="68.2" class="st0" width="6.4" height="6.4"/>
	<rect x="57.9" y="74.6" class="st0" width="6.4" height="6.4"/>
	<rect x="64.2" y="74.6" class="st5" width="6.4" height="6.4"/>
	<rect x="70.6" y="74.6" class="st5" width="6.4" height="6.4"/>
	<rect x="76.9" y="74.6" class="st5" width="6.4" height="6.4"/>
	<rect x="83.3" y="74.6" class="st0" width="6.4" height="6.4"/>
	<rect x="96" y="74.6" class="st0" width="6.4" height="6.4"/>
	<rect x="102.4" y="74.6" class="st5" width="6.4" height="6.4"/>
	<rect x="108.7" y="74.6" class="st3" width="6.4" height="6.4"/>
	<rect x="115.1" y="74.6" class="st3" width="6.4" height="6.4"/>
	<rect x="121.4" y="74.6" class="st4" width="6.4" height="6.4"/>
	<rect x="127.8" y="74.6" class="st6" width="6.4" height="6.4"/>
	<rect x="134.1" y="74.6" class="st0" width="6.4" height="6.4"/>
	<rect x="64.2" y="80.9" class="st0" width="6.4" height="6.4"/>
	<rect x="70.6" y="80.9" class="st0" width="6.4" height="6.4"/>
	<rect x="76.9" y="80.9" class="st0" width="6.4" height="6.4"/>
	<rect x="89.6" y="80.9" class="st0" width="6.4" height="6.4"/>
	<rect x="96" y="80.9" class="st5" width="6.4" height="6.4"/>
	<rect x="102.4" y="80.9" class="st5" width="6.4" height="6.4"/>
	<rect x="108.7" y="80.9" class="st3" width="6.4" height="6.4"/>
	<rect x="115.1" y="80.9" class="st3" width="6.4" height="6.4"/>
	<rect x="121.4" y="80.9" class="st4" width="6.4" height="6.4"/>
	<rect x="127.8" y="80.9" class="st6" width="6.4" height="6.4"/>
	<rect x="134.1" y="80.9" class="st0" width="6.4" height="6.4"/>
	<rect x="83.3" y="87.3" class="st0" width="6.4" height="6.4"/>
	<rect x="89.6" y="87.3" class="st1" width="6.4" height="6.4"/>
	<rect x="96" y="87.3" class="st3" width="6.4" height="6.4"/>
	<rect x="102.4" y="87.3" class="st3" width="6.4" height="6.4"/>
	<rect x="108.7" y="87.3" class="st3" width="6.4" height="6.4"/>
	<rect x="115.1" y="87.3" class="st3" width="6.4" height="6.4"/>
	<rect x="121.4" y="87.3" class="st4" width="6.4" height="6.4"/>
	<rect x="127.8" y="87.3" class="st5" width="6.4" height="6.4"/>
	<rect x="134.1" y="87.3" class="st0" width="6.4" height="6.4"/>
	<rect x="76.9" y="93.6" class="st0" width="6.4" height="6.4"/>
	<rect x="83.3" y="93.6" class="st6" width="6.4" height="6.4"/>
	<rect x="89.6" y="93.6" class="st3" width="6.4" height="6.4"/>
	<rect x="96" y="93.6" class="st3" width="6.4" height="6.4"/>
	<rect x="102.4" y="93.6" class="st3" width="6.4" height="6.4"/>
	<rect x="108.7" y="93.6" class="st3" width="6.4" height="6.4"/>
	<rect x="115.1" y="93.6" class="st3" width="6.4" height="6.4"/>
	<rect x="121.4" y="93.6" class="st4" width="6.4" height="6.4"/>
	<rect x="127.8" y="93.6" class="st5" width="6.4" height="6.4"/>
	<rect x="134.1" y="93.6" class="st0" width="6.4" height="6.4"/>
	<rect x="76.9" y="100" class="st0" width="6.4" height="6.4"/>
	<rect x="83.3" y="100" class="st5" width="6.4" height="6.4"/>
	<rect x="89.6" y="100" class="st3" width="6.4" height="6.4"/>
	<rect x="96" y="100" class="st3" width="6.4" height="6.4"/>
	<rect x="102.4" y="100" class="st3" width="6.4" height="6.4"/>
	<rect x="108.7" y="100" class="st4" width="6.4" height="6.4"/>
	<rect x="115.1" y="100" class="st4" width="6.4" height="6.4"/>
	<rect x="121.4" y="100" class="st5" width="6.4" height="6.4"/>
	<rect x="127.8" y="100" class="st0" width="6.4" height="6.4"/>
	<rect x="76.9" y="106.4" class="st0" width="6.4" height="6.4"/>
	<rect x="83.3" y="106.4" class="st5" width="6.4" height="6.4"/>
	<rect x="89.6" y="106.4" class="st3" width="6.4" height="6.4"/>
	<rect x="96" y="106.4" class="st3" width="6.4" height="6.4"/>
	<rect x="102.4" y="106.4" class="st4" width="6.4" height="6.4"/>
	<rect x="108.7" y="106.4" class="st5" width="6.4" height="6.4"/>
	<rect x="115.1" y="106.4" class="st5" width="6.4" height="6.4"/>
	<rect x="121.4" y="106.4" class="st0" width="6.4" height="6.4"/>
	<rect x="76.9" y="112.7" class="st0" width="6.4" height="6.4"/>
	<rect x="83.3" y="112.7" class="st5" width="6.4" height="6.4"/>
	<rect x="89.6" y="112.7" class="st3" width="6.4" height="6.4"/>
	<rect x="96" y="112.7" class="st3" width="6.4" height="6.4"/>
	<rect x="102.4" y="112.7" class="st4" width="6.4" height="6.4"/>
	<rect x="108.7" y="112.7" class="st5" width="6.4" height="6.4"/>
	<rect x="115.1" y="112.7" class="st0" width="6.4" height="6.4"/>
	<rect x="76.9" y="119.1" class="st0" width="6.4" height="6.4"/>
	<rect x="83.3" y="119.1" class="st5" width="6.4" height="6.4"/>
	<rect x="89.6" y="119.1" class="st3" width="6.4" height="6.4"/>
	<rect x="96" y="119.1" class="st3" width="6.4" height="6.4"/>
	<rect x="102.4" y="119.1" class="st4" width="6.4" height="6.4"/>
	<rect x="108.7" y="119.1" class="st5" width="6.4" height="6.4"/>
	<rect x="115.1" y="119.1" class="st0" width="6.4" height="6.4"/>
	<rect x="83.3" y="125.4" class="st0" width="6.4" height="6.4"/>
	<rect x="89.6" y="125.4" class="st5" width="6.4" height="6.4"/>
	<rect x="96" y="125.4" class="st5" width="6.4" height="6.4"/>
	<rect x="102.4" y="125.4" class="st5" width="6.4" height="6.4"/>
	<rect x="108.7" y="125.4" class="st0" width="6.4" height="6.4"/>
	<rect x="89.6" y="131.8" class="st0" width="6.4" height="6.4"/>
	<rect x="96" y="131.8" class="st0" width="6.4" height="6.4"/>
	<rect x="102.4" y="131.8" class="st0" width="6.4" height="6.4"/>
	<rect x="83.3" y="138.1" class="st0" width="6.4" height="6.4"/>
	<rect x="89.6" y="138.1" class="st5" width="6.4" height="6.4"/>
	<rect x="96" y="138.1" class="st5" width="6.4" height="6.4"/>
	<rect x="102.4" y="138.1" class="st5" width="6.4" height="6.4"/>
	<rect x="108.7" y="138.1" class="st0" width="6.4" height="6.4"/>
	<rect x="76.9" y="144.5" class="st0" width="6.4" height="6.4"/>
	<rect x="83.3" y="144.5" class="st5" width="6.4" height="6.4"/>
	<rect x="89.6" y="144.5" class="st2" width="6.4" height="6.4"/>
	<rect x="96" y="144.5" class="st2" width="6.4" height="6.4"/>
	<rect x="102.4" y="144.5" class="st2" width="6.4" height="6.4"/>
	<rect x="108.7" y="144.5" class="st5" width="6.4" height="6.4"/>
	<rect x="115.1" y="144.5" class="st0" width="6.4" height="6.4"/>
	<rect x="76.9" y="150.9" class="st0" width="6.4" height="6.4"/>
	<rect x="83.3" y="150.9" class="st5" width="6.4" height="6.4"/>
	<rect x="89.6" y="150.9" class="st3" width="6.4" height="6.4"/>
	<rect x="96" y="150.9" class="st3" width="6.4" height="6.4"/>
	<rect x="102.4" y="150.9" class="st4" width="6.4" height="6.4"/>
	<rect x="108.7" y="150.9" class="st5" width="6.4" height="6.4"/>
	<rect x="115.1" y="150.9" class="st0" width="6.4" height="6.4"/>
	<rect x="83.3" y="157.2" class="st0" width="6.4" height="6.4"/>
	<rect x="89.6" y="157.2" class="st5" width="6.4" height="6.4"/>
	<rect x="96" y="157.2" class="st5" width="6.4" height="6.4"/>
	<rect x="102.4" y="157.2" class="st5" width="6.4" height="6.4"/>
	<rect x="108.7" y="157.2" class="st0" width="6.4" height="6.4"/>
	<rect x="89.6" y="163.6" class="st0" width="6.4" height="6.4"/>
	<rect x="96" y="163.6" class="st0" width="6.4" height="6.4"/>
	<rect x="102.4" y="163.6" class="st0" width="6.4" height="6.4"/>
</g>
</svg>
