<?xml version="1.0" encoding="utf-8"?>
<!-- Generator: Adobe Illustrator 27.9.0, SVG Export Plug-In . SVG Version: 6.00 Build 0)  -->
<svg version="1.1" id="Layer_1" shape-rendering="crispEdges"
	 xmlns="http://www.w3.org/2000/svg" xmlns:xlink="http://www.w3.org/1999/xlink" x="0px" y="0px" viewBox="0 0 192 192"
	 style="enable-background:new 0 0 192 192;" xml:space="preserve">
<style type="text/css">
	.st0{fill:#FF9648;}
	.st1{fill:#D26A71;}
	.st2{fill:#B55D83;}
	.st3{fill:#8D5386;}
	.st4{fill:#B3CCD5;}
	.st5{fill:#C1B9E0;}
	.st6{fill:#D9E8EC;}
	.st7{fill:#D0583B;}
	.st8{fill:#E0603D;}
	.st9{fill:#E87687;}
	.st10{fill:#A39EC6;}
	.st11{fill:#694F86;}
	.st12{fill:#E17557;}
	.st13{fill:#AE5269;}
	.st14{fill:#8D506B;}
	.st15{fill:#E7A55D;}
	.st16{fill:#B3534E;}
	.st17{fill:#C25233;}
	.st18{fill:#EFDCE5;}
	.st19{fill:#5993C5;}
</style>
<g>
	<rect x="174.5" y="16" class="st0" width="5.9" height="5.9"/>
	<rect x="180.4" y="16" class="st0" width="5.9" height="5.9"/>
	<rect x="186.1" y="16" class="st0" width="5.9" height="5.9"/>
	<rect x="168.6" y="21.9" class="st0" width="5.9" height="5.9"/>
	<rect x="174.5" y="21.9" class="st1" width="5.9" height="5.9"/>
	<rect x="180.4" y="21.9" class="st1" width="5.9" height="5.9"/>
	<rect x="186.1" y="21.9" class="st1" width="5.9" height="5.9"/>
	<rect x="162.8" y="27.6" class="st0" width="5.9" height="5.9"/>
	<rect x="168.6" y="27.6" class="st2" width="5.9" height="5.9"/>
	<rect x="174.5" y="27.6" class="st3" width="5.9" height="5.9"/>
	<rect x="180.4" y="27.6" class="st2" width="5.9" height="5.9"/>
	<rect x="186.1" y="27.6" class="st2" width="5.9" height="5.9"/>
	<rect x="157" y="33.5" class="st0" width="5.9" height="5.9"/>
	<rect x="162.8" y="33.5" class="st2" width="5.9" height="5.9"/>
	<rect x="168.6" y="33.5" class="st3" width="5.9" height="5.9"/>
	<rect x="174.5" y="33.5" class="st2" width="5.9" height="5.9"/>
	<rect x="180.4" y="33.5" class="st0" width="5.9" height="5.9"/>
	<rect x="186.1" y="33.5" class="st0" width="5.9" height="5.9"/>
	<rect x="151.1" y="39.4" class="st0" width="5.9" height="5.9"/>
	<rect x="157" y="39.4" class="st2" width="5.9" height="5.9"/>
	<rect x="162.8" y="39.4" class="st4" width="5.9" height="5.9"/>
	<rect x="168.6" y="39.4" class="st2" width="5.9" height="5.9"/>
	<rect x="174.5" y="39.4" class="st0" width="5.9" height="5.9"/>
	<rect x="145.3" y="45.2" class="st0" width="5.9" height="5.9"/>
	<rect x="151.1" y="45.2" class="st2" width="5.9" height="5.9"/>
	<rect x="157" y="45.2" class="st4" width="5.9" height="5.9"/>
	<rect x="162.8" y="45.2" class="st2" width="5.9" height="5.9"/>
	<rect x="168.6" y="45.2" class="st0" width="5.9" height="5.9"/>
	<rect x="139.5" y="51" class="st0" width="5.9" height="5.9"/>
	<rect x="145.3" y="51" class="st2" width="5.9" height="5.9"/>
	<rect x="151.1" y="51" class="st4" width="5.9" height="5.9"/>
	<rect x="157" y="51" class="st2" width="5.9" height="5.9"/>
	<rect x="162.8" y="51" class="st0" width="5.9" height="5.9"/>
	<rect x="75.3" y="56.9" class="st0" width="5.9" height="5.9"/>
	<rect x="81.1" y="56.9" class="st0" width="5.9" height="5.9"/>
	<rect x="86.9" y="56.9" class="st0" width="5.9" height="5.9"/>
	<rect x="92.8" y="56.9" class="st0" width="5.9" height="5.9"/>
	<rect x="98.7" y="56.9" class="st0" width="5.9" height="5.9"/>
	<rect x="133.7" y="56.9" class="st0" width="5.9" height="5.9"/>
	<rect x="139.5" y="56.9" class="st2" width="5.9" height="5.9"/>
	<rect x="145.3" y="56.9" class="st4" width="5.9" height="5.9"/>
	<rect x="151.1" y="56.9" class="st2" width="5.9" height="5.9"/>
	<rect x="157" y="56.9" class="st0" width="5.9" height="5.9"/>
	<rect x="63.6" y="62.7" class="st0" width="5.9" height="5.9"/>
	<rect x="69.4" y="62.7" class="st0" width="5.9" height="5.9"/>
	<rect x="75.3" y="62.7" class="st4" width="5.9" height="5.9"/>
	<rect x="81.1" y="62.7" class="st5" width="5.9" height="5.9"/>
	<rect x="86.9" y="62.7" class="st3" width="5.9" height="5.9"/>
	<rect x="92.8" y="62.7" class="st3" width="5.9" height="5.9"/>
	<rect x="98.7" y="62.7" class="st3" width="5.9" height="5.9"/>
	<rect x="104.4" y="62.7" class="st0" width="5.9" height="5.9"/>
	<rect x="110.3" y="62.7" class="st0" width="5.9" height="5.9"/>
	<rect x="127.8" y="62.7" class="st0" width="5.9" height="5.9"/>
	<rect x="133.7" y="62.7" class="st2" width="5.9" height="5.9"/>
	<rect x="139.5" y="62.7" class="st6" width="5.9" height="5.9"/>
	<rect x="145.3" y="62.7" class="st2" width="5.9" height="5.9"/>
	<rect x="151.1" y="62.7" class="st0" width="5.9" height="5.9"/>
	<rect x="157" y="62.7" class="st0" width="5.9" height="5.9"/>
	<rect x="162.8" y="62.7" class="st0" width="5.9" height="5.9"/>
	<rect x="168.6" y="62.7" class="st0" width="5.9" height="5.9"/>
	<rect x="174.5" y="62.7" class="st0" width="5.9" height="5.9"/>
	<rect x="180.4" y="62.7" class="st0" width="5.9" height="5.9"/>
	<rect x="57.8" y="68.5" class="st0" width="5.9" height="5.9"/>
	<rect x="63.6" y="68.5" class="st5" width="5.9" height="5.9"/>
	<rect x="69.4" y="68.5" class="st3" width="5.9" height="5.9"/>
	<rect x="75.3" y="68.5" class="st2" width="5.9" height="5.9"/>
	<rect x="81.1" y="68.5" class="st2" width="5.9" height="5.9"/>
	<rect x="86.9" y="68.5" class="st2" width="5.9" height="5.9"/>
	<rect x="92.8" y="68.5" class="st2" width="5.9" height="5.9"/>
	<rect x="98.7" y="68.5" class="st2" width="5.9" height="5.9"/>
	<rect x="104.4" y="68.5" class="st3" width="5.9" height="5.9"/>
	<rect x="110.3" y="68.5" class="st3" width="5.9" height="5.9"/>
	<rect x="116.2" y="68.5" class="st0" width="5.9" height="5.9"/>
	<rect x="121.9" y="68.5" class="st0" width="5.9" height="5.9"/>
	<rect x="127.8" y="68.5" class="st2" width="5.9" height="5.9"/>
	<rect x="133.7" y="68.5" class="st6" width="5.9" height="5.9"/>
	<rect x="139.5" y="68.5" class="st2" width="5.9" height="5.9"/>
	<rect x="145.3" y="68.5" class="st3" width="5.9" height="5.9"/>
	<rect x="151.1" y="68.5" class="st2" width="5.9" height="5.9"/>
	<rect x="157" y="68.5" class="st2" width="5.9" height="5.9"/>
	<rect x="162.8" y="68.5" class="st1" width="5.9" height="5.9"/>
	<rect x="168.6" y="68.5" class="st3" width="5.9" height="5.9"/>
	<rect x="174.5" y="68.5" class="st3" width="5.9" height="5.9"/>
	<rect x="180.4" y="68.5" class="st3" width="5.9" height="5.9"/>
	<rect x="186.1" y="68.5" class="st0" width="5.9" height="5.9"/>
	<rect x="52" y="74.3" class="st0" width="5.9" height="5.9"/>
	<rect x="57.8" y="74.3" class="st4" width="5.9" height="5.9"/>
	<rect x="63.6" y="74.3" class="st2" width="5.9" height="5.9"/>
	<rect x="69.4" y="74.3" class="st2" width="5.9" height="5.9"/>
	<rect x="75.3" y="74.3" class="st0" width="5.9" height="5.9"/>
	<rect x="81.1" y="74.3" class="st0" width="5.9" height="5.9"/>
	<rect x="86.9" y="74.3" class="st0" width="5.9" height="5.9"/>
	<rect x="92.8" y="74.3" class="st0" width="5.9" height="5.9"/>
	<rect x="98.7" y="74.3" class="st0" width="5.9" height="5.9"/>
	<rect x="104.4" y="74.3" class="st2" width="5.9" height="5.9"/>
	<rect x="110.3" y="74.3" class="st2" width="5.9" height="5.9"/>
	<rect x="116.2" y="74.3" class="st3" width="5.9" height="5.9"/>
	<rect x="121.9" y="74.3" class="st2" width="5.9" height="5.9"/>
	<rect x="127.8" y="74.3" class="st6" width="5.9" height="5.9"/>
	<rect x="133.7" y="74.3" class="st2" width="5.9" height="5.9"/>
	<rect x="139.5" y="74.3" class="st7" width="5.9" height="5.9"/>
	<rect x="145.3" y="74.3" class="st7" width="5.9" height="5.9"/>
	<rect x="151.1" y="74.3" class="st8" width="5.9" height="5.9"/>
	<rect x="157" y="74.3" class="st8" width="5.9" height="5.9"/>
	<rect x="162.8" y="74.3" class="st3" width="5.9" height="5.9"/>
	<rect x="168.6" y="74.3" class="st9" width="5.9" height="5.9"/>
	<rect x="174.5" y="74.3" class="st9" width="5.9" height="5.9"/>
	<rect x="180.4" y="74.3" class="st9" width="5.9" height="5.9"/>
	<rect x="186.1" y="74.3" class="st3" width="5.9" height="5.9"/>
	<rect x="46.1" y="80.2" class="st0" width="5.9" height="5.9"/>
	<rect x="52" y="80.2" class="st4" width="5.9" height="5.9"/>
	<rect x="57.8" y="80.2" class="st2" width="5.9" height="5.9"/>
	<rect x="63.6" y="80.2" class="st0" width="5.9" height="5.9"/>
	<rect x="69.4" y="80.2" class="st0" width="5.9" height="5.9"/>
	<rect x="104.4" y="80.2" class="st0" width="5.9" height="5.9"/>
	<rect x="110.3" y="80.2" class="st0" width="5.9" height="5.9"/>
	<rect x="116.2" y="80.2" class="st2" width="5.9" height="5.9"/>
	<rect x="121.9" y="80.2" class="st6" width="5.9" height="5.9"/>
	<rect x="127.8" y="80.2" class="st2" width="5.9" height="5.9"/>
	<rect x="133.7" y="80.2" class="st7" width="5.9" height="5.9"/>
	<rect x="139.5" y="80.2" class="st8" width="5.9" height="5.9"/>
	<rect x="145.3" y="80.2" class="st8" width="5.9" height="5.9"/>
	<rect x="151.1" y="80.2" class="st8" width="5.9" height="5.9"/>
	<rect x="157" y="80.2" class="st8" width="5.9" height="5.9"/>
	<rect x="162.8" y="80.2" class="st1" width="5.9" height="5.9"/>
	<rect x="168.6" y="80.2" class="st3" width="5.9" height="5.9"/>
	<rect x="174.5" y="80.2" class="st3" width="5.9" height="5.9"/>
	<rect x="180.4" y="80.2" class="st3" width="5.9" height="5.9"/>
	<rect x="186.1" y="80.2" class="st3" width="5.9" height="5.9"/>
	<rect x="40.2" y="86.1" class="st0" width="5.9" height="5.9"/>
	<rect x="46.1" y="86.1" class="st4" width="5.9" height="5.9"/>
	<rect x="52" y="86.1" class="st2" width="5.9" height="5.9"/>
	<rect x="57.8" y="86.1" class="st0" width="5.9" height="5.9"/>
	<rect x="104.4" y="86.1" class="st0" width="5.9" height="5.9"/>
	<rect x="110.3" y="86.1" class="st2" width="5.9" height="5.9"/>
	<rect x="116.2" y="86.1" class="st6" width="5.9" height="5.9"/>
	<rect x="121.9" y="86.1" class="st2" width="5.9" height="5.9"/>
	<rect x="127.8" y="86.1" class="st2" width="5.9" height="5.9"/>
	<rect x="133.7" y="86.1" class="st2" width="5.9" height="5.9"/>
	<rect x="139.5" y="86.1" class="st2" width="5.9" height="5.9"/>
	<rect x="145.3" y="86.1" class="st2" width="5.9" height="5.9"/>
	<rect x="151.1" y="86.1" class="st2" width="5.9" height="5.9"/>
	<rect x="157" y="86.1" class="st3" width="5.9" height="5.9"/>
	<rect x="162.8" y="86.1" class="st2" width="5.9" height="5.9"/>
	<rect x="168.6" y="86.1" class="st10" width="5.9" height="5.9"/>
	<rect x="174.5" y="86.1" class="st4" width="5.9" height="5.9"/>
	<rect x="180.4" y="86.1" class="st4" width="5.9" height="5.9"/>
	<rect x="186.1" y="86.1" class="st5" width="5.9" height="5.9"/>
	<rect x="40.2" y="91.8" class="st0" width="5.9" height="5.9"/>
	<rect x="46.1" y="91.8" class="st4" width="5.9" height="5.9"/>
	<rect x="52" y="91.8" class="st2" width="5.9" height="5.9"/>
	<rect x="57.8" y="91.8" class="st0" width="5.9" height="5.9"/>
	<rect x="98.7" y="91.8" class="st0" width="5.9" height="5.9"/>
	<rect x="104.4" y="91.8" class="st2" width="5.9" height="5.9"/>
	<rect x="110.3" y="91.8" class="st6" width="5.9" height="5.9"/>
	<rect x="116.2" y="91.8" class="st2" width="5.9" height="5.9"/>
	<rect x="121.9" y="91.8" class="st11" width="5.9" height="5.9"/>
	<rect x="127.8" y="91.8" class="st3" width="5.9" height="5.9"/>
	<rect x="133.7" y="91.8" class="st12" width="5.9" height="5.9"/>
	<rect x="139.5" y="91.8" class="st11" width="5.9" height="5.9"/>
	<rect x="145.3" y="91.8" class="st11" width="5.9" height="5.9"/>
	<rect x="151.1" y="91.8" class="st11" width="5.9" height="5.9"/>
	<rect x="157" y="91.8" class="st2" width="5.9" height="5.9"/>
	<rect x="162.8" y="91.8" class="st10" width="5.9" height="5.9"/>
	<rect x="168.6" y="91.8" class="st4" width="5.9" height="5.9"/>
	<rect x="174.5" y="91.8" class="st13" width="5.9" height="5.9"/>
	<rect x="180.4" y="91.8" class="st13" width="5.9" height="5.9"/>
	<rect x="186.1" y="91.8" class="st14" width="5.9" height="5.9"/>
	<rect x="34.5" y="97.7" class="st0" width="5.9" height="5.9"/>
	<rect x="40.2" y="97.7" class="st4" width="5.9" height="5.9"/>
	<rect x="46.1" y="97.7" class="st2" width="5.9" height="5.9"/>
	<rect x="52" y="97.7" class="st0" width="5.9" height="5.9"/>
	<rect x="92.8" y="97.7" class="st0" width="5.9" height="5.9"/>
	<rect x="98.7" y="97.7" class="st2" width="5.9" height="5.9"/>
	<rect x="104.4" y="97.7" class="st6" width="5.9" height="5.9"/>
	<rect x="110.3" y="97.7" class="st2" width="5.9" height="5.9"/>
	<rect x="116.2" y="97.7" class="st3" width="5.9" height="5.9"/>
	<rect x="121.9" y="97.7" class="st14" width="5.9" height="5.9"/>
	<rect x="127.8" y="97.7" class="st15" width="5.9" height="5.9"/>
	<rect x="133.7" y="97.7" class="st12" width="5.9" height="5.9"/>
	<rect x="139.5" y="97.7" class="st11" width="5.9" height="5.9"/>
	<rect x="145.3" y="97.7" class="st11" width="5.9" height="5.9"/>
	<rect x="151.1" y="97.7" class="st11" width="5.9" height="5.9"/>
	<rect x="157" y="97.7" class="st2" width="5.9" height="5.9"/>
	<rect x="162.8" y="97.7" class="st4" width="5.9" height="5.9"/>
	<rect x="168.6" y="97.7" class="st13" width="5.9" height="5.9"/>
	<rect x="174.5" y="97.7" class="st12" width="5.9" height="5.9"/>
	<rect x="180.4" y="97.7" class="st12" width="5.9" height="5.9"/>
	<rect x="186.1" y="97.7" class="st16" width="5.9" height="5.9"/>
	<rect x="34.5" y="103.6" class="st0" width="5.9" height="5.9"/>
	<rect x="40.2" y="103.6" class="st4" width="5.9" height="5.9"/>
	<rect x="46.1" y="103.6" class="st2" width="5.9" height="5.9"/>
	<rect x="52" y="103.6" class="st0" width="5.9" height="5.9"/>
	<rect x="86.9" y="103.6" class="st0" width="5.9" height="5.9"/>
	<rect x="92.8" y="103.6" class="st2" width="5.9" height="5.9"/>
	<rect x="98.7" y="103.6" class="st6" width="5.9" height="5.9"/>
	<rect x="104.4" y="103.6" class="st2" width="5.9" height="5.9"/>
	<rect x="110.3" y="103.6" class="st3" width="5.9" height="5.9"/>
	<rect x="116.2" y="103.6" class="st11" width="5.9" height="5.9"/>
	<rect x="121.9" y="103.6" class="st12" width="5.9" height="5.9"/>
	<rect x="127.8" y="103.6" class="st12" width="5.9" height="5.9"/>
	<rect x="133.7" y="103.6" class="st12" width="5.9" height="5.9"/>
	<rect x="139.5" y="103.6" class="st11" width="5.9" height="5.9"/>
	<rect x="145.3" y="103.6" class="st11" width="5.9" height="5.9"/>
	<rect x="151.1" y="103.6" class="st2" width="5.9" height="5.9"/>
	<rect x="157" y="103.6" class="st4" width="5.9" height="5.9"/>
	<rect x="162.8" y="103.6" class="st13" width="5.9" height="5.9"/>
	<rect x="168.6" y="103.6" class="st12" width="5.9" height="5.9"/>
	<rect x="174.5" y="103.6" class="st8" width="5.9" height="5.9"/>
	<rect x="180.4" y="103.6" class="st8" width="5.9" height="5.9"/>
	<rect x="186.1" y="103.6" class="st8" width="5.9" height="5.9"/>
	<rect x="34.5" y="109.3" class="st0" width="5.9" height="5.9"/>
	<rect x="40.2" y="109.3" class="st5" width="5.9" height="5.9"/>
	<rect x="46.1" y="109.3" class="st2" width="5.9" height="5.9"/>
	<rect x="52" y="109.3" class="st0" width="5.9" height="5.9"/>
	<rect x="81.1" y="109.3" class="st0" width="5.9" height="5.9"/>
	<rect x="86.9" y="109.3" class="st2" width="5.9" height="5.9"/>
	<rect x="92.8" y="109.3" class="st4" width="5.9" height="5.9"/>
	<rect x="98.7" y="109.3" class="st2" width="5.9" height="5.9"/>
	<rect x="104.4" y="109.3" class="st0" width="5.9" height="5.9"/>
	<rect x="110.3" y="109.3" class="st3" width="5.9" height="5.9"/>
	<rect x="116.2" y="109.3" class="st11" width="5.9" height="5.9"/>
	<rect x="121.9" y="109.3" class="st11" width="5.9" height="5.9"/>
	<rect x="127.8" y="109.3" class="st11" width="5.9" height="5.9"/>
	<rect x="133.7" y="109.3" class="st11" width="5.9" height="5.9"/>
	<rect x="139.5" y="109.3" class="st11" width="5.9" height="5.9"/>
	<rect x="145.3" y="109.3" class="st11" width="5.9" height="5.9"/>
	<rect x="151.1" y="109.3" class="st2" width="5.9" height="5.9"/>
	<rect x="157" y="109.3" class="st4" width="5.9" height="5.9"/>
	<rect x="162.8" y="109.3" class="st13" width="5.9" height="5.9"/>
	<rect x="168.6" y="109.3" class="st12" width="5.9" height="5.9"/>
	<rect x="174.5" y="109.3" class="st8" width="5.9" height="5.9"/>
	<rect x="180.4" y="109.3" class="st17" width="5.9" height="5.9"/>
	<rect x="186.1" y="109.3" class="st8" width="5.9" height="5.9"/>
	<rect x="40.2" y="115.2" class="st0" width="5.9" height="5.9"/>
	<rect x="46.1" y="115.2" class="st5" width="5.9" height="5.9"/>
	<rect x="52" y="115.2" class="st2" width="5.9" height="5.9"/>
	<rect x="57.8" y="115.2" class="st0" width="5.9" height="5.9"/>
	<rect x="75.3" y="115.2" class="st0" width="5.9" height="5.9"/>
	<rect x="81.1" y="115.2" class="st2" width="5.9" height="5.9"/>
	<rect x="86.9" y="115.2" class="st5" width="5.9" height="5.9"/>
	<rect x="92.8" y="115.2" class="st2" width="5.9" height="5.9"/>
	<rect x="98.7" y="115.2" class="st0" width="5.9" height="5.9"/>
	<rect x="104.4" y="115.2" class="st1" width="5.9" height="5.9"/>
	<rect x="110.3" y="115.2" class="st3" width="5.9" height="5.9"/>
	<rect x="116.2" y="115.2" class="st3" width="5.9" height="5.9"/>
	<rect x="121.9" y="115.2" class="st14" width="5.9" height="5.9"/>
	<rect x="127.8" y="115.2" class="st14" width="5.9" height="5.9"/>
	<rect x="133.7" y="115.2" class="st3" width="5.9" height="5.9"/>
	<rect x="139.5" y="115.2" class="st3" width="5.9" height="5.9"/>
	<rect x="145.3" y="115.2" class="st1" width="5.9" height="5.9"/>
	<rect x="151.1" y="115.2" class="st2" width="5.9" height="5.9"/>
	<rect x="157" y="115.2" class="st4" width="5.9" height="5.9"/>
	<rect x="162.8" y="115.2" class="st13" width="5.9" height="5.9"/>
	<rect x="168.6" y="115.2" class="st12" width="5.9" height="5.9"/>
	<rect x="174.5" y="115.2" class="st8" width="5.9" height="5.9"/>
	<rect x="180.4" y="115.2" class="st17" width="5.9" height="5.9"/>
	<rect x="186.1" y="115.2" class="st8" width="5.9" height="5.9"/>
	<rect x="40.2" y="121.1" class="st0" width="5.9" height="5.9"/>
	<rect x="46.1" y="121.1" class="st5" width="5.9" height="5.9"/>
	<rect x="52" y="121.1" class="st2" width="5.9" height="5.9"/>
	<rect x="57.8" y="121.1" class="st0" width="5.9" height="5.9"/>
	<rect x="63.6" y="121.1" class="st0" width="5.9" height="5.9"/>
	<rect x="69.4" y="121.1" class="st0" width="5.9" height="5.9"/>
	<rect x="75.3" y="121.1" class="st2" width="5.9" height="5.9"/>
	<rect x="81.1" y="121.1" class="st5" width="5.9" height="5.9"/>
	<rect x="86.9" y="121.1" class="st2" width="5.9" height="5.9"/>
	<rect x="92.8" y="121.1" class="st0" width="5.9" height="5.9"/>
	<rect x="98.7" y="121.1" class="st0" width="5.9" height="5.9"/>
	<rect x="104.4" y="121.1" class="st3" width="5.9" height="5.9"/>
	<rect x="110.3" y="121.1" class="st8" width="5.9" height="5.9"/>
	<rect x="116.2" y="121.1" class="st8" width="5.9" height="5.9"/>
	<rect x="121.9" y="121.1" class="st8" width="5.9" height="5.9"/>
	<rect x="127.8" y="121.1" class="st8" width="5.9" height="5.9"/>
	<rect x="133.7" y="121.1" class="st8" width="5.9" height="5.9"/>
	<rect x="139.5" y="121.1" class="st8" width="5.9" height="5.9"/>
	<rect x="145.3" y="121.1" class="st2" width="5.9" height="5.9"/>
	<rect x="151.1" y="121.1" class="st10" width="5.9" height="5.9"/>
	<rect x="157" y="121.1" class="st5" width="5.9" height="5.9"/>
	<rect x="162.8" y="121.1" class="st13" width="5.9" height="5.9"/>
	<rect x="168.6" y="121.1" class="st12" width="5.9" height="5.9"/>
	<rect x="174.5" y="121.1" class="st8" width="5.9" height="5.9"/>
	<rect x="180.4" y="121.1" class="st8" width="5.9" height="5.9"/>
	<rect x="186.1" y="121.1" class="st8" width="5.9" height="5.9"/>
	<rect x="46.1" y="126.9" class="st0" width="5.9" height="5.9"/>
	<rect x="52" y="126.9" class="st5" width="5.9" height="5.9"/>
	<rect x="57.8" y="126.9" class="st11" width="5.9" height="5.9"/>
	<rect x="63.6" y="126.9" class="st11" width="5.9" height="5.9"/>
	<rect x="69.4" y="126.9" class="st2" width="5.9" height="5.9"/>
	<rect x="75.3" y="126.9" class="st5" width="5.9" height="5.9"/>
	<rect x="81.1" y="126.9" class="st2" width="5.9" height="5.9"/>
	<rect x="86.9" y="126.9" class="st5" width="5.9" height="5.9"/>
	<rect x="92.8" y="126.9" class="st5" width="5.9" height="5.9"/>
	<rect x="98.7" y="126.9" class="st5" width="5.9" height="5.9"/>
	<rect x="104.4" y="126.9" class="st2" width="5.9" height="5.9"/>
	<rect x="110.3" y="126.9" class="st8" width="5.9" height="5.9"/>
	<rect x="116.2" y="126.9" class="st11" width="5.9" height="5.9"/>
	<rect x="121.9" y="126.9" class="st11" width="5.9" height="5.9"/>
	<rect x="127.8" y="126.9" class="st11" width="5.9" height="5.9"/>
	<rect x="133.7" y="126.9" class="st11" width="5.9" height="5.9"/>
	<rect x="139.5" y="126.9" class="st8" width="5.9" height="5.9"/>
	<rect x="145.3" y="126.9" class="st2" width="5.9" height="5.9"/>
	<rect x="151.1" y="126.9" class="st10" width="5.9" height="5.9"/>
	<rect x="157" y="126.9" class="st10" width="5.9" height="5.9"/>
	<rect x="162.8" y="126.9" class="st4" width="5.9" height="5.9"/>
	<rect x="168.6" y="126.9" class="st13" width="5.9" height="5.9"/>
	<rect x="174.5" y="126.9" class="st12" width="5.9" height="5.9"/>
	<rect x="180.4" y="126.9" class="st12" width="5.9" height="5.9"/>
	<rect x="186.1" y="126.9" class="st16" width="5.9" height="5.9"/>
	<rect x="34.5" y="132.7" class="st0" width="5.9" height="5.9"/>
	<rect x="40.2" y="132.7" class="st0" width="5.9" height="5.9"/>
	<rect x="46.1" y="132.7" class="st0" width="5.9" height="5.9"/>
	<rect x="52" y="132.7" class="st3" width="5.9" height="5.9"/>
	<rect x="57.8" y="132.7" class="st2" width="5.9" height="5.9"/>
	<rect x="63.6" y="132.7" class="st2" width="5.9" height="5.9"/>
	<rect x="69.4" y="132.7" class="st5" width="5.9" height="5.9"/>
	<rect x="75.3" y="132.7" class="st6" width="5.9" height="5.9"/>
	<rect x="81.1" y="132.7" class="st3" width="5.9" height="5.9"/>
	<rect x="86.9" y="132.7" class="st3" width="5.9" height="5.9"/>
	<rect x="92.8" y="132.7" class="st3" width="5.9" height="5.9"/>
	<rect x="98.7" y="132.7" class="st3" width="5.9" height="5.9"/>
	<rect x="104.4" y="132.7" class="st15" width="5.9" height="5.9"/>
	<rect x="110.3" y="132.7" class="st2" width="5.9" height="5.9"/>
	<rect x="116.2" y="132.7" class="st11" width="5.9" height="5.9"/>
	<rect x="121.9" y="132.7" class="st11" width="5.9" height="5.9"/>
	<rect x="127.8" y="132.7" class="st11" width="5.9" height="5.9"/>
	<rect x="133.7" y="132.7" class="st11" width="5.9" height="5.9"/>
	<rect x="139.5" y="132.7" class="st2" width="5.9" height="5.9"/>
	<rect x="145.3" y="132.7" class="st15" width="5.9" height="5.9"/>
	<rect x="151.1" y="132.7" class="st2" width="5.9" height="5.9"/>
	<rect x="157" y="132.7" class="st3" width="5.9" height="5.9"/>
	<rect x="162.8" y="132.7" class="st10" width="5.9" height="5.9"/>
	<rect x="168.6" y="132.7" class="st5" width="5.9" height="5.9"/>
	<rect x="174.5" y="132.7" class="st13" width="5.9" height="5.9"/>
	<rect x="180.4" y="132.7" class="st13" width="5.9" height="5.9"/>
	<rect x="186.1" y="132.7" class="st14" width="5.9" height="5.9"/>
	<rect x="28.6" y="138.6" class="st0" width="5.9" height="5.9"/>
	<rect x="34.5" y="138.6" class="st3" width="5.9" height="5.9"/>
	<rect x="40.2" y="138.6" class="st3" width="5.9" height="5.9"/>
	<rect x="46.1" y="138.6" class="st3" width="5.9" height="5.9"/>
	<rect x="52" y="138.6" class="st2" width="5.9" height="5.9"/>
	<rect x="57.8" y="138.6" class="st4" width="5.9" height="5.9"/>
	<rect x="63.6" y="138.6" class="st6" width="5.9" height="5.9"/>
	<rect x="69.4" y="138.6" class="st6" width="5.9" height="5.9"/>
	<rect x="75.3" y="138.6" class="st2" width="5.9" height="5.9"/>
	<rect x="81.1" y="138.6" class="st2" width="5.9" height="5.9"/>
	<rect x="86.9" y="138.6" class="st2" width="5.9" height="5.9"/>
	<rect x="92.8" y="138.6" class="st2" width="5.9" height="5.9"/>
	<rect x="98.7" y="138.6" class="st2" width="5.9" height="5.9"/>
	<rect x="104.4" y="138.6" class="st0" width="5.9" height="5.9"/>
	<rect x="110.3" y="138.6" class="st0" width="5.9" height="5.9"/>
	<rect x="116.2" y="138.6" class="st0" width="5.9" height="5.9"/>
	<rect x="121.9" y="138.6" class="st0" width="5.9" height="5.9"/>
	<rect x="127.8" y="138.6" class="st0" width="5.9" height="5.9"/>
	<rect x="133.7" y="138.6" class="st0" width="5.9" height="5.9"/>
	<rect x="139.5" y="138.6" class="st0" width="5.9" height="5.9"/>
	<rect x="145.3" y="138.6" class="st0" width="5.9" height="5.9"/>
	<rect x="151.1" y="138.6" class="st0" width="5.9" height="5.9"/>
	<rect x="157" y="138.6" class="st0" width="5.9" height="5.9"/>
	<rect x="162.8" y="138.6" class="st0" width="5.9" height="5.9"/>
	<rect x="168.6" y="138.6" class="st0" width="5.9" height="5.9"/>
	<rect x="174.5" y="138.6" class="st0" width="5.9" height="5.9"/>
	<rect x="180.4" y="138.6" class="st0" width="5.9" height="5.9"/>
	<rect x="186.1" y="138.6" class="st0" width="5.9" height="5.9"/>
	<rect x="22.7" y="144.4" class="st0" width="5.9" height="5.9"/>
	<rect x="28.6" y="144.4" class="st3" width="5.9" height="5.9"/>
	<rect x="34.5" y="144.4" class="st18" width="5.9" height="5.9"/>
	<rect x="40.2" y="144.4" class="st18" width="5.9" height="5.9"/>
	<rect x="46.1" y="144.4" class="st18" width="5.9" height="5.9"/>
	<rect x="52" y="144.4" class="st3" width="5.9" height="5.9"/>
	<rect x="57.8" y="144.4" class="st3" width="5.9" height="5.9"/>
	<rect x="63.6" y="144.4" class="st3" width="5.9" height="5.9"/>
	<rect x="69.4" y="144.4" class="st2" width="5.9" height="5.9"/>
	<rect x="75.3" y="144.4" class="st6" width="5.9" height="5.9"/>
	<rect x="81.1" y="144.4" class="st6" width="5.9" height="5.9"/>
	<rect x="86.9" y="144.4" class="st6" width="5.9" height="5.9"/>
	<rect x="92.8" y="144.4" class="st6" width="5.9" height="5.9"/>
	<rect x="98.7" y="144.4" class="st2" width="5.9" height="5.9"/>
	<rect x="104.4" y="144.4" class="st2" width="5.9" height="5.9"/>
	<rect x="110.3" y="144.4" class="st0" width="5.9" height="5.9"/>
	<rect x="17" y="150.2" class="st0" width="5.9" height="5.9"/>
	<rect x="22.7" y="150.2" class="st3" width="5.9" height="5.9"/>
	<rect x="28.6" y="150.2" class="st18" width="5.9" height="5.9"/>
	<rect x="34.5" y="150.2" class="st18" width="5.9" height="5.9"/>
	<rect x="40.2" y="150.2" class="st18" width="5.9" height="5.9"/>
	<rect x="46.1" y="150.2" class="st18" width="5.9" height="5.9"/>
	<rect x="52" y="150.2" class="st18" width="5.9" height="5.9"/>
	<rect x="57.8" y="150.2" class="st18" width="5.9" height="5.9"/>
	<rect x="63.6" y="150.2" class="st6" width="5.9" height="5.9"/>
	<rect x="69.4" y="150.2" class="st6" width="5.9" height="5.9"/>
	<rect x="75.3" y="150.2" class="st6" width="5.9" height="5.9"/>
	<rect x="81.1" y="150.2" class="st6" width="5.9" height="5.9"/>
	<rect x="86.9" y="150.2" class="st6" width="5.9" height="5.9"/>
	<rect x="92.8" y="150.2" class="st2" width="5.9" height="5.9"/>
	<rect x="98.7" y="150.2" class="st5" width="5.9" height="5.9"/>
	<rect x="104.4" y="150.2" class="st2" width="5.9" height="5.9"/>
	<rect x="110.3" y="150.2" class="st0" width="5.9" height="5.9"/>
	<rect x="17" y="156" class="st0" width="5.9" height="5.9"/>
	<rect x="22.7" y="156" class="st2" width="5.9" height="5.9"/>
	<rect x="28.6" y="156" class="st3" width="5.9" height="5.9"/>
	<rect x="34.5" y="156" class="st3" width="5.9" height="5.9"/>
	<rect x="40.2" y="156" class="st3" width="5.9" height="5.9"/>
	<rect x="46.1" y="156" class="st3" width="5.9" height="5.9"/>
	<rect x="52" y="156" class="st3" width="5.9" height="5.9"/>
	<rect x="57.8" y="156" class="st3" width="5.9" height="5.9"/>
	<rect x="63.6" y="156" class="st2" width="5.9" height="5.9"/>
	<rect x="69.4" y="156" class="st2" width="5.9" height="5.9"/>
	<rect x="75.3" y="156" class="st2" width="5.9" height="5.9"/>
	<rect x="81.1" y="156" class="st2" width="5.9" height="5.9"/>
	<rect x="86.9" y="156" class="st2" width="5.9" height="5.9"/>
	<rect x="92.8" y="156" class="st5" width="5.9" height="5.9"/>
	<rect x="98.7" y="156" class="st5" width="5.9" height="5.9"/>
	<rect x="104.4" y="156" class="st2" width="5.9" height="5.9"/>
	<rect x="110.3" y="156" class="st0" width="5.9" height="5.9"/>
	<rect x="17" y="161.9" class="st0" width="5.9" height="5.9"/>
	<rect x="22.7" y="161.9" class="st3" width="5.9" height="5.9"/>
	<rect x="28.6" y="161.9" class="st19" width="5.9" height="5.9"/>
	<rect x="34.5" y="161.9" class="st19" width="5.9" height="5.9"/>
	<rect x="40.2" y="161.9" class="st19" width="5.9" height="5.9"/>
	<rect x="46.1" y="161.9" class="st19" width="5.9" height="5.9"/>
	<rect x="52" y="161.9" class="st19" width="5.9" height="5.9"/>
	<rect x="57.8" y="161.9" class="st19" width="5.9" height="5.9"/>
	<rect x="63.6" y="161.9" class="st19" width="5.9" height="5.9"/>
	<rect x="69.4" y="161.9" class="st19" width="5.9" height="5.9"/>
	<rect x="75.3" y="161.9" class="st19" width="5.9" height="5.9"/>
	<rect x="81.1" y="161.9" class="st19" width="5.9" height="5.9"/>
	<rect x="86.9" y="161.9" class="st2" width="5.9" height="5.9"/>
	<rect x="92.8" y="161.9" class="st5" width="5.9" height="5.9"/>
	<rect x="98.7" y="161.9" class="st2" width="5.9" height="5.9"/>
	<rect x="104.4" y="161.9" class="st0" width="5.9" height="5.9"/>
	<rect x="17" y="167.8" class="st0" width="5.9" height="5.9"/>
	<rect x="22.7" y="167.8" class="st3" width="5.9" height="5.9"/>
	<rect x="28.6" y="167.8" class="st3" width="5.9" height="5.9"/>
	<rect x="34.5" y="167.8" class="st3" width="5.9" height="5.9"/>
	<rect x="40.2" y="167.8" class="st3" width="5.9" height="5.9"/>
	<rect x="46.1" y="167.8" class="st3" width="5.9" height="5.9"/>
	<rect x="52" y="167.8" class="st3" width="5.9" height="5.9"/>
	<rect x="57.8" y="167.8" class="st3" width="5.9" height="5.9"/>
	<rect x="63.6" y="167.8" class="st3" width="5.9" height="5.9"/>
	<rect x="69.4" y="167.8" class="st3" width="5.9" height="5.9"/>
	<rect x="75.3" y="167.8" class="st2" width="5.9" height="5.9"/>
	<rect x="81.1" y="167.8" class="st2" width="5.9" height="5.9"/>
	<rect x="86.9" y="167.8" class="st2" width="5.9" height="5.9"/>
	<rect x="92.8" y="167.8" class="st2" width="5.9" height="5.9"/>
	<rect x="98.7" y="167.8" class="st0" width="5.9" height="5.9"/>
	<rect x="22.7" y="173.5" class="st0" width="5.9" height="5.9"/>
	<rect x="28.6" y="173.5" class="st0" width="5.9" height="5.9"/>
	<rect x="34.5" y="173.5" class="st0" width="5.9" height="5.9"/>
	<rect x="40.2" y="173.5" class="st0" width="5.9" height="5.9"/>
	<rect x="46.1" y="173.5" class="st0" width="5.9" height="5.9"/>
	<rect x="52" y="173.5" class="st0" width="5.9" height="5.9"/>
	<rect x="57.8" y="173.5" class="st0" width="5.9" height="5.9"/>
	<rect x="63.6" y="173.5" class="st0" width="5.9" height="5.9"/>
	<rect x="69.4" y="173.5" class="st0" width="5.9" height="5.9"/>
	<rect x="75.3" y="173.5" class="st0" width="5.9" height="5.9"/>
	<rect x="81.1" y="173.5" class="st0" width="5.9" height="5.9"/>
	<rect x="86.9" y="173.5" class="st0" width="5.9" height="5.9"/>
	<rect x="92.8" y="173.5" class="st0" width="5.9" height="5.9"/>
</g>
</svg>
