<?xml version="1.0" encoding="utf-8"?>
<!-- Generator: Adobe Illustrator 27.9.0, SVG Export Plug-In . SVG Version: 6.00 Build 0)  -->
<svg version="1.1" id="Layer_1" shape-rendering="crispEdges"
	 xmlns="http://www.w3.org/2000/svg" xmlns:xlink="http://www.w3.org/1999/xlink" x="0px" y="0px" viewBox="0 0 192 192"
	 style="enable-background:new 0 0 192 192;" xml:space="preserve">
<style type="text/css">
	.st0{fill:#FF9648;}
	.st1{fill:#2BA43E;}
	.st2{fill:#C7E391;}
	.st3{fill:#25756F;}
	.st4{fill:#1E8C54;}
	.st5{fill:#8ACC59;}
	.st6{fill:#2FA456;}
	.st7{fill:#8D5386;}
	.st8{fill:#E2574A;}
	.st9{fill:#E17557;}
	.st10{fill:#B55D83;}
	.st11{fill:#1D8566;}
	.st12{fill:#C73D62;}
	.st13{fill:#E6C874;}
	.st14{fill:#B5E273;}
	.st15{fill:#35933B;}
	.st16{fill:#50B06E;}
	.st17{fill:#4A8E72;}
	.st18{fill:#1F649B;}
	.st19{fill:#2CA265;}
	.st20{fill:#1DA162;}
	.st21{fill:#CF6F87;}
	.st22{fill:#E98416;}
	.st23{fill:#E96E16;}
	.st24{fill:#E7A55D;}
	.st25{fill:#EE993D;}
	.st26{fill:#EE9535;}
	.st27{fill:#694F86;}
	.st28{fill:#B96736;}
	.st29{fill:#D3D15C;}
	.st30{fill:#D85075;}
	.st31{fill:#DA7FA0;}
	.st32{fill:#D45D82;}
	.st33{fill:#EDE5B7;}
	.st34{fill:#B3534E;}
	.st35{fill:#922D52;}
</style>
<g>
	<rect x="66" class="st0" width="6" height="6"/>
	<rect x="72" class="st0" width="6" height="6"/>
	<rect x="78" class="st0" width="6" height="6"/>
	<rect x="84" class="st0" width="6" height="6"/>
	<rect x="36" y="6" class="st0" width="6" height="6"/>
	<rect x="42" y="6" class="st0" width="6" height="6"/>
	<rect x="48" y="6" class="st0" width="6" height="6"/>
	<rect x="60" y="6" class="st0" width="6" height="6"/>
	<rect x="66" y="6" class="st1" width="6" height="6"/>
	<rect x="72" y="6" class="st1" width="6" height="6"/>
	<rect x="78" y="6" class="st1" width="6" height="6"/>
	<rect x="84" y="6" class="st1" width="6" height="6"/>
	<rect x="90" y="6" class="st0" width="6" height="6"/>
	<rect x="102" y="6" class="st0" width="6" height="6"/>
	<rect x="108" y="6" class="st0" width="6" height="6"/>
	<rect x="114" y="6" class="st0" width="6" height="6"/>
	<rect x="150" y="6" class="st0" width="6" height="6"/>
	<rect x="168" y="6" class="st0" width="6" height="6"/>
	<rect x="30" y="12" class="st0" width="6" height="6"/>
	<rect x="36" y="12" class="st1" width="6" height="6"/>
	<rect x="42" y="12" class="st1" width="6" height="6"/>
	<rect x="48" y="12" class="st1" width="6" height="6"/>
	<rect x="54" y="12" class="st0" width="6" height="6"/>
	<rect x="60" y="12" class="st1" width="6" height="6"/>
	<rect x="66" y="12" class="st2" width="6" height="6"/>
	<rect x="72" y="12" class="st2" width="6" height="6"/>
	<rect x="78" y="12" class="st2" width="6" height="6"/>
	<rect x="84" y="12" class="st2" width="6" height="6"/>
	<rect x="90" y="12" class="st1" width="6" height="6"/>
	<rect x="96" y="12" class="st0" width="6" height="6"/>
	<rect x="102" y="12" class="st1" width="6" height="6"/>
	<rect x="108" y="12" class="st1" width="6" height="6"/>
	<rect x="114" y="12" class="st1" width="6" height="6"/>
	<rect x="120" y="12" class="st0" width="6" height="6"/>
	<rect x="144" y="12" class="st0" width="6" height="6"/>
	<rect x="150" y="12" class="st3" width="6" height="6"/>
	<rect x="156" y="12" class="st0" width="6" height="6"/>
	<rect x="162" y="12" class="st0" width="6" height="6"/>
	<rect x="168" y="12" class="st3" width="6" height="6"/>
	<rect x="174" y="12" class="st0" width="6" height="6"/>
	<rect x="24" y="18" class="st0" width="6" height="6"/>
	<rect x="30" y="18" class="st1" width="6" height="6"/>
	<rect x="36" y="18" class="st2" width="6" height="6"/>
	<rect x="42" y="18" class="st2" width="6" height="6"/>
	<rect x="48" y="18" class="st2" width="6" height="6"/>
	<rect x="54" y="18" class="st4" width="6" height="6"/>
	<rect x="60" y="18" class="st5" width="6" height="6"/>
	<rect x="66" y="18" class="st5" width="6" height="6"/>
	<rect x="72" y="18" class="st5" width="6" height="6"/>
	<rect x="78" y="18" class="st5" width="6" height="6"/>
	<rect x="84" y="18" class="st5" width="6" height="6"/>
	<rect x="90" y="18" class="st5" width="6" height="6"/>
	<rect x="96" y="18" class="st4" width="6" height="6"/>
	<rect x="102" y="18" class="st2" width="6" height="6"/>
	<rect x="108" y="18" class="st2" width="6" height="6"/>
	<rect x="114" y="18" class="st2" width="6" height="6"/>
	<rect x="120" y="18" class="st1" width="6" height="6"/>
	<rect x="126" y="18" class="st0" width="6" height="6"/>
	<rect x="150" y="18" class="st0" width="6" height="6"/>
	<rect x="156" y="18" class="st3" width="6" height="6"/>
	<rect x="162" y="18" class="st3" width="6" height="6"/>
	<rect x="168" y="18" class="st0" width="6" height="6"/>
	<rect x="18" y="24" class="st0" width="6" height="6"/>
	<rect x="24" y="24" class="st4" width="6" height="6"/>
	<rect x="30" y="24" class="st2" width="6" height="6"/>
	<rect x="36" y="24" class="st5" width="6" height="6"/>
	<rect x="42" y="24" class="st6" width="6" height="6"/>
	<rect x="48" y="24" class="st6" width="6" height="6"/>
	<rect x="54" y="24" class="st6" width="6" height="6"/>
	<rect x="60" y="24" class="st5" width="6" height="6"/>
	<rect x="66" y="24" class="st6" width="6" height="6"/>
	<rect x="72" y="24" class="st6" width="6" height="6"/>
	<rect x="78" y="24" class="st6" width="6" height="6"/>
	<rect x="84" y="24" class="st6" width="6" height="6"/>
	<rect x="90" y="24" class="st5" width="6" height="6"/>
	<rect x="96" y="24" class="st6" width="6" height="6"/>
	<rect x="102" y="24" class="st6" width="6" height="6"/>
	<rect x="108" y="24" class="st6" width="6" height="6"/>
	<rect x="114" y="24" class="st5" width="6" height="6"/>
	<rect x="120" y="24" class="st2" width="6" height="6"/>
	<rect x="126" y="24" class="st4" width="6" height="6"/>
	<rect x="132" y="24" class="st0" width="6" height="6"/>
	<rect x="144" y="24" class="st0" width="6" height="6"/>
	<rect x="150" y="24" class="st7" width="6" height="6"/>
	<rect x="156" y="24" class="st8" width="6" height="6"/>
	<rect x="162" y="24" class="st9" width="6" height="6"/>
	<rect x="168" y="24" class="st10" width="6" height="6"/>
	<rect x="174" y="24" class="st0" width="6" height="6"/>
	<rect x="18" y="30" class="st0" width="6" height="6"/>
	<rect x="24" y="30" class="st11" width="6" height="6"/>
	<rect x="30" y="30" class="st5" width="6" height="6"/>
	<rect x="36" y="30" class="st6" width="6" height="6"/>
	<rect x="42" y="30" class="st6" width="6" height="6"/>
	<rect x="48" y="30" class="st6" width="6" height="6"/>
	<rect x="54" y="30" class="st6" width="6" height="6"/>
	<rect x="60" y="30" class="st11" width="6" height="6"/>
	<rect x="66" y="30" class="st6" width="6" height="6"/>
	<rect x="72" y="30" class="st6" width="6" height="6"/>
	<rect x="78" y="30" class="st6" width="6" height="6"/>
	<rect x="84" y="30" class="st6" width="6" height="6"/>
	<rect x="90" y="30" class="st11" width="6" height="6"/>
	<rect x="96" y="30" class="st6" width="6" height="6"/>
	<rect x="102" y="30" class="st6" width="6" height="6"/>
	<rect x="108" y="30" class="st6" width="6" height="6"/>
	<rect x="114" y="30" class="st6" width="6" height="6"/>
	<rect x="120" y="30" class="st5" width="6" height="6"/>
	<rect x="126" y="30" class="st11" width="6" height="6"/>
	<rect x="132" y="30" class="st0" width="6" height="6"/>
	<rect x="138" y="30" class="st0" width="6" height="6"/>
	<rect x="144" y="30" class="st7" width="6" height="6"/>
	<rect x="150" y="30" class="st12" width="6" height="6"/>
	<rect x="156" y="30" class="st9" width="6" height="6"/>
	<rect x="162" y="30" class="st13" width="6" height="6"/>
	<rect x="168" y="30" class="st9" width="6" height="6"/>
	<rect x="174" y="30" class="st10" width="6" height="6"/>
	<rect x="180" y="30" class="st0" width="6" height="6"/>
	<rect x="18" y="36" class="st0" width="6" height="6"/>
	<rect x="24" y="36" class="st11" width="6" height="6"/>
	<rect x="30" y="36" class="st5" width="6" height="6"/>
	<rect x="36" y="36" class="st6" width="6" height="6"/>
	<rect x="42" y="36" class="st6" width="6" height="6"/>
	<rect x="48" y="36" class="st6" width="6" height="6"/>
	<rect x="54" y="36" class="st11" width="6" height="6"/>
	<rect x="60" y="36" class="st14" width="6" height="6"/>
	<rect x="66" y="36" class="st11" width="6" height="6"/>
	<rect x="72" y="36" class="st6" width="6" height="6"/>
	<rect x="78" y="36" class="st6" width="6" height="6"/>
	<rect x="84" y="36" class="st11" width="6" height="6"/>
	<rect x="90" y="36" class="st14" width="6" height="6"/>
	<rect x="96" y="36" class="st11" width="6" height="6"/>
	<rect x="102" y="36" class="st6" width="6" height="6"/>
	<rect x="108" y="36" class="st6" width="6" height="6"/>
	<rect x="114" y="36" class="st6" width="6" height="6"/>
	<rect x="120" y="36" class="st5" width="6" height="6"/>
	<rect x="126" y="36" class="st11" width="6" height="6"/>
	<rect x="132" y="36" class="st0" width="6" height="6"/>
	<rect x="138" y="36" class="st0" width="6" height="6"/>
	<rect x="144" y="36" class="st7" width="6" height="6"/>
	<rect x="150" y="36" class="st12" width="6" height="6"/>
	<rect x="156" y="36" class="st8" width="6" height="6"/>
	<rect x="162" y="36" class="st9" width="6" height="6"/>
	<rect x="168" y="36" class="st8" width="6" height="6"/>
	<rect x="174" y="36" class="st10" width="6" height="6"/>
	<rect x="180" y="36" class="st0" width="6" height="6"/>
	<rect x="12" y="42" class="st0" width="6" height="6"/>
	<rect x="18" y="42" class="st11" width="6" height="6"/>
	<rect x="24" y="42" class="st14" width="6" height="6"/>
	<rect x="30" y="42" class="st6" width="6" height="6"/>
	<rect x="36" y="42" class="st6" width="6" height="6"/>
	<rect x="42" y="42" class="st6" width="6" height="6"/>
	<rect x="48" y="42" class="st11" width="6" height="6"/>
	<rect x="54" y="42" class="st14" width="6" height="6"/>
	<rect x="60" y="42" class="st6" width="6" height="6"/>
	<rect x="66" y="42" class="st14" width="6" height="6"/>
	<rect x="72" y="42" class="st11" width="6" height="6"/>
	<rect x="78" y="42" class="st11" width="6" height="6"/>
	<rect x="84" y="42" class="st14" width="6" height="6"/>
	<rect x="90" y="42" class="st6" width="6" height="6"/>
	<rect x="96" y="42" class="st14" width="6" height="6"/>
	<rect x="102" y="42" class="st11" width="6" height="6"/>
	<rect x="108" y="42" class="st6" width="6" height="6"/>
	<rect x="114" y="42" class="st6" width="6" height="6"/>
	<rect x="120" y="42" class="st6" width="6" height="6"/>
	<rect x="126" y="42" class="st14" width="6" height="6"/>
	<rect x="132" y="42" class="st11" width="6" height="6"/>
	<rect x="138" y="42" class="st0" width="6" height="6"/>
	<rect x="144" y="42" class="st0" width="6" height="6"/>
	<rect x="150" y="42" class="st7" width="6" height="6"/>
	<rect x="156" y="42" class="st12" width="6" height="6"/>
	<rect x="162" y="42" class="st12" width="6" height="6"/>
	<rect x="168" y="42" class="st10" width="6" height="6"/>
	<rect x="174" y="42" class="st0" width="6" height="6"/>
	<rect x="6" y="48" class="st0" width="6" height="6"/>
	<rect x="12" y="48" class="st11" width="6" height="6"/>
	<rect x="18" y="48" class="st14" width="6" height="6"/>
	<rect x="24" y="48" class="st5" width="6" height="6"/>
	<rect x="30" y="48" class="st5" width="6" height="6"/>
	<rect x="36" y="48" class="st11" width="6" height="6"/>
	<rect x="42" y="48" class="st11" width="6" height="6"/>
	<rect x="48" y="48" class="st5" width="6" height="6"/>
	<rect x="54" y="48" class="st6" width="6" height="6"/>
	<rect x="60" y="48" class="st6" width="6" height="6"/>
	<rect x="66" y="48" class="st6" width="6" height="6"/>
	<rect x="72" y="48" class="st11" width="6" height="6"/>
	<rect x="78" y="48" class="st11" width="6" height="6"/>
	<rect x="84" y="48" class="st6" width="6" height="6"/>
	<rect x="90" y="48" class="st6" width="6" height="6"/>
	<rect x="96" y="48" class="st6" width="6" height="6"/>
	<rect x="102" y="48" class="st11" width="6" height="6"/>
	<rect x="108" y="48" class="st11" width="6" height="6"/>
	<rect x="114" y="48" class="st11" width="6" height="6"/>
	<rect x="120" y="48" class="st5" width="6" height="6"/>
	<rect x="126" y="48" class="st5" width="6" height="6"/>
	<rect x="132" y="48" class="st14" width="6" height="6"/>
	<rect x="138" y="48" class="st11" width="6" height="6"/>
	<rect x="144" y="48" class="st0" width="6" height="6"/>
	<rect x="150" y="48" class="st0" width="6" height="6"/>
	<rect x="156" y="48" class="st7" width="6" height="6"/>
	<rect x="162" y="48" class="st7" width="6" height="6"/>
	<rect x="168" y="48" class="st0" width="6" height="6"/>
	<rect x="6" y="54" class="st0" width="6" height="6"/>
	<rect x="12" y="54" class="st11" width="6" height="6"/>
	<rect x="18" y="54" class="st5" width="6" height="6"/>
	<rect x="24" y="54" class="st5" width="6" height="6"/>
	<rect x="30" y="54" class="st6" width="6" height="6"/>
	<rect x="36" y="54" class="st5" width="6" height="6"/>
	<rect x="42" y="54" class="st6" width="6" height="6"/>
	<rect x="48" y="54" class="st6" width="6" height="6"/>
	<rect x="54" y="54" class="st6" width="6" height="6"/>
	<rect x="60" y="54" class="st6" width="6" height="6"/>
	<rect x="66" y="54" class="st15" width="6" height="6"/>
	<rect x="72" y="54" class="st16" width="6" height="6"/>
	<rect x="78" y="54" class="st16" width="6" height="6"/>
	<rect x="84" y="54" class="st11" width="6" height="6"/>
	<rect x="90" y="54" class="st6" width="6" height="6"/>
	<rect x="96" y="54" class="st11" width="6" height="6"/>
	<rect x="102" y="54" class="st14" width="6" height="6"/>
	<rect x="108" y="54" class="st14" width="6" height="6"/>
	<rect x="114" y="54" class="st6" width="6" height="6"/>
	<rect x="120" y="54" class="st6" width="6" height="6"/>
	<rect x="126" y="54" class="st5" width="6" height="6"/>
	<rect x="132" y="54" class="st5" width="6" height="6"/>
	<rect x="138" y="54" class="st11" width="6" height="6"/>
	<rect x="144" y="54" class="st0" width="6" height="6"/>
	<rect x="156" y="54" class="st0" width="6" height="6"/>
	<rect x="162" y="54" class="st0" width="6" height="6"/>
	<rect x="6" y="60" class="st0" width="6" height="6"/>
	<rect x="12" y="60" class="st3" width="6" height="6"/>
	<rect x="18" y="60" class="st17" width="6" height="6"/>
	<rect x="24" y="60" class="st6" width="6" height="6"/>
	<rect x="30" y="60" class="st6" width="6" height="6"/>
	<rect x="36" y="60" class="st6" width="6" height="6"/>
	<rect x="42" y="60" class="st6" width="6" height="6"/>
	<rect x="48" y="60" class="st6" width="6" height="6"/>
	<rect x="54" y="60" class="st11" width="6" height="6"/>
	<rect x="60" y="60" class="st11" width="6" height="6"/>
	<rect x="66" y="60" class="st5" width="6" height="6"/>
	<rect x="72" y="60" class="st5" width="6" height="6"/>
	<rect x="78" y="60" class="st5" width="6" height="6"/>
	<rect x="84" y="60" class="st5" width="6" height="6"/>
	<rect x="90" y="60" class="st11" width="6" height="6"/>
	<rect x="96" y="60" class="st6" width="6" height="6"/>
	<rect x="102" y="60" class="st6" width="6" height="6"/>
	<rect x="108" y="60" class="st5" width="6" height="6"/>
	<rect x="114" y="60" class="st14" width="6" height="6"/>
	<rect x="120" y="60" class="st6" width="6" height="6"/>
	<rect x="126" y="60" class="st6" width="6" height="6"/>
	<rect x="132" y="60" class="st17" width="6" height="6"/>
	<rect x="138" y="60" class="st3" width="6" height="6"/>
	<rect x="144" y="60" class="st0" width="6" height="6"/>
	<rect x="150" y="60" class="st0" width="6" height="6"/>
	<rect x="156" y="60" class="st5" width="6" height="6"/>
	<rect x="162" y="60" class="st0" width="6" height="6"/>
	<rect x="12" y="66" class="st0" width="6" height="6"/>
	<rect x="18" y="66" class="st18" width="6" height="6"/>
	<rect x="24" y="66" class="st17" width="6" height="6"/>
	<rect x="30" y="66" class="st17" width="6" height="6"/>
	<rect x="36" y="66" class="st14" width="6" height="6"/>
	<rect x="42" y="66" class="st14" width="6" height="6"/>
	<rect x="48" y="66" class="st14" width="6" height="6"/>
	<rect x="54" y="66" class="st15" width="6" height="6"/>
	<rect x="60" y="66" class="st6" width="6" height="6"/>
	<rect x="66" y="66" class="st5" width="6" height="6"/>
	<rect x="72" y="66" class="st5" width="6" height="6"/>
	<rect x="78" y="66" class="st5" width="6" height="6"/>
	<rect x="84" y="66" class="st5" width="6" height="6"/>
	<rect x="90" y="66" class="st15" width="6" height="6"/>
	<rect x="96" y="66" class="st6" width="6" height="6"/>
	<rect x="102" y="66" class="st6" width="6" height="6"/>
	<rect x="108" y="66" class="st5" width="6" height="6"/>
	<rect x="114" y="66" class="st11" width="6" height="6"/>
	<rect x="120" y="66" class="st17" width="6" height="6"/>
	<rect x="126" y="66" class="st17" width="6" height="6"/>
	<rect x="132" y="66" class="st18" width="6" height="6"/>
	<rect x="138" y="66" class="st0" width="6" height="6"/>
	<rect x="144" y="66" class="st0" width="6" height="6"/>
	<rect x="150" y="66" class="st5" width="6" height="6"/>
	<rect x="156" y="66" class="st11" width="6" height="6"/>
	<rect x="162" y="66" class="st5" width="6" height="6"/>
	<rect x="168" y="66" class="st0" width="6" height="6"/>
	<rect x="18" y="72" class="st0" width="6" height="6"/>
	<rect x="24" y="72" class="st3" width="6" height="6"/>
	<rect x="30" y="72" class="st3" width="6" height="6"/>
	<rect x="36" y="72" class="st17" width="6" height="6"/>
	<rect x="42" y="72" class="st5" width="6" height="6"/>
	<rect x="48" y="72" class="st6" width="6" height="6"/>
	<rect x="54" y="72" class="st6" width="6" height="6"/>
	<rect x="60" y="72" class="st5" width="6" height="6"/>
	<rect x="66" y="72" class="st5" width="6" height="6"/>
	<rect x="72" y="72" class="st5" width="6" height="6"/>
	<rect x="78" y="72" class="st5" width="6" height="6"/>
	<rect x="84" y="72" class="st5" width="6" height="6"/>
	<rect x="90" y="72" class="st5" width="6" height="6"/>
	<rect x="96" y="72" class="st6" width="6" height="6"/>
	<rect x="102" y="72" class="st6" width="6" height="6"/>
	<rect x="108" y="72" class="st11" width="6" height="6"/>
	<rect x="114" y="72" class="st17" width="6" height="6"/>
	<rect x="120" y="72" class="st3" width="6" height="6"/>
	<rect x="126" y="72" class="st3" width="6" height="6"/>
	<rect x="132" y="72" class="st0" width="6" height="6"/>
	<rect x="138" y="72" class="st0" width="6" height="6"/>
	<rect x="144" y="72" class="st1" width="6" height="6"/>
	<rect x="150" y="72" class="st5" width="6" height="6"/>
	<rect x="156" y="72" class="st11" width="6" height="6"/>
	<rect x="162" y="72" class="st5" width="6" height="6"/>
	<rect x="168" y="72" class="st1" width="6" height="6"/>
	<rect x="174" y="72" class="st0" width="6" height="6"/>
	<rect x="24" y="78" class="st0" width="6" height="6"/>
	<rect x="30" y="78" class="st0" width="6" height="6"/>
	<rect x="36" y="78" class="st18" width="6" height="6"/>
	<rect x="42" y="78" class="st17" width="6" height="6"/>
	<rect x="48" y="78" class="st17" width="6" height="6"/>
	<rect x="54" y="78" class="st17" width="6" height="6"/>
	<rect x="60" y="78" class="st5" width="6" height="6"/>
	<rect x="66" y="78" class="st5" width="6" height="6"/>
	<rect x="72" y="78" class="st5" width="6" height="6"/>
	<rect x="78" y="78" class="st5" width="6" height="6"/>
	<rect x="84" y="78" class="st5" width="6" height="6"/>
	<rect x="90" y="78" class="st5" width="6" height="6"/>
	<rect x="96" y="78" class="st17" width="6" height="6"/>
	<rect x="102" y="78" class="st17" width="6" height="6"/>
	<rect x="108" y="78" class="st17" width="6" height="6"/>
	<rect x="114" y="78" class="st18" width="6" height="6"/>
	<rect x="120" y="78" class="st0" width="6" height="6"/>
	<rect x="126" y="78" class="st0" width="6" height="6"/>
	<rect x="138" y="78" class="st0" width="6" height="6"/>
	<rect x="144" y="78" class="st3" width="6" height="6"/>
	<rect x="150" y="78" class="st16" width="6" height="6"/>
	<rect x="156" y="78" class="st3" width="6" height="6"/>
	<rect x="162" y="78" class="st16" width="6" height="6"/>
	<rect x="168" y="78" class="st3" width="6" height="6"/>
	<rect x="174" y="78" class="st0" width="6" height="6"/>
	<rect x="36" y="84" class="st0" width="6" height="6"/>
	<rect x="42" y="84" class="st3" width="6" height="6"/>
	<rect x="48" y="84" class="st3" width="6" height="6"/>
	<rect x="54" y="84" class="st18" width="6" height="6"/>
	<rect x="60" y="84" class="st17" width="6" height="6"/>
	<rect x="66" y="84" class="st5" width="6" height="6"/>
	<rect x="72" y="84" class="st19" width="6" height="6"/>
	<rect x="78" y="84" class="st5" width="6" height="6"/>
	<rect x="84" y="84" class="st5" width="6" height="6"/>
	<rect x="90" y="84" class="st17" width="6" height="6"/>
	<rect x="96" y="84" class="st18" width="6" height="6"/>
	<rect x="102" y="84" class="st3" width="6" height="6"/>
	<rect x="108" y="84" class="st3" width="6" height="6"/>
	<rect x="114" y="84" class="st0" width="6" height="6"/>
	<rect x="138" y="84" class="st0" width="6" height="6"/>
	<rect x="144" y="84" class="st18" width="6" height="6"/>
	<rect x="150" y="84" class="st20" width="6" height="6"/>
	<rect x="156" y="84" class="st18" width="6" height="6"/>
	<rect x="162" y="84" class="st20" width="6" height="6"/>
	<rect x="168" y="84" class="st18" width="6" height="6"/>
	<rect x="174" y="84" class="st0" width="6" height="6"/>
	<rect x="42" y="90" class="st0" width="6" height="6"/>
	<rect x="48" y="90" class="st0" width="6" height="6"/>
	<rect x="54" y="90" class="st0" width="6" height="6"/>
	<rect x="60" y="90" class="st18" width="6" height="6"/>
	<rect x="66" y="90" class="st5" width="6" height="6"/>
	<rect x="72" y="90" class="st5" width="6" height="6"/>
	<rect x="78" y="90" class="st5" width="6" height="6"/>
	<rect x="84" y="90" class="st19" width="6" height="6"/>
	<rect x="90" y="90" class="st18" width="6" height="6"/>
	<rect x="96" y="90" class="st0" width="6" height="6"/>
	<rect x="102" y="90" class="st0" width="6" height="6"/>
	<rect x="108" y="90" class="st0" width="6" height="6"/>
	<rect x="120" y="90" class="st0" width="6" height="6"/>
	<rect x="138" y="90" class="st0" width="6" height="6"/>
	<rect x="144" y="90" class="st21" width="6" height="6"/>
	<rect x="150" y="90" class="st21" width="6" height="6"/>
	<rect x="156" y="90" class="st10" width="6" height="6"/>
	<rect x="162" y="90" class="st10" width="6" height="6"/>
	<rect x="168" y="90" class="st10" width="6" height="6"/>
	<rect x="174" y="90" class="st0" width="6" height="6"/>
	<rect x="12" y="96" class="st0" width="6" height="6"/>
	<rect x="18" y="96" class="st0" width="6" height="6"/>
	<rect x="30" y="96" class="st0" width="6" height="6"/>
	<rect x="42" y="96" class="st0" width="6" height="6"/>
	<rect x="48" y="96" class="st0" width="6" height="6"/>
	<rect x="54" y="96" class="st0" width="6" height="6"/>
	<rect x="60" y="96" class="st3" width="6" height="6"/>
	<rect x="66" y="96" class="st5" width="6" height="6"/>
	<rect x="72" y="96" class="st1" width="6" height="6"/>
	<rect x="78" y="96" class="st5" width="6" height="6"/>
	<rect x="84" y="96" class="st5" width="6" height="6"/>
	<rect x="90" y="96" class="st3" width="6" height="6"/>
	<rect x="96" y="96" class="st0" width="6" height="6"/>
	<rect x="102" y="96" class="st0" width="6" height="6"/>
	<rect x="108" y="96" class="st1" width="6" height="6"/>
	<rect x="114" y="96" class="st0" width="6" height="6"/>
	<rect x="120" y="96" class="st1" width="6" height="6"/>
	<rect x="126" y="96" class="st0" width="6" height="6"/>
	<rect x="132" y="96" class="st0" width="6" height="6"/>
	<rect x="138" y="96" class="st21" width="6" height="6"/>
	<rect x="144" y="96" class="st13" width="6" height="6"/>
	<rect x="150" y="96" class="st22" width="6" height="6"/>
	<rect x="156" y="96" class="st22" width="6" height="6"/>
	<rect x="162" y="96" class="st23" width="6" height="6"/>
	<rect x="168" y="96" class="st23" width="6" height="6"/>
	<rect x="174" y="96" class="st10" width="6" height="6"/>
	<rect x="180" y="96" class="st0" width="6" height="6"/>
	<rect x="6" y="102" class="st0" width="6" height="6"/>
	<rect x="12" y="102" class="st4" width="6" height="6"/>
	<rect x="18" y="102" class="st4" width="6" height="6"/>
	<rect x="24" y="102" class="st0" width="6" height="6"/>
	<rect x="30" y="102" class="st4" width="6" height="6"/>
	<rect x="36" y="102" class="st0" width="6" height="6"/>
	<rect x="42" y="102" class="st4" width="6" height="6"/>
	<rect x="48" y="102" class="st4" width="6" height="6"/>
	<rect x="54" y="102" class="st0" width="6" height="6"/>
	<rect x="60" y="102" class="st3" width="6" height="6"/>
	<rect x="66" y="102" class="st5" width="6" height="6"/>
	<rect x="72" y="102" class="st1" width="6" height="6"/>
	<rect x="78" y="102" class="st5" width="6" height="6"/>
	<rect x="84" y="102" class="st1" width="6" height="6"/>
	<rect x="90" y="102" class="st3" width="6" height="6"/>
	<rect x="96" y="102" class="st0" width="6" height="6"/>
	<rect x="102" y="102" class="st1" width="6" height="6"/>
	<rect x="108" y="102" class="st2" width="6" height="6"/>
	<rect x="114" y="102" class="st1" width="6" height="6"/>
	<rect x="120" y="102" class="st2" width="6" height="6"/>
	<rect x="126" y="102" class="st1" width="6" height="6"/>
	<rect x="132" y="102" class="st0" width="6" height="6"/>
	<rect x="138" y="102" class="st21" width="6" height="6"/>
	<rect x="144" y="102" class="st24" width="6" height="6"/>
	<rect x="150" y="102" class="st13" width="6" height="6"/>
	<rect x="156" y="102" class="st25" width="6" height="6"/>
	<rect x="162" y="102" class="st22" width="6" height="6"/>
	<rect x="168" y="102" class="st23" width="6" height="6"/>
	<rect x="174" y="102" class="st10" width="6" height="6"/>
	<rect x="180" y="102" class="st0" width="6" height="6"/>
	<rect x="6" y="108" class="st0" width="6" height="6"/>
	<rect x="12" y="108" class="st3" width="6" height="6"/>
	<rect x="18" y="108" class="st2" width="6" height="6"/>
	<rect x="24" y="108" class="st4" width="6" height="6"/>
	<rect x="30" y="108" class="st5" width="6" height="6"/>
	<rect x="36" y="108" class="st4" width="6" height="6"/>
	<rect x="42" y="108" class="st2" width="6" height="6"/>
	<rect x="48" y="108" class="st3" width="6" height="6"/>
	<rect x="54" y="108" class="st0" width="6" height="6"/>
	<rect x="60" y="108" class="st18" width="6" height="6"/>
	<rect x="66" y="108" class="st5" width="6" height="6"/>
	<rect x="72" y="108" class="st1" width="6" height="6"/>
	<rect x="78" y="108" class="st5" width="6" height="6"/>
	<rect x="84" y="108" class="st1" width="6" height="6"/>
	<rect x="90" y="108" class="st18" width="6" height="6"/>
	<rect x="96" y="108" class="st0" width="6" height="6"/>
	<rect x="102" y="108" class="st1" width="6" height="6"/>
	<rect x="108" y="108" class="st2" width="6" height="6"/>
	<rect x="114" y="108" class="st4" width="6" height="6"/>
	<rect x="120" y="108" class="st2" width="6" height="6"/>
	<rect x="126" y="108" class="st1" width="6" height="6"/>
	<rect x="132" y="108" class="st0" width="6" height="6"/>
	<rect x="138" y="108" class="st10" width="6" height="6"/>
	<rect x="144" y="108" class="st13" width="6" height="6"/>
	<rect x="150" y="108" class="st26" width="6" height="6"/>
	<rect x="156" y="108" class="st24" width="6" height="6"/>
	<rect x="162" y="108" class="st22" width="6" height="6"/>
	<rect x="168" y="108" class="st23" width="6" height="6"/>
	<rect x="174" y="108" class="st10" width="6" height="6"/>
	<rect x="180" y="108" class="st0" width="6" height="6"/>
	<rect x="6" y="114" class="st0" width="6" height="6"/>
	<rect x="12" y="114" class="st3" width="6" height="6"/>
	<rect x="18" y="114" class="st9" width="6" height="6"/>
	<rect x="24" y="114" class="st4" width="6" height="6"/>
	<rect x="30" y="114" class="st9" width="6" height="6"/>
	<rect x="36" y="114" class="st4" width="6" height="6"/>
	<rect x="42" y="114" class="st9" width="6" height="6"/>
	<rect x="48" y="114" class="st3" width="6" height="6"/>
	<rect x="54" y="114" class="st0" width="6" height="6"/>
	<rect x="60" y="114" class="st3" width="6" height="6"/>
	<rect x="66" y="114" class="st1" width="6" height="6"/>
	<rect x="72" y="114" class="st1" width="6" height="6"/>
	<rect x="78" y="114" class="st1" width="6" height="6"/>
	<rect x="84" y="114" class="st1" width="6" height="6"/>
	<rect x="90" y="114" class="st3" width="6" height="6"/>
	<rect x="96" y="114" class="st0" width="6" height="6"/>
	<rect x="102" y="114" class="st4" width="6" height="6"/>
	<rect x="108" y="114" class="st5" width="6" height="6"/>
	<rect x="114" y="114" class="st4" width="6" height="6"/>
	<rect x="120" y="114" class="st5" width="6" height="6"/>
	<rect x="126" y="114" class="st4" width="6" height="6"/>
	<rect x="132" y="114" class="st0" width="6" height="6"/>
	<rect x="138" y="114" class="st10" width="6" height="6"/>
	<rect x="144" y="114" class="st24" width="6" height="6"/>
	<rect x="150" y="114" class="st24" width="6" height="6"/>
	<rect x="156" y="114" class="st25" width="6" height="6"/>
	<rect x="162" y="114" class="st26" width="6" height="6"/>
	<rect x="168" y="114" class="st22" width="6" height="6"/>
	<rect x="174" y="114" class="st7" width="6" height="6"/>
	<rect x="180" y="114" class="st0" width="6" height="6"/>
	<rect x="6" y="120" class="st0" width="6" height="6"/>
	<rect x="12" y="120" class="st18" width="6" height="6"/>
	<rect x="18" y="120" class="st8" width="6" height="6"/>
	<rect x="24" y="120" class="st3" width="6" height="6"/>
	<rect x="30" y="120" class="st8" width="6" height="6"/>
	<rect x="36" y="120" class="st3" width="6" height="6"/>
	<rect x="42" y="120" class="st8" width="6" height="6"/>
	<rect x="48" y="120" class="st18" width="6" height="6"/>
	<rect x="54" y="120" class="st0" width="6" height="6"/>
	<rect x="60" y="120" class="st0" width="6" height="6"/>
	<rect x="66" y="120" class="st3" width="6" height="6"/>
	<rect x="72" y="120" class="st18" width="6" height="6"/>
	<rect x="78" y="120" class="st18" width="6" height="6"/>
	<rect x="84" y="120" class="st3" width="6" height="6"/>
	<rect x="90" y="120" class="st0" width="6" height="6"/>
	<rect x="96" y="120" class="st0" width="6" height="6"/>
	<rect x="102" y="120" class="st3" width="6" height="6"/>
	<rect x="108" y="120" class="st6" width="6" height="6"/>
	<rect x="114" y="120" class="st3" width="6" height="6"/>
	<rect x="120" y="120" class="st6" width="6" height="6"/>
	<rect x="126" y="120" class="st3" width="6" height="6"/>
	<rect x="132" y="120" class="st0" width="6" height="6"/>
	<rect x="138" y="120" class="st10" width="6" height="6"/>
	<rect x="144" y="120" class="st13" width="6" height="6"/>
	<rect x="150" y="120" class="st26" width="6" height="6"/>
	<rect x="156" y="120" class="st24" width="6" height="6"/>
	<rect x="162" y="120" class="st22" width="6" height="6"/>
	<rect x="168" y="120" class="st23" width="6" height="6"/>
	<rect x="174" y="120" class="st7" width="6" height="6"/>
	<rect x="180" y="120" class="st0" width="6" height="6"/>
	<rect x="12" y="126" class="st0" width="6" height="6"/>
	<rect x="18" y="126" class="st3" width="6" height="6"/>
	<rect x="24" y="126" class="st18" width="6" height="6"/>
	<rect x="30" y="126" class="st8" width="6" height="6"/>
	<rect x="36" y="126" class="st18" width="6" height="6"/>
	<rect x="42" y="126" class="st3" width="6" height="6"/>
	<rect x="48" y="126" class="st0" width="6" height="6"/>
	<rect x="66" y="126" class="st0" width="6" height="6"/>
	<rect x="72" y="126" class="st0" width="6" height="6"/>
	<rect x="78" y="126" class="st0" width="6" height="6"/>
	<rect x="84" y="126" class="st0" width="6" height="6"/>
	<rect x="102" y="126" class="st0" width="6" height="6"/>
	<rect x="108" y="126" class="st4" width="6" height="6"/>
	<rect x="114" y="126" class="st6" width="6" height="6"/>
	<rect x="120" y="126" class="st11" width="6" height="6"/>
	<rect x="126" y="126" class="st0" width="6" height="6"/>
	<rect x="132" y="126" class="st0" width="6" height="6"/>
	<rect x="138" y="126" class="st7" width="6" height="6"/>
	<rect x="144" y="126" class="st24" width="6" height="6"/>
	<rect x="150" y="126" class="st24" width="6" height="6"/>
	<rect x="156" y="126" class="st25" width="6" height="6"/>
	<rect x="162" y="126" class="st26" width="6" height="6"/>
	<rect x="168" y="126" class="st22" width="6" height="6"/>
	<rect x="174" y="126" class="st7" width="6" height="6"/>
	<rect x="180" y="126" class="st0" width="6" height="6"/>
	<rect x="18" y="132" class="st0" width="6" height="6"/>
	<rect x="24" y="132" class="st7" width="6" height="6"/>
	<rect x="30" y="132" class="st27" width="6" height="6"/>
	<rect x="36" y="132" class="st7" width="6" height="6"/>
	<rect x="42" y="132" class="st0" width="6" height="6"/>
	<rect x="66" y="132" class="st0" width="6" height="6"/>
	<rect x="72" y="132" class="st28" width="6" height="6"/>
	<rect x="78" y="132" class="st28" width="6" height="6"/>
	<rect x="84" y="132" class="st28" width="6" height="6"/>
	<rect x="90" y="132" class="st0" width="6" height="6"/>
	<rect x="102" y="132" class="st0" width="6" height="6"/>
	<rect x="108" y="132" class="st3" width="6" height="6"/>
	<rect x="114" y="132" class="st29" width="6" height="6"/>
	<rect x="120" y="132" class="st3" width="6" height="6"/>
	<rect x="126" y="132" class="st0" width="6" height="6"/>
	<rect x="132" y="132" class="st0" width="6" height="6"/>
	<rect x="138" y="132" class="st7" width="6" height="6"/>
	<rect x="144" y="132" class="st24" width="6" height="6"/>
	<rect x="150" y="132" class="st26" width="6" height="6"/>
	<rect x="156" y="132" class="st24" width="6" height="6"/>
	<rect x="162" y="132" class="st22" width="6" height="6"/>
	<rect x="168" y="132" class="st23" width="6" height="6"/>
	<rect x="174" y="132" class="st7" width="6" height="6"/>
	<rect x="180" y="132" class="st0" width="6" height="6"/>
	<rect x="12" y="138" class="st0" width="6" height="6"/>
	<rect x="18" y="138" class="st27" width="6" height="6"/>
	<rect x="24" y="138" class="st30" width="6" height="6"/>
	<rect x="30" y="138" class="st31" width="6" height="6"/>
	<rect x="36" y="138" class="st32" width="6" height="6"/>
	<rect x="42" y="138" class="st10" width="6" height="6"/>
	<rect x="48" y="138" class="st0" width="6" height="6"/>
	<rect x="60" y="138" class="st0" width="6" height="6"/>
	<rect x="66" y="138" class="st28" width="6" height="6"/>
	<rect x="72" y="138" class="st23" width="6" height="6"/>
	<rect x="78" y="138" class="st24" width="6" height="6"/>
	<rect x="84" y="138" class="st24" width="6" height="6"/>
	<rect x="90" y="138" class="st28" width="6" height="6"/>
	<rect x="96" y="138" class="st0" width="6" height="6"/>
	<rect x="102" y="138" class="st0" width="6" height="6"/>
	<rect x="108" y="138" class="st18" width="6" height="6"/>
	<rect x="114" y="138" class="st6" width="6" height="6"/>
	<rect x="120" y="138" class="st18" width="6" height="6"/>
	<rect x="126" y="138" class="st0" width="6" height="6"/>
	<rect x="132" y="138" class="st0" width="6" height="6"/>
	<rect x="138" y="138" class="st7" width="6" height="6"/>
	<rect x="144" y="138" class="st24" width="6" height="6"/>
	<rect x="150" y="138" class="st24" width="6" height="6"/>
	<rect x="156" y="138" class="st26" width="6" height="6"/>
	<rect x="162" y="138" class="st26" width="6" height="6"/>
	<rect x="168" y="138" class="st23" width="6" height="6"/>
	<rect x="174" y="138" class="st7" width="6" height="6"/>
	<rect x="180" y="138" class="st0" width="6" height="6"/>
	<rect x="6" y="144" class="st0" width="6" height="6"/>
	<rect x="12" y="144" class="st7" width="6" height="6"/>
	<rect x="18" y="144" class="st12" width="6" height="6"/>
	<rect x="24" y="144" class="st12" width="6" height="6"/>
	<rect x="30" y="144" class="st32" width="6" height="6"/>
	<rect x="36" y="144" class="st24" width="6" height="6"/>
	<rect x="42" y="144" class="st32" width="6" height="6"/>
	<rect x="48" y="144" class="st10" width="6" height="6"/>
	<rect x="54" y="144" class="st0" width="6" height="6"/>
	<rect x="60" y="144" class="st28" width="6" height="6"/>
	<rect x="66" y="144" class="st23" width="6" height="6"/>
	<rect x="72" y="144" class="st24" width="6" height="6"/>
	<rect x="78" y="144" class="st13" width="6" height="6"/>
	<rect x="84" y="144" class="st33" width="6" height="6"/>
	<rect x="90" y="144" class="st24" width="6" height="6"/>
	<rect x="96" y="144" class="st28" width="6" height="6"/>
	<rect x="102" y="144" class="st0" width="6" height="6"/>
	<rect x="108" y="144" class="st3" width="6" height="6"/>
	<rect x="114" y="144" class="st29" width="6" height="6"/>
	<rect x="120" y="144" class="st3" width="6" height="6"/>
	<rect x="126" y="144" class="st0" width="6" height="6"/>
	<rect x="138" y="144" class="st0" width="6" height="6"/>
	<rect x="144" y="144" class="st7" width="6" height="6"/>
	<rect x="150" y="144" class="st26" width="6" height="6"/>
	<rect x="156" y="144" class="st24" width="6" height="6"/>
	<rect x="162" y="144" class="st23" width="6" height="6"/>
	<rect x="168" y="144" class="st7" width="6" height="6"/>
	<rect x="174" y="144" class="st0" width="6" height="6"/>
	<rect x="6" y="150" class="st0" width="6" height="6"/>
	<rect x="12" y="150" class="st7" width="6" height="6"/>
	<rect x="18" y="150" class="st12" width="6" height="6"/>
	<rect x="24" y="150" class="st30" width="6" height="6"/>
	<rect x="30" y="150" class="st31" width="6" height="6"/>
	<rect x="36" y="150" class="st32" width="6" height="6"/>
	<rect x="42" y="150" class="st31" width="6" height="6"/>
	<rect x="48" y="150" class="st7" width="6" height="6"/>
	<rect x="54" y="150" class="st0" width="6" height="6"/>
	<rect x="60" y="150" class="st34" width="6" height="6"/>
	<rect x="66" y="150" class="st23" width="6" height="6"/>
	<rect x="72" y="150" class="st23" width="6" height="6"/>
	<rect x="78" y="150" class="st24" width="6" height="6"/>
	<rect x="84" y="150" class="st24" width="6" height="6"/>
	<rect x="90" y="150" class="st23" width="6" height="6"/>
	<rect x="96" y="150" class="st34" width="6" height="6"/>
	<rect x="102" y="150" class="st0" width="6" height="6"/>
	<rect x="108" y="150" class="st3" width="6" height="6"/>
	<rect x="114" y="150" class="st6" width="6" height="6"/>
	<rect x="120" y="150" class="st3" width="6" height="6"/>
	<rect x="126" y="150" class="st0" width="6" height="6"/>
	<rect x="138" y="150" class="st0" width="6" height="6"/>
	<rect x="144" y="150" class="st7" width="6" height="6"/>
	<rect x="150" y="150" class="st23" width="6" height="6"/>
	<rect x="156" y="150" class="st23" width="6" height="6"/>
	<rect x="162" y="150" class="st23" width="6" height="6"/>
	<rect x="168" y="150" class="st7" width="6" height="6"/>
	<rect x="174" y="150" class="st0" width="6" height="6"/>
	<rect x="6" y="156" class="st0" width="6" height="6"/>
	<rect x="12" y="156" class="st27" width="6" height="6"/>
	<rect x="18" y="156" class="st12" width="6" height="6"/>
	<rect x="24" y="156" class="st12" width="6" height="6"/>
	<rect x="30" y="156" class="st30" width="6" height="6"/>
	<rect x="36" y="156" class="st12" width="6" height="6"/>
	<rect x="42" y="156" class="st30" width="6" height="6"/>
	<rect x="48" y="156" class="st10" width="6" height="6"/>
	<rect x="54" y="156" class="st0" width="6" height="6"/>
	<rect x="60" y="156" class="st0" width="6" height="6"/>
	<rect x="66" y="156" class="st34" width="6" height="6"/>
	<rect x="72" y="156" class="st34" width="6" height="6"/>
	<rect x="78" y="156" class="st23" width="6" height="6"/>
	<rect x="84" y="156" class="st34" width="6" height="6"/>
	<rect x="90" y="156" class="st34" width="6" height="6"/>
	<rect x="96" y="156" class="st0" width="6" height="6"/>
	<rect x="102" y="156" class="st0" width="6" height="6"/>
	<rect x="108" y="156" class="st3" width="6" height="6"/>
	<rect x="114" y="156" class="st29" width="6" height="6"/>
	<rect x="120" y="156" class="st3" width="6" height="6"/>
	<rect x="126" y="156" class="st0" width="6" height="6"/>
	<rect x="144" y="156" class="st0" width="6" height="6"/>
	<rect x="150" y="156" class="st7" width="6" height="6"/>
	<rect x="156" y="156" class="st23" width="6" height="6"/>
	<rect x="162" y="156" class="st7" width="6" height="6"/>
	<rect x="168" y="156" class="st0" width="6" height="6"/>
	<rect x="12" y="162" class="st0" width="6" height="6"/>
	<rect x="18" y="162" class="st27" width="6" height="6"/>
	<rect x="24" y="162" class="st12" width="6" height="6"/>
	<rect x="30" y="162" class="st12" width="6" height="6"/>
	<rect x="36" y="162" class="st12" width="6" height="6"/>
	<rect x="42" y="162" class="st10" width="6" height="6"/>
	<rect x="48" y="162" class="st0" width="6" height="6"/>
	<rect x="66" y="162" class="st0" width="6" height="6"/>
	<rect x="72" y="162" class="st35" width="6" height="6"/>
	<rect x="78" y="162" class="st23" width="6" height="6"/>
	<rect x="84" y="162" class="st35" width="6" height="6"/>
	<rect x="90" y="162" class="st0" width="6" height="6"/>
	<rect x="102" y="162" class="st0" width="6" height="6"/>
	<rect x="108" y="162" class="st18" width="6" height="6"/>
	<rect x="114" y="162" class="st6" width="6" height="6"/>
	<rect x="120" y="162" class="st18" width="6" height="6"/>
	<rect x="126" y="162" class="st0" width="6" height="6"/>
	<rect x="150" y="162" class="st0" width="6" height="6"/>
	<rect x="156" y="162" class="st7" width="6" height="6"/>
	<rect x="162" y="162" class="st0" width="6" height="6"/>
	<rect x="18" y="168" class="st0" width="6" height="6"/>
	<rect x="24" y="168" class="st27" width="6" height="6"/>
	<rect x="30" y="168" class="st12" width="6" height="6"/>
	<rect x="36" y="168" class="st27" width="6" height="6"/>
	<rect x="42" y="168" class="st0" width="6" height="6"/>
	<rect x="66" y="168" class="st0" width="6" height="6"/>
	<rect x="72" y="168" class="st35" width="6" height="6"/>
	<rect x="78" y="168" class="st23" width="6" height="6"/>
	<rect x="84" y="168" class="st35" width="6" height="6"/>
	<rect x="90" y="168" class="st0" width="6" height="6"/>
	<rect x="102" y="168" class="st0" width="6" height="6"/>
	<rect x="108" y="168" class="st18" width="6" height="6"/>
	<rect x="114" y="168" class="st29" width="6" height="6"/>
	<rect x="120" y="168" class="st18" width="6" height="6"/>
	<rect x="126" y="168" class="st0" width="6" height="6"/>
	<rect x="156" y="168" class="st0" width="6" height="6"/>
	<rect x="24" y="174" class="st0" width="6" height="6"/>
	<rect x="30" y="174" class="st27" width="6" height="6"/>
	<rect x="36" y="174" class="st0" width="6" height="6"/>
	<rect x="72" y="174" class="st0" width="6" height="6"/>
	<rect x="78" y="174" class="st35" width="6" height="6"/>
	<rect x="84" y="174" class="st0" width="6" height="6"/>
	<rect x="102" y="174" class="st0" width="6" height="6"/>
	<rect x="108" y="174" class="st18" width="6" height="6"/>
	<rect x="114" y="174" class="st6" width="6" height="6"/>
	<rect x="120" y="174" class="st18" width="6" height="6"/>
	<rect x="126" y="174" class="st0" width="6" height="6"/>
	<rect x="30" y="180" class="st0" width="6" height="6"/>
	<rect x="78" y="180" class="st0" width="6" height="6"/>
	<rect x="108" y="180" class="st0" width="6" height="6"/>
	<rect x="114" y="180" class="st18" width="6" height="6"/>
	<rect x="120" y="180" class="st0" width="6" height="6"/>
	<rect x="114" y="186" class="st0" width="6" height="6"/>
</g>
</svg>
