<?xml version="1.0" encoding="UTF-8"?><svg id="Layer_1" xmlns="http://www.w3.org/2000/svg" viewBox="0 0 500 430"><defs><style>.cls-1,.cls-2{stroke:#914938;stroke-miterlimit:10;stroke-width:2px;}.cls-1,.cls-3{fill:#914938;}.cls-4{fill:#f4ebd4;font-family:Roboto-Bold, Roboto;font-size:20.36px;font-weight:700;}.cls-2{fill:none;}.cls-3{stroke-width:0px;}</style></defs><path class="cls-3" d="m176.72,56.96l36.36,3.6c-1.08,4.32-4.32,6.12-10.44,6.84-1.44,16.92-2.52,36.72-3.24,51.48,2.16,1.08,5.76,2.52,12.96,5.4-4.32,8.64-11.52,28.08-14.76,43.56-.36,7.2-.72,9.72-1.08,15.48,38.88-28.44,79.56-43.56,117.72-43.56,63,0,96.12,42.84,96.12,103.32,0,75.6-59.4,109.8-156.6,118.44-2.16-7.56-5.4-16.2-9-23.04,89.28-8.28,139.68-33.48,139.68-95.04,0-43.92-22.68-79.92-72-79.92-37.8,0-75.6,14.76-116.28,47.52,0,51.84,0,114.12.36,162h-25.2c.36-21.6,0-127.44.36-151.2-11.88,21.6-39.96,58.32-68.4,83.52l-13.32-21.24c28.44-25.56,66.24-68.4,82.08-106.92l1.08-29.52c-14.04,2.52-42.48,5.4-70.92,6.12l-.72-24.84c25.2,0,54.72-1.44,73.08-5.4l2.16-66.6Z"/><path class="cls-2" d="m217.45,84.02s-5.31,143.78-5.29,173.93"/><path class="cls-2" d="m110.23,114.9s47.88-2.34,56.11-3.84"/><path class="cls-2" d="m112.72,315.69s32.98-27.98,39.9-43.86"/><path class="cls-2" d="m379.26,147.18s53.35,24.97,41.31,111.53"/><polygon class="cls-1" points="156 112.03 155.61 107.3 161.65 109.19 167.68 111.09 162.03 113.93 156.38 116.77 156 112.03"/><polygon class="cls-1" points="149.74 276.88 145.77 274.28 150.97 270.68 156.16 267.07 154.94 273.28 153.72 279.48 149.74 276.88"/><polygon class="cls-1" points="212.26 253.24 217.01 253.4 214.45 259.18 211.88 264.96 209.7 259.02 207.52 253.09 212.26 253.24"/><polygon class="cls-1" points="421.21 255.85 425.84 256.92 422.2 262.1 418.57 267.27 417.58 261.03 416.58 254.78 421.21 255.85"/><circle class="cls-1" cx="244.93" cy="74.65" r="16.1"/><text class="cls-4" transform="translate(239.09 81.95)"><tspan x="0" y="0">1</tspan></text><circle class="cls-1" cx="90.26" cy="94.11" r="16.1"/><text class="cls-4" transform="translate(84.42 101.42)"><tspan x="0" y="0">2</tspan></text></svg>