<?xml version="1.0" encoding="utf-8"?>
<!-- Generator: Adobe Illustrator 27.9.0, SVG Export Plug-In . SVG Version: 6.00 Build 0)  -->
<svg version="1.1" id="Layer_1" shape-rendering="crispEdges"
	 xmlns="http://www.w3.org/2000/svg" xmlns:xlink="http://www.w3.org/1999/xlink" x="0px" y="0px" viewBox="0 0 192 192"
	 style="enable-background:new 0 0 192 192;" xml:space="preserve">
<style type="text/css">
	.st0{fill:#C1B9E0;}
	.st1{fill:#8D5386;}
	.st2{fill:#CF6F87;}
	.st3{fill:#B55D83;}
	.st4{fill:#EA9571;}
	.st5{fill:#EB97A7;}
	.st6{fill:#E4895D;}
	.st7{fill:#F2C7B6;}
	.st8{fill:#EEB37F;}
	.st9{fill:#CD694F;}
	.st10{fill:#E75D81;}
	.st11{fill:#E2574A;}
	.st12{fill:#694F86;}
	.st13{fill:#DA7FA0;}
	.st14{fill:#D1584A;}
	.st15{fill:#E17557;}
	.st16{fill:#FF9A62;}
	.st17{fill:#FF7E36;}
	.st18{fill:#D45D82;}
	.st19{fill:#365B95;}
	.st20{fill:#76A5B9;}
	.st21{fill:#6C7AA7;}
</style>
<g>
	<rect x="61.2" y="19.1" class="st0" width="6" height="6"/>
	<rect x="67.2" y="19.1" class="st0" width="6" height="6"/>
	<rect x="73.2" y="19.1" class="st0" width="6" height="6"/>
	<rect x="79.1" y="19.1" class="st0" width="6" height="6"/>
	<rect x="85.1" y="19.1" class="st0" width="6" height="6"/>
	<rect x="91" y="19.1" class="st0" width="6" height="6"/>
	<rect x="49.3" y="25.1" class="st0" width="6" height="6"/>
	<rect x="55.3" y="25.1" class="st0" width="6" height="6"/>
	<rect x="61.2" y="25.1" class="st1" width="6" height="6"/>
	<rect x="67.2" y="25.1" class="st1" width="6" height="6"/>
	<rect x="73.2" y="25.1" class="st1" width="6" height="6"/>
	<rect x="79.1" y="25.1" class="st1" width="6" height="6"/>
	<rect x="85.1" y="25.1" class="st1" width="6" height="6"/>
	<rect x="91" y="25.1" class="st1" width="6" height="6"/>
	<rect x="97" y="25.1" class="st0" width="6" height="6"/>
	<rect x="103" y="25.1" class="st0" width="6" height="6"/>
	<rect x="138.7" y="25.1" class="st0" width="6" height="6"/>
	<rect x="144.7" y="25.1" class="st0" width="6" height="6"/>
	<rect x="43.3" y="31" class="st0" width="6" height="6"/>
	<rect x="49.3" y="31" class="st1" width="6" height="6"/>
	<rect x="55.3" y="31" class="st1" width="6" height="6"/>
	<rect x="61.2" y="31" class="st2" width="6" height="6"/>
	<rect x="67.2" y="31" class="st2" width="6" height="6"/>
	<rect x="73.2" y="31" class="st2" width="6" height="6"/>
	<rect x="79.1" y="31" class="st3" width="6" height="6"/>
	<rect x="85.1" y="31" class="st3" width="6" height="6"/>
	<rect x="91" y="31" class="st3" width="6" height="6"/>
	<rect x="97" y="31" class="st1" width="6" height="6"/>
	<rect x="103" y="31" class="st1" width="6" height="6"/>
	<rect x="108.9" y="31" class="st0" width="6" height="6"/>
	<rect x="132.8" y="31" class="st0" width="6" height="6"/>
	<rect x="138.7" y="31" class="st3" width="6" height="6"/>
	<rect x="144.7" y="31" class="st3" width="6" height="6"/>
	<rect x="150.7" y="31" class="st0" width="6" height="6"/>
	<rect x="37.4" y="37" class="st0" width="6" height="6"/>
	<rect x="43.3" y="37" class="st1" width="6" height="6"/>
	<rect x="49.3" y="37" class="st2" width="6" height="6"/>
	<rect x="55.3" y="37" class="st2" width="6" height="6"/>
	<rect x="61.2" y="37" class="st3" width="6" height="6"/>
	<rect x="67.2" y="37" class="st3" width="6" height="6"/>
	<rect x="73.2" y="37" class="st3" width="6" height="6"/>
	<rect x="79.1" y="37" class="st3" width="6" height="6"/>
	<rect x="85.1" y="37" class="st3" width="6" height="6"/>
	<rect x="91" y="37" class="st3" width="6" height="6"/>
	<rect x="97" y="37" class="st3" width="6" height="6"/>
	<rect x="103" y="37" class="st3" width="6" height="6"/>
	<rect x="108.9" y="37" class="st1" width="6" height="6"/>
	<rect x="114.9" y="37" class="st0" width="6" height="6"/>
	<rect x="132.8" y="37" class="st0" width="6" height="6"/>
	<rect x="138.7" y="37" class="st0" width="6" height="6"/>
	<rect x="144.7" y="37" class="st0" width="6" height="6"/>
	<rect x="150.7" y="37" class="st3" width="6" height="6"/>
	<rect x="156.6" y="37" class="st0" width="6" height="6"/>
	<rect x="31.4" y="43" class="st0" width="6" height="6"/>
	<rect x="37.4" y="43" class="st1" width="6" height="6"/>
	<rect x="43.3" y="43" class="st2" width="6" height="6"/>
	<rect x="49.3" y="43" class="st3" width="6" height="6"/>
	<rect x="55.3" y="43" class="st3" width="6" height="6"/>
	<rect x="61.2" y="43" class="st3" width="6" height="6"/>
	<rect x="67.2" y="43" class="st3" width="6" height="6"/>
	<rect x="73.2" y="43" class="st3" width="6" height="6"/>
	<rect x="79.1" y="43" class="st3" width="6" height="6"/>
	<rect x="85.1" y="43" class="st3" width="6" height="6"/>
	<rect x="91" y="43" class="st3" width="6" height="6"/>
	<rect x="97" y="43" class="st3" width="6" height="6"/>
	<rect x="103" y="43" class="st3" width="6" height="6"/>
	<rect x="108.9" y="43" class="st3" width="6" height="6"/>
	<rect x="114.9" y="43" class="st1" width="6" height="6"/>
	<rect x="120.8" y="43" class="st0" width="6" height="6"/>
	<rect x="126.8" y="43" class="st0" width="6" height="6"/>
	<rect x="132.8" y="43" class="st3" width="6" height="6"/>
	<rect x="138.7" y="43" class="st3" width="6" height="6"/>
	<rect x="144.7" y="43" class="st0" width="6" height="6"/>
	<rect x="150.7" y="43" class="st0" width="6" height="6"/>
	<rect x="156.6" y="43" class="st3" width="6" height="6"/>
	<rect x="162.6" y="43" class="st0" width="6" height="6"/>
	<rect x="31.4" y="48.9" class="st0" width="6" height="6"/>
	<rect x="37.4" y="48.9" class="st1" width="6" height="6"/>
	<rect x="43.3" y="48.9" class="st2" width="6" height="6"/>
	<rect x="49.3" y="48.9" class="st3" width="6" height="6"/>
	<rect x="55.3" y="48.9" class="st3" width="6" height="6"/>
	<rect x="61.2" y="48.9" class="st3" width="6" height="6"/>
	<rect x="67.2" y="48.9" class="st2" width="6" height="6"/>
	<rect x="73.2" y="48.9" class="st3" width="6" height="6"/>
	<rect x="79.1" y="48.9" class="st3" width="6" height="6"/>
	<rect x="85.1" y="48.9" class="st3" width="6" height="6"/>
	<rect x="91" y="48.9" class="st3" width="6" height="6"/>
	<rect x="97" y="48.9" class="st2" width="6" height="6"/>
	<rect x="103" y="48.9" class="st3" width="6" height="6"/>
	<rect x="108.9" y="48.9" class="st3" width="6" height="6"/>
	<rect x="114.9" y="48.9" class="st1" width="6" height="6"/>
	<rect x="120.8" y="48.9" class="st0" width="6" height="6"/>
	<rect x="126.8" y="48.9" class="st0" width="6" height="6"/>
	<rect x="132.8" y="48.9" class="st0" width="6" height="6"/>
	<rect x="138.7" y="48.9" class="st0" width="6" height="6"/>
	<rect x="144.7" y="48.9" class="st3" width="6" height="6"/>
	<rect x="150.7" y="48.9" class="st0" width="6" height="6"/>
	<rect x="156.6" y="48.9" class="st0" width="6" height="6"/>
	<rect x="162.6" y="48.9" class="st3" width="6" height="6"/>
	<rect x="168.5" y="48.9" class="st0" width="6" height="6"/>
	<rect x="25.5" y="54.9" class="st0" width="6" height="6"/>
	<rect x="31.4" y="54.9" class="st1" width="6" height="6"/>
	<rect x="37.4" y="54.9" class="st2" width="6" height="6"/>
	<rect x="43.3" y="54.9" class="st1" width="6" height="6"/>
	<rect x="49.3" y="54.9" class="st3" width="6" height="6"/>
	<rect x="55.3" y="54.9" class="st3" width="6" height="6"/>
	<rect x="61.2" y="54.9" class="st3" width="6" height="6"/>
	<rect x="67.2" y="54.9" class="st3" width="6" height="6"/>
	<rect x="73.2" y="54.9" class="st1" width="6" height="6"/>
	<rect x="79.1" y="54.9" class="st3" width="6" height="6"/>
	<rect x="85.1" y="54.9" class="st3" width="6" height="6"/>
	<rect x="91" y="54.9" class="st1" width="6" height="6"/>
	<rect x="97" y="54.9" class="st3" width="6" height="6"/>
	<rect x="103" y="54.9" class="st3" width="6" height="6"/>
	<rect x="108.9" y="54.9" class="st1" width="6" height="6"/>
	<rect x="114.9" y="54.9" class="st3" width="6" height="6"/>
	<rect x="120.8" y="54.9" class="st1" width="6" height="6"/>
	<rect x="126.8" y="54.9" class="st2" width="6" height="6"/>
	<rect x="132.8" y="54.9" class="st4" width="6" height="6"/>
	<rect x="138.7" y="54.9" class="st0" width="6" height="6"/>
	<rect x="144.7" y="54.9" class="st0" width="6" height="6"/>
	<rect x="150.7" y="54.9" class="st3" width="6" height="6"/>
	<rect x="156.6" y="54.9" class="st0" width="6" height="6"/>
	<rect x="162.6" y="54.9" class="st3" width="6" height="6"/>
	<rect x="168.5" y="54.9" class="st0" width="6" height="6"/>
	<rect x="25.5" y="60.8" class="st0" width="6" height="6"/>
	<rect x="31.4" y="60.8" class="st1" width="6" height="6"/>
	<rect x="37.4" y="60.8" class="st2" width="6" height="6"/>
	<rect x="43.3" y="60.8" class="st3" width="6" height="6"/>
	<rect x="49.3" y="60.8" class="st5" width="6" height="6"/>
	<rect x="55.3" y="60.8" class="st3" width="6" height="6"/>
	<rect x="61.2" y="60.8" class="st6" width="6" height="6"/>
	<rect x="67.2" y="60.8" class="st3" width="6" height="6"/>
	<rect x="73.2" y="60.8" class="st3" width="6" height="6"/>
	<rect x="79.1" y="60.8" class="st3" width="6" height="6"/>
	<rect x="85.1" y="60.8" class="st3" width="6" height="6"/>
	<rect x="91" y="60.8" class="st6" width="6" height="6"/>
	<rect x="97" y="60.8" class="st3" width="6" height="6"/>
	<rect x="103" y="60.8" class="st5" width="6" height="6"/>
	<rect x="108.9" y="60.8" class="st3" width="6" height="6"/>
	<rect x="114.9" y="60.8" class="st3" width="6" height="6"/>
	<rect x="120.8" y="60.8" class="st7" width="6" height="6"/>
	<rect x="126.8" y="60.8" class="st4" width="6" height="6"/>
	<rect x="132.8" y="60.8" class="st8" width="6" height="6"/>
	<rect x="138.7" y="60.8" class="st2" width="6" height="6"/>
	<rect x="144.7" y="60.8" class="st0" width="6" height="6"/>
	<rect x="150.7" y="60.8" class="st3" width="6" height="6"/>
	<rect x="156.6" y="60.8" class="st0" width="6" height="6"/>
	<rect x="162.6" y="60.8" class="st0" width="6" height="6"/>
	<rect x="25.5" y="66.8" class="st0" width="6" height="6"/>
	<rect x="31.4" y="66.8" class="st1" width="6" height="6"/>
	<rect x="37.4" y="66.8" class="st2" width="6" height="6"/>
	<rect x="43.3" y="66.8" class="st3" width="6" height="6"/>
	<rect x="49.3" y="66.8" class="st2" width="6" height="6"/>
	<rect x="55.3" y="66.8" class="st7" width="6" height="6"/>
	<rect x="61.2" y="66.8" class="st1" width="6" height="6"/>
	<rect x="67.2" y="66.8" class="st7" width="6" height="6"/>
	<rect x="73.2" y="66.8" class="st7" width="6" height="6"/>
	<rect x="79.1" y="66.8" class="st7" width="6" height="6"/>
	<rect x="85.1" y="66.8" class="st7" width="6" height="6"/>
	<rect x="91" y="66.8" class="st1" width="6" height="6"/>
	<rect x="97" y="66.8" class="st7" width="6" height="6"/>
	<rect x="103" y="66.8" class="st2" width="6" height="6"/>
	<rect x="108.9" y="66.8" class="st3" width="6" height="6"/>
	<rect x="114.9" y="66.8" class="st1" width="6" height="6"/>
	<rect x="120.8" y="66.8" class="st7" width="6" height="6"/>
	<rect x="126.8" y="66.8" class="st8" width="6" height="6"/>
	<rect x="132.8" y="66.8" class="st7" width="6" height="6"/>
	<rect x="138.7" y="66.8" class="st4" width="6" height="6"/>
	<rect x="144.7" y="66.8" class="st0" width="6" height="6"/>
	<rect x="150.7" y="66.8" class="st0" width="6" height="6"/>
	<rect x="19.5" y="72.8" class="st0" width="6" height="6"/>
	<rect x="25.5" y="72.8" class="st1" width="6" height="6"/>
	<rect x="31.4" y="72.8" class="st2" width="6" height="6"/>
	<rect x="37.4" y="72.8" class="st3" width="6" height="6"/>
	<rect x="43.3" y="72.8" class="st3" width="6" height="6"/>
	<rect x="49.3" y="72.8" class="st2" width="6" height="6"/>
	<rect x="55.3" y="72.8" class="st7" width="6" height="6"/>
	<rect x="61.2" y="72.8" class="st1" width="6" height="6"/>
	<rect x="67.2" y="72.8" class="st7" width="6" height="6"/>
	<rect x="73.2" y="72.8" class="st7" width="6" height="6"/>
	<rect x="79.1" y="72.8" class="st7" width="6" height="6"/>
	<rect x="85.1" y="72.8" class="st7" width="6" height="6"/>
	<rect x="91" y="72.8" class="st1" width="6" height="6"/>
	<rect x="97" y="72.8" class="st7" width="6" height="6"/>
	<rect x="103" y="72.8" class="st2" width="6" height="6"/>
	<rect x="108.9" y="72.8" class="st3" width="6" height="6"/>
	<rect x="114.9" y="72.8" class="st1" width="6" height="6"/>
	<rect x="120.8" y="72.8" class="st7" width="6" height="6"/>
	<rect x="126.8" y="72.8" class="st7" width="6" height="6"/>
	<rect x="132.8" y="72.8" class="st7" width="6" height="6"/>
	<rect x="138.7" y="72.8" class="st9" width="6" height="6"/>
	<rect x="144.7" y="72.8" class="st0" width="6" height="6"/>
	<rect x="19.5" y="78.7" class="st0" width="6" height="6"/>
	<rect x="25.5" y="78.7" class="st1" width="6" height="6"/>
	<rect x="31.4" y="78.7" class="st2" width="6" height="6"/>
	<rect x="37.4" y="78.7" class="st3" width="6" height="6"/>
	<rect x="43.3" y="78.7" class="st1" width="6" height="6"/>
	<rect x="49.3" y="78.7" class="st2" width="6" height="6"/>
	<rect x="55.3" y="78.7" class="st10" width="6" height="6"/>
	<rect x="61.2" y="78.7" class="st5" width="6" height="6"/>
	<rect x="67.2" y="78.7" class="st7" width="6" height="6"/>
	<rect x="73.2" y="78.7" class="st7" width="6" height="6"/>
	<rect x="79.1" y="78.7" class="st7" width="6" height="6"/>
	<rect x="85.1" y="78.7" class="st7" width="6" height="6"/>
	<rect x="91" y="78.7" class="st5" width="6" height="6"/>
	<rect x="97" y="78.7" class="st10" width="6" height="6"/>
	<rect x="103" y="78.7" class="st2" width="6" height="6"/>
	<rect x="108.9" y="78.7" class="st1" width="6" height="6"/>
	<rect x="114.9" y="78.7" class="st7" width="6" height="6"/>
	<rect x="120.8" y="78.7" class="st7" width="6" height="6"/>
	<rect x="126.8" y="78.7" class="st7" width="6" height="6"/>
	<rect x="132.8" y="78.7" class="st7" width="6" height="6"/>
	<rect x="138.7" y="78.7" class="st7" width="6" height="6"/>
	<rect x="144.7" y="78.7" class="st0" width="6" height="6"/>
	<rect x="19.5" y="84.7" class="st0" width="6" height="6"/>
	<rect x="25.5" y="84.7" class="st1" width="6" height="6"/>
	<rect x="31.4" y="84.7" class="st3" width="6" height="6"/>
	<rect x="37.4" y="84.7" class="st1" width="6" height="6"/>
	<rect x="43.3" y="84.7" class="st3" width="6" height="6"/>
	<rect x="49.3" y="84.7" class="st2" width="6" height="6"/>
	<rect x="55.3" y="84.7" class="st7" width="6" height="6"/>
	<rect x="61.2" y="84.7" class="st7" width="6" height="6"/>
	<rect x="67.2" y="84.7" class="st11" width="6" height="6"/>
	<rect x="73.2" y="84.7" class="st7" width="6" height="6"/>
	<rect x="79.1" y="84.7" class="st7" width="6" height="6"/>
	<rect x="85.1" y="84.7" class="st11" width="6" height="6"/>
	<rect x="91" y="84.7" class="st7" width="6" height="6"/>
	<rect x="97" y="84.7" class="st7" width="6" height="6"/>
	<rect x="103" y="84.7" class="st2" width="6" height="6"/>
	<rect x="108.9" y="84.7" class="st3" width="6" height="6"/>
	<rect x="114.9" y="84.7" class="st1" width="6" height="6"/>
	<rect x="120.8" y="84.7" class="st4" width="6" height="6"/>
	<rect x="126.8" y="84.7" class="st7" width="6" height="6"/>
	<rect x="132.8" y="84.7" class="st7" width="6" height="6"/>
	<rect x="138.7" y="84.7" class="st8" width="6" height="6"/>
	<rect x="144.7" y="84.7" class="st0" width="6" height="6"/>
	<rect x="19.5" y="90.7" class="st0" width="6" height="6"/>
	<rect x="25.5" y="90.7" class="st12" width="6" height="6"/>
	<rect x="31.4" y="90.7" class="st1" width="6" height="6"/>
	<rect x="37.4" y="90.7" class="st3" width="6" height="6"/>
	<rect x="43.3" y="90.7" class="st1" width="6" height="6"/>
	<rect x="49.3" y="90.7" class="st3" width="6" height="6"/>
	<rect x="55.3" y="90.7" class="st7" width="6" height="6"/>
	<rect x="61.2" y="90.7" class="st7" width="6" height="6"/>
	<rect x="67.2" y="90.7" class="st7" width="6" height="6"/>
	<rect x="73.2" y="90.7" class="st11" width="6" height="6"/>
	<rect x="79.1" y="90.7" class="st11" width="6" height="6"/>
	<rect x="85.1" y="90.7" class="st7" width="6" height="6"/>
	<rect x="91" y="90.7" class="st7" width="6" height="6"/>
	<rect x="97" y="90.7" class="st7" width="6" height="6"/>
	<rect x="103" y="90.7" class="st3" width="6" height="6"/>
	<rect x="108.9" y="90.7" class="st1" width="6" height="6"/>
	<rect x="114.9" y="90.7" class="st3" width="6" height="6"/>
	<rect x="120.8" y="90.7" class="st1" width="6" height="6"/>
	<rect x="126.8" y="90.7" class="st8" width="6" height="6"/>
	<rect x="132.8" y="90.7" class="st7" width="6" height="6"/>
	<rect x="138.7" y="90.7" class="st8" width="6" height="6"/>
	<rect x="144.7" y="90.7" class="st0" width="6" height="6"/>
	<rect x="19.5" y="96.6" class="st0" width="6" height="6"/>
	<rect x="25.5" y="96.6" class="st12" width="6" height="6"/>
	<rect x="31.4" y="96.6" class="st1" width="6" height="6"/>
	<rect x="37.4" y="96.6" class="st1" width="6" height="6"/>
	<rect x="43.3" y="96.6" class="st3" width="6" height="6"/>
	<rect x="49.3" y="96.6" class="st1" width="6" height="6"/>
	<rect x="55.3" y="96.6" class="st1" width="6" height="6"/>
	<rect x="61.2" y="96.6" class="st7" width="6" height="6"/>
	<rect x="67.2" y="96.6" class="st7" width="6" height="6"/>
	<rect x="73.2" y="96.6" class="st7" width="6" height="6"/>
	<rect x="79.1" y="96.6" class="st7" width="6" height="6"/>
	<rect x="85.1" y="96.6" class="st7" width="6" height="6"/>
	<rect x="91" y="96.6" class="st7" width="6" height="6"/>
	<rect x="97" y="96.6" class="st1" width="6" height="6"/>
	<rect x="103" y="96.6" class="st1" width="6" height="6"/>
	<rect x="108.9" y="96.6" class="st3" width="6" height="6"/>
	<rect x="114.9" y="96.6" class="st1" width="6" height="6"/>
	<rect x="120.8" y="96.6" class="st1" width="6" height="6"/>
	<rect x="126.8" y="96.6" class="st7" width="6" height="6"/>
	<rect x="132.8" y="96.6" class="st7" width="6" height="6"/>
	<rect x="138.7" y="96.6" class="st8" width="6" height="6"/>
	<rect x="144.7" y="96.6" class="st0" width="6" height="6"/>
	<rect x="19.5" y="102.6" class="st0" width="6" height="6"/>
	<rect x="25.5" y="102.6" class="st12" width="6" height="6"/>
	<rect x="31.4" y="102.6" class="st1" width="6" height="6"/>
	<rect x="37.4" y="102.6" class="st1" width="6" height="6"/>
	<rect x="43.3" y="102.6" class="st1" width="6" height="6"/>
	<rect x="49.3" y="102.6" class="st1" width="6" height="6"/>
	<rect x="55.3" y="102.6" class="st1" width="6" height="6"/>
	<rect x="61.2" y="102.6" class="st12" width="6" height="6"/>
	<rect x="67.2" y="102.6" class="st2" width="6" height="6"/>
	<rect x="73.2" y="102.6" class="st13" width="6" height="6"/>
	<rect x="79.1" y="102.6" class="st13" width="6" height="6"/>
	<rect x="85.1" y="102.6" class="st2" width="6" height="6"/>
	<rect x="91" y="102.6" class="st12" width="6" height="6"/>
	<rect x="97" y="102.6" class="st1" width="6" height="6"/>
	<rect x="103" y="102.6" class="st1" width="6" height="6"/>
	<rect x="108.9" y="102.6" class="st1" width="6" height="6"/>
	<rect x="114.9" y="102.6" class="st1" width="6" height="6"/>
	<rect x="120.8" y="102.6" class="st1" width="6" height="6"/>
	<rect x="126.8" y="102.6" class="st7" width="6" height="6"/>
	<rect x="132.8" y="102.6" class="st7" width="6" height="6"/>
	<rect x="138.7" y="102.6" class="st4" width="6" height="6"/>
	<rect x="144.7" y="102.6" class="st0" width="6" height="6"/>
	<rect x="19.5" y="108.5" class="st0" width="6" height="6"/>
	<rect x="25.5" y="108.5" class="st12" width="6" height="6"/>
	<rect x="31.4" y="108.5" class="st12" width="6" height="6"/>
	<rect x="37.4" y="108.5" class="st12" width="6" height="6"/>
	<rect x="43.3" y="108.5" class="st12" width="6" height="6"/>
	<rect x="49.3" y="108.5" class="st12" width="6" height="6"/>
	<rect x="55.3" y="108.5" class="st12" width="6" height="6"/>
	<rect x="61.2" y="108.5" class="st1" width="6" height="6"/>
	<rect x="67.2" y="108.5" class="st14" width="6" height="6"/>
	<rect x="73.2" y="108.5" class="st5" width="6" height="6"/>
	<rect x="79.1" y="108.5" class="st5" width="6" height="6"/>
	<rect x="85.1" y="108.5" class="st14" width="6" height="6"/>
	<rect x="91" y="108.5" class="st1" width="6" height="6"/>
	<rect x="97" y="108.5" class="st12" width="6" height="6"/>
	<rect x="103" y="108.5" class="st12" width="6" height="6"/>
	<rect x="108.9" y="108.5" class="st12" width="6" height="6"/>
	<rect x="114.9" y="108.5" class="st12" width="6" height="6"/>
	<rect x="120.8" y="108.5" class="st12" width="6" height="6"/>
	<rect x="126.8" y="108.5" class="st7" width="6" height="6"/>
	<rect x="132.8" y="108.5" class="st8" width="6" height="6"/>
	<rect x="138.7" y="108.5" class="st4" width="6" height="6"/>
	<rect x="144.7" y="108.5" class="st0" width="6" height="6"/>
	<rect x="25.5" y="114.5" class="st0" width="6" height="6"/>
	<rect x="31.4" y="114.5" class="st0" width="6" height="6"/>
	<rect x="37.4" y="114.5" class="st0" width="6" height="6"/>
	<rect x="43.3" y="114.5" class="st0" width="6" height="6"/>
	<rect x="49.3" y="114.5" class="st0" width="6" height="6"/>
	<rect x="55.3" y="114.5" class="st1" width="6" height="6"/>
	<rect x="61.2" y="114.5" class="st14" width="6" height="6"/>
	<rect x="67.2" y="114.5" class="st14" width="6" height="6"/>
	<rect x="73.2" y="114.5" class="st14" width="6" height="6"/>
	<rect x="79.1" y="114.5" class="st15" width="6" height="6"/>
	<rect x="85.1" y="114.5" class="st14" width="6" height="6"/>
	<rect x="91" y="114.5" class="st14" width="6" height="6"/>
	<rect x="97" y="114.5" class="st1" width="6" height="6"/>
	<rect x="103" y="114.5" class="st0" width="6" height="6"/>
	<rect x="108.9" y="114.5" class="st0" width="6" height="6"/>
	<rect x="114.9" y="114.5" class="st0" width="6" height="6"/>
	<rect x="120.8" y="114.5" class="st0" width="6" height="6"/>
	<rect x="126.8" y="114.5" class="st9" width="6" height="6"/>
	<rect x="132.8" y="114.5" class="st4" width="6" height="6"/>
	<rect x="138.7" y="114.5" class="st0" width="6" height="6"/>
	<rect x="43.3" y="120.5" class="st0" width="6" height="6"/>
	<rect x="49.3" y="120.5" class="st1" width="6" height="6"/>
	<rect x="55.3" y="120.5" class="st16" width="6" height="6"/>
	<rect x="61.2" y="120.5" class="st16" width="6" height="6"/>
	<rect x="67.2" y="120.5" class="st16" width="6" height="6"/>
	<rect x="73.2" y="120.5" class="st15" width="6" height="6"/>
	<rect x="79.1" y="120.5" class="st14" width="6" height="6"/>
	<rect x="85.1" y="120.5" class="st15" width="6" height="6"/>
	<rect x="91" y="120.5" class="st15" width="6" height="6"/>
	<rect x="97" y="120.5" class="st17" width="6" height="6"/>
	<rect x="103" y="120.5" class="st1" width="6" height="6"/>
	<rect x="108.9" y="120.5" class="st17" width="6" height="6"/>
	<rect x="114.9" y="120.5" class="st18" width="6" height="6"/>
	<rect x="120.8" y="120.5" class="st4" width="6" height="6"/>
	<rect x="126.8" y="120.5" class="st8" width="6" height="6"/>
	<rect x="132.8" y="120.5" class="st4" width="6" height="6"/>
	<rect x="138.7" y="120.5" class="st0" width="6" height="6"/>
	<rect x="37.4" y="126.4" class="st0" width="6" height="6"/>
	<rect x="43.3" y="126.4" class="st9" width="6" height="6"/>
	<rect x="49.3" y="126.4" class="st16" width="6" height="6"/>
	<rect x="55.3" y="126.4" class="st17" width="6" height="6"/>
	<rect x="61.2" y="126.4" class="st17" width="6" height="6"/>
	<rect x="67.2" y="126.4" class="st17" width="6" height="6"/>
	<rect x="73.2" y="126.4" class="st14" width="6" height="6"/>
	<rect x="79.1" y="126.4" class="st17" width="6" height="6"/>
	<rect x="85.1" y="126.4" class="st14" width="6" height="6"/>
	<rect x="91" y="126.4" class="st17" width="6" height="6"/>
	<rect x="97" y="126.4" class="st17" width="6" height="6"/>
	<rect x="103" y="126.4" class="st17" width="6" height="6"/>
	<rect x="108.9" y="126.4" class="st17" width="6" height="6"/>
	<rect x="114.9" y="126.4" class="st3" width="6" height="6"/>
	<rect x="120.8" y="126.4" class="st4" width="6" height="6"/>
	<rect x="126.8" y="126.4" class="st4" width="6" height="6"/>
	<rect x="132.8" y="126.4" class="st9" width="6" height="6"/>
	<rect x="138.7" y="126.4" class="st0" width="6" height="6"/>
	<rect x="31.4" y="132.4" class="st0" width="6" height="6"/>
	<rect x="37.4" y="132.4" class="st18" width="6" height="6"/>
	<rect x="43.3" y="132.4" class="st16" width="6" height="6"/>
	<rect x="49.3" y="132.4" class="st17" width="6" height="6"/>
	<rect x="55.3" y="132.4" class="st17" width="6" height="6"/>
	<rect x="61.2" y="132.4" class="st17" width="6" height="6"/>
	<rect x="67.2" y="132.4" class="st17" width="6" height="6"/>
	<rect x="73.2" y="132.4" class="st17" width="6" height="6"/>
	<rect x="79.1" y="132.4" class="st17" width="6" height="6"/>
	<rect x="85.1" y="132.4" class="st17" width="6" height="6"/>
	<rect x="91" y="132.4" class="st17" width="6" height="6"/>
	<rect x="97" y="132.4" class="st17" width="6" height="6"/>
	<rect x="103" y="132.4" class="st17" width="6" height="6"/>
	<rect x="108.9" y="132.4" class="st15" width="6" height="6"/>
	<rect x="114.9" y="132.4" class="st3" width="6" height="6"/>
	<rect x="120.8" y="132.4" class="st9" width="6" height="6"/>
	<rect x="126.8" y="132.4" class="st9" width="6" height="6"/>
	<rect x="132.8" y="132.4" class="st0" width="6" height="6"/>
	<rect x="25.5" y="138.3" class="st0" width="6" height="6"/>
	<rect x="31.4" y="138.3" class="st3" width="6" height="6"/>
	<rect x="37.4" y="138.3" class="st17" width="6" height="6"/>
	<rect x="43.3" y="138.3" class="st17" width="6" height="6"/>
	<rect x="49.3" y="138.3" class="st17" width="6" height="6"/>
	<rect x="55.3" y="138.3" class="st9" width="6" height="6"/>
	<rect x="61.2" y="138.3" class="st17" width="6" height="6"/>
	<rect x="67.2" y="138.3" class="st17" width="6" height="6"/>
	<rect x="73.2" y="138.3" class="st17" width="6" height="6"/>
	<rect x="79.1" y="138.3" class="st17" width="6" height="6"/>
	<rect x="85.1" y="138.3" class="st17" width="6" height="6"/>
	<rect x="91" y="138.3" class="st17" width="6" height="6"/>
	<rect x="97" y="138.3" class="st9" width="6" height="6"/>
	<rect x="103" y="138.3" class="st15" width="6" height="6"/>
	<rect x="108.9" y="138.3" class="st3" width="6" height="6"/>
	<rect x="114.9" y="138.3" class="st0" width="6" height="6"/>
	<rect x="120.8" y="138.3" class="st0" width="6" height="6"/>
	<rect x="126.8" y="138.3" class="st0" width="6" height="6"/>
	<rect x="25.5" y="144.3" class="st0" width="6" height="6"/>
	<rect x="31.4" y="144.3" class="st3" width="6" height="6"/>
	<rect x="37.4" y="144.3" class="st15" width="6" height="6"/>
	<rect x="43.3" y="144.3" class="st15" width="6" height="6"/>
	<rect x="49.3" y="144.3" class="st15" width="6" height="6"/>
	<rect x="55.3" y="144.3" class="st16" width="6" height="6"/>
	<rect x="61.2" y="144.3" class="st17" width="6" height="6"/>
	<rect x="67.2" y="144.3" class="st17" width="6" height="6"/>
	<rect x="73.2" y="144.3" class="st17" width="6" height="6"/>
	<rect x="79.1" y="144.3" class="st17" width="6" height="6"/>
	<rect x="85.1" y="144.3" class="st17" width="6" height="6"/>
	<rect x="91" y="144.3" class="st17" width="6" height="6"/>
	<rect x="97" y="144.3" class="st17" width="6" height="6"/>
	<rect x="103" y="144.3" class="st3" width="6" height="6"/>
	<rect x="108.9" y="144.3" class="st0" width="6" height="6"/>
	<rect x="25.5" y="150.3" class="st0" width="6" height="6"/>
	<rect x="31.4" y="150.3" class="st3" width="6" height="6"/>
	<rect x="37.4" y="150.3" class="st3" width="6" height="6"/>
	<rect x="43.3" y="150.3" class="st3" width="6" height="6"/>
	<rect x="49.3" y="150.3" class="st15" width="6" height="6"/>
	<rect x="55.3" y="150.3" class="st16" width="6" height="6"/>
	<rect x="61.2" y="150.3" class="st17" width="6" height="6"/>
	<rect x="67.2" y="150.3" class="st17" width="6" height="6"/>
	<rect x="73.2" y="150.3" class="st17" width="6" height="6"/>
	<rect x="79.1" y="150.3" class="st17" width="6" height="6"/>
	<rect x="85.1" y="150.3" class="st17" width="6" height="6"/>
	<rect x="91" y="150.3" class="st17" width="6" height="6"/>
	<rect x="97" y="150.3" class="st17" width="6" height="6"/>
	<rect x="103" y="150.3" class="st18" width="6" height="6"/>
	<rect x="108.9" y="150.3" class="st0" width="6" height="6"/>
	<rect x="31.4" y="156.2" class="st0" width="6" height="6"/>
	<rect x="37.4" y="156.2" class="st9" width="6" height="6"/>
	<rect x="43.3" y="156.2" class="st9" width="6" height="6"/>
	<rect x="49.3" y="156.2" class="st3" width="6" height="6"/>
	<rect x="55.3" y="156.2" class="st16" width="6" height="6"/>
	<rect x="61.2" y="156.2" class="st16" width="6" height="6"/>
	<rect x="67.2" y="156.2" class="st16" width="6" height="6"/>
	<rect x="73.2" y="156.2" class="st16" width="6" height="6"/>
	<rect x="79.1" y="156.2" class="st16" width="6" height="6"/>
	<rect x="85.1" y="156.2" class="st16" width="6" height="6"/>
	<rect x="91" y="156.2" class="st16" width="6" height="6"/>
	<rect x="97" y="156.2" class="st16" width="6" height="6"/>
	<rect x="103" y="156.2" class="st3" width="6" height="6"/>
	<rect x="108.9" y="156.2" class="st0" width="6" height="6"/>
	<rect x="31.4" y="162.2" class="st0" width="6" height="6"/>
	<rect x="37.4" y="162.2" class="st9" width="6" height="6"/>
	<rect x="43.3" y="162.2" class="st4" width="6" height="6"/>
	<rect x="49.3" y="162.2" class="st9" width="6" height="6"/>
	<rect x="55.3" y="162.2" class="st3" width="6" height="6"/>
	<rect x="61.2" y="162.2" class="st3" width="6" height="6"/>
	<rect x="67.2" y="162.2" class="st3" width="6" height="6"/>
	<rect x="73.2" y="162.2" class="st3" width="6" height="6"/>
	<rect x="79.1" y="162.2" class="st3" width="6" height="6"/>
	<rect x="85.1" y="162.2" class="st3" width="6" height="6"/>
	<rect x="91" y="162.2" class="st3" width="6" height="6"/>
	<rect x="97" y="162.2" class="st3" width="6" height="6"/>
	<rect x="103" y="162.2" class="st0" width="6" height="6"/>
	<rect x="31.4" y="168.2" class="st0" width="6" height="6"/>
	<rect x="37.4" y="168.2" class="st9" width="6" height="6"/>
	<rect x="43.3" y="168.2" class="st4" width="6" height="6"/>
	<rect x="49.3" y="168.2" class="st9" width="6" height="6"/>
	<rect x="55.3" y="168.2" class="st19" width="6" height="6"/>
	<rect x="61.2" y="168.2" class="st19" width="6" height="6"/>
	<rect x="67.2" y="168.2" class="st19" width="6" height="6"/>
	<rect x="73.2" y="168.2" class="st19" width="6" height="6"/>
	<rect x="79.1" y="168.2" class="st19" width="6" height="6"/>
	<rect x="85.1" y="168.2" class="st19" width="6" height="6"/>
	<rect x="91" y="168.2" class="st19" width="6" height="6"/>
	<rect x="97" y="168.2" class="st19" width="6" height="6"/>
	<rect x="103" y="168.2" class="st0" width="6" height="6"/>
	<rect x="31.4" y="174.1" class="st0" width="6" height="6"/>
	<rect x="37.4" y="174.1" class="st4" width="6" height="6"/>
	<rect x="43.3" y="174.1" class="st4" width="6" height="6"/>
	<rect x="49.3" y="174.1" class="st19" width="6" height="6"/>
	<rect x="55.3" y="174.1" class="st19" width="6" height="6"/>
	<rect x="61.2" y="174.1" class="st20" width="6" height="6"/>
	<rect x="67.2" y="174.1" class="st20" width="6" height="6"/>
	<rect x="73.2" y="174.1" class="st19" width="6" height="6"/>
	<rect x="79.1" y="174.1" class="st20" width="6" height="6"/>
	<rect x="85.1" y="174.1" class="st20" width="6" height="6"/>
	<rect x="91" y="174.1" class="st19" width="6" height="6"/>
	<rect x="97" y="174.1" class="st20" width="6" height="6"/>
	<rect x="103" y="174.1" class="st19" width="6" height="6"/>
	<rect x="108.9" y="174.1" class="st0" width="6" height="6"/>
	<rect x="31.4" y="180.1" class="st0" width="6" height="6"/>
	<rect x="37.4" y="180.1" class="st4" width="6" height="6"/>
	<rect x="43.3" y="180.1" class="st19" width="6" height="6"/>
	<rect x="49.3" y="180.1" class="st20" width="6" height="6"/>
	<rect x="55.3" y="180.1" class="st19" width="6" height="6"/>
	<rect x="61.2" y="180.1" class="st20" width="6" height="6"/>
	<rect x="67.2" y="180.1" class="st21" width="6" height="6"/>
	<rect x="73.2" y="180.1" class="st19" width="6" height="6"/>
	<rect x="79.1" y="180.1" class="st20" width="6" height="6"/>
	<rect x="85.1" y="180.1" class="st21" width="6" height="6"/>
	<rect x="91" y="180.1" class="st19" width="6" height="6"/>
	<rect x="97" y="180.1" class="st20" width="6" height="6"/>
	<rect x="103" y="180.1" class="st21" width="6" height="6"/>
	<rect x="108.9" y="180.1" class="st19" width="6" height="6"/>
	<rect x="114.9" y="180.1" class="st0" width="6" height="6"/>
	<rect x="25.5" y="186" class="st0" width="6" height="6"/>
	<rect x="31.4" y="186" class="st4" width="6" height="6"/>
	<rect x="37.4" y="186" class="st7" width="6" height="6"/>
	<rect x="43.3" y="186" class="st19" width="6" height="6"/>
	<rect x="49.3" y="186" class="st20" width="6" height="6"/>
	<rect x="55.3" y="186" class="st19" width="6" height="6"/>
	<rect x="61.2" y="186" class="st20" width="6" height="6"/>
	<rect x="67.2" y="186" class="st21" width="6" height="6"/>
	<rect x="73.2" y="186" class="st19" width="6" height="6"/>
	<rect x="79.1" y="186" class="st20" width="6" height="6"/>
	<rect x="85.1" y="186" class="st21" width="6" height="6"/>
	<rect x="91" y="186" class="st19" width="6" height="6"/>
	<rect x="97" y="186" class="st20" width="6" height="6"/>
	<rect x="103" y="186" class="st21" width="6" height="6"/>
	<rect x="108.9" y="186" class="st19" width="6" height="6"/>
	<rect x="114.9" y="186" class="st0" width="6" height="6"/>
</g>
</svg>
