<?xml version="1.0" encoding="utf-8"?>
<!-- Generator: Adobe Illustrator 27.9.0, SVG Export Plug-In . SVG Version: 6.00 Build 0)  -->
<svg version="1.1" id="Layer_1" shape-rendering="crispEdges"
	 xmlns="http://www.w3.org/2000/svg" xmlns:xlink="http://www.w3.org/1999/xlink" x="0px" y="0px" viewBox="0 0 192 192"
	 style="enable-background:new 0 0 192 192;" xml:space="preserve">
<style type="text/css">
	.st0{fill:#FF9648;}
	.st1{fill:#694F86;}
	.st2{fill:#B55D83;}
	.st3{fill:#8D5386;}
	.st4{fill:#FFFADB;}
	.st5{fill:#E6A974;}
	.st6{fill:#ECC98B;}
	.st7{fill:#EDE5B7;}
	.st8{fill:#E4895D;}
	.st9{fill:#3A81AF;}
	.st10{fill:#1E8C54;}
	.st11{fill:#50B06E;}
	.st12{fill:#6AE16F;}
	.st13{fill:#58B0B3;}
	.st14{fill:#86B0E7;}
	.st15{fill:#73CC88;}
	.st16{fill:#C7E391;}
	.st17{fill:#CD694F;}
</style>
<g>
	<rect x="48" class="st0" width="6" height="6"/>
	<rect x="54" class="st1" width="6" height="6"/>
	<rect x="60" class="st2" width="6" height="6"/>
	<rect x="66" class="st0" width="6" height="6"/>
	<rect x="72" class="st3" width="6" height="6"/>
	<rect x="78" class="st1" width="6" height="6"/>
	<rect x="84" class="st0" width="6" height="6"/>
	<rect x="120" class="st0" width="6" height="6"/>
	<rect x="126" class="st0" width="6" height="6"/>
	<rect x="48" y="6" class="st0" width="6" height="6"/>
	<rect x="54" y="6" class="st1" width="6" height="6"/>
	<rect x="60" y="6" class="st2" width="6" height="6"/>
	<rect x="66" y="6" class="st3" width="6" height="6"/>
	<rect x="72" y="6" class="st3" width="6" height="6"/>
	<rect x="78" y="6" class="st1" width="6" height="6"/>
	<rect x="84" y="6" class="st0" width="6" height="6"/>
	<rect x="108" y="6" class="st0" width="6" height="6"/>
	<rect x="114" y="6" class="st0" width="6" height="6"/>
	<rect x="120" y="6" class="st2" width="6" height="6"/>
	<rect x="126" y="6" class="st2" width="6" height="6"/>
	<rect x="132" y="6" class="st0" width="6" height="6"/>
	<rect x="42" y="12" class="st0" width="6" height="6"/>
	<rect x="48" y="12" class="st1" width="6" height="6"/>
	<rect x="54" y="12" class="st2" width="6" height="6"/>
	<rect x="60" y="12" class="st1" width="6" height="6"/>
	<rect x="66" y="12" class="st1" width="6" height="6"/>
	<rect x="72" y="12" class="st1" width="6" height="6"/>
	<rect x="78" y="12" class="st0" width="6" height="6"/>
	<rect x="102" y="12" class="st0" width="6" height="6"/>
	<rect x="108" y="12" class="st2" width="6" height="6"/>
	<rect x="114" y="12" class="st2" width="6" height="6"/>
	<rect x="120" y="12" class="st4" width="6" height="6"/>
	<rect x="126" y="12" class="st2" width="6" height="6"/>
	<rect x="132" y="12" class="st0" width="6" height="6"/>
	<rect x="36" y="18" class="st0" width="6" height="6"/>
	<rect x="42" y="18" class="st1" width="6" height="6"/>
	<rect x="48" y="18" class="st2" width="6" height="6"/>
	<rect x="54" y="18" class="st1" width="6" height="6"/>
	<rect x="60" y="18" class="st0" width="6" height="6"/>
	<rect x="66" y="18" class="st0" width="6" height="6"/>
	<rect x="72" y="18" class="st0" width="6" height="6"/>
	<rect x="90" y="18" class="st0" width="6" height="6"/>
	<rect x="96" y="18" class="st0" width="6" height="6"/>
	<rect x="102" y="18" class="st2" width="6" height="6"/>
	<rect x="108" y="18" class="st4" width="6" height="6"/>
	<rect x="114" y="18" class="st4" width="6" height="6"/>
	<rect x="120" y="18" class="st2" width="6" height="6"/>
	<rect x="126" y="18" class="st0" width="6" height="6"/>
	<rect x="30" y="24" class="st0" width="6" height="6"/>
	<rect x="36" y="24" class="st1" width="6" height="6"/>
	<rect x="42" y="24" class="st2" width="6" height="6"/>
	<rect x="48" y="24" class="st1" width="6" height="6"/>
	<rect x="54" y="24" class="st0" width="6" height="6"/>
	<rect x="84" y="24" class="st0" width="6" height="6"/>
	<rect x="90" y="24" class="st2" width="6" height="6"/>
	<rect x="96" y="24" class="st2" width="6" height="6"/>
	<rect x="102" y="24" class="st4" width="6" height="6"/>
	<rect x="108" y="24" class="st4" width="6" height="6"/>
	<rect x="114" y="24" class="st5" width="6" height="6"/>
	<rect x="120" y="24" class="st2" width="6" height="6"/>
	<rect x="126" y="24" class="st0" width="6" height="6"/>
	<rect x="156" y="24" class="st0" width="6" height="6"/>
	<rect x="24" y="30" class="st0" width="6" height="6"/>
	<rect x="30" y="30" class="st1" width="6" height="6"/>
	<rect x="36" y="30" class="st2" width="6" height="6"/>
	<rect x="42" y="30" class="st1" width="6" height="6"/>
	<rect x="48" y="30" class="st0" width="6" height="6"/>
	<rect x="72" y="30" class="st0" width="6" height="6"/>
	<rect x="78" y="30" class="st0" width="6" height="6"/>
	<rect x="84" y="30" class="st2" width="6" height="6"/>
	<rect x="90" y="30" class="st4" width="6" height="6"/>
	<rect x="96" y="30" class="st4" width="6" height="6"/>
	<rect x="102" y="30" class="st6" width="6" height="6"/>
	<rect x="108" y="30" class="st5" width="6" height="6"/>
	<rect x="114" y="30" class="st2" width="6" height="6"/>
	<rect x="120" y="30" class="st0" width="6" height="6"/>
	<rect x="150" y="30" class="st0" width="6" height="6"/>
	<rect x="156" y="30" class="st2" width="6" height="6"/>
	<rect x="162" y="30" class="st0" width="6" height="6"/>
	<rect y="36" class="st0" width="6" height="6"/>
	<rect x="6" y="36" class="st0" width="6" height="6"/>
	<rect x="12" y="36" class="st0" width="6" height="6"/>
	<rect x="18" y="36" class="st0" width="6" height="6"/>
	<rect x="24" y="36" class="st1" width="6" height="6"/>
	<rect x="30" y="36" class="st2" width="6" height="6"/>
	<rect x="36" y="36" class="st1" width="6" height="6"/>
	<rect x="42" y="36" class="st0" width="6" height="6"/>
	<rect x="66" y="36" class="st0" width="6" height="6"/>
	<rect x="72" y="36" class="st3" width="6" height="6"/>
	<rect x="78" y="36" class="st2" width="6" height="6"/>
	<rect x="84" y="36" class="st4" width="6" height="6"/>
	<rect x="90" y="36" class="st4" width="6" height="6"/>
	<rect x="96" y="36" class="st6" width="6" height="6"/>
	<rect x="102" y="36" class="st5" width="6" height="6"/>
	<rect x="108" y="36" class="st2" width="6" height="6"/>
	<rect x="114" y="36" class="st0" width="6" height="6"/>
	<rect x="144" y="36" class="st0" width="6" height="6"/>
	<rect x="150" y="36" class="st2" width="6" height="6"/>
	<rect x="156" y="36" class="st4" width="6" height="6"/>
	<rect x="162" y="36" class="st2" width="6" height="6"/>
	<rect x="168" y="36" class="st0" width="6" height="6"/>
	<rect y="42" class="st3" width="6" height="6"/>
	<rect x="6" y="42" class="st1" width="6" height="6"/>
	<rect x="12" y="42" class="st1" width="6" height="6"/>
	<rect x="18" y="42" class="st1" width="6" height="6"/>
	<rect x="24" y="42" class="st2" width="6" height="6"/>
	<rect x="30" y="42" class="st1" width="6" height="6"/>
	<rect x="36" y="42" class="st0" width="6" height="6"/>
	<rect x="54" y="42" class="st0" width="6" height="6"/>
	<rect x="60" y="42" class="st0" width="6" height="6"/>
	<rect x="66" y="42" class="st3" width="6" height="6"/>
	<rect x="72" y="42" class="st4" width="6" height="6"/>
	<rect x="78" y="42" class="st4" width="6" height="6"/>
	<rect x="84" y="42" class="st7" width="6" height="6"/>
	<rect x="90" y="42" class="st6" width="6" height="6"/>
	<rect x="96" y="42" class="st5" width="6" height="6"/>
	<rect x="102" y="42" class="st8" width="6" height="6"/>
	<rect x="108" y="42" class="st2" width="6" height="6"/>
	<rect x="114" y="42" class="st0" width="6" height="6"/>
	<rect x="126" y="42" class="st0" width="6" height="6"/>
	<rect x="132" y="42" class="st0" width="6" height="6"/>
	<rect x="138" y="42" class="st0" width="6" height="6"/>
	<rect x="144" y="42" class="st9" width="6" height="6"/>
	<rect x="150" y="42" class="st4" width="6" height="6"/>
	<rect x="156" y="42" class="st4" width="6" height="6"/>
	<rect x="162" y="42" class="st2" width="6" height="6"/>
	<rect x="168" y="42" class="st0" width="6" height="6"/>
	<rect y="48" class="st9" width="6" height="6"/>
	<rect x="6" y="48" class="st10" width="6" height="6"/>
	<rect x="12" y="48" class="st10" width="6" height="6"/>
	<rect x="18" y="48" class="st11" width="6" height="6"/>
	<rect x="24" y="48" class="st1" width="6" height="6"/>
	<rect x="30" y="48" class="st0" width="6" height="6"/>
	<rect x="48" y="48" class="st0" width="6" height="6"/>
	<rect x="54" y="48" class="st3" width="6" height="6"/>
	<rect x="60" y="48" class="st3" width="6" height="6"/>
	<rect x="66" y="48" class="st4" width="6" height="6"/>
	<rect x="72" y="48" class="st4" width="6" height="6"/>
	<rect x="78" y="48" class="st7" width="6" height="6"/>
	<rect x="84" y="48" class="st6" width="6" height="6"/>
	<rect x="90" y="48" class="st5" width="6" height="6"/>
	<rect x="96" y="48" class="st8" width="6" height="6"/>
	<rect x="102" y="48" class="st2" width="6" height="6"/>
	<rect x="108" y="48" class="st0" width="6" height="6"/>
	<rect x="120" y="48" class="st0" width="6" height="6"/>
	<rect x="126" y="48" class="st1" width="6" height="6"/>
	<rect x="132" y="48" class="st1" width="6" height="6"/>
	<rect x="138" y="48" class="st9" width="6" height="6"/>
	<rect x="144" y="48" class="st4" width="6" height="6"/>
	<rect x="150" y="48" class="st12" width="6" height="6"/>
	<rect x="156" y="48" class="st4" width="6" height="6"/>
	<rect x="162" y="48" class="st9" width="6" height="6"/>
	<rect x="168" y="48" class="st0" width="6" height="6"/>
	<rect y="54" class="st13" width="6" height="6"/>
	<rect x="6" y="54" class="st11" width="6" height="6"/>
	<rect x="12" y="54" class="st12" width="6" height="6"/>
	<rect x="18" y="54" class="st10" width="6" height="6"/>
	<rect x="24" y="54" class="st1" width="6" height="6"/>
	<rect x="30" y="54" class="st0" width="6" height="6"/>
	<rect x="42" y="54" class="st0" width="6" height="6"/>
	<rect x="48" y="54" class="st3" width="6" height="6"/>
	<rect x="54" y="54" class="st7" width="6" height="6"/>
	<rect x="60" y="54" class="st7" width="6" height="6"/>
	<rect x="66" y="54" class="st7" width="6" height="6"/>
	<rect x="72" y="54" class="st7" width="6" height="6"/>
	<rect x="78" y="54" class="st6" width="6" height="6"/>
	<rect x="84" y="54" class="st5" width="6" height="6"/>
	<rect x="90" y="54" class="st8" width="6" height="6"/>
	<rect x="96" y="54" class="st2" width="6" height="6"/>
	<rect x="102" y="54" class="st0" width="6" height="6"/>
	<rect x="114" y="54" class="st0" width="6" height="6"/>
	<rect x="120" y="54" class="st1" width="6" height="6"/>
	<rect x="126" y="54" class="st11" width="6" height="6"/>
	<rect x="132" y="54" class="st12" width="6" height="6"/>
	<rect x="138" y="54" class="st12" width="6" height="6"/>
	<rect x="144" y="54" class="st12" width="6" height="6"/>
	<rect x="150" y="54" class="st1" width="6" height="6"/>
	<rect x="156" y="54" class="st12" width="6" height="6"/>
	<rect x="162" y="54" class="st4" width="6" height="6"/>
	<rect x="168" y="54" class="st9" width="6" height="6"/>
	<rect x="174" y="54" class="st0" width="6" height="6"/>
	<rect y="60" class="st5" width="6" height="6"/>
	<rect x="6" y="60" class="st12" width="6" height="6"/>
	<rect x="12" y="60" class="st11" width="6" height="6"/>
	<rect x="18" y="60" class="st10" width="6" height="6"/>
	<rect x="24" y="60" class="st1" width="6" height="6"/>
	<rect x="30" y="60" class="st0" width="6" height="6"/>
	<rect x="36" y="60" class="st0" width="6" height="6"/>
	<rect x="42" y="60" class="st3" width="6" height="6"/>
	<rect x="48" y="60" class="st14" width="6" height="6"/>
	<rect x="54" y="60" class="st15" width="6" height="6"/>
	<rect x="60" y="60" class="st7" width="6" height="6"/>
	<rect x="66" y="60" class="st7" width="6" height="6"/>
	<rect x="72" y="60" class="st6" width="6" height="6"/>
	<rect x="78" y="60" class="st5" width="6" height="6"/>
	<rect x="84" y="60" class="st8" width="6" height="6"/>
	<rect x="90" y="60" class="st8" width="6" height="6"/>
	<rect x="96" y="60" class="st3" width="6" height="6"/>
	<rect x="102" y="60" class="st0" width="6" height="6"/>
	<rect x="120" y="60" class="st0" width="6" height="6"/>
	<rect x="126" y="60" class="st1" width="6" height="6"/>
	<rect x="132" y="60" class="st11" width="6" height="6"/>
	<rect x="138" y="60" class="st12" width="6" height="6"/>
	<rect x="144" y="60" class="st1" width="6" height="6"/>
	<rect x="156" y="60" class="st1" width="6" height="6"/>
	<rect x="162" y="60" class="st12" width="6" height="6"/>
	<rect x="168" y="60" class="st4" width="6" height="6"/>
	<rect x="174" y="60" class="st2" width="6" height="6"/>
	<rect x="180" y="60" class="st0" width="6" height="6"/>
	<rect y="66" class="st16" width="6" height="6"/>
	<rect x="6" y="66" class="st15" width="6" height="6"/>
	<rect x="12" y="66" class="st13" width="6" height="6"/>
	<rect x="18" y="66" class="st9" width="6" height="6"/>
	<rect x="24" y="66" class="st3" width="6" height="6"/>
	<rect x="30" y="66" class="st0" width="6" height="6"/>
	<rect x="36" y="66" class="st0" width="6" height="6"/>
	<rect x="42" y="66" class="st3" width="6" height="6"/>
	<rect x="48" y="66" class="st9" width="6" height="6"/>
	<rect x="54" y="66" class="st13" width="6" height="6"/>
	<rect x="60" y="66" class="st15" width="6" height="6"/>
	<rect x="66" y="66" class="st16" width="6" height="6"/>
	<rect x="72" y="66" class="st5" width="6" height="6"/>
	<rect x="78" y="66" class="st8" width="6" height="6"/>
	<rect x="84" y="66" class="st8" width="6" height="6"/>
	<rect x="90" y="66" class="st3" width="6" height="6"/>
	<rect x="96" y="66" class="st0" width="6" height="6"/>
	<rect x="126" y="66" class="st0" width="6" height="6"/>
	<rect x="132" y="66" class="st1" width="6" height="6"/>
	<rect x="138" y="66" class="st11" width="6" height="6"/>
	<rect x="144" y="66" class="st12" width="6" height="6"/>
	<rect x="150" y="66" class="st1" width="6" height="6"/>
	<rect x="156" y="66" class="st12" width="6" height="6"/>
	<rect x="162" y="66" class="st12" width="6" height="6"/>
	<rect x="168" y="66" class="st12" width="6" height="6"/>
	<rect x="174" y="66" class="st4" width="6" height="6"/>
	<rect x="180" y="66" class="st2" width="6" height="6"/>
	<rect x="186" y="66" class="st0" width="6" height="6"/>
	<rect y="72" class="st7" width="6" height="6"/>
	<rect x="6" y="72" class="st7" width="6" height="6"/>
	<rect x="12" y="72" class="st15" width="6" height="6"/>
	<rect x="18" y="72" class="st14" width="6" height="6"/>
	<rect x="24" y="72" class="st3" width="6" height="6"/>
	<rect x="30" y="72" class="st0" width="6" height="6"/>
	<rect x="36" y="72" class="st0" width="6" height="6"/>
	<rect x="42" y="72" class="st1" width="6" height="6"/>
	<rect x="48" y="72" class="st10" width="6" height="6"/>
	<rect x="54" y="72" class="st11" width="6" height="6"/>
	<rect x="60" y="72" class="st12" width="6" height="6"/>
	<rect x="66" y="72" class="st5" width="6" height="6"/>
	<rect x="72" y="72" class="st8" width="6" height="6"/>
	<rect x="78" y="72" class="st8" width="6" height="6"/>
	<rect x="84" y="72" class="st3" width="6" height="6"/>
	<rect x="90" y="72" class="st0" width="6" height="6"/>
	<rect x="132" y="72" class="st0" width="6" height="6"/>
	<rect x="138" y="72" class="st1" width="6" height="6"/>
	<rect x="144" y="72" class="st11" width="6" height="6"/>
	<rect x="150" y="72" class="st12" width="6" height="6"/>
	<rect x="156" y="72" class="st11" width="6" height="6"/>
	<rect x="162" y="72" class="st1" width="6" height="6"/>
	<rect x="168" y="72" class="st1" width="6" height="6"/>
	<rect x="174" y="72" class="st2" width="6" height="6"/>
	<rect x="180" y="72" class="st0" width="6" height="6"/>
	<rect y="78" class="st7" width="6" height="6"/>
	<rect x="6" y="78" class="st7" width="6" height="6"/>
	<rect x="12" y="78" class="st7" width="6" height="6"/>
	<rect x="18" y="78" class="st3" width="6" height="6"/>
	<rect x="24" y="78" class="st0" width="6" height="6"/>
	<rect x="36" y="78" class="st0" width="6" height="6"/>
	<rect x="42" y="78" class="st1" width="6" height="6"/>
	<rect x="48" y="78" class="st10" width="6" height="6"/>
	<rect x="54" y="78" class="st12" width="6" height="6"/>
	<rect x="60" y="78" class="st11" width="6" height="6"/>
	<rect x="66" y="78" class="st13" width="6" height="6"/>
	<rect x="72" y="78" class="st15" width="6" height="6"/>
	<rect x="78" y="78" class="st17" width="6" height="6"/>
	<rect x="84" y="78" class="st3" width="6" height="6"/>
	<rect x="90" y="78" class="st0" width="6" height="6"/>
	<rect x="132" y="78" class="st0" width="6" height="6"/>
	<rect x="138" y="78" class="st1" width="6" height="6"/>
	<rect x="144" y="78" class="st11" width="6" height="6"/>
	<rect x="150" y="78" class="st11" width="6" height="6"/>
	<rect x="156" y="78" class="st1" width="6" height="6"/>
	<rect x="162" y="78" class="st0" width="6" height="6"/>
	<rect x="168" y="78" class="st0" width="6" height="6"/>
	<rect x="174" y="78" class="st0" width="6" height="6"/>
	<rect y="84" class="st4" width="6" height="6"/>
	<rect x="6" y="84" class="st3" width="6" height="6"/>
	<rect x="12" y="84" class="st3" width="6" height="6"/>
	<rect x="18" y="84" class="st0" width="6" height="6"/>
	<rect x="36" y="84" class="st0" width="6" height="6"/>
	<rect x="42" y="84" class="st1" width="6" height="6"/>
	<rect x="48" y="84" class="st11" width="6" height="6"/>
	<rect x="54" y="84" class="st10" width="6" height="6"/>
	<rect x="60" y="84" class="st10" width="6" height="6"/>
	<rect x="66" y="84" class="st9" width="6" height="6"/>
	<rect x="72" y="84" class="st9" width="6" height="6"/>
	<rect x="78" y="84" class="st3" width="6" height="6"/>
	<rect x="84" y="84" class="st0" width="6" height="6"/>
	<rect x="132" y="84" class="st0" width="6" height="6"/>
	<rect x="138" y="84" class="st1" width="6" height="6"/>
	<rect x="144" y="84" class="st11" width="6" height="6"/>
	<rect x="150" y="84" class="st1" width="6" height="6"/>
	<rect x="156" y="84" class="st0" width="6" height="6"/>
	<rect y="90" class="st3" width="6" height="6"/>
	<rect x="6" y="90" class="st0" width="6" height="6"/>
	<rect x="12" y="90" class="st0" width="6" height="6"/>
	<rect x="30" y="90" class="st0" width="6" height="6"/>
	<rect x="36" y="90" class="st1" width="6" height="6"/>
	<rect x="42" y="90" class="st2" width="6" height="6"/>
	<rect x="48" y="90" class="st1" width="6" height="6"/>
	<rect x="54" y="90" class="st1" width="6" height="6"/>
	<rect x="60" y="90" class="st1" width="6" height="6"/>
	<rect x="66" y="90" class="st3" width="6" height="6"/>
	<rect x="72" y="90" class="st3" width="6" height="6"/>
	<rect x="78" y="90" class="st0" width="6" height="6"/>
	<rect x="90" y="90" class="st0" width="6" height="6"/>
	<rect x="138" y="90" class="st0" width="6" height="6"/>
	<rect x="144" y="90" class="st1" width="6" height="6"/>
	<rect x="150" y="90" class="st0" width="6" height="6"/>
	<rect x="156" y="90" class="st0" width="6" height="6"/>
	<rect y="96" class="st0" width="6" height="6"/>
	<rect x="24" y="96" class="st0" width="6" height="6"/>
	<rect x="30" y="96" class="st1" width="6" height="6"/>
	<rect x="36" y="96" class="st2" width="6" height="6"/>
	<rect x="42" y="96" class="st1" width="6" height="6"/>
	<rect x="48" y="96" class="st0" width="6" height="6"/>
	<rect x="54" y="96" class="st0" width="6" height="6"/>
	<rect x="60" y="96" class="st0" width="6" height="6"/>
	<rect x="66" y="96" class="st0" width="6" height="6"/>
	<rect x="72" y="96" class="st0" width="6" height="6"/>
	<rect x="84" y="96" class="st0" width="6" height="6"/>
	<rect x="90" y="96" class="st2" width="6" height="6"/>
	<rect x="96" y="96" class="st0" width="6" height="6"/>
	<rect x="144" y="96" class="st0" width="6" height="6"/>
	<rect x="150" y="96" class="st0" width="6" height="6"/>
	<rect x="156" y="96" class="st2" width="6" height="6"/>
	<rect x="162" y="96" class="st0" width="6" height="6"/>
	<rect x="18" y="102" class="st0" width="6" height="6"/>
	<rect x="24" y="102" class="st1" width="6" height="6"/>
	<rect x="30" y="102" class="st2" width="6" height="6"/>
	<rect x="36" y="102" class="st1" width="6" height="6"/>
	<rect x="42" y="102" class="st0" width="6" height="6"/>
	<rect x="78" y="102" class="st0" width="6" height="6"/>
	<rect x="84" y="102" class="st2" width="6" height="6"/>
	<rect x="90" y="102" class="st4" width="6" height="6"/>
	<rect x="96" y="102" class="st2" width="6" height="6"/>
	<rect x="102" y="102" class="st0" width="6" height="6"/>
	<rect x="144" y="102" class="st0" width="6" height="6"/>
	<rect x="150" y="102" class="st2" width="6" height="6"/>
	<rect x="156" y="102" class="st4" width="6" height="6"/>
	<rect x="162" y="102" class="st2" width="6" height="6"/>
	<rect x="168" y="102" class="st0" width="6" height="6"/>
	<rect x="12" y="108" class="st0" width="6" height="6"/>
	<rect x="18" y="108" class="st1" width="6" height="6"/>
	<rect x="24" y="108" class="st2" width="6" height="6"/>
	<rect x="30" y="108" class="st1" width="6" height="6"/>
	<rect x="36" y="108" class="st0" width="6" height="6"/>
	<rect x="72" y="108" class="st0" width="6" height="6"/>
	<rect x="78" y="108" class="st2" width="6" height="6"/>
	<rect x="84" y="108" class="st4" width="6" height="6"/>
	<rect x="90" y="108" class="st4" width="6" height="6"/>
	<rect x="96" y="108" class="st2" width="6" height="6"/>
	<rect x="102" y="108" class="st0" width="6" height="6"/>
	<rect x="126" y="108" class="st0" width="6" height="6"/>
	<rect x="132" y="108" class="st0" width="6" height="6"/>
	<rect x="138" y="108" class="st0" width="6" height="6"/>
	<rect x="144" y="108" class="st9" width="6" height="6"/>
	<rect x="150" y="108" class="st4" width="6" height="6"/>
	<rect x="156" y="108" class="st4" width="6" height="6"/>
	<rect x="162" y="108" class="st2" width="6" height="6"/>
	<rect x="168" y="108" class="st0" width="6" height="6"/>
	<rect y="114" class="st0" width="6" height="6"/>
	<rect x="6" y="114" class="st0" width="6" height="6"/>
	<rect x="12" y="114" class="st1" width="6" height="6"/>
	<rect x="18" y="114" class="st2" width="6" height="6"/>
	<rect x="24" y="114" class="st1" width="6" height="6"/>
	<rect x="30" y="114" class="st0" width="6" height="6"/>
	<rect x="48" y="114" class="st0" width="6" height="6"/>
	<rect x="54" y="114" class="st0" width="6" height="6"/>
	<rect x="60" y="114" class="st0" width="6" height="6"/>
	<rect x="66" y="114" class="st0" width="6" height="6"/>
	<rect x="72" y="114" class="st9" width="6" height="6"/>
	<rect x="78" y="114" class="st4" width="6" height="6"/>
	<rect x="84" y="114" class="st4" width="6" height="6"/>
	<rect x="90" y="114" class="st4" width="6" height="6"/>
	<rect x="96" y="114" class="st2" width="6" height="6"/>
	<rect x="102" y="114" class="st0" width="6" height="6"/>
	<rect x="120" y="114" class="st0" width="6" height="6"/>
	<rect x="126" y="114" class="st1" width="6" height="6"/>
	<rect x="132" y="114" class="st1" width="6" height="6"/>
	<rect x="138" y="114" class="st9" width="6" height="6"/>
	<rect x="144" y="114" class="st4" width="6" height="6"/>
	<rect x="150" y="114" class="st12" width="6" height="6"/>
	<rect x="156" y="114" class="st4" width="6" height="6"/>
	<rect x="162" y="114" class="st9" width="6" height="6"/>
	<rect x="168" y="114" class="st0" width="6" height="6"/>
	<rect y="120" class="st1" width="6" height="6"/>
	<rect x="6" y="120" class="st1" width="6" height="6"/>
	<rect x="12" y="120" class="st2" width="6" height="6"/>
	<rect x="18" y="120" class="st1" width="6" height="6"/>
	<rect x="24" y="120" class="st0" width="6" height="6"/>
	<rect x="42" y="120" class="st0" width="6" height="6"/>
	<rect x="48" y="120" class="st1" width="6" height="6"/>
	<rect x="54" y="120" class="st1" width="6" height="6"/>
	<rect x="60" y="120" class="st1" width="6" height="6"/>
	<rect x="66" y="120" class="st9" width="6" height="6"/>
	<rect x="72" y="120" class="st4" width="6" height="6"/>
	<rect x="78" y="120" class="st12" width="6" height="6"/>
	<rect x="84" y="120" class="st12" width="6" height="6"/>
	<rect x="90" y="120" class="st4" width="6" height="6"/>
	<rect x="96" y="120" class="st9" width="6" height="6"/>
	<rect x="102" y="120" class="st0" width="6" height="6"/>
	<rect x="114" y="120" class="st0" width="6" height="6"/>
	<rect x="120" y="120" class="st1" width="6" height="6"/>
	<rect x="126" y="120" class="st11" width="6" height="6"/>
	<rect x="132" y="120" class="st12" width="6" height="6"/>
	<rect x="138" y="120" class="st12" width="6" height="6"/>
	<rect x="144" y="120" class="st12" width="6" height="6"/>
	<rect x="150" y="120" class="st1" width="6" height="6"/>
	<rect x="156" y="120" class="st12" width="6" height="6"/>
	<rect x="162" y="120" class="st4" width="6" height="6"/>
	<rect x="168" y="120" class="st9" width="6" height="6"/>
	<rect x="174" y="120" class="st0" width="6" height="6"/>
	<rect y="126" class="st3" width="6" height="6"/>
	<rect x="6" y="126" class="st2" width="6" height="6"/>
	<rect x="12" y="126" class="st1" width="6" height="6"/>
	<rect x="18" y="126" class="st0" width="6" height="6"/>
	<rect x="36" y="126" class="st0" width="6" height="6"/>
	<rect x="42" y="126" class="st1" width="6" height="6"/>
	<rect x="48" y="126" class="st11" width="6" height="6"/>
	<rect x="54" y="126" class="st11" width="6" height="6"/>
	<rect x="60" y="126" class="st12" width="6" height="6"/>
	<rect x="66" y="126" class="st12" width="6" height="6"/>
	<rect x="72" y="126" class="st12" width="6" height="6"/>
	<rect x="78" y="126" class="st1" width="6" height="6"/>
	<rect x="84" y="126" class="st1" width="6" height="6"/>
	<rect x="90" y="126" class="st12" width="6" height="6"/>
	<rect x="96" y="126" class="st4" width="6" height="6"/>
	<rect x="102" y="126" class="st9" width="6" height="6"/>
	<rect x="108" y="126" class="st0" width="6" height="6"/>
	<rect x="120" y="126" class="st0" width="6" height="6"/>
	<rect x="126" y="126" class="st1" width="6" height="6"/>
	<rect x="132" y="126" class="st11" width="6" height="6"/>
	<rect x="138" y="126" class="st12" width="6" height="6"/>
	<rect x="144" y="126" class="st1" width="6" height="6"/>
	<rect x="150" y="126" class="st0" width="6" height="6"/>
	<rect x="156" y="126" class="st1" width="6" height="6"/>
	<rect x="162" y="126" class="st12" width="6" height="6"/>
	<rect x="168" y="126" class="st4" width="6" height="6"/>
	<rect x="174" y="126" class="st2" width="6" height="6"/>
	<rect x="180" y="126" class="st0" width="6" height="6"/>
	<rect y="132" class="st0" width="6" height="6"/>
	<rect x="6" y="132" class="st2" width="6" height="6"/>
	<rect x="12" y="132" class="st1" width="6" height="6"/>
	<rect x="18" y="132" class="st0" width="6" height="6"/>
	<rect x="42" y="132" class="st0" width="6" height="6"/>
	<rect x="48" y="132" class="st1" width="6" height="6"/>
	<rect x="54" y="132" class="st11" width="6" height="6"/>
	<rect x="60" y="132" class="st11" width="6" height="6"/>
	<rect x="66" y="132" class="st12" width="6" height="6"/>
	<rect x="72" y="132" class="st1" width="6" height="6"/>
	<rect x="78" y="132" class="st0" width="6" height="6"/>
	<rect x="84" y="132" class="st0" width="6" height="6"/>
	<rect x="90" y="132" class="st1" width="6" height="6"/>
	<rect x="96" y="132" class="st12" width="6" height="6"/>
	<rect x="102" y="132" class="st4" width="6" height="6"/>
	<rect x="108" y="132" class="st2" width="6" height="6"/>
	<rect x="114" y="132" class="st0" width="6" height="6"/>
	<rect x="126" y="132" class="st0" width="6" height="6"/>
	<rect x="132" y="132" class="st1" width="6" height="6"/>
	<rect x="138" y="132" class="st11" width="6" height="6"/>
	<rect x="144" y="132" class="st12" width="6" height="6"/>
	<rect x="150" y="132" class="st1" width="6" height="6"/>
	<rect x="156" y="132" class="st12" width="6" height="6"/>
	<rect x="162" y="132" class="st12" width="6" height="6"/>
	<rect x="168" y="132" class="st12" width="6" height="6"/>
	<rect x="174" y="132" class="st4" width="6" height="6"/>
	<rect x="180" y="132" class="st2" width="6" height="6"/>
	<rect x="186" y="132" class="st0" width="6" height="6"/>
	<rect y="138" class="st2" width="6" height="6"/>
	<rect x="6" y="138" class="st2" width="6" height="6"/>
	<rect x="12" y="138" class="st1" width="6" height="6"/>
	<rect x="18" y="138" class="st0" width="6" height="6"/>
	<rect x="48" y="138" class="st0" width="6" height="6"/>
	<rect x="54" y="138" class="st1" width="6" height="6"/>
	<rect x="60" y="138" class="st11" width="6" height="6"/>
	<rect x="66" y="138" class="st12" width="6" height="6"/>
	<rect x="72" y="138" class="st1" width="6" height="6"/>
	<rect x="78" y="138" class="st0" width="6" height="6"/>
	<rect x="84" y="138" class="st0" width="6" height="6"/>
	<rect x="90" y="138" class="st1" width="6" height="6"/>
	<rect x="96" y="138" class="st12" width="6" height="6"/>
	<rect x="102" y="138" class="st4" width="6" height="6"/>
	<rect x="108" y="138" class="st4" width="6" height="6"/>
	<rect x="114" y="138" class="st2" width="6" height="6"/>
	<rect x="120" y="138" class="st0" width="6" height="6"/>
	<rect x="132" y="138" class="st0" width="6" height="6"/>
	<rect x="138" y="138" class="st1" width="6" height="6"/>
	<rect x="144" y="138" class="st11" width="6" height="6"/>
	<rect x="150" y="138" class="st12" width="6" height="6"/>
	<rect x="156" y="138" class="st11" width="6" height="6"/>
	<rect x="162" y="138" class="st1" width="6" height="6"/>
	<rect x="168" y="138" class="st1" width="6" height="6"/>
	<rect x="174" y="138" class="st2" width="6" height="6"/>
	<rect x="180" y="138" class="st0" width="6" height="6"/>
	<rect y="144" class="st1" width="6" height="6"/>
	<rect x="6" y="144" class="st1" width="6" height="6"/>
	<rect x="12" y="144" class="st0" width="6" height="6"/>
	<rect x="54" y="144" class="st0" width="6" height="6"/>
	<rect x="60" y="144" class="st1" width="6" height="6"/>
	<rect x="66" y="144" class="st11" width="6" height="6"/>
	<rect x="72" y="144" class="st12" width="6" height="6"/>
	<rect x="78" y="144" class="st1" width="6" height="6"/>
	<rect x="84" y="144" class="st1" width="6" height="6"/>
	<rect x="90" y="144" class="st12" width="6" height="6"/>
	<rect x="96" y="144" class="st12" width="6" height="6"/>
	<rect x="102" y="144" class="st12" width="6" height="6"/>
	<rect x="108" y="144" class="st4" width="6" height="6"/>
	<rect x="114" y="144" class="st4" width="6" height="6"/>
	<rect x="120" y="144" class="st2" width="6" height="6"/>
	<rect x="132" y="144" class="st0" width="6" height="6"/>
	<rect x="138" y="144" class="st1" width="6" height="6"/>
	<rect x="144" y="144" class="st11" width="6" height="6"/>
	<rect x="150" y="144" class="st11" width="6" height="6"/>
	<rect x="156" y="144" class="st1" width="6" height="6"/>
	<rect x="162" y="144" class="st0" width="6" height="6"/>
	<rect x="168" y="144" class="st0" width="6" height="6"/>
	<rect x="174" y="144" class="st0" width="6" height="6"/>
	<rect y="150" class="st0" width="6" height="6"/>
	<rect x="6" y="150" class="st0" width="6" height="6"/>
	<rect x="60" y="150" class="st0" width="6" height="6"/>
	<rect x="66" y="150" class="st1" width="6" height="6"/>
	<rect x="72" y="150" class="st11" width="6" height="6"/>
	<rect x="78" y="150" class="st12" width="6" height="6"/>
	<rect x="84" y="150" class="st12" width="6" height="6"/>
	<rect x="90" y="150" class="st11" width="6" height="6"/>
	<rect x="96" y="150" class="st1" width="6" height="6"/>
	<rect x="102" y="150" class="st1" width="6" height="6"/>
	<rect x="108" y="150" class="st2" width="6" height="6"/>
	<rect x="114" y="150" class="st2" width="6" height="6"/>
	<rect x="120" y="150" class="st0" width="6" height="6"/>
	<rect x="132" y="150" class="st0" width="6" height="6"/>
	<rect x="138" y="150" class="st1" width="6" height="6"/>
	<rect x="144" y="150" class="st11" width="6" height="6"/>
	<rect x="150" y="150" class="st1" width="6" height="6"/>
	<rect x="156" y="150" class="st0" width="6" height="6"/>
	<rect x="60" y="156" class="st0" width="6" height="6"/>
	<rect x="66" y="156" class="st1" width="6" height="6"/>
	<rect x="72" y="156" class="st11" width="6" height="6"/>
	<rect x="78" y="156" class="st11" width="6" height="6"/>
	<rect x="84" y="156" class="st11" width="6" height="6"/>
	<rect x="90" y="156" class="st1" width="6" height="6"/>
	<rect x="96" y="156" class="st0" width="6" height="6"/>
	<rect x="102" y="156" class="st0" width="6" height="6"/>
	<rect x="108" y="156" class="st0" width="6" height="6"/>
	<rect x="114" y="156" class="st0" width="6" height="6"/>
	<rect x="138" y="156" class="st0" width="6" height="6"/>
	<rect x="144" y="156" class="st1" width="6" height="6"/>
	<rect x="150" y="156" class="st0" width="6" height="6"/>
	<rect x="60" y="162" class="st0" width="6" height="6"/>
	<rect x="66" y="162" class="st1" width="6" height="6"/>
	<rect x="72" y="162" class="st11" width="6" height="6"/>
	<rect x="78" y="162" class="st11" width="6" height="6"/>
	<rect x="84" y="162" class="st1" width="6" height="6"/>
	<rect x="90" y="162" class="st0" width="6" height="6"/>
	<rect x="144" y="162" class="st0" width="6" height="6"/>
	<rect x="60" y="168" class="st0" width="6" height="6"/>
	<rect x="66" y="168" class="st1" width="6" height="6"/>
	<rect x="72" y="168" class="st11" width="6" height="6"/>
	<rect x="78" y="168" class="st1" width="6" height="6"/>
	<rect x="84" y="168" class="st0" width="6" height="6"/>
	<rect x="66" y="174" class="st0" width="6" height="6"/>
	<rect x="72" y="174" class="st1" width="6" height="6"/>
	<rect x="78" y="174" class="st0" width="6" height="6"/>
	<rect x="72" y="180" class="st0" width="6" height="6"/>
</g>
</svg>
