<?xml version="1.0" encoding="UTF-8"?><svg id="Layer_1" xmlns="http://www.w3.org/2000/svg" viewBox="0 0 500 430"><defs><style>.cls-1,.cls-2{stroke:#914938;stroke-miterlimit:10;stroke-width:2px;}.cls-1,.cls-3{fill:#914938;}.cls-4{fill:#f4ebd4;font-family:Roboto-Bold, Roboto;font-size:20.36px;font-weight:700;}.cls-2{fill:none;}.cls-3{stroke-width:0px;}</style></defs><path class="cls-3" d="m401.38,215.39c-.72.36-1.44.72-2.16.72-2.16,0-3.96-1.08-5.4-2.16-27.36,9-67.32,23.76-97.2,36.72.72,8.28,1.08,17.64,1.08,28.08,0,11.52-.36,24.48-1.08,38.52l-26.28,1.44c1.08-12.96,1.8-29.52,1.8-43.56,0-5.4,0-10.44-.36-14.4-40.68,19.8-73.8,43.92-73.8,65.52s24.84,30.96,74.52,30.96c34.92,0,67.32-.72,90.36-3.6l.36,24.12c-21.24,2.16-53.64,2.88-90.72,2.88-69.12,0-99.72-16.56-99.72-53.28,0-31.68,41.76-62.28,95.76-89.28-2.16-22.68-12.24-33.84-26.64-33.84-26.28,0-53.64,14.76-86.04,50.76-10.08,11.16-24.12,25.2-39.6,39.24l-17.64-17.64c36-31.68,69.84-61.92,90.72-132.84l-20.16.36h-60.12v-23.4c21.96.36,47.52.36,62.28.36l24.48-.36c3.96-16.56,7.2-32.04,9.72-51.48l35.28,4.32c-.72,3.6-3.6,5.76-9,6.48-2.52,14.4-5.76,27-9,39.96,24.48-.36,77.04-6.12,123.84-20.88l4.32,24.12c-45,14.04-99.36,19.08-135,20.16-8.64,27-17.64,48.6-25.92,60.84h.36c15.84-14.04,39.6-23.4,57.96-23.4,24.48,0,39.96,17.64,44.64,46.8,30.24-13.68,68.4-28.44,97.2-39.6l11.16,27.36Z"/><path class="cls-2" d="m146.12,107.04s100.04,6.13,156.76-10.77"/><path class="cls-2" d="m244.53,86.97s-14.96,64.26-25.4,86.93"/><path class="cls-2" d="m141.64,286.72s37.24-39.77,48.34-48.84"/><line class="cls-2" x1="375.04" y1="178.92" x2="299.06" y2="209.93"/><polygon class="cls-1" points="297.03 97.77 296.03 93.13 302.26 94.22 308.48 95.3 303.26 98.86 298.03 102.41 297.03 97.77"/><polygon class="cls-1" points="221.53 168.3 225.98 169.99 221.68 174.63 217.38 179.26 217.24 172.94 217.09 166.62 221.53 168.3"/><polygon class="cls-1" points="186.38 240.85 182.91 237.6 188.66 234.95 194.4 232.31 192.12 238.21 189.84 244.1 186.38 240.85"/><polygon class="cls-1" points="307.75 206.22 309.74 210.53 303.43 210.83 297.11 211.13 301.44 206.52 305.76 201.91 307.75 206.22"/><circle class="cls-1" cx="120.89" cy="88.9" r="16.1"/><text class="cls-4" transform="translate(115.05 96.21)"><tspan x="0" y="0">1</tspan></text><circle class="cls-1" cx="267.24" cy="65.46" r="16.1"/><text class="cls-4" transform="translate(261.4 72.77)"><tspan x="0" y="0">2</tspan></text><circle class="cls-1" cx="383.33" cy="151.42" r="16.1"/><text class="cls-4" transform="translate(377.49 158.72)"><tspan x="0" y="0">3</tspan></text></svg>