<?xml version="1.0" encoding="UTF-8"?><svg id="Layer_1" xmlns="http://www.w3.org/2000/svg" viewBox="0 0 500 430"><defs><style>.cls-1,.cls-2{stroke:#914938;stroke-miterlimit:10;stroke-width:2px;}.cls-1,.cls-3{fill:#914938;}.cls-4{fill:#f4ebd4;font-family:Roboto-Bold, Roboto;font-size:20.36px;font-weight:700;}.cls-2{fill:none;}.cls-3{stroke-width:0px;}</style></defs><path class="cls-3" d="m329.15,144.61c3.96-.36,7.2-.72,10.8-.72,39.24,0,78.12,23.4,78.12,72s-32.04,74.16-81.36,74.16c-21.24,0-49.32-7.92-72-25.92,2.52-5.4,5.4-14.76,7.2-21.6,20.88,16.2,45.72,23.76,64.8,23.76,33.84,0,55.08-18.36,55.08-50.76,0-26.64-18.36-47.52-56.52-47.52-30.24,0-77.76,15.48-118.44,29.88,16.92,57.24,39.96,139.32,54,193.32l-27.72,6.12c-11.16-51.84-34.92-137.52-50.4-190.44-23.04,8.28-55.44,19.08-74.88,26.28-.36,3.24-2.88,6.48-6.12,7.92l-11.52-28.8c23.04-7.2,59.4-19.08,85.68-28.44-10.8-36.72-20.88-69.12-27.36-90l37.08-6.84c.36,4.68-1.44,6.48-7.56,9.72,7.92,27.72,14.4,51.12,22.32,78.48,38.88-13.32,75.6-25.2,103.68-29.16-16.2-18.36-44.64-42.84-64.44-54.72l16.56-16.2c24.12,13.68,56.16,40.68,73.08,61.2l-10.08,8.28Z"/><line class="cls-2" x1="112.87" y1="193.96" x2="238.61" y2="151.39"/><path class="cls-2" d="m281.63,70.17s42.4,27.81,66,54.96"/><line class="cls-2" x1="202.67" y1="100.48" x2="237" y2="220.39"/><polygon class="cls-1" points="235.03 212.04 239.51 210.45 239.24 216.77 238.97 223.08 234.77 218.36 230.56 213.64 235.03 212.04"/><polygon class="cls-1" points="343.44 121.11 347.13 118.11 348.98 124.16 350.84 130.2 345.3 127.16 339.76 124.11 343.44 121.11"/><polygon class="cls-1" points="234.47 152.55 233.07 148.01 239.37 148.55 245.67 149.09 240.77 153.09 235.87 157.09 234.47 152.55"/><circle class="cls-1" cx="98.03" cy="168.21" r="16.1"/><text class="cls-4" transform="translate(92.19 175.51)"><tspan x="0" y="0">1</tspan></text><circle class="cls-1" cx="268.82" cy="48.76" r="16.1"/><text class="cls-4" transform="translate(262.98 56.07)"><tspan x="0" y="0">2</tspan></text><circle class="cls-1" cx="230.86" cy="110.16" r="16.1"/><text class="cls-4" transform="translate(225.03 117.47)"><tspan x="0" y="0">3</tspan></text></svg>