<?xml version="1.0" encoding="utf-8"?>
<!-- Generator: Adobe Illustrator 27.9.0, SVG Export Plug-In . SVG Version: 6.00 Build 0)  -->
<svg version="1.1" id="Layer_1" shape-rendering="crispEdges"
	 xmlns="http://www.w3.org/2000/svg" xmlns:xlink="http://www.w3.org/1999/xlink" x="0px" y="0px" viewBox="0 0 192 192"
	 style="enable-background:new 0 0 192 192;" xml:space="preserve">
<style type="text/css">
	.st0{fill:#50B06E;}
	.st1{fill:#ABCC5C;}
	.st2{fill:#4A9155;}
	.st3{fill:#388A84;}
	.st4{fill:#E7A55D;}
	.st5{fill:#847AA4;}
	.st6{fill:#B2718B;}
	.st7{fill:#6E5070;}
	.st8{fill:#733C81;}
	.st9{fill:#694F86;}
	.st10{fill:#8D5386;}
	.st11{fill:#493969;}
	.st12{fill:#E87687;}
	.st13{fill:#CF6F87;}
	.st14{fill:#EBAC8B;}
	.st15{fill:#C79FC1;}
	.st16{fill:#DBE7D7;}
	.st17{fill:#EB97A7;}
	.st18{fill:#B55D83;}
	.st19{fill:#F1BAC7;}
	.st20{fill:#C87392;}
	.st21{fill:#DA7FA0;}
	.st22{fill:#1D8566;}
</style>
<g>
	<rect x="30" y="29" class="st0" width="6" height="6"/>
	<rect x="36" y="29" class="st0" width="6" height="6"/>
	<rect x="42" y="29" class="st0" width="6" height="6"/>
	<rect x="144" y="29" class="st0" width="6" height="6"/>
	<rect x="150" y="29" class="st0" width="6" height="6"/>
	<rect x="156" y="29" class="st0" width="6" height="6"/>
	<rect x="24" y="35" class="st0" width="6" height="6"/>
	<rect x="30" y="35" class="st1" width="6" height="6"/>
	<rect x="36" y="35" class="st2" width="6" height="6"/>
	<rect x="42" y="35" class="st3" width="6" height="6"/>
	<rect x="48" y="35" class="st0" width="6" height="6"/>
	<rect x="138" y="35" class="st0" width="6" height="6"/>
	<rect x="144" y="35" class="st3" width="6" height="6"/>
	<rect x="150" y="35" class="st2" width="6" height="6"/>
	<rect x="156" y="35" class="st1" width="6" height="6"/>
	<rect x="162" y="35" class="st0" width="6" height="6"/>
	<rect x="24" y="41" class="st0" width="6" height="6"/>
	<rect x="30" y="41" class="st2" width="6" height="6"/>
	<rect x="36" y="41" class="st4" width="6" height="6"/>
	<rect x="42" y="41" class="st5" width="6" height="6"/>
	<rect x="48" y="41" class="st0" width="6" height="6"/>
	<rect x="138" y="41" class="st0" width="6" height="6"/>
	<rect x="144" y="41" class="st5" width="6" height="6"/>
	<rect x="150" y="41" class="st4" width="6" height="6"/>
	<rect x="156" y="41" class="st2" width="6" height="6"/>
	<rect x="162" y="41" class="st0" width="6" height="6"/>
	<rect x="24" y="47" class="st0" width="6" height="6"/>
	<rect x="30" y="47" class="st3" width="6" height="6"/>
	<rect x="36" y="47" class="st5" width="6" height="6"/>
	<rect x="42" y="47" class="st6" width="6" height="6"/>
	<rect x="48" y="47" class="st0" width="6" height="6"/>
	<rect x="84" y="47" class="st0" width="6" height="6"/>
	<rect x="90" y="47" class="st0" width="6" height="6"/>
	<rect x="96" y="47" class="st0" width="6" height="6"/>
	<rect x="102" y="47" class="st0" width="6" height="6"/>
	<rect x="138" y="47" class="st0" width="6" height="6"/>
	<rect x="144" y="47" class="st6" width="6" height="6"/>
	<rect x="150" y="47" class="st5" width="6" height="6"/>
	<rect x="156" y="47" class="st3" width="6" height="6"/>
	<rect x="162" y="47" class="st0" width="6" height="6"/>
	<rect x="30" y="53" class="st0" width="6" height="6"/>
	<rect x="36" y="53" class="st0" width="6" height="6"/>
	<rect x="42" y="53" class="st0" width="6" height="6"/>
	<rect x="48" y="53" class="st7" width="6" height="6"/>
	<rect x="54" y="53" class="st0" width="6" height="6"/>
	<rect x="72" y="53" class="st0" width="6" height="6"/>
	<rect x="78" y="53" class="st0" width="6" height="6"/>
	<rect x="84" y="53" class="st8" width="6" height="6"/>
	<rect x="90" y="53" class="st9" width="6" height="6"/>
	<rect x="96" y="53" class="st10" width="6" height="6"/>
	<rect x="102" y="53" class="st10" width="6" height="6"/>
	<rect x="108" y="53" class="st0" width="6" height="6"/>
	<rect x="114" y="53" class="st0" width="6" height="6"/>
	<rect x="132" y="53" class="st0" width="6" height="6"/>
	<rect x="138" y="53" class="st7" width="6" height="6"/>
	<rect x="144" y="53" class="st0" width="6" height="6"/>
	<rect x="150" y="53" class="st0" width="6" height="6"/>
	<rect x="156" y="53" class="st0" width="6" height="6"/>
	<rect x="48" y="59" class="st0" width="6" height="6"/>
	<rect x="54" y="59" class="st11" width="6" height="6"/>
	<rect x="60" y="59" class="st0" width="6" height="6"/>
	<rect x="66" y="59" class="st0" width="6" height="6"/>
	<rect x="72" y="59" class="st8" width="6" height="6"/>
	<rect x="78" y="59" class="st9" width="6" height="6"/>
	<rect x="84" y="59" class="st12" width="6" height="6"/>
	<rect x="90" y="59" class="st12" width="6" height="6"/>
	<rect x="96" y="59" class="st13" width="6" height="6"/>
	<rect x="102" y="59" class="st14" width="6" height="6"/>
	<rect x="108" y="59" class="st10" width="6" height="6"/>
	<rect x="114" y="59" class="st10" width="6" height="6"/>
	<rect x="120" y="59" class="st0" width="6" height="6"/>
	<rect x="126" y="59" class="st0" width="6" height="6"/>
	<rect x="132" y="59" class="st11" width="6" height="6"/>
	<rect x="138" y="59" class="st0" width="6" height="6"/>
	<rect x="54" y="65" class="st0" width="6" height="6"/>
	<rect x="60" y="65" class="st11" width="6" height="6"/>
	<rect x="66" y="65" class="st9" width="6" height="6"/>
	<rect x="72" y="65" class="st15" width="6" height="6"/>
	<rect x="78" y="65" class="st13" width="6" height="6"/>
	<rect x="84" y="65" class="st12" width="6" height="6"/>
	<rect x="90" y="65" class="st16" width="6" height="6"/>
	<rect x="96" y="65" class="st16" width="6" height="6"/>
	<rect x="102" y="65" class="st16" width="6" height="6"/>
	<rect x="108" y="65" class="st17" width="6" height="6"/>
	<rect x="114" y="65" class="st14" width="6" height="6"/>
	<rect x="120" y="65" class="st10" width="6" height="6"/>
	<rect x="126" y="65" class="st11" width="6" height="6"/>
	<rect x="132" y="65" class="st0" width="6" height="6"/>
	<rect x="54" y="71" class="st0" width="6" height="6"/>
	<rect x="60" y="71" class="st8" width="6" height="6"/>
	<rect x="66" y="71" class="st18" width="6" height="6"/>
	<rect x="72" y="71" class="st13" width="6" height="6"/>
	<rect x="78" y="71" class="st13" width="6" height="6"/>
	<rect x="84" y="71" class="st16" width="6" height="6"/>
	<rect x="90" y="71" class="st12" width="6" height="6"/>
	<rect x="96" y="71" class="st12" width="6" height="6"/>
	<rect x="102" y="71" class="st12" width="6" height="6"/>
	<rect x="108" y="71" class="st12" width="6" height="6"/>
	<rect x="114" y="71" class="st13" width="6" height="6"/>
	<rect x="120" y="71" class="st14" width="6" height="6"/>
	<rect x="126" y="71" class="st10" width="6" height="6"/>
	<rect x="132" y="71" class="st0" width="6" height="6"/>
	<rect x="48" y="77" class="st0" width="6" height="6"/>
	<rect x="54" y="77" class="st9" width="6" height="6"/>
	<rect x="60" y="77" class="st10" width="6" height="6"/>
	<rect x="66" y="77" class="st18" width="6" height="6"/>
	<rect x="72" y="77" class="st13" width="6" height="6"/>
	<rect x="78" y="77" class="st15" width="6" height="6"/>
	<rect x="84" y="77" class="st12" width="6" height="6"/>
	<rect x="90" y="77" class="st12" width="6" height="6"/>
	<rect x="96" y="77" class="st16" width="6" height="6"/>
	<rect x="102" y="77" class="st16" width="6" height="6"/>
	<rect x="108" y="77" class="st16" width="6" height="6"/>
	<rect x="114" y="77" class="st19" width="6" height="6"/>
	<rect x="120" y="77" class="st17" width="6" height="6"/>
	<rect x="126" y="77" class="st14" width="6" height="6"/>
	<rect x="132" y="77" class="st10" width="6" height="6"/>
	<rect x="138" y="77" class="st0" width="6" height="6"/>
	<rect x="48" y="83" class="st0" width="6" height="6"/>
	<rect x="54" y="83" class="st8" width="6" height="6"/>
	<rect x="60" y="83" class="st20" width="6" height="6"/>
	<rect x="66" y="83" class="st18" width="6" height="6"/>
	<rect x="72" y="83" class="st15" width="6" height="6"/>
	<rect x="78" y="83" class="st13" width="6" height="6"/>
	<rect x="84" y="83" class="st12" width="6" height="6"/>
	<rect x="90" y="83" class="st16" width="6" height="6"/>
	<rect x="96" y="83" class="st12" width="6" height="6"/>
	<rect x="102" y="83" class="st12" width="6" height="6"/>
	<rect x="108" y="83" class="st12" width="6" height="6"/>
	<rect x="114" y="83" class="st13" width="6" height="6"/>
	<rect x="120" y="83" class="st13" width="6" height="6"/>
	<rect x="126" y="83" class="st13" width="6" height="6"/>
	<rect x="132" y="83" class="st10" width="6" height="6"/>
	<rect x="138" y="83" class="st0" width="6" height="6"/>
	<rect x="42" y="89" class="st0" width="6" height="6"/>
	<rect x="48" y="89" class="st8" width="6" height="6"/>
	<rect x="54" y="89" class="st10" width="6" height="6"/>
	<rect x="60" y="89" class="st20" width="6" height="6"/>
	<rect x="66" y="89" class="st10" width="6" height="6"/>
	<rect x="72" y="89" class="st13" width="6" height="6"/>
	<rect x="78" y="89" class="st13" width="6" height="6"/>
	<rect x="84" y="89" class="st15" width="6" height="6"/>
	<rect x="90" y="89" class="st12" width="6" height="6"/>
	<rect x="96" y="89" class="st12" width="6" height="6"/>
	<rect x="102" y="89" class="st16" width="6" height="6"/>
	<rect x="108" y="89" class="st16" width="6" height="6"/>
	<rect x="114" y="89" class="st19" width="6" height="6"/>
	<rect x="120" y="89" class="st17" width="6" height="6"/>
	<rect x="126" y="89" class="st17" width="6" height="6"/>
	<rect x="132" y="89" class="st14" width="6" height="6"/>
	<rect x="138" y="89" class="st10" width="6" height="6"/>
	<rect x="144" y="89" class="st0" width="6" height="6"/>
	<rect x="42" y="95" class="st0" width="6" height="6"/>
	<rect x="48" y="95" class="st8" width="6" height="6"/>
	<rect x="54" y="95" class="st20" width="6" height="6"/>
	<rect x="60" y="95" class="st21" width="6" height="6"/>
	<rect x="66" y="95" class="st18" width="6" height="6"/>
	<rect x="72" y="95" class="st13" width="6" height="6"/>
	<rect x="78" y="95" class="st15" width="6" height="6"/>
	<rect x="84" y="95" class="st13" width="6" height="6"/>
	<rect x="90" y="95" class="st12" width="6" height="6"/>
	<rect x="96" y="95" class="st16" width="6" height="6"/>
	<rect x="102" y="95" class="st13" width="6" height="6"/>
	<rect x="108" y="95" class="st13" width="6" height="6"/>
	<rect x="114" y="95" class="st13" width="6" height="6"/>
	<rect x="120" y="95" class="st13" width="6" height="6"/>
	<rect x="126" y="95" class="st17" width="6" height="6"/>
	<rect x="132" y="95" class="st13" width="6" height="6"/>
	<rect x="138" y="95" class="st10" width="6" height="6"/>
	<rect x="144" y="95" class="st0" width="6" height="6"/>
	<rect x="42" y="101" class="st0" width="6" height="6"/>
	<rect x="48" y="101" class="st8" width="6" height="6"/>
	<rect x="54" y="101" class="st10" width="6" height="6"/>
	<rect x="60" y="101" class="st20" width="6" height="6"/>
	<rect x="66" y="101" class="st21" width="6" height="6"/>
	<rect x="72" y="101" class="st10" width="6" height="6"/>
	<rect x="78" y="101" class="st13" width="6" height="6"/>
	<rect x="84" y="101" class="st13" width="6" height="6"/>
	<rect x="90" y="101" class="st15" width="6" height="6"/>
	<rect x="96" y="101" class="st17" width="6" height="6"/>
	<rect x="102" y="101" class="st17" width="6" height="6"/>
	<rect x="108" y="101" class="st17" width="6" height="6"/>
	<rect x="114" y="101" class="st17" width="6" height="6"/>
	<rect x="120" y="101" class="st13" width="6" height="6"/>
	<rect x="126" y="101" class="st13" width="6" height="6"/>
	<rect x="132" y="101" class="st14" width="6" height="6"/>
	<rect x="138" y="101" class="st10" width="6" height="6"/>
	<rect x="144" y="101" class="st0" width="6" height="6"/>
	<rect x="42" y="107" class="st0" width="6" height="6"/>
	<rect x="48" y="107" class="st8" width="6" height="6"/>
	<rect x="54" y="107" class="st18" width="6" height="6"/>
	<rect x="60" y="107" class="st10" width="6" height="6"/>
	<rect x="66" y="107" class="st20" width="6" height="6"/>
	<rect x="72" y="107" class="st21" width="6" height="6"/>
	<rect x="78" y="107" class="st18" width="6" height="6"/>
	<rect x="84" y="107" class="st15" width="6" height="6"/>
	<rect x="90" y="107" class="st13" width="6" height="6"/>
	<rect x="96" y="107" class="st13" width="6" height="6"/>
	<rect x="102" y="107" class="st13" width="6" height="6"/>
	<rect x="108" y="107" class="st13" width="6" height="6"/>
	<rect x="114" y="107" class="st13" width="6" height="6"/>
	<rect x="120" y="107" class="st17" width="6" height="6"/>
	<rect x="126" y="107" class="st13" width="6" height="6"/>
	<rect x="132" y="107" class="st14" width="6" height="6"/>
	<rect x="138" y="107" class="st10" width="6" height="6"/>
	<rect x="144" y="107" class="st0" width="6" height="6"/>
	<rect x="48" y="113" class="st0" width="6" height="6"/>
	<rect x="54" y="113" class="st8" width="6" height="6"/>
	<rect x="60" y="113" class="st20" width="6" height="6"/>
	<rect x="66" y="113" class="st10" width="6" height="6"/>
	<rect x="72" y="113" class="st20" width="6" height="6"/>
	<rect x="78" y="113" class="st21" width="6" height="6"/>
	<rect x="84" y="113" class="st18" width="6" height="6"/>
	<rect x="90" y="113" class="st17" width="6" height="6"/>
	<rect x="96" y="113" class="st17" width="6" height="6"/>
	<rect x="102" y="113" class="st17" width="6" height="6"/>
	<rect x="108" y="113" class="st17" width="6" height="6"/>
	<rect x="114" y="113" class="st13" width="6" height="6"/>
	<rect x="120" y="113" class="st13" width="6" height="6"/>
	<rect x="126" y="113" class="st17" width="6" height="6"/>
	<rect x="132" y="113" class="st10" width="6" height="6"/>
	<rect x="138" y="113" class="st0" width="6" height="6"/>
	<rect x="48" y="119" class="st0" width="6" height="6"/>
	<rect x="54" y="119" class="st8" width="6" height="6"/>
	<rect x="60" y="119" class="st18" width="6" height="6"/>
	<rect x="66" y="119" class="st20" width="6" height="6"/>
	<rect x="72" y="119" class="st18" width="6" height="6"/>
	<rect x="78" y="119" class="st20" width="6" height="6"/>
	<rect x="84" y="119" class="st21" width="6" height="6"/>
	<rect x="90" y="119" class="st10" width="6" height="6"/>
	<rect x="96" y="119" class="st10" width="6" height="6"/>
	<rect x="102" y="119" class="st13" width="6" height="6"/>
	<rect x="108" y="119" class="st13" width="6" height="6"/>
	<rect x="114" y="119" class="st17" width="6" height="6"/>
	<rect x="120" y="119" class="st13" width="6" height="6"/>
	<rect x="126" y="119" class="st14" width="6" height="6"/>
	<rect x="132" y="119" class="st10" width="6" height="6"/>
	<rect x="138" y="119" class="st0" width="6" height="6"/>
	<rect x="54" y="125" class="st0" width="6" height="6"/>
	<rect x="60" y="125" class="st9" width="6" height="6"/>
	<rect x="66" y="125" class="st18" width="6" height="6"/>
	<rect x="72" y="125" class="st20" width="6" height="6"/>
	<rect x="78" y="125" class="st10" width="6" height="6"/>
	<rect x="84" y="125" class="st20" width="6" height="6"/>
	<rect x="90" y="125" class="st21" width="6" height="6"/>
	<rect x="96" y="125" class="st21" width="6" height="6"/>
	<rect x="102" y="125" class="st10" width="6" height="6"/>
	<rect x="108" y="125" class="st10" width="6" height="6"/>
	<rect x="114" y="125" class="st18" width="6" height="6"/>
	<rect x="120" y="125" class="st18" width="6" height="6"/>
	<rect x="126" y="125" class="st10" width="6" height="6"/>
	<rect x="132" y="125" class="st0" width="6" height="6"/>
	<rect x="54" y="131" class="st0" width="6" height="6"/>
	<rect x="60" y="131" class="st11" width="6" height="6"/>
	<rect x="66" y="131" class="st8" width="6" height="6"/>
	<rect x="72" y="131" class="st18" width="6" height="6"/>
	<rect x="78" y="131" class="st20" width="6" height="6"/>
	<rect x="84" y="131" class="st18" width="6" height="6"/>
	<rect x="90" y="131" class="st10" width="6" height="6"/>
	<rect x="96" y="131" class="st20" width="6" height="6"/>
	<rect x="102" y="131" class="st20" width="6" height="6"/>
	<rect x="108" y="131" class="st21" width="6" height="6"/>
	<rect x="114" y="131" class="st21" width="6" height="6"/>
	<rect x="120" y="131" class="st10" width="6" height="6"/>
	<rect x="126" y="131" class="st11" width="6" height="6"/>
	<rect x="132" y="131" class="st0" width="6" height="6"/>
	<rect x="48" y="137" class="st0" width="6" height="6"/>
	<rect x="54" y="137" class="st11" width="6" height="6"/>
	<rect x="60" y="137" class="st0" width="6" height="6"/>
	<rect x="66" y="137" class="st0" width="6" height="6"/>
	<rect x="72" y="137" class="st8" width="6" height="6"/>
	<rect x="78" y="137" class="st9" width="6" height="6"/>
	<rect x="84" y="137" class="st18" width="6" height="6"/>
	<rect x="90" y="137" class="st20" width="6" height="6"/>
	<rect x="96" y="137" class="st18" width="6" height="6"/>
	<rect x="102" y="137" class="st18" width="6" height="6"/>
	<rect x="108" y="137" class="st10" width="6" height="6"/>
	<rect x="114" y="137" class="st10" width="6" height="6"/>
	<rect x="120" y="137" class="st0" width="6" height="6"/>
	<rect x="126" y="137" class="st0" width="6" height="6"/>
	<rect x="132" y="137" class="st11" width="6" height="6"/>
	<rect x="138" y="137" class="st0" width="6" height="6"/>
	<rect x="42" y="143" class="st0" width="6" height="6"/>
	<rect x="48" y="143" class="st7" width="6" height="6"/>
	<rect x="54" y="143" class="st0" width="6" height="6"/>
	<rect x="72" y="143" class="st0" width="6" height="6"/>
	<rect x="78" y="143" class="st0" width="6" height="6"/>
	<rect x="84" y="143" class="st8" width="6" height="6"/>
	<rect x="90" y="143" class="st8" width="6" height="6"/>
	<rect x="96" y="143" class="st9" width="6" height="6"/>
	<rect x="102" y="143" class="st10" width="6" height="6"/>
	<rect x="108" y="143" class="st0" width="6" height="6"/>
	<rect x="114" y="143" class="st0" width="6" height="6"/>
	<rect x="132" y="143" class="st0" width="6" height="6"/>
	<rect x="138" y="143" class="st7" width="6" height="6"/>
	<rect x="144" y="143" class="st0" width="6" height="6"/>
	<rect x="36" y="149" class="st0" width="6" height="6"/>
	<rect x="42" y="149" class="st5" width="6" height="6"/>
	<rect x="48" y="149" class="st0" width="6" height="6"/>
	<rect x="84" y="149" class="st0" width="6" height="6"/>
	<rect x="90" y="149" class="st0" width="6" height="6"/>
	<rect x="96" y="149" class="st0" width="6" height="6"/>
	<rect x="102" y="149" class="st0" width="6" height="6"/>
	<rect x="138" y="149" class="st0" width="6" height="6"/>
	<rect x="144" y="149" class="st5" width="6" height="6"/>
	<rect x="150" y="149" class="st0" width="6" height="6"/>
	<rect x="30" y="155" class="st0" width="6" height="6"/>
	<rect x="36" y="155" class="st22" width="6" height="6"/>
	<rect x="42" y="155" class="st0" width="6" height="6"/>
	<rect x="144" y="155" class="st0" width="6" height="6"/>
	<rect x="150" y="155" class="st22" width="6" height="6"/>
	<rect x="156" y="155" class="st0" width="6" height="6"/>
	<rect x="36" y="161" class="st0" width="6" height="6"/>
	<rect x="150" y="161" class="st0" width="6" height="6"/>
</g>
</svg>
