<?xml version="1.0" encoding="UTF-8"?><svg id="Layer_1" xmlns="http://www.w3.org/2000/svg" viewBox="0 0 500 430"><defs><style>.cls-1,.cls-2{stroke:#914938;stroke-miterlimit:10;stroke-width:2px;}.cls-1,.cls-3{fill:#914938;}.cls-4{fill:#f4ebd4;font-family:Roboto-Bold, Roboto;font-size:20.36px;font-weight:700;}.cls-2{fill:none;}.cls-3{stroke-width:0px;}</style></defs><path class="cls-3" d="m379.01,360.84c-30.96-24.48-70.2-47.88-108-60.12.72,14.04-1.8,32.4-4.68,41.76-2.88,29.88-30.6,41.4-63.72,41.4-46.44,0-83.16-22.68-83.52-59.04-.72-36.36,37.44-58.68,82.8-59.04,12.6,0,28.8.72,42.12,3.24,0-9.72-1.8-18-2.16-26.28-3.24-47.16-6.12-122.76-6.48-174.6l37.44,2.16c0,3.6-3.24,6.84-9.36,7.56-.36,9.72,0,57.24,0,68.04,23.4,0,75.96-3.96,119.52-11.52l2.52,25.56c-41.04,6.48-94.32,10.08-121.68,10.44,0,20.52.72,28.8,6.12,103.32,46.44,13.68,90.36,38.16,125.64,64.08l-16.56,23.04Zm-177.84-73.44c-34.56.72-58.68,15.12-58.68,35.64,0,26.28,28.44,37.8,57.24,37.8,25.2,0,46.08-9,46.08-34.56,0-8.28,0-23.04-.72-33.48-14.4-4.32-30.24-5.4-43.92-5.4Z"/><path class="cls-2" d="m275.13,131.68s75.17-6.05,91.51-8.67"/><line class="cls-2" x1="220.6" y1="87.24" x2="224.06" y2="193.48"/><path class="cls-2" d="m111.48,345.6s-23.77-40.63,16.01-68.28"/><path class="cls-2" d="m300.2,269.24s52.48,20.58,75.69,39.88"/><polygon class="cls-1" points="358.83 124.24 358.17 119.54 364.3 121.08 370.43 122.62 364.96 125.79 359.48 128.95 358.83 124.24"/><polygon class="cls-1" points="224.13 189.36 228.88 189.16 226.76 195.11 224.64 201.07 222.01 195.32 219.39 189.56 224.13 189.36"/><polygon class="cls-1" points="124.03 279.38 121.75 275.21 128.03 274.49 134.31 273.76 130.31 278.66 126.3 283.55 124.03 279.38"/><polygon class="cls-1" points="373.03 306.82 375.96 303.09 379.1 308.58 382.24 314.07 376.16 312.31 370.09 310.55 373.03 306.82"/><circle class="cls-1" cx="290.56" cy="99.04" r="16.1"/><text class="cls-4" transform="translate(284.73 106.34)"><tspan x="0" y="0">1</tspan></text><circle class="cls-1" cx="203.8" cy="62.21" r="16.1"/><text class="cls-4" transform="translate(197.96 69.52)"><tspan x="0" y="0">2</tspan></text></svg>