<?xml version="1.0" encoding="UTF-8"?><svg id="Layer_1" xmlns="http://www.w3.org/2000/svg" viewBox="0 0 500 430"><defs><style>.cls-1,.cls-2{stroke:#914938;stroke-miterlimit:10;stroke-width:2px;}.cls-1,.cls-3{fill:#914938;}.cls-4{fill:#f4ebd4;font-family:Roboto-Bold, Roboto;font-size:20.36px;font-weight:700;}.cls-2{fill:none;}.cls-3{stroke-width:0px;}</style></defs><path class="cls-3" d="m163.12,86.95c-1.08,3.96-5.4,5.4-9.36,5.4-11.16,38.16-16.92,103.32-16.2,143.64,28.08-63,87.12-106.56,144.36-114.84-1.08-20.16-2.52-43.2-4.68-60.84l36.36,1.08c-.72,3.96-2.52,6.48-8.64,7.92.36,12.6,1.08,31.68,2.16,48.96,57.24-.72,103.68,28.8,103.68,92.88s-42.12,99-113.04,100.44c-11.52,22.68-30.96,48.6-69.12,68.4-5.04-5.4-13.68-13.68-18.72-17.28,32.76-15.84,51.84-36,61.56-54.72-28.08-3.24-62.28-21.6-80.28-51.48,5.76-3.96,12.6-10.08,17.28-15.12,16.2,27,46.44,42.48,72,44.28,3.96-15.12,6.12-37.08,6.12-58.68-.36-22.68-.72-51.12-2.88-82.44-50.4,6.84-102.96,44.64-133.92,113.4-3.24,7.2-4.68,15.48-4.68,25.2s1.44,21.6,4.68,33.84l-25.2,3.96c-7.56-27-11.52-60.84-11.52-95.76,0-39.96,5.4-100.08,16.2-145.44l33.84,7.2Zm145.44,55.08c1.8,30.6,2.16,61.56,2.52,85.32,0,21.96-2.16,44.64-6.84,60.48,51.12-2.88,81-29.52,81-76.32s-33.12-70.2-76.68-69.48Z"/><path class="cls-2" d="m112.83,86.1s-16.86,81.16-14.75,131.81"/><path class="cls-2" d="m363.43,116.4s63.66,12.59,60.06,95.75"/><line class="cls-2" x1="319.25" y1="78.38" x2="324.35" y2="186.68"/><polygon class="cls-1" points="98.12 211.75 102.85 211.3 101.04 217.36 99.23 223.42 96.31 217.81 93.39 212.2 98.12 211.75"/><polygon class="cls-1" points="324.03 176.36 328.77 176.23 326.57 182.15 324.36 188.08 321.82 182.29 319.28 176.5 324.03 176.36"/><polygon class="cls-1" points="423.74 208.56 428.46 209.09 425.44 214.65 422.43 220.21 420.72 214.12 419.02 208.03 423.74 208.56"/><circle class="cls-1" cx="87.64" cy="71.68" r="16.1"/><text class="cls-4" transform="translate(81.8 78.99)"><tspan x="0" y="0">1</tspan></text><circle class="cls-1" cx="345.26" cy="66.1" r="16.1"/><text class="cls-4" transform="translate(339.42 73.41)"><tspan x="0" y="0">2</tspan></text></svg>